G04*
G04 #@! TF.GenerationSoftware,Altium Limited,Altium Designer,21.8.1 (53)*
G04*
G04 Layer_Color=16711935*
%FSTAX43Y43*%
%MOMM*%
G71*
G04*
G04 #@! TF.SameCoordinates,5917DE4E-807E-4B04-9922-B60C5F19F5A3*
G04*
G04*
G04 #@! TF.FilePolarity,Negative*
G04*
G01*
G75*
G04:AMPARAMS|DCode=16|XSize=0.18mm|YSize=0.485mm|CornerRadius=0.018mm|HoleSize=0mm|Usage=FLASHONLY|Rotation=0.000|XOffset=0mm|YOffset=0mm|HoleType=Round|Shape=RoundedRectangle|*
%AMROUNDEDRECTD16*
21,1,0.180,0.449,0,0,0.0*
21,1,0.144,0.485,0,0,0.0*
1,1,0.036,0.072,-0.225*
1,1,0.036,-0.072,-0.225*
1,1,0.036,-0.072,0.225*
1,1,0.036,0.072,0.225*
%
%ADD16ROUNDEDRECTD16*%
G04:AMPARAMS|DCode=17|XSize=0.28mm|YSize=0.485mm|CornerRadius=0.028mm|HoleSize=0mm|Usage=FLASHONLY|Rotation=0.000|XOffset=0mm|YOffset=0mm|HoleType=Round|Shape=RoundedRectangle|*
%AMROUNDEDRECTD17*
21,1,0.280,0.429,0,0,0.0*
21,1,0.224,0.485,0,0,0.0*
1,1,0.056,0.112,-0.215*
1,1,0.056,-0.112,-0.215*
1,1,0.056,-0.112,0.215*
1,1,0.056,0.112,0.215*
%
%ADD17ROUNDEDRECTD17*%
D16*
X0001425Y0002092D02*
D03*
Y0003908D02*
D03*
X0001775D02*
D03*
X0002125D02*
D03*
X0002475D02*
D03*
X0002825D02*
D03*
X0003175D02*
D03*
X0003525D02*
D03*
X0003875D02*
D03*
X0004225D02*
D03*
X0004575D02*
D03*
X0004925D02*
D03*
X0005275D02*
D03*
X0005625D02*
D03*
X0005975D02*
D03*
X0006325D02*
D03*
X0006675D02*
D03*
X0007025D02*
D03*
X0007375D02*
D03*
X0007725D02*
D03*
X0008075D02*
D03*
X0001775Y0002092D02*
D03*
X0002125D02*
D03*
X0002475D02*
D03*
X0002825D02*
D03*
X0003175D02*
D03*
X0003525D02*
D03*
X0003875D02*
D03*
X0004225D02*
D03*
X0004575D02*
D03*
X0004925D02*
D03*
X0005275D02*
D03*
X0005625D02*
D03*
X0005975D02*
D03*
X0006325D02*
D03*
X0006675D02*
D03*
X0007025D02*
D03*
X0007375D02*
D03*
X0007725D02*
D03*
X0008075D02*
D03*
D17*
X0008475D02*
D03*
Y0003908D02*
D03*
X0001025Y0002092D02*
D03*
Y0003908D02*
D03*
M02*
