M48
;Layer_Color=9474304
;FILE_FORMAT=4:3
METRIC
;TYPE=PLATED
T1F00S00C0.150
%
T01
X0001669Y0001544
X0002025Y0001550
X0003600Y0001350
X0003877Y0001598
X0004150Y0001350
X0004685Y0001420
Y0000900
X0005205
X0005725
X0006245
X0006765
X0007285
X0007805
X0008325
Y0001420
X0007800Y0001450
X0007300
X0006750
X0006250
X0005700
X0005200Y0001450
X0004750Y0003000
X0004377Y0003001
X0003175Y0003175
X0002475
X0001600Y0003000
X0001175
X0000975Y0002600
X0000973Y0003422
X0000925Y0004500
X0001275Y0004875
X0001968Y0005274
X0002800Y0005075
X0003350Y0004850
X0003175Y0006100
X0006775Y0005850
X0007275
X0007700Y0005500
X0008200
X0008600Y0005175
X0009100
X0008950Y0004065
X0008950Y0003545
X0008950Y0003025
X0008550Y0003025
X0008150
X0008950Y0002482
Y0001939
Y0001397
X0008955Y0000900
X0009100Y0165950
X0008600
X0008200Y0165575
X0007700
X0007275Y0164800
X0006775
X0005924Y0167500
X0005542
X0005159
X0004777
X0004395
X0003375
X0002750
X0002125Y0167325
X0001600Y0167500
X0001175
X0000975Y0167100
X0000973Y0167922
X0002750Y0168950
X0002550Y0169275
X0003600Y0169150
X0003877Y0168902
X0004150Y0169150
X0004690Y0169105
X0005200Y0169100
X0005700
X0006250
X0006750
X0006770Y0169625
X0006250
X0005730
X0005210
X0004690
X0007290
X0007810
X0008330
Y0169105
X0007800Y0169100
X0007300
X0009000Y0169143
Y0168712
Y0168230
Y0169625
X0003414Y0164453
Y0164103
Y0163753
M30
