G04*
G04 #@! TF.GenerationSoftware,Altium Limited,Altium Designer,21.8.1 (53)*
G04*
G04 Layer_Color=32768*
%FSTAX43Y43*%
%MOMM*%
G71*
G04*
G04 #@! TF.SameCoordinates,E9D0F36F-AA13-4B2A-9452-88F94A95212A*
G04*
G04*
G04 #@! TF.FilePolarity,Positive*
G04*
G01*
G75*
%ADD10C,0.200*%
%ADD11C,0.150*%
%ADD37C,0.254*%
%ADD42C,0.050*%
%ADD43C,0.100*%
%ADD44C,0.080*%
%ADD45C,0.040*%
D10*
X0019333Y00178D02*
X0019D01*
X0019167D01*
Y0016967D01*
X0019Y00168D01*
X0018834D01*
X0018667Y0016967D01*
X0019667Y0017633D02*
X0019833Y00178D01*
X0020166D01*
X0020333Y0017633D01*
Y0017467D01*
X0020166Y00173D01*
X002D01*
X0020166D01*
X0020333Y0017133D01*
Y0016967D01*
X0020166Y00168D01*
X0019833D01*
X0019667Y0016967D01*
D11*
X00195Y00046D02*
X0019767D01*
X0019633D01*
Y0005267D01*
X0019767Y00054D01*
X00199D01*
X0020033Y0005267D01*
X0019233Y00054D02*
X0018967D01*
X00191D01*
Y00046D01*
X0019233Y0004733D01*
D37*
X0033441Y0005425D02*
G03*
X0033441Y0005425I-0000141J0D01*
G01*
D42*
X0023025Y000595D02*
G03*
X0023025Y000595I-00002J0D01*
G01*
X003695Y00104D02*
G03*
X003695Y00104I-000075J0D01*
G01*
X000799Y00145D02*
Y00201D01*
X003101Y00145D02*
Y00201D01*
X000799D02*
X003101D01*
X000799Y00145D02*
X003101D01*
X0024325Y00039D02*
Y00061D01*
X0014675Y00061D02*
X0024325Y00061D01*
X0014675Y00039D02*
X0024325Y00039D01*
X0014675Y00039D02*
Y00061D01*
X00275Y00039D02*
X002895D01*
Y00061D01*
X00275D02*
X002895D01*
X00275Y00039D02*
Y00061D01*
X0033Y000835D02*
X00341D01*
X0033D02*
Y000895D01*
X00341D01*
Y000835D02*
Y000895D01*
X0032725Y000485D02*
Y0008D01*
X0035875D01*
Y000485D02*
Y0008D01*
X0032725Y000485D02*
X0035875D01*
X00312D02*
X00318D01*
Y000595D01*
X00312D02*
X00318D01*
X00312Y000485D02*
Y000595D01*
X002915Y001025D02*
X002975D01*
X002975Y001135D01*
X002915Y001135D02*
X002975Y001135D01*
X002915Y001025D02*
Y001135D01*
X003015Y001025D02*
X003075Y001025D01*
Y001135D01*
X003015Y001135D02*
X003075Y001135D01*
X003015Y001025D02*
Y001135D01*
X003215Y001025D02*
X003275Y001025D01*
Y001135D01*
X003215Y001135D02*
X003275Y001135D01*
X003215Y001025D02*
Y001135D01*
X003115Y001025D02*
X003175Y001025D01*
Y001135D01*
X003115D02*
X003175D01*
X003115Y001025D02*
X003115Y001135D01*
X0030225Y000485D02*
Y000595D01*
X0030825D01*
Y000485D02*
Y000595D01*
X0030225Y000485D02*
X0030825D01*
X003415Y000375D02*
Y000435D01*
X003305D02*
X003415D01*
X003305Y000375D02*
Y000435D01*
Y000375D02*
X003415D01*
X0035575Y001055D02*
X0035775D01*
X0035675D01*
Y001025D01*
X0035875D02*
Y001055D01*
X0036025D01*
X0036075Y00105D01*
Y00104D01*
X0036025Y001035D01*
X0035875D01*
X0036375Y001025D02*
X0036175D01*
X0036375Y001045D01*
Y00105D01*
X0036325Y001055D01*
X0036225D01*
X0036175Y00105D01*
D43*
X00127Y00153D02*
G03*
X00127Y00153I-00002J0D01*
G01*
X00344Y0005725D02*
X0035067D01*
X00352Y0005858D01*
Y0006125D01*
X0035067Y0006258D01*
X00344D01*
X00352Y0006525D02*
Y0006791D01*
Y0006658D01*
X00344D01*
X0034534Y0006525D01*
D44*
X0028033Y0004333D02*
X002795Y000425D01*
Y0004083D01*
X0028033Y0004D01*
X0028367D01*
X002845Y0004083D01*
Y000425D01*
X0028367Y0004333D01*
X002845Y00045D02*
Y0004666D01*
Y0004583D01*
X002795D01*
X0028033Y00045D01*
D45*
X0033833Y0008542D02*
X0033875Y00085D01*
X0033958D01*
X0034Y0008542D01*
Y0008708D01*
X0033958Y000875D01*
X0033875D01*
X0033833Y0008708D01*
X003375Y0008542D02*
X0033708Y00085D01*
X0033625D01*
X0033583Y0008542D01*
Y0008583D01*
X0033625Y0008625D01*
X0033667D01*
X0033625D01*
X0033583Y0008667D01*
Y0008708D01*
X0033625Y000875D01*
X0033708D01*
X003375Y0008708D01*
X00316Y000495D02*
X003135D01*
Y0005075D01*
X0031392Y0005117D01*
X0031475D01*
X0031517Y0005075D01*
Y000495D01*
Y0005033D02*
X00316Y0005117D01*
X003135Y0005367D02*
X0031392Y0005283D01*
X0031475Y00052D01*
X0031558D01*
X00316Y0005242D01*
Y0005325D01*
X0031558Y0005367D01*
X0031517D01*
X0031475Y0005325D01*
Y00052D01*
X002955Y001035D02*
X00293D01*
Y0010475D01*
X0029342Y0010517D01*
X0029425D01*
X0029467Y0010475D01*
Y001035D01*
Y0010433D02*
X002955Y0010517D01*
X0029342Y00106D02*
X00293Y0010642D01*
Y0010725D01*
X0029342Y0010767D01*
X0029383D01*
X0029425Y0010725D01*
Y0010683D01*
Y0010725D01*
X0029467Y0010767D01*
X0029508D01*
X002955Y0010725D01*
Y0010642D01*
X0029508Y00106D01*
X003055Y001035D02*
X00303D01*
Y0010475D01*
X0030342Y0010517D01*
X0030425D01*
X0030467Y0010475D01*
Y001035D01*
Y0010433D02*
X003055Y0010517D01*
Y0010725D02*
X00303D01*
X0030425Y00106D01*
Y0010767D01*
X003255Y001035D02*
X00323D01*
Y0010475D01*
X0032342Y0010517D01*
X0032425D01*
X0032467Y0010475D01*
Y001035D01*
Y0010433D02*
X003255Y0010517D01*
Y0010767D02*
Y00106D01*
X0032383Y0010767D01*
X0032342D01*
X00323Y0010725D01*
Y0010642D01*
X0032342Y00106D01*
X003155Y001035D02*
X00313D01*
Y0010475D01*
X0031342Y0010517D01*
X0031425D01*
X0031467Y0010475D01*
Y001035D01*
Y0010433D02*
X003155Y0010517D01*
Y00106D02*
Y0010683D01*
Y0010642D01*
X00313D01*
X0031342Y00106D01*
X0030625Y000495D02*
X0030375D01*
Y0005075D01*
X0030417Y0005117D01*
X00305D01*
X0030542Y0005075D01*
Y000495D01*
Y0005033D02*
X0030625Y0005117D01*
X0030375Y0005367D02*
Y00052D01*
X00305D01*
X0030458Y0005283D01*
Y0005325D01*
X00305Y0005367D01*
X0030583D01*
X0030625Y0005325D01*
Y0005242D01*
X0030583Y00052D01*
X0033883Y0003941D02*
X0033925Y00039D01*
X0034008D01*
X003405Y0003941D01*
Y0004108D01*
X0034008Y000415D01*
X0033925D01*
X0033883Y0004108D01*
X0033633Y000415D02*
X00338D01*
X0033633Y0003983D01*
Y0003941D01*
X0033675Y00039D01*
X0033758D01*
X00338Y0003941D01*
M02*
