G04*
G04 #@! TF.GenerationSoftware,Altium Limited,Altium Designer,21.8.1 (53)*
G04*
G04 Layer_Color=32768*
%FSTAX43Y43*%
%MOMM*%
G71*
G04*
G04 #@! TF.SameCoordinates,E9D0F36F-AA13-4B2A-9452-88F94A95212A*
G04*
G04*
G04 #@! TF.FilePolarity,Positive*
G04*
G01*
G75*
%ADD42C,0.050*%
%ADD43C,0.100*%
%ADD46C,0.010*%
D42*
X0023025Y000595D02*
G03*
X0023025Y000595I-00002J0D01*
G01*
X00063Y0005D02*
G03*
X00063Y0005I-00013J0D01*
G01*
X00373Y0014D02*
G03*
X00373Y0014I-00013J0D01*
G01*
X0019Y00173D02*
X002D01*
X00195Y00168D02*
Y00178D01*
X000785Y001235D02*
Y002025D01*
X003115Y001235D02*
Y002025D01*
X000785D02*
X003115D01*
X000785Y001235D02*
X003115D01*
X0014525Y00037D02*
X0024475D01*
Y00063D01*
X0014525D02*
X0024475D01*
X0014525Y00037D02*
Y00063D01*
X00195Y00045D02*
Y00055D01*
X0019Y0005D02*
X002D01*
X002735Y0003575D02*
X00291D01*
X002735Y0006425D02*
X00291Y0006425D01*
X002735Y0003575D02*
Y0006425D01*
X00291Y0003575D02*
X00291Y0006425D01*
X00327Y00091D02*
X00344Y00091D01*
X00327Y00091D02*
X00327Y00082D01*
X00344Y00082D01*
X00344Y00091D02*
X00344Y00082D01*
X0032575Y00047D02*
X0036025D01*
Y000815D01*
X0032575Y00047D02*
Y000815D01*
X0036025D01*
X003105Y000455D02*
X003195D01*
X003105D02*
Y000625D01*
X003195D01*
Y000455D02*
Y000625D01*
X0029Y000995D02*
X00299D01*
X0029Y001165D02*
X0029Y000995D01*
X0029Y001165D02*
X00299D01*
X00299Y000995D02*
X00299Y001165D01*
X003Y000995D02*
X00309D01*
X003Y001165D02*
X003Y000995D01*
X003Y001165D02*
X00309Y001165D01*
Y000995D02*
Y001165D01*
X0032Y000995D02*
X00329Y000995D01*
X0032Y000995D02*
Y001165D01*
X00329D01*
X00329Y000995D01*
X0031D02*
X00319D01*
X0031D02*
Y001165D01*
X00319Y001165D01*
X00319Y000995D01*
X0030975Y000455D02*
Y000625D01*
X0030075D02*
X0030975D01*
X0030075Y000455D02*
Y000625D01*
Y000455D02*
X0030975D01*
X003445Y00036D02*
Y00045D01*
X003275Y00036D02*
X003445D01*
X003275D02*
Y00045D01*
X003445D01*
D43*
X00127Y00153D02*
G03*
X00127Y00153I-00002J0D01*
G01*
X0028225Y00055D02*
X0028225Y00045D01*
X0027725Y0005D02*
X0028725D01*
X003355Y00084D02*
X003355Y00089D01*
X00333Y000865D02*
X00338Y000865D01*
X00315Y000515D02*
Y000565D01*
X003125Y00054D02*
X003175D01*
X002945Y001055D02*
Y001105D01*
X00292Y00108D02*
X00297D01*
X003045Y001055D02*
Y001105D01*
X00302Y00108D02*
X00307D01*
X003245Y001055D02*
Y001105D01*
X00322Y00108D02*
X00327D01*
X003145Y001055D02*
Y001105D01*
X00312Y00108D02*
X00317D01*
X0030275Y00054D02*
X0030775D01*
X0030525Y000515D02*
Y000565D01*
X003335Y000405D02*
X003385D01*
X00336Y00038D02*
Y00043D01*
D46*
X003725Y00104D02*
G03*
X003725Y00104I-000105J0D01*
G01*
X0036058Y0011407D02*
X003605Y0011415D01*
X0036033D01*
X0036025Y0011407D01*
Y0011373D01*
X0036033Y0011365D01*
X003605D01*
X0036058Y0011373D01*
Y001139D01*
X0036042D01*
X0036075Y0011415D02*
Y0011365D01*
Y0011382D01*
X0036108Y0011415D01*
X0036083Y001139D01*
X0036108Y0011365D01*
X0036158Y0011407D02*
X003615Y0011415D01*
X0036133D01*
X0036125Y0011407D01*
Y0011398D01*
X0036133Y001139D01*
X003615D01*
X0036158Y0011382D01*
Y0011373D01*
X003615Y0011365D01*
X0036133D01*
X0036125Y0011373D01*
X0036175Y001139D02*
X0036208D01*
X0036225Y0011365D02*
X0036242D01*
X0036233D01*
Y0011415D01*
X0036225Y0011407D01*
X0036267D02*
X0036275Y0011415D01*
X0036292D01*
X00363Y0011407D01*
Y0011373D01*
X0036292Y0011365D01*
X0036275D01*
X0036267Y0011373D01*
Y0011407D01*
X0036317D02*
X0036325Y0011415D01*
X0036342D01*
X003635Y0011407D01*
Y0011373D01*
X0036342Y0011365D01*
X0036325D01*
X0036317Y0011373D01*
Y0011407D01*
M02*
