G04*
G04 #@! TF.GenerationSoftware,Altium Limited,Altium Designer,21.8.1 (53)*
G04*
G04 Layer_Color=32768*
%FSTAX43Y43*%
%MOMM*%
G71*
G04*
G04 #@! TF.SameCoordinates,6DCA0702-E8A1-45D8-905D-7E8CEDC4C78A*
G04*
G04*
G04 #@! TF.FilePolarity,Positive*
G04*
G01*
G75*
%ADD10C,0.200*%
%ADD13C,0.150*%
%ADD14C,0.100*%
%ADD107C,0.050*%
%ADD108C,0.254*%
%ADD111C,0.160*%
%ADD112C,0.040*%
%ADD113C,0.130*%
%ADD114C,0.080*%
%ADD115C,0.075*%
%ADD116C,0.070*%
%ADD117C,0.120*%
D10*
X-0007689Y0037899D02*
X-0008278Y003731D01*
Y0037075D01*
X-0008042Y0036839D01*
X-0007807D01*
X-0007218Y0037428D01*
Y0036014D02*
X-0007689Y0036486D01*
X-0006746D01*
X-0006629Y0036603D01*
X-0006629Y0036839D01*
X-0006864Y0037075D01*
X-00071D01*
X-0006393Y0036368D02*
X-0006157D01*
X-0005922Y0036132D01*
X-0005922Y0035897D01*
X-0006393Y0035425D01*
X-0006629Y0035425D01*
X-0006864Y0035661D01*
Y0035897D01*
X-0006393Y0036368D01*
X-0005922Y0034718D02*
X-0005215Y0035425D01*
X-0005922D01*
X-0005451Y0034954D01*
X00243Y-0012633D02*
X0024466Y-00128D01*
X00248D01*
X0024966Y-0012633D01*
Y-0011967D01*
X00248Y-00118D01*
X0024466D01*
X00243Y-0011967D01*
X0023467Y-00118D02*
Y-00128D01*
X0023966Y-00123D01*
X00233D01*
X0022967Y-0012633D02*
X00228Y-00128D01*
X0022467D01*
X00223Y-0012633D01*
Y-0011967D01*
X0022467Y-00118D01*
X00228D01*
X0022967Y-0011967D01*
Y-0012633D01*
X0021967Y-00118D02*
X0021634D01*
X00218D01*
Y-00128D01*
X0021967Y-0012633D01*
X-00122Y-0031367D02*
X-0013033D01*
X-00132Y-0031534D01*
Y-0031867D01*
X-0013033Y-0032034D01*
X-00122D01*
X-00132Y-0032867D02*
X-00122D01*
X-00127Y-0032367D01*
Y-0033033D01*
X-0012367Y-0033367D02*
X-00122Y-0033533D01*
Y-0033866D01*
X-0012367Y-0034033D01*
X-0013033D01*
X-00132Y-0033866D01*
Y-0033533D01*
X-0013033Y-0033367D01*
X-0012367D01*
X-00132Y-0035033D02*
Y-0034366D01*
X-0012533Y-0035033D01*
X-0012367D01*
X-00122Y-0034866D01*
Y-0034533D01*
X-0012367Y-0034366D01*
X0027033Y00303D02*
X00272Y0030466D01*
Y00308D01*
X0027033Y0030966D01*
X0026367D01*
X00262Y00308D01*
Y0030466D01*
X0026367Y00303D01*
X0027033Y0029966D02*
X00272Y00298D01*
Y0029467D01*
X0027033Y00293D01*
X0026867D01*
X00267Y0029467D01*
Y0029633D01*
Y0029467D01*
X0026533Y00293D01*
X0026367D01*
X00262Y0029467D01*
Y00298D01*
X0026367Y0029966D01*
X0027033Y0028967D02*
X00272Y00288D01*
Y0028467D01*
X0027033Y00283D01*
X0026367D01*
X00262Y0028467D01*
Y00288D01*
X0026367Y0028967D01*
X0027033D01*
X00262Y0027967D02*
Y0027634D01*
Y00278D01*
X00272D01*
X0027033Y0027967D01*
X0005933Y0029241D02*
X00061Y0029408D01*
Y0029741D01*
X0005933Y0029908D01*
X0005267D01*
X00051Y0029741D01*
Y0029408D01*
X0005267Y0029241D01*
X0005933Y0028908D02*
X00061Y0028741D01*
Y0028408D01*
X0005933Y0028242D01*
X0005767D01*
X00056Y0028408D01*
Y0028575D01*
Y0028408D01*
X0005433Y0028242D01*
X0005267D01*
X00051Y0028408D01*
Y0028741D01*
X0005267Y0028908D01*
X0005933Y0027908D02*
X00061Y0027742D01*
Y0027409D01*
X0005933Y0027242D01*
X0005267D01*
X00051Y0027409D01*
Y0027742D01*
X0005267Y0027908D01*
X0005933D01*
Y0026909D02*
X00061Y0026742D01*
Y0026409D01*
X0005933Y0026242D01*
X0005267D01*
X00051Y0026409D01*
Y0026742D01*
X0005267Y0026909D01*
X0005933D01*
D13*
X-0024559Y-0036313D02*
X-0024777Y-003616D01*
X-0024668Y-0036236D01*
X-002505Y-0036782D01*
X-0025236Y-0036815D01*
X-0025345Y-0036739D01*
X-0025378Y-0036553D01*
X-0024472Y-003735D02*
X-0024013Y-0036695D01*
X-002457Y-0036793D01*
X-0024133Y-0037099D01*
X-0023762Y-0037034D02*
X-0023576Y-0037001D01*
X-0023358Y-0037154D01*
X-0023325Y-0037339D01*
X-0023631Y-0037776D01*
X-0023817Y-0037809D01*
X-0024035Y-0037656D01*
X-0024068Y-003747D01*
X-0023762Y-0037034D01*
X-0023162Y-0038268D02*
X-0022703Y-0037613D01*
X-002326Y-0037711D01*
X-0022823Y-0038017D01*
X-0029561Y-0031916D02*
X-0029749Y-0031728D01*
X-0029655Y-0031822D01*
X-0030126Y-0032293D01*
X-0030315D01*
X-0030409Y-0032199D01*
Y-0032011D01*
X-0029655Y-0032953D02*
X-002909Y-0032388D01*
X-0029655Y-0032388D01*
X-0029278Y-0032765D01*
X-0028901D02*
X-0028713Y-0032765D01*
X-0028524Y-0032953D01*
Y-0033142D01*
X-0028901Y-0033519D01*
X-002909Y-0033519D01*
X-0029278Y-003333D01*
Y-0033142D01*
X-0028901Y-0032765D01*
X-002843Y-0034178D02*
X-0028807Y-0033801D01*
X-0028053D01*
X-0027959Y-0033707D01*
Y-0033519D01*
X-0028147Y-003333D01*
X-0028336Y-003333D01*
X00243Y-0024233D02*
X0025133D01*
X00253Y-0024066D01*
Y-0023733D01*
X0025133Y-0023566D01*
X00243D01*
X00253Y-0022733D02*
X00243D01*
X00248Y-0023233D01*
Y-0022567D01*
X0024467Y-0022233D02*
X00243Y-0022067D01*
Y-0021734D01*
X0024467Y-0021567D01*
X0025133D01*
X00253Y-0021734D01*
Y-0022067D01*
X0025133Y-0022233D01*
X0024467D01*
Y-0021234D02*
X00243Y-0021067D01*
Y-0020734D01*
X0024467Y-0020567D01*
X0024633D01*
X00248Y-0020734D01*
Y-00209D01*
Y-0020734D01*
X0024967Y-0020567D01*
X0025133D01*
X00253Y-0020734D01*
Y-0021067D01*
X0025133Y-0021234D01*
X0010567Y-00271D02*
Y-0027933D01*
X0010734Y-00281D01*
X0011067D01*
X0011234Y-0027933D01*
Y-00271D01*
X0012067Y-00281D02*
Y-00271D01*
X0011567Y-00276D01*
X0012233D01*
X0012567Y-0027267D02*
X0012733Y-00271D01*
X0013066D01*
X0013233Y-0027267D01*
Y-0027933D01*
X0013066Y-00281D01*
X0012733D01*
X0012567Y-0027933D01*
Y-0027267D01*
X0013566D02*
X0013733Y-00271D01*
X0014066D01*
X0014233Y-0027267D01*
Y-0027933D01*
X0014066Y-00281D01*
X0013733D01*
X0013566Y-0027933D01*
Y-0027267D01*
X-00013Y-0003416D02*
Y-000375D01*
Y-0003583D01*
X-0000467D01*
X-00003Y-000375D01*
Y-0003916D01*
X-0000467Y-0004083D01*
X-00003Y-0003083D02*
Y-000275D01*
Y-0002917D01*
X-00013D01*
X-0001133Y-0003083D01*
Y-000225D02*
X-00013Y-0002083D01*
Y-000175D01*
X-0001133Y-0001584D01*
X-0000467D01*
X-00003Y-000175D01*
Y-0002083D01*
X-0000467Y-000225D01*
X-0001133D01*
X-00003Y-000125D02*
Y-0000917D01*
Y-0001084D01*
X-00013D01*
X-0001133Y-000125D01*
X0014883Y0001766D02*
X001505Y0001933D01*
Y0002266D01*
X0014883Y0002433D01*
X0014217D01*
X001405Y0002266D01*
Y0001933D01*
X0014217Y0001766D01*
X001505Y0000767D02*
Y0001433D01*
X001455D01*
X0014717Y00011D01*
Y0000933D01*
X001455Y0000767D01*
X0014217D01*
X001405Y0000933D01*
Y0001266D01*
X0014217Y0001433D01*
X0014883Y0000433D02*
X001505Y0000267D01*
Y-0000066D01*
X0014883Y-0000233D01*
X0014217D01*
X001405Y-0000066D01*
Y0000267D01*
X0014217Y0000433D01*
X0014883D01*
X001505Y-0000566D02*
Y-0001233D01*
X0014883D01*
X0014217Y-0000566D01*
X001405D01*
X00076Y0037D02*
Y003775D01*
X000745Y00379D01*
X000715D01*
X0007Y003775D01*
Y0037D01*
X00061Y00379D02*
X00067D01*
X00061Y00373D01*
Y003715D01*
X000625Y0037D01*
X000655D01*
X00067Y003715D01*
X0005801D02*
X0005651Y0037D01*
X0005351D01*
X0005201Y003715D01*
Y003775D01*
X0005351Y00379D01*
X0005651D01*
X0005801Y003775D01*
Y003715D01*
X0004301Y0037D02*
X0004901D01*
Y003745D01*
X0004601Y00373D01*
X0004451D01*
X0004301Y003745D01*
Y003775D01*
X0004451Y00379D01*
X0004751D01*
X0004901Y003775D01*
X0036334Y-00089D02*
Y-00097D01*
X0036734D01*
X0036867Y-0009567D01*
Y-0009033D01*
X0036734Y-00089D01*
X0036334D01*
X0037667D02*
X0037134D01*
Y-00093D01*
X00374Y-0009167D01*
X0037533D01*
X0037667Y-00093D01*
Y-0009567D01*
X0037533Y-00097D01*
X0037267D01*
X0037134Y-0009567D01*
X0037933Y-0009033D02*
X0038067Y-00089D01*
X0038333D01*
X0038466Y-0009033D01*
Y-0009567D01*
X0038333Y-00097D01*
X0038067D01*
X0037933Y-0009567D01*
Y-0009033D01*
X0039266Y-00089D02*
X0038733D01*
Y-00093D01*
X0039Y-0009167D01*
X0039133D01*
X0039266Y-00093D01*
Y-0009567D01*
X0039133Y-00097D01*
X0038866D01*
X0038733Y-0009567D01*
X0007866Y001085D02*
X0008133D01*
X0008D01*
Y0011517D01*
X0008133Y001165D01*
X0008266D01*
X00084Y0011517D01*
X00076Y001165D02*
X0007333D01*
X0007467D01*
Y001085D01*
X00076Y0010983D01*
X0006933D02*
X00068Y001085D01*
X0006533D01*
X00064Y0010983D01*
Y0011517D01*
X0006533Y001165D01*
X00068D01*
X0006933Y0011517D01*
Y0010983D01*
X0006134D02*
X0006Y001085D01*
X0005734D01*
X00056Y0010983D01*
Y0011117D01*
X0005734Y001125D01*
X0005867D01*
X0005734D01*
X00056Y0011383D01*
Y0011517D01*
X0005734Y001165D01*
X0006D01*
X0006134Y0011517D01*
X0027634Y00214D02*
X0027367D01*
X00275D01*
Y0020733D01*
X0027367Y00206D01*
X0027234D01*
X00271Y0020733D01*
X00279Y00206D02*
X0028167D01*
X0028033D01*
Y00214D01*
X00279Y0021267D01*
X0028567D02*
X00287Y00214D01*
X0028967D01*
X00291Y0021267D01*
Y0020733D01*
X0028967Y00206D01*
X00287D01*
X0028567Y0020733D01*
Y0021267D01*
X00299Y00214D02*
X0029366D01*
Y0021D01*
X0029633Y0021133D01*
X0029766D01*
X00299Y0021D01*
Y0020733D01*
X0029766Y00206D01*
X00295D01*
X0029366Y0020733D01*
X-0002118Y-004185D02*
X-0002385D01*
X-0002251D01*
Y-0042517D01*
X-0002385Y-004265D01*
X-0002518D01*
X-0002651Y-0042517D01*
X-0001452Y-004265D02*
Y-004185D01*
X-0001851Y-004225D01*
X-0001318D01*
X-0001052Y-0041983D02*
X-0000918Y-004185D01*
X-0000652D01*
X-0000519Y-0041983D01*
Y-0042517D01*
X-0000652Y-004265D01*
X-0000918D01*
X-0001052Y-0042517D01*
Y-0041983D01*
X-0000252D02*
X-0000119Y-004185D01*
X0000148D01*
X0000281Y-0041983D01*
Y-0042117D01*
X0000148Y-004225D01*
X0000015D01*
X0000148D01*
X0000281Y-0042383D01*
Y-0042517D01*
X0000148Y-004265D01*
X-0000119D01*
X-0000252Y-0042517D01*
X0027634Y00159D02*
X0027367D01*
X00275D01*
Y0015233D01*
X0027367Y00151D01*
X0027234D01*
X00271Y0015233D01*
X00279Y00151D02*
X0028167D01*
X0028033D01*
Y00159D01*
X00279Y0015767D01*
X0028567D02*
X00287Y00159D01*
X0028967D01*
X00291Y0015767D01*
Y0015233D01*
X0028967Y00151D01*
X00287D01*
X0028567Y0015233D01*
Y0015767D01*
X0029766Y00151D02*
Y00159D01*
X0029366Y00155D01*
X00299D01*
X0021059Y-0004142D02*
X0020892Y-0003975D01*
X0020559D01*
X0020392Y-0004142D01*
Y-0004808D01*
X0020559Y-0004975D01*
X0020892D01*
X0021059Y-0004808D01*
X0022058Y-0003975D02*
X0021392D01*
Y-0004475D01*
X0021725Y-0004308D01*
X0021892D01*
X0022058Y-0004475D01*
Y-0004808D01*
X0021892Y-0004975D01*
X0021559D01*
X0021392Y-0004808D01*
X0022392Y-0004142D02*
X0022558Y-0003975D01*
X0022891D01*
X0023058Y-0004142D01*
Y-0004808D01*
X0022891Y-0004975D01*
X0022558D01*
X0022392Y-0004808D01*
Y-0004142D01*
X0024058Y-0003975D02*
X0023725Y-0004142D01*
X0023391Y-0004475D01*
Y-0004808D01*
X0023558Y-0004975D01*
X0023891D01*
X0024058Y-0004808D01*
Y-0004642D01*
X0023891Y-0004475D01*
X0023391D01*
X0036334Y-00058D02*
Y-00066D01*
X0036734D01*
X0036867Y-0006467D01*
Y-0005933D01*
X0036734Y-00058D01*
X0036334D01*
X0037667D02*
X0037134D01*
Y-00062D01*
X00374Y-0006067D01*
X0037533D01*
X0037667Y-00062D01*
Y-0006467D01*
X0037533Y-00066D01*
X0037267D01*
X0037134Y-0006467D01*
X0037933Y-0005933D02*
X0038067Y-00058D01*
X0038333D01*
X0038466Y-0005933D01*
Y-0006467D01*
X0038333Y-00066D01*
X0038067D01*
X0037933Y-0006467D01*
Y-0005933D01*
X0039133Y-00066D02*
Y-00058D01*
X0038733Y-00062D01*
X0039266D01*
X-00353Y-0003583D02*
Y-0003916D01*
Y-000375D01*
X-0034467D01*
X-00343Y-0003916D01*
Y-0004083D01*
X-0034467Y-0004249D01*
X-00343Y-000325D02*
Y-0002917D01*
Y-0003083D01*
X-00353D01*
X-0035133Y-000325D01*
Y-0002417D02*
X-00353Y-000225D01*
Y-0001917D01*
X-0035133Y-000175D01*
X-0034467D01*
X-00343Y-0001917D01*
Y-000225D01*
X-0034467Y-0002417D01*
X-0035133D01*
Y-0001417D02*
X-00353Y-000125D01*
Y-0000917D01*
X-0035133Y-0000751D01*
X-0034467D01*
X-00343Y-0000917D01*
Y-000125D01*
X-0034467Y-0001417D01*
X-0035133D01*
D14*
X0012639Y00258D02*
G03*
X0012639Y00258I-00005J0D01*
G01*
X0030025Y0001575D02*
G03*
X0030025Y0001575I-00005J0D01*
G01*
X002035Y-00073D02*
X002135D01*
Y-00078D02*
Y-00073D01*
X002035Y-00078D02*
X002135D01*
X002035D02*
Y-00073D01*
X0013325Y-0010525D02*
X0013825D01*
Y-0009525D01*
X0013325D02*
X0013825D01*
X0013325Y-0010525D02*
Y-0009525D01*
X-0010716Y-002135D02*
Y-0022017D01*
X-0010583Y-002215D01*
X-0010316D01*
X-0010183Y-0022017D01*
Y-002135D01*
X-0009383D02*
X-000965Y-0021483D01*
X-0009916Y-002175D01*
Y-0022017D01*
X-0009783Y-002215D01*
X-0009517D01*
X-0009383Y-0022017D01*
Y-0021883D01*
X-0009517Y-002175D01*
X-0009916D01*
X-0009117Y-0021483D02*
X-0008983Y-002135D01*
X-0008717D01*
X-0008584Y-0021483D01*
Y-0022017D01*
X-0008717Y-002215D01*
X-0008983D01*
X-0009117Y-0022017D01*
Y-0021483D01*
X-0008317D02*
X-0008184Y-002135D01*
X-0007917D01*
X-0007784Y-0021483D01*
Y-0022017D01*
X-0007917Y-002215D01*
X-0008184D01*
X-0008317Y-0022017D01*
Y-0021483D01*
X-0016902Y0029873D02*
Y0029774D01*
X-0016702Y0029574D01*
X-0016502Y0029774D01*
Y0029873D01*
X-0016702Y0029574D02*
Y0029274D01*
X-0015902D02*
X-0016302D01*
X-0015902Y0029674D01*
Y0029774D01*
X-0016002Y0029873D01*
X-0016202D01*
X-0016302Y0029774D01*
X-0015702D02*
X-0015602Y0029873D01*
X-0015402D01*
X-0015302Y0029774D01*
Y0029374D01*
X-0015402Y0029274D01*
X-0015602D01*
X-0015702Y0029374D01*
Y0029774D01*
X-0015102D02*
X-0015002Y0029873D01*
X-0014802D01*
X-0014703Y0029774D01*
Y0029374D01*
X-0014802Y0029274D01*
X-0015002D01*
X-0015102Y0029374D01*
Y0029774D01*
X0010358Y-0009925D02*
Y-0010425D01*
X0010692D01*
X0011191Y-0009925D02*
X0010858D01*
Y-0010175D01*
X0011025Y-0010092D01*
X0011108D01*
X0011191Y-0010175D01*
Y-0010342D01*
X0011108Y-0010425D01*
X0010942D01*
X0010858Y-0010342D01*
X0011358Y-0010008D02*
X0011441Y-0009925D01*
X0011608D01*
X0011691Y-0010008D01*
Y-0010342D01*
X0011608Y-0010425D01*
X0011441D01*
X0011358Y-0010342D01*
Y-0010008D01*
X0011858D02*
X0011941Y-0009925D01*
X0012108D01*
X0012191Y-0010008D01*
Y-0010092D01*
X0012108Y-0010175D01*
X0012025D01*
X0012108D01*
X0012191Y-0010258D01*
Y-0010342D01*
X0012108Y-0010425D01*
X0011941D01*
X0011858Y-0010342D01*
D107*
X-002373Y-0035435D02*
G03*
X-002373Y-0035435I-0000601J0D01*
G01*
X-0028583Y-0031091D02*
G03*
X-0028583Y-0031091I-0000601J0D01*
G01*
X0026675Y-0026425D02*
G03*
X0026675Y-0026425I-00005J0D01*
G01*
X0008875Y-0028975D02*
G03*
X0008875Y-0028975I-00005J0D01*
G01*
X-0001815Y00073D02*
G03*
X-0001815Y00073I-0000175J0D01*
G01*
X00094Y00204D02*
G03*
X00094Y00204I-000015J0D01*
G01*
X-0039125Y-001545D02*
G03*
X-0039125Y-001545I-00006J0D01*
G01*
X-0020375Y0036846D02*
G03*
X-0020375Y0036846I-000025J0D01*
G01*
X-0016552Y0028824D02*
G03*
X-0016552Y0028824I-000025J0D01*
G01*
X-00109Y-00311D02*
G03*
X-00109Y-00311I-00002J0D01*
G01*
X0016425Y0003675D02*
G03*
X0016425Y0003675I-00004J0D01*
G01*
X000725Y-0011725D02*
G03*
X000725Y-0011725I-000025J0D01*
G01*
X003052Y-0011096D02*
G03*
X003052Y-0011096I-00002J0D01*
G01*
X-000955Y-004225D02*
G03*
X-000955Y-004225I-00006J0D01*
G01*
X-0017Y00406D02*
G03*
X-0017Y00406I-00006J0D01*
G01*
X-0006246Y0041483D02*
G03*
X-0006246Y0041483I-00005J0D01*
G01*
X0003795Y0035D02*
G03*
X0003795Y0035I-00003J0D01*
G01*
X-00207Y0029425D02*
G03*
X-00207Y0029425I-000025J0D01*
G01*
X0036075Y-0008175D02*
G03*
X0036075Y-0008175I-000025J0D01*
G01*
X0005625Y0007025D02*
G03*
X0005625Y0007025I-000015J0D01*
G01*
X-0038275Y-00185D02*
G03*
X-0038275Y-00185I-000015J0D01*
G01*
X00426Y0008D02*
G03*
X00426Y0008I-00006J0D01*
G01*
X001955Y-0003D02*
G03*
X001955Y-0003I-00004J0D01*
G01*
X0015375Y-0004475D02*
G03*
X0015375Y-0004475I-00006J0D01*
G01*
X00161Y-001425D02*
G03*
X00161Y-001425I-00006J0D01*
G01*
X0036075Y-0005075D02*
G03*
X0036075Y-0005075I-000025J0D01*
G01*
X00404Y0008D02*
G03*
X00404Y0008I-00006J0D01*
G01*
X-0041073Y0007169D02*
G03*
X-0041073Y0007169I-000025J0D01*
G01*
X-0018525Y003975D02*
G03*
X-0018525Y003975I-00006J0D01*
G01*
X-0014685Y-0038475D02*
G03*
X-0014685Y-0038475I-00006J0D01*
G01*
X-0010925Y-00393D02*
G03*
X-0010925Y-00393I-00006J0D01*
G01*
X-00383Y-00041D02*
G03*
X-00383Y-00041I-00006J0D01*
G01*
X-0040775Y-000585D02*
G03*
X-0040775Y-000585I-00006J0D01*
G01*
X-0035815Y00073D02*
G03*
X-0035815Y00073I-0000175J0D01*
G01*
X-002223Y-0039408D02*
X-0020395Y-0036787D01*
X-0026736Y-0036254D02*
X-002223Y-0039408D01*
X-0026736Y-0036254D02*
X-00249Y-0033632D01*
X-00249Y-0033632D02*
X-0020395Y-0036787D01*
X-0027805Y-0035369D02*
X-0025542Y-0033106D01*
X-0031694Y-003148D02*
X-0027805Y-0035369D01*
X-0031694Y-003148D02*
X-0029431Y-0029217D01*
Y-0029217D02*
X-0025542Y-0033106D01*
X-0007675Y-0023325D02*
Y-0020175D01*
X-0010825D02*
X-0007675D01*
X-0010825Y-0023325D02*
Y-0020175D01*
Y-0023325D02*
X-0007675D01*
X-00073Y-00212D02*
X-00067D01*
X-00073Y-00223D02*
Y-00212D01*
Y-00223D02*
X-00067D01*
Y-00212D01*
X-0014175Y-00291D02*
Y-0028D01*
X-0014775Y-00291D02*
X-0014175D01*
X-0014775D02*
Y-0028D01*
X-0014175D01*
X-0010775Y-00253D02*
X-0009675D01*
X-0010775D02*
Y-00247D01*
X-0009675D01*
Y-00253D02*
Y-00247D01*
X00192Y-0018025D02*
X00203D01*
Y-0018625D02*
Y-0018025D01*
X00192Y-0018625D02*
X00203D01*
X00192D02*
Y-0018025D01*
X0016225Y-00231D02*
Y-0022D01*
X0015625Y-00231D02*
X0016225D01*
X0015625D02*
Y-0022D01*
X0016225D01*
X0014625Y-00231D02*
X0015225D01*
Y-0022D01*
X0014625D02*
X0015225D01*
X0014625Y-00231D02*
Y-0022D01*
X00267Y-0014363D02*
Y-0010238D01*
X0025362Y-00089D02*
X00267Y-0010238D01*
X00199Y-00089D02*
X0025362D01*
X00199Y-00157D02*
Y-00089D01*
Y-00157D02*
X0025362D01*
X00267Y-0014363D01*
X003015Y-0024775D02*
X003285D01*
X003285Y-0028175D02*
X003285Y-0024775D01*
X003015Y-0028175D02*
X003015Y-0024775D01*
X003015Y-0028175D02*
X003285D01*
X002255Y-00273D02*
X002705D01*
X002255Y-00175D02*
X002705D01*
Y-00273D02*
Y-00175D01*
X002255Y-00273D02*
Y-00175D01*
X00075Y-002985D02*
Y-002535D01*
X00173Y-002985D02*
Y-002535D01*
X00075Y-002985D02*
X00173D01*
X00075Y-002535D02*
X00173D01*
X-000025Y00283D02*
Y00294D01*
X-000085Y00283D02*
X-000025D01*
X-000085D02*
Y00294D01*
X-000025D01*
X0021375Y0028175D02*
Y0030375D01*
X0022825D01*
Y0028175D02*
Y0030375D01*
X0021375Y0028175D02*
X0022825D01*
X00124Y002235D02*
X0013D01*
X00124Y002125D02*
Y002235D01*
Y002125D02*
X0013D01*
Y002235D01*
X0020739Y00213D02*
Y00224D01*
X0020139Y00213D02*
X0020739D01*
X0020139D02*
Y00224D01*
X0020739D01*
X00009Y-00138D02*
Y00088D01*
X-00025Y-00138D02*
X00009D01*
X-00025D02*
Y00088D01*
X00009D01*
X00088Y00224D02*
X0011D01*
Y002015D02*
Y00224D01*
X00088Y002015D02*
Y00224D01*
Y002015D02*
X0011D01*
X-002105Y0034371D02*
Y0037421D01*
Y0034371D02*
X-001805Y0034371D01*
Y0037421D01*
X-002105D02*
X-001805D01*
X0011264Y0024925D02*
X0021064D01*
X0011264Y0029425D02*
X0021064D01*
X0011264Y0024925D02*
Y0029425D01*
X0021064Y0024925D02*
Y0029425D01*
X-0017502Y0028224D02*
X-0014102Y0028224D01*
X-0014102Y0030924D02*
X-0014102Y0028224D01*
X-0017502Y0030924D02*
X-0014102D01*
X-0017502Y0028224D02*
Y0030924D01*
X000825Y-0032575D02*
Y-0031625D01*
Y-0032575D02*
X001D01*
Y-0031625D01*
X000825D02*
X001D01*
X0028375Y-000925D02*
X0029475Y-000925D01*
X0028375Y-000925D02*
Y-000865D01*
X0029475D01*
Y-000925D02*
Y-000865D01*
X-00102Y-00357D02*
Y-00307D01*
X-00152D02*
X-00102D01*
X-00152Y-00357D02*
Y-00307D01*
Y-00357D02*
X-00102D01*
X00123Y00044D02*
X00168D01*
X00123Y-00032D02*
X00168D01*
Y00044D01*
X00123Y-00032D02*
Y00044D01*
X0017345Y0008275D02*
X0027845D01*
X0017345Y-0002025D02*
X0027845D01*
X0017345D02*
X0017345Y0008275D01*
X0027845Y-0002025D02*
Y0008275D01*
X0009925Y-0009075D02*
X0012625D01*
Y-0011275D02*
Y-0009075D01*
X0009925Y-0011275D02*
X0012625D01*
X0009925D02*
Y-0009075D01*
X003365Y00007D02*
Y00047D01*
X002865Y00007D02*
Y00047D01*
X003365D01*
X002865Y00007D02*
X003365D01*
X0006425Y-001215D02*
X0009475D01*
Y-000915D01*
X0006425D02*
X0009475D01*
X0006425Y-001215D02*
Y-000915D01*
X0037141Y-0026544D02*
X0041431Y-0019404D01*
X0035602Y-0015902D02*
X0041431Y-0019404D01*
X0031312Y-0023042D02*
X0035602Y-0015902D01*
X0031312Y-0023042D02*
X0037141Y-0026544D01*
X002885Y-0020475D02*
X003155D01*
X002885D02*
X002885Y-0017075D01*
X003155Y-0020475D02*
X003155Y-0017075D01*
X002885D02*
X003155D01*
X0023075Y-001715D02*
Y-00162D01*
X0021325D02*
X0023075D01*
X0021325Y-001715D02*
Y-00162D01*
Y-001715D02*
X0023075D01*
X0032125Y-0012225D02*
X0032125Y-0008825D01*
X0033925Y-0012225D02*
X0033925Y-0008825D01*
X0032125Y-0012225D02*
X0033925Y-0012225D01*
X0032125Y-0008825D02*
X0033925Y-0008825D01*
X0031675Y-001D02*
X0031675Y-00113D01*
X0029975Y-00113D02*
Y-001D01*
X0031675D01*
X0029975Y-00113D02*
X0031675Y-00113D01*
X0002375Y0016775D02*
X0003325D01*
X0002375Y0015025D02*
Y0016775D01*
Y0015025D02*
X0003325D01*
Y0016775D01*
X-0010748Y-0028124D02*
X-0010324Y-0028548D01*
X-0011526Y-0028902D02*
X-0010748Y-0028124D01*
X-0011526Y-0028902D02*
X-0011102Y-0029326D01*
X-0010324Y-0028548D01*
X-00055Y-0034325D02*
Y-0032125D01*
X-000405D01*
Y-0034325D02*
Y-0032125D01*
X-00055Y-0034325D02*
X-000405D01*
X-0013216Y003625D02*
X-0006746Y002978D01*
X-0006746Y004272D02*
X-0000276Y003625D01*
X-0006746Y002978D02*
X-0000276Y003625D01*
X-0013216D02*
X-0006746Y004272D01*
X00029Y00345D02*
Y00407D01*
Y00345D02*
X00079D01*
Y00407D01*
X00029D02*
X00079D01*
X0008305Y003475D02*
X0014095D01*
Y004155D01*
X0008305D02*
X0014095D01*
X0008305Y003475D02*
Y004155D01*
X0020175Y00186D02*
Y00197D01*
X0020775D01*
Y00186D02*
Y00197D01*
X0020175Y00186D02*
X0020775D01*
X-0021525Y002925D02*
X-0018475D01*
X-0021525D02*
Y003175D01*
X-0018475Y002925D02*
Y003175D01*
X-0021525D02*
X-0018475D01*
X00355Y-0010715D02*
Y-0007885D01*
X00401Y-0010715D02*
Y-0007885D01*
X00355D02*
X00401D01*
X00355Y-0010715D02*
X00401D01*
X0028762Y00327D02*
X00301Y0031362D01*
Y00259D02*
Y0031362D01*
X00233Y00259D02*
X00301D01*
X00233D02*
Y0031362D01*
X0024637Y00327D01*
X0028762D01*
X003675Y0002895D02*
X004355D01*
Y-0002895D02*
Y0002895D01*
X003675Y-0002895D02*
X004355D01*
X003675D02*
Y0002895D01*
X003545Y-00045D02*
X004895D01*
X003545D02*
Y00045D01*
X004895D01*
Y-00045D02*
Y00045D01*
X0011Y000915D02*
Y001335D01*
X0003D02*
X0011D01*
X0003Y000915D02*
Y001335D01*
Y000915D02*
X0011D01*
X0003475Y0006575D02*
Y0008775D01*
X0005725D01*
X0003475Y0006575D02*
X0005725D01*
Y0008775D01*
X002215Y0018485D02*
X003485Y0018485D01*
Y0023515D01*
X002215Y0023515D02*
X003485Y0023515D01*
X002215Y0018485D02*
Y0023515D01*
X-0007685Y-0043575D02*
Y-0040925D01*
X0005315Y-0040925D01*
Y-0043575D02*
Y-0040925D01*
X-0007685Y-0043575D02*
X0005315Y-0043575D01*
X003025Y00071D02*
X003135D01*
Y00065D02*
Y00071D01*
X003025Y00065D02*
X003135D01*
X003025D02*
Y00071D01*
X0029525Y0008475D02*
X0031275D01*
Y0007525D02*
Y0008475D01*
X0029525Y0007525D02*
X0031275D01*
X0029525D02*
Y0008475D01*
X0006425Y-0014575D02*
X0007375D01*
Y-0012825D01*
X0006425D02*
X0007375D01*
X0006425Y-0014575D02*
Y-0012825D01*
X00352Y000665D02*
Y000775D01*
X00346Y000665D02*
X00352D01*
X00346D02*
Y000775D01*
X00352D01*
X00328Y000665D02*
Y000775D01*
X00334D01*
Y000665D02*
Y000775D01*
X00328Y000665D02*
X00334D01*
X00083Y-0014625D02*
Y-0013525D01*
X00077Y-0014625D02*
X00083D01*
X00077D02*
Y-0013525D01*
X00083D01*
X003275Y-00017D02*
X003385D01*
X003275D02*
Y-00011D01*
X003385D01*
Y-00017D02*
Y-00011D01*
X-003995Y0002975D02*
X-00382D01*
Y0002025D02*
Y0002975D01*
X-003995Y0002025D02*
X-00382D01*
X-003995D02*
Y0002975D01*
X0012425Y0031325D02*
Y0033075D01*
X0013375D01*
Y0031325D02*
Y0033075D01*
X0012425Y0031325D02*
X0013375D01*
X-0039275Y-00199D02*
X-0038175D01*
X-0039275D02*
Y-00193D01*
X-0038175D01*
Y-00199D02*
Y-00193D01*
X-00108Y-00237D02*
X-00097D01*
Y-00243D02*
Y-00237D01*
X-00108Y-00243D02*
X-00097D01*
X-00108D02*
Y-00237D01*
X002215Y0012985D02*
Y0018015D01*
X003485Y0018015D01*
Y0012985D02*
Y0018015D01*
X002215Y0012985D02*
X003485Y0012985D01*
X-0040425Y-001895D02*
Y-001675D01*
X-0038175D01*
X-0040425Y-001895D02*
X-0038175D01*
Y-001675D01*
X001385Y0014675D02*
X001495D01*
X001385D02*
Y0015275D01*
X001495D01*
Y0014675D02*
Y0015275D01*
Y0015575D02*
Y0016175D01*
X001385D02*
X001495D01*
X001385Y0015575D02*
Y0016175D01*
Y0015575D02*
X001495D01*
X001665D02*
Y0016175D01*
X001555D02*
X001665D01*
X001555Y0015575D02*
Y0016175D01*
Y0015575D02*
X001665D01*
Y0014675D02*
Y0015275D01*
X001555D02*
X001665D01*
X001555Y0014675D02*
Y0015275D01*
Y0014675D02*
X001665D01*
X0003675Y0016775D02*
X0004625D01*
X0003675Y0015025D02*
Y0016775D01*
Y0015025D02*
X0004625D01*
Y0016775D01*
X-00205Y002795D02*
Y002855D01*
Y002795D02*
X-00194D01*
Y002855D01*
X-00205D02*
X-00194D01*
X0018425Y-0006725D02*
Y-0002225D01*
X0026025Y-0006725D02*
Y-0002225D01*
X0018425D02*
X0026025D01*
X0018425Y-0006725D02*
X0026025D01*
X0014182Y-0035783D02*
X0015942Y-0042351D01*
X0007896Y-0044507D02*
X0015942Y-0042351D01*
X0006136Y-0037939D02*
X0007896Y-0044507D01*
X0006136Y-0037939D02*
X0014182Y-0035783D01*
X0014275Y003475D02*
X0020065D01*
Y004155D01*
X0014275D02*
X0020065D01*
X0014275Y003475D02*
Y004155D01*
X00355Y-0007615D02*
Y-0004785D01*
X00401Y-0007615D02*
Y-0004785D01*
X00355D02*
X00401D01*
X00355Y-0007615D02*
X00401D01*
X00031Y00333D02*
Y00339D01*
Y00333D02*
X00042D01*
Y00339D01*
X00031D02*
X00042D01*
X0012425Y0018575D02*
X0013025D01*
Y0019675D01*
X0012425D02*
X0013025D01*
X0012425Y0018575D02*
Y0019675D01*
X-00136Y002795D02*
Y002905D01*
X-0013D01*
Y002795D02*
Y002905D01*
X-00136Y002795D02*
X-0013D01*
X-00136Y002975D02*
Y003085D01*
X-0013D01*
Y002975D02*
Y003085D01*
X-00136Y002975D02*
X-0013D01*
X0013375Y0018575D02*
Y0019675D01*
X0013975D01*
Y0018575D02*
Y0019675D01*
X0013375Y0018575D02*
X0013975D01*
X00126Y0020175D02*
X00137D01*
X00126D02*
Y0020775D01*
X00137D01*
Y0020175D02*
Y0020775D01*
X0019225Y00186D02*
Y00197D01*
X0019825D01*
Y00186D02*
Y00197D01*
X0019225Y00186D02*
X0019825D01*
X001945Y00202D02*
X002055D01*
X001945D02*
Y00208D01*
X002055D01*
Y00202D02*
Y00208D01*
X00196Y-000785D02*
Y-000725D01*
X00185Y-000725D02*
X00196Y-000725D01*
X00185Y-000785D02*
Y-000725D01*
Y-000785D02*
X00196D01*
X00139Y002125D02*
Y002235D01*
X00133Y002125D02*
X00139D01*
X00133D02*
Y002235D01*
X00139D01*
X-000961Y0030664D02*
X-0008938Y0029992D01*
X-0010848Y0029426D02*
X-000961Y0030664D01*
X-0010848Y0029426D02*
X-0010176Y0028755D01*
X-0008938Y0029992D01*
X-001205Y0031725D02*
X-0011272Y0032502D01*
X-0010848Y0032078D01*
X-0011625Y00313D02*
X-0010848Y0032078D01*
X-001205Y0031725D02*
X-0011625Y00313D01*
X-0013711Y0039326D02*
X-0012934Y0038548D01*
X-0013358Y0038124D02*
X-0012934Y0038548D01*
X-0014136Y0038902D02*
X-0013358Y0038124D01*
X-0014136Y0038902D02*
X-0013711Y0039326D01*
X-001509Y0040563D02*
X-0014312Y0039786D01*
X-0014737Y0039361D02*
X-0014312Y0039786D01*
X-0015515Y0040139D02*
X-0014737Y0039361D01*
X-0015515Y0040139D02*
X-001509Y0040563D01*
X-0015762Y0039892D02*
X-0014984Y0039114D01*
X-0015409Y003869D02*
X-0014984Y0039114D01*
X-0016186Y0039467D02*
X-0015409Y003869D01*
X-0016186Y0039467D02*
X-0015762Y0039892D01*
X-0012652Y0040476D02*
X-0011874Y0039698D01*
X-0012298Y0039274D02*
X-0011874Y0039698D01*
X-0013076Y0040052D02*
X-0012298Y0039274D01*
X-0013076Y0040052D02*
X-0012652Y0040476D01*
X-0014419Y0041235D02*
X-0013641Y0040457D01*
X-0014065Y0040033D02*
X-0013641Y0040457D01*
X-0014843Y0040811D02*
X-0014065Y0040033D01*
X-0014843Y0040811D02*
X-0014419Y0041235D01*
X-0012401Y0040727D02*
X-0011977Y0041151D01*
X-0012401Y0040727D02*
X-0011623Y0039949D01*
X-0011199Y0040373D01*
X-0011977Y0041151D02*
X-0011199Y0040373D01*
X-00101Y004355D02*
X-00095D01*
X-00101Y004245D02*
Y004355D01*
Y004245D02*
X-00095Y004245D01*
X-00095Y004355D01*
X-00092Y004355D02*
X-00086D01*
X-00092D02*
X-00092Y004245D01*
X-00086D01*
Y004355D01*
X-00036Y0041518D02*
X-0002822Y0042296D01*
X-0004024Y0041942D02*
X-00036Y0041518D01*
X-0004024Y0041942D02*
X-0003246Y004272D01*
X-0002822Y0042296D01*
X-0000917Y0042155D02*
X-0000245Y0041483D01*
X-0002155Y0040917D02*
X-0000917Y0042155D01*
X-0002155Y0040917D02*
X-0001483Y0040245D01*
X-0000245Y0041483D01*
X000525Y00419D02*
X000635D01*
Y00413D02*
Y00419D01*
X000525Y00413D02*
X000635D01*
X000525D02*
Y00419D01*
X000345Y00413D02*
X000455D01*
X000345D02*
Y00419D01*
X000455D01*
Y00413D02*
Y00419D01*
X000545Y00333D02*
X000655D01*
X000545D02*
Y00339D01*
X000655D01*
Y00333D02*
Y00339D01*
X0015025Y0031375D02*
X0015975D01*
Y0033125D01*
X0015025D02*
X0015975D01*
X0015025Y0031375D02*
Y0033125D01*
X-0041898Y0006744D02*
X-0038848Y0006744D01*
Y0009744D01*
X-0041898D02*
X-0038848D01*
X-0041898Y0006744D02*
Y0009744D01*
X00078Y00224D02*
X00084D01*
X00078Y00213D02*
Y00224D01*
Y00213D02*
X00084D01*
Y00224D01*
X0016325Y0031375D02*
Y0033125D01*
X0017275D01*
Y0031375D02*
Y0033125D01*
X0016325Y0031375D02*
X0017275D01*
X0003537Y0031475D02*
X0007662D01*
X00022Y0030137D02*
X0003537Y0031475D01*
X00022Y0024675D02*
X00022Y0030137D01*
X00022Y0024675D02*
X0009D01*
X0009Y0030137D01*
X0007662Y0031475D02*
X0009Y0030137D01*
X0022825Y0031075D02*
Y0033275D01*
X0021375Y0031075D02*
X0022825D01*
X0021375D02*
Y0033275D01*
X0022825D01*
X0010925Y0031075D02*
Y0033275D01*
X0009475Y0031075D02*
X0010925D01*
X0009475D02*
Y0033275D01*
X0010925D01*
X0009475Y0028175D02*
Y0030375D01*
X0010925D01*
Y0028175D02*
Y0030375D01*
X0009475Y0028175D02*
X0010925D01*
X0015564Y0020475D02*
X0017014D01*
Y0022675D01*
X0015564D02*
X0017014D01*
X0015564Y0020475D02*
Y0022675D01*
X0019789Y00213D02*
Y00224D01*
X0019189Y00213D02*
X0019789D01*
X0019189D02*
Y00224D01*
X0019789D01*
X0017389Y0020475D02*
X0018838D01*
Y0022675D01*
X0017389D02*
X0018838D01*
X0017389Y0020475D02*
Y0022675D01*
X0018925Y0031325D02*
Y0033075D01*
X0019875D01*
Y0031325D02*
Y0033075D01*
X0018925Y0031325D02*
X0019875D01*
X0011389Y00224D02*
X0011989Y00224D01*
X0011389Y00213D02*
Y00224D01*
Y00213D02*
X0011989D01*
Y00224D01*
X0014264Y00206D02*
X0015214D01*
Y002235D01*
X0014264D02*
X0015214D01*
X0014264Y00206D02*
Y002235D01*
X-0000842Y003381D02*
X-0000064Y0033033D01*
X-0000842Y003381D02*
X-0000418Y0034235D01*
X000036Y0033457D01*
X-0000064Y0033033D02*
X000036Y0033457D01*
X-0015899Y0031916D02*
X-0015899Y0031316D01*
X-0016999Y0031916D02*
X-0015899D01*
X-0016999Y0031316D02*
X-0016999Y0031916D01*
X-0016999Y0031316D02*
X-0015899D01*
X-0015126Y0033846D02*
X-0013888Y0035083D01*
X-0013216Y0034412D01*
X-0014454Y0033174D02*
X-0013216Y0034412D01*
X-0015126Y0033846D02*
X-0014454Y0033174D01*
X-0006633Y0027595D02*
X-0005395Y0028833D01*
X-0007305Y0028267D02*
X-0006633Y0027595D01*
X-0007305Y0028267D02*
X-0006067Y0029505D01*
X-0005395Y0028833D01*
X-0009257Y0027835D02*
X-0008019Y0029073D01*
X-0009928Y0028507D02*
X-0009257Y0027835D01*
X-0009928Y0028507D02*
X-0008691Y0029745D01*
X-0008019Y0029073D01*
X-001745Y-00315D02*
X-001745Y-00309D01*
X-001745Y-00315D02*
X-001635D01*
X-001635Y-00309D02*
X-001635Y-00315D01*
X-001745Y-00309D02*
X-001635D01*
X00072Y-00072D02*
X00094D01*
Y-000865D02*
Y-00072D01*
X00072Y-000865D02*
X00094D01*
X00072D02*
Y-00072D01*
X0004525Y-00065D02*
X0005125D01*
X0004525Y-00076D02*
Y-00065D01*
Y-00076D02*
X0005125D01*
Y-00065D01*
X0005474Y-0006499D02*
X0006074D01*
X0005474Y-0007599D02*
Y-0006499D01*
Y-0007599D02*
X0006074D01*
Y-0006499D01*
Y-001005D02*
Y-00083D01*
X0005125Y-001005D02*
X0006074D01*
X0005125D02*
Y-00083D01*
X0006074D01*
X00053Y-001185D02*
X00059D01*
Y-001075D01*
X00053D02*
X00059D01*
X00053Y-001185D02*
Y-001075D01*
X0010375Y-001175D02*
X0012575D01*
Y-00132D02*
Y-001175D01*
X0010375Y-00132D02*
X0012575D01*
X0010375D02*
Y-001175D01*
Y-0013575D02*
X0012575D01*
Y-0015025D02*
Y-0013575D01*
X0010375Y-0015025D02*
X0012575D01*
X0010375D02*
Y-0013575D01*
X0013875Y-0012425D02*
Y-0011325D01*
X0013275Y-0012425D02*
X0013875D01*
X0013275D02*
Y-0011325D01*
X0013875D01*
X0031275Y-000925D02*
Y-000865D01*
X0030175D02*
X0031275D01*
X0030175Y-000925D02*
X0030175Y-000865D01*
X0030175Y-000925D02*
X0031275Y-000925D01*
X0028375Y-0007675D02*
X0029475Y-0007675D01*
Y-0008275D02*
Y-0007675D01*
X0028375Y-0008275D02*
X0029475D01*
X0028375D02*
X0028375Y-0007675D01*
X0029025Y-00109D02*
X0029025Y-00098D01*
X0029625Y-00098D01*
Y-00109D02*
Y-00098D01*
X0029025Y-00109D02*
X0029625D01*
X0030175Y-0004975D02*
Y-0002275D01*
X0026775Y-0004975D02*
X0030175D01*
X0026775Y-0002275D02*
X0030175D01*
X0026775Y-0004975D02*
Y-0002275D01*
X0034275Y-0004975D02*
Y-0002275D01*
X0030875Y-0004975D02*
X0034275D01*
X0030875Y-0002275D02*
X0034275D01*
X0030875Y-0004975D02*
Y-0002275D01*
X0028625Y-0001925D02*
X0030375D01*
X0028625D02*
Y-0000975D01*
X0030375D01*
Y-0001925D02*
Y-0000975D01*
X00319Y000775D02*
X00325D01*
X00319Y000665D02*
Y000775D01*
Y000665D02*
X00325D01*
Y000775D01*
X00337Y000665D02*
X00343D01*
Y000775D01*
X00337D02*
X00343D01*
X00337Y000665D02*
Y000775D01*
X00192Y-0019625D02*
X00203D01*
X00192D02*
Y-0019025D01*
X00203D01*
Y-0019625D02*
Y-0019025D01*
X0028825Y-002655D02*
X0029775D01*
Y-00248D01*
X0028825D02*
X0029775D01*
X0028825Y-002655D02*
Y-00248D01*
X0026525Y-002865D02*
Y-00277D01*
Y-002865D02*
X0028275D01*
Y-00277D01*
X0026525D02*
X0028275D01*
X0010025Y-003565D02*
Y-003295D01*
X0006625Y-003565D02*
X0010025Y-003565D01*
X0006625Y-003295D02*
X0010025Y-003295D01*
X0006625Y-003565D02*
Y-003295D01*
X000615Y-0029325D02*
X00071D01*
X000615Y-0031075D02*
Y-0029325D01*
Y-0031075D02*
X00071D01*
Y-0029325D01*
X0014425Y-003435D02*
Y-003165D01*
X0017825Y-003165D01*
X0014425Y-003435D02*
X0017825Y-003435D01*
Y-003165D01*
X-001745Y-00331D02*
X-001635Y-00331D01*
Y-00337D02*
Y-00331D01*
X-001745Y-00337D02*
X-001635D01*
X-001745D02*
Y-00331D01*
X-00132Y-003795D02*
X-00126Y-003795D01*
Y-003685D01*
X-00132Y-003685D02*
X-00126Y-003685D01*
X-00132Y-003795D02*
Y-003685D01*
X-00079Y-00337D02*
X-00079Y-00331D01*
X-0009D02*
X-00079D01*
X-0009D02*
X-0009Y-00337D01*
X-00079D01*
X-00165Y-002895D02*
Y-002835D01*
X-00176D02*
X-00165D01*
X-00176Y-002895D02*
Y-002835D01*
Y-002895D02*
X-00165D01*
X-00403Y-0009075D02*
X-00381D01*
Y-0010525D02*
Y-0009075D01*
X-00403Y-0010525D02*
X-00381D01*
X-00403D02*
Y-0009075D01*
Y-0007275D02*
X-00381D01*
Y-0008725D02*
Y-0007275D01*
X-00403Y-0008725D02*
X-00381D01*
X-00403D02*
Y-0007275D01*
X-0041698Y0005219D02*
X-0039948D01*
X-0041698D02*
X-0041698Y0006169D01*
X-0039948Y0006169D01*
X-0039948Y0005219D02*
X-0039948Y0006169D01*
X-0041698Y0010319D02*
X-0039948Y0010319D01*
X-0041698Y0010319D02*
X-0041698Y0011269D01*
X-0039948D01*
X-0039948Y0010319D02*
X-0039948Y0011269D01*
X-00331Y-00138D02*
Y00088D01*
X-00365Y-00138D02*
X-00331D01*
X-00365D02*
Y00088D01*
X-00331D01*
X-002255Y0035475D02*
Y0037225D01*
X-00216D01*
Y0035475D02*
Y0037225D01*
X-002255Y0035475D02*
X-00216D01*
X-001745Y0035475D02*
Y0037225D01*
X-00165D01*
Y0035475D02*
Y0037225D01*
X-001745Y0035475D02*
X-00165D01*
X-0003723Y0029399D02*
X-0003299Y0029823D01*
X-0004077Y0030601D02*
X-0003299Y0029823D01*
X-0004501Y0030177D02*
X-0004077Y0030601D01*
X-0004501Y0030177D02*
X-0003723Y0029399D01*
X-001106Y0030593D02*
X-0010636Y0030169D01*
X-0009858Y0030947D01*
X-0010282Y0031371D02*
X-0009858Y0030947D01*
X-001106Y0030593D02*
X-0010282Y0031371D01*
X-0002539Y0042013D02*
X-0002115Y0041589D01*
X-0003317Y0041235D02*
X-0002539Y0042013D01*
X-0003317Y0041235D02*
X-0002893Y0040811D01*
X-0002115Y0041589D01*
X-0001479Y0031618D02*
X-0001054Y0032043D01*
X-0001832Y0032821D02*
X-0001054Y0032043D01*
X-0002256Y0032396D02*
X-0001832Y0032821D01*
X-0002256Y0032396D02*
X-0001479Y0031618D01*
X-001311Y0032785D02*
X-0012686Y0032361D01*
X-0011908Y0033139D01*
X-0012333Y0033563D02*
X-0011908Y0033139D01*
X-001311Y0032785D02*
X-0012333Y0033563D01*
X-0012025Y0029D02*
X-0011425D01*
X-0012025Y00279D02*
Y0029D01*
Y00279D02*
X-0011425D01*
Y0029D01*
X0000677Y0033799D02*
X0001101Y0034223D01*
X0000323Y0035001D02*
X0001101Y0034223D01*
X-0000101Y0034577D02*
X0000323Y0035001D01*
X-0000101Y0034577D02*
X0000677Y0033799D01*
X-0015301Y0037777D02*
X-0014877Y0038201D01*
X-0015301Y0037777D02*
X-0014523Y0036999D01*
X-0014099Y0037423D01*
X-0014877Y0038201D02*
X-0014099Y0037423D01*
X-0000029Y0039503D02*
X0000395Y0039078D01*
X-0000807Y0038725D02*
X-0000029Y0039503D01*
X-0000807Y0038725D02*
X-0000382Y0038301D01*
X0000395Y0039078D01*
X0017725Y-0027075D02*
Y-0025325D01*
X0018675D01*
Y-0027075D02*
Y-0025325D01*
X0017725Y-0027075D02*
X0018675D01*
X0013475Y-0010358D02*
X0013675D01*
Y-0010258D01*
X0013642Y-0010225D01*
X0013508D01*
X0013475Y-0010258D01*
Y-0010358D01*
Y-0010025D02*
Y-0010158D01*
X0013575D01*
X0013542Y-0010092D01*
Y-0010058D01*
X0013575Y-0010025D01*
X0013642D01*
X0013675Y-0010058D01*
Y-0010125D01*
X0013642Y-0010158D01*
X0013508Y-0009958D02*
X0013475Y-0009925D01*
Y-0009858D01*
X0013508Y-0009825D01*
X0013642D01*
X0013675Y-0009858D01*
Y-0009925D01*
X0013642Y-0009958D01*
X0013508D01*
X0013675Y-0009758D02*
Y-0009692D01*
Y-0009725D01*
X0013475D01*
X0013508Y-0009758D01*
X0020483Y-000745D02*
Y-000765D01*
X0020583D01*
X0020617Y-0007617D01*
Y-0007483D01*
X0020583Y-000745D01*
X0020483D01*
X0020817D02*
X0020683D01*
Y-000755D01*
X002075Y-0007517D01*
X0020783D01*
X0020817Y-000755D01*
Y-0007617D01*
X0020783Y-000765D01*
X0020717D01*
X0020683Y-0007617D01*
X0020883Y-0007483D02*
X0020917Y-000745D01*
X0020983D01*
X0021017Y-0007483D01*
Y-0007617D01*
X0020983Y-000765D01*
X0020917D01*
X0020883Y-0007617D01*
Y-0007483D01*
X0021083D02*
X0021117Y-000745D01*
X0021183D01*
X0021217Y-0007483D01*
Y-0007617D01*
X0021183Y-000765D01*
X0021117D01*
X0021083Y-0007617D01*
Y-0007483D01*
X0009433Y0021142D02*
Y0021408D01*
X0009367Y0021475D01*
X0009234D01*
X0009167Y0021408D01*
Y0021142D01*
X0009234Y0021075D01*
X0009367D01*
X00093Y0021208D02*
X0009433Y0021075D01*
X0009367D02*
X0009433Y0021142D01*
X0009567Y0021408D02*
X0009633Y0021475D01*
X0009767D01*
X0009833Y0021408D01*
Y0021342D01*
X0009767Y0021275D01*
X00097D01*
X0009767D01*
X0009833Y0021208D01*
Y0021142D01*
X0009767Y0021075D01*
X0009633D01*
X0009567Y0021142D01*
X0009967Y0021408D02*
X0010033Y0021475D01*
X0010167D01*
X0010233Y0021408D01*
Y0021142D01*
X0010167Y0021075D01*
X0010033D01*
X0009967Y0021142D01*
Y0021408D01*
X0010367D02*
X0010433Y0021475D01*
X0010566D01*
X0010633Y0021408D01*
Y0021142D01*
X0010566Y0021075D01*
X0010433D01*
X0010367Y0021142D01*
Y0021408D01*
X-00402Y-00153D02*
X-004D01*
X-00401D01*
Y-00156D01*
X-00399D02*
Y-00153D01*
X-003975D01*
X-00397Y-001535D01*
Y-001545D01*
X-003975Y-00155D01*
X-00399D01*
X-00396Y-00156D02*
X-00395D01*
X-003955D01*
Y-00153D01*
X-00396Y-001535D01*
X-003935D02*
X-00393Y-00153D01*
X-00392D01*
X-003915Y-001535D01*
Y-001555D01*
X-00392Y-00156D01*
X-00393D01*
X-003935Y-001555D01*
Y-001535D01*
X-003885Y-00156D02*
X-003905D01*
X-003885Y-00154D01*
Y-001535D01*
X-00389Y-00153D01*
X-0039D01*
X-003905Y-001535D01*
X-0010625Y-00421D02*
X-0010425D01*
X-0010525D01*
Y-00424D01*
X-0010325D02*
Y-00421D01*
X-0010175D01*
X-0010125Y-004215D01*
Y-004225D01*
X-0010175Y-00423D01*
X-0010325D01*
X-0009875Y-00424D02*
Y-00421D01*
X-0010025Y-004225D01*
X-0009825D01*
X-0009725Y-004215D02*
X-0009675Y-00421D01*
X-0009575D01*
X-0009525Y-004215D01*
Y-004235D01*
X-0009575Y-00424D01*
X-0009675D01*
X-0009725Y-004235D01*
Y-004215D01*
X-0009225Y-00424D02*
X-0009425D01*
X-0009225Y-00422D01*
Y-004215D01*
X-0009275Y-00421D01*
X-0009375D01*
X-0009425Y-004215D01*
X-0018075Y004075D02*
X-0017875D01*
X-0017975D01*
Y004045D01*
X-0017775D02*
Y004075D01*
X-0017625D01*
X-0017575Y00407D01*
Y00406D01*
X-0017625Y004055D01*
X-0017775D01*
X-0017275Y004045D02*
X-0017475D01*
X-0017275Y004065D01*
Y00407D01*
X-0017325Y004075D01*
X-0017425D01*
X-0017475Y00407D01*
X-0017175D02*
X-0017125Y004075D01*
X-0017025D01*
X-0016975Y00407D01*
Y00405D01*
X-0017025Y004045D01*
X-0017125D01*
X-0017175Y00405D01*
Y00407D01*
X-0016875Y004045D02*
X-0016775D01*
X-0016825D01*
Y004075D01*
X-0016875Y00407D01*
X00044Y0006975D02*
X00048D01*
Y0007175D01*
X0004733Y0007242D01*
X0004467D01*
X00044Y0007175D01*
Y0006975D01*
X00048Y0007375D02*
Y0007508D01*
Y0007442D01*
X00044D01*
X0004467Y0007375D01*
Y0007708D02*
X00044Y0007775D01*
Y0007908D01*
X0004467Y0007975D01*
X0004733D01*
X00048Y0007908D01*
Y0007775D01*
X0004733Y0007708D01*
X0004467D01*
Y0008108D02*
X00044Y0008175D01*
Y0008308D01*
X0004467Y0008375D01*
X0004733D01*
X00048Y0008308D01*
Y0008175D01*
X0004733Y0008108D01*
X0004467D01*
X-0039167Y-0018283D02*
X-0039433D01*
X-00395Y-001835D01*
Y-0018483D01*
X-0039433Y-001855D01*
X-0039167D01*
X-00391Y-0018483D01*
Y-001835D01*
X-0039233Y-0018416D02*
X-00391Y-0018283D01*
Y-001835D02*
X-0039167Y-0018283D01*
X-00391Y-001815D02*
Y-0018017D01*
Y-0018083D01*
X-00395D01*
X-0039433Y-001815D01*
Y-0017817D02*
X-00395Y-001775D01*
Y-0017617D01*
X-0039433Y-001755D01*
X-0039167D01*
X-00391Y-0017617D01*
Y-001775D01*
X-0039167Y-0017817D01*
X-0039433D01*
Y-0017417D02*
X-00395Y-001735D01*
Y-0017217D01*
X-0039433Y-001715D01*
X-0039167D01*
X-00391Y-0017217D01*
Y-001735D01*
X-0039167Y-0017417D01*
X-0039433D01*
X0041525Y000815D02*
X0041725D01*
X0041625D01*
Y000785D01*
X0041825D02*
Y000815D01*
X0041975D01*
X0042025Y00081D01*
Y0008D01*
X0041975Y000795D01*
X0041825D01*
X0042325Y000815D02*
X0042125D01*
Y0008D01*
X0042225Y000805D01*
X0042275D01*
X0042325Y0008D01*
Y00079D01*
X0042275Y000785D01*
X0042175D01*
X0042125Y00079D01*
X0042425Y00081D02*
X0042475Y000815D01*
X0042575D01*
X0042625Y00081D01*
Y00079D01*
X0042575Y000785D01*
X0042475D01*
X0042425Y00079D01*
Y00081D01*
X0042725Y000815D02*
X0042925D01*
Y00081D01*
X0042725Y00079D01*
Y000785D01*
X00143Y-0004325D02*
X00145D01*
X00144D01*
Y-0004625D01*
X00146D02*
Y-0004325D01*
X001475D01*
X00148Y-0004375D01*
Y-0004475D01*
X001475Y-0004525D01*
X00146D01*
X00151Y-0004325D02*
X00149D01*
Y-0004475D01*
X0015Y-0004425D01*
X001505D01*
X00151Y-0004475D01*
Y-0004575D01*
X001505Y-0004625D01*
X001495D01*
X00149Y-0004575D01*
X00152Y-0004375D02*
X001525Y-0004325D01*
X001535D01*
X00154Y-0004375D01*
Y-0004575D01*
X001535Y-0004625D01*
X001525D01*
X00152Y-0004575D01*
Y-0004375D01*
X00155D02*
X001555Y-0004325D01*
X001565D01*
X00157Y-0004375D01*
Y-0004425D01*
X001565Y-0004475D01*
X00156D01*
X001565D01*
X00157Y-0004525D01*
Y-0004575D01*
X001565Y-0004625D01*
X001555D01*
X00155Y-0004575D01*
X0015025Y-00141D02*
X0015225D01*
X0015125D01*
Y-00144D01*
X0015325D02*
Y-00141D01*
X0015475D01*
X0015525Y-001415D01*
Y-001425D01*
X0015475Y-00143D01*
X0015325D01*
X0015825Y-00141D02*
X0015625D01*
Y-001425D01*
X0015725Y-00142D01*
X0015775D01*
X0015825Y-001425D01*
Y-001435D01*
X0015775Y-00144D01*
X0015675D01*
X0015625Y-001435D01*
X0015925Y-001415D02*
X0015975Y-00141D01*
X0016075D01*
X0016125Y-001415D01*
Y-001435D01*
X0016075Y-00144D01*
X0015975D01*
X0015925Y-001435D01*
Y-001415D01*
X0016375Y-00144D02*
Y-00141D01*
X0016225Y-001425D01*
X0016425D01*
X0039325Y000815D02*
X0039525D01*
X0039425D01*
Y000785D01*
X0039625D02*
Y000815D01*
X0039775D01*
X0039825Y00081D01*
Y0008D01*
X0039775Y000795D01*
X0039625D01*
X0040125Y000815D02*
X0039925D01*
Y0008D01*
X0040025Y000805D01*
X0040075D01*
X0040125Y0008D01*
Y00079D01*
X0040075Y000785D01*
X0039975D01*
X0039925Y00079D01*
X0040225Y00081D02*
X0040275Y000815D01*
X0040375D01*
X0040425Y00081D01*
Y00079D01*
X0040375Y000785D01*
X0040275D01*
X0040225Y00079D01*
Y00081D01*
X0040725Y000785D02*
X0040525D01*
X0040725Y000805D01*
Y00081D01*
X0040675Y000815D01*
X0040575D01*
X0040525Y00081D01*
X-00196Y00399D02*
X-00194D01*
X-00195D01*
Y00396D01*
X-00193D02*
Y00399D01*
X-001915D01*
X-00191Y003985D01*
Y003975D01*
X-001915Y00397D01*
X-00193D01*
X-00188Y00396D02*
X-0019D01*
X-00188Y00398D01*
Y003985D01*
X-001885Y00399D01*
X-001895D01*
X-0019Y003985D01*
X-00187D02*
X-001865Y00399D01*
X-001855D01*
X-00185Y003985D01*
Y003965D01*
X-001855Y00396D01*
X-001865D01*
X-00187Y003965D01*
Y003985D01*
X-00184D02*
X-001835Y00399D01*
X-001825D01*
X-00182Y003985D01*
Y003965D01*
X-001825Y00396D01*
X-001835D01*
X-00184Y003965D01*
Y003985D01*
X-001576Y-0038325D02*
X-001556D01*
X-001566D01*
Y-0038625D01*
X-001546D02*
Y-0038325D01*
X-001531D01*
X-001526Y-0038375D01*
Y-0038475D01*
X-001531Y-0038525D01*
X-001546D01*
X-001501Y-0038625D02*
Y-0038325D01*
X-001516Y-0038475D01*
X-0014961D01*
X-0014861Y-0038375D02*
X-0014811Y-0038325D01*
X-0014711D01*
X-0014661Y-0038375D01*
Y-0038575D01*
X-0014711Y-0038625D01*
X-0014811D01*
X-0014861Y-0038575D01*
Y-0038375D01*
X-0014561D02*
X-0014511Y-0038325D01*
X-0014411D01*
X-0014361Y-0038375D01*
Y-0038575D01*
X-0014411Y-0038625D01*
X-0014511D01*
X-0014561Y-0038575D01*
Y-0038375D01*
X-0012Y-003915D02*
X-00118D01*
X-00119D01*
Y-003945D01*
X-00117D02*
Y-003915D01*
X-001155D01*
X-00115Y-00392D01*
Y-00393D01*
X-001155Y-003935D01*
X-00117D01*
X-001125Y-003945D02*
Y-003915D01*
X-00114Y-00393D01*
X-00112D01*
X-00111Y-00392D02*
X-001105Y-003915D01*
X-001095D01*
X-00109Y-00392D01*
Y-00394D01*
X-001095Y-003945D01*
X-001105D01*
X-00111Y-00394D01*
Y-00392D01*
X-00108Y-003945D02*
X-00107D01*
X-001075D01*
Y-003915D01*
X-00108Y-00392D01*
X-003905Y-0004575D02*
Y-0004375D01*
Y-0004475D01*
X-003875D01*
Y-0004275D02*
X-003905D01*
Y-0004125D01*
X-0039Y-0004075D01*
X-00389D01*
X-003885Y-0004125D01*
Y-0004275D01*
X-003875Y-0003975D02*
Y-0003875D01*
Y-0003925D01*
X-003905D01*
X-0039Y-0003975D01*
Y-0003725D02*
X-003905Y-0003675D01*
Y-0003575D01*
X-0039Y-0003525D01*
X-00388D01*
X-003875Y-0003575D01*
Y-0003675D01*
X-00388Y-0003725D01*
X-0039D01*
Y-0003425D02*
X-003905Y-0003375D01*
Y-0003275D01*
X-0039Y-0003225D01*
X-00388D01*
X-003875Y-0003275D01*
Y-0003375D01*
X-00388Y-0003425D01*
X-0039D01*
X-0041525Y-0006325D02*
Y-0006125D01*
Y-0006225D01*
X-0041225D01*
Y-0006025D02*
X-0041525D01*
Y-0005875D01*
X-0041475Y-0005825D01*
X-0041375D01*
X-0041325Y-0005875D01*
Y-0006025D01*
X-0041225Y-0005725D02*
Y-0005625D01*
Y-0005675D01*
X-0041525D01*
X-0041475Y-0005725D01*
Y-0005475D02*
X-0041525Y-0005425D01*
Y-0005325D01*
X-0041475Y-0005275D01*
X-0041275D01*
X-0041225Y-0005325D01*
Y-0005425D01*
X-0041275Y-0005475D01*
X-0041475D01*
X-0041225Y-0005175D02*
Y-0005075D01*
Y-0005125D01*
X-0041525D01*
X-0041475Y-0005175D01*
D108*
X-0008109Y-002275D02*
G03*
X-0008109Y-002275I-0000141J0D01*
G01*
X0019802Y0003887D02*
Y0002363D01*
X0020817D01*
X0022341Y0003887D02*
X0021325D01*
Y0003125D01*
X0021833Y0003379D01*
X0022087D01*
X0022341Y0003125D01*
Y0002617D01*
X0022087Y0002363D01*
X0021579D01*
X0021325Y0002617D01*
X0022849Y0003633D02*
X0023103Y0003887D01*
X002361D01*
X0023864Y0003633D01*
Y0002617D01*
X002361Y0002363D01*
X0023103D01*
X0022849Y0002617D01*
Y0003633D01*
X0025388Y0002363D02*
X0024372D01*
X0025388Y0003379D01*
Y0003633D01*
X0025134Y0003887D01*
X0024626D01*
X0024372Y0003633D01*
D111*
X004475Y-0000933D02*
Y-00012D01*
Y-0001066D01*
X0045417D01*
X004555Y-00012D01*
Y-0001333D01*
X0045417Y-0001466D01*
X004475Y-0000133D02*
Y-0000666D01*
X004515D01*
X0045017Y-00004D01*
Y-0000267D01*
X004515Y-0000133D01*
X0045417D01*
X004555Y-0000267D01*
Y-0000533D01*
X0045417Y-0000666D01*
X0044883Y0000133D02*
X004475Y0000267D01*
Y0000533D01*
X0044883Y0000666D01*
X0045417D01*
X004555Y0000533D01*
Y0000267D01*
X0045417Y0000133D01*
X0044883D01*
Y0000933D02*
X004475Y0001066D01*
Y0001333D01*
X0044883Y0001466D01*
X0045417D01*
X004555Y0001333D01*
Y0001066D01*
X0045417Y0000933D01*
X0044883D01*
X0012Y003935D02*
X0012266D01*
X0012133D01*
Y0040017D01*
X0012266Y004015D01*
X00124D01*
X0012533Y0040017D01*
X0011733Y0039483D02*
X00116Y003935D01*
X0011333D01*
X00112Y0039483D01*
Y0039617D01*
X0011333Y003975D01*
X0011467D01*
X0011333D01*
X00112Y0039883D01*
Y0040017D01*
X0011333Y004015D01*
X00116D01*
X0011733Y0040017D01*
X0010933Y0039483D02*
X00108Y003935D01*
X0010534D01*
X00104Y0039483D01*
Y0040017D01*
X0010534Y004015D01*
X00108D01*
X0010933Y0040017D01*
Y0039483D01*
X0010134Y004015D02*
X0009867D01*
X001D01*
Y003935D01*
X0010134Y0039483D01*
X0018103Y003935D02*
X001837D01*
X0018236D01*
Y0040017D01*
X001837Y004015D01*
X0018503D01*
X0018636Y0040017D01*
X0017836Y0039483D02*
X0017703Y003935D01*
X0017437D01*
X0017303Y0039483D01*
Y0039617D01*
X0017437Y003975D01*
X001757D01*
X0017437D01*
X0017303Y0039883D01*
Y0040017D01*
X0017437Y004015D01*
X0017703D01*
X0017836Y0040017D01*
X0017037Y0039483D02*
X0016903Y003935D01*
X0016637D01*
X0016504Y0039483D01*
Y0040017D01*
X0016637Y004015D01*
X0016903D01*
X0017037Y0040017D01*
Y0039483D01*
X0016237D02*
X0016104Y003935D01*
X0015837D01*
X0015704Y0039483D01*
Y0040017D01*
X0015837Y004015D01*
X0016104D01*
X0016237Y0040017D01*
Y0039483D01*
X004135Y-00008D02*
Y-0001066D01*
Y-0000933D01*
X0042017D01*
X004215Y-0001066D01*
Y-00012D01*
X0042017Y-0001333D01*
X004135Y0D02*
Y-0000533D01*
X004175D01*
X0041617Y-0000267D01*
Y-0000133D01*
X004175Y0D01*
X0042017D01*
X004215Y-0000133D01*
Y-00004D01*
X0042017Y-0000533D01*
X0041483Y0000267D02*
X004135Y00004D01*
Y0000666D01*
X0041483Y00008D01*
X0042017D01*
X004215Y0000666D01*
Y00004D01*
X0042017Y0000267D01*
X0041483D01*
X004215Y0001066D02*
Y0001333D01*
Y00012D01*
X004135D01*
X0041483Y0001066D01*
X0035755Y-0019919D02*
X0035892Y-0019691D01*
X0035823Y-0019805D01*
X0035252Y-0019462D01*
X0035206Y-0019279D01*
X0035275Y-0019164D01*
X0035458Y-0019119D01*
X0034726Y-0020078D02*
X0035411Y-002049D01*
X0035275Y-0019942D01*
X0035Y-0020399D01*
X0035091Y-0020764D02*
X0035137Y-0020947D01*
X0034999Y-0021176D01*
X0034817Y-0021221D01*
X003436Y-0020947D01*
X0034314Y-0020764D01*
X0034451Y-0020535D01*
X0034634Y-002049D01*
X0035091Y-0020764D01*
X0034108Y-0021107D02*
X0033971Y-0021335D01*
X0034039Y-0021221D01*
X0034725Y-0021633D01*
X0034679Y-002145D01*
X0010448Y-0041546D02*
X0010191Y-0041615D01*
X0010319Y-004158D01*
X0010492Y-0042224D01*
X0010398Y-0042387D01*
X0010269Y-0042422D01*
X0010106Y-0042327D01*
X0011299Y-0042146D02*
X0011092Y-0041373D01*
X0010809Y-0041863D01*
X0011324Y-0041725D01*
X0011513Y-0041398D02*
X0011607Y-0041235D01*
X0011864Y-0041166D01*
X0012028Y-004126D01*
X0012166Y-0041775D01*
X0012071Y-0041939D01*
X0011814Y-0042008D01*
X0011651Y-0041913D01*
X0011513Y-0041398D01*
X0012285Y-0041191D02*
X0012379Y-0041028D01*
X0012637Y-0040959D01*
X00128Y-0041053D01*
X0012938Y-0041568D01*
X0012844Y-0041732D01*
X0012586Y-0041801D01*
X0012423Y-0041706D01*
X0012285Y-0041191D01*
D112*
X-0006917Y-0021458D02*
X-0006875Y-0021417D01*
Y-0021333D01*
X-0006917Y-0021292D01*
X-0007083D01*
X-0007125Y-0021333D01*
Y-0021417D01*
X-0007083Y-0021458D01*
X-0006875Y-0021708D02*
X-0006917Y-0021625D01*
X-0007Y-0021542D01*
X-0007083D01*
X-0007125Y-0021583D01*
Y-0021667D01*
X-0007083Y-0021708D01*
X-0007042D01*
X-0007Y-0021667D01*
Y-0021542D01*
X-0006917Y-0021792D02*
X-0006875Y-0021833D01*
Y-0021917D01*
X-0006917Y-0021958D01*
X-0007083D01*
X-0007125Y-0021917D01*
Y-0021833D01*
X-0007083Y-0021792D01*
X-0006917D01*
Y-0022042D02*
X-0006875Y-0022083D01*
Y-0022167D01*
X-0006917Y-0022208D01*
X-0007083D01*
X-0007125Y-0022167D01*
Y-0022083D01*
X-0007083Y-0022042D01*
X-0006917D01*
X-0014392Y-0028258D02*
X-001435Y-0028217D01*
Y-0028133D01*
X-0014392Y-0028092D01*
X-0014558D01*
X-00146Y-0028133D01*
Y-0028217D01*
X-0014558Y-0028258D01*
X-00146Y-0028467D02*
X-001435D01*
X-0014475Y-0028342D01*
Y-0028508D01*
X-0014392Y-0028592D02*
X-001435Y-0028633D01*
Y-0028717D01*
X-0014392Y-0028758D01*
X-0014558D01*
X-00146Y-0028717D01*
Y-0028633D01*
X-0014558Y-0028592D01*
X-0014392D01*
X-001435Y-0029008D02*
X-0014392Y-0028925D01*
X-0014475Y-0028842D01*
X-0014558D01*
X-00146Y-0028883D01*
Y-0028967D01*
X-0014558Y-0029008D01*
X-0014517D01*
X-0014475Y-0028967D01*
Y-0028842D01*
X-0009767Y-0024875D02*
Y-0025125D01*
X-0009892D01*
X-0009933Y-0025083D01*
Y-0025D01*
X-0009892Y-0024958D01*
X-0009767D01*
X-000985D02*
X-0009933Y-0024875D01*
X-0010142D02*
Y-0025125D01*
X-0010017Y-0025D01*
X-0010183D01*
X-0010267Y-0025083D02*
X-0010308Y-0025125D01*
X-0010392D01*
X-0010433Y-0025083D01*
Y-0024917D01*
X-0010392Y-0024875D01*
X-0010308D01*
X-0010267Y-0024917D01*
Y-0025083D01*
X-0010683Y-0024875D02*
X-0010517D01*
X-0010683Y-0025042D01*
Y-0025083D01*
X-0010642Y-0025125D01*
X-0010558D01*
X-0010517Y-0025083D01*
X0020173Y-0018232D02*
Y-0018482D01*
X0020048D01*
X0020006Y-001844D01*
Y-0018357D01*
X0020048Y-0018315D01*
X0020173D01*
X0020089D02*
X0020006Y-0018232D01*
X0019798D02*
Y-0018482D01*
X0019923Y-0018357D01*
X0019756D01*
X0019673Y-0018232D02*
X001959D01*
X0019631D01*
Y-0018482D01*
X0019673Y-001844D01*
X0019465D02*
X0019423Y-0018482D01*
X001934D01*
X0019298Y-001844D01*
Y-0018398D01*
X001934Y-0018357D01*
X0019381D01*
X001934D01*
X0019298Y-0018315D01*
Y-0018273D01*
X001934Y-0018232D01*
X0019423D01*
X0019465Y-0018273D01*
X0015825Y-00221D02*
X0016075D01*
Y-0022225D01*
X0016033Y-0022267D01*
X001595D01*
X0015908Y-0022225D01*
Y-00221D01*
Y-0022183D02*
X0015825Y-0022267D01*
Y-0022475D02*
X0016075D01*
X001595Y-002235D01*
Y-0022517D01*
X0015825Y-00226D02*
Y-0022683D01*
Y-0022641D01*
X0016075D01*
X0016033Y-00226D01*
X0015825Y-0022975D02*
Y-0022808D01*
X0015992Y-0022975D01*
X0016033D01*
X0016075Y-0022933D01*
Y-002285D01*
X0016033Y-0022808D01*
X00148Y-0022113D02*
X001505D01*
Y-0022238D01*
X0015008Y-0022279D01*
X0014925D01*
X0014883Y-0022238D01*
Y-0022113D01*
Y-0022196D02*
X00148Y-0022279D01*
Y-0022488D02*
X001505D01*
X0014925Y-0022363D01*
Y-0022529D01*
X00148Y-0022612D02*
Y-0022696D01*
Y-0022654D01*
X001505D01*
X0015008Y-0022612D01*
Y-0022821D02*
X001505Y-0022862D01*
Y-0022946D01*
X0015008Y-0022987D01*
X0014842D01*
X00148Y-0022946D01*
Y-0022862D01*
X0014842Y-0022821D01*
X0015008D01*
X-00004Y0028384D02*
X-000065D01*
Y0028509D01*
X-0000608Y002855D01*
X-0000525D01*
X-0000483Y0028509D01*
Y0028384D01*
Y0028467D02*
X-00004Y002855D01*
Y00288D02*
Y0028634D01*
X-0000567Y00288D01*
X-0000608D01*
X-000065Y0028759D01*
Y0028675D01*
X-0000608Y0028634D01*
Y0028883D02*
X-000065Y0028925D01*
Y0029008D01*
X-0000608Y002905D01*
X-0000442D01*
X-00004Y0029008D01*
Y0028925D01*
X-0000442Y0028883D01*
X-0000608D01*
X-000065Y00293D02*
X-0000608Y0029217D01*
X-0000525Y0029133D01*
X-0000442D01*
X-00004Y0029175D01*
Y0029258D01*
X-0000442Y00293D01*
X-0000483D01*
X-0000525Y0029258D01*
Y0029133D01*
X-0013008Y-0037683D02*
X-001305Y-0037725D01*
Y-0037808D01*
X-0013008Y-003785D01*
X-0012842D01*
X-00128Y-0037808D01*
Y-0037725D01*
X-0012842Y-0037683D01*
X-00128Y-0037475D02*
X-001305D01*
X-0012925Y-00376D01*
Y-0037433D01*
X-00128Y-003735D02*
Y-0037267D01*
Y-0037309D01*
X-001305D01*
X-0013008Y-003735D01*
X-00128Y-0036975D02*
Y-0037142D01*
X-0012967Y-0036975D01*
X-0013008D01*
X-001305Y-0037017D01*
Y-00371D01*
X-0013008Y-0037142D01*
X-0016165Y0031508D02*
X-0016123Y0031466D01*
X-001604D01*
X-0015999Y0031508D01*
Y0031675D01*
X-001604Y0031716D01*
X-0016123D01*
X-0016165Y0031675D01*
X-0016415Y0031716D02*
X-0016248D01*
X-0016415Y003155D01*
Y0031508D01*
X-0016373Y0031466D01*
X-001629D01*
X-0016248Y0031508D01*
X-0016498D02*
X-001654Y0031466D01*
X-0016623D01*
X-0016665Y0031508D01*
Y003155D01*
X-0016623Y0031591D01*
X-0016582D01*
X-0016623D01*
X-0016665Y0031633D01*
Y0031675D01*
X-0016623Y0031716D01*
X-001654D01*
X-0016498Y0031675D01*
X-0016748Y0031508D02*
X-001679Y0031466D01*
X-0016873D01*
X-0016915Y0031508D01*
Y0031675D01*
X-0016873Y0031716D01*
X-001679D01*
X-0016748Y0031675D01*
Y0031508D01*
X0012808Y0022083D02*
X001285Y0022125D01*
Y0022208D01*
X0012808Y002225D01*
X0012642D01*
X00126Y0022208D01*
Y0022125D01*
X0012642Y0022083D01*
X0012808Y0022D02*
X001285Y0021958D01*
Y0021875D01*
X0012808Y0021833D01*
X0012767D01*
X0012725Y0021875D01*
Y0021917D01*
Y0021875D01*
X0012683Y0021833D01*
X0012642D01*
X00126Y0021875D01*
Y0021958D01*
X0012642Y0022D01*
X0012808Y002175D02*
X001285Y0021709D01*
Y0021625D01*
X0012808Y0021584D01*
X0012642D01*
X00126Y0021625D01*
Y0021709D01*
X0012642Y002175D01*
X0012808D01*
X001285Y0021334D02*
X0012808Y0021417D01*
X0012725Y00215D01*
X0012642D01*
X00126Y0021459D01*
Y0021375D01*
X0012642Y0021334D01*
X0012683D01*
X0012725Y0021375D01*
Y00215D01*
X0020548Y0022133D02*
X0020589Y0022175D01*
Y0022258D01*
X0020548Y00223D01*
X0020381D01*
X0020339Y0022258D01*
Y0022175D01*
X0020381Y0022133D01*
X0020548Y002205D02*
X0020589Y0022008D01*
Y0021925D01*
X0020548Y0021883D01*
X0020506D01*
X0020464Y0021925D01*
Y0021967D01*
Y0021925D01*
X0020423Y0021883D01*
X0020381D01*
X0020339Y0021925D01*
Y0022008D01*
X0020381Y002205D01*
X0020339Y00218D02*
Y0021717D01*
Y0021758D01*
X0020589D01*
X0020548Y00218D01*
Y0021592D02*
X0020589Y002155D01*
Y0021467D01*
X0020548Y0021425D01*
X0020506D01*
X0020464Y0021467D01*
Y0021509D01*
Y0021467D01*
X0020423Y0021425D01*
X0020381D01*
X0020339Y0021467D01*
Y002155D01*
X0020381Y0021592D01*
X002847Y-000905D02*
Y-00088D01*
X0028595D01*
X0028636Y-0008842D01*
Y-0008925D01*
X0028595Y-0008966D01*
X002847D01*
X0028553D02*
X0028636Y-000905D01*
X0028844D02*
Y-00088D01*
X002872Y-0008925D01*
X0028886D01*
X0028969Y-0008842D02*
X0029011Y-00088D01*
X0029094D01*
X0029136Y-0008842D01*
Y-0009008D01*
X0029094Y-000905D01*
X0029011D01*
X0028969Y-0009008D01*
Y-0008842D01*
X0029219Y-000905D02*
X0029303D01*
X0029261D01*
Y-00088D01*
X0029219Y-0008842D01*
X-0010648Y-0028601D02*
X-0010589Y-0028601D01*
X-001053Y-0028542D01*
Y-0028483D01*
X-0010648Y-0028366D01*
X-0010707D01*
X-0010766Y-0028424D01*
X-0010766Y-0028483D01*
X-0010943Y-0028601D02*
X-0010766Y-0028778D01*
X-0010766Y-0028601D01*
X-0010884Y-0028719D01*
X-0011149Y-0028807D02*
X-0011031Y-002869D01*
Y-0028925D01*
X-0011002Y-0028955D01*
X-0010943Y-0028955D01*
X-0010884Y-0028896D01*
Y-0028837D01*
X-001106Y-0029014D02*
Y-0029072D01*
X-0011119Y-0029131D01*
X-0011178Y-0029131D01*
X-0011208Y-0029102D01*
Y-0029043D01*
X-0011178Y-0029014D01*
X-0011208Y-0029043D01*
X-0011267Y-0029043D01*
X-0011296Y-0029014D01*
X-0011296Y-0028955D01*
X-0011237Y-0028896D01*
X-0011178D01*
X00206Y0018754D02*
X002035D01*
Y0018879D01*
X0020392Y0018921D01*
X0020475D01*
X0020517Y0018879D01*
Y0018754D01*
Y0018838D02*
X00206Y0018921D01*
X0020392Y0019004D02*
X002035Y0019046D01*
Y0019129D01*
X0020392Y0019171D01*
X0020433D01*
X0020475Y0019129D01*
Y0019088D01*
Y0019129D01*
X0020517Y0019171D01*
X0020558D01*
X00206Y0019129D01*
Y0019046D01*
X0020558Y0019004D01*
X00206Y0019254D02*
Y0019337D01*
Y0019296D01*
X002035D01*
X0020392Y0019254D01*
X00206Y0019462D02*
Y0019546D01*
Y0019504D01*
X002035D01*
X0020392Y0019462D01*
X003055Y0006883D02*
X0030508Y0006925D01*
X0030425D01*
X0030383Y0006883D01*
Y0006717D01*
X0030425Y0006675D01*
X0030508D01*
X003055Y0006717D01*
X00308Y0006925D02*
X0030633D01*
Y00068D01*
X0030717Y0006842D01*
X0030758D01*
X00308Y00068D01*
Y0006717D01*
X0030758Y0006675D01*
X0030675D01*
X0030633Y0006717D01*
X0030883Y0006883D02*
X0030925Y0006925D01*
X0031008D01*
X003105Y0006883D01*
Y0006717D01*
X0031008Y0006675D01*
X0030925D01*
X0030883Y0006717D01*
Y0006883D01*
X0031133Y0006675D02*
X0031217D01*
X0031175D01*
Y0006925D01*
X0031133Y0006883D01*
X0034775Y0007658D02*
X0035025D01*
Y0007533D01*
X0034983Y0007492D01*
X00349D01*
X0034858Y0007533D01*
Y0007658D01*
Y0007575D02*
X0034775Y0007492D01*
X0035025Y0007242D02*
Y0007408D01*
X00349D01*
X0034942Y0007325D01*
Y0007283D01*
X00349Y0007242D01*
X0034817D01*
X0034775Y0007283D01*
Y0007367D01*
X0034817Y0007408D01*
X0034983Y0007158D02*
X0035025Y0007117D01*
Y0007033D01*
X0034983Y0006992D01*
X0034817D01*
X0034775Y0007033D01*
Y0007117D01*
X0034817Y0007158D01*
X0034983D01*
X0034775Y0006742D02*
Y0006908D01*
X0034942Y0006742D01*
X0034983D01*
X0035025Y0006783D01*
Y0006867D01*
X0034983Y0006908D01*
X0033225Y0006742D02*
X0032975D01*
Y0006867D01*
X0033017Y0006908D01*
X00331D01*
X0033142Y0006867D01*
Y0006742D01*
Y0006825D02*
X0033225Y0006908D01*
X0032975Y0007158D02*
Y0006992D01*
X00331D01*
X0033058Y0007075D01*
Y0007117D01*
X00331Y0007158D01*
X0033183D01*
X0033225Y0007117D01*
Y0007033D01*
X0033183Y0006992D01*
X0033017Y0007242D02*
X0032975Y0007283D01*
Y0007367D01*
X0033017Y0007408D01*
X0033183D01*
X0033225Y0007367D01*
Y0007283D01*
X0033183Y0007242D01*
X0033017D01*
Y0007492D02*
X0032975Y0007533D01*
Y0007617D01*
X0033017Y0007658D01*
X0033183D01*
X0033225Y0007617D01*
Y0007533D01*
X0033183Y0007492D01*
X0033017D01*
X0008083Y-0013783D02*
X0008125Y-0013742D01*
Y-0013658D01*
X0008083Y-0013617D01*
X0007917D01*
X0007875Y-0013658D01*
Y-0013742D01*
X0007917Y-0013783D01*
X0008125Y-0014033D02*
Y-0013867D01*
X0008D01*
X0008042Y-001395D01*
Y-0013992D01*
X0008Y-0014033D01*
X0007917D01*
X0007875Y-0013992D01*
Y-0013908D01*
X0007917Y-0013867D01*
X0008083Y-0014117D02*
X0008125Y-0014158D01*
Y-0014242D01*
X0008083Y-0014283D01*
X0007917D01*
X0007875Y-0014242D01*
Y-0014158D01*
X0007917Y-0014117D01*
X0008083D01*
Y-0014367D02*
X0008125Y-0014408D01*
Y-0014492D01*
X0008083Y-0014533D01*
X0007917D01*
X0007875Y-0014492D01*
Y-0014408D01*
X0007917Y-0014367D01*
X0008083D01*
X0033758Y-0001275D02*
Y-0001525D01*
X0033633D01*
X0033592Y-0001483D01*
Y-00014D01*
X0033633Y-0001358D01*
X0033758D01*
X0033675D02*
X0033592Y-0001275D01*
X0033342Y-0001525D02*
X0033508D01*
Y-00014D01*
X0033425Y-0001442D01*
X0033383D01*
X0033342Y-00014D01*
Y-0001317D01*
X0033383Y-0001275D01*
X0033467D01*
X0033508Y-0001317D01*
X0033258Y-0001483D02*
X0033217Y-0001525D01*
X0033133D01*
X0033092Y-0001483D01*
Y-0001317D01*
X0033133Y-0001275D01*
X0033217D01*
X0033258Y-0001317D01*
Y-0001483D01*
X0033008D02*
X0032967Y-0001525D01*
X0032883D01*
X0032842Y-0001483D01*
Y-0001442D01*
X0032883Y-00014D01*
X0032842Y-0001358D01*
Y-0001317D01*
X0032883Y-0001275D01*
X0032967D01*
X0033008Y-0001317D01*
Y-0001358D01*
X0032967Y-00014D01*
X0033008Y-0001442D01*
Y-0001483D01*
X0032967Y-00014D02*
X0032883D01*
X-0038288Y-0019475D02*
Y-0019725D01*
X-0038413D01*
X-0038454Y-0019683D01*
Y-00196D01*
X-0038413Y-0019558D01*
X-0038288D01*
X-0038371D02*
X-0038454Y-0019475D01*
X-0038538D02*
X-0038621D01*
X-0038579D01*
Y-0019725D01*
X-0038538Y-0019683D01*
X-0038746D02*
X-0038787Y-0019725D01*
X-0038871D01*
X-0038912Y-0019683D01*
Y-0019517D01*
X-0038871Y-0019475D01*
X-0038787D01*
X-0038746Y-0019517D01*
Y-0019683D01*
X-0038996Y-0019517D02*
X-0039037Y-0019475D01*
X-0039121D01*
X-0039162Y-0019517D01*
Y-0019683D01*
X-0039121Y-0019725D01*
X-0039037D01*
X-0038996Y-0019683D01*
Y-0019642D01*
X-0039037Y-00196D01*
X-0039162D01*
X-00105Y-0023917D02*
X-0010542Y-0023875D01*
X-0010625D01*
X-0010667Y-0023917D01*
Y-0024083D01*
X-0010625Y-0024125D01*
X-0010542D01*
X-00105Y-0024083D01*
X-001025Y-0023875D02*
X-0010333Y-0023917D01*
X-0010417Y-0024D01*
Y-0024083D01*
X-0010375Y-0024125D01*
X-0010292D01*
X-001025Y-0024083D01*
Y-0024042D01*
X-0010292Y-0024D01*
X-0010417D01*
X-0010167Y-0023917D02*
X-0010125Y-0023875D01*
X-0010042D01*
X-001Y-0023917D01*
Y-0024083D01*
X-0010042Y-0024125D01*
X-0010125D01*
X-0010167Y-0024083D01*
Y-0023917D01*
X-0009917Y-0024125D02*
X-0009833D01*
X-0009875D01*
Y-0023875D01*
X-0009917Y-0023917D01*
X001485Y0015075D02*
Y0014825D01*
X0014725D01*
X0014683Y0014867D01*
Y001495D01*
X0014725Y0014992D01*
X001485D01*
X0014767D02*
X0014683Y0015075D01*
X00146Y0014867D02*
X0014558Y0014825D01*
X0014475D01*
X0014433Y0014867D01*
Y0014908D01*
X0014475Y001495D01*
X0014517D01*
X0014475D01*
X0014433Y0014992D01*
Y0015033D01*
X0014475Y0015075D01*
X0014558D01*
X00146Y0015033D01*
X001435Y0014867D02*
X0014309Y0014825D01*
X0014225D01*
X0014184Y0014867D01*
Y0015033D01*
X0014225Y0015075D01*
X0014309D01*
X001435Y0015033D01*
Y0014867D01*
X0013934Y0015075D02*
X00141D01*
X0013934Y0014908D01*
Y0014867D01*
X0013975Y0014825D01*
X0014059D01*
X00141Y0014867D01*
X001485Y0015975D02*
Y0015725D01*
X0014725D01*
X0014683Y0015767D01*
Y001585D01*
X0014725Y0015892D01*
X001485D01*
X0014767D02*
X0014683Y0015975D01*
X00146Y0015767D02*
X0014558Y0015725D01*
X0014475D01*
X0014433Y0015767D01*
Y0015808D01*
X0014475Y001585D01*
X0014517D01*
X0014475D01*
X0014433Y0015892D01*
Y0015933D01*
X0014475Y0015975D01*
X0014558D01*
X00146Y0015933D01*
X001435Y0015767D02*
X0014309Y0015725D01*
X0014225D01*
X0014184Y0015767D01*
Y0015933D01*
X0014225Y0015975D01*
X0014309D01*
X001435Y0015933D01*
Y0015767D01*
X0013975Y0015975D02*
Y0015725D01*
X00141Y001585D01*
X0013934D01*
X001655Y0015975D02*
Y0015725D01*
X0016425D01*
X0016383Y0015767D01*
Y001585D01*
X0016425Y0015892D01*
X001655D01*
X0016467D02*
X0016383Y0015975D01*
X00163Y0015767D02*
X0016258Y0015725D01*
X0016175D01*
X0016133Y0015767D01*
Y0015808D01*
X0016175Y001585D01*
X0016217D01*
X0016175D01*
X0016133Y0015892D01*
Y0015933D01*
X0016175Y0015975D01*
X0016258D01*
X00163Y0015933D01*
X001605Y0015767D02*
X0016009Y0015725D01*
X0015925D01*
X0015884Y0015767D01*
Y0015933D01*
X0015925Y0015975D01*
X0016009D01*
X001605Y0015933D01*
Y0015767D01*
X00158Y0015725D02*
X0015634D01*
Y0015767D01*
X00158Y0015933D01*
Y0015975D01*
X001655Y0015075D02*
Y0014825D01*
X0016425D01*
X0016383Y0014867D01*
Y001495D01*
X0016425Y0014992D01*
X001655D01*
X0016467D02*
X0016383Y0015075D01*
X00163Y0014867D02*
X0016258Y0014825D01*
X0016175D01*
X0016133Y0014867D01*
Y0014908D01*
X0016175Y001495D01*
X0016217D01*
X0016175D01*
X0016133Y0014992D01*
Y0015033D01*
X0016175Y0015075D01*
X0016258D01*
X00163Y0015033D01*
X001605Y0014867D02*
X0016009Y0014825D01*
X0015925D01*
X0015884Y0014867D01*
Y0015033D01*
X0015925Y0015075D01*
X0016009D01*
X001605Y0015033D01*
Y0014867D01*
X0015634Y0014825D02*
X0015717Y0014867D01*
X00158Y001495D01*
Y0015033D01*
X0015759Y0015075D01*
X0015675D01*
X0015634Y0015033D01*
Y0014992D01*
X0015675Y001495D01*
X00158D01*
X-0020408Y0028125D02*
Y0028375D01*
X-0020283D01*
X-0020242Y0028333D01*
Y002825D01*
X-0020283Y0028208D01*
X-0020408D01*
X-0020325D02*
X-0020242Y0028125D01*
X-0019992D02*
X-0020158D01*
X-0019992Y0028292D01*
Y0028333D01*
X-0020033Y0028375D01*
X-0020117D01*
X-0020158Y0028333D01*
X-0019742Y0028125D02*
X-0019908D01*
X-0019742Y0028292D01*
Y0028333D01*
X-0019783Y0028375D01*
X-0019867D01*
X-0019908Y0028333D01*
X-0019492Y0028125D02*
X-0019658D01*
X-0019492Y0028292D01*
Y0028333D01*
X-0019533Y0028375D01*
X-0019617D01*
X-0019658Y0028333D01*
X00032Y00335D02*
Y003375D01*
X0003325D01*
X0003367Y0033708D01*
Y0033625D01*
X0003325Y0033583D01*
X00032D01*
X0003283D02*
X0003367Y00335D01*
X0003617D02*
X000345D01*
X0003617Y0033667D01*
Y0033708D01*
X0003575Y003375D01*
X0003492D01*
X000345Y0033708D01*
X00037Y00335D02*
X0003783D01*
X0003741D01*
Y003375D01*
X00037Y0033708D01*
X0003908D02*
X000395Y003375D01*
X0004033D01*
X0004075Y0033708D01*
Y0033667D01*
X0004033Y0033625D01*
X0004075Y0033583D01*
Y0033542D01*
X0004033Y00335D01*
X000395D01*
X0003908Y0033542D01*
Y0033583D01*
X000395Y0033625D01*
X0003908Y0033667D01*
Y0033708D01*
X000395Y0033625D02*
X0004033D01*
X001285Y0018667D02*
X00126D01*
Y0018792D01*
X0012642Y0018833D01*
X0012725D01*
X0012767Y0018792D01*
Y0018667D01*
Y001875D02*
X001285Y0018833D01*
X0012642Y0018917D02*
X00126Y0018958D01*
Y0019042D01*
X0012642Y0019083D01*
X0012683D01*
X0012725Y0019042D01*
Y0019D01*
Y0019042D01*
X0012767Y0019083D01*
X0012808D01*
X001285Y0019042D01*
Y0018958D01*
X0012808Y0018917D01*
X0012642Y0019167D02*
X00126Y0019208D01*
Y0019292D01*
X0012642Y0019333D01*
X0012808D01*
X001285Y0019292D01*
Y0019208D01*
X0012808Y0019167D01*
X0012642D01*
Y0019417D02*
X00126Y0019458D01*
Y0019542D01*
X0012642Y0019583D01*
X0012683D01*
X0012725Y0019542D01*
X0012767Y0019583D01*
X0012808D01*
X001285Y0019542D01*
Y0019458D01*
X0012808Y0019417D01*
X0012767D01*
X0012725Y0019458D01*
X0012683Y0019417D01*
X0012642D01*
X0012725Y0019458D02*
Y0019542D01*
X-0013175Y0028083D02*
X-0013425D01*
Y0028208D01*
X-0013383Y002825D01*
X-00133D01*
X-0013258Y0028208D01*
Y0028083D01*
Y0028167D02*
X-0013175Y002825D01*
Y00285D02*
Y0028333D01*
X-0013342Y00285D01*
X-0013383D01*
X-0013425Y0028458D01*
Y0028375D01*
X-0013383Y0028333D01*
X-0013175Y002875D02*
Y0028583D01*
X-0013342Y002875D01*
X-0013383D01*
X-0013425Y0028708D01*
Y0028625D01*
X-0013383Y0028583D01*
X-0013175Y0028833D02*
Y0028917D01*
Y0028875D01*
X-0013425D01*
X-0013383Y0028833D01*
X-0013175Y0029904D02*
X-0013425D01*
Y0030029D01*
X-0013383Y0030071D01*
X-00133D01*
X-0013258Y0030029D01*
Y0029904D01*
Y0029988D02*
X-0013175Y0030071D01*
Y0030321D02*
Y0030154D01*
X-0013342Y0030321D01*
X-0013383D01*
X-0013425Y0030279D01*
Y0030196D01*
X-0013383Y0030154D01*
X-0013175Y0030404D02*
Y0030487D01*
Y0030446D01*
X-0013425D01*
X-0013383Y0030404D01*
X-0013175Y0030612D02*
Y0030696D01*
Y0030654D01*
X-0013425D01*
X-0013383Y0030612D01*
X00138Y0018688D02*
X001355D01*
Y0018813D01*
X0013592Y0018854D01*
X0013675D01*
X0013717Y0018813D01*
Y0018688D01*
Y0018771D02*
X00138Y0018854D01*
X0013592Y0018938D02*
X001355Y0018979D01*
Y0019063D01*
X0013592Y0019104D01*
X0013633D01*
X0013675Y0019063D01*
Y0019021D01*
Y0019063D01*
X0013717Y0019104D01*
X0013758D01*
X00138Y0019063D01*
Y0018979D01*
X0013758Y0018938D01*
X00138Y0019187D02*
Y0019271D01*
Y0019229D01*
X001355D01*
X0013592Y0019187D01*
Y0019396D02*
X001355Y0019437D01*
Y0019521D01*
X0013592Y0019562D01*
X0013758D01*
X00138Y0019521D01*
Y0019437D01*
X0013758Y0019396D01*
X0013592D01*
X0013442Y0020392D02*
X0013483Y002035D01*
X0013567D01*
X0013608Y0020392D01*
Y0020558D01*
X0013567Y00206D01*
X0013483D01*
X0013442Y0020558D01*
X0013358Y0020392D02*
X0013317Y002035D01*
X0013233D01*
X0013192Y0020392D01*
Y0020433D01*
X0013233Y0020475D01*
X0013275D01*
X0013233D01*
X0013192Y0020517D01*
Y0020558D01*
X0013233Y00206D01*
X0013317D01*
X0013358Y0020558D01*
X0012942Y00206D02*
X0013108D01*
X0012942Y0020433D01*
Y0020392D01*
X0012983Y002035D01*
X0013067D01*
X0013108Y0020392D01*
X0012858D02*
X0012817Y002035D01*
X0012733D01*
X0012692Y0020392D01*
Y0020558D01*
X0012733Y00206D01*
X0012817D01*
X0012858Y0020558D01*
Y0020392D01*
X001965Y0018692D02*
X00194D01*
Y0018817D01*
X0019442Y0018858D01*
X0019525D01*
X0019567Y0018817D01*
Y0018692D01*
Y0018775D02*
X001965Y0018858D01*
X0019442Y0018942D02*
X00194Y0018983D01*
Y0019067D01*
X0019442Y0019108D01*
X0019483D01*
X0019525Y0019067D01*
Y0019025D01*
Y0019067D01*
X0019567Y0019108D01*
X0019608D01*
X001965Y0019067D01*
Y0018983D01*
X0019608Y0018942D01*
X0019442Y0019192D02*
X00194Y0019233D01*
Y0019317D01*
X0019442Y0019358D01*
X0019608D01*
X001965Y0019317D01*
Y0019233D01*
X0019608Y0019192D01*
X0019442D01*
X0019608Y0019442D02*
X001965Y0019483D01*
Y0019567D01*
X0019608Y0019608D01*
X0019442D01*
X00194Y0019567D01*
Y0019483D01*
X0019442Y0019442D01*
X0019483D01*
X0019525Y0019483D01*
Y0019608D01*
X002025Y0020417D02*
X0020292Y0020375D01*
X0020375D01*
X0020417Y0020417D01*
Y0020583D01*
X0020375Y0020625D01*
X0020292D01*
X002025Y0020583D01*
X0020167Y0020417D02*
X0020125Y0020375D01*
X0020042D01*
X002Y0020417D01*
Y0020458D01*
X0020042Y00205D01*
X0020083D01*
X0020042D01*
X002Y0020542D01*
Y0020583D01*
X0020042Y0020625D01*
X0020125D01*
X0020167Y0020583D01*
X001975Y0020625D02*
X0019917D01*
X001975Y0020458D01*
Y0020417D01*
X0019792Y0020375D01*
X0019875D01*
X0019917Y0020417D01*
X0019667Y0020625D02*
X0019583D01*
X0019625D01*
Y0020375D01*
X0019667Y0020417D01*
X0018592Y-0007675D02*
Y-0007425D01*
X0018717D01*
X0018758Y-0007467D01*
Y-000755D01*
X0018717Y-0007592D01*
X0018592D01*
X0018675D02*
X0018758Y-0007675D01*
X0019008Y-0007425D02*
X0018842D01*
Y-000755D01*
X0018925Y-0007508D01*
X0018967D01*
X0019008Y-000755D01*
Y-0007633D01*
X0018967Y-0007675D01*
X0018883D01*
X0018842Y-0007633D01*
X0019092Y-0007467D02*
X0019133Y-0007425D01*
X0019217D01*
X0019258Y-0007467D01*
Y-0007633D01*
X0019217Y-0007675D01*
X0019133D01*
X0019092Y-0007633D01*
Y-0007467D01*
X0019342D02*
X0019383Y-0007425D01*
X0019466D01*
X0019508Y-0007467D01*
Y-0007508D01*
X0019466Y-000755D01*
X0019425D01*
X0019466D01*
X0019508Y-0007592D01*
Y-0007633D01*
X0019466Y-0007675D01*
X0019383D01*
X0019342Y-0007633D01*
X0013708Y0022083D02*
X001375Y0022125D01*
Y0022208D01*
X0013708Y002225D01*
X0013542D01*
X00135Y0022208D01*
Y0022125D01*
X0013542Y0022083D01*
X0013708Y0022D02*
X001375Y0021958D01*
Y0021875D01*
X0013708Y0021833D01*
X0013667D01*
X0013625Y0021875D01*
Y0021917D01*
Y0021875D01*
X0013583Y0021833D01*
X0013542D01*
X00135Y0021875D01*
Y0021958D01*
X0013542Y0022D01*
X00135Y002175D02*
Y0021667D01*
Y0021709D01*
X001375D01*
X0013708Y002175D01*
X001375Y0021375D02*
Y0021542D01*
X0013625D01*
X0013667Y0021459D01*
Y0021417D01*
X0013625Y0021375D01*
X0013542D01*
X00135Y0021417D01*
Y00215D01*
X0013542Y0021542D01*
X-0011726Y0031777D02*
X-0011785Y0031777D01*
X-0011843Y0031719D01*
Y003166D01*
X-0011726Y0031542D01*
X-0011667D01*
X-0011608Y0031601D01*
X-0011608Y003166D01*
X-0011402Y0031807D02*
X-0011519Y0031689D01*
Y0031925D01*
X-0011549Y0031954D01*
X-0011608D01*
X-0011667Y0031895D01*
Y0031836D01*
X-0011343Y0031866D02*
X-0011284Y0031925D01*
X-0011313Y0031895D01*
X-001149Y0032072D01*
Y0032013D01*
X-0011195D02*
X-0011137Y0032072D01*
X-0011166Y0032043D01*
X-0011343Y0032219D01*
Y003216D01*
X-0013658Y0039002D02*
X-0013658Y0039061D01*
X-0013717Y003912D01*
X-0013776D01*
X-0013894Y0039002D01*
Y0038943D01*
X-0013835Y0038884D01*
X-0013776Y0038884D01*
X-0013629Y0038678D02*
X-0013747Y0038796D01*
X-0013511D01*
X-0013482Y0038825D01*
Y0038884D01*
X-0013541Y0038943D01*
X-00136D01*
X-001357Y0038619D02*
X-0013511Y003856D01*
X-0013541Y0038589D01*
X-0013364Y0038766D01*
X-0013423D01*
X-0013305Y0038354D02*
X-0013423Y0038472D01*
X-0013187D01*
X-0013158Y0038501D01*
X-0013158Y003856D01*
X-0013217Y0038619D01*
X-0013276D01*
X-0015037Y0040239D02*
X-0015037Y0040298D01*
X-0015096Y0040357D01*
X-0015155D01*
X-0015273Y0040239D01*
Y004018D01*
X-0015214Y0040121D01*
X-0015155Y0040121D01*
X-0015008Y0039915D02*
X-0015126Y0040033D01*
X-001489D01*
X-0014861Y0040063D01*
Y0040121D01*
X-001492Y004018D01*
X-0014978D01*
X-0014831Y0039739D02*
X-0014949Y0039856D01*
X-0014713D01*
X-0014684Y0039886D01*
X-0014684Y0039945D01*
X-0014743Y0040004D01*
X-0014802D01*
X-0014654Y0039562D02*
X-0014772Y003968D01*
X-0014537D01*
X-0014507Y0039709D01*
X-0014507Y0039768D01*
X-0014566Y0039827D01*
X-0014625D01*
X-0015709Y0039568D02*
X-0015709Y0039626D01*
X-0015768Y0039685D01*
X-0015827D01*
X-0015945Y0039568D01*
Y0039509D01*
X-0015886Y003945D01*
X-0015827Y003945D01*
X-001568Y0039244D02*
X-0015797Y0039361D01*
X-0015562D01*
X-0015532Y0039391D01*
Y003945D01*
X-0015591Y0039509D01*
X-001565D01*
X-0015503Y0039067D02*
X-0015621Y0039185D01*
X-0015385D01*
X-0015356Y0039214D01*
X-0015356Y0039273D01*
X-0015415Y0039332D01*
X-0015473D01*
X-0015297Y0039155D02*
X-0015238D01*
X-0015179Y0039096D01*
X-0015179Y0039037D01*
X-0015208Y0039008D01*
X-0015267D01*
X-0015297Y0039037D01*
X-0015267Y0039008D01*
X-0015267Y0038949D01*
X-0015297Y003892D01*
X-0015356Y003892D01*
X-0015415Y0038978D01*
Y0039037D01*
X-0012599Y0040152D02*
X-0012599Y0040211D01*
X-0012658Y004027D01*
X-0012717D01*
X-0012834Y0040152D01*
Y0040093D01*
X-0012776Y0040034D01*
X-0012717Y0040034D01*
X-0012569Y0039828D02*
X-0012687Y0039946D01*
X-0012452D01*
X-0012422Y0039975D01*
Y0040034D01*
X-0012481Y0040093D01*
X-001254D01*
X-0012393Y0039651D02*
X-001251Y0039769D01*
X-0012275D01*
X-0012245Y0039799D01*
X-0012245Y0039857D01*
X-0012304Y0039916D01*
X-0012363D01*
X-0012334Y0039592D02*
X-0012275Y0039533D01*
X-0012304Y0039563D01*
X-0012128Y003974D01*
X-0012186D01*
X-0014366Y0040911D02*
X-0014366Y004097D01*
X-0014425Y0041029D01*
X-0014483D01*
X-0014601Y0040911D01*
Y0040852D01*
X-0014542Y0040793D01*
X-0014483Y0040793D01*
X-0014336Y0040587D02*
X-0014454Y0040705D01*
X-0014218D01*
X-0014189Y0040734D01*
Y0040793D01*
X-0014248Y0040852D01*
X-0014307D01*
X-0014159Y004041D02*
X-0014277Y0040528D01*
X-0014042D01*
X-0014012Y0040558D01*
X-0014012Y0040616D01*
X-0014071Y0040675D01*
X-001413D01*
X-0014012Y0040263D02*
X-0013835Y004044D01*
X-0014012D01*
X-0013894Y0040322D01*
X-0011924Y0040827D02*
X-0011924Y0040886D01*
X-0011983Y0040945D01*
X-0012042D01*
X-0012159Y0040827D01*
Y0040768D01*
X-0012101Y0040709D01*
X-0012042Y0040709D01*
X-0011894Y0040503D02*
X-0012012Y0040621D01*
X-0011777D01*
X-0011747Y004065D01*
Y0040709D01*
X-0011806Y0040768D01*
X-0011865D01*
X-0011718Y0040326D02*
X-0011835Y0040444D01*
X-00116D01*
X-001157Y0040473D01*
X-001157Y0040532D01*
X-0011629Y0040591D01*
X-0011688D01*
X-0011511Y0040415D02*
X-0011453D01*
X-0011394Y0040356D01*
X-0011394Y0040297D01*
X-0011511Y0040179D01*
X-001157Y0040179D01*
X-0011629Y0040238D01*
Y0040297D01*
X-0011511Y0040415D01*
X-0009692Y0043283D02*
X-000965Y0043325D01*
Y0043408D01*
X-0009692Y004345D01*
X-0009858D01*
X-00099Y0043408D01*
Y0043325D01*
X-0009858Y0043283D01*
X-00099Y0043033D02*
Y00432D01*
X-0009733Y0043033D01*
X-0009692D01*
X-000965Y0043075D01*
Y0043158D01*
X-0009692Y00432D01*
X-00099Y004295D02*
Y0042867D01*
Y0042909D01*
X-000965D01*
X-0009692Y004295D01*
Y0042742D02*
X-000965Y00427D01*
Y0042617D01*
X-0009692Y0042575D01*
X-0009858D01*
X-00099Y0042617D01*
Y00427D01*
X-0009858Y0042742D01*
X-0009692D01*
X-0008792Y0043283D02*
X-000875Y0043325D01*
Y0043408D01*
X-0008792Y004345D01*
X-0008958D01*
X-0009Y0043408D01*
Y0043325D01*
X-0008958Y0043283D01*
X-0009Y0043033D02*
Y00432D01*
X-0008833Y0043033D01*
X-0008792D01*
X-000875Y0043075D01*
Y0043158D01*
X-0008792Y00432D01*
X-0009Y004295D02*
Y0042867D01*
Y0042909D01*
X-000875D01*
X-0008792Y004295D01*
X-000875Y0042742D02*
Y0042575D01*
X-0008792D01*
X-0008958Y0042742D01*
X-0009D01*
X-0003146Y0042243D02*
X-0003087Y0042243D01*
X-0003028Y0042302D01*
Y0042361D01*
X-0003146Y0042478D01*
X-0003205D01*
X-0003264Y004242D01*
X-0003264Y0042361D01*
X-000347Y0042213D02*
X-0003352Y0042331D01*
Y0042096D01*
X-0003323Y0042066D01*
X-0003264D01*
X-0003205Y0042125D01*
Y0042184D01*
X-0003382Y0042007D02*
Y0041948D01*
X-0003441Y0041889D01*
X-00035Y0041889D01*
X-0003617Y0042007D01*
Y0042066D01*
X-0003558Y0042125D01*
X-00035D01*
X-0003382Y0042007D01*
X-0003558Y004183D02*
Y0041772D01*
X-0003617Y0041713D01*
X-0003676Y0041713D01*
X-0003706Y0041742D01*
Y0041801D01*
X-0003765Y0041801D01*
X-0003794Y004183D01*
X-0003794Y0041889D01*
X-0003735Y0041948D01*
X-0003676D01*
X-0003647Y0041919D01*
Y004186D01*
X-0003588D01*
X-0003558Y004183D01*
X-0003647Y004186D02*
X-0003706Y0041801D01*
X000535Y00415D02*
Y004175D01*
X0005475D01*
X0005517Y0041708D01*
Y0041625D01*
X0005475Y0041583D01*
X000535D01*
X0005433D02*
X0005517Y00415D01*
X0005767D02*
X00056D01*
X0005767Y0041667D01*
Y0041708D01*
X0005725Y004175D01*
X0005642D01*
X00056Y0041708D01*
X000585Y00415D02*
X0005933D01*
X0005891D01*
Y004175D01*
X000585Y0041708D01*
X0006058Y0041542D02*
X00061Y00415D01*
X0006183D01*
X0006225Y0041542D01*
Y0041708D01*
X0006183Y004175D01*
X00061D01*
X0006058Y0041708D01*
Y0041667D01*
X00061Y0041625D01*
X0006225D01*
X0004283Y0041492D02*
X0004325Y004145D01*
X0004408D01*
X000445Y0041492D01*
Y0041658D01*
X0004408Y00417D01*
X0004325D01*
X0004283Y0041658D01*
X0004033Y00417D02*
X00042D01*
X0004033Y0041533D01*
Y0041492D01*
X0004075Y004145D01*
X0004158D01*
X00042Y0041492D01*
X0003784Y00417D02*
X000395D01*
X0003784Y0041533D01*
Y0041492D01*
X0003825Y004145D01*
X0003909D01*
X000395Y0041492D01*
X0003534Y004145D02*
X0003617Y0041492D01*
X00037Y0041575D01*
Y0041658D01*
X0003659Y00417D01*
X0003575D01*
X0003534Y0041658D01*
Y0041617D01*
X0003575Y0041575D01*
X00037D01*
X000645Y00337D02*
Y003345D01*
X0006325D01*
X0006283Y0033492D01*
Y0033575D01*
X0006325Y0033617D01*
X000645D01*
X0006367D02*
X0006283Y00337D01*
X0006033D02*
X00062D01*
X0006033Y0033533D01*
Y0033492D01*
X0006075Y003345D01*
X0006158D01*
X00062Y0033492D01*
X0005784Y00337D02*
X000595D01*
X0005784Y0033533D01*
Y0033492D01*
X0005825Y003345D01*
X0005909D01*
X000595Y0033492D01*
X00057D02*
X0005659Y003345D01*
X0005575D01*
X0005534Y0033492D01*
Y0033658D01*
X0005575Y00337D01*
X0005659D01*
X00057Y0033658D01*
Y0033492D01*
X0008Y00223D02*
X000825D01*
Y0022175D01*
X0008208Y0022133D01*
X0008125D01*
X0008083Y0022175D01*
Y00223D01*
Y0022217D02*
X0008Y0022133D01*
X0008208Y002205D02*
X000825Y0022008D01*
Y0021925D01*
X0008208Y0021883D01*
X0008167D01*
X0008125Y0021925D01*
Y0021967D01*
Y0021925D01*
X0008083Y0021883D01*
X0008042D01*
X0008Y0021925D01*
Y0022008D01*
X0008042Y002205D01*
X0008208Y00218D02*
X000825Y0021759D01*
Y0021675D01*
X0008208Y0021634D01*
X0008042D01*
X0008Y0021675D01*
Y0021759D01*
X0008042Y00218D01*
X0008208D01*
X0008Y002155D02*
Y0021467D01*
Y0021509D01*
X000825D01*
X0008208Y002155D01*
X0019597Y0022133D02*
X0019639Y0022175D01*
Y0022258D01*
X0019597Y00223D01*
X0019431D01*
X0019389Y0022258D01*
Y0022175D01*
X0019431Y0022133D01*
X0019597Y002205D02*
X0019639Y0022008D01*
Y0021925D01*
X0019597Y0021883D01*
X0019556D01*
X0019514Y0021925D01*
Y0021967D01*
Y0021925D01*
X0019472Y0021883D01*
X0019431D01*
X0019389Y0021925D01*
Y0022008D01*
X0019431Y002205D01*
X0019597Y00218D02*
X0019639Y0021758D01*
Y0021675D01*
X0019597Y0021634D01*
X0019431D01*
X0019389Y0021675D01*
Y0021758D01*
X0019431Y00218D01*
X0019597D01*
Y002155D02*
X0019639Y0021509D01*
Y0021425D01*
X0019597Y0021384D01*
X0019556D01*
X0019514Y0021425D01*
X0019472Y0021384D01*
X0019431D01*
X0019389Y0021425D01*
Y0021509D01*
X0019431Y002155D01*
X0019472D01*
X0019514Y0021509D01*
X0019556Y002155D01*
X0019597D01*
X0019514Y0021509D02*
Y0021425D01*
X0011589Y00223D02*
X0011838D01*
Y0022175D01*
X0011797Y0022133D01*
X0011714D01*
X0011672Y0022175D01*
Y00223D01*
Y0022217D02*
X0011589Y0022133D01*
X0011797Y002205D02*
X0011838Y0022008D01*
Y0021925D01*
X0011797Y0021883D01*
X0011755D01*
X0011714Y0021925D01*
Y0021967D01*
Y0021925D01*
X0011672Y0021883D01*
X001163D01*
X0011589Y0021925D01*
Y0022008D01*
X001163Y002205D01*
X0011797Y00218D02*
X0011838Y0021758D01*
Y0021675D01*
X0011797Y0021634D01*
X001163D01*
X0011589Y0021675D01*
Y0021758D01*
X001163Y00218D01*
X0011797D01*
Y002155D02*
X0011838Y0021509D01*
Y0021425D01*
X0011797Y0021384D01*
X001163D01*
X0011589Y0021425D01*
Y0021509D01*
X001163Y002155D01*
X0011797D01*
X-0000117Y0033357D02*
X-0000117Y0033298D01*
X-0000058Y0033239D01*
X0000001D01*
X0000118Y0033357D01*
Y0033416D01*
X0000059Y0033475D01*
X0000001Y0033475D01*
X-0000147Y0033681D02*
X-0000029Y0033563D01*
X-0000264D01*
X-0000294Y0033533D01*
Y0033475D01*
X-0000235Y0033416D01*
X-0000176D01*
X-0000206Y003374D02*
X-0000264Y0033799D01*
X-0000235Y0033769D01*
X-0000412Y0033592D01*
X-0000353D01*
X-00005Y003374D02*
X-0000559D01*
X-0000618Y0033799D01*
X-0000618Y0033857D01*
X-0000588Y0033887D01*
X-000053D01*
X-00005Y0033857D01*
X-000053Y0033887D01*
Y0033946D01*
X-00005Y0033975D01*
X-0000441Y0033975D01*
X-0000382Y0033916D01*
Y0033857D01*
X-0012286Y0033103D02*
X-0012227Y0033103D01*
X-0012168Y0033162D01*
Y0033221D01*
X-0012286Y0033339D01*
X-0012345D01*
X-0012403Y003328D01*
X-0012403Y0033221D01*
X-001261Y0033074D02*
X-0012492Y0033192D01*
Y0032956D01*
X-0012462Y0032926D01*
X-0012403D01*
X-0012345Y0032985D01*
Y0033044D01*
X-0012668Y0033015D02*
X-0012727Y0032956D01*
X-0012698Y0032985D01*
X-0012521Y0032809D01*
Y0032868D01*
X-0012757Y0032573D02*
X-0012639Y0032691D01*
X-0012727Y0032779D01*
X-0012757Y0032691D01*
X-0012786Y0032661D01*
X-0012845D01*
X-0012904Y003272D01*
X-0012904Y0032779D01*
X-0012845Y0032838D01*
X-0012786D01*
X-0011575Y0027984D02*
X-0011825D01*
Y0028109D01*
X-0011783Y002815D01*
X-00117D01*
X-0011658Y0028109D01*
Y0027984D01*
Y0028067D02*
X-0011575Y002815D01*
Y00284D02*
Y0028234D01*
X-0011742Y00284D01*
X-0011783D01*
X-0011825Y0028359D01*
Y0028275D01*
X-0011783Y0028234D01*
Y0028483D02*
X-0011825Y0028525D01*
Y0028608D01*
X-0011783Y002865D01*
X-0011617D01*
X-0011575Y0028608D01*
Y0028525D01*
X-0011617Y0028483D01*
X-0011783D01*
Y0028733D02*
X-0011825Y0028775D01*
Y0028858D01*
X-0011783Y00289D01*
X-0011742D01*
X-00117Y0028858D01*
X-0011658Y00289D01*
X-0011617D01*
X-0011575Y0028858D01*
Y0028775D01*
X-0011617Y0028733D01*
X-0011658D01*
X-00117Y0028775D01*
X-0011742Y0028733D01*
X-0011783D01*
X-00117Y0028775D02*
Y0028858D01*
X-0010736Y0030646D02*
X-0010795Y0030646D01*
X-0010854Y0030587D01*
Y0030528D01*
X-0010736Y003041D01*
X-0010677D01*
X-0010618Y0030469D01*
X-0010618Y0030528D01*
X-0010412Y0030676D02*
X-001053Y0030558D01*
Y0030793D01*
X-0010559Y0030823D01*
X-0010618D01*
X-0010677Y0030764D01*
Y0030705D01*
X-0010353Y0030734D02*
X-0010294Y0030793D01*
X-0010323Y0030764D01*
X-00105Y0030941D01*
Y0030882D01*
X-0010264Y0031176D02*
X-0010294Y0031088D01*
Y003097D01*
X-0010235Y0030911D01*
X-0010176D01*
X-0010117Y003097D01*
X-0010117Y0031029D01*
X-0010147Y0031058D01*
X-0010206D01*
X-0010294Y003097D01*
X-0003776Y0029723D02*
X-0003776Y0029664D01*
X-0003717Y0029605D01*
X-0003658D01*
X-0003541Y0029723D01*
Y0029782D01*
X-0003599Y0029841D01*
X-0003658Y0029841D01*
X-0003806Y0030047D02*
X-0003688Y0029929D01*
X-0003923D01*
X-0003953Y00299D01*
Y0029841D01*
X-0003894Y0029782D01*
X-0003835D01*
X-0003865Y0030106D02*
X-0003923Y0030165D01*
X-0003894Y0030135D01*
X-0004071Y0029959D01*
X-0004012D01*
X-00041Y0030342D02*
X-0004277Y0030165D01*
X-00041D01*
X-0004218Y0030283D01*
X0000889Y0034153D02*
X0000712Y0033976D01*
X0000624Y0034064D01*
X0000624Y0034123D01*
X0000683Y0034182D01*
X0000742Y0034182D01*
X000083Y0034094D01*
X0000771Y0034153D02*
Y003427D01*
X0000594Y0034447D02*
X0000712Y0034329D01*
X0000477D01*
X0000447Y00343D01*
Y0034241D01*
X0000506Y0034182D01*
X0000565D01*
X0000388Y0034359D02*
X0000329D01*
X000027Y0034418D01*
X000027Y0034477D01*
X0000388Y0034594D01*
X0000447D01*
X0000506Y0034535D01*
Y0034477D01*
X0000388Y0034359D01*
X0000064Y0034624D02*
X0000182Y0034506D01*
X000027Y0034594D01*
X0000182Y0034624D01*
X0000153Y0034653D01*
Y0034712D01*
X0000211Y0034771D01*
X000027Y0034771D01*
X0000329Y0034712D01*
Y0034653D01*
X0000071Y0039025D02*
X000013Y0039025D01*
X0000189Y0039084D01*
Y0039143D01*
X0000071Y0039261D01*
X0000012D01*
X-0000047Y0039202D01*
X-0000047Y0039143D01*
X-0000253Y0038996D02*
X-0000135Y0039114D01*
Y0038878D01*
X-0000105Y0038849D01*
X-0000047D01*
X0000012Y0038908D01*
Y0038967D01*
X-0000164Y003879D02*
Y0038731D01*
X-0000223Y0038672D01*
X-0000282Y0038672D01*
X-00004Y003879D01*
Y0038849D01*
X-0000341Y0038908D01*
X-0000282D01*
X-0000164Y003879D01*
X-0000459Y0038731D02*
X-0000518D01*
X-0000577Y0038672D01*
X-0000577Y0038613D01*
X-0000459Y0038495D01*
X-00004Y0038495D01*
X-0000341Y0038554D01*
Y0038613D01*
X-0000371Y0038643D01*
X-0000429D01*
X-0000518Y0038554D01*
X-0015089Y0037847D02*
X-0014912Y0038024D01*
X-0014824Y0037936D01*
X-0014824Y0037877D01*
X-0014883Y0037818D01*
X-0014942Y0037818D01*
X-001503Y0037906D01*
X-0014971Y0037847D02*
Y003773D01*
X-0014794Y0037553D02*
X-0014912Y0037671D01*
X-0014677D01*
X-0014647Y00377D01*
Y0037759D01*
X-0014706Y0037818D01*
X-0014765D01*
X-0014588Y0037641D02*
X-0014529D01*
X-001447Y0037582D01*
X-001447Y0037523D01*
X-0014588Y0037406D01*
X-0014647D01*
X-0014706Y0037465D01*
Y0037523D01*
X-0014588Y0037641D01*
X-0014441Y00372D02*
X-0014559Y0037317D01*
X-0014323D01*
X-0014294Y0037347D01*
X-0014294Y0037406D01*
X-0014353Y0037465D01*
X-0014411D01*
X-0017183Y-0031092D02*
X-0017225Y-003105D01*
X-0017308D01*
X-001735Y-0031092D01*
Y-0031258D01*
X-0017308Y-00313D01*
X-0017225D01*
X-0017183Y-0031258D01*
X-0016975Y-00313D02*
Y-003105D01*
X-00171Y-0031175D01*
X-0016933D01*
X-0016684Y-00313D02*
X-001685D01*
X-0016684Y-0031133D01*
Y-0031092D01*
X-0016725Y-003105D01*
X-0016809D01*
X-001685Y-0031092D01*
X-0016434Y-00313D02*
X-00166D01*
X-0016434Y-0031133D01*
Y-0031092D01*
X-0016475Y-003105D01*
X-0016559D01*
X-00166Y-0031092D01*
X0004933Y-0006767D02*
X0004975Y-0006725D01*
Y-0006642D01*
X0004933Y-00066D01*
X0004767D01*
X0004725Y-0006642D01*
Y-0006725D01*
X0004767Y-0006767D01*
X0004975Y-0007017D02*
Y-000685D01*
X000485D01*
X0004892Y-0006933D01*
Y-0006975D01*
X000485Y-0007017D01*
X0004767D01*
X0004725Y-0006975D01*
Y-0006892D01*
X0004767Y-000685D01*
X0004725Y-00071D02*
Y-0007183D01*
Y-0007141D01*
X0004975D01*
X0004933Y-00071D01*
Y-0007308D02*
X0004975Y-000735D01*
Y-0007433D01*
X0004933Y-0007475D01*
X0004892D01*
X000485Y-0007433D01*
Y-0007391D01*
Y-0007433D01*
X0004808Y-0007475D01*
X0004767D01*
X0004725Y-0007433D01*
Y-000735D01*
X0004767Y-0007308D01*
X0005674Y-0006599D02*
X0005924D01*
Y-0006724D01*
X0005883Y-0006766D01*
X0005799D01*
X0005758Y-0006724D01*
Y-0006599D01*
Y-0006683D02*
X0005674Y-0006766D01*
X0005924Y-0007016D02*
Y-0006849D01*
X0005799D01*
X0005841Y-0006933D01*
Y-0006974D01*
X0005799Y-0007016D01*
X0005716D01*
X0005674Y-0006974D01*
Y-0006891D01*
X0005716Y-0006849D01*
X0005883Y-0007099D02*
X0005924Y-0007141D01*
Y-0007224D01*
X0005883Y-0007266D01*
X0005716D01*
X0005674Y-0007224D01*
Y-0007141D01*
X0005716Y-0007099D01*
X0005883D01*
X0005716Y-0007349D02*
X0005674Y-0007391D01*
Y-0007474D01*
X0005716Y-0007516D01*
X0005883D01*
X0005924Y-0007474D01*
Y-0007391D01*
X0005883Y-0007349D01*
X0005841D01*
X0005799Y-0007391D01*
Y-0007516D01*
X00057Y-001175D02*
X000545D01*
Y-0011625D01*
X0005492Y-0011583D01*
X0005575D01*
X0005617Y-0011625D01*
Y-001175D01*
Y-0011667D02*
X00057Y-0011583D01*
X000545Y-0011333D02*
Y-00115D01*
X0005575D01*
X0005533Y-0011417D01*
Y-0011375D01*
X0005575Y-0011333D01*
X0005658D01*
X00057Y-0011375D01*
Y-0011458D01*
X0005658Y-00115D01*
X0005492Y-001125D02*
X000545Y-0011209D01*
Y-0011125D01*
X0005492Y-0011084D01*
X0005658D01*
X00057Y-0011125D01*
Y-0011209D01*
X0005658Y-001125D01*
X0005492D01*
X000545Y-0010834D02*
Y-0011D01*
X0005575D01*
X0005533Y-0010917D01*
Y-0010875D01*
X0005575Y-0010834D01*
X0005658D01*
X00057Y-0010875D01*
Y-0010959D01*
X0005658Y-0011D01*
X0013475Y-0011425D02*
X0013725D01*
Y-001155D01*
X0013683Y-0011592D01*
X00136D01*
X0013558Y-001155D01*
Y-0011425D01*
Y-0011508D02*
X0013475Y-0011592D01*
X0013725Y-0011842D02*
Y-0011675D01*
X00136D01*
X0013642Y-0011758D01*
Y-00118D01*
X00136Y-0011842D01*
X0013517D01*
X0013475Y-00118D01*
Y-0011717D01*
X0013517Y-0011675D01*
X0013683Y-0011925D02*
X0013725Y-0011966D01*
Y-001205D01*
X0013683Y-0012091D01*
X0013517D01*
X0013475Y-001205D01*
Y-0011966D01*
X0013517Y-0011925D01*
X0013683D01*
X0013725Y-0012341D02*
X0013683Y-0012258D01*
X00136Y-0012175D01*
X0013517D01*
X0013475Y-0012216D01*
Y-00123D01*
X0013517Y-0012341D01*
X0013558D01*
X00136Y-00123D01*
Y-0012175D01*
X003027Y-000905D02*
Y-00088D01*
X0030395D01*
X0030436Y-0008842D01*
Y-0008925D01*
X0030395Y-0008966D01*
X003027D01*
X0030353D02*
X0030436Y-000905D01*
X0030644D02*
Y-00088D01*
X003052Y-0008925D01*
X0030686D01*
X0030769Y-0008842D02*
X0030811Y-00088D01*
X0030894D01*
X0030936Y-0008842D01*
Y-0009008D01*
X0030894Y-000905D01*
X0030811D01*
X0030769Y-0009008D01*
Y-0008842D01*
X0031186Y-00088D02*
X0031019D01*
Y-0008925D01*
X0031103Y-0008883D01*
X0031144D01*
X0031186Y-0008925D01*
Y-0009008D01*
X0031144Y-000905D01*
X0031061D01*
X0031019Y-0009008D01*
X0028642Y-0007867D02*
X00286Y-0007825D01*
X0028517D01*
X0028475Y-0007867D01*
Y-0008033D01*
X0028517Y-0008075D01*
X00286D01*
X0028642Y-0008033D01*
X002885Y-0008075D02*
Y-0007825D01*
X0028725Y-000795D01*
X0028892D01*
X0028975Y-0008075D02*
X0029058D01*
X0029016D01*
Y-0007825D01*
X0028975Y-0007867D01*
X0029183D02*
X0029225Y-0007825D01*
X0029308D01*
X002935Y-0007867D01*
Y-0008033D01*
X0029308Y-0008075D01*
X0029225D01*
X0029183Y-0008033D01*
Y-0007867D01*
X0029217Y-0010633D02*
X0029175Y-0010675D01*
Y-0010758D01*
X0029217Y-00108D01*
X0029383D01*
X0029425Y-0010758D01*
Y-0010675D01*
X0029383Y-0010633D01*
X0029425Y-0010425D02*
X0029175D01*
X00293Y-001055D01*
Y-0010383D01*
X0029217Y-00103D02*
X0029175Y-0010259D01*
Y-0010175D01*
X0029217Y-0010134D01*
X0029383D01*
X0029425Y-0010175D01*
Y-0010259D01*
X0029383Y-00103D01*
X0029217D01*
Y-001005D02*
X0029175Y-0010009D01*
Y-0009925D01*
X0029217Y-0009884D01*
X0029383D01*
X0029425Y-0009925D01*
Y-0010009D01*
X0029383Y-001005D01*
X0029217D01*
X00321Y000765D02*
X003235D01*
Y0007525D01*
X0032308Y0007483D01*
X0032225D01*
X0032183Y0007525D01*
Y000765D01*
Y0007567D02*
X00321Y0007483D01*
X003235Y0007233D02*
Y00074D01*
X0032225D01*
X0032267Y0007317D01*
Y0007275D01*
X0032225Y0007233D01*
X0032142D01*
X00321Y0007275D01*
Y0007358D01*
X0032142Y00074D01*
X0032308Y000715D02*
X003235Y0007109D01*
Y0007025D01*
X0032308Y0006984D01*
X0032142D01*
X00321Y0007025D01*
Y0007109D01*
X0032142Y000715D01*
X0032308D01*
X00321Y0006775D02*
X003235D01*
X0032225Y00069D01*
Y0006734D01*
X0033892Y0006917D02*
X003385Y0006875D01*
Y0006792D01*
X0033892Y000675D01*
X0034058D01*
X00341Y0006792D01*
Y0006875D01*
X0034058Y0006917D01*
X003385Y0007167D02*
Y0007D01*
X0033975D01*
X0033933Y0007083D01*
Y0007125D01*
X0033975Y0007167D01*
X0034058D01*
X00341Y0007125D01*
Y0007042D01*
X0034058Y0007D01*
X0033892Y000725D02*
X003385Y0007291D01*
Y0007375D01*
X0033892Y0007416D01*
X0034058D01*
X00341Y0007375D01*
Y0007291D01*
X0034058Y000725D01*
X0033892D01*
Y00075D02*
X003385Y0007541D01*
Y0007625D01*
X0033892Y0007666D01*
X0033933D01*
X0033975Y0007625D01*
X0034017Y0007666D01*
X0034058D01*
X00341Y0007625D01*
Y0007541D01*
X0034058Y00075D01*
X0034017D01*
X0033975Y0007541D01*
X0033933Y00075D01*
X0033892D01*
X0033975Y0007541D02*
Y0007625D01*
X0019327Y-0019418D02*
Y-0019168D01*
X0019452D01*
X0019494Y-001921D01*
Y-0019293D01*
X0019452Y-0019335D01*
X0019327D01*
X0019411D02*
X0019494Y-0019418D01*
X0019702D02*
Y-0019168D01*
X0019577Y-0019293D01*
X0019744D01*
X0019827Y-0019418D02*
X001991D01*
X0019869D01*
Y-0019168D01*
X0019827Y-001921D01*
X0020035Y-0019418D02*
X0020119D01*
X0020077D01*
Y-0019168D01*
X0020035Y-001921D01*
X-0017183Y-0033292D02*
X-0017225Y-003325D01*
X-0017308D01*
X-001735Y-0033292D01*
Y-0033458D01*
X-0017308Y-00335D01*
X-0017225D01*
X-0017183Y-0033458D01*
X-0016975Y-00335D02*
Y-003325D01*
X-00171Y-0033375D01*
X-0016933D01*
X-001685Y-00335D02*
X-0016767D01*
X-0016809D01*
Y-003325D01*
X-001685Y-0033292D01*
X-0016642D02*
X-00166Y-003325D01*
X-0016517D01*
X-0016475Y-0033292D01*
Y-0033333D01*
X-0016517Y-0033375D01*
X-0016559D01*
X-0016517D01*
X-0016475Y-0033417D01*
Y-0033458D01*
X-0016517Y-00335D01*
X-00166D01*
X-0016642Y-0033458D01*
X-0008633Y-0033292D02*
X-0008675Y-003325D01*
X-0008758D01*
X-00088Y-0033292D01*
Y-0033458D01*
X-0008758Y-00335D01*
X-0008675D01*
X-0008633Y-0033458D01*
X-0008425Y-00335D02*
Y-003325D01*
X-000855Y-0033375D01*
X-0008383D01*
X-00083Y-00335D02*
X-0008217D01*
X-0008259D01*
Y-003325D01*
X-00083Y-0033292D01*
X-0008092Y-00335D02*
X-0008009D01*
X-000805D01*
Y-003325D01*
X-0008092Y-0033292D01*
X-0017492Y-0028774D02*
Y-0028525D01*
X-0017367D01*
X-0017325Y-0028566D01*
Y-0028649D01*
X-0017367Y-0028691D01*
X-0017492D01*
X-0017409D02*
X-0017325Y-0028774D01*
X-0017117D02*
Y-0028525D01*
X-0017242Y-0028649D01*
X-0017075D01*
X-0016992Y-0028566D02*
X-0016951Y-0028525D01*
X-0016867D01*
X-0016826Y-0028566D01*
Y-0028733D01*
X-0016867Y-0028774D01*
X-0016951D01*
X-0016992Y-0028733D01*
Y-0028566D01*
X-0016576Y-0028525D02*
X-0016659Y-0028566D01*
X-0016742Y-0028649D01*
Y-0028733D01*
X-0016701Y-0028774D01*
X-0016617D01*
X-0016576Y-0028733D01*
Y-0028691D01*
X-0016617Y-0028649D01*
X-0016742D01*
X-0002439Y0041536D02*
X-000238Y0041536D01*
X-0002321Y0041595D01*
Y0041654D01*
X-0002439Y0041771D01*
X-0002498D01*
X-0002557Y0041712D01*
X-0002557Y0041654D01*
X-0002763Y0041506D02*
X-0002645Y0041624D01*
Y0041388D01*
X-0002616Y0041359D01*
X-0002557D01*
X-0002498Y0041418D01*
Y0041477D01*
X-0002822Y0041447D02*
X-0002881Y0041388D01*
X-0002851Y0041418D01*
X-0002675Y0041241D01*
Y00413D01*
X-0002822Y0041153D02*
Y0041094D01*
X-0002881Y0041035D01*
X-000294Y0041035D01*
X-0002969Y0041064D01*
Y0041123D01*
X-0003028D01*
X-0003058Y0041153D01*
X-0003058Y0041212D01*
X-0002999Y0041271D01*
X-000294D01*
X-000291Y0041241D01*
Y0041182D01*
X-0002851Y0041182D01*
X-0002822Y0041153D01*
X-000291Y0041182D02*
X-0002969Y0041123D01*
X-0001531Y0031943D02*
X-0001531Y0031884D01*
X-0001473Y0031825D01*
X-0001414D01*
X-0001296Y0031943D01*
Y0032001D01*
X-0001355Y003206D01*
X-0001414Y003206D01*
X-0001561Y0032267D02*
X-0001443Y0032149D01*
X-0001679D01*
X-0001708Y0032119D01*
Y003206D01*
X-0001649Y0032001D01*
X-000159D01*
X-000162Y0032325D02*
X-0001679Y0032384D01*
X-0001649Y0032355D01*
X-0001826Y0032178D01*
X-0001767D01*
X-0001797Y0032443D02*
Y0032502D01*
X-0001855Y0032561D01*
X-0001914Y0032561D01*
X-0002032Y0032443D01*
X-0002032Y0032384D01*
X-0001973Y0032325D01*
X-0001914D01*
X-0001885Y0032355D01*
X-0001885Y0032414D01*
X-0001973Y0032502D01*
D113*
X0031767Y-0025609D02*
X00319Y-0025475D01*
Y-0025209D01*
X0031767Y-0025075D01*
X0031233D01*
X00311Y-0025209D01*
Y-0025475D01*
X0031233Y-0025609D01*
X00311Y-0026275D02*
X00319D01*
X00315Y-0025875D01*
Y-0026408D01*
X00311Y-0026675D02*
Y-0026942D01*
Y-0026808D01*
X00319D01*
X0031767Y-0026675D01*
X00311Y-0027741D02*
X00319D01*
X00315Y-0027341D01*
Y-0027875D01*
X0030441Y-0017758D02*
X0030575Y-0017625D01*
Y-0017358D01*
X0030441Y-0017225D01*
X0029908D01*
X0029775Y-0017358D01*
Y-0017625D01*
X0029908Y-0017758D01*
X0029775Y-0018425D02*
X0030575D01*
X0030175Y-0018025D01*
Y-0018558D01*
X0029775Y-0018824D02*
Y-0019091D01*
Y-0018958D01*
X0030575D01*
X0030441Y-0018824D01*
X0030575Y-0020024D02*
Y-0019491D01*
X0030175D01*
X0030308Y-0019758D01*
Y-0019891D01*
X0030175Y-0020024D01*
X0029908D01*
X0029775Y-0019891D01*
Y-0019624D01*
X0029908Y-0019491D01*
X0027458Y-0003384D02*
X0027325Y-000325D01*
X0027058D01*
X0026925Y-0003384D01*
Y-0003917D01*
X0027058Y-000405D01*
X0027325D01*
X0027458Y-0003917D01*
X0028258Y-000325D02*
X0027725D01*
Y-000365D01*
X0027991Y-0003517D01*
X0028125D01*
X0028258Y-000365D01*
Y-0003917D01*
X0028125Y-000405D01*
X0027858D01*
X0027725Y-0003917D01*
X0028524Y-0003384D02*
X0028658Y-000325D01*
X0028924D01*
X0029058Y-0003384D01*
Y-0003917D01*
X0028924Y-000405D01*
X0028658D01*
X0028524Y-0003917D01*
Y-0003384D01*
X0029324D02*
X0029458Y-000325D01*
X0029724D01*
X0029857Y-0003384D01*
Y-0003517D01*
X0029724Y-000365D01*
X0029591D01*
X0029724D01*
X0029857Y-0003783D01*
Y-0003917D01*
X0029724Y-000405D01*
X0029458D01*
X0029324Y-0003917D01*
X0031642Y-0003359D02*
X0031509Y-0003225D01*
X0031242D01*
X0031109Y-0003359D01*
Y-0003892D01*
X0031242Y-0004025D01*
X0031509D01*
X0031642Y-0003892D01*
X0032442Y-0003225D02*
X0031909D01*
Y-0003625D01*
X0032175Y-0003492D01*
X0032309D01*
X0032442Y-0003625D01*
Y-0003892D01*
X0032309Y-0004025D01*
X0032042D01*
X0031909Y-0003892D01*
X0032709Y-0003359D02*
X0032842Y-0003225D01*
X0033108D01*
X0033242Y-0003359D01*
Y-0003892D01*
X0033108Y-0004025D01*
X0032842D01*
X0032709Y-0003892D01*
Y-0003359D01*
X0034041Y-0004025D02*
X0033508D01*
X0034041Y-0003492D01*
Y-0003359D01*
X0033908Y-0003225D01*
X0033642D01*
X0033508Y-0003359D01*
X0009258Y-0034567D02*
X0009391Y-00347D01*
X0009658D01*
X0009791Y-0034567D01*
Y-0034033D01*
X0009658Y-00339D01*
X0009391D01*
X0009258Y-0034033D01*
X0008592Y-00339D02*
Y-00347D01*
X0008991Y-00343D01*
X0008458D01*
X0008192Y-0034567D02*
X0008058Y-00347D01*
X0007792D01*
X0007659Y-0034567D01*
Y-0034033D01*
X0007792Y-00339D01*
X0008058D01*
X0008192Y-0034033D01*
Y-0034567D01*
X0006859Y-00339D02*
X0007392D01*
X0006859Y-0034433D01*
Y-0034567D01*
X0006992Y-00347D01*
X0007259D01*
X0007392Y-0034567D01*
X0017142Y-0033241D02*
X0017275Y-0033375D01*
X0017542D01*
X0017675Y-0033241D01*
Y-0032708D01*
X0017542Y-0032575D01*
X0017275D01*
X0017142Y-0032708D01*
X0016475Y-0032575D02*
Y-0033375D01*
X0016875Y-0032975D01*
X0016342D01*
X0016076Y-0033241D02*
X0015942Y-0033375D01*
X0015676D01*
X0015542Y-0033241D01*
Y-0032708D01*
X0015676Y-0032575D01*
X0015942D01*
X0016076Y-0032708D01*
Y-0033241D01*
X0015276D02*
X0015142Y-0033375D01*
X0014876D01*
X0014743Y-0033241D01*
Y-0033108D01*
X0014876Y-0032975D01*
X0015009D01*
X0014876D01*
X0014743Y-0032842D01*
Y-0032708D01*
X0014876Y-0032575D01*
X0015142D01*
X0015276Y-0032708D01*
D114*
X0021908Y0028608D02*
X0021825Y0028525D01*
Y0028358D01*
X0021908Y0028275D01*
X0022242D01*
X0022325Y0028358D01*
Y0028525D01*
X0022242Y0028608D01*
X0021908Y0028775D02*
X0021825Y0028858D01*
Y0029025D01*
X0021908Y0029108D01*
X0021992D01*
X0022075Y0029025D01*
Y0028941D01*
Y0029025D01*
X0022158Y0029108D01*
X0022242D01*
X0022325Y0029025D01*
Y0028858D01*
X0022242Y0028775D01*
X0021908Y0029275D02*
X0021825Y0029358D01*
Y0029525D01*
X0021908Y0029608D01*
X0022242D01*
X0022325Y0029525D01*
Y0029358D01*
X0022242Y0029275D01*
X0021908D01*
X0021825Y0030108D02*
Y0029775D01*
X0022075D01*
X0021992Y0029941D01*
Y0030024D01*
X0022075Y0030108D01*
X0022242D01*
X0022325Y0030024D01*
Y0029858D01*
X0022242Y0029775D01*
X-0004967Y-0033892D02*
X-000505Y-0033975D01*
Y-0034142D01*
X-0004967Y-0034225D01*
X-0004633D01*
X-000455Y-0034142D01*
Y-0033975D01*
X-0004633Y-0033892D01*
X-000455Y-0033475D02*
X-000505D01*
X-00048Y-0033725D01*
Y-0033392D01*
X-000455Y-0032892D02*
Y-0033225D01*
X-0004883Y-0032892D01*
X-0004967D01*
X-000505Y-0032975D01*
Y-0033142D01*
X-0004967Y-0033225D01*
X-000455Y-0032476D02*
X-000505D01*
X-00048Y-0032725D01*
Y-0032392D01*
X0022292Y0032842D02*
X0022375Y0032925D01*
Y0033092D01*
X0022292Y0033175D01*
X0021958D01*
X0021875Y0033092D01*
Y0032925D01*
X0021958Y0032842D01*
X0022292Y0032675D02*
X0022375Y0032592D01*
Y0032425D01*
X0022292Y0032342D01*
X0022208D01*
X0022125Y0032425D01*
Y0032509D01*
Y0032425D01*
X0022042Y0032342D01*
X0021958D01*
X0021875Y0032425D01*
Y0032592D01*
X0021958Y0032675D01*
X0022292Y0032175D02*
X0022375Y0032092D01*
Y0031925D01*
X0022292Y0031842D01*
X0021958D01*
X0021875Y0031925D01*
Y0032092D01*
X0021958Y0032175D01*
X0022292D01*
X0021875Y0031342D02*
Y0031675D01*
X0022208Y0031342D01*
X0022292D01*
X0022375Y0031426D01*
Y0031592D01*
X0022292Y0031675D01*
X0010392Y0032842D02*
X0010475Y0032925D01*
Y0033092D01*
X0010392Y0033175D01*
X0010058D01*
X0009975Y0033092D01*
Y0032925D01*
X0010058Y0032842D01*
X0010392Y0032675D02*
X0010475Y0032592D01*
Y0032425D01*
X0010392Y0032342D01*
X0010308D01*
X0010225Y0032425D01*
Y0032509D01*
Y0032425D01*
X0010142Y0032342D01*
X0010058D01*
X0009975Y0032425D01*
Y0032592D01*
X0010058Y0032675D01*
X0010392Y0032175D02*
X0010475Y0032092D01*
Y0031925D01*
X0010392Y0031842D01*
X0010058D01*
X0009975Y0031925D01*
Y0032092D01*
X0010058Y0032175D01*
X0010392D01*
Y0031675D02*
X0010475Y0031592D01*
Y0031426D01*
X0010392Y0031342D01*
X0010308D01*
X0010225Y0031426D01*
Y0031509D01*
Y0031426D01*
X0010142Y0031342D01*
X0010058D01*
X0009975Y0031426D01*
Y0031592D01*
X0010058Y0031675D01*
X0010008Y0028608D02*
X0009925Y0028525D01*
Y0028358D01*
X0010008Y0028275D01*
X0010342D01*
X0010425Y0028358D01*
Y0028525D01*
X0010342Y0028608D01*
X0010008Y0028775D02*
X0009925Y0028858D01*
Y0029025D01*
X0010008Y0029108D01*
X0010092D01*
X0010175Y0029025D01*
Y0028941D01*
Y0029025D01*
X0010258Y0029108D01*
X0010342D01*
X0010425Y0029025D01*
Y0028858D01*
X0010342Y0028775D01*
X0010008Y0029275D02*
X0009925Y0029358D01*
Y0029525D01*
X0010008Y0029608D01*
X0010342D01*
X0010425Y0029525D01*
Y0029358D01*
X0010342Y0029275D01*
X0010008D01*
X0010425Y0030024D02*
X0009925D01*
X0010175Y0029775D01*
Y0030108D01*
X0016097Y0020908D02*
X0016014Y0020825D01*
Y0020658D01*
X0016097Y0020575D01*
X0016431D01*
X0016514Y0020658D01*
Y0020825D01*
X0016431Y0020908D01*
X0016097Y0021075D02*
X0016014Y0021158D01*
Y0021325D01*
X0016097Y0021408D01*
X0016181D01*
X0016264Y0021325D01*
Y0021241D01*
Y0021325D01*
X0016347Y0021408D01*
X0016431D01*
X0016514Y0021325D01*
Y0021158D01*
X0016431Y0021075D01*
X0016097Y0021575D02*
X0016014Y0021658D01*
Y0021825D01*
X0016097Y0021908D01*
X0016431D01*
X0016514Y0021825D01*
Y0021658D01*
X0016431Y0021575D01*
X0016097D01*
X0016014Y0022074D02*
Y0022408D01*
X0016097D01*
X0016431Y0022074D01*
X0016514D01*
X0017922Y0020908D02*
X0017839Y0020825D01*
Y0020658D01*
X0017922Y0020575D01*
X0018255D01*
X0018338Y0020658D01*
Y0020825D01*
X0018255Y0020908D01*
X0017922Y0021075D02*
X0017839Y0021158D01*
Y0021325D01*
X0017922Y0021408D01*
X0018005D01*
X0018089Y0021325D01*
Y0021241D01*
Y0021325D01*
X0018172Y0021408D01*
X0018255D01*
X0018338Y0021325D01*
Y0021158D01*
X0018255Y0021075D01*
X0017922Y0021575D02*
X0017839Y0021658D01*
Y0021825D01*
X0017922Y0021908D01*
X0018255D01*
X0018338Y0021825D01*
Y0021658D01*
X0018255Y0021575D01*
X0017922D01*
X0018255Y0022074D02*
X0018338Y0022158D01*
Y0022324D01*
X0018255Y0022408D01*
X0017922D01*
X0017839Y0022324D01*
Y0022158D01*
X0017922Y0022074D01*
X0018005D01*
X0018089Y0022158D01*
Y0022408D01*
X0007633Y-0007733D02*
X000755Y-000765D01*
X0007383D01*
X00073Y-0007733D01*
Y-0008066D01*
X0007383Y-000815D01*
X000755D01*
X0007633Y-0008066D01*
X0008133Y-000765D02*
X00078D01*
Y-00079D01*
X0007966Y-0007817D01*
X000805D01*
X0008133Y-00079D01*
Y-0008066D01*
X000805Y-000815D01*
X0007883D01*
X00078Y-0008066D01*
X0008299Y-0007733D02*
X0008383Y-000765D01*
X0008549D01*
X0008633Y-0007733D01*
Y-0008066D01*
X0008549Y-000815D01*
X0008383D01*
X0008299Y-0008066D01*
Y-0007733D01*
X0008799Y-0008066D02*
X0008883Y-000815D01*
X0009049D01*
X0009132Y-0008066D01*
Y-0007733D01*
X0009049Y-000765D01*
X0008883D01*
X0008799Y-0007733D01*
Y-0007817D01*
X0008883Y-00079D01*
X0009132D01*
X0010808Y-0012284D02*
X0010725Y-00122D01*
X0010558D01*
X0010475Y-0012284D01*
Y-0012617D01*
X0010558Y-00127D01*
X0010725D01*
X0010808Y-0012617D01*
X0011308Y-00122D02*
X0010975D01*
Y-001245D01*
X0011141Y-0012367D01*
X0011224D01*
X0011308Y-001245D01*
Y-0012617D01*
X0011224Y-00127D01*
X0011058D01*
X0010975Y-0012617D01*
X0011474Y-00127D02*
X0011641D01*
X0011558D01*
Y-00122D01*
X0011474Y-0012284D01*
X0011891Y-00127D02*
X0012058D01*
X0011974D01*
Y-00122D01*
X0011891Y-0012284D01*
X0010808Y-0014108D02*
X0010725Y-0014025D01*
X0010558D01*
X0010475Y-0014108D01*
Y-0014442D01*
X0010558Y-0014525D01*
X0010725D01*
X0010808Y-0014442D01*
X0011308Y-0014025D02*
X0010975D01*
Y-0014275D01*
X0011141Y-0014192D01*
X0011224D01*
X0011308Y-0014275D01*
Y-0014442D01*
X0011224Y-0014525D01*
X0011058D01*
X0010975Y-0014442D01*
X0011474Y-0014525D02*
X0011641D01*
X0011558D01*
Y-0014025D01*
X0011474Y-0014108D01*
X0012224Y-0014525D02*
X0011891D01*
X0012224Y-0014192D01*
Y-0014108D01*
X0012141Y-0014025D01*
X0011974D01*
X0011891Y-0014108D01*
X-0039867Y-0009608D02*
X-003995Y-0009525D01*
X-0040117D01*
X-00402Y-0009608D01*
Y-0009942D01*
X-0040117Y-0010025D01*
X-003995D01*
X-0039867Y-0009942D01*
X-00397Y-0010025D02*
X-0039534D01*
X-0039617D01*
Y-0009525D01*
X-00397Y-0009608D01*
X-0039284D02*
X-00392Y-0009525D01*
X-0039034D01*
X-003895Y-0009608D01*
Y-0009942D01*
X-0039034Y-0010025D01*
X-00392D01*
X-0039284Y-0009942D01*
Y-0009608D01*
X-0038451Y-0010025D02*
X-0038784D01*
X-0038451Y-0009692D01*
Y-0009608D01*
X-0038534Y-0009525D01*
X-00387D01*
X-0038784Y-0009608D01*
X-0039867Y-0007808D02*
X-003995Y-0007725D01*
X-0040117D01*
X-00402Y-0007808D01*
Y-0008142D01*
X-0040117Y-0008225D01*
X-003995D01*
X-0039867Y-0008142D01*
X-00397Y-0008225D02*
X-0039534D01*
X-0039617D01*
Y-0007725D01*
X-00397Y-0007808D01*
X-0039284D02*
X-00392Y-0007725D01*
X-0039034D01*
X-003895Y-0007808D01*
Y-0008142D01*
X-0039034Y-0008225D01*
X-00392D01*
X-0039284Y-0008142D01*
Y-0007808D01*
X-0038784D02*
X-00387Y-0007725D01*
X-0038534D01*
X-0038451Y-0007808D01*
Y-0007892D01*
X-0038534Y-0007975D01*
X-0038617D01*
X-0038534D01*
X-0038451Y-0008058D01*
Y-0008142D01*
X-0038534Y-0008225D01*
X-00387D01*
X-0038784Y-0008142D01*
D115*
X-00193Y0036729D02*
X-0019717D01*
X-00198Y0036646D01*
Y0036479D01*
X-0019717Y0036396D01*
X-00193D01*
X-00198Y0035896D02*
Y0036229D01*
X-0019467Y0035896D01*
X-0019383D01*
X-00193Y0035979D01*
Y0036146D01*
X-0019383Y0036229D01*
Y0035729D02*
X-00193Y0035646D01*
Y0035479D01*
X-0019383Y0035396D01*
X-0019717D01*
X-00198Y0035479D01*
Y0035646D01*
X-0019717Y0035729D01*
X-0019383D01*
X-00198Y003523D02*
Y0035063D01*
Y0035146D01*
X-00193D01*
X-0019383Y003523D01*
X0007117Y-00104D02*
Y-0010817D01*
X00072Y-00109D01*
X0007367D01*
X000745Y-0010817D01*
Y-00104D01*
X000795D02*
X0007617D01*
Y-001065D01*
X0007783Y-0010567D01*
X0007866D01*
X000795Y-001065D01*
Y-0010817D01*
X0007866Y-00109D01*
X00077D01*
X0007617Y-0010817D01*
X0008116Y-0010483D02*
X00082Y-00104D01*
X0008366D01*
X000845Y-0010483D01*
Y-0010817D01*
X0008366Y-00109D01*
X00082D01*
X0008116Y-0010817D01*
Y-0010483D01*
X0008616Y-00109D02*
X0008783D01*
X00087D01*
Y-00104D01*
X0008616Y-0010483D01*
X-0020867Y0030383D02*
Y0030717D01*
X-002095Y00308D01*
X-0021117D01*
X-00212Y0030717D01*
Y0030383D01*
X-0021117Y00303D01*
X-002095D01*
X-0021033Y0030467D02*
X-0020867Y00303D01*
X-002095D02*
X-0020867Y0030383D01*
X-0020367Y00303D02*
X-00207D01*
X-0020367Y0030633D01*
Y0030717D01*
X-002045Y00308D01*
X-0020617D01*
X-00207Y0030717D01*
X-00202D02*
X-0020117Y00308D01*
X-001995D01*
X-0019867Y0030717D01*
Y0030383D01*
X-001995Y00303D01*
X-0020117D01*
X-00202Y0030383D01*
Y0030717D01*
X-00197D02*
X-0019617Y00308D01*
X-0019451D01*
X-0019367Y0030717D01*
Y0030383D01*
X-0019451Y00303D01*
X-0019617D01*
X-00197Y0030383D01*
Y0030717D01*
X-0041289Y0008494D02*
Y0008077D01*
X-0041206Y0007994D01*
X-004104D01*
X-0040956Y0008077D01*
Y0008494D01*
X-0040456Y0007994D02*
X-004079D01*
X-0040456Y0008327D01*
Y000841D01*
X-004054Y0008494D01*
X-0040706D01*
X-004079Y000841D01*
X-004029D02*
X-0040207Y0008494D01*
X-004004D01*
X-0039957Y000841D01*
Y0008077D01*
X-004004Y0007994D01*
X-0040207D01*
X-004029Y0008077D01*
Y000841D01*
X-003979D02*
X-0039707Y0008494D01*
X-003954D01*
X-0039457Y000841D01*
Y0008077D01*
X-003954Y0007994D01*
X-0039707D01*
X-003979Y0008077D01*
Y000841D01*
D116*
X0008658Y-0031967D02*
X0008592Y-00319D01*
X0008459D01*
X0008392Y-0031967D01*
Y-0032233D01*
X0008459Y-00323D01*
X0008592D01*
X0008658Y-0032233D01*
X0008992Y-00323D02*
Y-00319D01*
X0008792Y-00321D01*
X0009058D01*
X0009192Y-0031967D02*
X0009258Y-00319D01*
X0009392D01*
X0009458Y-0031967D01*
Y-0032233D01*
X0009392Y-00323D01*
X0009258D01*
X0009192Y-0032233D01*
Y-0031967D01*
X0009791Y-00323D02*
Y-00319D01*
X0009592Y-00321D01*
X0009858D01*
X00218Y-0016542D02*
X0021733Y-0016475D01*
X00216D01*
X0021534Y-0016542D01*
Y-0016808D01*
X00216Y-0016875D01*
X0021733D01*
X00218Y-0016808D01*
X0022133Y-0016875D02*
Y-0016475D01*
X0021933Y-0016675D01*
X00222D01*
X00226Y-0016875D02*
X0022333D01*
X00226Y-0016608D01*
Y-0016542D01*
X0022533Y-0016475D01*
X00224D01*
X0022333Y-0016542D01*
X0022733Y-0016875D02*
X0022866D01*
X00228D01*
Y-0016475D01*
X0022733Y-0016542D01*
X0030242Y-0010475D02*
Y-0010767D01*
X00303Y-0010825D01*
X0030417D01*
X0030475Y-0010767D01*
Y-0010475D01*
X0030767Y-0010825D02*
Y-0010475D01*
X0030592Y-001065D01*
X0030825D01*
X0030942Y-0010533D02*
X0031Y-0010475D01*
X0031117D01*
X0031175Y-0010533D01*
Y-0010767D01*
X0031117Y-0010825D01*
X0031D01*
X0030942Y-0010767D01*
Y-0010533D01*
X0031292Y-0010825D02*
X0031408D01*
X003135D01*
Y-0010475D01*
X0031292Y-0010533D01*
X000265Y00166D02*
X000305D01*
Y00164D01*
X0002983Y0016333D01*
X000285D01*
X0002783Y00164D01*
Y00166D01*
Y0016466D02*
X000265Y0016333D01*
Y00162D02*
Y0016067D01*
Y0016133D01*
X000305D01*
X0002983Y00162D01*
Y0015867D02*
X000305Y00158D01*
Y0015667D01*
X0002983Y00156D01*
X0002716D01*
X000265Y0015667D01*
Y00158D01*
X0002716Y0015867D01*
X0002983D01*
X000305Y00152D02*
X0002983Y0015334D01*
X000285Y0015467D01*
X0002716D01*
X000265Y00154D01*
Y0015267D01*
X0002716Y00152D01*
X0002783D01*
X000285Y0015267D01*
Y0015467D01*
X0029933Y0008133D02*
X0029867Y00082D01*
X0029734D01*
X0029667Y0008133D01*
Y0007867D01*
X0029734Y00078D01*
X0029867D01*
X0029933Y0007867D01*
X0030333Y00082D02*
X0030067D01*
Y0008D01*
X00302Y0008067D01*
X0030267D01*
X0030333Y0008D01*
Y0007867D01*
X0030267Y00078D01*
X0030133D01*
X0030067Y0007867D01*
X0030467Y0008133D02*
X0030533Y00082D01*
X0030667D01*
X0030733Y0008133D01*
Y0007867D01*
X0030667Y00078D01*
X0030533D01*
X0030467Y0007867D01*
Y0008133D01*
X0031066Y00078D02*
Y00082D01*
X0030867Y0008D01*
X0031133D01*
X00071Y-0014366D02*
X00067D01*
Y-0014167D01*
X0006767Y-00141D01*
X00069D01*
X0006967Y-0014167D01*
Y-0014366D01*
Y-0014233D02*
X00071Y-00141D01*
X00067Y-00137D02*
Y-0013967D01*
X00069D01*
X0006833Y-0013833D01*
Y-0013767D01*
X00069Y-00137D01*
X0007033D01*
X00071Y-0013767D01*
Y-00139D01*
X0007033Y-0013967D01*
X0006767Y-0013567D02*
X00067Y-00135D01*
Y-0013367D01*
X0006767Y-00133D01*
X0007033D01*
X00071Y-0013367D01*
Y-00135D01*
X0007033Y-0013567D01*
X0006767D01*
X00071Y-0013167D02*
Y-0013034D01*
Y-00131D01*
X00067D01*
X0006767Y-0013167D01*
X-0039775Y00023D02*
Y00027D01*
X-0039575D01*
X-0039508Y0002633D01*
Y00025D01*
X-0039575Y0002433D01*
X-0039775D01*
X-0039642D02*
X-0039508Y00023D01*
X-0039375D02*
X-0039242D01*
X-0039309D01*
Y00027D01*
X-0039375Y0002633D01*
X-0039042D02*
X-0038975Y00027D01*
X-0038842D01*
X-0038775Y0002633D01*
Y0002367D01*
X-0038842Y00023D01*
X-0038975D01*
X-0039042Y0002367D01*
Y0002633D01*
X-0038642D02*
X-0038575Y00027D01*
X-0038442D01*
X-0038375Y0002633D01*
Y0002567D01*
X-0038442Y00025D01*
X-0038375Y0002433D01*
Y0002367D01*
X-0038442Y00023D01*
X-0038575D01*
X-0038642Y0002367D01*
Y0002433D01*
X-0038575Y00025D01*
X-0038642Y0002567D01*
Y0002633D01*
X-0038575Y00025D02*
X-0038442D01*
X0012767Y0031767D02*
X00127Y00317D01*
Y0031567D01*
X0012767Y00315D01*
X0013033D01*
X00131Y0031567D01*
Y00317D01*
X0013033Y0031767D01*
X0012767Y00319D02*
X00127Y0031967D01*
Y00321D01*
X0012767Y0032167D01*
X0012833D01*
X00129Y00321D01*
Y0032033D01*
Y00321D01*
X0012967Y0032167D01*
X0013033D01*
X00131Y00321D01*
Y0031967D01*
X0013033Y00319D01*
X00131Y00323D02*
Y0032433D01*
Y0032367D01*
X00127D01*
X0012767Y00323D01*
X00127Y0032633D02*
Y00329D01*
X0012767D01*
X0013033Y0032633D01*
X00131D01*
X000395Y00166D02*
X000435D01*
Y00164D01*
X0004283Y0016333D01*
X000415D01*
X0004083Y00164D01*
Y00166D01*
Y0016466D02*
X000395Y0016333D01*
Y00162D02*
Y0016067D01*
Y0016133D01*
X000435D01*
X0004283Y00162D01*
Y0015867D02*
X000435Y00158D01*
Y0015667D01*
X0004283Y00156D01*
X0004017D01*
X000395Y0015667D01*
Y00158D01*
X0004017Y0015867D01*
X0004283D01*
X000435Y00152D02*
Y0015467D01*
X000415D01*
X0004217Y0015334D01*
Y0015267D01*
X000415Y00152D01*
X0004017D01*
X000395Y0015267D01*
Y00154D01*
X0004017Y0015467D01*
X-0009516Y0030369D02*
X-0009233Y0030086D01*
X-0009375Y0029945D01*
X-0009469D01*
X-0009563Y0030039D01*
X-0009563Y0030133D01*
X-0009422Y0030275D01*
X-0009516Y0030181D02*
X-0009705Y0030181D01*
X-0009987Y0029898D02*
X-0009799Y0030086D01*
Y0029709D01*
X-0009752Y0029662D01*
X-0009657D01*
X-0009563Y0029756D01*
Y0029851D01*
X-0009846Y0029568D02*
Y0029474D01*
X-000994Y0029379D01*
X-0010034D01*
X-0010223Y0029568D01*
Y0029662D01*
X-0010129Y0029756D01*
X-0010034D01*
X-0009846Y0029568D01*
X-0010129Y0029285D02*
Y0029191D01*
X-0010223Y0029097D01*
X-0010317D01*
X-0010506Y0029285D01*
Y0029379D01*
X-0010411Y0029474D01*
X-0010317D01*
X-0010129Y0029285D01*
X-0000823Y004186D02*
X-000054Y0041577D01*
X-0000682Y0041436D01*
X-0000776D01*
X-000087Y004153D01*
X-000087Y0041624D01*
X-0000729Y0041765D01*
X-0000823Y0041671D02*
X-0001012Y0041671D01*
X-0001294Y0041389D02*
X-0001106Y0041577D01*
Y00412D01*
X-0001059Y0041153D01*
X-0000964D01*
X-000087Y0041247D01*
Y0041341D01*
X-0001153Y0041059D02*
Y0040964D01*
X-0001247Y004087D01*
X-0001341D01*
X-000153Y0041059D01*
Y0041153D01*
X-0001436Y0041247D01*
X-0001341D01*
X-0001153Y0041059D01*
X-0001388Y0040729D02*
X-0001577Y004054D01*
X-0001624Y0040587D01*
Y0040964D01*
X-0001671Y0041012D01*
X0015367Y0031817D02*
X00153Y003175D01*
Y0031617D01*
X0015367Y003155D01*
X0015633D01*
X00157Y0031617D01*
Y003175D01*
X0015633Y0031817D01*
X0015367Y003195D02*
X00153Y0032017D01*
Y003215D01*
X0015367Y0032217D01*
X0015433D01*
X00155Y003215D01*
Y0032083D01*
Y003215D01*
X0015567Y0032217D01*
X0015633D01*
X00157Y003215D01*
Y0032017D01*
X0015633Y003195D01*
X00157Y003235D02*
Y0032483D01*
Y0032417D01*
X00153D01*
X0015367Y003235D01*
X00153Y003295D02*
X0015367Y0032816D01*
X00155Y0032683D01*
X0015633D01*
X00157Y003275D01*
Y0032883D01*
X0015633Y003295D01*
X0015567D01*
X00155Y0032883D01*
Y0032683D01*
X0016667Y0031883D02*
X00166Y0031817D01*
Y0031684D01*
X0016667Y0031617D01*
X0016933D01*
X0017Y0031684D01*
Y0031817D01*
X0016933Y0031883D01*
X0016667Y0032017D02*
X00166Y0032083D01*
Y0032217D01*
X0016667Y0032283D01*
X0016733D01*
X00168Y0032217D01*
Y003215D01*
Y0032217D01*
X0016867Y0032283D01*
X0016933D01*
X0017Y0032217D01*
Y0032083D01*
X0016933Y0032017D01*
X0017Y0032417D02*
Y003255D01*
Y0032483D01*
X00166D01*
X0016667Y0032417D01*
X0017Y003275D02*
Y0032883D01*
Y0032816D01*
X00166D01*
X0016667Y003275D01*
X0019267Y0031767D02*
X00192Y00317D01*
Y0031567D01*
X0019267Y00315D01*
X0019533D01*
X00196Y0031567D01*
Y00317D01*
X0019533Y0031767D01*
X0019267Y00319D02*
X00192Y0031967D01*
Y00321D01*
X0019267Y0032167D01*
X0019333D01*
X00194Y00321D01*
Y0032033D01*
Y00321D01*
X0019467Y0032167D01*
X0019533D01*
X00196Y00321D01*
Y0031967D01*
X0019533Y00319D01*
X00196Y00323D02*
Y0032433D01*
Y0032367D01*
X00192D01*
X0019267Y00323D01*
Y0032633D02*
X00192Y00327D01*
Y0032833D01*
X0019267Y00329D01*
X0019533D01*
X00196Y0032833D01*
Y00327D01*
X0019533Y0032633D01*
X0019267D01*
X0014939Y0020742D02*
X0014539D01*
Y0020942D01*
X0014605Y0021008D01*
X0014739D01*
X0014805Y0020942D01*
Y0020742D01*
Y0020875D02*
X0014939Y0021008D01*
X0014605Y0021142D02*
X0014539Y0021208D01*
Y0021342D01*
X0014605Y0021408D01*
X0014672D01*
X0014739Y0021342D01*
Y0021275D01*
Y0021342D01*
X0014805Y0021408D01*
X0014872D01*
X0014939Y0021342D01*
Y0021208D01*
X0014872Y0021142D01*
X0014605Y0021542D02*
X0014539Y0021608D01*
Y0021742D01*
X0014605Y0021808D01*
X0014872D01*
X0014939Y0021742D01*
Y0021608D01*
X0014872Y0021542D01*
X0014605D01*
Y0021941D02*
X0014539Y0022008D01*
Y0022141D01*
X0014605Y0022208D01*
X0014672D01*
X0014739Y0022141D01*
Y0022075D01*
Y0022141D01*
X0014805Y0022208D01*
X0014872D01*
X0014939Y0022141D01*
Y0022008D01*
X0014872Y0021941D01*
X-0014548Y0033469D02*
X-0014831Y0033752D01*
X-0014689Y0033893D01*
X-0014595D01*
X-0014501Y0033799D01*
X-0014501Y0033705D01*
X-0014642Y0033563D01*
X-0014548Y0033657D02*
X-001436Y0033657D01*
X-0014077Y003394D02*
X-0014265Y0033752D01*
Y0034129D01*
X-0014312Y0034176D01*
X-0014407D01*
X-0014501Y0034082D01*
Y0033987D01*
X-0014218Y003427D02*
Y0034364D01*
X-0014124Y0034459D01*
X-001403D01*
X-0013841Y003427D01*
Y0034176D01*
X-0013935Y0034082D01*
X-001403D01*
X-0014218Y003427D01*
X-0013558Y0034459D02*
X-0013841Y0034741D01*
X-0013841Y0034459D01*
X-0013653Y0034647D01*
X-0005973Y002921D02*
X-000569Y0028927D01*
X-0005832Y0028786D01*
X-0005926D01*
X-000602Y002888D01*
X-000602Y0028974D01*
X-0005879Y0029115D01*
X-0005973Y0029021D02*
X-0006161Y0029021D01*
X-0006444Y0028739D02*
X-0006256Y0028927D01*
Y002855D01*
X-0006209Y0028503D01*
X-0006114D01*
X-000602Y0028597D01*
Y0028691D01*
X-0006303Y0028409D02*
Y0028314D01*
X-0006397Y002822D01*
X-0006491D01*
X-000668Y0028409D01*
Y0028503D01*
X-0006586Y0028597D01*
X-0006491D01*
X-0006303Y0028409D01*
X-0006586Y0028126D02*
Y0028032D01*
X-000668Y0027937D01*
X-0006774D01*
X-0006821Y0027985D01*
Y0028079D01*
X-0006774Y0028126D01*
X-0006821Y0028079D01*
X-0006916Y0028079D01*
X-0006963Y0028126D01*
Y002822D01*
X-0006868Y0028314D01*
X-0006774D01*
X-0008644Y0029403D02*
X-0008361Y002912D01*
X-0008503Y0028979D01*
X-0008597D01*
X-0008691Y0029073D01*
X-0008691Y0029167D01*
X-000855Y0029308D01*
X-0008644Y0029214D02*
X-0008832Y0029214D01*
X-0009115Y0028931D02*
X-0008927Y002912D01*
Y0028743D01*
X-000888Y0028696D01*
X-0008785D01*
X-0008691Y002879D01*
Y0028884D01*
X-0008974Y0028602D02*
Y0028507D01*
X-0009068Y0028413D01*
X-0009162D01*
X-0009351Y0028602D01*
Y0028696D01*
X-0009257Y002879D01*
X-0009162D01*
X-0008974Y0028602D01*
X-0009492Y0028554D02*
X-0009586Y002846D01*
X-0009539Y0028507D01*
X-0009257Y0028225D01*
Y0028319D01*
X00054Y-0008442D02*
X0005799D01*
Y-0008642D01*
X0005733Y-0008708D01*
X0005599D01*
X0005533Y-0008642D01*
Y-0008442D01*
Y-0008575D02*
X00054Y-0008708D01*
X0005799Y-0009108D02*
Y-0008842D01*
X0005599D01*
X0005666Y-0008975D01*
Y-0009041D01*
X0005599Y-0009108D01*
X0005466D01*
X00054Y-0009041D01*
Y-0008908D01*
X0005466Y-0008842D01*
X0005733Y-0009241D02*
X0005799Y-0009308D01*
Y-0009441D01*
X0005733Y-0009508D01*
X0005466D01*
X00054Y-0009441D01*
Y-0009308D01*
X0005466Y-0009241D01*
X0005733D01*
X0005799Y-0009641D02*
Y-0009908D01*
X0005733D01*
X0005466Y-0009641D01*
X00054D01*
X0029033Y-0001317D02*
X0028967Y-000125D01*
X0028834D01*
X0028767Y-0001317D01*
Y-0001583D01*
X0028834Y-000165D01*
X0028967D01*
X0029033Y-0001583D01*
X0029433Y-000125D02*
X0029167D01*
Y-000145D01*
X00293Y-0001383D01*
X0029367D01*
X0029433Y-000145D01*
Y-0001583D01*
X0029367Y-000165D01*
X0029233D01*
X0029167Y-0001583D01*
X0029567Y-0001317D02*
X0029633Y-000125D01*
X0029767D01*
X0029833Y-0001317D01*
Y-0001583D01*
X0029767Y-000165D01*
X0029633D01*
X0029567Y-0001583D01*
Y-0001317D01*
X0030233Y-000125D02*
X0029967D01*
Y-000145D01*
X00301Y-0001383D01*
X0030166D01*
X0030233Y-000145D01*
Y-0001583D01*
X0030166Y-000165D01*
X0030033D01*
X0029967Y-0001583D01*
X0029167Y-0026108D02*
X00291Y-0026175D01*
Y-0026308D01*
X0029167Y-0026375D01*
X0029433D01*
X00295Y-0026308D01*
Y-0026175D01*
X0029433Y-0026108D01*
X00295Y-0025775D02*
X00291D01*
X00293Y-0025975D01*
Y-0025708D01*
X00295Y-0025575D02*
Y-0025442D01*
Y-0025508D01*
X00291D01*
X0029167Y-0025575D01*
X00291Y-0024975D02*
X0029167Y-0025109D01*
X00293Y-0025242D01*
X0029433D01*
X00295Y-0025175D01*
Y-0025042D01*
X0029433Y-0024975D01*
X0029367D01*
X00293Y-0025042D01*
Y-0025242D01*
X0026967Y-0028042D02*
X00269Y-0027975D01*
X0026767D01*
X00267Y-0028042D01*
Y-0028308D01*
X0026767Y-0028375D01*
X00269D01*
X0026967Y-0028308D01*
X00273Y-0028375D02*
Y-0027975D01*
X00271Y-0028175D01*
X0027367D01*
X00275Y-0028375D02*
X0027633D01*
X0027567D01*
Y-0027975D01*
X00275Y-0028042D01*
X0027833Y-0027975D02*
X00281D01*
Y-0028042D01*
X0027833Y-0028308D01*
Y-0028375D01*
X0006758Y-0029733D02*
X0006825Y-0029667D01*
Y-0029534D01*
X0006758Y-0029467D01*
X0006492D01*
X0006425Y-0029534D01*
Y-0029667D01*
X0006492Y-0029733D01*
X0006425Y-0030067D02*
X0006825D01*
X0006625Y-0029867D01*
Y-0030133D01*
X0006758Y-0030267D02*
X0006825Y-0030333D01*
Y-0030467D01*
X0006758Y-0030533D01*
X0006492D01*
X0006425Y-0030467D01*
Y-0030333D01*
X0006492Y-0030267D01*
X0006758D01*
X0006825Y-0030933D02*
Y-0030667D01*
X0006625D01*
X0006692Y-00308D01*
Y-0030866D01*
X0006625Y-0030933D01*
X0006492D01*
X0006425Y-0030866D01*
Y-0030733D01*
X0006492Y-0030667D01*
X-0040357Y000556D02*
X-004029Y0005494D01*
X-0040157D01*
X-004009Y000556D01*
Y0005827D01*
X-0040157Y0005894D01*
X-004029D01*
X-0040357Y0005827D01*
X-0040756Y0005894D02*
X-004049D01*
X-0040756Y0005627D01*
Y000556D01*
X-004069Y0005494D01*
X-0040556D01*
X-004049Y000556D01*
X-004089D02*
X-0040956Y0005494D01*
X-004109D01*
X-0041156Y000556D01*
Y0005827D01*
X-004109Y0005894D01*
X-0040956D01*
X-004089Y0005827D01*
Y000556D01*
X-004129D02*
X-0041356Y0005494D01*
X-004149D01*
X-0041556Y000556D01*
Y0005627D01*
X-004149Y0005694D01*
X-0041423D01*
X-004149D01*
X-0041556Y000576D01*
Y0005827D01*
X-004149Y0005894D01*
X-0041356D01*
X-004129Y0005827D01*
X-004129Y0010927D02*
X-0041356Y0010994D01*
X-004149D01*
X-0041556Y0010927D01*
Y001066D01*
X-004149Y0010594D01*
X-0041356D01*
X-004129Y001066D01*
X-004089Y0010594D02*
X-0041156D01*
X-004089Y001086D01*
Y0010927D01*
X-0040956Y0010994D01*
X-004109D01*
X-0041156Y0010927D01*
X-0040756D02*
X-004069Y0010994D01*
X-0040557D01*
X-004049Y0010927D01*
Y001066D01*
X-0040557Y0010594D01*
X-004069D01*
X-0040756Y001066D01*
Y0010927D01*
X-0040157Y0010594D02*
Y0010994D01*
X-0040357Y0010794D01*
X-004009D01*
X-0022208Y0035883D02*
X-0022275Y0035817D01*
Y0035684D01*
X-0022208Y0035617D01*
X-0021942D01*
X-0021875Y0035684D01*
Y0035817D01*
X-0021942Y0035883D01*
X-0021875Y0036283D02*
Y0036017D01*
X-0022142Y0036283D01*
X-0022208D01*
X-0022275Y0036217D01*
Y0036083D01*
X-0022208Y0036017D01*
Y0036417D02*
X-0022275Y0036483D01*
Y0036617D01*
X-0022208Y0036683D01*
X-0021942D01*
X-0021875Y0036617D01*
Y0036483D01*
X-0021942Y0036417D01*
X-0022208D01*
X-0022275Y0037083D02*
Y0036817D01*
X-0022075D01*
X-0022142Y003695D01*
Y0037016D01*
X-0022075Y0037083D01*
X-0021942D01*
X-0021875Y0037016D01*
Y0036883D01*
X-0021942Y0036817D01*
X-0017108Y0035883D02*
X-0017175Y0035817D01*
Y0035684D01*
X-0017108Y0035617D01*
X-0016842D01*
X-0016775Y0035684D01*
Y0035817D01*
X-0016842Y0035883D01*
X-0016775Y0036283D02*
Y0036017D01*
X-0017042Y0036283D01*
X-0017108D01*
X-0017175Y0036217D01*
Y0036083D01*
X-0017108Y0036017D01*
Y0036417D02*
X-0017175Y0036483D01*
Y0036617D01*
X-0017108Y0036683D01*
X-0016842D01*
X-0016775Y0036617D01*
Y0036483D01*
X-0016842Y0036417D01*
X-0017108D01*
Y0036817D02*
X-0017175Y0036883D01*
Y0037016D01*
X-0017108Y0037083D01*
X-0016842D01*
X-0016775Y0037016D01*
Y0036883D01*
X-0016842Y0036817D01*
X-0017108D01*
X0018333Y-0025733D02*
X00184Y-0025667D01*
Y-0025534D01*
X0018333Y-0025467D01*
X0018067D01*
X0018Y-0025534D01*
Y-0025667D01*
X0018067Y-0025733D01*
X0018Y-0026067D02*
X00184D01*
X00182Y-0025867D01*
Y-0026133D01*
X0018333Y-0026267D02*
X00184Y-0026333D01*
Y-0026467D01*
X0018333Y-0026533D01*
X0018067D01*
X0018Y-0026467D01*
Y-0026333D01*
X0018067Y-0026267D01*
X0018333D01*
X0018067Y-0026667D02*
X0018Y-0026733D01*
Y-0026866D01*
X0018067Y-0026933D01*
X0018333D01*
X00184Y-0026866D01*
Y-0026733D01*
X0018333Y-0026667D01*
X0018267D01*
X00182Y-0026733D01*
Y-0026933D01*
D117*
X00327Y-0009D02*
X00334D01*
Y-000935D01*
X0033283Y-0009467D01*
X003305D01*
X0032933Y-000935D01*
Y-0009D01*
Y-0009233D02*
X00327Y-0009467D01*
Y-001005D02*
X00334D01*
X003305Y-00097D01*
Y-0010166D01*
X0033283Y-00104D02*
X00334Y-0010516D01*
Y-0010749D01*
X0033283Y-0010866D01*
X0032817D01*
X00327Y-0010749D01*
Y-0010516D01*
X0032817Y-00104D01*
X0033283D01*
Y-0011099D02*
X00334Y-0011216D01*
Y-0011449D01*
X0033283Y-0011566D01*
X0032817D01*
X00327Y-0011449D01*
Y-0011216D01*
X0032817Y-0011099D01*
X0033283D01*
M02*
