G04*
G04 #@! TF.GenerationSoftware,Altium Limited,Altium Designer,21.8.1 (53)*
G04*
G04 Layer_Color=8388736*
%FSTAX43Y43*%
%MOMM*%
G71*
G04*
G04 #@! TF.SameCoordinates,6DCA0702-E8A1-45D8-905D-7E8CEDC4C78A*
G04*
G04*
G04 #@! TF.FilePolarity,Positive*
G04*
G01*
G75*
%ADD13C,0.150*%
%ADD107C,0.050*%
%ADD108C,0.254*%
D13*
X00223Y001488D02*
X0035D01*
X00223D02*
Y00225D01*
X0035Y001488D02*
Y00225D01*
X00223D02*
X0035D01*
X000435Y000765D02*
X00115D01*
Y001D01*
X000435Y000765D02*
Y001D01*
X00115D01*
X-0017154Y-001407D02*
X-0017321Y-0014237D01*
Y-001457D01*
X-0017154Y-0014737D01*
X-0016488D01*
X-0016321Y-001457D01*
Y-0014237D01*
X-0016488Y-001407D01*
X-0016321Y-001357D02*
Y-0013237D01*
X-0016488Y-0013071D01*
X-0016821D01*
X-0016988Y-0013237D01*
Y-001357D01*
X-0016821Y-0013737D01*
X-0016488D01*
X-0016321Y-001357D01*
Y-0012737D02*
X-0016988D01*
Y-0012238D01*
X-0016821Y-0012071D01*
X-0016321D01*
Y-0011738D02*
X-0016988D01*
Y-0011238D01*
X-0016821Y-0011071D01*
X-0016321D01*
Y-0010238D02*
Y-0010571D01*
X-0016488Y-0010738D01*
X-0016821D01*
X-0016988Y-0010571D01*
Y-0010238D01*
X-0016821Y-0010072D01*
X-0016655D01*
Y-0010738D01*
X-0016988Y-0009072D02*
Y-0009572D01*
X-0016821Y-0009738D01*
X-0016488D01*
X-0016321Y-0009572D01*
Y-0009072D01*
X-0017154Y-0008572D02*
X-0016988D01*
Y-0008739D01*
Y-0008405D01*
Y-0008572D01*
X-0016488D01*
X-0016321Y-0008405D01*
Y-0007739D02*
Y-0007406D01*
X-0016488Y-0007239D01*
X-0016821D01*
X-0016988Y-0007406D01*
Y-0007739D01*
X-0016821Y-0007906D01*
X-0016488D01*
X-0016321Y-0007739D01*
X-0016988Y-0006906D02*
X-0016321D01*
X-0016655D01*
X-0016821Y-0006739D01*
X-0016988Y-0006573D01*
Y-0006406D01*
Y-0005906D02*
Y-000574D01*
X-0016821D01*
Y-0005906D01*
X-0016988D01*
X-0016488D02*
Y-000574D01*
X-0016321D01*
Y-0005906D01*
X-0016488D01*
X-0017321Y-0004073D02*
X-0016321D01*
Y-0003574D01*
X-0016488Y-0003407D01*
X-0017154D01*
X-0017321Y-0003574D01*
Y-0004073D01*
Y-0002407D02*
Y-0003074D01*
X-0016821D01*
Y-0002741D01*
Y-0003074D01*
X-0016321D01*
Y-0001574D02*
X-0017321D01*
X-0016821Y-0002074D01*
Y-0001408D01*
X-0017154Y-0001074D02*
X-0017321Y-0000908D01*
Y-0000575D01*
X-0017154Y-0000408D01*
X-0016488D01*
X-0016321Y-0000575D01*
Y-0000908D01*
X-0016488Y-0001074D01*
X-0017154D01*
Y0000592D02*
X-0017321Y0000425D01*
Y0000092D01*
X-0017154Y-0000075D01*
X-0016488D01*
X-0016321Y0000092D01*
Y0000425D01*
X-0016488Y0000592D01*
X-0016821Y0000925D02*
Y0001591D01*
X-0016321Y0001925D02*
Y0002258D01*
Y0002091D01*
X-0017321D01*
X-0017154Y0001925D01*
Y0002758D02*
X-0017321Y0002924D01*
Y0003257D01*
X-0017154Y0003424D01*
X-0016488D01*
X-0016321Y0003257D01*
Y0002924D01*
X-0016488Y0002758D01*
X-0017154D01*
Y0003757D02*
X-0017321Y0003924D01*
Y0004257D01*
X-0017154Y0004424D01*
X-0016488D01*
X-0016321Y0004257D01*
Y0003924D01*
X-0016488Y0003757D01*
X-0017154D01*
X-0017321Y0004757D02*
X-0016321D01*
Y0005257D01*
X-0016488Y0005423D01*
X-0017154D01*
X-0017321Y0005257D01*
Y0004757D01*
X-0017154Y0006423D02*
X-0017321Y0006257D01*
Y0005923D01*
X-0017154Y0005757D01*
X-0016988D01*
X-0016821Y0005923D01*
Y0006257D01*
X-0016655Y0006423D01*
X-0016488D01*
X-0016321Y0006257D01*
Y0005923D01*
X-0016488Y0005757D01*
X-0016821Y0006756D02*
Y0007423D01*
X-0017154Y0007756D02*
X-0017321Y0007923D01*
Y0008256D01*
X-0017154Y0008422D01*
X-0016488D01*
X-0016321Y0008256D01*
Y0007923D01*
X-0016488Y0007756D01*
X-0017154D01*
X-0016321Y0008756D02*
X-0016488D01*
Y0008922D01*
X-0016321D01*
Y0008756D01*
Y0010089D02*
X-0017321D01*
X-0016821Y0009589D01*
Y0010255D01*
X-0016988Y0010588D02*
X-0016321Y0010922D01*
X-0016988Y0011255D01*
X-0015595Y-001407D02*
X-0015762Y-0014237D01*
Y-001457D01*
X-0015595Y-0014737D01*
X-0014928D01*
X-0014762Y-001457D01*
Y-0014237D01*
X-0014928Y-001407D01*
X-0014762Y-001357D02*
Y-0013237D01*
X-0014928Y-0013071D01*
X-0015262D01*
X-0015428Y-0013237D01*
Y-001357D01*
X-0015262Y-0013737D01*
X-0014928D01*
X-0014762Y-001357D01*
Y-0012737D02*
X-0015428D01*
Y-0012571D01*
X-0015262Y-0012404D01*
X-0014762D01*
X-0015262D01*
X-0015428Y-0012238D01*
X-0015262Y-0012071D01*
X-0014762D01*
X-0014429Y-0011738D02*
X-0015428D01*
Y-0011238D01*
X-0015262Y-0011071D01*
X-0014928D01*
X-0014762Y-0011238D01*
Y-0011738D01*
Y-0010571D02*
Y-0010238D01*
X-0014928Y-0010072D01*
X-0015262D01*
X-0015428Y-0010238D01*
Y-0010571D01*
X-0015262Y-0010738D01*
X-0014928D01*
X-0014762Y-0010571D01*
Y-0009738D02*
X-0015428D01*
Y-0009238D01*
X-0015262Y-0009072D01*
X-0014762D01*
Y-0008239D02*
Y-0008572D01*
X-0014928Y-0008739D01*
X-0015262D01*
X-0015428Y-0008572D01*
Y-0008239D01*
X-0015262Y-0008072D01*
X-0015095D01*
Y-0008739D01*
X-0014762Y-0007739D02*
X-0015428D01*
Y-0007239D01*
X-0015262Y-0007073D01*
X-0014762D01*
X-0015595Y-0006573D02*
X-0015428D01*
Y-0006739D01*
Y-0006406D01*
Y-0006573D01*
X-0014928D01*
X-0014762Y-0006406D01*
Y-0004907D02*
X-0015428D01*
Y-000474D01*
X-0015262Y-0004573D01*
X-0014762D01*
X-0015262D01*
X-0015428Y-0004407D01*
X-0015262Y-000424D01*
X-0014762D01*
X-0015428Y-000374D02*
Y-0003407D01*
X-0015262Y-000324D01*
X-0014762D01*
Y-000374D01*
X-0014928Y-0003907D01*
X-0015095Y-000374D01*
Y-000324D01*
X-0015428Y-0002907D02*
X-0014762Y-0002241D01*
X-0015095Y-0002574D01*
X-0015428Y-0002241D01*
X-0014762Y-0002907D01*
X-0015762Y-0000908D02*
X-0014762D01*
X-0015262D01*
X-0015428Y-0000741D01*
Y-0000408D01*
X-0015262Y-0000241D01*
X-0014762D01*
Y0000592D02*
Y0000258D01*
X-0014928Y0000092D01*
X-0015262D01*
X-0015428Y0000258D01*
Y0000592D01*
X-0015262Y0000758D01*
X-0015095D01*
Y0000092D01*
X-0014762Y0001092D02*
Y0001425D01*
Y0001258D01*
X-0015428D01*
Y0001092D01*
X-0014429Y0002258D02*
Y0002424D01*
X-0014595Y0002591D01*
X-0015428D01*
Y0002091D01*
X-0015262Y0001925D01*
X-0014928D01*
X-0014762Y0002091D01*
Y0002591D01*
X-0015762Y0002924D02*
X-0014762D01*
X-0015262D01*
X-0015428Y0003091D01*
Y0003424D01*
X-0015262Y0003591D01*
X-0014762D01*
X-0015595Y0004091D02*
X-0015428D01*
Y0003924D01*
Y0004257D01*
Y0004091D01*
X-0014928D01*
X-0014762Y0004257D01*
X-0015595Y0005757D02*
X-0015762Y0005923D01*
Y0006257D01*
X-0015595Y0006423D01*
X-0014928D01*
X-0014762Y0006257D01*
Y0005923D01*
X-0014928Y0005757D01*
X-0015595D01*
X-0014762Y0006756D02*
X-0015428D01*
Y0006923D01*
X-0015262Y000709D01*
X-0014762D01*
X-0015262D01*
X-0015428Y0007256D01*
X-0015262Y0007423D01*
X-0014762D01*
Y0007756D02*
X-0015428D01*
Y0007923D01*
X-0015262Y0008089D01*
X-0014762D01*
X-0015262D01*
X-0015428Y0008256D01*
X-0015262Y0008422D01*
X-0014762D01*
X-0012142Y-001407D02*
X-0012309Y-0014237D01*
Y-001457D01*
X-0012142Y-0014737D01*
X-0011476D01*
X-0011309Y-001457D01*
Y-0014237D01*
X-0011476Y-001407D01*
X-0011309Y-001357D02*
Y-0013237D01*
X-0011476Y-0013071D01*
X-0011809D01*
X-0011976Y-0013237D01*
Y-001357D01*
X-0011809Y-0013737D01*
X-0011476D01*
X-0011309Y-001357D01*
Y-0012737D02*
X-0011976D01*
Y-0012238D01*
X-0011809Y-0012071D01*
X-0011309D01*
Y-0011738D02*
X-0011976D01*
Y-0011238D01*
X-0011809Y-0011071D01*
X-0011309D01*
Y-0010238D02*
Y-0010571D01*
X-0011476Y-0010738D01*
X-0011809D01*
X-0011976Y-0010571D01*
Y-0010238D01*
X-0011809Y-0010072D01*
X-0011643D01*
Y-0010738D01*
X-0011976Y-0009072D02*
Y-0009572D01*
X-0011809Y-0009738D01*
X-0011476D01*
X-0011309Y-0009572D01*
Y-0009072D01*
X-0012142Y-0008572D02*
X-0011976D01*
Y-0008739D01*
Y-0008405D01*
Y-0008572D01*
X-0011476D01*
X-0011309Y-0008405D01*
Y-0007739D02*
Y-0007406D01*
X-0011476Y-0007239D01*
X-0011809D01*
X-0011976Y-0007406D01*
Y-0007739D01*
X-0011809Y-0007906D01*
X-0011476D01*
X-0011309Y-0007739D01*
X-0011976Y-0006906D02*
X-0011309D01*
X-0011643D01*
X-0011809Y-0006739D01*
X-0011976Y-0006573D01*
Y-0006406D01*
Y-0005906D02*
Y-000574D01*
X-0011809D01*
Y-0005906D01*
X-0011976D01*
X-0011476D02*
Y-000574D01*
X-0011309D01*
Y-0005906D01*
X-0011476D01*
X-0012309Y-0004073D02*
X-0011309D01*
Y-0003574D01*
X-0011476Y-0003407D01*
X-0012142D01*
X-0012309Y-0003574D01*
Y-0004073D01*
Y-0002407D02*
Y-0003074D01*
X-0011809D01*
Y-0002741D01*
Y-0003074D01*
X-0011309D01*
Y-0001574D02*
X-0012309D01*
X-0011809Y-0002074D01*
Y-0001408D01*
X-0012142Y-0001074D02*
X-0012309Y-0000908D01*
Y-0000575D01*
X-0012142Y-0000408D01*
X-0011476D01*
X-0011309Y-0000575D01*
Y-0000908D01*
X-0011476Y-0001074D01*
X-0012142D01*
X-0012309Y-0000075D02*
X-0011309D01*
X-0011809D01*
Y0000592D01*
X-0012309D01*
X-0011309D01*
X-0012142Y0001591D02*
X-0012309Y0001425D01*
Y0001092D01*
X-0012142Y0000925D01*
X-0011476D01*
X-0011309Y0001092D01*
Y0001425D01*
X-0011476Y0001591D01*
X-0011309Y0002258D02*
X-0011643Y0001925D01*
X-0011976D01*
X-0012309Y0002258D01*
X-0012142Y0002758D02*
X-0012309Y0002924D01*
Y0003257D01*
X-0012142Y0003424D01*
X-0011976D01*
X-0011809Y0003257D01*
Y0003091D01*
Y0003257D01*
X-0011643Y0003424D01*
X-0011476D01*
X-0011309Y0003257D01*
Y0002924D01*
X-0011476Y0002758D01*
X-0011309Y0003757D02*
X-0011476D01*
Y0003924D01*
X-0011309D01*
Y0003757D01*
X-0012142Y000459D02*
X-0012309Y0004757D01*
Y000509D01*
X-0012142Y0005257D01*
X-0011476D01*
X-0011309Y000509D01*
Y0004757D01*
X-0011476Y000459D01*
X-0012142D01*
X-0011309Y000559D02*
X-0011643Y0005923D01*
X-0011976D01*
X-0012309Y000559D01*
X-0011809Y0006423D02*
Y000709D01*
X-0011309Y0007423D02*
Y0007756D01*
Y0007589D01*
X-0012309D01*
X-0012142Y0007423D01*
Y0008256D02*
X-0012309Y0008422D01*
Y0008756D01*
X-0012142Y0008922D01*
X-0011476D01*
X-0011309Y0008756D01*
Y0008422D01*
X-0011476Y0008256D01*
X-0012142D01*
Y0009256D02*
X-0012309Y0009422D01*
Y0009755D01*
X-0012142Y0009922D01*
X-0011476D01*
X-0011309Y0009755D01*
Y0009422D01*
X-0011476Y0009256D01*
X-0012142D01*
X-0012309Y0010255D02*
X-0011309D01*
Y0010755D01*
X-0011476Y0010922D01*
X-0012142D01*
X-0012309Y0010755D01*
Y0010255D01*
X-0012142Y0011921D02*
X-0012309Y0011755D01*
Y0011422D01*
X-0012142Y0011255D01*
X-0011976D01*
X-0011809Y0011422D01*
Y0011755D01*
X-0011643Y0011921D01*
X-0011476D01*
X-0011309Y0011755D01*
Y0011422D01*
X-0011476Y0011255D01*
X-0011809Y0012255D02*
Y0012921D01*
X-0012142Y0013254D02*
X-0012309Y0013421D01*
Y0013754D01*
X-0012142Y0013921D01*
X-0011476D01*
X-0011309Y0013754D01*
Y0013421D01*
X-0011476Y0013254D01*
X-0012142D01*
X-0011309Y0014254D02*
X-0011476D01*
Y0014421D01*
X-0011309D01*
Y0014254D01*
Y0015587D02*
X-0012309D01*
X-0011809Y0015087D01*
Y0015753D01*
X-0011976Y0016087D02*
X-0011309Y001642D01*
X-0011976Y0016753D01*
X-0010583Y-001407D02*
X-0010749Y-0014237D01*
Y-001457D01*
X-0010583Y-0014737D01*
X-0009916D01*
X-000975Y-001457D01*
Y-0014237D01*
X-0009916Y-001407D01*
X-000975Y-001357D02*
Y-0013237D01*
X-0009916Y-0013071D01*
X-001025D01*
X-0010416Y-0013237D01*
Y-001357D01*
X-001025Y-0013737D01*
X-0009916D01*
X-000975Y-001357D01*
Y-0012737D02*
X-0010416D01*
Y-0012571D01*
X-001025Y-0012404D01*
X-000975D01*
X-001025D01*
X-0010416Y-0012238D01*
X-001025Y-0012071D01*
X-000975D01*
X-0009417Y-0011738D02*
X-0010416D01*
Y-0011238D01*
X-001025Y-0011071D01*
X-0009916D01*
X-000975Y-0011238D01*
Y-0011738D01*
Y-0010571D02*
Y-0010238D01*
X-0009916Y-0010072D01*
X-001025D01*
X-0010416Y-0010238D01*
Y-0010571D01*
X-001025Y-0010738D01*
X-0009916D01*
X-000975Y-0010571D01*
Y-0009738D02*
X-0010416D01*
Y-0009238D01*
X-001025Y-0009072D01*
X-000975D01*
Y-0008239D02*
Y-0008572D01*
X-0009916Y-0008739D01*
X-001025D01*
X-0010416Y-0008572D01*
Y-0008239D01*
X-001025Y-0008072D01*
X-0010083D01*
Y-0008739D01*
X-000975Y-0007739D02*
X-0010416D01*
Y-0007239D01*
X-001025Y-0007073D01*
X-000975D01*
X-0010583Y-0006573D02*
X-0010416D01*
Y-0006739D01*
Y-0006406D01*
Y-0006573D01*
X-0009916D01*
X-000975Y-0006406D01*
Y-0004907D02*
X-0010416D01*
Y-000474D01*
X-001025Y-0004573D01*
X-000975D01*
X-001025D01*
X-0010416Y-0004407D01*
X-001025Y-000424D01*
X-000975D01*
X-0010416Y-000374D02*
Y-0003407D01*
X-001025Y-000324D01*
X-000975D01*
Y-000374D01*
X-0009916Y-0003907D01*
X-0010083Y-000374D01*
Y-000324D01*
X-0010416Y-0002907D02*
X-000975Y-0002241D01*
X-0010083Y-0002574D01*
X-0010416Y-0002241D01*
X-000975Y-0002907D01*
X-0010749Y-0000908D02*
X-000975D01*
X-001025D01*
X-0010416Y-0000741D01*
Y-0000408D01*
X-001025Y-0000241D01*
X-000975D01*
Y0000592D02*
Y0000258D01*
X-0009916Y0000092D01*
X-001025D01*
X-0010416Y0000258D01*
Y0000592D01*
X-001025Y0000758D01*
X-0010083D01*
Y0000092D01*
X-000975Y0001092D02*
Y0001425D01*
Y0001258D01*
X-0010416D01*
Y0001092D01*
X-0009417Y0002258D02*
Y0002424D01*
X-0009583Y0002591D01*
X-0010416D01*
Y0002091D01*
X-001025Y0001925D01*
X-0009916D01*
X-000975Y0002091D01*
Y0002591D01*
X-0010749Y0002924D02*
X-000975D01*
X-001025D01*
X-0010416Y0003091D01*
Y0003424D01*
X-001025Y0003591D01*
X-000975D01*
X-0010583Y0004091D02*
X-0010416D01*
Y0003924D01*
Y0004257D01*
Y0004091D01*
X-0009916D01*
X-000975Y0004257D01*
Y0005757D02*
Y000609D01*
Y0005923D01*
X-0010749D01*
X-0010583Y0005757D01*
X-000975Y000659D02*
X-0009916D01*
Y0006756D01*
X-000975D01*
Y000659D01*
X-0010749Y0008089D02*
Y0007423D01*
X-001025D01*
X-0010416Y0007756D01*
Y0007923D01*
X-001025Y0008089D01*
X-0009916D01*
X-000975Y0007923D01*
Y0007589D01*
X-0009916Y0007423D01*
X-000975Y0008422D02*
X-0010416D01*
Y0008589D01*
X-001025Y0008756D01*
X-000975D01*
X-001025D01*
X-0010416Y0008922D01*
X-001025Y0009089D01*
X-000975D01*
Y0009422D02*
X-0010416D01*
Y0009589D01*
X-001025Y0009755D01*
X-000975D01*
X-001025D01*
X-0010416Y0009922D01*
X-001025Y0010089D01*
X-000975D01*
X-0005676Y-0025749D02*
X-0006676D01*
X-0006343Y-0025416D01*
X-0006676Y-0025083D01*
X-0005676D01*
Y-0024083D02*
Y-002475D01*
X-0006343Y-0024083D01*
X-0006509D01*
X-0006676Y-002425D01*
Y-0024583D01*
X-0006509Y-002475D01*
X-0005676Y-002375D02*
X-0005843D01*
Y-0023583D01*
X-0005676D01*
Y-002375D01*
X-0006676Y-0022251D02*
Y-0022917D01*
X-0006176D01*
X-0006343Y-0022584D01*
Y-0022417D01*
X-0006176Y-0022251D01*
X-0005843D01*
X-0005676Y-0022417D01*
Y-002275D01*
X-0005843Y-0022917D01*
X-000445Y-0026832D02*
Y-0026333D01*
X-0004617Y-0026166D01*
X-0004783Y-0026333D01*
Y-0026666D01*
X-000495Y-0026832D01*
X-0005116Y-0026666D01*
Y-0026166D01*
Y-0025166D02*
Y-0025666D01*
X-000495Y-0025833D01*
X-0004617D01*
X-000445Y-0025666D01*
Y-0025166D01*
X-0005116Y-0024833D02*
X-000445D01*
X-0004783D01*
X-000495Y-0024666D01*
X-0005116Y-00245D01*
Y-0024333D01*
X-000445Y-0023334D02*
Y-0023667D01*
X-0004617Y-0023833D01*
X-000495D01*
X-0005116Y-0023667D01*
Y-0023334D01*
X-000495Y-0023167D01*
X-0004783D01*
Y-0023833D01*
X-0005116Y-0022834D02*
X-0004617D01*
X-000445Y-0022667D01*
X-0004617Y-00225D01*
X-000445Y-0022334D01*
X-0004617Y-0022167D01*
X-0005116D01*
X-000445Y-0021834D02*
Y-0021334D01*
X-0004617Y-0021168D01*
X-0004783Y-0021334D01*
Y-0021667D01*
X-000495Y-0021834D01*
X-0005116Y-0021667D01*
Y-0021168D01*
D107*
X-003155Y-0024D02*
G03*
X-003155Y-0024I-000275J0D01*
G01*
Y0024D02*
G03*
X-003155Y0024I-000275J0D01*
G01*
X000145D02*
G03*
X000145Y0024I-000275J0D01*
G01*
Y-0024D02*
G03*
X000145Y-0024I-000275J0D01*
G01*
X-00013Y0008D02*
G03*
X-00013Y0008I-00005J0D01*
G01*
X-00353D02*
G03*
X-00353Y0008I-00005J0D01*
G01*
X-0035233Y00275D02*
G03*
X-00378Y0024933I0J-0002567D01*
G01*
X-00378Y-0024934D02*
G03*
X-0035233Y-0027501I0002567J0D01*
G01*
X-0000367Y-0027499D02*
G03*
X00022Y-0024932I0J0002567D01*
G01*
X0002199Y0024933D02*
G03*
X-0000368Y00275I-0002567J0D01*
G01*
X-00378Y-0024934D02*
Y0024933D01*
X-0035233Y-00275D02*
X-0000367D01*
X-0035233Y00275D02*
X-0000368Y00275D01*
X00022Y-0024932D02*
Y0024933D01*
X-003685Y-001395D02*
X-003275D01*
Y000895D01*
X-003685D02*
X-003275D01*
X-003685Y-001395D02*
Y000895D01*
X-000285Y-001395D02*
Y000895D01*
X000125D01*
Y-001395D02*
Y000895D01*
X-000285Y-001395D02*
X000125D01*
X-00168Y-00275D02*
Y-0021D01*
X-00278D02*
X-00168D01*
X-00278Y-00275D02*
Y-0021D01*
Y-00275D02*
X-00168D01*
D108*
X-0021288Y-000419D02*
X-0022304D01*
X-0022812Y-0003682D01*
X-0022304Y-0003174D01*
X-0021288D01*
X-002205D01*
Y-000419D01*
X-0022558Y-000165D02*
X-0022812Y-0001904D01*
Y-0002412D01*
X-0022558Y-0002666D01*
X-0022304D01*
X-002205Y-0002412D01*
Y-0001904D01*
X-0021796Y-000165D01*
X-0021542D01*
X-0021288Y-0001904D01*
Y-0002412D01*
X-0021542Y-0002666D01*
X-0021288Y-0001143D02*
X-0022812D01*
X-0022304Y-0000635D01*
X-0022812Y-0000127D01*
X-0021288D01*
Y0000381D02*
Y0000889D01*
Y0000635D01*
X-0022812D01*
X-0022558Y0000381D01*
Y000165D02*
X-0022812Y0001904D01*
Y0002412D01*
X-0022558Y0002666D01*
X-0021542D01*
X-0021288Y0002412D01*
Y0001904D01*
X-0021542Y000165D01*
X-0022558D01*
Y0003174D02*
X-0022812Y0003428D01*
Y0003936D01*
X-0022558Y000419D01*
X-0021542D01*
X-0021288Y0003936D01*
Y0003428D01*
X-0021542Y0003174D01*
X-0022558D01*
M02*
