G04*
G04 #@! TF.GenerationSoftware,Altium Limited,Altium Designer,21.8.1 (53)*
G04*
G04 Layer_Color=32896*
%FSTAX43Y43*%
%MOMM*%
G71*
G04*
G04 #@! TF.SameCoordinates,6DCA0702-E8A1-45D8-905D-7E8CEDC4C78A*
G04*
G04*
G04 #@! TF.FilePolarity,Positive*
G04*
G01*
G75*
%ADD13C,0.150*%
%ADD14C,0.100*%
%ADD107C,0.050*%
%ADD112C,0.040*%
%ADD114C,0.080*%
%ADD116C,0.070*%
D13*
X-0003575Y0000866D02*
Y0001133D01*
Y0001D01*
X-0002908D01*
X-0002775Y0001133D01*
Y0001266D01*
X-0002908Y00014D01*
X-0002775Y00006D02*
Y0000333D01*
Y0000467D01*
X-0003575D01*
X-0003442Y00006D01*
Y-0000067D02*
X-0003575Y-00002D01*
Y-0000467D01*
X-0003442Y-00006D01*
X-0002908D01*
X-0002775Y-0000467D01*
Y-00002D01*
X-0002908Y-0000067D01*
X-0003442D01*
X-0002775Y-00014D02*
Y-0000866D01*
X-0003308Y-00014D01*
X-0003442D01*
X-0003575Y-0001266D01*
Y-0001D01*
X-0003442Y-0000866D01*
D14*
X-0041241Y-00003D02*
Y00003D01*
X-004144Y00001D01*
X-004164Y00003D01*
Y-00003D01*
X-004184Y00003D02*
X-004204D01*
X-004194D01*
Y-00003D01*
X-004184D01*
X-004204D01*
X-004274Y00002D02*
X-004264Y00003D01*
X-004244D01*
X-004234Y00002D01*
Y-00002D01*
X-004244Y-00003D01*
X-004264D01*
X-004274Y-00002D01*
X-004334Y-00003D02*
X-004294D01*
X-004334Y00001D01*
Y00002D01*
X-004324Y00003D01*
X-004304D01*
X-004294Y00002D01*
X-004354D02*
X-004364Y00003D01*
X-004384D01*
X-004394Y00002D01*
Y-00002D01*
X-004384Y-00003D01*
X-004364D01*
X-004354Y-00002D01*
Y00002D01*
X-004414Y-00003D02*
X-004434D01*
X-004424D01*
Y00003D01*
X-004414Y00002D01*
X002083Y-0035479D02*
X002031Y-0035779D01*
X0020584Y-0035852D01*
X002051Y-0036125D01*
X002103Y-0035825D01*
X002061Y-0036298D02*
X002071Y-0036471D01*
X002066Y-0036385D01*
X002118Y-0036085D01*
X002113Y-0035998D01*
X002123Y-0036171D01*
X0021147Y-0037027D02*
X002101Y-0036991D01*
X002091Y-0036818D01*
X0020947Y-0036681D01*
X0021293Y-0036481D01*
X002143Y-0036518D01*
X002153Y-0036691D01*
X0021493Y-0036827D01*
X002188Y-0037297D02*
X002168Y-003695D01*
X0021533Y-0037497D01*
X0021447Y-0037547D01*
X002131Y-003751D01*
X002121Y-0037337D01*
X0021247Y-00372D01*
X0021547Y-003772D02*
X002151Y-0037856D01*
X002161Y-003803D01*
X0021747Y-0038066D01*
X0022093Y-0037866D01*
X002213Y-003773D01*
X002203Y-0037557D01*
X0021893Y-003752D01*
X0021547Y-003772D01*
X0022479Y-0038336D02*
X0022279Y-0037989D01*
X0022133Y-0038536D01*
X0022047Y-0038586D01*
X002191Y-0038549D01*
X002181Y-0038376D01*
X0021847Y-0038239D01*
X0020308Y003578D02*
X0020827Y003548D01*
X0020754Y0035753D01*
X0021027Y0035827D01*
X0020508Y0036127D01*
X0021127Y0036D02*
X0021227Y0036173D01*
X0021177Y0036086D01*
X0020658Y0036386D01*
X0020608Y00363D01*
X0020708Y0036473D01*
X002149Y0036829D02*
X0021527Y0036692D01*
X0021427Y0036519D01*
X002129Y0036483D01*
X0020944Y0036683D01*
X0020908Y0036819D01*
X0021008Y0036992D01*
X0021144Y0037029D01*
X0021357Y0037598D02*
X0021157Y0037252D01*
X0021704Y0037398D01*
X002179Y0037348D01*
X0021827Y0037212D01*
X0021727Y0037039D01*
X002159Y0037002D01*
X002189Y0037522D02*
X0022027Y0037558D01*
X0022127Y0037731D01*
X002209Y0037868D01*
X0021744Y0038068D01*
X0021607Y0038031D01*
X0021507Y0037858D01*
X0021544Y0037721D01*
X002189Y0037522D01*
X002219Y0038041D02*
X0022327Y0038078D01*
X0022427Y0038251D01*
X002239Y0038387D01*
X0022044Y0038587D01*
X0021907Y0038551D01*
X0021807Y0038377D01*
X0021844Y0038241D01*
X002219Y0038041D01*
D107*
X-0002025Y0003325D02*
G03*
X-0002025Y0003325I-00002J0D01*
G01*
X0011375Y0031825D02*
X0012825D01*
X0011375D02*
Y0034025D01*
X0012825D01*
Y0031825D02*
Y0034025D01*
X-004459Y0001375D02*
X-004459Y-0001375D01*
X-004459Y0001375D02*
X-004099Y0001375D01*
X-004459Y-0001375D02*
X-004099Y-0001375D01*
X-004099Y0001375D02*
X-004099Y-0001375D01*
X0019205Y-0034826D02*
X002072Y-0033951D01*
X0019205Y-0034826D02*
X001968Y-0035649D01*
X0021195Y-0034774D01*
X002072Y-0033951D02*
X0021195Y-0034774D01*
X-0004275Y-0004825D02*
X-0002075D01*
X-0004275D02*
Y0004825D01*
X-0002075Y-0004825D02*
Y0004825D01*
X-0004275D02*
X-0002075D01*
X0019301Y0036187D02*
X0021683Y0034812D01*
X0019301Y0036187D02*
X0021101Y0039305D01*
X0021683Y0034812D02*
X0023483Y003793D01*
X0021101Y0039305D02*
X0023483Y003793D01*
X0013175Y0034525D02*
Y0035475D01*
X0011425Y0034525D02*
X0013175D01*
X0011425D02*
Y0035475D01*
X0013175D01*
X0011025Y0031825D02*
Y0034025D01*
X0009575D02*
X0011025D01*
X0009575Y0031825D02*
Y0034025D01*
Y0031825D02*
X0011025D01*
X0013925Y0034525D02*
Y0035475D01*
X0015675D01*
Y0034525D02*
Y0035475D01*
X0013925Y0034525D02*
X0015675D01*
X0018175D02*
Y0035475D01*
X0016425Y0034525D02*
X0018175D01*
X0016425D02*
Y0035475D01*
X0018175D01*
X0008925Y0034525D02*
Y0035475D01*
X0010675D01*
Y0034525D02*
Y0035475D01*
X0008925Y0034525D02*
X0010675D01*
X0018425Y0031825D02*
Y0034025D01*
X0016975D02*
X0018425D01*
X0016975Y0031825D02*
Y0034025D01*
Y0031825D02*
X0018425D01*
X0015175Y0031825D02*
X0016625D01*
X0015175D02*
Y0034025D01*
X0016625D01*
Y0031825D02*
Y0034025D01*
X-0027725Y000115D02*
Y000225D01*
Y000115D02*
X-0027125D01*
Y000225D01*
X-0027725D02*
X-0027125D01*
X0002001Y002965D02*
X0002601D01*
Y002855D02*
Y002965D01*
X0002001Y002855D02*
X0002601D01*
X0002001D02*
Y002965D01*
X-0001801D02*
X-0001201D01*
Y002855D02*
Y002965D01*
X-0001801Y002855D02*
X-0001201D01*
X-0001801D02*
Y002965D01*
X002052Y0034051D02*
X0020995Y0034874D01*
X0019005Y0034926D02*
X002052Y0034051D01*
X0019005Y0034926D02*
X001948Y0035749D01*
X0020995Y0034874D01*
X-0041325Y-0002775D02*
Y-0001825D01*
X-0043075Y-0002775D02*
X-0041325D01*
X-0043075D02*
Y-0001825D01*
X-0041325D01*
X-000085Y002965D02*
X-000025Y002965D01*
Y002855D02*
Y002965D01*
X-000085Y002855D02*
X-000025D01*
X-000085D02*
X-000085Y002965D01*
X000105Y002965D02*
X000165D01*
Y002855D02*
Y002965D01*
X000105Y002855D02*
X000165D01*
X000105D02*
Y002965D01*
X00001Y002965D02*
X00007D01*
X00007Y002855D02*
X00007Y002965D01*
X00001Y002855D02*
X00007D01*
X00001D02*
X00001Y002965D01*
X-0031775Y0005125D02*
Y0005725D01*
X-0030675D01*
Y0005125D02*
Y0005725D01*
X-0031775Y0005125D02*
X-0030675D01*
X-004305Y0001725D02*
X-004195D01*
X-004195Y0002325D01*
X-004305D02*
X-004195D01*
X-004305D02*
X-004305Y0001725D01*
X-0007375Y-0002025D02*
X-0006275D01*
Y-0001425D01*
X-0007375D02*
X-0006275D01*
X-0007375Y-0002025D02*
Y-0001425D01*
Y-0001075D02*
X-0006275D01*
Y-0000475D01*
X-0007375D02*
X-0006275D01*
X-0007375Y-0001075D02*
Y-0000475D01*
X-001425Y-00168D02*
X-00133D01*
Y-001855D02*
Y-00168D01*
X-001425Y-001855D02*
X-00133D01*
X-001425D02*
Y-00168D01*
X-001555D02*
X-00146D01*
Y-001855D02*
Y-00168D01*
X-001555Y-001855D02*
X-00146D01*
X-001555D02*
Y-00168D01*
X-0012949D02*
X-0011999D01*
Y-001855D02*
Y-00168D01*
X-0012949Y-001855D02*
X-0011999D01*
X-0012949D02*
Y-00168D01*
X-0011649D02*
X-0010699D01*
Y-001855D02*
Y-00168D01*
X-0011649Y-001855D02*
X-0010699D01*
X-0011649D02*
Y-00168D01*
X0022615Y0035826D02*
X0023135Y0035526D01*
X0022585Y0034574D02*
X0023135Y0035526D01*
X0022065Y0034874D02*
X0022585Y0034574D01*
X0022065Y0034874D02*
X0022615Y0035826D01*
X0018665Y-0036874D02*
X0019215Y-0037826D01*
X0019735Y-0037526D01*
X0019185Y-0036574D02*
X0019735Y-0037526D01*
X0018665Y-0036874D02*
X0019185Y-0036574D01*
X0021104Y-0039304D02*
X0023486Y-0037929D01*
X0019304Y-0036186D02*
X0021104Y-0039304D01*
X0021686Y-0034811D02*
X0023486Y-0037929D01*
X0019304Y-0036186D02*
X0021686Y-0034811D01*
D112*
X-0000425Y0029537D02*
X-0000675D01*
Y0029412D01*
X-0000634Y0029371D01*
X-000055D01*
X-0000509Y0029412D01*
Y0029537D01*
Y0029454D02*
X-0000425Y0029371D01*
Y0029121D02*
Y0029287D01*
X-0000592Y0029121D01*
X-0000634D01*
X-0000675Y0029162D01*
Y0029246D01*
X-0000634Y0029287D01*
X-0000425Y0029038D02*
Y0028954D01*
Y0028996D01*
X-0000675D01*
X-0000634Y0029038D01*
X-0000425Y0028704D02*
X-0000675D01*
X-000055Y0028829D01*
Y0028663D01*
X000145Y002955D02*
X00012D01*
Y0029425D01*
X0001242Y0029383D01*
X0001325D01*
X0001367Y0029425D01*
Y002955D01*
Y0029467D02*
X000145Y0029383D01*
Y0029133D02*
Y00293D01*
X0001284Y0029133D01*
X0001242D01*
X00012Y0029175D01*
Y0029258D01*
X0001242Y00293D01*
X000145Y002905D02*
Y0028967D01*
Y0029009D01*
X00012D01*
X0001242Y002905D01*
X00012Y0028675D02*
X0001242Y0028759D01*
X0001325Y0028842D01*
X0001409D01*
X000145Y00288D01*
Y0028717D01*
X0001409Y0028675D01*
X0001367D01*
X0001325Y0028717D01*
Y0028842D01*
X0018965Y-0037009D02*
X0018908Y-0036993D01*
X0018866Y-0036921D01*
X0018881Y-0036864D01*
X0019026Y-0036781D01*
X0019082Y-0036796D01*
X0019124Y-0036869D01*
X0019109Y-0036925D01*
X001927Y-0037121D02*
X0019187Y-0036977D01*
X0019126Y-0037204D01*
X001909Y-0037225D01*
X0019033Y-003721D01*
X0018991Y-0037138D01*
X0019006Y-0037081D01*
X0019395Y-0037337D02*
X0019312Y-0037193D01*
X0019251Y-0037421D01*
X0019214Y-0037442D01*
X0019158Y-0037426D01*
X0019116Y-0037354D01*
X0019131Y-0037297D01*
X00194Y-003743D02*
X0019457Y-0037446D01*
X0019499Y-0037518D01*
X0019484Y-0037575D01*
X0019339Y-0037658D01*
X0019283Y-0037643D01*
X0019241Y-0037571D01*
X0019256Y-0037514D01*
X0019292Y-0037493D01*
X0019349Y-0037508D01*
X0019412Y-0037616D01*
X-0042783Y0001917D02*
X-0042825Y0001875D01*
X-0042908D01*
X-004295Y0001917D01*
Y0002084D01*
X-0042908Y0002125D01*
X-0042825D01*
X-0042783Y0002084D01*
X-0042533Y0002125D02*
X-00427D01*
X-0042533Y0001959D01*
Y0001917D01*
X-0042575Y0001875D01*
X-0042658D01*
X-00427Y0001917D01*
X-0042284Y0002125D02*
X-004245D01*
X-0042284Y0001959D01*
Y0001917D01*
X-0042325Y0001875D01*
X-0042409D01*
X-004245Y0001917D01*
X-00422D02*
X-0042159Y0001875D01*
X-0042075D01*
X-0042034Y0001917D01*
Y0001959D01*
X-0042075Y0002D01*
X-0042034Y0002042D01*
Y0002084D01*
X-0042075Y0002125D01*
X-0042159D01*
X-00422Y0002084D01*
Y0002042D01*
X-0042159Y0002D01*
X-00422Y0001959D01*
Y0001917D01*
X-0042159Y0002D02*
X-0042075D01*
X0022648Y00355D02*
X0022633Y0035556D01*
X0022674Y0035629D01*
X0022731Y0035644D01*
X0022876Y0035561D01*
X0022891Y0035504D01*
X0022849Y0035431D01*
X0022792Y0035416D01*
X0022703Y0035179D02*
X0022787Y0035323D01*
X0022559Y0035262D01*
X0022523Y0035283D01*
X0022508Y003534D01*
X0022549Y0035412D01*
X0022606Y0035427D01*
X0022578Y0034963D02*
X0022662Y0035107D01*
X0022434Y0035046D01*
X0022398Y0035067D01*
X0022383Y0035124D01*
X0022424Y0035196D01*
X0022481Y0035211D01*
X0022237Y0034871D02*
X002232Y0035015D01*
X0022428Y0034953D01*
X0022351Y0034902D01*
X002233Y0034865D01*
X0022345Y0034809D01*
X0022417Y0034767D01*
X0022474Y0034782D01*
X0022516Y0034854D01*
X0022501Y0034911D01*
X-0027533Y0001983D02*
X-0027575Y0002025D01*
Y0002108D01*
X-0027533Y000215D01*
X-0027367D01*
X-0027325Y0002108D01*
Y0002025D01*
X-0027367Y0001983D01*
X-0027325Y00019D02*
Y0001817D01*
Y0001858D01*
X-0027575D01*
X-0027533Y00019D01*
Y0001692D02*
X-0027575Y000165D01*
Y0001567D01*
X-0027533Y0001525D01*
X-0027367D01*
X-0027325Y0001567D01*
Y000165D01*
X-0027367Y0001692D01*
X-0027533D01*
Y0001442D02*
X-0027575Y00014D01*
Y0001317D01*
X-0027533Y0001275D01*
X-0027367D01*
X-0027325Y0001317D01*
Y00014D01*
X-0027367Y0001442D01*
X-0027533D01*
X0002401Y002955D02*
X0002151D01*
Y0029425D01*
X0002192Y0029383D01*
X0002276D01*
X0002317Y0029425D01*
Y002955D01*
Y0029467D02*
X0002401Y0029383D01*
Y0029133D02*
Y00293D01*
X0002234Y0029133D01*
X0002192D01*
X0002151Y0029175D01*
Y0029258D01*
X0002192Y00293D01*
X0002401Y002905D02*
Y0028967D01*
Y0029009D01*
X0002151D01*
X0002192Y002905D01*
X0002151Y0028842D02*
Y0028675D01*
X0002192D01*
X0002359Y0028842D01*
X0002401D01*
X-0001401Y002955D02*
X-000165D01*
Y0029425D01*
X-0001609Y0029383D01*
X-0001525D01*
X-0001484Y0029425D01*
Y002955D01*
Y0029467D02*
X-0001401Y0029383D01*
Y0029133D02*
Y00293D01*
X-0001567Y0029133D01*
X-0001609D01*
X-000165Y0029175D01*
Y0029258D01*
X-0001609Y00293D01*
Y002905D02*
X-000165Y0029009D01*
Y0028925D01*
X-0001609Y0028884D01*
X-0001442D01*
X-0001401Y0028925D01*
Y0029009D01*
X-0001442Y002905D01*
X-0001609D01*
X-0001442Y00288D02*
X-0001401Y0028759D01*
Y0028675D01*
X-0001442Y0028634D01*
X-0001609D01*
X-000165Y0028675D01*
Y0028759D01*
X-0001609Y00288D01*
X-0001567D01*
X-0001525Y0028759D01*
Y0028634D01*
X00005Y002955D02*
X000025D01*
Y0029425D01*
X0000292Y0029383D01*
X0000375D01*
X0000417Y0029425D01*
Y002955D01*
Y0029467D02*
X00005Y0029383D01*
Y0029133D02*
Y00293D01*
X0000333Y0029133D01*
X0000292D01*
X000025Y0029175D01*
Y0029258D01*
X0000292Y00293D01*
X00005Y002905D02*
Y0028967D01*
Y0029009D01*
X000025D01*
X0000292Y002905D01*
X000025Y0028675D02*
Y0028842D01*
X0000375D01*
X0000333Y0028759D01*
Y0028717D01*
X0000375Y0028675D01*
X0000458D01*
X00005Y0028717D01*
Y00288D01*
X0000458Y0028842D01*
X-0031508Y0005317D02*
X-003155Y0005275D01*
X-0031633D01*
X-0031675Y0005317D01*
Y0005483D01*
X-0031633Y0005525D01*
X-003155D01*
X-0031508Y0005483D01*
X-0031425Y0005525D02*
X-0031342D01*
X-0031383D01*
Y0005275D01*
X-0031425Y0005317D01*
X-0031217D02*
X-0031175Y0005275D01*
X-0031092D01*
X-003105Y0005317D01*
Y0005483D01*
X-0031092Y0005525D01*
X-0031175D01*
X-0031217Y0005483D01*
Y0005317D01*
X-0030967Y0005525D02*
X-0030884D01*
X-0030925D01*
Y0005275D01*
X-0030967Y0005317D01*
X-0007108Y-0001834D02*
X-000715Y-0001875D01*
X-0007233D01*
X-0007275Y-0001834D01*
Y-0001667D01*
X-0007233Y-0001625D01*
X-000715D01*
X-0007108Y-0001667D01*
X-0007025Y-0001625D02*
X-0006942D01*
X-0006983D01*
Y-0001875D01*
X-0007025Y-0001834D01*
X-0006817D02*
X-0006775Y-0001875D01*
X-0006692D01*
X-000665Y-0001834D01*
Y-0001667D01*
X-0006692Y-0001625D01*
X-0006775D01*
X-0006817Y-0001667D01*
Y-0001834D01*
X-0006567Y-0001875D02*
X-00064D01*
Y-0001834D01*
X-0006567Y-0001667D01*
Y-0001625D01*
X-0007108Y-0000883D02*
X-000715Y-0000925D01*
X-0007233D01*
X-0007275Y-0000883D01*
Y-0000717D01*
X-0007233Y-0000675D01*
X-000715D01*
X-0007108Y-0000717D01*
X-0007025Y-0000675D02*
X-0006942D01*
X-0006983D01*
Y-0000925D01*
X-0007025Y-0000883D01*
X-0006817D02*
X-0006775Y-0000925D01*
X-0006692D01*
X-000665Y-0000883D01*
Y-0000717D01*
X-0006692Y-0000675D01*
X-0006775D01*
X-0006817Y-0000717D01*
Y-0000883D01*
X-00064Y-0000925D02*
X-0006484Y-0000883D01*
X-0006567Y-00008D01*
Y-0000717D01*
X-0006525Y-0000675D01*
X-0006442D01*
X-00064Y-0000717D01*
Y-0000758D01*
X-0006442Y-00008D01*
X-0006567D01*
D114*
X0012375Y0031925D02*
X0011875D01*
Y0032258D01*
X0012292Y0032425D02*
X0012375Y0032508D01*
Y0032675D01*
X0012292Y0032758D01*
X0012208D01*
X0012125Y0032675D01*
Y0032591D01*
Y0032675D01*
X0012042Y0032758D01*
X0011958D01*
X0011875Y0032675D01*
Y0032508D01*
X0011958Y0032425D01*
X0012292Y0032925D02*
X0012375Y0033008D01*
Y0033175D01*
X0012292Y0033258D01*
X0011958D01*
X0011875Y0033175D01*
Y0033008D01*
X0011958Y0032925D01*
X0012292D01*
X0011875Y0033758D02*
Y0033425D01*
X0012208Y0033758D01*
X0012292D01*
X0012375Y0033674D01*
Y0033508D01*
X0012292Y0033425D01*
X0010575Y0031925D02*
X0010075D01*
Y0032258D01*
X0010492Y0032425D02*
X0010575Y0032508D01*
Y0032675D01*
X0010492Y0032758D01*
X0010408D01*
X0010325Y0032675D01*
Y0032591D01*
Y0032675D01*
X0010242Y0032758D01*
X0010158D01*
X0010075Y0032675D01*
Y0032508D01*
X0010158Y0032425D01*
X0010492Y0032925D02*
X0010575Y0033008D01*
Y0033175D01*
X0010492Y0033258D01*
X0010158D01*
X0010075Y0033175D01*
Y0033008D01*
X0010158Y0032925D01*
X0010492D01*
Y0033425D02*
X0010575Y0033508D01*
Y0033674D01*
X0010492Y0033758D01*
X0010408D01*
X0010325Y0033674D01*
Y0033591D01*
Y0033674D01*
X0010242Y0033758D01*
X0010158D01*
X0010075Y0033674D01*
Y0033508D01*
X0010158Y0033425D01*
X0017975Y0031925D02*
X0017475D01*
Y0032258D01*
X0017892Y0032425D02*
X0017975Y0032508D01*
Y0032675D01*
X0017892Y0032758D01*
X0017808D01*
X0017725Y0032675D01*
Y0032591D01*
Y0032675D01*
X0017642Y0032758D01*
X0017558D01*
X0017475Y0032675D01*
Y0032508D01*
X0017558Y0032425D01*
X0017892Y0032925D02*
X0017975Y0033008D01*
Y0033175D01*
X0017892Y0033258D01*
X0017558D01*
X0017475Y0033175D01*
Y0033008D01*
X0017558Y0032925D01*
X0017892D01*
Y0033425D02*
X0017975Y0033508D01*
Y0033674D01*
X0017892Y0033758D01*
X0017558D01*
X0017475Y0033674D01*
Y0033508D01*
X0017558Y0033425D01*
X0017892D01*
X0016175Y0031925D02*
X0015675D01*
Y0032258D01*
X0016092Y0032425D02*
X0016175Y0032508D01*
Y0032675D01*
X0016092Y0032758D01*
X0016008D01*
X0015925Y0032675D01*
Y0032591D01*
Y0032675D01*
X0015842Y0032758D01*
X0015758D01*
X0015675Y0032675D01*
Y0032508D01*
X0015758Y0032425D01*
X0016092Y0032925D02*
X0016175Y0033008D01*
Y0033175D01*
X0016092Y0033258D01*
X0015758D01*
X0015675Y0033175D01*
Y0033008D01*
X0015758Y0032925D01*
X0016092D01*
X0015675Y0033425D02*
Y0033591D01*
Y0033508D01*
X0016175D01*
X0016092Y0033425D01*
D116*
X0020906Y-0034623D02*
X0020706Y-0034277D01*
X0020533Y-0034377D01*
X0020509Y-0034468D01*
X0020575Y-0034583D01*
X0020666Y-0034608D01*
X0020839Y-0034508D01*
X0020724Y-0034574D02*
X0020675Y-0034757D01*
X0020329Y-0034956D02*
X002056Y-0034823D01*
X0020196Y-0034726D01*
X0020162Y-0034668D01*
X0020187Y-0034577D01*
X0020302Y-003451D01*
X0020393Y-0034535D01*
X0020213Y-0035023D02*
X0020098Y-003509D01*
X0020156Y-0035056D01*
X0019956Y-003471D01*
X0020047Y-0034735D01*
X0019758Y-0034901D02*
X0019667Y-0034877D01*
X0019552Y-0034943D01*
X0019527Y-0035034D01*
X0019561Y-0035092D01*
X0019652Y-0035117D01*
X0019709Y-0035083D01*
X0019652Y-0035117D01*
X0019627Y-0035208D01*
X0019661Y-0035265D01*
X0019752Y-003529D01*
X0019867Y-0035223D01*
X0019891Y-0035132D01*
X0012733Y0035133D02*
X00128Y00352D01*
X0012933D01*
X0013Y0035133D01*
Y0034867D01*
X0012933Y00348D01*
X00128D01*
X0012733Y0034867D01*
X00126Y0035133D02*
X0012533Y00352D01*
X00124D01*
X0012333Y0035133D01*
Y0035067D01*
X00124Y0035D01*
X0012467D01*
X00124D01*
X0012333Y0034933D01*
Y0034867D01*
X00124Y00348D01*
X0012533D01*
X00126Y0034867D01*
X00122Y00348D02*
X0012067D01*
X0012133D01*
Y00352D01*
X00122Y0035133D01*
X0011867Y0034867D02*
X00118Y00348D01*
X0011667D01*
X00116Y0034867D01*
Y0035133D01*
X0011667Y00352D01*
X00118D01*
X0011867Y0035133D01*
Y0035067D01*
X00118Y0035D01*
X00116D01*
X0014367Y0034867D02*
X00143Y00348D01*
X0014167D01*
X00141Y0034867D01*
Y0035133D01*
X0014167Y00352D01*
X00143D01*
X0014367Y0035133D01*
X00145Y0034867D02*
X0014567Y00348D01*
X00147D01*
X0014767Y0034867D01*
Y0034933D01*
X00147Y0035D01*
X0014633D01*
X00147D01*
X0014767Y0035067D01*
Y0035133D01*
X00147Y00352D01*
X0014567D01*
X00145Y0035133D01*
X00149Y00352D02*
X0015033D01*
X0014967D01*
Y00348D01*
X00149Y0034867D01*
X00155Y00352D02*
X0015233D01*
X00155Y0034933D01*
Y0034867D01*
X0015433Y00348D01*
X00153D01*
X0015233Y0034867D01*
X0017733Y0035133D02*
X00178Y00352D01*
X0017933D01*
X0018Y0035133D01*
Y0034867D01*
X0017933Y00348D01*
X00178D01*
X0017733Y0034867D01*
X00176Y0035133D02*
X0017533Y00352D01*
X00174D01*
X0017333Y0035133D01*
Y0035067D01*
X00174Y0035D01*
X0017467D01*
X00174D01*
X0017333Y0034933D01*
Y0034867D01*
X00174Y00348D01*
X0017533D01*
X00176Y0034867D01*
X00172Y00348D02*
X0017067D01*
X0017133D01*
Y00352D01*
X00172Y0035133D01*
X0016667Y00348D02*
Y00352D01*
X0016867Y0035D01*
X00166D01*
X0009367Y0034867D02*
X00093Y00348D01*
X0009167D01*
X00091Y0034867D01*
Y0035133D01*
X0009167Y00352D01*
X00093D01*
X0009367Y0035133D01*
X00095Y0034867D02*
X0009567Y00348D01*
X00097D01*
X0009767Y0034867D01*
Y0034933D01*
X00097Y0035D01*
X0009633D01*
X00097D01*
X0009767Y0035067D01*
Y0035133D01*
X00097Y00352D01*
X0009567D01*
X00095Y0035133D01*
X00099Y00352D02*
X0010033D01*
X0009967D01*
Y00348D01*
X00099Y0034867D01*
X0010233D02*
X00103Y00348D01*
X0010433D01*
X00105Y0034867D01*
Y0034933D01*
X0010433Y0035D01*
X00105Y0035067D01*
Y0035133D01*
X0010433Y00352D01*
X00103D01*
X0010233Y0035133D01*
Y0035067D01*
X00103Y0035D01*
X0010233Y0034933D01*
Y0034867D01*
X00103Y0035D02*
X0010433D01*
X0020506Y0034377D02*
X0020706Y0034723D01*
X0020533Y0034823D01*
X0020442Y0034799D01*
X0020375Y0034683D01*
X00204Y0034592D01*
X0020573Y0034492D01*
X0020457Y0034559D02*
X0020275Y003451D01*
X0019929Y003471D02*
X002016Y0034577D01*
X0020062Y0034941D01*
X0020096Y0034999D01*
X0020187Y0035023D01*
X0020302Y0034957D01*
X0020326Y0034865D01*
X0019813Y0034777D02*
X0019698Y0034843D01*
X0019756Y003481D01*
X0019956Y0035156D01*
X001998Y0035065D01*
X0019691Y0035232D02*
X0019667Y0035323D01*
X0019552Y003539D01*
X0019461Y0035365D01*
X0019327Y0035134D01*
X0019352Y0035043D01*
X0019467Y0034977D01*
X0019558Y0035001D01*
X0019691Y0035232D01*
X-00415Y-00025D02*
Y-00021D01*
X-00417D01*
X-0041767Y-0002167D01*
Y-00023D01*
X-00417Y-0002367D01*
X-00415D01*
X-0041634D02*
X-0041767Y-00025D01*
X-0042167D02*
X-00419D01*
X-0042167Y-0002233D01*
Y-0002167D01*
X-00421Y-00021D01*
X-0041967D01*
X-00419Y-0002167D01*
X-00423Y-00025D02*
X-0042433D01*
X-0042367D01*
Y-00021D01*
X-00423Y-0002167D01*
X-00429Y-00025D02*
X-0042633D01*
X-00429Y-0002233D01*
Y-0002167D01*
X-0042833Y-00021D01*
X-00427D01*
X-0042633Y-0002167D01*
X-0013575Y-0016975D02*
X-0013975D01*
Y-0017175D01*
X-0013908Y-0017242D01*
X-0013775D01*
X-0013708Y-0017175D01*
Y-0016975D01*
Y-0017109D02*
X-0013575Y-0017242D01*
Y-0017375D02*
Y-0017508D01*
Y-0017442D01*
X-0013975D01*
X-0013908Y-0017375D01*
Y-0017708D02*
X-0013975Y-0017775D01*
Y-0017908D01*
X-0013908Y-0017975D01*
X-0013641D01*
X-0013575Y-0017908D01*
Y-0017775D01*
X-0013641Y-0017708D01*
X-0013908D01*
Y-0018108D02*
X-0013975Y-0018175D01*
Y-0018308D01*
X-0013908Y-0018375D01*
X-0013841D01*
X-0013775Y-0018308D01*
Y-0018241D01*
Y-0018308D01*
X-0013708Y-0018375D01*
X-0013641D01*
X-0013575Y-0018308D01*
Y-0018175D01*
X-0013641Y-0018108D01*
X-0014875Y-0016975D02*
X-0015275D01*
Y-0017175D01*
X-0015208Y-0017242D01*
X-0015075D01*
X-0015008Y-0017175D01*
Y-0016975D01*
Y-0017109D02*
X-0014875Y-0017242D01*
Y-0017375D02*
Y-0017508D01*
Y-0017442D01*
X-0015275D01*
X-0015208Y-0017375D01*
Y-0017708D02*
X-0015275Y-0017775D01*
Y-0017908D01*
X-0015208Y-0017975D01*
X-0014942D01*
X-0014875Y-0017908D01*
Y-0017775D01*
X-0014942Y-0017708D01*
X-0015208D01*
X-0014875Y-0018308D02*
X-0015275D01*
X-0015075Y-0018108D01*
Y-0018375D01*
X-0012275Y-0016975D02*
X-0012674D01*
Y-0017175D01*
X-0012608Y-0017242D01*
X-0012474D01*
X-0012408Y-0017175D01*
Y-0016975D01*
Y-0017109D02*
X-0012275Y-0017242D01*
Y-0017375D02*
Y-0017508D01*
Y-0017442D01*
X-0012674D01*
X-0012608Y-0017375D01*
Y-0017708D02*
X-0012674Y-0017775D01*
Y-0017908D01*
X-0012608Y-0017975D01*
X-0012341D01*
X-0012275Y-0017908D01*
Y-0017775D01*
X-0012341Y-0017708D01*
X-0012608D01*
X-0012275Y-0018375D02*
Y-0018108D01*
X-0012541Y-0018375D01*
X-0012608D01*
X-0012674Y-0018308D01*
Y-0018175D01*
X-0012608Y-0018108D01*
X-0010974Y-0017042D02*
X-0011374D01*
Y-0017242D01*
X-0011308Y-0017308D01*
X-0011174D01*
X-0011108Y-0017242D01*
Y-0017042D01*
Y-0017175D02*
X-0010974Y-0017308D01*
Y-0017442D02*
Y-0017575D01*
Y-0017508D01*
X-0011374D01*
X-0011308Y-0017442D01*
Y-0017775D02*
X-0011374Y-0017842D01*
Y-0017975D01*
X-0011308Y-0018042D01*
X-0011041D01*
X-0010974Y-0017975D01*
Y-0017842D01*
X-0011041Y-0017775D01*
X-0011308D01*
X-0010974Y-0018175D02*
Y-0018308D01*
Y-0018241D01*
X-0011374D01*
X-0011308Y-0018175D01*
M02*
