G04*
G04 #@! TF.GenerationSoftware,Altium Limited,Altium Designer,21.8.1 (53)*
G04*
G04 Layer_Color=16711935*
%FSTAX43Y43*%
%MOMM*%
G71*
G04*
G04 #@! TF.SameCoordinates,6DCA0702-E8A1-45D8-905D-7E8CEDC4C78A*
G04*
G04*
G04 #@! TF.FilePolarity,Negative*
G04*
G01*
G75*
G04:AMPARAMS|DCode=19|XSize=0.6mm|YSize=0.5mm|CornerRadius=0.05mm|HoleSize=0mm|Usage=FLASHONLY|Rotation=0.000|XOffset=0mm|YOffset=0mm|HoleType=Round|Shape=RoundedRectangle|*
%AMROUNDEDRECTD19*
21,1,0.600,0.400,0,0,0.0*
21,1,0.500,0.500,0,0,0.0*
1,1,0.100,0.250,-0.200*
1,1,0.100,-0.250,-0.200*
1,1,0.100,-0.250,0.200*
1,1,0.100,0.250,0.200*
%
%ADD19ROUNDEDRECTD19*%
G04:AMPARAMS|DCode=20|XSize=0.6mm|YSize=0.5mm|CornerRadius=0.05mm|HoleSize=0mm|Usage=FLASHONLY|Rotation=270.000|XOffset=0mm|YOffset=0mm|HoleType=Round|Shape=RoundedRectangle|*
%AMROUNDEDRECTD20*
21,1,0.600,0.400,0,0,270.0*
21,1,0.500,0.500,0,0,270.0*
1,1,0.100,-0.200,-0.250*
1,1,0.100,-0.200,0.250*
1,1,0.100,0.200,0.250*
1,1,0.100,0.200,-0.250*
%
%ADD20ROUNDEDRECTD20*%
G04:AMPARAMS|DCode=21|XSize=0.95mm|YSize=0.75mm|CornerRadius=0.075mm|HoleSize=0mm|Usage=FLASHONLY|Rotation=180.000|XOffset=0mm|YOffset=0mm|HoleType=Round|Shape=RoundedRectangle|*
%AMROUNDEDRECTD21*
21,1,0.950,0.600,0,0,180.0*
21,1,0.800,0.750,0,0,180.0*
1,1,0.150,-0.400,0.300*
1,1,0.150,0.400,0.300*
1,1,0.150,0.400,-0.300*
1,1,0.150,-0.400,-0.300*
%
%ADD21ROUNDEDRECTD21*%
G04:AMPARAMS|DCode=25|XSize=0.95mm|YSize=0.75mm|CornerRadius=0.075mm|HoleSize=0mm|Usage=FLASHONLY|Rotation=270.000|XOffset=0mm|YOffset=0mm|HoleType=Round|Shape=RoundedRectangle|*
%AMROUNDEDRECTD25*
21,1,0.950,0.600,0,0,270.0*
21,1,0.800,0.750,0,0,270.0*
1,1,0.150,-0.300,-0.400*
1,1,0.150,-0.300,0.400*
1,1,0.150,0.300,0.400*
1,1,0.150,0.300,-0.400*
%
%ADD25ROUNDEDRECTD25*%
G04:AMPARAMS|DCode=29|XSize=1.45mm|YSize=0.95mm|CornerRadius=0.095mm|HoleSize=0mm|Usage=FLASHONLY|Rotation=180.000|XOffset=0mm|YOffset=0mm|HoleType=Round|Shape=RoundedRectangle|*
%AMROUNDEDRECTD29*
21,1,1.450,0.760,0,0,180.0*
21,1,1.260,0.950,0,0,180.0*
1,1,0.190,-0.630,0.380*
1,1,0.190,0.630,0.380*
1,1,0.190,0.630,-0.380*
1,1,0.190,-0.630,-0.380*
%
%ADD29ROUNDEDRECTD29*%
%ADD62C,2.000*%
%ADD67C,1.000*%
%ADD68C,1.800*%
%ADD70O,1.400X1.950*%
%ADD71O,1.600X3.500*%
%ADD72O,3.500X1.600*%
%ADD73C,1.600*%
%ADD74C,0.900*%
%ADD75C,5.200*%
%ADD78C,0.500*%
%ADD82C,0.750*%
G04:AMPARAMS|DCode=89|XSize=0.1mm|YSize=0.1mm|CornerRadius=0.01mm|HoleSize=0mm|Usage=FLASHONLY|Rotation=120.000|XOffset=0mm|YOffset=0mm|HoleType=Round|Shape=RoundedRectangle|*
%AMROUNDEDRECTD89*
21,1,0.100,0.080,0,0,120.0*
21,1,0.080,0.100,0,0,120.0*
1,1,0.020,0.015,0.055*
1,1,0.020,0.055,-0.015*
1,1,0.020,-0.015,-0.055*
1,1,0.020,-0.055,0.015*
%
%ADD89ROUNDEDRECTD89*%
G04:AMPARAMS|DCode=90|XSize=0.1mm|YSize=0.1mm|CornerRadius=0.01mm|HoleSize=0mm|Usage=FLASHONLY|Rotation=210.000|XOffset=0mm|YOffset=0mm|HoleType=Round|Shape=RoundedRectangle|*
%AMROUNDEDRECTD90*
21,1,0.100,0.080,0,0,210.0*
21,1,0.080,0.100,0,0,210.0*
1,1,0.020,-0.055,0.015*
1,1,0.020,0.015,0.055*
1,1,0.020,0.055,-0.015*
1,1,0.020,-0.015,-0.055*
%
%ADD90ROUNDEDRECTD90*%
G04:AMPARAMS|DCode=91|XSize=0.725mm|YSize=0.522mm|CornerRadius=0.052mm|HoleSize=0mm|Usage=FLASHONLY|Rotation=210.000|XOffset=0mm|YOffset=0mm|HoleType=Round|Shape=RoundedRectangle|*
%AMROUNDEDRECTD91*
21,1,0.725,0.418,0,0,210.0*
21,1,0.621,0.522,0,0,210.0*
1,1,0.104,-0.373,0.026*
1,1,0.104,0.164,0.336*
1,1,0.104,0.373,-0.026*
1,1,0.104,-0.164,-0.336*
%
%ADD91ROUNDEDRECTD91*%
G04:AMPARAMS|DCode=92|XSize=0.6mm|YSize=0.5mm|CornerRadius=0.05mm|HoleSize=0mm|Usage=FLASHONLY|Rotation=210.000|XOffset=0mm|YOffset=0mm|HoleType=Round|Shape=RoundedRectangle|*
%AMROUNDEDRECTD92*
21,1,0.600,0.400,0,0,210.0*
21,1,0.500,0.500,0,0,210.0*
1,1,0.100,-0.317,0.048*
1,1,0.100,0.117,0.298*
1,1,0.100,0.317,-0.048*
1,1,0.100,-0.117,-0.298*
%
%ADD92ROUNDEDRECTD92*%
G04:AMPARAMS|DCode=93|XSize=0.6mm|YSize=0.5mm|CornerRadius=0.05mm|HoleSize=0mm|Usage=FLASHONLY|Rotation=150.000|XOffset=0mm|YOffset=0mm|HoleType=Round|Shape=RoundedRectangle|*
%AMROUNDEDRECTD93*
21,1,0.600,0.400,0,0,150.0*
21,1,0.500,0.500,0,0,150.0*
1,1,0.100,-0.117,0.298*
1,1,0.100,0.317,0.048*
1,1,0.100,0.117,-0.298*
1,1,0.100,-0.317,-0.048*
%
%ADD93ROUNDEDRECTD93*%
G04:AMPARAMS|DCode=94|XSize=0.95mm|YSize=0.75mm|CornerRadius=0.075mm|HoleSize=0mm|Usage=FLASHONLY|Rotation=60.000|XOffset=0mm|YOffset=0mm|HoleType=Round|Shape=RoundedRectangle|*
%AMROUNDEDRECTD94*
21,1,0.950,0.600,0,0,60.0*
21,1,0.800,0.750,0,0,60.0*
1,1,0.150,0.460,0.196*
1,1,0.150,0.060,-0.496*
1,1,0.150,-0.460,-0.196*
1,1,0.150,-0.060,0.496*
%
%ADD94ROUNDEDRECTD94*%
G04:AMPARAMS|DCode=95|XSize=0.1mm|YSize=0.1mm|CornerRadius=0.01mm|HoleSize=0mm|Usage=FLASHONLY|Rotation=240.000|XOffset=0mm|YOffset=0mm|HoleType=Round|Shape=RoundedRectangle|*
%AMROUNDEDRECTD95*
21,1,0.100,0.080,0,0,240.0*
21,1,0.080,0.100,0,0,240.0*
1,1,0.020,-0.055,-0.015*
1,1,0.020,-0.015,0.055*
1,1,0.020,0.055,0.015*
1,1,0.020,0.015,-0.055*
%
%ADD95ROUNDEDRECTD95*%
G04:AMPARAMS|DCode=96|XSize=0.1mm|YSize=0.1mm|CornerRadius=0.01mm|HoleSize=0mm|Usage=FLASHONLY|Rotation=330.000|XOffset=0mm|YOffset=0mm|HoleType=Round|Shape=RoundedRectangle|*
%AMROUNDEDRECTD96*
21,1,0.100,0.080,0,0,330.0*
21,1,0.080,0.100,0,0,330.0*
1,1,0.020,0.015,-0.055*
1,1,0.020,-0.055,-0.015*
1,1,0.020,-0.015,0.055*
1,1,0.020,0.055,0.015*
%
%ADD96ROUNDEDRECTD96*%
G04:AMPARAMS|DCode=97|XSize=0.725mm|YSize=0.522mm|CornerRadius=0.052mm|HoleSize=0mm|Usage=FLASHONLY|Rotation=330.000|XOffset=0mm|YOffset=0mm|HoleType=Round|Shape=RoundedRectangle|*
%AMROUNDEDRECTD97*
21,1,0.725,0.418,0,0,330.0*
21,1,0.621,0.522,0,0,330.0*
1,1,0.104,0.164,-0.336*
1,1,0.104,-0.373,-0.026*
1,1,0.104,-0.164,0.336*
1,1,0.104,0.373,0.026*
%
%ADD97ROUNDEDRECTD97*%
G04:AMPARAMS|DCode=98|XSize=0.18mm|YSize=0.4mm|CornerRadius=0.018mm|HoleSize=0mm|Usage=FLASHONLY|Rotation=270.000|XOffset=0mm|YOffset=0mm|HoleType=Round|Shape=RoundedRectangle|*
%AMROUNDEDRECTD98*
21,1,0.180,0.364,0,0,270.0*
21,1,0.144,0.400,0,0,270.0*
1,1,0.036,-0.182,-0.072*
1,1,0.036,-0.182,0.072*
1,1,0.036,0.182,0.072*
1,1,0.036,0.182,-0.072*
%
%ADD98ROUNDEDRECTD98*%
G04:AMPARAMS|DCode=99|XSize=0.455mm|YSize=0.33mm|CornerRadius=0.033mm|HoleSize=0mm|Usage=FLASHONLY|Rotation=90.000|XOffset=0mm|YOffset=0mm|HoleType=Round|Shape=RoundedRectangle|*
%AMROUNDEDRECTD99*
21,1,0.455,0.264,0,0,90.0*
21,1,0.389,0.330,0,0,90.0*
1,1,0.066,0.132,0.195*
1,1,0.066,0.132,-0.195*
1,1,0.066,-0.132,-0.195*
1,1,0.066,-0.132,0.195*
%
%ADD99ROUNDEDRECTD99*%
G04:AMPARAMS|DCode=100|XSize=0.95mm|YSize=0.75mm|CornerRadius=0.075mm|HoleSize=0mm|Usage=FLASHONLY|Rotation=120.000|XOffset=0mm|YOffset=0mm|HoleType=Round|Shape=RoundedRectangle|*
%AMROUNDEDRECTD100*
21,1,0.950,0.600,0,0,120.0*
21,1,0.800,0.750,0,0,120.0*
1,1,0.150,0.060,0.496*
1,1,0.150,0.460,-0.196*
1,1,0.150,-0.060,-0.496*
1,1,0.150,-0.460,0.196*
%
%ADD100ROUNDEDRECTD100*%
G04:AMPARAMS|DCode=101|XSize=0.1mm|YSize=0.1mm|CornerRadius=0.01mm|HoleSize=0mm|Usage=FLASHONLY|Rotation=0.000|XOffset=0mm|YOffset=0mm|HoleType=Round|Shape=RoundedRectangle|*
%AMROUNDEDRECTD101*
21,1,0.100,0.080,0,0,0.0*
21,1,0.080,0.100,0,0,0.0*
1,1,0.020,0.040,-0.040*
1,1,0.020,-0.040,-0.040*
1,1,0.020,-0.040,0.040*
1,1,0.020,0.040,0.040*
%
%ADD101ROUNDEDRECTD101*%
G04:AMPARAMS|DCode=102|XSize=0.1mm|YSize=0.1mm|CornerRadius=0.01mm|HoleSize=0mm|Usage=FLASHONLY|Rotation=90.000|XOffset=0mm|YOffset=0mm|HoleType=Round|Shape=RoundedRectangle|*
%AMROUNDEDRECTD102*
21,1,0.100,0.080,0,0,90.0*
21,1,0.080,0.100,0,0,90.0*
1,1,0.020,0.040,0.040*
1,1,0.020,0.040,-0.040*
1,1,0.020,-0.040,-0.040*
1,1,0.020,-0.040,0.040*
%
%ADD102ROUNDEDRECTD102*%
G04:AMPARAMS|DCode=103|XSize=0.725mm|YSize=0.522mm|CornerRadius=0.052mm|HoleSize=0mm|Usage=FLASHONLY|Rotation=90.000|XOffset=0mm|YOffset=0mm|HoleType=Round|Shape=RoundedRectangle|*
%AMROUNDEDRECTD103*
21,1,0.725,0.418,0,0,90.0*
21,1,0.621,0.522,0,0,90.0*
1,1,0.104,0.209,0.310*
1,1,0.104,0.209,-0.310*
1,1,0.104,-0.209,-0.310*
1,1,0.104,-0.209,0.310*
%
%ADD103ROUNDEDRECTD103*%
%ADD105C,3.100*%
D19*
X00004Y002955D02*
D03*
Y002865D02*
D03*
X000135Y002865D02*
D03*
Y002955D02*
D03*
X-000055Y002865D02*
D03*
X-000055Y002955D02*
D03*
X-0001501Y002955D02*
D03*
Y002865D02*
D03*
X0002301Y002955D02*
D03*
Y002865D02*
D03*
X-0027425Y000125D02*
D03*
Y000215D02*
D03*
D20*
X-0006375Y-0000775D02*
D03*
X-0007275D02*
D03*
X-0006375Y-0001725D02*
D03*
X-0007275D02*
D03*
X-004295Y0002025D02*
D03*
X-004205D02*
D03*
X-0031675Y0005425D02*
D03*
X-0030775D02*
D03*
D21*
X-0011174Y-0018375D02*
D03*
Y-0016975D02*
D03*
X-0012474Y-0018375D02*
D03*
Y-0016975D02*
D03*
X-0015075Y-0018375D02*
D03*
Y-0016975D02*
D03*
X-0013775Y-0018375D02*
D03*
Y-0016975D02*
D03*
D25*
X-00429Y-00023D02*
D03*
X-00415D02*
D03*
X00105Y0035D02*
D03*
X00091D02*
D03*
X00166D02*
D03*
X0018D02*
D03*
X00155D02*
D03*
X00141D02*
D03*
X00116D02*
D03*
X0013D02*
D03*
D29*
X00159Y0032125D02*
D03*
Y0033725D02*
D03*
X00177Y0032125D02*
D03*
Y0033725D02*
D03*
X00103Y0032125D02*
D03*
Y0033725D02*
D03*
X00121Y0032125D02*
D03*
Y0033725D02*
D03*
D62*
X00346Y0027D02*
D03*
X-0003212Y0007869D02*
D03*
X0022Y-0031D02*
D03*
D67*
X-0022283Y-0036869D02*
D03*
X-0024331Y-0035435D02*
D03*
X-0023307Y-0036152D02*
D03*
X-0027416Y-0032859D02*
D03*
X-0029184Y-0031091D02*
D03*
X-00283Y-0031975D02*
D03*
X002175Y-0037672D02*
D03*
X-00435Y0D02*
D03*
D68*
X00159Y0038D02*
D03*
X001844D02*
D03*
X0013453Y-0039343D02*
D03*
X0008547Y-0040657D02*
D03*
X0011Y-004D02*
D03*
X002342Y001423D02*
D03*
Y001677D02*
D03*
X002596Y001423D02*
D03*
X00285D02*
D03*
X003104D02*
D03*
X003358D02*
D03*
X002596Y001677D02*
D03*
X00285D02*
D03*
X003104D02*
D03*
X003358D02*
D03*
X-0006265Y-004225D02*
D03*
X-0003725D02*
D03*
X-0001185D02*
D03*
X0001355D02*
D03*
X0003895D02*
D03*
X003358Y002227D02*
D03*
X003104D02*
D03*
X00285D02*
D03*
X002596D02*
D03*
X003358Y001973D02*
D03*
X003104D02*
D03*
X00285D02*
D03*
X002596D02*
D03*
X002342Y002227D02*
D03*
Y001973D02*
D03*
X000993Y0038D02*
D03*
X001247D02*
D03*
X00365Y-00213D02*
D03*
X0037808Y-0019123D02*
D03*
X0035192Y-0023477D02*
D03*
D70*
X0010575Y001089D02*
D03*
X0003425D02*
D03*
D71*
X0035275Y0D02*
D03*
X004225D02*
D03*
D72*
X00382Y00047D02*
D03*
D73*
X004Y-000127D02*
D03*
Y000127D02*
D03*
D74*
X0021747Y0037674D02*
D03*
D75*
X-00013Y0024D02*
D03*
X-00343D02*
D03*
X-00013Y-0024D02*
D03*
X-00343D02*
D03*
D78*
X-0042838Y0D02*
G03*
X-0044074Y0000331I-0000663J-0D01*
G01*
D02*
G03*
X-0042838Y0I0000574J-0000331D01*
G01*
X0021747Y0038336D02*
G03*
X0021404Y0037107I0J-0000663D01*
G01*
D02*
G03*
X0021747Y0038336I0000343J0000567D01*
G01*
X0021579Y-0038312D02*
G03*
X0022274Y-0037267I0000171J000064D01*
G01*
X0021579Y-0038312D02*
G03*
X0022274Y-0037267I0000171J000064D01*
G01*
D02*
G03*
X0021579Y-0038312I-0000524J-0000405D01*
G01*
X0022274Y-0037267D02*
G03*
X0021579Y-0038312I-0000524J-0000405D01*
G01*
D82*
X-0011253Y0016D02*
X-0010753Y00165D01*
X-0009753D01*
X-0009253Y0016D01*
Y00155D01*
X-0009753Y0015D01*
X-0010753D01*
X-0011253Y00145D01*
Y0014D01*
X-0010753Y00135D01*
X-0009753D01*
X-0009253Y0014D01*
X-0012252Y00135D02*
Y00155D01*
X-0013252Y00165D01*
X-0014252Y00155D01*
Y00135D01*
Y0015D01*
X-0012252D01*
X-0015251Y00135D02*
Y00165D01*
X-0016751D01*
X-0017251Y0016D01*
Y0015D01*
X-0016751Y00145D01*
X-0015251D01*
X-0016251D02*
X-0017251Y00135D01*
X-001825D02*
Y00155D01*
X-001925Y00165D01*
X-002025Y00155D01*
Y00135D01*
Y0015D01*
X-001825D01*
X-0021249Y00165D02*
Y00135D01*
Y00145D01*
X-0023249Y00165D01*
X-0021749Y0015D01*
X-0023249Y00135D01*
X-0024248Y00165D02*
X-0025248D01*
X-0024748D01*
Y00135D01*
X-0024248D01*
X-0025248D01*
X-0026747Y00165D02*
X-0028747D01*
X-0027747D01*
Y00135D01*
D89*
X0022053Y-0038198D02*
D03*
D90*
X0022264Y-0037383D02*
D03*
X0021242Y-0037973D02*
D03*
D91*
X0019988Y-0036294D02*
D03*
X0020399Y-0037006D02*
D03*
X0021438Y-0035457D02*
D03*
X0021849Y-0036169D02*
D03*
D92*
X0018975Y-003681D02*
D03*
X0019425Y-003759D02*
D03*
D93*
X0022375Y003481D02*
D03*
X0022825Y003559D02*
D03*
D94*
X0019394Y003525D02*
D03*
X0020606Y003455D02*
D03*
D95*
X0022051Y0038199D02*
D03*
D96*
X002124Y0037975D02*
D03*
X0022262Y0037385D02*
D03*
D97*
X0021435Y0035459D02*
D03*
X0021846Y0036171D02*
D03*
X0019985Y0036296D02*
D03*
X0020396Y0037008D02*
D03*
D98*
X-0004125Y-0003325D02*
D03*
Y-0002975D02*
D03*
Y-0002625D02*
D03*
Y-0002275D02*
D03*
Y-0001925D02*
D03*
X-0002225Y-0003325D02*
D03*
Y-0002975D02*
D03*
Y-0002625D02*
D03*
Y-0002275D02*
D03*
Y-0001925D02*
D03*
X-0004125Y0002275D02*
D03*
Y-0001225D02*
D03*
Y-0000875D02*
D03*
Y-0000525D02*
D03*
Y-0000175D02*
D03*
Y0000175D02*
D03*
Y0001225D02*
D03*
Y0000875D02*
D03*
Y0000525D02*
D03*
Y0002975D02*
D03*
Y0002625D02*
D03*
Y0003325D02*
D03*
Y0001925D02*
D03*
Y-0001575D02*
D03*
Y0001575D02*
D03*
X-0002225Y0003325D02*
D03*
Y-0000875D02*
D03*
Y-0001225D02*
D03*
Y-0001575D02*
D03*
Y-0000525D02*
D03*
Y-0000175D02*
D03*
Y0000875D02*
D03*
Y0001575D02*
D03*
Y0000525D02*
D03*
Y0001925D02*
D03*
Y0002275D02*
D03*
Y0002625D02*
D03*
Y0002975D02*
D03*
Y0000175D02*
D03*
Y0001225D02*
D03*
D99*
X-000412Y-000398D02*
D03*
X-000223D02*
D03*
Y000398D02*
D03*
X-000412D02*
D03*
D100*
X0020806Y-003445D02*
D03*
X0019594Y-003515D02*
D03*
D101*
X-0044107Y-0D02*
D03*
D102*
X-0043507Y-000059D02*
D03*
X-0043507Y000059D02*
D03*
D103*
X-0041426Y0000837D02*
D03*
X-0042248Y0000837D02*
D03*
X-0041426Y-0000837D02*
D03*
X-0042248Y-0000837D02*
D03*
D105*
X0039Y-0014D02*
D03*
Y0014D02*
D03*
M02*
