G04*
G04 #@! TF.GenerationSoftware,Altium Limited,Altium Designer,21.8.1 (53)*
G04*
G04 Layer_Color=32896*
%FSTAX43Y43*%
%MOMM*%
G71*
G04*
G04 #@! TF.SameCoordinates,6DCA0702-E8A1-45D8-905D-7E8CEDC4C78A*
G04*
G04*
G04 #@! TF.FilePolarity,Positive*
G04*
G01*
G75*
%ADD10C,0.200*%
%ADD13C,0.150*%
%ADD81C,0.300*%
D10*
X-00095Y0011167D02*
X-0009834Y00105D01*
X-0010167Y0011167D01*
X-00105Y00105D02*
X-0010833D01*
X-0010667D01*
Y00115D01*
X-00105Y0011333D01*
X-0011333Y00105D02*
Y0010667D01*
X-00115D01*
Y00105D01*
X-0011333D01*
X-0012166D02*
X-00125D01*
X-0012333D01*
Y00115D01*
X-0012166Y0011333D01*
D13*
X-0040915Y-000145D02*
X-0040915Y000145D01*
X-0044665Y000145D02*
X-0040915Y000145D01*
X-0044665Y-000145D02*
X-0044665Y000145D01*
X-0044665Y-000145D02*
X-0040915Y-000145D01*
X-0001975Y0004375D02*
Y00049D01*
X-0004375D02*
X-0001975D01*
X-0004375Y0004375D02*
Y00049D01*
X-0001975Y-00049D02*
Y-0004375D01*
X-0004375Y-00049D02*
X-0001975D01*
X-0004375D02*
Y-0004375D01*
X0019199Y003616D02*
X0021074Y0039408D01*
X0023585Y0037958D01*
X002171Y003471D02*
X0023585Y0037958D01*
X0019199Y003616D02*
X002171Y003471D01*
X0019202Y-0036158D02*
X0021713Y-0034708D01*
X0019202Y-0036158D02*
X0021077Y-0039406D01*
X0023588Y-0037956D01*
X0021713Y-0034708D02*
X0023588Y-0037956D01*
X000995Y0031383D02*
X001065D01*
Y0030916D01*
X0010067Y0030683D02*
X000995Y0030567D01*
Y0030333D01*
X0010067Y0030217D01*
X0010183D01*
X00103Y0030333D01*
Y003045D01*
Y0030333D01*
X0010417Y0030217D01*
X0010533D01*
X001065Y0030333D01*
Y0030567D01*
X0010533Y0030683D01*
X0010067Y0029983D02*
X000995Y0029867D01*
Y0029633D01*
X0010067Y0029517D01*
X0010533D01*
X001065Y0029633D01*
Y0029867D01*
X0010533Y0029983D01*
X0010067D01*
Y0029284D02*
X000995Y0029167D01*
Y0028934D01*
X0010067Y0028817D01*
X0010183D01*
X00103Y0028934D01*
Y002905D01*
Y0028934D01*
X0010417Y0028817D01*
X0010533D01*
X001065Y0028934D01*
Y0029167D01*
X0010533Y0029284D01*
X001735Y0031383D02*
X001805D01*
Y0030916D01*
X0017467Y0030683D02*
X001735Y0030567D01*
Y0030333D01*
X0017467Y0030217D01*
X0017583D01*
X00177Y0030333D01*
Y003045D01*
Y0030333D01*
X0017817Y0030217D01*
X0017933D01*
X001805Y0030333D01*
Y0030567D01*
X0017933Y0030683D01*
X0017467Y0029983D02*
X001735Y0029867D01*
Y0029633D01*
X0017467Y0029517D01*
X0017933D01*
X001805Y0029633D01*
Y0029867D01*
X0017933Y0029983D01*
X0017467D01*
Y0029284D02*
X001735Y0029167D01*
Y0028934D01*
X0017467Y0028817D01*
X0017933D01*
X001805Y0028934D01*
Y0029167D01*
X0017933Y0029284D01*
X0017467D01*
X0012725Y0036333D02*
X0012841Y003645D01*
X0013075D01*
X0013191Y0036333D01*
Y0035867D01*
X0013075Y003575D01*
X0012841D01*
X0012725Y0035867D01*
X0012491Y0036333D02*
X0012375Y003645D01*
X0012142D01*
X0012025Y0036333D01*
Y0036217D01*
X0012142Y00361D01*
X0012258D01*
X0012142D01*
X0012025Y0035983D01*
Y0035867D01*
X0012142Y003575D01*
X0012375D01*
X0012491Y0035867D01*
X0011792Y003575D02*
X0011558D01*
X0011675D01*
Y003645D01*
X0011792Y0036333D01*
X0011209Y0035867D02*
X0011092Y003575D01*
X0010859D01*
X0010742Y0035867D01*
Y0036333D01*
X0010859Y003645D01*
X0011092D01*
X0011209Y0036333D01*
Y0036217D01*
X0011092Y00361D01*
X0010742D01*
X0009858Y0036333D02*
X0009975Y003645D01*
X0010208D01*
X0010325Y0036333D01*
Y0035867D01*
X0010208Y003575D01*
X0009975D01*
X0009858Y0035867D01*
X0009625Y0036333D02*
X0009508Y003645D01*
X0009275D01*
X0009158Y0036333D01*
Y0036217D01*
X0009275Y00361D01*
X0009392D01*
X0009275D01*
X0009158Y0035983D01*
Y0035867D01*
X0009275Y003575D01*
X0009508D01*
X0009625Y0035867D01*
X0008925Y003575D02*
X0008692D01*
X0008808D01*
Y003645D01*
X0008925Y0036333D01*
X0008342D02*
X0008225Y003645D01*
X0007992D01*
X0007875Y0036333D01*
Y0036217D01*
X0007992Y00361D01*
X0007875Y0035983D01*
Y0035867D01*
X0007992Y003575D01*
X0008225D01*
X0008342Y0035867D01*
Y0035983D01*
X0008225Y00361D01*
X0008342Y0036217D01*
Y0036333D01*
X0008225Y00361D02*
X0007992D01*
X0018458Y0036333D02*
X0018575Y003645D01*
X0018808D01*
X0018925Y0036333D01*
Y0035867D01*
X0018808Y003575D01*
X0018575D01*
X0018458Y0035867D01*
X0018225Y0036333D02*
X0018108Y003645D01*
X0017875D01*
X0017758Y0036333D01*
Y0036217D01*
X0017875Y00361D01*
X0017992D01*
X0017875D01*
X0017758Y0035983D01*
Y0035867D01*
X0017875Y003575D01*
X0018108D01*
X0018225Y0035867D01*
X0017525Y003575D02*
X0017292D01*
X0017408D01*
Y003645D01*
X0017525Y0036333D01*
X0016592Y003575D02*
Y003645D01*
X0016942Y00361D01*
X0016475D01*
X0026574Y003495D02*
Y003565D01*
X0026341Y0035417D01*
X0026108Y003565D01*
Y003495D01*
X0025875Y003565D02*
X0025641D01*
X0025758D01*
Y003495D01*
X0025875D01*
X0025641D01*
X0024825Y0035533D02*
X0024942Y003565D01*
X0025175D01*
X0025291Y0035533D01*
Y0035067D01*
X0025175Y003495D01*
X0024942D01*
X0024825Y0035067D01*
X0024125Y003495D02*
X0024592D01*
X0024125Y0035417D01*
Y0035533D01*
X0024242Y003565D01*
X0024475D01*
X0024592Y0035533D01*
X0023892D02*
X0023775Y003565D01*
X0023542D01*
X0023425Y0035533D01*
Y0035067D01*
X0023542Y003495D01*
X0023775D01*
X0023892Y0035067D01*
Y0035533D01*
X0023192D02*
X0023076Y003565D01*
X0022842D01*
X0022726Y0035533D01*
Y0035067D01*
X0022842Y003495D01*
X0023076D01*
X0023192Y0035067D01*
Y0035533D01*
X0002815Y0033052D02*
X0002115D01*
Y0032702D01*
X0002232Y0032586D01*
X0002465D01*
X0002582Y0032702D01*
Y0033052D01*
Y0032819D02*
X0002815Y0032586D01*
Y0031886D02*
Y0032353D01*
X0002348Y0031886D01*
X0002232D01*
X0002115Y0032003D01*
Y0032236D01*
X0002232Y0032353D01*
X0002815Y0031653D02*
Y003142D01*
Y0031536D01*
X0002115D01*
X0002232Y0031653D01*
X0002115Y003107D02*
Y0030603D01*
X0002232D01*
X0002698Y003107D01*
X0002815D01*
X-0001484Y0033052D02*
X-0002184D01*
Y0032702D01*
X-0002067Y0032586D01*
X-0001834D01*
X-0001717Y0032702D01*
Y0033052D01*
Y0032819D02*
X-0001484Y0032586D01*
Y0031886D02*
Y0032353D01*
X-000195Y0031886D01*
X-0002067D01*
X-0002184Y0032003D01*
Y0032236D01*
X-0002067Y0032353D01*
Y0031653D02*
X-0002184Y0031536D01*
Y0031303D01*
X-0002067Y0031186D01*
X-00016D01*
X-0001484Y0031303D01*
Y0031536D01*
X-00016Y0031653D01*
X-0002067D01*
X-00016Y0030953D02*
X-0001484Y0030836D01*
Y0030603D01*
X-00016Y0030486D01*
X-0002067D01*
X-0002184Y0030603D01*
Y0030836D01*
X-0002067Y0030953D01*
X-000195D01*
X-0001834Y0030836D01*
Y0030486D01*
X-0030197Y0007149D02*
X-0030081Y0007266D01*
X-0029847D01*
X-0029731Y0007149D01*
Y0006682D01*
X-0029847Y0006566D01*
X-0030081D01*
X-0030197Y0006682D01*
X-0030431Y0006566D02*
X-0030664D01*
X-0030547D01*
Y0007266D01*
X-0030431Y0007149D01*
X-0031014D02*
X-003113Y0007266D01*
X-0031364D01*
X-003148Y0007149D01*
Y0006682D01*
X-0031364Y0006566D01*
X-003113D01*
X-0031014Y0006682D01*
Y0007149D01*
X-0031713Y0006566D02*
X-0031947D01*
X-003183D01*
Y0007266D01*
X-0031713Y0007149D01*
X-0025742Y0003483D02*
X-0025625Y00036D01*
X-0025392D01*
X-0025275Y0003483D01*
Y0003017D01*
X-0025392Y00029D01*
X-0025625D01*
X-0025742Y0003017D01*
X-0025975Y00029D02*
X-0026208D01*
X-0026092D01*
Y00036D01*
X-0025975Y0003483D01*
X-0026558D02*
X-0026675Y00036D01*
X-0026908D01*
X-0027025Y0003483D01*
Y0003017D01*
X-0026908Y00029D01*
X-0026675D01*
X-0026558Y0003017D01*
Y0003483D01*
X-0027258D02*
X-0027375Y00036D01*
X-0027608D01*
X-0027725Y0003483D01*
Y0003017D01*
X-0027608Y00029D01*
X-0027375D01*
X-0027258Y0003017D01*
Y0003483D01*
X-0002461Y0006351D02*
X-0002227D01*
X-0002344D01*
Y0005768D01*
X-0002227Y0005651D01*
X-0002111D01*
X-0001994Y0005768D01*
X-0002694Y0005651D02*
X-0002927D01*
X-000281D01*
Y0006351D01*
X-0002694Y0006235D01*
X-0003277D02*
X-0003394Y0006351D01*
X-0003627D01*
X-0003743Y0006235D01*
Y0005768D01*
X-0003627Y0005651D01*
X-0003394D01*
X-0003277Y0005768D01*
Y0006235D01*
X-0004443Y0005651D02*
X-0003977D01*
X-0004443Y0006118D01*
Y0006235D01*
X-0004327Y0006351D01*
X-0004093D01*
X-0003977Y0006235D01*
X-0007483Y-0002742D02*
X-00076Y-0002625D01*
Y-0002392D01*
X-0007483Y-0002275D01*
X-0007017D01*
X-00069Y-0002392D01*
Y-0002625D01*
X-0007017Y-0002742D01*
X-00069Y-0002975D02*
Y-0003208D01*
Y-0003092D01*
X-00076D01*
X-0007483Y-0002975D01*
Y-0003558D02*
X-00076Y-0003675D01*
Y-0003908D01*
X-0007483Y-0004025D01*
X-0007017D01*
X-00069Y-0003908D01*
Y-0003675D01*
X-0007017Y-0003558D01*
X-0007483D01*
X-00076Y-0004258D02*
Y-0004725D01*
X-0007483D01*
X-0007017Y-0004258D01*
X-00069D01*
X-0007483Y0002008D02*
X-00076Y0002125D01*
Y0002358D01*
X-0007483Y0002475D01*
X-0007017D01*
X-00069Y0002358D01*
Y0002125D01*
X-0007017Y0002008D01*
X-00069Y0001775D02*
Y0001542D01*
Y0001658D01*
X-00076D01*
X-0007483Y0001775D01*
Y0001192D02*
X-00076Y0001075D01*
Y0000842D01*
X-0007483Y0000725D01*
X-0007017D01*
X-00069Y0000842D01*
Y0001075D01*
X-0007017Y0001192D01*
X-0007483D01*
X-00076Y0000025D02*
X-0007483Y0000259D01*
X-000725Y0000492D01*
X-0007017D01*
X-00069Y0000375D01*
Y0000142D01*
X-0007017Y0000025D01*
X-0007133D01*
X-000725Y0000142D01*
Y0000492D01*
X-0014698Y-0013572D02*
X-0015398D01*
Y-0013922D01*
X-0015282Y-0014039D01*
X-0015048D01*
X-0014932Y-0013922D01*
Y-0013572D01*
Y-0013806D02*
X-0014698Y-0014039D01*
Y-0014272D02*
Y-0014505D01*
Y-0014389D01*
X-0015398D01*
X-0015282Y-0014272D01*
Y-0014855D02*
X-0015398Y-0014972D01*
Y-0015205D01*
X-0015282Y-0015322D01*
X-0014815D01*
X-0014698Y-0015205D01*
Y-0014972D01*
X-0014815Y-0014855D01*
X-0015282D01*
X-0014698Y-0015905D02*
X-0015398D01*
X-0015048Y-0015555D01*
Y-0016021D01*
X-0013403Y-0013572D02*
X-0014103D01*
Y-0013922D01*
X-0013986Y-0014039D01*
X-0013753D01*
X-0013636Y-0013922D01*
Y-0013572D01*
Y-0013806D02*
X-0013403Y-0014039D01*
Y-0014272D02*
Y-0014505D01*
Y-0014389D01*
X-0014103D01*
X-0013986Y-0014272D01*
Y-0014855D02*
X-0014103Y-0014972D01*
Y-0015205D01*
X-0013986Y-0015322D01*
X-001352D01*
X-0013403Y-0015205D01*
Y-0014972D01*
X-001352Y-0014855D01*
X-0013986D01*
Y-0015555D02*
X-0014103Y-0015672D01*
Y-0015905D01*
X-0013986Y-0016021D01*
X-001387D01*
X-0013753Y-0015905D01*
Y-0015788D01*
Y-0015905D01*
X-0013636Y-0016021D01*
X-001352D01*
X-0013403Y-0015905D01*
Y-0015672D01*
X-001352Y-0015555D01*
X-0012108Y-0013572D02*
X-0012807D01*
Y-0013922D01*
X-0012691Y-0014039D01*
X-0012458D01*
X-0012341Y-0013922D01*
Y-0013572D01*
Y-0013806D02*
X-0012108Y-0014039D01*
Y-0014272D02*
Y-0014505D01*
Y-0014389D01*
X-0012807D01*
X-0012691Y-0014272D01*
Y-0014855D02*
X-0012807Y-0014972D01*
Y-0015205D01*
X-0012691Y-0015322D01*
X-0012224D01*
X-0012108Y-0015205D01*
Y-0014972D01*
X-0012224Y-0014855D01*
X-0012691D01*
X-0012108Y-0016021D02*
Y-0015555D01*
X-0012574Y-0016021D01*
X-0012691D01*
X-0012807Y-0015905D01*
Y-0015672D01*
X-0012691Y-0015555D01*
X-0010696Y-0013572D02*
X-0011395D01*
Y-0013922D01*
X-0011279Y-0014039D01*
X-0011045D01*
X-0010929Y-0013922D01*
Y-0013572D01*
Y-0013806D02*
X-0010696Y-0014039D01*
Y-0014272D02*
Y-0014505D01*
Y-0014389D01*
X-0011395D01*
X-0011279Y-0014272D01*
Y-0014855D02*
X-0011395Y-0014972D01*
Y-0015205D01*
X-0011279Y-0015322D01*
X-0010812D01*
X-0010696Y-0015205D01*
Y-0014972D01*
X-0010812Y-0014855D01*
X-0011279D01*
X-0010696Y-0015555D02*
Y-0015788D01*
Y-0015672D01*
X-0011395D01*
X-0011279Y-0015555D01*
X0000666Y0033052D02*
X-0000034D01*
Y0032702D01*
X0000082Y0032586D01*
X0000316D01*
X0000432Y0032702D01*
Y0033052D01*
Y0032819D02*
X0000666Y0032586D01*
Y0031886D02*
Y0032353D01*
X0000199Y0031886D01*
X0000082D01*
X-0000034Y0032003D01*
Y0032236D01*
X0000082Y0032353D01*
X0000666Y0031653D02*
Y003142D01*
Y0031536D01*
X-0000034D01*
X0000082Y0031653D01*
X-0000034Y0030603D02*
Y003107D01*
X0000316D01*
X0000199Y0030836D01*
Y003072D01*
X0000316Y0030603D01*
X0000549D01*
X0000666Y003072D01*
Y0030953D01*
X0000549Y003107D01*
X000174Y0033052D02*
X000104D01*
Y0032702D01*
X0001157Y0032586D01*
X000139D01*
X0001507Y0032702D01*
Y0033052D01*
Y0032819D02*
X000174Y0032586D01*
Y0031886D02*
Y0032353D01*
X0001274Y0031886D01*
X0001157D01*
X000104Y0032003D01*
Y0032236D01*
X0001157Y0032353D01*
X000174Y0031653D02*
Y003142D01*
Y0031536D01*
X000104D01*
X0001157Y0031653D01*
X000104Y0030603D02*
X0001157Y0030836D01*
X000139Y003107D01*
X0001624D01*
X000174Y0030953D01*
Y003072D01*
X0001624Y0030603D01*
X0001507D01*
X000139Y003072D01*
Y003107D01*
X-0000409Y0033052D02*
X-0001109D01*
Y0032702D01*
X-0000992Y0032586D01*
X-0000759D01*
X-0000642Y0032702D01*
Y0033052D01*
Y0032819D02*
X-0000409Y0032586D01*
Y0031886D02*
Y0032353D01*
X-0000876Y0031886D01*
X-0000992D01*
X-0001109Y0032003D01*
Y0032236D01*
X-0000992Y0032353D01*
X-0000409Y0031653D02*
Y003142D01*
Y0031536D01*
X-0001109D01*
X-0000992Y0031653D01*
X-0000409Y003072D02*
X-0001109D01*
X-0000759Y003107D01*
Y0030603D01*
X0022125Y-003325D02*
Y-003255D01*
X0021775D01*
X0021658Y-0032667D01*
Y-00329D01*
X0021775Y-0033017D01*
X0022125D01*
X0021891D02*
X0021658Y-003325D01*
X0020958D02*
X0021425D01*
X0020958Y-0032783D01*
Y-0032667D01*
X0021075Y-003255D01*
X0021308D01*
X0021425Y-0032667D01*
X0020725Y-003325D02*
X0020492D01*
X0020608D01*
Y-003255D01*
X0020725Y-0032667D01*
X0020142D02*
X0020025Y-003255D01*
X0019792D01*
X0019675Y-0032667D01*
Y-0032783D01*
X0019792Y-00329D01*
X0019909D01*
X0019792D01*
X0019675Y-0033017D01*
Y-0033133D01*
X0019792Y-003325D01*
X0020025D01*
X0020142Y-0033133D01*
X-0038009Y-0002325D02*
Y-0001625D01*
X-0038359D01*
X-0038475Y-0001742D01*
Y-0001975D01*
X-0038359Y-0002092D01*
X-0038009D01*
X-0038242D02*
X-0038475Y-0002325D01*
X-0039175D02*
X-0038709D01*
X-0039175Y-0001858D01*
Y-0001742D01*
X-0039058Y-0001625D01*
X-0038825D01*
X-0038709Y-0001742D01*
X-0039408Y-0002325D02*
X-0039642D01*
X-0039525D01*
Y-0001625D01*
X-0039408Y-0001742D01*
X-0040458Y-0002325D02*
X-0039991D01*
X-0040458Y-0001858D01*
Y-0001742D01*
X-0040341Y-0001625D01*
X-0040108D01*
X-0039991Y-0001742D01*
X0021425Y003285D02*
Y003355D01*
X0021075D01*
X0020958Y0033433D01*
Y00332D01*
X0021075Y0033083D01*
X0021425D01*
X0021191D02*
X0020958Y003285D01*
X0020258D02*
X0020725D01*
X0020258Y0033317D01*
Y0033433D01*
X0020375Y003355D01*
X0020608D01*
X0020725Y0033433D01*
X0020025Y003285D02*
X0019792D01*
X0019908D01*
Y003355D01*
X0020025Y0033433D01*
X0019442D02*
X0019325Y003355D01*
X0019092D01*
X0018975Y0033433D01*
Y0032967D01*
X0019092Y003285D01*
X0019325D01*
X0019442Y0032967D01*
Y0033433D01*
X-0036892Y000035D02*
Y000105D01*
X-0037126Y0000817D01*
X-0037359Y000105D01*
Y000035D01*
X-0037592Y000105D02*
X-0037825D01*
X-0037709D01*
Y000035D01*
X-0037592D01*
X-0037825D01*
X-0038642Y0000933D02*
X-0038525Y000105D01*
X-0038292D01*
X-0038175Y0000933D01*
Y0000467D01*
X-0038292Y000035D01*
X-0038525D01*
X-0038642Y0000467D01*
X-0039341Y000035D02*
X-0038875D01*
X-0039341Y0000817D01*
Y0000933D01*
X-0039225Y000105D01*
X-0038992D01*
X-0038875Y0000933D01*
X-0039575D02*
X-0039691Y000105D01*
X-0039925D01*
X-0040041Y0000933D01*
Y0000467D01*
X-0039925Y000035D01*
X-0039691D01*
X-0039575Y0000467D01*
Y0000933D01*
X-0040274Y000035D02*
X-0040508D01*
X-0040391D01*
Y000105D01*
X-0040274Y0000933D01*
X0026524Y-003555D02*
Y-003485D01*
X0026291Y-0035083D01*
X0026058Y-003485D01*
Y-003555D01*
X0025825Y-003485D02*
X0025591D01*
X0025708D01*
Y-003555D01*
X0025825D01*
X0025591D01*
X0024775Y-0034967D02*
X0024892Y-003485D01*
X0025125D01*
X0025241Y-0034967D01*
Y-0035433D01*
X0025125Y-003555D01*
X0024892D01*
X0024775Y-0035433D01*
X0024075Y-003555D02*
X0024542D01*
X0024075Y-0035083D01*
Y-0034967D01*
X0024192Y-003485D01*
X0024425D01*
X0024542Y-0034967D01*
X0023842D02*
X0023725Y-003485D01*
X0023492D01*
X0023375Y-0034967D01*
Y-0035433D01*
X0023492Y-003555D01*
X0023725D01*
X0023842Y-0035433D01*
Y-0034967D01*
X0022676Y-003555D02*
X0023142D01*
X0022676Y-0035083D01*
Y-0034967D01*
X0022792Y-003485D01*
X0023025D01*
X0023142Y-0034967D01*
X001185Y0031383D02*
X001255D01*
Y0030916D01*
X0011967Y0030683D02*
X001185Y0030567D01*
Y0030333D01*
X0011967Y0030217D01*
X0012083D01*
X00122Y0030333D01*
Y003045D01*
Y0030333D01*
X0012317Y0030217D01*
X0012433D01*
X001255Y0030333D01*
Y0030567D01*
X0012433Y0030683D01*
X0011967Y0029983D02*
X001185Y0029867D01*
Y0029633D01*
X0011967Y0029517D01*
X0012433D01*
X001255Y0029633D01*
Y0029867D01*
X0012433Y0029983D01*
X0011967D01*
X001255Y0028817D02*
Y0029284D01*
X0012083Y0028817D01*
X0011967D01*
X001185Y0028934D01*
Y0029167D01*
X0011967Y0029284D01*
X001555Y0031383D02*
X001625D01*
Y0030916D01*
X0015667Y0030683D02*
X001555Y0030567D01*
Y0030333D01*
X0015667Y0030217D01*
X0015783D01*
X00159Y0030333D01*
Y003045D01*
Y0030333D01*
X0016017Y0030217D01*
X0016133D01*
X001625Y0030333D01*
Y0030567D01*
X0016133Y0030683D01*
X0015667Y0029983D02*
X001555Y0029867D01*
Y0029633D01*
X0015667Y0029517D01*
X0016133D01*
X001625Y0029633D01*
Y0029867D01*
X0016133Y0029983D01*
X0015667D01*
X001625Y0029284D02*
Y002905D01*
Y0029167D01*
X001555D01*
X0015667Y0029284D01*
X0015591Y0036333D02*
X0015708Y003645D01*
X0015941D01*
X0016058Y0036333D01*
Y0035867D01*
X0015941Y003575D01*
X0015708D01*
X0015591Y0035867D01*
X0015358Y0036333D02*
X0015242Y003645D01*
X0015008D01*
X0014892Y0036333D01*
Y0036217D01*
X0015008Y00361D01*
X0015125D01*
X0015008D01*
X0014892Y0035983D01*
Y0035867D01*
X0015008Y003575D01*
X0015242D01*
X0015358Y0035867D01*
X0014658Y003575D02*
X0014425D01*
X0014542D01*
Y003645D01*
X0014658Y0036333D01*
X0013609Y003575D02*
X0014075D01*
X0013609Y0036217D01*
Y0036333D01*
X0013725Y003645D01*
X0013959D01*
X0014075Y0036333D01*
X-0039084Y0002233D02*
X-0038967Y000235D01*
X-0038734D01*
X-0038617Y0002233D01*
Y0001767D01*
X-0038734Y000165D01*
X-0038967D01*
X-0039084Y0001767D01*
X-0039783Y000165D02*
X-0039317D01*
X-0039783Y0002117D01*
Y0002233D01*
X-0039667Y000235D01*
X-0039433D01*
X-0039317Y0002233D01*
X-0040483Y000165D02*
X-0040017D01*
X-0040483Y0002117D01*
Y0002233D01*
X-0040367Y000235D01*
X-0040133D01*
X-0040017Y0002233D01*
X-0040716D02*
X-0040833Y000235D01*
X-0041066D01*
X-0041183Y0002233D01*
Y0002117D01*
X-0041066Y0002D01*
X-0041183Y0001883D01*
Y0001767D01*
X-0041066Y000165D01*
X-0040833D01*
X-0040716Y0001767D01*
Y0001883D01*
X-0040833Y0002D01*
X-0040716Y0002117D01*
Y0002233D01*
X-0040833Y0002D02*
X-0041066D01*
X0017916Y-0035567D02*
X0018033Y-003545D01*
X0018266D01*
X0018383Y-0035567D01*
Y-0036033D01*
X0018266Y-003615D01*
X0018033D01*
X0017916Y-0036033D01*
X0017217Y-003615D02*
X0017683D01*
X0017217Y-0035683D01*
Y-0035567D01*
X0017333Y-003545D01*
X0017567D01*
X0017683Y-0035567D01*
X0016517Y-003615D02*
X0016983D01*
X0016517Y-0035683D01*
Y-0035567D01*
X0016633Y-003545D01*
X0016867D01*
X0016983Y-0035567D01*
X0016284Y-0036033D02*
X0016167Y-003615D01*
X0015934D01*
X0015817Y-0036033D01*
Y-0035567D01*
X0015934Y-003545D01*
X0016167D01*
X0016284Y-0035567D01*
Y-0035683D01*
X0016167Y-00358D01*
X0015817D01*
X0024216Y0033733D02*
X0024333Y003385D01*
X0024566D01*
X0024683Y0033733D01*
Y0033267D01*
X0024566Y003315D01*
X0024333D01*
X0024216Y0033267D01*
X0023517Y003315D02*
X0023983D01*
X0023517Y0033617D01*
Y0033733D01*
X0023633Y003385D01*
X0023867D01*
X0023983Y0033733D01*
X0022817Y003315D02*
X0023283D01*
X0022817Y0033617D01*
Y0033733D01*
X0022933Y003385D01*
X0023167D01*
X0023283Y0033733D01*
X0022117Y003385D02*
X0022584D01*
Y00335D01*
X002235Y0033617D01*
X0022234D01*
X0022117Y00335D01*
Y0033267D01*
X0022234Y003315D01*
X0022467D01*
X0022584Y0033267D01*
D81*
X0009801Y000475D02*
X00101Y0004451D01*
X00085Y-0002434D02*
X00101Y-0004034D01*
X00085Y-0004228D02*
X00101Y-0002628D01*
X00085Y000475D02*
X00101D01*
X00085Y-000475D02*
Y000475D01*
Y-0003848D02*
X0009402Y-000475D01*
X00101Y000475D02*
X00101Y-000475D01*
X0009392D02*
X00101Y-0004042D01*
X0009392Y-000475D02*
X00101Y-0004042D01*
X00085Y-000475D02*
Y000475D01*
Y-000475D02*
X00101D01*
X00085Y0001429D02*
X00101Y0003029D01*
X00085Y0003223D02*
X00101Y0001623D01*
X00085Y0001809D02*
X00101Y0000209D01*
X00085Y0004637D02*
X00101Y0003037D01*
X00085Y0004257D02*
X0008993Y000475D01*
X00085Y0002843D02*
X00101Y0004443D01*
X00085Y-000102D02*
X00101Y-000262D01*
X00085Y0000394D02*
X00101Y-0001206D01*
X00085Y-0002814D02*
X00101Y-0001214D01*
X00085Y0000015D02*
X00101Y0001615D01*
X00085Y-00014D02*
X00101Y00002D01*
X-00015Y-000475D02*
X0003D01*
X-00015Y000475D02*
X0003D01*
M02*
