G04*
G04 #@! TF.GenerationSoftware,Altium Limited,Altium Designer,21.8.1 (53)*
G04*
G04 Layer_Color=8388736*
%FSTAX43Y43*%
%MOMM*%
G71*
G04*
G04 #@! TF.SameCoordinates,6DCA0702-E8A1-45D8-905D-7E8CEDC4C78A*
G04*
G04*
G04 #@! TF.FilePolarity,Negative*
G04*
G01*
G75*
%ADD17R,0.250X0.350*%
%ADD18R,0.350X0.250*%
G04:AMPARAMS|DCode=19|XSize=0.6mm|YSize=0.5mm|CornerRadius=0.05mm|HoleSize=0mm|Usage=FLASHONLY|Rotation=0.000|XOffset=0mm|YOffset=0mm|HoleType=Round|Shape=RoundedRectangle|*
%AMROUNDEDRECTD19*
21,1,0.600,0.400,0,0,0.0*
21,1,0.500,0.500,0,0,0.0*
1,1,0.100,0.250,-0.200*
1,1,0.100,-0.250,-0.200*
1,1,0.100,-0.250,0.200*
1,1,0.100,0.250,0.200*
%
%ADD19ROUNDEDRECTD19*%
G04:AMPARAMS|DCode=20|XSize=0.6mm|YSize=0.5mm|CornerRadius=0.05mm|HoleSize=0mm|Usage=FLASHONLY|Rotation=270.000|XOffset=0mm|YOffset=0mm|HoleType=Round|Shape=RoundedRectangle|*
%AMROUNDEDRECTD20*
21,1,0.600,0.400,0,0,270.0*
21,1,0.500,0.500,0,0,270.0*
1,1,0.100,-0.200,-0.250*
1,1,0.100,-0.200,0.250*
1,1,0.100,0.200,0.250*
1,1,0.100,0.200,-0.250*
%
%ADD20ROUNDEDRECTD20*%
G04:AMPARAMS|DCode=21|XSize=0.95mm|YSize=0.75mm|CornerRadius=0.075mm|HoleSize=0mm|Usage=FLASHONLY|Rotation=180.000|XOffset=0mm|YOffset=0mm|HoleType=Round|Shape=RoundedRectangle|*
%AMROUNDEDRECTD21*
21,1,0.950,0.600,0,0,180.0*
21,1,0.800,0.750,0,0,180.0*
1,1,0.150,-0.400,0.300*
1,1,0.150,0.400,0.300*
1,1,0.150,0.400,-0.300*
1,1,0.150,-0.400,-0.300*
%
%ADD21ROUNDEDRECTD21*%
G04:AMPARAMS|DCode=22|XSize=0.6mm|YSize=0.5mm|CornerRadius=0.05mm|HoleSize=0mm|Usage=FLASHONLY|Rotation=315.000|XOffset=0mm|YOffset=0mm|HoleType=Round|Shape=RoundedRectangle|*
%AMROUNDEDRECTD22*
21,1,0.600,0.400,0,0,315.0*
21,1,0.500,0.500,0,0,315.0*
1,1,0.100,0.035,-0.318*
1,1,0.100,-0.318,0.035*
1,1,0.100,-0.035,0.318*
1,1,0.100,0.318,-0.035*
%
%ADD22ROUNDEDRECTD22*%
G04:AMPARAMS|DCode=23|XSize=0.6mm|YSize=0.5mm|CornerRadius=0.05mm|HoleSize=0mm|Usage=FLASHONLY|Rotation=45.000|XOffset=0mm|YOffset=0mm|HoleType=Round|Shape=RoundedRectangle|*
%AMROUNDEDRECTD23*
21,1,0.600,0.400,0,0,45.0*
21,1,0.500,0.500,0,0,45.0*
1,1,0.100,0.318,0.035*
1,1,0.100,-0.035,-0.318*
1,1,0.100,-0.318,-0.035*
1,1,0.100,0.035,0.318*
%
%ADD23ROUNDEDRECTD23*%
%ADD24R,1.430X0.200*%
G04:AMPARAMS|DCode=25|XSize=0.95mm|YSize=0.75mm|CornerRadius=0.075mm|HoleSize=0mm|Usage=FLASHONLY|Rotation=270.000|XOffset=0mm|YOffset=0mm|HoleType=Round|Shape=RoundedRectangle|*
%AMROUNDEDRECTD25*
21,1,0.950,0.600,0,0,270.0*
21,1,0.800,0.750,0,0,270.0*
1,1,0.150,-0.300,-0.400*
1,1,0.150,-0.300,0.400*
1,1,0.150,0.300,0.400*
1,1,0.150,0.300,-0.400*
%
%ADD25ROUNDEDRECTD25*%
G04:AMPARAMS|DCode=26|XSize=1.45mm|YSize=0.95mm|CornerRadius=0.095mm|HoleSize=0mm|Usage=FLASHONLY|Rotation=90.000|XOffset=0mm|YOffset=0mm|HoleType=Round|Shape=RoundedRectangle|*
%AMROUNDEDRECTD26*
21,1,1.450,0.760,0,0,90.0*
21,1,1.260,0.950,0,0,90.0*
1,1,0.190,0.380,0.630*
1,1,0.190,0.380,-0.630*
1,1,0.190,-0.380,-0.630*
1,1,0.190,-0.380,0.630*
%
%ADD26ROUNDEDRECTD26*%
G04:AMPARAMS|DCode=27|XSize=2.7mm|YSize=0.95mm|CornerRadius=0.095mm|HoleSize=0mm|Usage=FLASHONLY|Rotation=270.000|XOffset=0mm|YOffset=0mm|HoleType=Round|Shape=RoundedRectangle|*
%AMROUNDEDRECTD27*
21,1,2.700,0.760,0,0,270.0*
21,1,2.510,0.950,0,0,270.0*
1,1,0.190,-0.380,-1.255*
1,1,0.190,-0.380,1.255*
1,1,0.190,0.380,1.255*
1,1,0.190,0.380,-1.255*
%
%ADD27ROUNDEDRECTD27*%
G04:AMPARAMS|DCode=28|XSize=0.95mm|YSize=0.75mm|CornerRadius=0.075mm|HoleSize=0mm|Usage=FLASHONLY|Rotation=315.000|XOffset=0mm|YOffset=0mm|HoleType=Round|Shape=RoundedRectangle|*
%AMROUNDEDRECTD28*
21,1,0.950,0.600,0,0,315.0*
21,1,0.800,0.750,0,0,315.0*
1,1,0.150,0.071,-0.495*
1,1,0.150,-0.495,0.071*
1,1,0.150,-0.071,0.495*
1,1,0.150,0.495,-0.071*
%
%ADD28ROUNDEDRECTD28*%
G04:AMPARAMS|DCode=29|XSize=1.45mm|YSize=0.95mm|CornerRadius=0.095mm|HoleSize=0mm|Usage=FLASHONLY|Rotation=180.000|XOffset=0mm|YOffset=0mm|HoleType=Round|Shape=RoundedRectangle|*
%AMROUNDEDRECTD29*
21,1,1.450,0.760,0,0,180.0*
21,1,1.260,0.950,0,0,180.0*
1,1,0.190,-0.630,0.380*
1,1,0.190,0.630,0.380*
1,1,0.190,0.630,-0.380*
1,1,0.190,-0.630,-0.380*
%
%ADD29ROUNDEDRECTD29*%
%ADD30R,1.450X3.000*%
G04:AMPARAMS|DCode=31|XSize=0.55mm|YSize=0.9mm|CornerRadius=0.055mm|HoleSize=0mm|Usage=FLASHONLY|Rotation=180.000|XOffset=0mm|YOffset=0mm|HoleType=Round|Shape=RoundedRectangle|*
%AMROUNDEDRECTD31*
21,1,0.550,0.790,0,0,180.0*
21,1,0.440,0.900,0,0,180.0*
1,1,0.110,-0.220,0.395*
1,1,0.110,0.220,0.395*
1,1,0.110,0.220,-0.395*
1,1,0.110,-0.220,-0.395*
%
%ADD31ROUNDEDRECTD31*%
G04:AMPARAMS|DCode=32|XSize=1.4mm|YSize=1.95mm|CornerRadius=0.14mm|HoleSize=0mm|Usage=FLASHONLY|Rotation=90.000|XOffset=0mm|YOffset=0mm|HoleType=Round|Shape=RoundedRectangle|*
%AMROUNDEDRECTD32*
21,1,1.400,1.670,0,0,90.0*
21,1,1.120,1.950,0,0,90.0*
1,1,0.280,0.835,0.560*
1,1,0.280,0.835,-0.560*
1,1,0.280,-0.835,-0.560*
1,1,0.280,-0.835,0.560*
%
%ADD32ROUNDEDRECTD32*%
%ADD33R,1.950X4.400*%
G04:AMPARAMS|DCode=34|XSize=0.5mm|YSize=0.65mm|CornerRadius=0.05mm|HoleSize=0mm|Usage=FLASHONLY|Rotation=270.000|XOffset=0mm|YOffset=0mm|HoleType=Round|Shape=RoundedRectangle|*
%AMROUNDEDRECTD34*
21,1,0.500,0.550,0,0,270.0*
21,1,0.400,0.650,0,0,270.0*
1,1,0.100,-0.275,-0.200*
1,1,0.100,-0.275,0.200*
1,1,0.100,0.275,0.200*
1,1,0.100,0.275,-0.200*
%
%ADD34ROUNDEDRECTD34*%
G04:AMPARAMS|DCode=35|XSize=0.4mm|YSize=1.5mm|CornerRadius=0.1mm|HoleSize=0mm|Usage=FLASHONLY|Rotation=0.000|XOffset=0mm|YOffset=0mm|HoleType=Round|Shape=RoundedRectangle|*
%AMROUNDEDRECTD35*
21,1,0.400,1.300,0,0,0.0*
21,1,0.200,1.500,0,0,0.0*
1,1,0.200,0.100,-0.650*
1,1,0.200,-0.100,-0.650*
1,1,0.200,-0.100,0.650*
1,1,0.200,0.100,0.650*
%
%ADD35ROUNDEDRECTD35*%
G04:AMPARAMS|DCode=36|XSize=0.6mm|YSize=0.85mm|CornerRadius=0.06mm|HoleSize=0mm|Usage=FLASHONLY|Rotation=180.000|XOffset=0mm|YOffset=0mm|HoleType=Round|Shape=RoundedRectangle|*
%AMROUNDEDRECTD36*
21,1,0.600,0.730,0,0,180.0*
21,1,0.480,0.850,0,0,180.0*
1,1,0.120,-0.240,0.365*
1,1,0.120,0.240,0.365*
1,1,0.120,0.240,-0.365*
1,1,0.120,-0.240,-0.365*
%
%ADD36ROUNDEDRECTD36*%
G04:AMPARAMS|DCode=37|XSize=0.55mm|YSize=1.35mm|CornerRadius=0.028mm|HoleSize=0mm|Usage=FLASHONLY|Rotation=180.000|XOffset=0mm|YOffset=0mm|HoleType=Round|Shape=RoundedRectangle|*
%AMROUNDEDRECTD37*
21,1,0.550,1.295,0,0,180.0*
21,1,0.495,1.350,0,0,180.0*
1,1,0.055,-0.248,0.648*
1,1,0.055,0.248,0.648*
1,1,0.055,0.248,-0.648*
1,1,0.055,-0.248,-0.648*
%
%ADD37ROUNDEDRECTD37*%
G04:AMPARAMS|DCode=38|XSize=0.2mm|YSize=0.85mm|CornerRadius=0mm|HoleSize=0mm|Usage=FLASHONLY|Rotation=45.000|XOffset=0mm|YOffset=0mm|HoleType=Round|Shape=Round|*
%AMOVALD38*
21,1,0.650,0.200,0.000,0.000,135.0*
1,1,0.200,0.230,-0.230*
1,1,0.200,-0.230,0.230*
%
%ADD38OVALD38*%

G04:AMPARAMS|DCode=39|XSize=0.2mm|YSize=0.85mm|CornerRadius=0mm|HoleSize=0mm|Usage=FLASHONLY|Rotation=315.000|XOffset=0mm|YOffset=0mm|HoleType=Round|Shape=Round|*
%AMOVALD39*
21,1,0.650,0.200,0.000,0.000,45.0*
1,1,0.200,-0.230,-0.230*
1,1,0.200,0.230,0.230*
%
%ADD39OVALD39*%

G04:AMPARAMS|DCode=40|XSize=0.3mm|YSize=0.67mm|CornerRadius=0.03mm|HoleSize=0mm|Usage=FLASHONLY|Rotation=180.000|XOffset=0mm|YOffset=0mm|HoleType=Round|Shape=RoundedRectangle|*
%AMROUNDEDRECTD40*
21,1,0.300,0.610,0,0,180.0*
21,1,0.240,0.670,0,0,180.0*
1,1,0.060,-0.120,0.305*
1,1,0.060,0.120,0.305*
1,1,0.060,0.120,-0.305*
1,1,0.060,-0.120,-0.305*
%
%ADD40ROUNDEDRECTD40*%
G04:AMPARAMS|DCode=41|XSize=1.8mm|YSize=1.05mm|CornerRadius=0.105mm|HoleSize=0mm|Usage=FLASHONLY|Rotation=0.000|XOffset=0mm|YOffset=0mm|HoleType=Round|Shape=RoundedRectangle|*
%AMROUNDEDRECTD41*
21,1,1.800,0.840,0,0,0.0*
21,1,1.590,1.050,0,0,0.0*
1,1,0.210,0.795,-0.420*
1,1,0.210,-0.795,-0.420*
1,1,0.210,-0.795,0.420*
1,1,0.210,0.795,0.420*
%
%ADD41ROUNDEDRECTD41*%
G04:AMPARAMS|DCode=42|XSize=2.7mm|YSize=0.95mm|CornerRadius=0.095mm|HoleSize=0mm|Usage=FLASHONLY|Rotation=0.000|XOffset=0mm|YOffset=0mm|HoleType=Round|Shape=RoundedRectangle|*
%AMROUNDEDRECTD42*
21,1,2.700,0.760,0,0,0.0*
21,1,2.510,0.950,0,0,0.0*
1,1,0.190,1.255,-0.380*
1,1,0.190,-1.255,-0.380*
1,1,0.190,-1.255,0.380*
1,1,0.190,1.255,0.380*
%
%ADD42ROUNDEDRECTD42*%
G04:AMPARAMS|DCode=43|XSize=0.8mm|YSize=1.5mm|CornerRadius=0.2mm|HoleSize=0mm|Usage=FLASHONLY|Rotation=180.000|XOffset=0mm|YOffset=0mm|HoleType=Round|Shape=RoundedRectangle|*
%AMROUNDEDRECTD43*
21,1,0.800,1.100,0,0,180.0*
21,1,0.400,1.500,0,0,180.0*
1,1,0.400,-0.200,0.550*
1,1,0.400,0.200,0.550*
1,1,0.400,0.200,-0.550*
1,1,0.400,-0.200,-0.550*
%
%ADD43ROUNDEDRECTD43*%
G04:AMPARAMS|DCode=44|XSize=2.61mm|YSize=3.5mm|CornerRadius=0.131mm|HoleSize=0mm|Usage=FLASHONLY|Rotation=90.000|XOffset=0mm|YOffset=0mm|HoleType=Round|Shape=RoundedRectangle|*
%AMROUNDEDRECTD44*
21,1,2.610,3.239,0,0,90.0*
21,1,2.349,3.500,0,0,90.0*
1,1,0.261,1.620,1.175*
1,1,0.261,1.620,-1.175*
1,1,0.261,-1.620,-1.175*
1,1,0.261,-1.620,1.175*
%
%ADD44ROUNDEDRECTD44*%
G04:AMPARAMS|DCode=45|XSize=0.95mm|YSize=2.4mm|CornerRadius=0.095mm|HoleSize=0mm|Usage=FLASHONLY|Rotation=0.000|XOffset=0mm|YOffset=0mm|HoleType=Round|Shape=RoundedRectangle|*
%AMROUNDEDRECTD45*
21,1,0.950,2.210,0,0,0.0*
21,1,0.760,2.400,0,0,0.0*
1,1,0.190,0.380,-1.105*
1,1,0.190,-0.380,-1.105*
1,1,0.190,-0.380,1.105*
1,1,0.190,0.380,1.105*
%
%ADD45ROUNDEDRECTD45*%
G04:AMPARAMS|DCode=46|XSize=3.05mm|YSize=2.05mm|CornerRadius=0.205mm|HoleSize=0mm|Usage=FLASHONLY|Rotation=270.000|XOffset=0mm|YOffset=0mm|HoleType=Round|Shape=RoundedRectangle|*
%AMROUNDEDRECTD46*
21,1,3.050,1.640,0,0,270.0*
21,1,2.640,2.050,0,0,270.0*
1,1,0.410,-0.820,-1.320*
1,1,0.410,-0.820,1.320*
1,1,0.410,0.820,1.320*
1,1,0.410,0.820,-1.320*
%
%ADD46ROUNDEDRECTD46*%
%ADD47R,4.400X1.950*%
%ADD48O,0.200X0.800*%
%ADD49O,0.800X0.200*%
G04:AMPARAMS|DCode=50|XSize=0.85mm|YSize=0.85mm|CornerRadius=0.17mm|HoleSize=0mm|Usage=FLASHONLY|Rotation=180.000|XOffset=0mm|YOffset=0mm|HoleType=Round|Shape=RoundedRectangle|*
%AMROUNDEDRECTD50*
21,1,0.850,0.510,0,0,180.0*
21,1,0.510,0.850,0,0,180.0*
1,1,0.340,-0.255,0.255*
1,1,0.340,0.255,0.255*
1,1,0.340,0.255,-0.255*
1,1,0.340,-0.255,-0.255*
%
%ADD50ROUNDEDRECTD50*%
G04:AMPARAMS|DCode=51|XSize=1.4mm|YSize=1.15mm|CornerRadius=0.058mm|HoleSize=0mm|Usage=FLASHONLY|Rotation=0.000|XOffset=0mm|YOffset=0mm|HoleType=Round|Shape=RoundedRectangle|*
%AMROUNDEDRECTD51*
21,1,1.400,1.035,0,0,0.0*
21,1,1.285,1.150,0,0,0.0*
1,1,0.115,0.643,-0.518*
1,1,0.115,-0.643,-0.518*
1,1,0.115,-0.643,0.518*
1,1,0.115,0.643,0.518*
%
%ADD51ROUNDEDRECTD51*%
%ADD52O,0.400X1.200*%
G04:AMPARAMS|DCode=53|XSize=0.55mm|YSize=0.9mm|CornerRadius=0.055mm|HoleSize=0mm|Usage=FLASHONLY|Rotation=90.000|XOffset=0mm|YOffset=0mm|HoleType=Round|Shape=RoundedRectangle|*
%AMROUNDEDRECTD53*
21,1,0.550,0.790,0,0,90.0*
21,1,0.440,0.900,0,0,90.0*
1,1,0.110,0.395,0.220*
1,1,0.110,0.395,-0.220*
1,1,0.110,-0.395,-0.220*
1,1,0.110,-0.395,0.220*
%
%ADD53ROUNDEDRECTD53*%
G04:AMPARAMS|DCode=54|XSize=0.5mm|YSize=0.65mm|CornerRadius=0.05mm|HoleSize=0mm|Usage=FLASHONLY|Rotation=180.000|XOffset=0mm|YOffset=0mm|HoleType=Round|Shape=RoundedRectangle|*
%AMROUNDEDRECTD54*
21,1,0.500,0.550,0,0,180.0*
21,1,0.400,0.650,0,0,180.0*
1,1,0.100,-0.200,0.275*
1,1,0.100,0.200,0.275*
1,1,0.100,0.200,-0.275*
1,1,0.100,-0.200,-0.275*
%
%ADD54ROUNDEDRECTD54*%
G04:AMPARAMS|DCode=55|XSize=0.6mm|YSize=0.7mm|CornerRadius=0.06mm|HoleSize=0mm|Usage=FLASHONLY|Rotation=90.000|XOffset=0mm|YOffset=0mm|HoleType=Round|Shape=RoundedRectangle|*
%AMROUNDEDRECTD55*
21,1,0.600,0.580,0,0,90.0*
21,1,0.480,0.700,0,0,90.0*
1,1,0.120,0.290,0.240*
1,1,0.120,0.290,-0.240*
1,1,0.120,-0.290,-0.240*
1,1,0.120,-0.290,0.240*
%
%ADD55ROUNDEDRECTD55*%
G04:AMPARAMS|DCode=56|XSize=0.6mm|YSize=0.7mm|CornerRadius=0.06mm|HoleSize=0mm|Usage=FLASHONLY|Rotation=0.000|XOffset=0mm|YOffset=0mm|HoleType=Round|Shape=RoundedRectangle|*
%AMROUNDEDRECTD56*
21,1,0.600,0.580,0,0,0.0*
21,1,0.480,0.700,0,0,0.0*
1,1,0.120,0.240,-0.290*
1,1,0.120,-0.240,-0.290*
1,1,0.120,-0.240,0.290*
1,1,0.120,0.240,0.290*
%
%ADD56ROUNDEDRECTD56*%
G04:AMPARAMS|DCode=57|XSize=0.45mm|YSize=1.5mm|CornerRadius=0.113mm|HoleSize=0mm|Usage=FLASHONLY|Rotation=180.000|XOffset=0mm|YOffset=0mm|HoleType=Round|Shape=RoundedRectangle|*
%AMROUNDEDRECTD57*
21,1,0.450,1.275,0,0,180.0*
21,1,0.225,1.500,0,0,180.0*
1,1,0.225,-0.113,0.638*
1,1,0.225,0.113,0.638*
1,1,0.225,0.113,-0.638*
1,1,0.225,-0.113,-0.638*
%
%ADD57ROUNDEDRECTD57*%
G04:AMPARAMS|DCode=58|XSize=5.18mm|YSize=3.1mm|CornerRadius=0.078mm|HoleSize=0mm|Usage=FLASHONLY|Rotation=180.000|XOffset=0mm|YOffset=0mm|HoleType=Round|Shape=RoundedRectangle|*
%AMROUNDEDRECTD58*
21,1,5.180,2.945,0,0,180.0*
21,1,5.025,3.100,0,0,180.0*
1,1,0.155,-2.513,1.473*
1,1,0.155,2.513,1.473*
1,1,0.155,2.513,-1.473*
1,1,0.155,-2.513,-1.473*
%
%ADD58ROUNDEDRECTD58*%
G04:AMPARAMS|DCode=59|XSize=0.45mm|YSize=1.5mm|CornerRadius=0.113mm|HoleSize=0mm|Usage=FLASHONLY|Rotation=270.000|XOffset=0mm|YOffset=0mm|HoleType=Round|Shape=RoundedRectangle|*
%AMROUNDEDRECTD59*
21,1,0.450,1.275,0,0,270.0*
21,1,0.225,1.500,0,0,270.0*
1,1,0.225,-0.638,-0.113*
1,1,0.225,-0.638,0.113*
1,1,0.225,0.638,0.113*
1,1,0.225,0.638,-0.113*
%
%ADD59ROUNDEDRECTD59*%
G04:AMPARAMS|DCode=60|XSize=5.18mm|YSize=3.1mm|CornerRadius=0.078mm|HoleSize=0mm|Usage=FLASHONLY|Rotation=270.000|XOffset=0mm|YOffset=0mm|HoleType=Round|Shape=RoundedRectangle|*
%AMROUNDEDRECTD60*
21,1,5.180,2.945,0,0,270.0*
21,1,5.025,3.100,0,0,270.0*
1,1,0.155,-1.473,-2.513*
1,1,0.155,-1.473,2.513*
1,1,0.155,1.473,2.513*
1,1,0.155,1.473,-2.513*
%
%ADD60ROUNDEDRECTD60*%
%ADD61R,3.000X1.450*%
%ADD62C,2.000*%
%ADD63C,1.200*%
%ADD64P,10.465X4X360.0*%
%ADD65R,3.800X3.800*%
%ADD66R,6.170X2.400*%
%ADD67C,1.000*%
%ADD68C,1.800*%
%ADD69C,5.500*%
%ADD70O,1.400X1.950*%
%ADD71O,1.600X3.500*%
%ADD72O,3.500X1.600*%
%ADD73C,1.600*%
%ADD74C,0.900*%
%ADD75C,5.200*%
D17*
X-000875Y-0022975D02*
D03*
X-000925D02*
D03*
X-000975D02*
D03*
Y-0020525D02*
D03*
X-000925D02*
D03*
X-000875D02*
D03*
D18*
X-0010475Y-002275D02*
D03*
Y-002225D02*
D03*
Y-002175D02*
D03*
Y-002125D02*
D03*
Y-002075D02*
D03*
X-0008025D02*
D03*
Y-002125D02*
D03*
Y-002175D02*
D03*
Y-002225D02*
D03*
Y-002275D02*
D03*
D19*
X-0007Y-00222D02*
D03*
Y-00213D02*
D03*
X-0014475Y-00281D02*
D03*
Y-0029D02*
D03*
X-0011725Y0028D02*
D03*
Y00289D02*
D03*
X-00129Y-003695D02*
D03*
X-00129Y-003785D02*
D03*
X0034Y000675D02*
D03*
Y000765D02*
D03*
X00322Y000765D02*
D03*
Y000675D02*
D03*
X0029325Y-00099D02*
D03*
X0029325Y-00108D02*
D03*
X0013575Y-0012325D02*
D03*
Y-0011425D02*
D03*
X00056Y-001175D02*
D03*
Y-001085D02*
D03*
X0005774Y-0006599D02*
D03*
Y-0007499D02*
D03*
X0004825Y-00066D02*
D03*
Y-00075D02*
D03*
X0011689Y00214D02*
D03*
Y00223D02*
D03*
X0019489Y00223D02*
D03*
Y00214D02*
D03*
X00081Y00214D02*
D03*
X00081Y00223D02*
D03*
X-00089Y004345D02*
D03*
Y004255D02*
D03*
X-00098Y004345D02*
D03*
Y004255D02*
D03*
X00136Y002135D02*
D03*
Y002225D02*
D03*
X0019525Y00196D02*
D03*
Y00187D02*
D03*
X0013675Y0019575D02*
D03*
Y0018675D02*
D03*
X-00133Y003075D02*
D03*
Y002985D02*
D03*
Y002895D02*
D03*
Y002805D02*
D03*
X0012725Y0018675D02*
D03*
Y0019575D02*
D03*
X0008Y-0014525D02*
D03*
Y-0013625D02*
D03*
X00331Y000765D02*
D03*
Y000675D02*
D03*
X00349D02*
D03*
Y000765D02*
D03*
X0020475Y00196D02*
D03*
Y00187D02*
D03*
X0020439Y00223D02*
D03*
Y00214D02*
D03*
X00127Y002225D02*
D03*
Y002135D02*
D03*
X-000055Y00293D02*
D03*
Y00284D02*
D03*
X0014925Y-0023D02*
D03*
Y-00221D02*
D03*
X0015925Y-0023D02*
D03*
Y-00221D02*
D03*
D20*
X-0009775Y-0025D02*
D03*
X-0010675D02*
D03*
X-00175Y-002865D02*
D03*
X-00166D02*
D03*
X-00089Y-00334D02*
D03*
X-0008D02*
D03*
X-001645Y-00334D02*
D03*
X-001735D02*
D03*
X00193Y-0019325D02*
D03*
X00202D02*
D03*
X0029375Y-0007975D02*
D03*
X0028475D02*
D03*
X0030275Y-000895D02*
D03*
X0031175D02*
D03*
X-001735Y-00312D02*
D03*
X-001645D02*
D03*
X-0016899Y0031616D02*
D03*
X-0015999D02*
D03*
X000555Y00336D02*
D03*
X000645D02*
D03*
X000355Y00416D02*
D03*
X000445D02*
D03*
X000625D02*
D03*
X000535D02*
D03*
X00195Y-000755D02*
D03*
X00186D02*
D03*
X001955Y00205D02*
D03*
X002045D02*
D03*
X00127Y0020475D02*
D03*
X00136D02*
D03*
X00032Y00336D02*
D03*
X00041D02*
D03*
X-00204Y002825D02*
D03*
X-00195D02*
D03*
X001655Y0014975D02*
D03*
X001565D02*
D03*
X001655Y0015875D02*
D03*
X001565D02*
D03*
X001395Y0015875D02*
D03*
X001485D02*
D03*
Y0014975D02*
D03*
X001395D02*
D03*
X-00098Y-0024D02*
D03*
X-00107D02*
D03*
X-0039175Y-00196D02*
D03*
X-0038275D02*
D03*
X003285Y-00014D02*
D03*
X003375D02*
D03*
X003125Y00068D02*
D03*
X003035D02*
D03*
X0028475Y-000895D02*
D03*
X0029375D02*
D03*
X00202Y-0018325D02*
D03*
X00193D02*
D03*
D21*
X00182Y-00269D02*
D03*
Y-00255D02*
D03*
X-0016975Y003565D02*
D03*
Y003705D02*
D03*
X-0022075Y003565D02*
D03*
Y003705D02*
D03*
X0006625Y-00309D02*
D03*
Y-00295D02*
D03*
X00293Y-0024975D02*
D03*
Y-0026375D02*
D03*
X0005599Y-0008475D02*
D03*
Y-0009875D02*
D03*
X0014739Y0020775D02*
D03*
Y0022175D02*
D03*
X00194Y00329D02*
D03*
Y00315D02*
D03*
X00168Y003155D02*
D03*
Y003295D02*
D03*
X00155D02*
D03*
Y003155D02*
D03*
X000415Y00152D02*
D03*
Y00166D02*
D03*
X00129Y00315D02*
D03*
Y00329D02*
D03*
X00069Y-0013D02*
D03*
Y-00144D02*
D03*
X000285Y00152D02*
D03*
Y00166D02*
D03*
D22*
X-0000524Y0038583D02*
D03*
X0000112Y003922D02*
D03*
X-0012191Y003328D02*
D03*
X-0012828Y0032644D02*
D03*
X-0003034Y0041094D02*
D03*
X-0002398Y004173D02*
D03*
X-0010141Y0031088D02*
D03*
X-0010777Y0030452D02*
D03*
X-0003741Y0041801D02*
D03*
X-0003105Y0042437D02*
D03*
X-0011131Y0032219D02*
D03*
X-0011767Y0031583D02*
D03*
X-0010607Y-0028407D02*
D03*
X-0011243Y-0029043D02*
D03*
D23*
X-0014382Y0037282D02*
D03*
X-0015018Y0037918D02*
D03*
X0000182Y0034718D02*
D03*
X0000818Y0034082D02*
D03*
X-0001973Y0032538D02*
D03*
X-0001337Y0031901D02*
D03*
X-0004218Y0030318D02*
D03*
X-0003582Y0029682D02*
D03*
X0000077Y0033316D02*
D03*
X-0000559Y0033952D02*
D03*
X-0011482Y0040232D02*
D03*
X-0012118Y0040868D02*
D03*
X-0013924Y0040316D02*
D03*
X-001456Y0040952D02*
D03*
X-0012793Y0040193D02*
D03*
X-0012157Y0039557D02*
D03*
X-0015903Y0039609D02*
D03*
X-0015267Y0038972D02*
D03*
X-0015232Y0040281D02*
D03*
X-0014595Y0039644D02*
D03*
X-0013216Y0038407D02*
D03*
X-0013853Y0039043D02*
D03*
D24*
X-003599Y00021D02*
D03*
Y00017D02*
D03*
Y00013D02*
D03*
Y00009D02*
D03*
Y00005D02*
D03*
Y00001D02*
D03*
Y-00003D02*
D03*
Y-00011D02*
D03*
Y-00015D02*
D03*
Y-00019D02*
D03*
Y-00023D02*
D03*
Y-00007D02*
D03*
Y-00027D02*
D03*
Y-00031D02*
D03*
Y-00035D02*
D03*
Y-00039D02*
D03*
Y-00043D02*
D03*
Y-00047D02*
D03*
Y-00055D02*
D03*
Y-00059D02*
D03*
Y-00063D02*
D03*
Y-00067D02*
D03*
Y-00051D02*
D03*
Y-00071D02*
D03*
Y-00083D02*
D03*
Y-00087D02*
D03*
X-003361Y-00083D02*
D03*
Y-00087D02*
D03*
X-003599Y-00091D02*
D03*
Y-00095D02*
D03*
Y-00099D02*
D03*
Y-00103D02*
D03*
Y-00107D02*
D03*
Y-00111D02*
D03*
Y-00115D02*
D03*
Y-00119D02*
D03*
Y-00123D02*
D03*
X-003361Y-00091D02*
D03*
Y-00095D02*
D03*
Y-00099D02*
D03*
Y-00103D02*
D03*
Y-00107D02*
D03*
Y-00111D02*
D03*
Y-00115D02*
D03*
Y-00119D02*
D03*
Y-00123D02*
D03*
X-003599Y-00075D02*
D03*
Y-00079D02*
D03*
X-003361D02*
D03*
Y-00075D02*
D03*
X-003599Y00073D02*
D03*
Y00069D02*
D03*
Y00065D02*
D03*
Y00061D02*
D03*
Y00057D02*
D03*
Y00053D02*
D03*
Y00049D02*
D03*
Y00045D02*
D03*
Y00041D02*
D03*
Y00033D02*
D03*
Y00029D02*
D03*
Y00025D02*
D03*
Y00037D02*
D03*
X-003361Y00029D02*
D03*
Y00025D02*
D03*
Y00021D02*
D03*
Y00017D02*
D03*
Y00013D02*
D03*
Y00009D02*
D03*
Y00005D02*
D03*
Y00001D02*
D03*
Y-00003D02*
D03*
Y-00011D02*
D03*
Y-00015D02*
D03*
Y-00007D02*
D03*
Y-00019D02*
D03*
Y-00023D02*
D03*
Y-00027D02*
D03*
Y-00031D02*
D03*
Y-00035D02*
D03*
Y-00039D02*
D03*
Y-00043D02*
D03*
Y-00047D02*
D03*
Y-00051D02*
D03*
Y-00055D02*
D03*
Y-00063D02*
D03*
Y-00067D02*
D03*
Y-00059D02*
D03*
Y-00071D02*
D03*
Y00073D02*
D03*
Y00069D02*
D03*
Y00065D02*
D03*
Y00061D02*
D03*
Y00057D02*
D03*
Y00053D02*
D03*
Y00049D02*
D03*
Y00041D02*
D03*
Y00037D02*
D03*
Y00033D02*
D03*
Y00045D02*
D03*
X000039D02*
D03*
Y00033D02*
D03*
Y00037D02*
D03*
Y00041D02*
D03*
Y00049D02*
D03*
Y00053D02*
D03*
Y00057D02*
D03*
Y00061D02*
D03*
Y00065D02*
D03*
Y00069D02*
D03*
Y00073D02*
D03*
Y-00071D02*
D03*
Y-00059D02*
D03*
Y-00067D02*
D03*
Y-00063D02*
D03*
Y-00055D02*
D03*
Y-00051D02*
D03*
Y-00047D02*
D03*
Y-00043D02*
D03*
Y-00039D02*
D03*
Y-00035D02*
D03*
Y-00031D02*
D03*
Y-00027D02*
D03*
Y-00023D02*
D03*
Y-00019D02*
D03*
Y-00007D02*
D03*
Y-00015D02*
D03*
Y-00011D02*
D03*
Y-00003D02*
D03*
Y00001D02*
D03*
Y00005D02*
D03*
Y00009D02*
D03*
Y00013D02*
D03*
Y00017D02*
D03*
Y00021D02*
D03*
Y00025D02*
D03*
Y00029D02*
D03*
X-000199Y00037D02*
D03*
Y00025D02*
D03*
Y00029D02*
D03*
Y00033D02*
D03*
Y00041D02*
D03*
Y00045D02*
D03*
Y00049D02*
D03*
Y00053D02*
D03*
Y00057D02*
D03*
Y00061D02*
D03*
Y00073D02*
D03*
X000039Y-00075D02*
D03*
Y-00079D02*
D03*
X-000199D02*
D03*
Y-00075D02*
D03*
X000039Y-00123D02*
D03*
Y-00119D02*
D03*
Y-00115D02*
D03*
Y-00111D02*
D03*
Y-00107D02*
D03*
Y-00103D02*
D03*
Y-00099D02*
D03*
Y-00095D02*
D03*
Y-00091D02*
D03*
X-000199Y-00123D02*
D03*
Y-00119D02*
D03*
Y-00115D02*
D03*
Y-00111D02*
D03*
Y-00107D02*
D03*
Y-00103D02*
D03*
Y-00099D02*
D03*
Y-00095D02*
D03*
Y-00091D02*
D03*
X000039Y-00087D02*
D03*
Y-00083D02*
D03*
X-000199Y-00087D02*
D03*
Y-00083D02*
D03*
Y-00071D02*
D03*
Y-00051D02*
D03*
Y-00067D02*
D03*
Y-00063D02*
D03*
Y-00059D02*
D03*
Y-00055D02*
D03*
Y-00047D02*
D03*
Y-00043D02*
D03*
Y-00039D02*
D03*
Y-00035D02*
D03*
Y-00031D02*
D03*
Y-00027D02*
D03*
Y-00007D02*
D03*
Y-00023D02*
D03*
Y-00019D02*
D03*
Y-00015D02*
D03*
Y-00011D02*
D03*
Y-00003D02*
D03*
Y00001D02*
D03*
Y00005D02*
D03*
Y00009D02*
D03*
Y00013D02*
D03*
Y00017D02*
D03*
Y00021D02*
D03*
Y00069D02*
D03*
Y00065D02*
D03*
D25*
X-0040123Y0010794D02*
D03*
X-0041523Y0010794D02*
D03*
X-0040123Y0005694D02*
D03*
X-0041523Y0005694D02*
D03*
X00281Y-0028175D02*
D03*
X00267D02*
D03*
X00302Y-000145D02*
D03*
X00288D02*
D03*
X-0039775Y00025D02*
D03*
X-0038375D02*
D03*
X00297Y0008D02*
D03*
X00311D02*
D03*
X00215Y-0016675D02*
D03*
X00229D02*
D03*
X0009825Y-00321D02*
D03*
X0008425D02*
D03*
D26*
X-00384Y-0008D02*
D03*
X-004D02*
D03*
X-00384Y-00098D02*
D03*
X-004D02*
D03*
X0010675Y-00143D02*
D03*
X0012275D02*
D03*
X0010675Y-0012475D02*
D03*
X0012275D02*
D03*
X00075Y-0007925D02*
D03*
X00091D02*
D03*
D27*
X0017525Y-0033D02*
D03*
X0014725D02*
D03*
X0006925Y-00343D02*
D03*
X0009725D02*
D03*
X0031175Y-0003625D02*
D03*
X0033975D02*
D03*
X0027075Y-0003625D02*
D03*
X0029875D02*
D03*
D28*
X-0008479Y0029285D02*
D03*
X-0009469Y0028295D02*
D03*
X-0005855Y0029045D02*
D03*
X-0006845Y0028055D02*
D03*
X-0014666Y0033634D02*
D03*
X-0013676Y0034624D02*
D03*
X-0001695Y0040705D02*
D03*
X-0000705Y0041695D02*
D03*
X-0010388Y0029214D02*
D03*
X-0009398Y0030204D02*
D03*
D29*
X0018113Y0020775D02*
D03*
Y0022375D02*
D03*
X0016289Y0020775D02*
D03*
Y0022375D02*
D03*
X00102Y0028475D02*
D03*
Y0030075D02*
D03*
X00102Y0031375D02*
D03*
Y0032975D02*
D03*
X00221Y0031375D02*
D03*
Y0032975D02*
D03*
X-0004775Y-0034025D02*
D03*
Y-0032425D02*
D03*
X00221Y0028475D02*
D03*
Y0030075D02*
D03*
D30*
X00056Y00255D02*
D03*
X00056Y003065D02*
D03*
X00267Y0031875D02*
D03*
Y0026725D02*
D03*
D31*
X-0041323Y0009444D02*
D03*
X-0039423D02*
D03*
X-0040373Y0007044D02*
D03*
X-0039423Y0007044D02*
D03*
X-0041323D02*
D03*
X0007Y-001185D02*
D03*
X00089D02*
D03*
X000795D02*
D03*
X00089Y-000945D02*
D03*
X0007D02*
D03*
X000795D02*
D03*
D32*
X0036075Y-00062D02*
D03*
X0039525D02*
D03*
X0036075Y-00093D02*
D03*
X0039525D02*
D03*
D33*
X00252Y-0004475D02*
D03*
X001925D02*
D03*
D34*
X-004025Y-001785D02*
D03*
X-003835Y-00172D02*
D03*
Y-00185D02*
D03*
X000555Y0007025D02*
D03*
Y0008325D02*
D03*
X000365Y0007675D02*
D03*
D35*
X000765Y001D02*
D03*
X0007D02*
D03*
X00057D02*
D03*
X000635D02*
D03*
X00083D02*
D03*
D36*
X-002095Y002945D02*
D03*
X-001905D02*
D03*
X-002Y003155D02*
D03*
D37*
X0007305Y00402D02*
D03*
X0006035Y00402D02*
D03*
X0004765Y00402D02*
D03*
X0003495Y00402D02*
D03*
X0007305Y0035D02*
D03*
X0006035Y0035D02*
D03*
X0004765Y0035D02*
D03*
X0003495Y0035D02*
D03*
D38*
X-0009363Y0039927D02*
D03*
X-001007Y003922D02*
D03*
X-0009716Y0039573D02*
D03*
X-0009009Y0040281D02*
D03*
X-0007241Y0042048D02*
D03*
X-0007595Y0041695D02*
D03*
X-0007949Y0041341D02*
D03*
X-0008302Y0040988D02*
D03*
X-0008656Y0040634D02*
D03*
X-0010423Y0038866D02*
D03*
X-0010777Y0038513D02*
D03*
X-0011131Y0038159D02*
D03*
X-0011484Y0037806D02*
D03*
X-0011838Y0037452D02*
D03*
X-0012191Y0037099D02*
D03*
X-0012545Y0036745D02*
D03*
X-0006251Y0030452D02*
D03*
X-0005898Y0030805D02*
D03*
X-0005544Y0031159D02*
D03*
X-0005191Y0031512D02*
D03*
X-0004837Y0031866D02*
D03*
X-0004484Y0032219D02*
D03*
X-000413Y0032573D02*
D03*
X-0003777Y0032927D02*
D03*
X-0003423Y003328D02*
D03*
X-0003069Y0033634D02*
D03*
X-0002716Y0033987D02*
D03*
X-0002362Y0034341D02*
D03*
X-0002009Y0034694D02*
D03*
X-0001655Y0035048D02*
D03*
X-0001302Y0035401D02*
D03*
X-0000948Y0035755D02*
D03*
D39*
X-0012545D02*
D03*
X-0012191Y0035401D02*
D03*
X-0011838Y0035048D02*
D03*
X-0011484Y0034694D02*
D03*
X-0011131Y0034341D02*
D03*
X-0010777Y0033987D02*
D03*
X-0010423Y0033634D02*
D03*
X-001007Y003328D02*
D03*
X-0009716Y0032927D02*
D03*
X-0009363Y0032573D02*
D03*
X-0009009Y0032219D02*
D03*
X-0008656Y0031866D02*
D03*
X-0008302Y0031512D02*
D03*
X-0007949Y0031159D02*
D03*
X-0007595Y0030805D02*
D03*
X-0007241Y0030452D02*
D03*
X-0000948Y0036745D02*
D03*
X-0001302Y0037099D02*
D03*
X-0001655Y0037452D02*
D03*
X-0002009Y0037806D02*
D03*
X-0002362Y0038159D02*
D03*
X-0002716Y0038513D02*
D03*
X-0003069Y0038866D02*
D03*
X-0003423Y003922D02*
D03*
X-0003777Y0039573D02*
D03*
X-000413Y0039927D02*
D03*
X-0004484Y0040281D02*
D03*
X-0004837Y0040634D02*
D03*
X-0005191Y0040988D02*
D03*
X-0005544Y0041341D02*
D03*
X-0005898Y0041695D02*
D03*
X-0006251Y0042048D02*
D03*
D40*
X0030325Y-001139D02*
D03*
X0030825D02*
D03*
X0031325Y-001139D02*
D03*
Y-000991D02*
D03*
X0030825Y-000991D02*
D03*
X0030325D02*
D03*
D41*
X0033025Y-0011875D02*
D03*
X0033025Y-0009175D02*
D03*
D42*
X00302Y-0017375D02*
D03*
Y-0020175D02*
D03*
X00315Y-0027875D02*
D03*
Y-0025075D02*
D03*
D43*
X0029245Y0000075D02*
D03*
X0030515D02*
D03*
X0031785D02*
D03*
X0033055D02*
D03*
X0029245Y0005325D02*
D03*
X0030515D02*
D03*
X0031785D02*
D03*
X0033055D02*
D03*
D44*
X003115Y00027D02*
D03*
D45*
X00103Y-0010175D02*
D03*
X001225D02*
D03*
D46*
X002712Y0003125D02*
D03*
X001807D02*
D03*
D47*
X001455Y-0002375D02*
D03*
Y0003575D02*
D03*
D48*
X-00143Y-00357D02*
D03*
X-00135D02*
D03*
X-00131D02*
D03*
X-00127D02*
D03*
X-00111D02*
D03*
X-00139D02*
D03*
X-00143Y-00307D02*
D03*
X-00139Y-00307D02*
D03*
X-00135D02*
D03*
X-00131Y-00307D02*
D03*
X-00127D02*
D03*
X-00123Y-00307D02*
D03*
X-00119Y-00307D02*
D03*
X-00115Y-00307D02*
D03*
X-00111Y-00307D02*
D03*
X-00115Y-00357D02*
D03*
X-00119D02*
D03*
X-00123D02*
D03*
D49*
X-00102Y-00348D02*
D03*
X-00102Y-00332D02*
D03*
Y-00336D02*
D03*
X-00152Y-00348D02*
D03*
X-00152Y-00344D02*
D03*
X-00152Y-0034D02*
D03*
Y-00336D02*
D03*
Y-00332D02*
D03*
Y-00328D02*
D03*
X-00152Y-00324D02*
D03*
X-00152Y-0032D02*
D03*
Y-00316D02*
D03*
X-00102Y-0034D02*
D03*
Y-00344D02*
D03*
X-00102Y-00316D02*
D03*
X-00102Y-00324D02*
D03*
Y-00328D02*
D03*
Y-0032D02*
D03*
D50*
X-00102Y-00307D02*
D03*
X-00152D02*
D03*
Y-00357D02*
D03*
X-00102D02*
D03*
D51*
X-0016902Y0030374D02*
D03*
X-0014702D02*
D03*
Y0028774D02*
D03*
X-0016902D02*
D03*
D52*
X0020389Y0030025D02*
D03*
X0019739D02*
D03*
X0019089D02*
D03*
X0018439D02*
D03*
X0017789D02*
D03*
X0017139D02*
D03*
X0016489D02*
D03*
X0015839D02*
D03*
X0015189D02*
D03*
X0014539D02*
D03*
X0013889D02*
D03*
X0013239D02*
D03*
X0012589D02*
D03*
X0011939D02*
D03*
X0020389Y0024325D02*
D03*
X0019739D02*
D03*
X0019089D02*
D03*
X0018439D02*
D03*
X0017789D02*
D03*
X0017139D02*
D03*
X0016489D02*
D03*
X0015839D02*
D03*
X0015189D02*
D03*
X0014539D02*
D03*
X0013889D02*
D03*
X0013239D02*
D03*
X0012589D02*
D03*
X0011939D02*
D03*
D53*
X-001835Y0036846D02*
D03*
Y0034946D02*
D03*
X-002075Y0035896D02*
D03*
X-002075Y0034946D02*
D03*
X-002075Y0036846D02*
D03*
D54*
X000925Y0020325D02*
D03*
X001055D02*
D03*
X00099Y0022225D02*
D03*
D55*
X0013575Y-00105D02*
D03*
Y-000955D02*
D03*
D56*
X0021325Y-000755D02*
D03*
X0020375D02*
D03*
D57*
X0016625Y-00247D02*
D03*
X0015975D02*
D03*
X0015325D02*
D03*
X0014675D02*
D03*
X0014025D02*
D03*
X0013375D02*
D03*
X0012725D02*
D03*
X0008175D02*
D03*
X0016625Y-00305D02*
D03*
X0015975D02*
D03*
X0015325D02*
D03*
X0014675D02*
D03*
X0014025D02*
D03*
X0013375D02*
D03*
X0012725D02*
D03*
X0012075D02*
D03*
X0011425D02*
D03*
X0010775D02*
D03*
X0010125D02*
D03*
X0009475D02*
D03*
X0008825D02*
D03*
X0008175D02*
D03*
X0012075Y-00247D02*
D03*
X0010125D02*
D03*
X0009475D02*
D03*
X0008825D02*
D03*
X0010775D02*
D03*
X0011425D02*
D03*
D58*
X00124Y-00276D02*
D03*
D59*
X00219Y-0018175D02*
D03*
Y-0018825D02*
D03*
Y-0019475D02*
D03*
Y-0020125D02*
D03*
Y-0020775D02*
D03*
Y-0021425D02*
D03*
Y-0022075D02*
D03*
Y-0026625D02*
D03*
X00277Y-0018175D02*
D03*
Y-0018825D02*
D03*
Y-0019475D02*
D03*
Y-0020125D02*
D03*
Y-0020775D02*
D03*
Y-0021425D02*
D03*
Y-0022075D02*
D03*
Y-0022725D02*
D03*
Y-0023375D02*
D03*
Y-0024025D02*
D03*
Y-0024675D02*
D03*
Y-0025325D02*
D03*
Y-0025975D02*
D03*
Y-0026625D02*
D03*
X00219Y-0022725D02*
D03*
Y-0024675D02*
D03*
Y-0025325D02*
D03*
Y-0025975D02*
D03*
Y-0024025D02*
D03*
Y-0023375D02*
D03*
D60*
X00248Y-00224D02*
D03*
D61*
X0020725Y-00123D02*
D03*
X0025875D02*
D03*
D62*
X000325Y-0013D02*
D03*
X00346Y0027D02*
D03*
X0026Y-0031D02*
D03*
D63*
X-0041375Y-000585D02*
D03*
X-00389Y-00041D02*
D03*
X-0011525Y-00393D02*
D03*
X-0015285Y-0038475D02*
D03*
X-0019125Y003975D02*
D03*
X00398Y0008D02*
D03*
X00155Y-001425D02*
D03*
X0014775Y-0004475D02*
D03*
X0042Y0008D02*
D03*
X-00176Y00406D02*
D03*
X-001015Y-004225D02*
D03*
X-0039725Y-001545D02*
D03*
D64*
X-0006746Y003625D02*
D03*
D65*
X-00127Y-00332D02*
D03*
D66*
X0016164Y0027175D02*
D03*
D67*
X-0022283Y-0036869D02*
D03*
X-0024331Y-0035435D02*
D03*
X-0023307Y-0036152D02*
D03*
X-0027416Y-0032859D02*
D03*
X-0029184Y-0031091D02*
D03*
X-00283Y-0031975D02*
D03*
X002175Y-0037672D02*
D03*
X-00435Y0D02*
D03*
D68*
X00159Y0038D02*
D03*
X001844D02*
D03*
X0013453Y-0039343D02*
D03*
X0008547Y-0040657D02*
D03*
X0011Y-004D02*
D03*
X002342Y001423D02*
D03*
Y001677D02*
D03*
X002596Y001423D02*
D03*
X00285D02*
D03*
X003104D02*
D03*
X003358D02*
D03*
X002596Y001677D02*
D03*
X00285D02*
D03*
X003104D02*
D03*
X003358D02*
D03*
X-0006265Y-004225D02*
D03*
X-0003725D02*
D03*
X-0001185D02*
D03*
X0001355D02*
D03*
X0003895D02*
D03*
X003358Y002227D02*
D03*
X003104D02*
D03*
X00285D02*
D03*
X002596D02*
D03*
X003358Y001973D02*
D03*
X003104D02*
D03*
X00285D02*
D03*
X002596D02*
D03*
X002342Y002227D02*
D03*
Y001973D02*
D03*
X000993Y0038D02*
D03*
X001247D02*
D03*
X00365Y-00213D02*
D03*
X0037808Y-0019123D02*
D03*
X0035192Y-0023477D02*
D03*
D69*
X0039Y-0014D02*
D03*
Y0014D02*
D03*
D70*
X0010575Y001089D02*
D03*
X0003425D02*
D03*
D71*
X0035275Y0D02*
D03*
X004225D02*
D03*
D72*
X00382Y00047D02*
D03*
D73*
X004Y-000127D02*
D03*
Y000127D02*
D03*
D74*
X0021747Y0037674D02*
D03*
D75*
X-00013Y0024D02*
D03*
X-00343D02*
D03*
X-00013Y-0024D02*
D03*
X-00343D02*
D03*
M02*
