G04*
G04 #@! TF.GenerationSoftware,Altium Limited,Altium Designer,21.8.1 (53)*
G04*
G04 Layer_Color=65535*
%FSTAX43Y43*%
%MOMM*%
G71*
G04*
G04 #@! TF.SameCoordinates,4D8E118D-B1AD-4882-94AF-A7B266F95968*
G04*
G04*
G04 #@! TF.FilePolarity,Positive*
G04*
G01*
G75*
%ADD10C,0.200*%
%ADD11C,0.250*%
%ADD12C,0.600*%
%ADD13C,0.150*%
%ADD14C,0.100*%
%ADD15C,0.175*%
%ADD16C,0.170*%
D10*
X-000745Y-002295D02*
G03*
X-000745Y-002295I-00001J0D01*
G01*
X0008775Y002015D02*
G03*
X0008775Y002015I-000005J0D01*
G01*
X-0021Y0037421D02*
G03*
X-0021Y0037421I-000005J0D01*
G01*
X-0016802Y0027774D02*
G03*
X-0016802Y0027774I-00001J0D01*
G01*
X0006475Y-001215D02*
G03*
X0006475Y-001215I-000005J0D01*
G01*
X000385Y003665D02*
G03*
X000385Y003665I-00003J0D01*
G01*
X-0021475Y0029175D02*
G03*
X-0021475Y0029175I-000005J0D01*
G01*
X-0041848Y0006744D02*
G03*
X-0041848Y0006744I-000005J0D01*
G01*
X-0009445Y-0022265D02*
X-0008735Y-0021555D01*
X-0009765Y-0022265D02*
X-0009445D01*
X-0009765D02*
Y-0021235D01*
X-0008735D01*
Y-0021555D02*
Y-0021235D01*
X0011Y0021D02*
Y002195D01*
X00088Y0021D02*
Y002195D01*
X0009275D01*
X0010525D02*
X0011D01*
X-00203Y0037421D02*
X-00188D01*
X-00203Y0034371D02*
X-00188D01*
Y0035521D02*
Y0036271D01*
X0006425Y-00114D02*
Y-00099D01*
X0009475Y-00114D02*
Y-00099D01*
X0032175Y-0011025D02*
Y-0010025D01*
X0033875Y-0011025D02*
Y-0010025D01*
X00029Y003595D02*
X00079D01*
X00029Y003925D02*
X00079D01*
X00029Y003595D02*
Y003925D01*
X00079Y003595D02*
Y003925D01*
X-0020375Y002975D02*
X-0019625D01*
X-0019375Y003125D02*
X-0018475D01*
X-0021525D02*
X-0020625D01*
X-0021525Y002975D02*
Y003125D01*
X-0018475Y002975D02*
Y003125D01*
X0003925Y0008775D02*
X0004875D01*
X0003925Y0006575D02*
X0004875D01*
X0003925D02*
Y000705D01*
Y00083D02*
Y0008775D01*
X-0039975Y-001675D02*
X-0039025D01*
X-0039975Y-001895D02*
X-0039025D01*
X-0039975D02*
Y-0018475D01*
Y-0017225D02*
Y-001675D01*
X-0041898Y0008994D02*
X-0041898Y0007494D01*
X-0038848Y0007494D02*
X-0038848Y0008994D01*
X-0040748Y0008994D02*
X-0039998Y0008994D01*
X0028667Y-002991D02*
Y-002891D01*
X0029001Y-0029244D01*
X0029334Y-002891D01*
Y-002991D01*
X0030167Y-002891D02*
X0029834D01*
X0029667Y-0029077D01*
Y-0029743D01*
X0029834Y-002991D01*
X0030167D01*
X0030334Y-0029743D01*
Y-0029077D01*
X0030167Y-002891D01*
X0030667D02*
X0031333D01*
X0031D01*
Y-002991D01*
X0032166Y-002891D02*
X0031833D01*
X0031666Y-0029077D01*
Y-0029743D01*
X0031833Y-002991D01*
X0032166D01*
X0032333Y-0029743D01*
Y-0029077D01*
X0032166Y-002891D01*
X0032666Y-002991D02*
Y-002891D01*
X0033166D01*
X0033333Y-0029077D01*
Y-002941D01*
X0033166Y-0029577D01*
X0032666D01*
X0032999D02*
X0033333Y-002991D01*
X0030667Y-003059D02*
Y-003159D01*
X0031167D01*
X0031333Y-0031423D01*
Y-0031256D01*
X0031167Y-003109D01*
X0030667D01*
X0031167D01*
X0031333Y-0030923D01*
Y-0030757D01*
X0031167Y-003059D01*
X0030667D01*
X0015742Y-003686D02*
Y-003586D01*
X0016076Y-0036194D01*
X0016409Y-003586D01*
Y-003686D01*
X0017242Y-003586D02*
X0016909D01*
X0016742Y-0036027D01*
Y-0036693D01*
X0016909Y-003686D01*
X0017242D01*
X0017409Y-0036693D01*
Y-0036027D01*
X0017242Y-003586D01*
X0017742D02*
X0018408D01*
X0018075D01*
Y-003686D01*
X0019241Y-003586D02*
X0018908D01*
X0018741Y-0036027D01*
Y-0036693D01*
X0018908Y-003686D01*
X0019241D01*
X0019408Y-0036693D01*
Y-0036027D01*
X0019241Y-003586D01*
X0019741Y-003686D02*
Y-003586D01*
X0020241D01*
X0020408Y-0036027D01*
Y-003636D01*
X0020241Y-0036527D01*
X0019741D01*
X0020074D02*
X0020408Y-003686D01*
X0017742Y-003854D02*
Y-0037873D01*
X0018075Y-003754D01*
X0018408Y-0037873D01*
Y-003854D01*
Y-003804D01*
X0017742D01*
X0008751Y00422D02*
Y0042867D01*
X0009084Y00432D01*
X0009417Y0042867D01*
Y00422D01*
Y00427D01*
X0008751D01*
X000975Y0042867D02*
Y0042367D01*
X0009917Y00422D01*
X0010417D01*
Y0042867D01*
X0011417Y00432D02*
Y00422D01*
X0010917D01*
X001075Y0042367D01*
Y00427D01*
X0010917Y0042867D01*
X0011417D01*
X001175Y00422D02*
X0012083D01*
X0011916D01*
Y0042867D01*
X001175D01*
X0012749Y00422D02*
X0013083D01*
X0013249Y0042367D01*
Y00427D01*
X0013083Y0042867D01*
X0012749D01*
X0012583Y00427D01*
Y0042367D01*
X0012749Y00422D01*
D11*
X0027775Y-0027375D02*
G03*
X0027775Y-0027375I-0000125J0D01*
G01*
X000755Y-003045D02*
G03*
X000755Y-003045I-0000125J0D01*
G01*
X0011314Y0024325D02*
G03*
X0011314Y0024325I-0000125J0D01*
G01*
X0028545Y0000075D02*
G03*
X0028545Y0000075I-0000125J0D01*
G01*
X-0006621Y0042755D02*
G03*
X-0006621Y0042755I-0000125J0D01*
G01*
X0003625Y003385D02*
G03*
X0003625Y003385I-0000125J0D01*
G01*
D12*
X0025975Y-0026325D02*
G03*
X0025975Y-0026325I-00003J0D01*
G01*
X0008775Y-0028475D02*
G03*
X0008775Y-0028475I-00003J0D01*
G01*
D13*
X-0022211Y-0039512D02*
X-002029Y-0036768D01*
X-0024921Y-0033531D02*
X-002029Y-0036768D01*
X-0026842Y-0036275D02*
X-0022211Y-0039512D01*
X-0026842Y-0036275D02*
X-0024921Y-0033531D01*
X-0027805Y-0035475D02*
X-0025436Y-0033106D01*
X-0029434Y-0029114D02*
X-0025436Y-0033106D01*
X-0031802Y-0031482D02*
X-0027805Y-0035475D01*
X-0031802Y-0031482D02*
X-0029434Y-0029114D01*
X-000775Y-002055D02*
Y-002025D01*
X-000805D02*
X-000775D01*
X-001075D02*
X-001045D01*
X-001075Y-002055D02*
Y-002025D01*
Y-002325D02*
Y-002295D01*
Y-002325D02*
X-001045D01*
X-000815D02*
X-000775D01*
X00199Y-00089D02*
X0025D01*
X00199Y-0011275D02*
Y-00089D01*
Y-00157D02*
Y-0013325D01*
Y-00157D02*
X0025362D01*
X00267Y-0011275D02*
Y-0010238D01*
X0025362Y-00157D02*
X00267Y-0014363D01*
Y-0013325D01*
X00302Y-002715D02*
Y-00258D01*
X00328Y-002715D02*
Y-00258D01*
X002665Y-00273D02*
Y-00175D01*
X002295Y-00273D02*
Y-00175D01*
Y-00273D02*
X002665D01*
X002295Y-00175D02*
X002665D01*
X00075Y-002945D02*
X00173D01*
X00075Y-002575D02*
X00173D01*
X00075Y-002945D02*
Y-002575D01*
X00173Y-002945D02*
Y-002575D01*
X0011264Y0025325D02*
X0021064D01*
X0011264Y0029025D02*
X0021064D01*
X0011264Y0025325D02*
Y0029025D01*
X0021064Y0025325D02*
Y0029025D01*
X-00102Y-00299D02*
X-00094D01*
X-00102Y-00365D02*
X-00094D01*
Y-00357D01*
X-0016Y-00365D02*
X-00152D01*
X-0016D02*
Y-00357D01*
Y-00299D02*
X-00152D01*
X-0016Y-00307D02*
Y-00299D01*
X-00094Y-00312D02*
Y-00299D01*
X001245Y00022D02*
X001665D01*
Y-0001D02*
Y00022D01*
X001245Y-0001D02*
Y00022D01*
X0017345Y0005025D02*
Y0008275D01*
X0027845Y0005025D02*
Y0008275D01*
X0017345Y-0002025D02*
X0017345Y0001225D01*
X0027845Y-0002025D02*
Y0001225D01*
X0017345Y0008275D02*
X0027845D01*
X0017345Y-0002025D02*
X0027845D01*
X001105Y-0008975D02*
X00115D01*
X001105Y-0011375D02*
X00115D01*
X003365Y00011D02*
Y00043D01*
X002865Y00011D02*
Y00043D01*
X0035579Y-0015794D02*
X0041536Y-0019374D01*
X0031206Y-0023072D02*
X0035579Y-0015794D01*
X0031206Y-0023072D02*
X0037164Y-0026651D01*
X0041536Y-0019374D01*
X00315Y-001945D02*
Y-00181D01*
X00289Y-001945D02*
Y-00181D01*
X0029975Y-0011375D02*
X0029975Y-00109D01*
Y-00104D02*
X0031675D01*
X0029975Y-00109D02*
X0031675D01*
X0031675Y-00104D02*
X0031675Y-00109D01*
X0029975D02*
Y-00104D01*
X-0013429Y003625D02*
X-0013075Y0035896D01*
X-0013429Y003625D02*
X-0013075Y0036604D01*
X-00071Y0029921D02*
X-0006746Y0029568D01*
X-0006393Y0029921D01*
X-0000418Y0035896D02*
X-0000064Y003625D01*
X-0000418Y0036604D02*
X-0000064Y003625D01*
X0008225Y0034675D02*
X000825Y0041625D01*
X0008225Y0034675D02*
X0014175D01*
Y0041625D01*
X000825D02*
X0014175D01*
X00355Y-000785D02*
X00401D01*
X00355Y-001075D02*
X00401D01*
X00355Y-0008225D02*
Y-000785D01*
X00401Y-0008225D02*
Y-000785D01*
X00355Y-001075D02*
Y-0010375D01*
X00401Y-001075D02*
Y-0010375D01*
X0036125Y-0008225D02*
Y-000785D01*
Y-001075D02*
Y-0010375D01*
X0027725Y00327D02*
X0028762D01*
X00301Y0031362D01*
X00233D02*
X0024637Y00327D01*
X0025675D01*
X00301Y00259D02*
Y0031362D01*
X0027725Y00259D02*
X00301D01*
X00233D02*
X0025675D01*
X00233D02*
Y0031362D01*
X0043625Y-0002975D02*
Y000295D01*
X0036675Y-0002975D02*
X0043625D01*
X0036675D02*
Y0002975D01*
X0043625Y000295D01*
X0035375Y-0004575D02*
X00449D01*
X0035375D02*
Y-0002075D01*
Y0002D02*
Y0004575D01*
X0036125D01*
X0040275D02*
X00449D01*
X0011325Y0009075D02*
Y0009825D01*
X0002675Y0009075D02*
Y0009825D01*
Y0009075D02*
X0011325D01*
Y0011875D02*
Y00134D01*
X0002675Y0011875D02*
Y00134D01*
X0011325D01*
X0020145Y0034675D02*
Y004D01*
X0014195Y0034675D02*
X0020145D01*
X001422Y0041625D02*
X0018D01*
X0022075Y001825D02*
X0035D01*
X003232Y00108D02*
Y00247D01*
X002978Y00108D02*
Y00247D01*
X002724Y00108D02*
Y00247D01*
X00247Y00108D02*
Y00247D01*
X0020625Y-0006575D02*
Y-0002375D01*
X0023825D01*
X0020625Y-0006575D02*
X0023825D01*
X0006039Y-0037887D02*
X001424Y-003569D01*
X0016039Y-0042403D01*
X0007838Y-00446D02*
X0016039Y-0042403D01*
X0006039Y-0037887D02*
X0007838Y-00446D01*
X0014195Y0034675D02*
X001422Y0041625D01*
X00355Y-000475D02*
X00401D01*
X00355Y-000765D02*
X00401D01*
X00355Y-0005125D02*
Y-000475D01*
X00401Y-0005125D02*
Y-000475D01*
X00355Y-000765D02*
Y-0007275D01*
X00401Y-000765D02*
Y-0007275D01*
X0036125Y-0005125D02*
Y-000475D01*
Y-000765D02*
Y-0007275D01*
X00022Y0024675D02*
X00022Y0030137D01*
X00022Y0024675D02*
X0004575D01*
X0006625D02*
X0009D01*
X0009Y0030137D01*
X0003537Y0031475D02*
X0004575D01*
X00022Y0030137D02*
X0003537Y0031475D01*
X0007662D02*
X0009Y0030137D01*
X0006625Y0031475D02*
X0007662D01*
X00278Y-0002325D02*
X002915D01*
X00278Y-0004925D02*
X002915D01*
X00319Y-0002325D02*
X003325D01*
X00319Y-0004925D02*
X003325D01*
X000765Y-0033D02*
X0009D01*
X000765Y-00356D02*
X0009D01*
X001545Y-00343D02*
X00168D01*
X001545Y-00317D02*
X00168D01*
X002297Y001194D02*
X002317D01*
X002307D01*
Y001254D01*
X002297Y001244D01*
X002347D02*
X002357Y001254D01*
X002377D01*
X002387Y001244D01*
Y001234D01*
X002377Y001224D01*
X002367D01*
X002377D01*
X002387Y001214D01*
Y001204D01*
X002377Y001194D01*
X002357D01*
X002347Y001204D01*
X002362Y001086D02*
X002322D01*
X002362Y001126D01*
Y001136D01*
X002352Y001146D01*
X002332D01*
X002322Y001136D01*
X003094Y001194D02*
X003054D01*
X003094Y001234D01*
Y001244D01*
X003084Y001254D01*
X003064D01*
X003054Y001244D01*
X003144Y001194D02*
Y001254D01*
X003114Y001224D01*
X003154D01*
X003124Y001146D02*
X003104Y001136D01*
X003084Y001116D01*
Y001096D01*
X003094Y001086D01*
X003114D01*
X003124Y001096D01*
Y001106D01*
X003114Y001116D01*
X003084D01*
X003348Y001194D02*
X003308D01*
X003348Y001234D01*
Y001244D01*
X003338Y001254D01*
X003318D01*
X003308Y001244D01*
X003408Y001254D02*
X003368D01*
Y001224D01*
X003388Y001234D01*
X003398D01*
X003408Y001224D01*
Y001204D01*
X003398Y001194D01*
X003378D01*
X003368Y001204D01*
X003318Y001136D02*
X003308Y001146D01*
X003288D01*
X003278Y001136D01*
Y001096D01*
X003288Y001086D01*
X003308D01*
X003318Y001096D01*
Y001116D01*
X003298D01*
X003338Y001086D02*
Y001146D01*
X003378Y001086D01*
Y001146D01*
X003398D02*
Y001086D01*
X003428D01*
X003438Y001096D01*
Y001136D01*
X003428Y001146D01*
X003398D01*
X0003575Y003235D02*
Y003305D01*
X0003925D01*
X0004042Y0032933D01*
Y00327D01*
X0003925Y0032583D01*
X0003575D01*
X0003809D02*
X0004042Y003235D01*
X0004742D02*
X0004275D01*
X0004742Y0032817D01*
Y0032933D01*
X0004625Y003305D01*
X0004392D01*
X0004275Y0032933D01*
X0004975Y003235D02*
X0005208D01*
X0005092D01*
Y003305D01*
X0004975Y0032933D01*
X0005558D02*
X0005675Y003305D01*
X0005908D01*
X0006025Y0032933D01*
Y0032817D01*
X0005908Y00327D01*
X0006025Y0032583D01*
Y0032467D01*
X0005908Y003235D01*
X0005675D01*
X0005558Y0032467D01*
Y0032583D01*
X0005675Y00327D01*
X0005558Y0032817D01*
Y0032933D01*
X0005675Y00327D02*
X0005908D01*
X00284Y001194D02*
X0028D01*
X00284Y001234D01*
Y001244D01*
X00283Y001254D01*
X00281D01*
X0028Y001244D01*
X00286D02*
X00287Y001254D01*
X00289D01*
X0029Y001244D01*
Y001234D01*
X00289Y001224D01*
X00288D01*
X00289D01*
X0029Y001214D01*
Y001204D01*
X00289Y001194D01*
X00287D01*
X00286Y001204D01*
X00287Y001146D02*
X00283D01*
Y001116D01*
X00285Y001126D01*
X00286D01*
X00287Y001116D01*
Y001096D01*
X00286Y001086D01*
X00284D01*
X00283Y001096D01*
X002586Y001194D02*
X002546D01*
X002586Y001234D01*
Y001244D01*
X002576Y001254D01*
X002556D01*
X002546Y001244D01*
X002646Y001194D02*
X002606D01*
X002646Y001234D01*
Y001244D01*
X002636Y001254D01*
X002616D01*
X002606Y001244D01*
X002576Y001136D02*
X002586Y001146D01*
X002606D01*
X002616Y001136D01*
Y001126D01*
X002606Y001116D01*
X002596D01*
X002606D01*
X002616Y001106D01*
Y001096D01*
X002606Y001086D01*
X002586D01*
X002576Y001096D01*
X003024Y002504D02*
Y002564D01*
X003054D01*
X003064Y002554D01*
Y002534D01*
X003054Y002524D01*
X003024D01*
X003044D02*
X003064Y002504D01*
X003084Y002564D02*
X003124Y002504D01*
Y002564D02*
X003084Y002504D01*
X003144Y002554D02*
X003154Y002564D01*
X003174D01*
X003184Y002554D01*
Y002514D01*
X003174Y002504D01*
X003154D01*
X003144Y002514D01*
Y002554D01*
X003024Y002456D02*
X003064D01*
X003044D01*
Y002396D01*
X003084Y002456D02*
X003124Y002396D01*
Y002456D02*
X003084Y002396D01*
X003144Y002446D02*
X003154Y002456D01*
X003174D01*
X003184Y002446D01*
Y002406D01*
X003174Y002396D01*
X003154D01*
X003144Y002406D01*
Y002446D01*
X-0020266Y-0038375D02*
X-00205D01*
X-0020383D01*
Y-0038958D01*
X-00205Y-0039075D01*
X-0020616D01*
X-0020733Y-0038958D01*
X-0019683Y-0039075D02*
Y-0038375D01*
X-0020033Y-0038725D01*
X-0019567D01*
X-0019333Y-0038492D02*
X-0019217Y-0038375D01*
X-0018983D01*
X-0018867Y-0038492D01*
Y-0038958D01*
X-0018983Y-0039075D01*
X-0019217D01*
X-0019333Y-0038958D01*
Y-0038492D01*
X-0018284Y-0039075D02*
Y-0038375D01*
X-0018634Y-0038725D01*
X-0018167D01*
X-0013883Y-0025325D02*
Y-0024625D01*
X-0013533D01*
X-0013416Y-0024742D01*
Y-0024975D01*
X-0013533Y-0025092D01*
X-0013883D01*
X-001365D02*
X-0013416Y-0025325D01*
X-0012833D02*
Y-0024625D01*
X-0013183Y-0024975D01*
X-0012717D01*
X-0012483Y-0024742D02*
X-0012367Y-0024625D01*
X-0012133D01*
X-0012017Y-0024742D01*
Y-0025208D01*
X-0012133Y-0025325D01*
X-0012367D01*
X-0012483Y-0025208D01*
Y-0024742D01*
X-0011317Y-0025325D02*
X-0011784D01*
X-0011317Y-0024858D01*
Y-0024742D01*
X-0011434Y-0024625D01*
X-0011667D01*
X-0011784Y-0024742D01*
X-0015266Y-0026942D02*
X-0015383Y-0026825D01*
X-0015616D01*
X-0015733Y-0026942D01*
Y-0027408D01*
X-0015616Y-0027525D01*
X-0015383D01*
X-0015266Y-0027408D01*
X-0014683Y-0027525D02*
Y-0026825D01*
X-0015033Y-0027175D01*
X-0014567D01*
X-0014333Y-0026942D02*
X-0014217Y-0026825D01*
X-0013983D01*
X-0013867Y-0026942D01*
Y-0027408D01*
X-0013983Y-0027525D01*
X-0014217D01*
X-0014333Y-0027408D01*
Y-0026942D01*
X-0013167Y-0026825D02*
X-00134Y-0026942D01*
X-0013634Y-0027175D01*
Y-0027408D01*
X-0013517Y-0027525D01*
X-0013284D01*
X-0013167Y-0027408D01*
Y-0027292D01*
X-0013284Y-0027175D01*
X-0013634D01*
X0030733Y-0022242D02*
X003085Y-0022125D01*
Y-0021892D01*
X0030733Y-0021775D01*
X0030267D01*
X003015Y-0021892D01*
Y-0022125D01*
X0030267Y-0022242D01*
X003015Y-0022825D02*
X003085D01*
X00305Y-0022475D01*
Y-0022942D01*
X003015Y-0023175D02*
Y-0023408D01*
Y-0023292D01*
X003085D01*
X0030733Y-0023175D01*
X003015Y-0024108D02*
X003085D01*
X00305Y-0023758D01*
Y-0024225D01*
X003825Y0008483D02*
X003895D01*
Y0008133D01*
X0038833Y0008016D01*
X00386D01*
X0038483Y0008133D01*
Y0008483D01*
Y000825D02*
X003825Y0008016D01*
X003895Y0007317D02*
Y0007783D01*
X00386D01*
X0038717Y000755D01*
Y0007433D01*
X00386Y0007317D01*
X0038367D01*
X003825Y0007433D01*
Y0007667D01*
X0038367Y0007783D01*
X0038833Y0007083D02*
X003895Y0006967D01*
Y0006733D01*
X0038833Y0006617D01*
X0038367D01*
X003825Y0006733D01*
Y0006967D01*
X0038367Y0007083D01*
X0038833D01*
X003825Y0005917D02*
Y0006384D01*
X0038717Y0005917D01*
X0038833D01*
X003895Y0006034D01*
Y0006267D01*
X0038833Y0006384D01*
X000655Y-0015434D02*
X000725D01*
Y-0015784D01*
X0007133Y-00159D01*
X00069D01*
X0006783Y-0015784D01*
Y-0015434D01*
Y-0015667D02*
X000655Y-00159D01*
X000725Y-00166D02*
Y-0016133D01*
X00069D01*
X0007017Y-0016367D01*
Y-0016483D01*
X00069Y-00166D01*
X0006667D01*
X000655Y-0016483D01*
Y-001625D01*
X0006667Y-0016133D01*
X0007133Y-0016833D02*
X000725Y-001695D01*
Y-0017183D01*
X0007133Y-00173D01*
X0006667D01*
X000655Y-0017183D01*
Y-001695D01*
X0006667Y-0016833D01*
X0007133D01*
X000655Y-0017533D02*
Y-0017766D01*
Y-001765D01*
X000725D01*
X0007133Y-0017533D01*
X003645Y0008483D02*
X003715D01*
Y0008133D01*
X0037033Y0008016D01*
X00368D01*
X0036683Y0008133D01*
Y0008483D01*
Y000825D02*
X003645Y0008016D01*
X003715Y0007317D02*
Y0007783D01*
X00368D01*
X0036917Y000755D01*
Y0007433D01*
X00368Y0007317D01*
X0036567D01*
X003645Y0007433D01*
Y0007667D01*
X0036567Y0007783D01*
X0037033Y0007083D02*
X003715Y0006967D01*
Y0006733D01*
X0037033Y0006617D01*
X0036567D01*
X003645Y0006733D01*
Y0006967D01*
X0036567Y0007083D01*
X0037033D01*
Y0006384D02*
X003715Y0006267D01*
Y0006034D01*
X0037033Y0005917D01*
X0036567D01*
X003645Y0006034D01*
Y0006267D01*
X0036567Y0006384D01*
X0037033D01*
X0032054Y0009633D02*
X0031937Y000975D01*
X0031704D01*
X0031587Y0009633D01*
Y0009167D01*
X0031704Y000905D01*
X0031937D01*
X0032054Y0009167D01*
X0032753Y000975D02*
X0032287D01*
Y00094D01*
X003252Y0009517D01*
X0032637D01*
X0032753Y00094D01*
Y0009167D01*
X0032637Y000905D01*
X0032403D01*
X0032287Y0009167D01*
X0032987Y0009633D02*
X0033103Y000975D01*
X0033336D01*
X0033453Y0009633D01*
Y0009167D01*
X0033336Y000905D01*
X0033103D01*
X0032987Y0009167D01*
Y0009633D01*
X0034036Y000905D02*
Y000975D01*
X0033686Y00094D01*
X0034153D01*
X00323Y0008733D02*
X0032184Y000885D01*
X003195D01*
X0031834Y0008733D01*
Y0008267D01*
X003195Y000815D01*
X0032184D01*
X00323Y0008267D01*
X0033Y000885D02*
X0032533D01*
Y00085D01*
X0032767Y0008617D01*
X0032883D01*
X0033Y00085D01*
Y0008267D01*
X0032883Y000815D01*
X003265D01*
X0032533Y0008267D01*
X0033233Y0008733D02*
X003335Y000885D01*
X0033583D01*
X00337Y0008733D01*
Y0008267D01*
X0033583Y000815D01*
X003335D01*
X0033233Y0008267D01*
Y0008733D01*
X0033933Y000815D02*
X0034166D01*
X003405D01*
Y000885D01*
X0033933Y0008733D01*
X0008233Y-0015884D02*
X000835Y-0015767D01*
Y-0015534D01*
X0008233Y-0015417D01*
X0007767D01*
X000765Y-0015534D01*
Y-0015767D01*
X0007767Y-0015884D01*
X000835Y-0016583D02*
Y-0016117D01*
X0008D01*
X0008117Y-001635D01*
Y-0016467D01*
X0008Y-0016583D01*
X0007767D01*
X000765Y-0016467D01*
Y-0016233D01*
X0007767Y-0016117D01*
X0008233Y-0016817D02*
X000835Y-0016933D01*
Y-0017167D01*
X0008233Y-0017283D01*
X0007767D01*
X000765Y-0017167D01*
Y-0016933D01*
X0007767Y-0016817D01*
X0008233D01*
Y-0017516D02*
X000835Y-0017633D01*
Y-0017866D01*
X0008233Y-0017983D01*
X0007767D01*
X000765Y-0017866D01*
Y-0017633D01*
X0007767Y-0017516D01*
X0008233D01*
X-0010391Y-004045D02*
X-0010625D01*
X-0010508D01*
Y-0041033D01*
X-0010625Y-004115D01*
X-0010741D01*
X-0010858Y-0041033D01*
X-0009808Y-004115D02*
Y-004045D01*
X-0010158Y-00408D01*
X-0009692D01*
X-0009458Y-0040567D02*
X-0009342Y-004045D01*
X-0009108D01*
X-0008992Y-0040567D01*
Y-0041033D01*
X-0009108Y-004115D01*
X-0009342D01*
X-0009458Y-0041033D01*
Y-0040567D01*
X-0008759D02*
X-0008642Y-004045D01*
X-0008409D01*
X-0008292Y-0040567D01*
Y-0040683D01*
X-0008409Y-00408D01*
X-0008525D01*
X-0008409D01*
X-0008292Y-0040917D01*
Y-0041033D01*
X-0008409Y-004115D01*
X-0008642D01*
X-0008759Y-0041033D01*
X0035742Y001925D02*
X0035509D01*
X0035625D01*
Y0018667D01*
X0035509Y001855D01*
X0035392D01*
X0035275Y0018667D01*
X0035975Y001855D02*
X0036208D01*
X0036092D01*
Y001925D01*
X0035975Y0019133D01*
X0036558D02*
X0036675Y001925D01*
X0036908D01*
X0037025Y0019133D01*
Y0018667D01*
X0036908Y001855D01*
X0036675D01*
X0036558Y0018667D01*
Y0019133D01*
X0037725Y001925D02*
X0037258D01*
Y00189D01*
X0037491Y0019017D01*
X0037608D01*
X0037725Y00189D01*
Y0018667D01*
X0037608Y001855D01*
X0037375D01*
X0037258Y0018667D01*
X0035742Y001795D02*
X0035509D01*
X0035625D01*
Y0017367D01*
X0035509Y001725D01*
X0035392D01*
X0035275Y0017367D01*
X0035975Y001725D02*
X0036208D01*
X0036092D01*
Y001795D01*
X0035975Y0017833D01*
X0036558D02*
X0036675Y001795D01*
X0036908D01*
X0037025Y0017833D01*
Y0017367D01*
X0036908Y001725D01*
X0036675D01*
X0036558Y0017367D01*
Y0017833D01*
X0037608Y001725D02*
Y001795D01*
X0037258Y00176D01*
X0037725D01*
X-0010433Y-0019075D02*
Y-0019658D01*
X-0010316Y-0019775D01*
X-0010083D01*
X-0009966Y-0019658D01*
Y-0019075D01*
X-0009267D02*
X-00095Y-0019192D01*
X-0009733Y-0019425D01*
Y-0019658D01*
X-0009617Y-0019775D01*
X-0009383D01*
X-0009267Y-0019658D01*
Y-0019542D01*
X-0009383Y-0019425D01*
X-0009733D01*
X-0009033Y-0019192D02*
X-0008917Y-0019075D01*
X-0008683D01*
X-0008567Y-0019192D01*
Y-0019658D01*
X-0008683Y-0019775D01*
X-0008917D01*
X-0009033Y-0019658D01*
Y-0019192D01*
X-0008334D02*
X-0008217Y-0019075D01*
X-0007984D01*
X-0007867Y-0019192D01*
Y-0019658D01*
X-0007984Y-0019775D01*
X-0008217D01*
X-0008334Y-0019658D01*
Y-0019192D01*
X-0013175Y-0023717D02*
X-0013291Y-00236D01*
X-0013525D01*
X-0013641Y-0023717D01*
Y-0024183D01*
X-0013525Y-00243D01*
X-0013291D01*
X-0013175Y-0024183D01*
X-0012475Y-00236D02*
X-0012708Y-0023717D01*
X-0012942Y-002395D01*
Y-0024183D01*
X-0012825Y-00243D01*
X-0012592D01*
X-0012475Y-0024183D01*
Y-0024067D01*
X-0012592Y-002395D01*
X-0012942D01*
X-0012242Y-0023717D02*
X-0012125Y-00236D01*
X-0011892D01*
X-0011775Y-0023717D01*
Y-0024183D01*
X-0011892Y-00243D01*
X-0012125D01*
X-0012242Y-0024183D01*
Y-0023717D01*
X-0011542Y-00243D02*
X-0011309D01*
X-0011425D01*
Y-00236D01*
X-0011542Y-0023717D01*
X-0005792Y-0020934D02*
X-0005675Y-0020817D01*
Y-0020584D01*
X-0005792Y-0020467D01*
X-0006258D01*
X-0006375Y-0020584D01*
Y-0020817D01*
X-0006258Y-0020934D01*
X-0005675Y-0021633D02*
X-0005792Y-00214D01*
X-0006025Y-0021167D01*
X-0006258D01*
X-0006375Y-0021283D01*
Y-0021517D01*
X-0006258Y-0021633D01*
X-0006142D01*
X-0006025Y-0021517D01*
Y-0021167D01*
X-0005792Y-0021867D02*
X-0005675Y-0021983D01*
Y-0022217D01*
X-0005792Y-0022333D01*
X-0006258D01*
X-0006375Y-0022217D01*
Y-0021983D01*
X-0006258Y-0021867D01*
X-0005792D01*
Y-0022566D02*
X-0005675Y-0022683D01*
Y-0022916D01*
X-0005792Y-0023033D01*
X-0006258D01*
X-0006375Y-0022916D01*
Y-0022683D01*
X-0006258Y-0022566D01*
X-0005792D01*
X0006475Y000705D02*
Y000635D01*
X0006825D01*
X0006942Y0006467D01*
Y0006933D01*
X0006825Y000705D01*
X0006475D01*
X0007175Y000635D02*
X0007408D01*
X0007292D01*
Y000705D01*
X0007175Y0006933D01*
X0007758D02*
X0007875Y000705D01*
X0008108D01*
X0008225Y0006933D01*
Y0006467D01*
X0008108Y000635D01*
X0007875D01*
X0007758Y0006467D01*
Y0006933D01*
X0008458D02*
X0008575Y000705D01*
X0008808D01*
X0008925Y0006933D01*
Y0006467D01*
X0008808Y000635D01*
X0008575D01*
X0008458Y0006467D01*
Y0006933D01*
X-0037425Y-002005D02*
Y-001935D01*
X-0037075D01*
X-0036958Y-0019467D01*
Y-00197D01*
X-0037075Y-0019817D01*
X-0037425D01*
X-0037191D02*
X-0036958Y-002005D01*
X-0036725D02*
X-0036492D01*
X-0036608D01*
Y-001935D01*
X-0036725Y-0019467D01*
X-0036142D02*
X-0036025Y-001935D01*
X-0035792D01*
X-0035675Y-0019467D01*
Y-0019933D01*
X-0035792Y-002005D01*
X-0036025D01*
X-0036142Y-0019933D01*
Y-0019467D01*
X-0035442Y-0019933D02*
X-0035325Y-002005D01*
X-0035092D01*
X-0034975Y-0019933D01*
Y-0019467D01*
X-0035092Y-001935D01*
X-0035325D01*
X-0035442Y-0019467D01*
Y-0019583D01*
X-0035325Y-00197D01*
X-0034975D01*
X-0036958Y-0018833D02*
Y-0018367D01*
X-0037075Y-001825D01*
X-0037308D01*
X-0037425Y-0018367D01*
Y-0018833D01*
X-0037308Y-001895D01*
X-0037075D01*
X-0037191Y-0018717D02*
X-0036958Y-001895D01*
X-0037075D02*
X-0036958Y-0018833D01*
X-0036725Y-001895D02*
X-0036492D01*
X-0036608D01*
Y-001825D01*
X-0036725Y-0018367D01*
X-0036142D02*
X-0036025Y-001825D01*
X-0035792D01*
X-0035675Y-0018367D01*
Y-0018833D01*
X-0035792Y-001895D01*
X-0036025D01*
X-0036142Y-0018833D01*
Y-0018367D01*
X-0035442D02*
X-0035325Y-001825D01*
X-0035092D01*
X-0034975Y-0018367D01*
Y-0018833D01*
X-0035092Y-001895D01*
X-0035325D01*
X-0035442Y-0018833D01*
Y-0018367D01*
X0003142Y001435D02*
X0002909D01*
X0003025D01*
Y0013767D01*
X0002909Y001365D01*
X0002792D01*
X0002675Y0013767D01*
X0003375Y001365D02*
X0003608D01*
X0003492D01*
Y001435D01*
X0003375Y0014233D01*
X0003958D02*
X0004075Y001435D01*
X0004308D01*
X0004425Y0014233D01*
Y0013767D01*
X0004308Y001365D01*
X0004075D01*
X0003958Y0013767D01*
Y0014233D01*
X0004658D02*
X0004775Y001435D01*
X0005008D01*
X0005125Y0014233D01*
Y0014117D01*
X0005008Y0014D01*
X0004891D01*
X0005008D01*
X0005125Y0013883D01*
Y0013767D01*
X0005008Y001365D01*
X0004775D01*
X0004658Y0013767D01*
X0041684Y00056D02*
X004145D01*
X0041567D01*
Y0005017D01*
X004145Y00049D01*
X0041334D01*
X0041217Y0005017D01*
X0042383Y00056D02*
X0041917D01*
Y000525D01*
X004215Y0005367D01*
X0042267D01*
X0042383Y000525D01*
Y0005017D01*
X0042267Y00049D01*
X0042033D01*
X0041917Y0005017D01*
X0042617Y0005483D02*
X0042733Y00056D01*
X0042967D01*
X0043083Y0005483D01*
Y0005017D01*
X0042967Y00049D01*
X0042733D01*
X0042617Y0005017D01*
Y0005483D01*
X0043316D02*
X0043433Y00056D01*
X0043666D01*
X0043783Y0005483D01*
Y0005017D01*
X0043666Y00049D01*
X0043433D01*
X0043316Y0005017D01*
Y0005483D01*
X00418Y000385D02*
X0041567D01*
X0041684D01*
Y0003267D01*
X0041567Y000315D01*
X004145D01*
X0041334Y0003267D01*
X00425Y000385D02*
X0042033D01*
Y00035D01*
X0042267Y0003617D01*
X0042383D01*
X00425Y00035D01*
Y0003267D01*
X0042383Y000315D01*
X004215D01*
X0042033Y0003267D01*
X0042733Y0003733D02*
X004285Y000385D01*
X0043083D01*
X00432Y0003733D01*
Y0003267D01*
X0043083Y000315D01*
X004285D01*
X0042733Y0003267D01*
Y0003733D01*
X0043433Y000315D02*
X0043666D01*
X004355D01*
Y000385D01*
X0043433Y0003733D01*
X0031233Y00293D02*
X003135Y0029416D01*
Y002965D01*
X0031233Y0029766D01*
X0030767D01*
X003065Y002965D01*
Y0029416D01*
X0030767Y00293D01*
X0031233Y0029067D02*
X003135Y002895D01*
Y0028717D01*
X0031233Y00286D01*
X0031117D01*
X0031Y0028717D01*
Y0028833D01*
Y0028717D01*
X0030883Y00286D01*
X0030767D01*
X003065Y0028717D01*
Y002895D01*
X0030767Y0029067D01*
X0031233Y0028367D02*
X003135Y002825D01*
Y0028017D01*
X0031233Y00279D01*
X0030767D01*
X003065Y0028017D01*
Y002825D01*
X0030767Y0028367D01*
X0031233D01*
X003065Y0027667D02*
Y0027434D01*
Y002755D01*
X003135D01*
X0031233Y0027667D01*
X0041217Y-00089D02*
Y-00096D01*
X0041567D01*
X0041684Y-0009483D01*
Y-0009017D01*
X0041567Y-00089D01*
X0041217D01*
X0042383D02*
X0041917D01*
Y-000925D01*
X004215Y-0009133D01*
X0042267D01*
X0042383Y-000925D01*
Y-0009483D01*
X0042267Y-00096D01*
X0042033D01*
X0041917Y-0009483D01*
X0042617Y-0009017D02*
X0042733Y-00089D01*
X0042967D01*
X0043083Y-0009017D01*
Y-0009483D01*
X0042967Y-00096D01*
X0042733D01*
X0042617Y-0009483D01*
Y-0009017D01*
X0043783Y-00089D02*
X0043316D01*
Y-000925D01*
X004355Y-0009133D01*
X0043666D01*
X0043783Y-000925D01*
Y-0009483D01*
X0043666Y-00096D01*
X0043433D01*
X0043316Y-0009483D01*
X0041217Y-00059D02*
Y-00066D01*
X0041567D01*
X0041684Y-0006483D01*
Y-0006017D01*
X0041567Y-00059D01*
X0041217D01*
X0042383D02*
X0041917D01*
Y-000625D01*
X004215Y-0006133D01*
X0042267D01*
X0042383Y-000625D01*
Y-0006483D01*
X0042267Y-00066D01*
X0042033D01*
X0041917Y-0006483D01*
X0042617Y-0006017D02*
X0042733Y-00059D01*
X0042967D01*
X0043083Y-0006017D01*
Y-0006483D01*
X0042967Y-00066D01*
X0042733D01*
X0042617Y-0006483D01*
Y-0006017D01*
X0043666Y-00066D02*
Y-00059D01*
X0043316Y-000625D01*
X0043783D01*
X-0021283Y002675D02*
Y002745D01*
X-0020933D01*
X-0020816Y0027333D01*
Y00271D01*
X-0020933Y0026983D01*
X-0021283D01*
X-002105D02*
X-0020816Y002675D01*
X-0020117D02*
X-0020583D01*
X-0020117Y0027217D01*
Y0027333D01*
X-0020233Y002745D01*
X-0020467D01*
X-0020583Y0027333D01*
X-0019417Y002675D02*
X-0019883D01*
X-0019417Y0027217D01*
Y0027333D01*
X-0019533Y002745D01*
X-0019767D01*
X-0019883Y0027333D01*
X-0018717Y002675D02*
X-0019184D01*
X-0018717Y0027217D01*
Y0027333D01*
X-0018834Y002745D01*
X-0019067D01*
X-0019184Y0027333D01*
X-0020816Y0032367D02*
Y0032833D01*
X-0020933Y003295D01*
X-0021166D01*
X-0021283Y0032833D01*
Y0032367D01*
X-0021166Y003225D01*
X-0020933D01*
X-002105Y0032483D02*
X-0020816Y003225D01*
X-0020933D02*
X-0020816Y0032367D01*
X-0020117Y003225D02*
X-0020583D01*
X-0020117Y0032717D01*
Y0032833D01*
X-0020233Y003295D01*
X-0020467D01*
X-0020583Y0032833D01*
X-0019883D02*
X-0019767Y003295D01*
X-0019533D01*
X-0019417Y0032833D01*
Y0032367D01*
X-0019533Y003225D01*
X-0019767D01*
X-0019883Y0032367D01*
Y0032833D01*
X-0019184D02*
X-0019067Y003295D01*
X-0018834D01*
X-0018717Y0032833D01*
Y0032367D01*
X-0018834Y003225D01*
X-0019067D01*
X-0019184Y0032367D01*
Y0032833D01*
X-001365Y0024166D02*
X-001295D01*
Y0023816D01*
X-0013067Y00237D01*
X-00133D01*
X-0013417Y0023816D01*
Y0024166D01*
Y0023933D02*
X-001365Y00237D01*
Y0023D02*
Y0023467D01*
X-0013183Y0023D01*
X-0013067D01*
X-001295Y0023117D01*
Y002335D01*
X-0013067Y0023467D01*
X-001365Y00223D02*
Y0022767D01*
X-0013183Y00223D01*
X-0013067D01*
X-001295Y0022417D01*
Y002265D01*
X-0013067Y0022767D01*
X-001365Y0022067D02*
Y0021834D01*
Y002195D01*
X-001295D01*
X-0013067Y0022067D01*
X0010284Y0016758D02*
X0010167Y0016875D01*
X0009934D01*
X0009817Y0016758D01*
Y0016292D01*
X0009934Y0016175D01*
X0010167D01*
X0010284Y0016292D01*
X0010517Y0016758D02*
X0010633Y0016875D01*
X0010867D01*
X0010983Y0016758D01*
Y0016642D01*
X0010867Y0016525D01*
X001075D01*
X0010867D01*
X0010983Y0016408D01*
Y0016292D01*
X0010867Y0016175D01*
X0010633D01*
X0010517Y0016292D01*
X0011683Y0016175D02*
X0011217D01*
X0011683Y0016642D01*
Y0016758D01*
X0011567Y0016875D01*
X0011333D01*
X0011217Y0016758D01*
X0011916D02*
X0012033Y0016875D01*
X0012266D01*
X0012383Y0016758D01*
Y0016292D01*
X0012266Y0016175D01*
X0012033D01*
X0011916Y0016292D01*
Y0016758D01*
X002125Y0036716D02*
Y003695D01*
Y0036833D01*
X0020667D01*
X002055Y003695D01*
Y0037066D01*
X0020667Y0037183D01*
X0021133Y0036483D02*
X002125Y0036367D01*
Y0036133D01*
X0021133Y0036017D01*
X0021017D01*
X00209Y0036133D01*
Y003625D01*
Y0036133D01*
X0020783Y0036017D01*
X0020667D01*
X002055Y0036133D01*
Y0036367D01*
X0020667Y0036483D01*
X0021133Y0035783D02*
X002125Y0035667D01*
Y0035433D01*
X0021133Y0035317D01*
X0020667D01*
X002055Y0035433D01*
Y0035667D01*
X0020667Y0035783D01*
X0021133D01*
X002055Y0035084D02*
Y003485D01*
Y0034967D01*
X002125D01*
X0021133Y0035084D01*
X0011933Y0032958D02*
X001205Y0033075D01*
Y0033308D01*
X0011933Y0033425D01*
X0011467D01*
X001135Y0033308D01*
Y0033075D01*
X0011467Y0032958D01*
X0011933Y0032725D02*
X001205Y0032608D01*
Y0032375D01*
X0011933Y0032258D01*
X0011817D01*
X00117Y0032375D01*
Y0032492D01*
Y0032375D01*
X0011583Y0032258D01*
X0011467D01*
X001135Y0032375D01*
Y0032608D01*
X0011467Y0032725D01*
X001135Y0032025D02*
Y0031792D01*
Y0031908D01*
X001205D01*
X0011933Y0032025D01*
X001205Y0031442D02*
Y0030975D01*
X0011933D01*
X0011467Y0031442D01*
X001135D01*
X0014533Y0032958D02*
X001465Y0033075D01*
Y0033308D01*
X0014533Y0033425D01*
X0014067D01*
X001395Y0033308D01*
Y0033075D01*
X0014067Y0032958D01*
X0014533Y0032725D02*
X001465Y0032608D01*
Y0032375D01*
X0014533Y0032258D01*
X0014417D01*
X00143Y0032375D01*
Y0032492D01*
Y0032375D01*
X0014183Y0032258D01*
X0014067D01*
X001395Y0032375D01*
Y0032608D01*
X0014067Y0032725D01*
X001395Y0032025D02*
Y0031792D01*
Y0031908D01*
X001465D01*
X0014533Y0032025D01*
X001465Y0030975D02*
X0014533Y0031209D01*
X00143Y0031442D01*
X0014067D01*
X001395Y0031325D01*
Y0031092D01*
X0014067Y0030975D01*
X0014183D01*
X00143Y0031092D01*
Y0031442D01*
X0012133Y0019158D02*
X001225Y0019275D01*
Y0019508D01*
X0012133Y0019625D01*
X0011667D01*
X001155Y0019508D01*
Y0019275D01*
X0011667Y0019158D01*
X0012133Y0018925D02*
X001225Y0018808D01*
Y0018575D01*
X0012133Y0018458D01*
X0012017D01*
X00119Y0018575D01*
Y0018692D01*
Y0018575D01*
X0011783Y0018458D01*
X0011667D01*
X001155Y0018575D01*
Y0018808D01*
X0011667Y0018925D01*
X001155Y0018225D02*
Y0017992D01*
Y0018108D01*
X001225D01*
X0012133Y0018225D01*
X001225Y0017175D02*
Y0017642D01*
X00119D01*
X0012017Y0017409D01*
Y0017292D01*
X00119Y0017175D01*
X0011667D01*
X001155Y0017292D01*
Y0017525D01*
X0011667Y0017642D01*
X0004117Y004335D02*
Y0042767D01*
X0004234Y004265D01*
X0004467D01*
X0004584Y0042767D01*
Y004335D01*
X0005283Y004265D02*
X0004817D01*
X0005283Y0043117D01*
Y0043233D01*
X0005167Y004335D01*
X0004933D01*
X0004817Y0043233D01*
X0005517D02*
X0005633Y004335D01*
X0005867D01*
X0005983Y0043233D01*
Y0042767D01*
X0005867Y004265D01*
X0005633D01*
X0005517Y0042767D01*
Y0043233D01*
X0006683Y004335D02*
X0006216D01*
Y0043D01*
X000645Y0043117D01*
X0006566D01*
X0006683Y0043D01*
Y0042767D01*
X0006566Y004265D01*
X0006333D01*
X0006216Y0042767D01*
X0000017Y003795D02*
Y0037367D01*
X0000134Y003725D01*
X0000367D01*
X0000484Y0037367D01*
Y003795D01*
X0001183Y003725D02*
X0000717D01*
X0001183Y0037717D01*
Y0037833D01*
X0001067Y003795D01*
X0000833D01*
X0000717Y0037833D01*
X0001417D02*
X0001533Y003795D01*
X0001767D01*
X0001883Y0037833D01*
Y0037367D01*
X0001767Y003725D01*
X0001533D01*
X0001417Y0037367D01*
Y0037833D01*
X0002466Y003725D02*
Y003795D01*
X0002116Y00376D01*
X0002583D01*
X-0040225Y000345D02*
Y000415D01*
X-0039875D01*
X-0039758Y0004033D01*
Y00038D01*
X-0039875Y0003683D01*
X-0040225D01*
X-0039991D02*
X-0039758Y000345D01*
X-0039525D02*
X-0039292D01*
X-0039408D01*
Y000415D01*
X-0039525Y0004033D01*
X-0038942D02*
X-0038825Y000415D01*
X-0038592D01*
X-0038475Y0004033D01*
Y0003567D01*
X-0038592Y000345D01*
X-0038825D01*
X-0038942Y0003567D01*
Y0004033D01*
X-0038242D02*
X-0038125Y000415D01*
X-0037892D01*
X-0037775Y0004033D01*
Y0003917D01*
X-0037892Y00038D01*
X-0037775Y0003683D01*
Y0003567D01*
X-0037892Y000345D01*
X-0038125D01*
X-0038242Y0003567D01*
Y0003683D01*
X-0038125Y00038D01*
X-0038242Y0003917D01*
Y0004033D01*
X-0038125Y00038D02*
X-0037892D01*
X0006417Y003235D02*
Y003305D01*
X0006767D01*
X0006884Y0032933D01*
Y00327D01*
X0006767Y0032583D01*
X0006417D01*
X000665D02*
X0006884Y003235D01*
X0007583D02*
X0007117D01*
X0007583Y0032817D01*
Y0032933D01*
X0007467Y003305D01*
X0007233D01*
X0007117Y0032933D01*
X0008283Y003235D02*
X0007817D01*
X0008283Y0032817D01*
Y0032933D01*
X0008167Y003305D01*
X0007933D01*
X0007817Y0032933D01*
X0008516D02*
X0008633Y003305D01*
X0008866D01*
X0008983Y0032933D01*
Y0032467D01*
X0008866Y003235D01*
X0008633D01*
X0008516Y0032467D01*
Y0032933D01*
X0005475Y004375D02*
Y004445D01*
X0005825D01*
X0005942Y0044333D01*
Y00441D01*
X0005825Y0043983D01*
X0005475D01*
X0005709D02*
X0005942Y004375D01*
X0006642D02*
X0006175D01*
X0006642Y0044217D01*
Y0044333D01*
X0006525Y004445D01*
X0006292D01*
X0006175Y0044333D01*
X0006875Y004375D02*
X0007108D01*
X0006992D01*
Y004445D01*
X0006875Y0044333D01*
X0007458Y0043867D02*
X0007575Y004375D01*
X0007808D01*
X0007925Y0043867D01*
Y0044333D01*
X0007808Y004445D01*
X0007575D01*
X0007458Y0044333D01*
Y0044217D01*
X0007575Y00441D01*
X0007925D01*
X-000036Y0042345D02*
X-0000855Y004284D01*
X-0000607Y0043088D01*
X-0000442D01*
X-0000277Y0042923D01*
Y0042758D01*
X-0000525Y004251D01*
X-000036Y0042675D02*
X-000003D01*
X0000465Y004317D02*
X0000135Y004284D01*
Y00435D01*
X0000053Y0043582D01*
X-0000112D01*
X-0000277Y0043418D01*
Y0043253D01*
X0000218Y0043747D02*
Y0043912D01*
X0000382Y0044077D01*
X0000547D01*
X0000877Y0043747D01*
Y0043582D01*
X0000712Y0043418D01*
X0000547D01*
X0000218Y0043747D01*
X000063Y0044325D02*
X000096Y0044655D01*
X0001042Y0044572D01*
Y0043912D01*
X0001125Y004383D01*
X-0010283Y002655D02*
Y002725D01*
X-0009933D01*
X-0009816Y0027133D01*
Y00269D01*
X-0009933Y0026783D01*
X-0010283D01*
X-001005D02*
X-0009816Y002655D01*
X-0009117D02*
X-0009583D01*
X-0009117Y0027017D01*
Y0027133D01*
X-0009233Y002725D01*
X-0009467D01*
X-0009583Y0027133D01*
X-0008883D02*
X-0008767Y002725D01*
X-0008533D01*
X-0008417Y0027133D01*
Y0026667D01*
X-0008533Y002655D01*
X-0008767D01*
X-0008883Y0026667D01*
Y0027133D01*
X-0008184D02*
X-0008067Y002725D01*
X-0007834D01*
X-0007717Y0027133D01*
Y0026667D01*
X-0007834Y002655D01*
X-0008067D01*
X-0008184Y0026667D01*
Y0027133D01*
X0002884Y0044333D02*
X0002767Y004445D01*
X0002534D01*
X0002417Y0044333D01*
Y0043867D01*
X0002534Y004375D01*
X0002767D01*
X0002884Y0043867D01*
X0003583Y004375D02*
X0003117D01*
X0003583Y0044217D01*
Y0044333D01*
X0003467Y004445D01*
X0003233D01*
X0003117Y0044333D01*
X0004283Y004375D02*
X0003817D01*
X0004283Y0044217D01*
Y0044333D01*
X0004167Y004445D01*
X0003933D01*
X0003817Y0044333D01*
X0004983Y004445D02*
X000475Y0044333D01*
X0004516Y00441D01*
Y0043867D01*
X0004633Y004375D01*
X0004866D01*
X0004983Y0043867D01*
Y0043983D01*
X0004866Y00441D01*
X0004516D01*
X-0006283Y0044808D02*
X-00064Y0044925D01*
X-0006633D01*
X-000675Y0044808D01*
Y0044342D01*
X-0006633Y0044225D01*
X-00064D01*
X-0006283Y0044342D01*
X-0005583Y0044225D02*
X-000605D01*
X-0005583Y0044692D01*
Y0044808D01*
X-00057Y0044925D01*
X-0005933D01*
X-000605Y0044808D01*
X-000535Y0044225D02*
X-0005117D01*
X-0005233D01*
Y0044925D01*
X-000535Y0044808D01*
X-0004767Y0044925D02*
X-00043D01*
Y0044808D01*
X-0004767Y0044342D01*
Y0044225D01*
X-0007458Y0043833D02*
X-0007575Y004395D01*
X-0007808D01*
X-0007925Y0043833D01*
Y0043367D01*
X-0007808Y004325D01*
X-0007575D01*
X-0007458Y0043367D01*
X-0006758Y004325D02*
X-0007225D01*
X-0006758Y0043717D01*
Y0043833D01*
X-0006875Y004395D01*
X-0007108D01*
X-0007225Y0043833D01*
X-0006525Y004325D02*
X-0006292D01*
X-0006408D01*
Y004395D01*
X-0006525Y0043833D01*
X-0005942D02*
X-0005825Y004395D01*
X-0005592D01*
X-0005475Y0043833D01*
Y0043367D01*
X-0005592Y004325D01*
X-0005825D01*
X-0005942Y0043367D01*
Y0043833D01*
X-0002542Y0043788D02*
X-0002707D01*
X-0002872Y0043623D01*
Y0043458D01*
X-0002542Y0043128D01*
X-0002377D01*
X-0002212Y0043293D01*
Y0043458D01*
X-0001635Y004387D02*
X-0001965Y004354D01*
Y00442D01*
X-0002047Y0044282D01*
X-0002212D01*
X-0002377Y0044118D01*
Y0043953D01*
X-0001882Y0044447D02*
Y0044612D01*
X-0001718Y0044777D01*
X-0001553D01*
X-0001223Y0044447D01*
Y0044282D01*
X-0001388Y0044118D01*
X-0001553D01*
X-0001882Y0044447D01*
X-0001388Y0044942D02*
Y0045107D01*
X-0001223Y0045272D01*
X-0001058D01*
X-0000975Y004519D01*
Y0045025D01*
X-000081D01*
X-0000728Y0044942D01*
Y0044777D01*
X-0000893Y0044612D01*
X-0001058D01*
X-000114Y0044695D01*
Y004486D01*
X-0001305D01*
X-0001388Y0044942D01*
X-000114Y004486D02*
X-0000975Y0045025D01*
X0018025Y-00176D02*
Y-00169D01*
X0018375D01*
X0018492Y-0017017D01*
Y-001725D01*
X0018375Y-0017367D01*
X0018025D01*
X0018259D02*
X0018492Y-00176D01*
X0019075D02*
Y-00169D01*
X0018725Y-001725D01*
X0019192D01*
X0019425Y-00176D02*
X0019658D01*
X0019542D01*
Y-00169D01*
X0019425Y-0017017D01*
X0020008D02*
X0020125Y-00169D01*
X0020358D01*
X0020475Y-0017017D01*
Y-0017133D01*
X0020358Y-001725D01*
X0020241D01*
X0020358D01*
X0020475Y-0017367D01*
Y-0017483D01*
X0020358Y-00176D01*
X0020125D01*
X0020008Y-0017483D01*
X001665Y-0021025D02*
X001735D01*
Y-0021375D01*
X0017233Y-0021492D01*
X0017D01*
X0016883Y-0021375D01*
Y-0021025D01*
Y-0021259D02*
X001665Y-0021492D01*
Y-0022075D02*
X001735D01*
X0017Y-0021725D01*
Y-0022192D01*
X001665Y-0022425D02*
Y-0022658D01*
Y-0022542D01*
X001735D01*
X0017233Y-0022425D01*
X001665Y-0023475D02*
Y-0023008D01*
X0017117Y-0023475D01*
X0017233D01*
X001735Y-0023358D01*
Y-0023125D01*
X0017233Y-0023008D01*
X-0005058Y-0030545D02*
X-0005175Y-0030428D01*
X-0005408D01*
X-0005525Y-0030545D01*
Y-0031011D01*
X-0005408Y-0031128D01*
X-0005175D01*
X-0005058Y-0031011D01*
X-0004475Y-0031128D02*
Y-0030428D01*
X-0004825Y-0030778D01*
X-0004358D01*
X-0003659Y-0031128D02*
X-0004125D01*
X-0003659Y-0030661D01*
Y-0030545D01*
X-0003775Y-0030428D01*
X-0004008D01*
X-0004125Y-0030545D01*
X-0003075Y-0031128D02*
Y-0030428D01*
X-0003425Y-0030778D01*
X-0002959D01*
X-0009666Y-0027642D02*
X-0009783Y-0027525D01*
X-0010016D01*
X-0010133Y-0027642D01*
Y-0028108D01*
X-0010016Y-0028225D01*
X-0009783D01*
X-0009666Y-0028108D01*
X-0009083Y-0028225D02*
Y-0027525D01*
X-0009433Y-0027875D01*
X-0008967D01*
X-0008267Y-0028225D02*
X-0008733D01*
X-0008267Y-0027758D01*
Y-0027642D01*
X-0008383Y-0027525D01*
X-0008617D01*
X-0008733Y-0027642D01*
X-0008034D02*
X-0007917Y-0027525D01*
X-0007684D01*
X-0007567Y-0027642D01*
Y-0027758D01*
X-0007684Y-0027875D01*
X-00078D01*
X-0007684D01*
X-0007567Y-0027992D01*
Y-0028108D01*
X-0007684Y-0028225D01*
X-0007917D01*
X-0008034Y-0028108D01*
X-0020316Y-0030942D02*
X-0020433Y-0030825D01*
X-0020666D01*
X-0020783Y-0030942D01*
Y-0031408D01*
X-0020666Y-0031525D01*
X-0020433D01*
X-0020316Y-0031408D01*
X-0019733Y-0031525D02*
Y-0030825D01*
X-0020083Y-0031175D01*
X-0019617D01*
X-0018917Y-0031525D02*
X-0019383D01*
X-0018917Y-0031058D01*
Y-0030942D01*
X-0019033Y-0030825D01*
X-0019267D01*
X-0019383Y-0030942D01*
X-0018217Y-0031525D02*
X-0018684D01*
X-0018217Y-0031058D01*
Y-0030942D01*
X-0018334Y-0030825D01*
X-0018567D01*
X-0018684Y-0030942D01*
X-0000286Y0017078D02*
X0000414D01*
Y0016728D01*
X0000297Y0016611D01*
X0000064D01*
X-0000053Y0016728D01*
Y0017078D01*
Y0016845D02*
X-0000286Y0016611D01*
Y0016378D02*
Y0016145D01*
Y0016261D01*
X0000414D01*
X0000297Y0016378D01*
Y0015795D02*
X0000414Y0015678D01*
Y0015445D01*
X0000297Y0015328D01*
X-000017D01*
X-0000286Y0015445D01*
Y0015678D01*
X-000017Y0015795D01*
X0000297D01*
X0000414Y0014629D02*
X0000297Y0014862D01*
X0000064Y0015095D01*
X-000017D01*
X-0000286Y0014978D01*
Y0014745D01*
X-000017Y0014629D01*
X-0000053D01*
X0000064Y0014745D01*
Y0015095D01*
X0001019Y0017078D02*
X0001719D01*
Y0016728D01*
X0001602Y0016611D01*
X0001369D01*
X0001252Y0016728D01*
Y0017078D01*
Y0016845D02*
X0001019Y0016611D01*
Y0016378D02*
Y0016145D01*
Y0016261D01*
X0001719D01*
X0001602Y0016378D01*
Y0015795D02*
X0001719Y0015678D01*
Y0015445D01*
X0001602Y0015328D01*
X0001136D01*
X0001019Y0015445D01*
Y0015678D01*
X0001136Y0015795D01*
X0001602D01*
X0001719Y0014629D02*
Y0015095D01*
X0001369D01*
X0001485Y0014862D01*
Y0014745D01*
X0001369Y0014629D01*
X0001136D01*
X0001019Y0014745D01*
Y0014978D01*
X0001136Y0015095D01*
X0007075Y-0026051D02*
X0006492D01*
X0006375Y-0026168D01*
Y-0026401D01*
X0006492Y-0026518D01*
X0007075D01*
X0006375Y-0027101D02*
X0007075D01*
X0006725Y-0026751D01*
Y-0027218D01*
X0006958Y-0027451D02*
X0007075Y-0027568D01*
Y-0027801D01*
X0006958Y-0027917D01*
X0006492D01*
X0006375Y-0027801D01*
Y-0027568D01*
X0006492Y-0027451D01*
X0006958D01*
Y-0028151D02*
X0007075Y-0028267D01*
Y-0028501D01*
X0006958Y-0028617D01*
X0006492D01*
X0006375Y-0028501D01*
Y-0028267D01*
X0006492Y-0028151D01*
X0006958D01*
X0023467Y-002765D02*
Y-0028233D01*
X0023584Y-002835D01*
X0023817D01*
X0023934Y-0028233D01*
Y-002765D01*
X0024517Y-002835D02*
Y-002765D01*
X0024167Y-0028D01*
X0024633D01*
X0024867Y-0027767D02*
X0024983Y-002765D01*
X0025217D01*
X0025333Y-0027767D01*
Y-0028233D01*
X0025217Y-002835D01*
X0024983D01*
X0024867Y-0028233D01*
Y-0027767D01*
X0025566D02*
X0025683Y-002765D01*
X0025916D01*
X0026033Y-0027767D01*
Y-0027883D01*
X0025916Y-0028D01*
X00258D01*
X0025916D01*
X0026033Y-0028117D01*
Y-0028233D01*
X0025916Y-002835D01*
X0025683D01*
X0025566Y-0028233D01*
X0018392Y-00206D02*
Y-00199D01*
X0018742D01*
X0018859Y-0020017D01*
Y-002025D01*
X0018742Y-0020367D01*
X0018392D01*
X0018625D02*
X0018859Y-00206D01*
X0019442D02*
Y-00199D01*
X0019092Y-002025D01*
X0019558D01*
X0019792Y-00206D02*
X0020025D01*
X0019908D01*
Y-00199D01*
X0019792Y-0020017D01*
X0020375Y-00206D02*
X0020608D01*
X0020491D01*
Y-00199D01*
X0020375Y-0020017D01*
X001365Y-0021025D02*
X001435D01*
Y-0021375D01*
X0014233Y-0021492D01*
X0014D01*
X0013883Y-0021375D01*
Y-0021025D01*
Y-0021259D02*
X001365Y-0021492D01*
Y-0022075D02*
X001435D01*
X0014Y-0021725D01*
Y-0022192D01*
X001365Y-0022425D02*
Y-0022658D01*
Y-0022542D01*
X001435D01*
X0014233Y-0022425D01*
Y-0023008D02*
X001435Y-0023125D01*
Y-0023358D01*
X0014233Y-0023475D01*
X0013767D01*
X001365Y-0023358D01*
Y-0023125D01*
X0013767Y-0023008D01*
X0014233D01*
X-0032716Y-002895D02*
X-003295D01*
X-0032833D01*
Y-0029533D01*
X-003295Y-002965D01*
X-0033066D01*
X-0033183Y-0029533D01*
X-0032133Y-002965D02*
Y-002895D01*
X-0032483Y-00293D01*
X-0032017D01*
X-0031783Y-0029067D02*
X-0031667Y-002895D01*
X-0031433D01*
X-0031317Y-0029067D01*
Y-0029533D01*
X-0031433Y-002965D01*
X-0031667D01*
X-0031783Y-0029533D01*
Y-0029067D01*
X-0030617Y-002965D02*
X-0031084D01*
X-0030617Y-0029183D01*
Y-0029067D01*
X-0030734Y-002895D01*
X-0030967D01*
X-0031084Y-0029067D01*
X00316Y-0012334D02*
X0031017D01*
X00309Y-001245D01*
Y-0012684D01*
X0031017Y-00128D01*
X00316D01*
X00309Y-0013383D02*
X00316D01*
X003125Y-0013033D01*
Y-00135D01*
X0031483Y-0013733D02*
X00316Y-001385D01*
Y-0014083D01*
X0031483Y-00142D01*
X0031017D01*
X00309Y-0014083D01*
Y-001385D01*
X0031017Y-0013733D01*
X0031483D01*
X00309Y-0014433D02*
Y-0014666D01*
Y-001455D01*
X00316D01*
X0031483Y-0014433D01*
X00344Y-0010467D02*
X00351D01*
Y-0010817D01*
X0034983Y-0010934D01*
X003475D01*
X0034633Y-0010817D01*
Y-0010467D01*
Y-00107D02*
X00344Y-0010934D01*
Y-0011517D02*
X00351D01*
X003475Y-0011167D01*
Y-0011633D01*
X0034983Y-0011867D02*
X00351Y-0011983D01*
Y-0012217D01*
X0034983Y-0012333D01*
X0034517D01*
X00344Y-0012217D01*
Y-0011983D01*
X0034517Y-0011867D01*
X0034983D01*
Y-0012566D02*
X00351Y-0012683D01*
Y-0012916D01*
X0034983Y-0013033D01*
X0034517D01*
X00344Y-0012916D01*
Y-0012683D01*
X0034517Y-0012566D01*
X0034983D01*
X00243Y-0016517D02*
X0024184Y-00164D01*
X002395D01*
X0023834Y-0016517D01*
Y-0016983D01*
X002395Y-00171D01*
X0024184D01*
X00243Y-0016983D01*
X0024883Y-00171D02*
Y-00164D01*
X0024533Y-001675D01*
X0025D01*
X00257Y-00171D02*
X0025233D01*
X00257Y-0016633D01*
Y-0016517D01*
X0025583Y-00164D01*
X002535D01*
X0025233Y-0016517D01*
X0025933Y-00171D02*
X0026166D01*
X002605D01*
Y-00164D01*
X0025933Y-0016517D01*
X0023992Y-0029017D02*
X0023875Y-00289D01*
X0023642D01*
X0023525Y-0029017D01*
Y-0029483D01*
X0023642Y-00296D01*
X0023875D01*
X0023992Y-0029483D01*
X0024575Y-00296D02*
Y-00289D01*
X0024225Y-002925D01*
X0024692D01*
X0024925Y-00296D02*
X0025158D01*
X0025042D01*
Y-00289D01*
X0024925Y-0029017D01*
X0025508Y-00289D02*
X0025975D01*
Y-0029017D01*
X0025508Y-0029483D01*
Y-00296D01*
X0029733Y-0022242D02*
X002985Y-0022125D01*
Y-0021892D01*
X0029733Y-0021775D01*
X0029267D01*
X002915Y-0021892D01*
Y-0022125D01*
X0029267Y-0022242D01*
X002915Y-0022825D02*
X002985D01*
X00295Y-0022475D01*
Y-0022942D01*
X002915Y-0023175D02*
Y-0023408D01*
Y-0023292D01*
X002985D01*
X0029733Y-0023175D01*
X002985Y-0024225D02*
X0029733Y-0023991D01*
X00295Y-0023758D01*
X0029267D01*
X002915Y-0023875D01*
Y-0024108D01*
X0029267Y-0024225D01*
X0029383D01*
X00295Y-0024108D01*
Y-0023758D01*
X0029492Y-0015767D02*
X0029375Y-001565D01*
X0029142D01*
X0029025Y-0015767D01*
Y-0016233D01*
X0029142Y-001635D01*
X0029375D01*
X0029492Y-0016233D01*
X0030075Y-001635D02*
Y-001565D01*
X0029725Y-0016D01*
X0030192D01*
X0030425Y-001635D02*
X0030658D01*
X0030542D01*
Y-001565D01*
X0030425Y-0015767D01*
X0031475Y-001565D02*
X0031008D01*
Y-0016D01*
X0031241Y-0015883D01*
X0031358D01*
X0031475Y-0016D01*
Y-0016233D01*
X0031358Y-001635D01*
X0031125D01*
X0031008Y-0016233D01*
X-00202Y-0033142D02*
X-0020316Y-0033025D01*
X-002055D01*
X-0020666Y-0033142D01*
Y-0033608D01*
X-002055Y-0033725D01*
X-0020316D01*
X-00202Y-0033608D01*
X-0019617Y-0033725D02*
Y-0033025D01*
X-0019967Y-0033375D01*
X-00195D01*
X-0019267Y-0033725D02*
X-0019033D01*
X-001915D01*
Y-0033025D01*
X-0019267Y-0033142D01*
X-0018684D02*
X-0018567Y-0033025D01*
X-0018334D01*
X-0018217Y-0033142D01*
Y-0033258D01*
X-0018334Y-0033375D01*
X-001845D01*
X-0018334D01*
X-0018217Y-0033492D01*
Y-0033608D01*
X-0018334Y-0033725D01*
X-0018567D01*
X-0018684Y-0033608D01*
X0025842Y-0007767D02*
X0025725Y-000765D01*
X0025492D01*
X0025375Y-0007767D01*
Y-0008233D01*
X0025492Y-000835D01*
X0025725D01*
X0025842Y-0008233D01*
X0026425Y-000835D02*
Y-000765D01*
X0026075Y-0008D01*
X0026542D01*
X0026775Y-000835D02*
X0027008D01*
X0026892D01*
Y-000765D01*
X0026775Y-0007767D01*
X0027358D02*
X0027475Y-000765D01*
X0027708D01*
X0027825Y-0007767D01*
Y-0008233D01*
X0027708Y-000835D01*
X0027475D01*
X0027358Y-0008233D01*
Y-0007767D01*
X0018158Y-0023712D02*
X0018041Y-0023595D01*
X0017808D01*
X0017691Y-0023712D01*
Y-0024179D01*
X0017808Y-0024295D01*
X0018041D01*
X0018158Y-0024179D01*
X0018741Y-0024295D02*
Y-0023595D01*
X0018391Y-0023945D01*
X0018857D01*
X0019091Y-0023712D02*
X0019207Y-0023595D01*
X001944D01*
X0019557Y-0023712D01*
Y-0024179D01*
X001944Y-0024295D01*
X0019207D01*
X0019091Y-0024179D01*
Y-0023712D01*
X001979Y-0024179D02*
X0019907Y-0024295D01*
X002014D01*
X0020257Y-0024179D01*
Y-0023712D01*
X002014Y-0023595D01*
X0019907D01*
X001979Y-0023712D01*
Y-0023829D01*
X0019907Y-0023945D01*
X0020257D01*
X0005733Y-0029184D02*
X000585Y-0029067D01*
Y-0028834D01*
X0005733Y-0028717D01*
X0005267D01*
X000515Y-0028834D01*
Y-0029067D01*
X0005267Y-0029184D01*
X000515Y-0029767D02*
X000585D01*
X00055Y-0029417D01*
Y-0029883D01*
X0005733Y-0030117D02*
X000585Y-0030233D01*
Y-0030467D01*
X0005733Y-0030583D01*
X0005267D01*
X000515Y-0030467D01*
Y-0030233D01*
X0005267Y-0030117D01*
X0005733D01*
X000585Y-0031283D02*
Y-0030816D01*
X00055D01*
X0005617Y-003105D01*
Y-0031166D01*
X00055Y-0031283D01*
X0005267D01*
X000515Y-0031166D01*
Y-0030933D01*
X0005267Y-0030816D01*
X0018542Y-0033691D02*
X0018425Y-0033808D01*
Y-0034041D01*
X0018542Y-0034158D01*
X0019008D01*
X0019125Y-0034041D01*
Y-0033808D01*
X0019008Y-0033691D01*
X0019125Y-0033108D02*
X0018425D01*
X0018775Y-0033458D01*
Y-0032992D01*
X0018542Y-0032758D02*
X0018425Y-0032642D01*
Y-0032408D01*
X0018542Y-0032292D01*
X0019008D01*
X0019125Y-0032408D01*
Y-0032642D01*
X0019008Y-0032758D01*
X0018542D01*
Y-0032059D02*
X0018425Y-0031942D01*
Y-0031709D01*
X0018542Y-0031592D01*
X0018658D01*
X0018775Y-0031709D01*
Y-0031825D01*
Y-0031709D01*
X0018892Y-0031592D01*
X0019008D01*
X0019125Y-0031709D01*
Y-0031942D01*
X0019008Y-0032059D01*
X0003934Y-0034017D02*
X0003817Y-00339D01*
X0003584D01*
X0003467Y-0034017D01*
Y-0034483D01*
X0003584Y-00346D01*
X0003817D01*
X0003934Y-0034483D01*
X0004517Y-00346D02*
Y-00339D01*
X0004167Y-003425D01*
X0004633D01*
X0004867Y-0034017D02*
X0004983Y-00339D01*
X0005217D01*
X0005333Y-0034017D01*
Y-0034483D01*
X0005217Y-00346D01*
X0004983D01*
X0004867Y-0034483D01*
Y-0034017D01*
X0006033Y-00346D02*
X0005566D01*
X0006033Y-0034133D01*
Y-0034017D01*
X0005916Y-00339D01*
X0005683D01*
X0005566Y-0034017D01*
X0028633Y-0010184D02*
X002875Y-0010067D01*
Y-0009834D01*
X0028633Y-0009717D01*
X0028167D01*
X002805Y-0009834D01*
Y-0010067D01*
X0028167Y-0010184D01*
X002805Y-0010767D02*
X002875D01*
X00284Y-0010417D01*
Y-0010883D01*
X0028633Y-0011117D02*
X002875Y-0011233D01*
Y-0011467D01*
X0028633Y-0011583D01*
X0028167D01*
X002805Y-0011467D01*
Y-0011233D01*
X0028167Y-0011117D01*
X0028633D01*
Y-0011816D02*
X002875Y-0011933D01*
Y-0012166D01*
X0028633Y-0012283D01*
X0028167D01*
X002805Y-0012166D01*
Y-0011933D01*
X0028167Y-0011816D01*
X0028633D01*
X003955Y-00169D02*
X0039317D01*
X0039434D01*
Y-0017483D01*
X0039317Y-00176D01*
X00392D01*
X0039084Y-0017483D01*
X0040133Y-00176D02*
Y-00169D01*
X0039783Y-001725D01*
X004025D01*
X0040483Y-0017017D02*
X00406Y-00169D01*
X0040833D01*
X004095Y-0017017D01*
Y-0017483D01*
X0040833Y-00176D01*
X00406D01*
X0040483Y-0017483D01*
Y-0017017D01*
X0041183Y-00176D02*
X0041416D01*
X00413D01*
Y-00169D01*
X0041183Y-0017017D01*
X0003434Y-003765D02*
X00032D01*
X0003317D01*
Y-0038233D01*
X00032Y-003835D01*
X0003084D01*
X0002967Y-0038233D01*
X0004017Y-003835D02*
Y-003765D01*
X0003667Y-0038D01*
X0004133D01*
X0004367Y-0037767D02*
X0004483Y-003765D01*
X0004717D01*
X0004833Y-0037767D01*
Y-0038233D01*
X0004717Y-003835D01*
X0004483D01*
X0004367Y-0038233D01*
Y-0037767D01*
X0005066D02*
X0005183Y-003765D01*
X0005416D01*
X0005533Y-0037767D01*
Y-0038233D01*
X0005416Y-003835D01*
X0005183D01*
X0005066Y-0038233D01*
Y-0037767D01*
X002225Y0036716D02*
Y003695D01*
Y0036833D01*
X0021667D01*
X002155Y003695D01*
Y0037066D01*
X0021667Y0037183D01*
X0022133Y0036483D02*
X002225Y0036367D01*
Y0036133D01*
X0022133Y0036017D01*
X0022017D01*
X00219Y0036133D01*
Y003625D01*
Y0036133D01*
X0021783Y0036017D01*
X0021667D01*
X002155Y0036133D01*
Y0036367D01*
X0021667Y0036483D01*
X0022133Y0035783D02*
X002225Y0035667D01*
Y0035433D01*
X0022133Y0035317D01*
X0021667D01*
X002155Y0035433D01*
Y0035667D01*
X0021667Y0035783D01*
X0022133D01*
Y0035084D02*
X002225Y0034967D01*
Y0034734D01*
X0022133Y0034617D01*
X0021667D01*
X002155Y0034734D01*
Y0034967D01*
X0021667Y0035084D01*
X0022133D01*
X000925Y-0012834D02*
X0008667D01*
X000855Y-001295D01*
Y-0013184D01*
X0008667Y-00133D01*
X000925D01*
Y-0014D02*
Y-0013533D01*
X00089D01*
X0009017Y-0013767D01*
Y-0013883D01*
X00089Y-0014D01*
X0008667D01*
X000855Y-0013883D01*
Y-001365D01*
X0008667Y-0013533D01*
X0009133Y-0014233D02*
X000925Y-001435D01*
Y-0014583D01*
X0009133Y-00147D01*
X0008667D01*
X000855Y-0014583D01*
Y-001435D01*
X0008667Y-0014233D01*
X0009133D01*
X000855Y-0014933D02*
Y-0015166D01*
Y-001505D01*
X000925D01*
X0009133Y-0014933D01*
X003475Y0005983D02*
X0034167D01*
X003405Y0005866D01*
Y0005633D01*
X0034167Y0005516D01*
X003475D01*
Y0004817D02*
Y0005283D01*
X00344D01*
X0034517Y000505D01*
Y0004933D01*
X00344Y0004817D01*
X0034167D01*
X003405Y0004933D01*
Y0005167D01*
X0034167Y0005283D01*
X0034633Y0004583D02*
X003475Y0004467D01*
Y0004233D01*
X0034633Y0004117D01*
X0034167D01*
X003405Y0004233D01*
Y0004467D01*
X0034167Y0004583D01*
X0034633D01*
Y0003884D02*
X003475Y0003767D01*
Y0003534D01*
X0034633Y0003417D01*
X0034167D01*
X003405Y0003534D01*
Y0003767D01*
X0034167Y0003884D01*
X0034633D01*
X000335Y-0006317D02*
X000405D01*
Y-0006667D01*
X0003933Y-0006784D01*
X00037D01*
X0003583Y-0006667D01*
Y-0006317D01*
Y-000655D02*
X000335Y-0006784D01*
X000405Y-0007483D02*
Y-0007017D01*
X00037D01*
X0003817Y-000725D01*
Y-0007367D01*
X00037Y-0007483D01*
X0003467D01*
X000335Y-0007367D01*
Y-0007133D01*
X0003467Y-0007017D01*
X0003933Y-0007717D02*
X000405Y-0007833D01*
Y-0008067D01*
X0003933Y-0008183D01*
X0003467D01*
X000335Y-0008067D01*
Y-0007833D01*
X0003467Y-0007717D01*
X0003933D01*
X0003467Y-0008416D02*
X000335Y-0008533D01*
Y-0008766D01*
X0003467Y-0008883D01*
X0003933D01*
X000405Y-0008766D01*
Y-0008533D01*
X0003933Y-0008416D01*
X0003817D01*
X00037Y-0008533D01*
Y-0008883D01*
X000415Y-0008317D02*
X000485D01*
Y-0008667D01*
X0004733Y-0008784D01*
X00045D01*
X0004383Y-0008667D01*
Y-0008317D01*
Y-000855D02*
X000415Y-0008784D01*
X000485Y-0009483D02*
Y-0009017D01*
X00045D01*
X0004617Y-000925D01*
Y-0009367D01*
X00045Y-0009483D01*
X0004267D01*
X000415Y-0009367D01*
Y-0009133D01*
X0004267Y-0009017D01*
X0004733Y-0009717D02*
X000485Y-0009833D01*
Y-0010067D01*
X0004733Y-0010183D01*
X0004267D01*
X000415Y-0010067D01*
Y-0009833D01*
X0004267Y-0009717D01*
X0004733D01*
X000485Y-0010416D02*
Y-0010883D01*
X0004733D01*
X0004267Y-0010416D01*
X000415D01*
X001425Y-0010617D02*
X001495D01*
Y-0010967D01*
X0014833Y-0011084D01*
X00146D01*
X0014483Y-0010967D01*
Y-0010617D01*
Y-001085D02*
X001425Y-0011084D01*
X001495Y-0011783D02*
Y-0011317D01*
X00146D01*
X0014717Y-001155D01*
Y-0011667D01*
X00146Y-0011783D01*
X0014367D01*
X001425Y-0011667D01*
Y-0011433D01*
X0014367Y-0011317D01*
X0014833Y-0012017D02*
X001495Y-0012133D01*
Y-0012367D01*
X0014833Y-0012483D01*
X0014367D01*
X001425Y-0012367D01*
Y-0012133D01*
X0014367Y-0012017D01*
X0014833D01*
X001495Y-0013183D02*
X0014833Y-001295D01*
X00146Y-0012716D01*
X0014367D01*
X001425Y-0012833D01*
Y-0013066D01*
X0014367Y-0013183D01*
X0014483D01*
X00146Y-0013066D01*
Y-0012716D01*
X000525Y-0012317D02*
X000595D01*
Y-0012667D01*
X0005833Y-0012784D01*
X00056D01*
X0005483Y-0012667D01*
Y-0012317D01*
Y-001255D02*
X000525Y-0012784D01*
X000595Y-0013483D02*
Y-0013017D01*
X00056D01*
X0005717Y-001325D01*
Y-0013367D01*
X00056Y-0013483D01*
X0005367D01*
X000525Y-0013367D01*
Y-0013133D01*
X0005367Y-0013017D01*
X0005833Y-0013717D02*
X000595Y-0013833D01*
Y-0014067D01*
X0005833Y-0014183D01*
X0005367D01*
X000525Y-0014067D01*
Y-0013833D01*
X0005367Y-0013717D01*
X0005833D01*
X000595Y-0014883D02*
Y-0014416D01*
X00056D01*
X0005717Y-001465D01*
Y-0014766D01*
X00056Y-0014883D01*
X0005367D01*
X000525Y-0014766D01*
Y-0014533D01*
X0005367Y-0014416D01*
X003555Y0008483D02*
X003625D01*
Y0008133D01*
X0036133Y0008016D01*
X00359D01*
X0035783Y0008133D01*
Y0008483D01*
Y000825D02*
X003555Y0008016D01*
X003625Y0007317D02*
Y0007783D01*
X00359D01*
X0036017Y000755D01*
Y0007433D01*
X00359Y0007317D01*
X0035667D01*
X003555Y0007433D01*
Y0007667D01*
X0035667Y0007783D01*
X0036133Y0007083D02*
X003625Y0006967D01*
Y0006733D01*
X0036133Y0006617D01*
X0035667D01*
X003555Y0006733D01*
Y0006967D01*
X0035667Y0007083D01*
X0036133D01*
X003555Y0006034D02*
X003625D01*
X00359Y0006384D01*
Y0005917D01*
X0015467Y-000785D02*
Y-000715D01*
X0015817D01*
X0015934Y-0007267D01*
Y-00075D01*
X0015817Y-0007617D01*
X0015467D01*
X00157D02*
X0015934Y-000785D01*
X0016633Y-000715D02*
X0016167D01*
Y-00075D01*
X00164Y-0007383D01*
X0016517D01*
X0016633Y-00075D01*
Y-0007733D01*
X0016517Y-000785D01*
X0016283D01*
X0016167Y-0007733D01*
X0016867Y-0007267D02*
X0016983Y-000715D01*
X0017217D01*
X0017333Y-0007267D01*
Y-0007733D01*
X0017217Y-000785D01*
X0016983D01*
X0016867Y-0007733D01*
Y-0007267D01*
X0017566D02*
X0017683Y-000715D01*
X0017916D01*
X0018033Y-0007267D01*
Y-0007383D01*
X0017916Y-00075D01*
X00178D01*
X0017916D01*
X0018033Y-0007617D01*
Y-0007733D01*
X0017916Y-000785D01*
X0017683D01*
X0017566Y-0007733D01*
X0011417Y-000785D02*
Y-000855D01*
X0011884D01*
X0012583Y-000785D02*
X0012117D01*
Y-00082D01*
X001235Y-0008083D01*
X0012467D01*
X0012583Y-00082D01*
Y-0008433D01*
X0012467Y-000855D01*
X0012233D01*
X0012117Y-0008433D01*
X0012817Y-0007967D02*
X0012933Y-000785D01*
X0013167D01*
X0013283Y-0007967D01*
Y-0008433D01*
X0013167Y-000855D01*
X0012933D01*
X0012817Y-0008433D01*
Y-0007967D01*
X0013516D02*
X0013633Y-000785D01*
X0013866D01*
X0013983Y-0007967D01*
Y-0008083D01*
X0013866Y-00082D01*
X001375D01*
X0013866D01*
X0013983Y-0008317D01*
Y-0008433D01*
X0013866Y-000855D01*
X0013633D01*
X0013516Y-0008433D01*
X0021617Y000965D02*
Y000895D01*
X0022084D01*
X0022783Y000965D02*
X0022317D01*
Y00093D01*
X002255Y0009417D01*
X0022667D01*
X0022783Y00093D01*
Y0009067D01*
X0022667Y000895D01*
X0022433D01*
X0022317Y0009067D01*
X0023017Y0009533D02*
X0023133Y000965D01*
X0023367D01*
X0023483Y0009533D01*
Y0009067D01*
X0023367Y000895D01*
X0023133D01*
X0023017Y0009067D01*
Y0009533D01*
X0024183Y000895D02*
X0023716D01*
X0024183Y0009417D01*
Y0009533D01*
X0024066Y000965D01*
X0023833D01*
X0023716Y0009533D01*
X001495Y-0007834D02*
X001425D01*
Y-0008184D01*
X0014367Y-00083D01*
X0014833D01*
X001495Y-0008184D01*
Y-0007834D01*
Y-0009D02*
Y-0008533D01*
X00146D01*
X0014717Y-0008767D01*
Y-0008883D01*
X00146Y-0009D01*
X0014367D01*
X001425Y-0008883D01*
Y-000865D01*
X0014367Y-0008533D01*
X0014833Y-0009233D02*
X001495Y-000935D01*
Y-0009583D01*
X0014833Y-00097D01*
X0014367D01*
X001425Y-0009583D01*
Y-000935D01*
X0014367Y-0009233D01*
X0014833D01*
X001425Y-0009933D02*
Y-0010166D01*
Y-001005D01*
X001495D01*
X0014833Y-0009933D01*
X0022467Y-000715D02*
Y-000785D01*
X0022817D01*
X0022934Y-0007733D01*
Y-0007267D01*
X0022817Y-000715D01*
X0022467D01*
X0023633D02*
X0023167D01*
Y-00075D01*
X00234Y-0007383D01*
X0023517D01*
X0023633Y-00075D01*
Y-0007733D01*
X0023517Y-000785D01*
X0023283D01*
X0023167Y-0007733D01*
X0023867Y-0007267D02*
X0023983Y-000715D01*
X0024217D01*
X0024333Y-0007267D01*
Y-0007733D01*
X0024217Y-000785D01*
X0023983D01*
X0023867Y-0007733D01*
Y-0007267D01*
X0024566D02*
X0024683Y-000715D01*
X0024916D01*
X0025033Y-0007267D01*
Y-0007733D01*
X0024916Y-000785D01*
X0024683D01*
X0024566Y-0007733D01*
Y-0007267D01*
X0003033Y-0006842D02*
X000315Y-0006725D01*
Y-0006492D01*
X0003033Y-0006375D01*
X0002567D01*
X000245Y-0006492D01*
Y-0006725D01*
X0002567Y-0006842D01*
X000315Y-0007542D02*
Y-0007075D01*
X00028D01*
X0002917Y-0007308D01*
Y-0007425D01*
X00028Y-0007542D01*
X0002567D01*
X000245Y-0007425D01*
Y-0007192D01*
X0002567Y-0007075D01*
X000245Y-0007775D02*
Y-0008008D01*
Y-0007892D01*
X000315D01*
X0003033Y-0007775D01*
Y-0008358D02*
X000315Y-0008475D01*
Y-0008708D01*
X0003033Y-0008825D01*
X0002917D01*
X00028Y-0008708D01*
Y-0008591D01*
Y-0008708D01*
X0002683Y-0008825D01*
X0002567D01*
X000245Y-0008708D01*
Y-0008475D01*
X0002567Y-0008358D01*
X0010417Y-0016517D02*
X00103Y-00164D01*
X0010067D01*
X000995Y-0016517D01*
Y-0016983D01*
X0010067Y-00171D01*
X00103D01*
X0010417Y-0016983D01*
X0011117Y-00164D02*
X001065D01*
Y-001675D01*
X0010883Y-0016633D01*
X0011D01*
X0011117Y-001675D01*
Y-0016983D01*
X0011Y-00171D01*
X0010767D01*
X001065Y-0016983D01*
X001135Y-00171D02*
X0011583D01*
X0011467D01*
Y-00164D01*
X001135Y-0016517D01*
X00124Y-00171D02*
X0011933D01*
X00124Y-0016633D01*
Y-0016517D01*
X0012283Y-00164D01*
X001205D01*
X0011933Y-0016517D01*
X0010534Y-0015517D02*
X0010417Y-00154D01*
X0010184D01*
X0010067Y-0015517D01*
Y-0015983D01*
X0010184Y-00161D01*
X0010417D01*
X0010534Y-0015983D01*
X0011233Y-00154D02*
X0010767D01*
Y-001575D01*
X0011Y-0015633D01*
X0011117D01*
X0011233Y-001575D01*
Y-0015983D01*
X0011117Y-00161D01*
X0010883D01*
X0010767Y-0015983D01*
X0011467Y-00161D02*
X00117D01*
X0011583D01*
Y-00154D01*
X0011467Y-0015517D01*
X001205Y-00161D02*
X0012283D01*
X0012166D01*
Y-00154D01*
X001205Y-0015517D01*
X0008584Y-0006267D02*
X0008467Y-000615D01*
X0008234D01*
X0008117Y-0006267D01*
Y-0006733D01*
X0008234Y-000685D01*
X0008467D01*
X0008584Y-0006733D01*
X0009283Y-000615D02*
X0008817D01*
Y-00065D01*
X000905Y-0006383D01*
X0009167D01*
X0009283Y-00065D01*
Y-0006733D01*
X0009167Y-000685D01*
X0008933D01*
X0008817Y-0006733D01*
X0009517Y-0006267D02*
X0009633Y-000615D01*
X0009867D01*
X0009983Y-0006267D01*
Y-0006733D01*
X0009867Y-000685D01*
X0009633D01*
X0009517Y-0006733D01*
Y-0006267D01*
X0010216Y-0006733D02*
X0010333Y-000685D01*
X0010566D01*
X0010683Y-0006733D01*
Y-0006267D01*
X0010566Y-000615D01*
X0010333D01*
X0010216Y-0006267D01*
Y-0006383D01*
X0010333Y-00065D01*
X0010683D01*
X0037933Y0008016D02*
X003805Y0008133D01*
Y0008366D01*
X0037933Y0008483D01*
X0037467D01*
X003735Y0008366D01*
Y0008133D01*
X0037467Y0008016D01*
X003805Y0007317D02*
Y0007783D01*
X00377D01*
X0037817Y000755D01*
Y0007433D01*
X00377Y0007317D01*
X0037467D01*
X003735Y0007433D01*
Y0007667D01*
X0037467Y0007783D01*
X0037933Y0007083D02*
X003805Y0006967D01*
Y0006733D01*
X0037933Y0006617D01*
X0037467D01*
X003735Y0006733D01*
Y0006967D01*
X0037467Y0007083D01*
X0037933D01*
Y0006384D02*
X003805Y0006267D01*
Y0006034D01*
X0037933Y0005917D01*
X0037817D01*
X00377Y0006034D01*
X0037583Y0005917D01*
X0037467D01*
X003735Y0006034D01*
Y0006267D01*
X0037467Y0006384D01*
X0037583D01*
X00377Y0006267D01*
X0037817Y0006384D01*
X0037933D01*
X00377Y0006267D02*
Y0006034D01*
X0010659Y0004841D02*
X0010775Y0004958D01*
Y0005191D01*
X0010659Y0005308D01*
X0010192D01*
X0010076Y0005191D01*
Y0004958D01*
X0010192Y0004841D01*
X0010775Y0004142D02*
Y0004608D01*
X0010426D01*
X0010542Y0004375D01*
Y0004258D01*
X0010426Y0004142D01*
X0010192D01*
X0010076Y0004258D01*
Y0004492D01*
X0010192Y0004608D01*
X0010659Y0003908D02*
X0010775Y0003792D01*
Y0003558D01*
X0010659Y0003442D01*
X0010192D01*
X0010076Y0003558D01*
Y0003792D01*
X0010192Y0003908D01*
X0010659D01*
X0010775Y0003209D02*
Y0002742D01*
X0010659D01*
X0010192Y0003209D01*
X0010076D01*
X0015434Y-0006017D02*
X0015317Y-00059D01*
X0015084D01*
X0014967Y-0006017D01*
Y-0006483D01*
X0015084Y-00066D01*
X0015317D01*
X0015434Y-0006483D01*
X0016133Y-00059D02*
X0015667D01*
Y-000625D01*
X00159Y-0006133D01*
X0016017D01*
X0016133Y-000625D01*
Y-0006483D01*
X0016017Y-00066D01*
X0015783D01*
X0015667Y-0006483D01*
X0016367Y-0006017D02*
X0016483Y-00059D01*
X0016717D01*
X0016833Y-0006017D01*
Y-0006483D01*
X0016717Y-00066D01*
X0016483D01*
X0016367Y-0006483D01*
Y-0006017D01*
X0017533Y-00059D02*
X00173Y-0006017D01*
X0017066Y-000625D01*
Y-0006483D01*
X0017183Y-00066D01*
X0017416D01*
X0017533Y-0006483D01*
Y-0006367D01*
X0017416Y-000625D01*
X0017066D01*
X0027684Y-0005467D02*
X0027567Y-000535D01*
X0027334D01*
X0027217Y-0005467D01*
Y-0005933D01*
X0027334Y-000605D01*
X0027567D01*
X0027684Y-0005933D01*
X0028383Y-000535D02*
X0027917D01*
Y-00057D01*
X002815Y-0005583D01*
X0028267D01*
X0028383Y-00057D01*
Y-0005933D01*
X0028267Y-000605D01*
X0028033D01*
X0027917Y-0005933D01*
X0028617Y-0005467D02*
X0028733Y-000535D01*
X0028967D01*
X0029083Y-0005467D01*
Y-0005933D01*
X0028967Y-000605D01*
X0028733D01*
X0028617Y-0005933D01*
Y-0005467D01*
X0029316D02*
X0029433Y-000535D01*
X0029666D01*
X0029783Y-0005467D01*
Y-0005583D01*
X0029666Y-00057D01*
X002955D01*
X0029666D01*
X0029783Y-0005817D01*
Y-0005933D01*
X0029666Y-000605D01*
X0029433D01*
X0029316Y-0005933D01*
X0031784Y-0005467D02*
X0031667Y-000535D01*
X0031434D01*
X0031317Y-0005467D01*
Y-0005933D01*
X0031434Y-000605D01*
X0031667D01*
X0031784Y-0005933D01*
X0032483Y-000535D02*
X0032017D01*
Y-00057D01*
X003225Y-0005583D01*
X0032367D01*
X0032483Y-00057D01*
Y-0005933D01*
X0032367Y-000605D01*
X0032133D01*
X0032017Y-0005933D01*
X0032717Y-0005467D02*
X0032833Y-000535D01*
X0033067D01*
X0033183Y-0005467D01*
Y-0005933D01*
X0033067Y-000605D01*
X0032833D01*
X0032717Y-0005933D01*
Y-0005467D01*
X0033883Y-000605D02*
X0033416D01*
X0033883Y-0005583D01*
Y-0005467D01*
X0033766Y-000535D01*
X0033533D01*
X0033416Y-0005467D01*
X-0009533Y-00286D02*
Y-0029183D01*
X-0009416Y-00293D01*
X-0009183D01*
X-0009066Y-0029183D01*
Y-00286D01*
X-0008483Y-00293D02*
Y-00286D01*
X-0008833Y-002895D01*
X-0008367D01*
X-0008133Y-0028717D02*
X-0008017Y-00286D01*
X-0007783D01*
X-0007667Y-0028717D01*
Y-0029183D01*
X-0007783Y-00293D01*
X-0008017D01*
X-0008133Y-0029183D01*
Y-0028717D01*
X-0006967Y-00293D02*
X-0007434D01*
X-0006967Y-0028833D01*
Y-0028717D01*
X-0007084Y-00286D01*
X-0007317D01*
X-0007434Y-0028717D01*
X0030727Y-0008258D02*
Y-0007558D01*
X0031077D01*
X0031193Y-0007675D01*
Y-0007908D01*
X0031077Y-0008025D01*
X0030727D01*
X003096D02*
X0031193Y-0008258D01*
X0031777D02*
Y-0007558D01*
X0031427Y-0007908D01*
X0031893D01*
X0032127Y-0007675D02*
X0032243Y-0007558D01*
X0032476D01*
X0032593Y-0007675D01*
Y-0008142D01*
X0032476Y-0008258D01*
X0032243D01*
X0032127Y-0008142D01*
Y-0007675D01*
X0033293Y-0007558D02*
X0032826D01*
Y-0007908D01*
X003306Y-0007792D01*
X0033176D01*
X0033293Y-0007908D01*
Y-0008142D01*
X0033176Y-0008258D01*
X0032943D01*
X0032826Y-0008142D01*
X0025584Y-000935D02*
Y-000865D01*
X0025934D01*
X002605Y-0008767D01*
Y-0009D01*
X0025934Y-0009117D01*
X0025584D01*
X0025817D02*
X002605Y-000935D01*
X0026633D02*
Y-000865D01*
X0026283Y-0009D01*
X002675D01*
X0026983Y-0008767D02*
X00271Y-000865D01*
X0027333D01*
X002745Y-0008767D01*
Y-0009233D01*
X0027333Y-000935D01*
X00271D01*
X0026983Y-0009233D01*
Y-0008767D01*
X0027683Y-000935D02*
X0027916D01*
X00278D01*
Y-000865D01*
X0027683Y-0008767D01*
X-0020783Y-0028975D02*
Y-0028275D01*
X-0020433D01*
X-0020316Y-0028392D01*
Y-0028625D01*
X-0020433Y-0028742D01*
X-0020783D01*
X-002055D02*
X-0020316Y-0028975D01*
X-0019733D02*
Y-0028275D01*
X-0020083Y-0028625D01*
X-0019617D01*
X-0019383Y-0028392D02*
X-0019267Y-0028275D01*
X-0019033D01*
X-0018917Y-0028392D01*
Y-0028858D01*
X-0019033Y-0028975D01*
X-0019267D01*
X-0019383Y-0028858D01*
Y-0028392D01*
X-0018217Y-0028275D02*
X-001845Y-0028392D01*
X-0018684Y-0028625D01*
Y-0028858D01*
X-0018567Y-0028975D01*
X-0018334D01*
X-0018217Y-0028858D01*
Y-0028742D01*
X-0018334Y-0028625D01*
X-0018684D01*
X0005434Y-0032017D02*
X0005317Y-00319D01*
X0005084D01*
X0004967Y-0032017D01*
Y-0032483D01*
X0005084Y-00326D01*
X0005317D01*
X0005434Y-0032483D01*
X0006017Y-00326D02*
Y-00319D01*
X0005667Y-003225D01*
X0006133D01*
X0006367Y-0032017D02*
X0006483Y-00319D01*
X0006717D01*
X0006833Y-0032017D01*
Y-0032483D01*
X0006717Y-00326D01*
X0006483D01*
X0006367Y-0032483D01*
Y-0032017D01*
X0007416Y-00326D02*
Y-00319D01*
X0007066Y-003225D01*
X0007533D01*
X-0011583Y-0037717D02*
X-00117Y-00376D01*
X-0011933D01*
X-001205Y-0037717D01*
Y-0038183D01*
X-0011933Y-00383D01*
X-00117D01*
X-0011583Y-0038183D01*
X-0011Y-00383D02*
Y-00376D01*
X-001135Y-003795D01*
X-0010883D01*
X-001065Y-00383D02*
X-0010417D01*
X-0010533D01*
Y-00376D01*
X-001065Y-0037717D01*
X-00096Y-00383D02*
X-0010067D01*
X-00096Y-0037833D01*
Y-0037717D01*
X-0009717Y-00376D01*
X-000995D01*
X-0010067Y-0037717D01*
X-0008541Y-0034167D02*
X-0008658Y-003405D01*
X-0008891D01*
X-0009008Y-0034167D01*
Y-0034633D01*
X-0008891Y-003475D01*
X-0008658D01*
X-0008541Y-0034633D01*
X-0007958Y-003475D02*
Y-003405D01*
X-0008308Y-00344D01*
X-0007842D01*
X-0007608Y-003475D02*
X-0007375D01*
X-0007492D01*
Y-003405D01*
X-0007608Y-0034167D01*
X-0007025Y-003475D02*
X-0006792D01*
X-0006909D01*
Y-003405D01*
X-0007025Y-0034167D01*
X001755Y-0014267D02*
X0017434Y-001415D01*
X00172D01*
X0017084Y-0014267D01*
Y-0014733D01*
X00172Y-001485D01*
X0017434D01*
X001755Y-0014733D01*
X0018133Y-001485D02*
Y-001415D01*
X0017783Y-00145D01*
X001825D01*
X0018483Y-0014267D02*
X00186Y-001415D01*
X0018833D01*
X001895Y-0014267D01*
Y-0014733D01*
X0018833Y-001485D01*
X00186D01*
X0018483Y-0014733D01*
Y-0014267D01*
X0019183Y-001485D02*
X0019416D01*
X00193D01*
Y-001415D01*
X0019183Y-0014267D01*
X-0017083Y002745D02*
Y0027333D01*
X-001685Y00271D01*
X-0016616Y0027333D01*
Y002745D01*
X-001685Y00271D02*
Y002675D01*
X-0015917D02*
X-0016383D01*
X-0015917Y0027217D01*
Y0027333D01*
X-0016033Y002745D01*
X-0016267D01*
X-0016383Y0027333D01*
X-0015683D02*
X-0015567Y002745D01*
X-0015333D01*
X-0015217Y0027333D01*
Y0026867D01*
X-0015333Y002675D01*
X-0015567D01*
X-0015683Y0026867D01*
Y0027333D01*
X-0014984D02*
X-0014867Y002745D01*
X-0014634D01*
X-0014517Y0027333D01*
Y0026867D01*
X-0014634Y002675D01*
X-0014867D01*
X-0014984Y0026867D01*
Y0027333D01*
X0008117Y002435D02*
Y0023767D01*
X0008234Y002365D01*
X0008467D01*
X0008584Y0023767D01*
Y002435D01*
X0008817Y0024233D02*
X0008933Y002435D01*
X0009167D01*
X0009283Y0024233D01*
Y0024117D01*
X0009167Y0024D01*
X000905D01*
X0009167D01*
X0009283Y0023883D01*
Y0023767D01*
X0009167Y002365D01*
X0008933D01*
X0008817Y0023767D01*
X0009517Y0024233D02*
X0009633Y002435D01*
X0009867D01*
X0009983Y0024233D01*
Y0023767D01*
X0009867Y002365D01*
X0009633D01*
X0009517Y0023767D01*
Y0024233D01*
X0010216D02*
X0010333Y002435D01*
X0010566D01*
X0010683Y0024233D01*
Y0023767D01*
X0010566Y002365D01*
X0010333D01*
X0010216Y0023767D01*
Y0024233D01*
X-0020766Y003855D02*
Y0037967D01*
X-002065Y003785D01*
X-0020416D01*
X-00203Y0037967D01*
Y003855D01*
X-00196Y003785D02*
X-0020067D01*
X-00196Y0038317D01*
Y0038433D01*
X-0019717Y003855D01*
X-001995D01*
X-0020067Y0038433D01*
X-0019367D02*
X-001925Y003855D01*
X-0019017D01*
X-00189Y0038433D01*
Y0037967D01*
X-0019017Y003785D01*
X-001925D01*
X-0019367Y0037967D01*
Y0038433D01*
X-0018667Y003785D02*
X-0018434D01*
X-001855D01*
Y003855D01*
X-0018667Y0038433D01*
X-0042083Y001235D02*
Y0011767D01*
X-0041966Y001165D01*
X-0041733D01*
X-0041616Y0011767D01*
Y001235D01*
X-0040917Y001165D02*
X-0041383D01*
X-0040917Y0012117D01*
Y0012233D01*
X-0041033Y001235D01*
X-0041267D01*
X-0041383Y0012233D01*
X-0040683D02*
X-0040567Y001235D01*
X-0040333D01*
X-0040217Y0012233D01*
Y0011767D01*
X-0040333Y001165D01*
X-0040567D01*
X-0040683Y0011767D01*
Y0012233D01*
X-0039984D02*
X-0039867Y001235D01*
X-0039634D01*
X-0039517Y0012233D01*
Y0011767D01*
X-0039634Y001165D01*
X-0039867D01*
X-0039984Y0011767D01*
Y0012233D01*
X0014345Y001916D02*
X001484Y0019655D01*
X0015088Y0019407D01*
Y0019242D01*
X0014923Y0019077D01*
X0014758D01*
X001451Y0019325D01*
X0014675Y001916D02*
Y001883D01*
X0015253Y0019077D02*
X0015418D01*
X0015582Y0018912D01*
Y0018747D01*
X00155Y0018665D01*
X0015335D01*
X0015253Y0018747D01*
X0015335Y0018665D01*
Y00185D01*
X0015253Y0018418D01*
X0015088D01*
X0014923Y0018582D01*
Y0018747D01*
X0015747Y0018582D02*
X0015912D01*
X0016077Y0018418D01*
Y0018253D01*
X0015747Y0017923D01*
X0015582D01*
X0015418Y0018088D01*
Y0018253D01*
X0015747Y0018582D01*
X0016242Y0018088D02*
X0016407D01*
X0016572Y0017923D01*
Y0017758D01*
X001649Y0017675D01*
X0016325D01*
X0016242Y0017758D01*
X0016325Y0017675D01*
Y001751D01*
X0016242Y0017428D01*
X0016077D01*
X0015912Y0017593D01*
Y0017758D01*
X000775Y0020061D02*
X000845D01*
Y0019711D01*
X0008333Y0019594D01*
X00081D01*
X0007983Y0019711D01*
Y0020061D01*
Y0019828D02*
X000775Y0019594D01*
X0008333Y0019361D02*
X000845Y0019245D01*
Y0019011D01*
X0008333Y0018895D01*
X0008217D01*
X00081Y0019011D01*
Y0019128D01*
Y0019011D01*
X0007983Y0018895D01*
X0007867D01*
X000775Y0019011D01*
Y0019245D01*
X0007867Y0019361D01*
X0008333Y0018661D02*
X000845Y0018545D01*
Y0018312D01*
X0008333Y0018195D01*
X0007867D01*
X000775Y0018312D01*
Y0018545D01*
X0007867Y0018661D01*
X0008333D01*
X000775Y0017962D02*
Y0017728D01*
Y0017845D01*
X000845D01*
X0008333Y0017962D01*
X0009713Y0019683D02*
X0010412D01*
Y0019333D01*
X0010296Y0019216D01*
X0010062D01*
X0009946Y0019333D01*
Y0019683D01*
Y001945D02*
X0009713Y0019216D01*
X0010296Y0018983D02*
X0010412Y0018867D01*
Y0018633D01*
X0010296Y0018517D01*
X0010179D01*
X0010062Y0018633D01*
Y001875D01*
Y0018633D01*
X0009946Y0018517D01*
X0009829D01*
X0009713Y0018633D01*
Y0018867D01*
X0009829Y0018983D01*
X0010296Y0018283D02*
X0010412Y0018167D01*
Y0017933D01*
X0010296Y0017817D01*
X0009829D01*
X0009713Y0017933D01*
Y0018167D01*
X0009829Y0018283D01*
X0010296D01*
Y0017584D02*
X0010412Y0017467D01*
Y0017234D01*
X0010296Y0017117D01*
X0009829D01*
X0009713Y0017234D01*
Y0017467D01*
X0009829Y0017584D01*
X0010296D01*
X-001215Y0027283D02*
X-001145D01*
Y0026933D01*
X-0011567Y0026816D01*
X-00118D01*
X-0011917Y0026933D01*
Y0027283D01*
Y002705D02*
X-001215Y0026816D01*
Y0026117D02*
Y0026583D01*
X-0011683Y0026117D01*
X-0011567D01*
X-001145Y0026233D01*
Y0026467D01*
X-0011567Y0026583D01*
Y0025883D02*
X-001145Y0025767D01*
Y0025533D01*
X-0011567Y0025417D01*
X-0012033D01*
X-001215Y0025533D01*
Y0025767D01*
X-0012033Y0025883D01*
X-0011567D01*
Y0025184D02*
X-001145Y0025067D01*
Y0024834D01*
X-0011567Y0024717D01*
X-0011683D01*
X-00118Y0024834D01*
X-0011917Y0024717D01*
X-0012033D01*
X-001215Y0024834D01*
Y0025067D01*
X-0012033Y0025184D01*
X-0011917D01*
X-00118Y0025067D01*
X-0011683Y0025184D01*
X-0011567D01*
X-00118Y0025067D02*
Y0024834D01*
X000035Y0029083D02*
X000105D01*
Y0028733D01*
X0000933Y0028616D01*
X00007D01*
X0000583Y0028733D01*
Y0029083D01*
Y002885D02*
X000035Y0028616D01*
Y0027917D02*
Y0028383D01*
X0000817Y0027917D01*
X0000933D01*
X000105Y0028033D01*
Y0028267D01*
X0000933Y0028383D01*
Y0027683D02*
X000105Y0027567D01*
Y0027333D01*
X0000933Y0027217D01*
X0000467D01*
X000035Y0027333D01*
Y0027567D01*
X0000467Y0027683D01*
X0000933D01*
X000105Y0026517D02*
X0000933Y002675D01*
X00007Y0026984D01*
X0000467D01*
X000035Y0026867D01*
Y0026634D01*
X0000467Y0026517D01*
X0000583D01*
X00007Y0026634D01*
Y0026984D01*
X0001245Y0033264D02*
X0001739Y0033758D01*
X0001987Y0033511D01*
Y0033346D01*
X0001822Y0033181D01*
X0001657D01*
X000141Y0033429D01*
X0001574Y0033264D02*
Y0032934D01*
X0002069Y0032439D02*
X0001739Y0032769D01*
X0002399D01*
X0002482Y0032851D01*
Y0033016D01*
X0002317Y0033181D01*
X0002152D01*
X0002647Y0032686D02*
X0002811D01*
X0002976Y0032521D01*
Y0032356D01*
X0002647Y0032027D01*
X0002482D01*
X0002317Y0032192D01*
Y0032356D01*
X0002647Y0032686D01*
X0003554Y0031944D02*
X0003224Y0032274D01*
X0002976Y0032027D01*
X0003224Y0031944D01*
X0003306Y0031862D01*
Y0031697D01*
X0003141Y0031532D01*
X0002976D01*
X0002811Y0031697D01*
Y0031862D01*
X-001576Y0033745D02*
X-0016255Y003424D01*
X-0016007Y0034488D01*
X-0015842D01*
X-0015677Y0034323D01*
Y0034158D01*
X-0015925Y003391D01*
X-001576Y0034075D02*
X-001543D01*
X-0014935Y003457D02*
X-0015265Y003424D01*
Y00349D01*
X-0015347Y0034982D01*
X-0015512D01*
X-0015677Y0034818D01*
Y0034653D01*
X-0015182Y0035147D02*
Y0035312D01*
X-0015018Y0035477D01*
X-0014853D01*
X-0014523Y0035147D01*
Y0034982D01*
X-0014688Y0034818D01*
X-0014853D01*
X-0015182Y0035147D01*
X-0014028Y0035477D02*
X-0014523Y0035972D01*
Y0035477D01*
X-0014193Y0035807D01*
X-000616Y0026545D02*
X-0006655Y002704D01*
X-0006407Y0027288D01*
X-0006242D01*
X-0006077Y0027123D01*
Y0026958D01*
X-0006325Y002671D01*
X-000616Y0026875D02*
X-000583D01*
X-0005335Y002737D02*
X-0005665Y002704D01*
Y00277D01*
X-0005747Y0027782D01*
X-0005912D01*
X-0006077Y0027618D01*
Y0027453D01*
X-0005582Y0027947D02*
Y0028112D01*
X-0005418Y0028277D01*
X-0005253D01*
X-0004923Y0027947D01*
Y0027782D01*
X-0005088Y0027618D01*
X-0005253D01*
X-0005582Y0027947D01*
X-0005088Y0028442D02*
Y0028607D01*
X-0004923Y0028772D01*
X-0004758D01*
X-0004675Y002869D01*
Y0028525D01*
X-0004758Y0028442D01*
X-0004675Y0028525D01*
X-000451D01*
X-0004428Y0028442D01*
Y0028277D01*
X-0004593Y0028112D01*
X-0004758D01*
X-0010166Y002545D02*
Y002615D01*
X-0009816D01*
X-00097Y0026033D01*
Y00258D01*
X-0009816Y0025683D01*
X-0010166D01*
X-0009933D02*
X-00097Y002545D01*
X-0009D02*
X-0009467D01*
X-0009Y0025917D01*
Y0026033D01*
X-0009117Y002615D01*
X-000935D01*
X-0009467Y0026033D01*
X-0008767D02*
X-000865Y002615D01*
X-0008417D01*
X-00083Y0026033D01*
Y0025567D01*
X-0008417Y002545D01*
X-000865D01*
X-0008767Y0025567D01*
Y0026033D01*
X-0008067Y002545D02*
X-0007834D01*
X-000795D01*
Y002615D01*
X-0008067Y0026033D01*
X-001365Y0026808D02*
X-001295D01*
Y0026458D01*
X-0013067Y0026341D01*
X-00133D01*
X-0013417Y0026458D01*
Y0026808D01*
Y0026575D02*
X-001365Y0026341D01*
Y0025642D02*
Y0026108D01*
X-0013183Y0025642D01*
X-0013067D01*
X-001295Y0025758D01*
Y0025992D01*
X-0013067Y0026108D01*
X-001365Y0025408D02*
Y0025175D01*
Y0025292D01*
X-001295D01*
X-0013067Y0025408D01*
X-001365Y0024825D02*
Y0024592D01*
Y0024709D01*
X-001295D01*
X-0013067Y0024825D01*
X0009059Y0022867D02*
Y0023333D01*
X0008942Y002345D01*
X0008709D01*
X0008592Y0023333D01*
Y0022867D01*
X0008709Y002275D01*
X0008942D01*
X0008825Y0022983D02*
X0009059Y002275D01*
X0008942D02*
X0009059Y0022867D01*
X0009292Y0023333D02*
X0009408Y002345D01*
X0009642D01*
X0009758Y0023333D01*
Y0023217D01*
X0009642Y00231D01*
X0009525D01*
X0009642D01*
X0009758Y0022983D01*
Y0022867D01*
X0009642Y002275D01*
X0009408D01*
X0009292Y0022867D01*
X0009992Y0023333D02*
X0010108Y002345D01*
X0010342D01*
X0010458Y0023333D01*
Y0022867D01*
X0010342Y002275D01*
X0010108D01*
X0009992Y0022867D01*
Y0023333D01*
X0010691D02*
X0010808Y002345D01*
X0011041D01*
X0011158Y0023333D01*
Y0022867D01*
X0011041Y002275D01*
X0010808D01*
X0010691Y0022867D01*
Y0023333D01*
X-0001391Y-001415D02*
X-0001625D01*
X-0001508D01*
Y-0014733D01*
X-0001625Y-001485D01*
X-0001741D01*
X-0001858Y-0014733D01*
X-0001158Y-001485D02*
X-0000925D01*
X-0001042D01*
Y-001415D01*
X-0001158Y-0014267D01*
X-0000575D02*
X-0000458Y-001415D01*
X-0000225D01*
X-0000109Y-0014267D01*
Y-0014733D01*
X-0000225Y-001485D01*
X-0000458D01*
X-0000575Y-0014733D01*
Y-0014267D01*
X0000125Y-001485D02*
X0000358D01*
X0000241D01*
Y-001415D01*
X0000125Y-0014267D01*
X-0035758Y001035D02*
X-0035991D01*
X-0035875D01*
Y0009767D01*
X-0035991Y000965D01*
X-0036108D01*
X-0036225Y0009767D01*
X-0035525Y000965D02*
X-0035292D01*
X-0035408D01*
Y001035D01*
X-0035525Y0010233D01*
X-0034942D02*
X-0034825Y001035D01*
X-0034592D01*
X-0034475Y0010233D01*
Y0009767D01*
X-0034592Y000965D01*
X-0034825D01*
X-0034942Y0009767D01*
Y0010233D01*
X-0034242D02*
X-0034125Y001035D01*
X-0033892D01*
X-0033775Y0010233D01*
Y0009767D01*
X-0033892Y000965D01*
X-0034125D01*
X-0034242Y0009767D01*
Y0010233D01*
X0018433Y0032941D02*
X001855Y0033058D01*
Y0033291D01*
X0018433Y0033408D01*
X0017967D01*
X001785Y0033291D01*
Y0033058D01*
X0017967Y0032941D01*
X0018433Y0032708D02*
X001855Y0032592D01*
Y0032358D01*
X0018433Y0032242D01*
X0018317D01*
X00182Y0032358D01*
Y0032475D01*
Y0032358D01*
X0018083Y0032242D01*
X0017967D01*
X001785Y0032358D01*
Y0032592D01*
X0017967Y0032708D01*
X001785Y0032008D02*
Y0031775D01*
Y0031892D01*
X001855D01*
X0018433Y0032008D01*
X001785Y0031425D02*
Y0031192D01*
Y0031309D01*
X001855D01*
X0018433Y0031425D01*
X0020733Y0032958D02*
X002085Y0033075D01*
Y0033308D01*
X0020733Y0033425D01*
X0020267D01*
X002015Y0033308D01*
Y0033075D01*
X0020267Y0032958D01*
X0020733Y0032725D02*
X002085Y0032608D01*
Y0032375D01*
X0020733Y0032258D01*
X0020617D01*
X00205Y0032375D01*
Y0032492D01*
Y0032375D01*
X0020383Y0032258D01*
X0020267D01*
X002015Y0032375D01*
Y0032608D01*
X0020267Y0032725D01*
X002015Y0032025D02*
Y0031792D01*
Y0031908D01*
X002085D01*
X0020733Y0032025D01*
Y0031442D02*
X002085Y0031325D01*
Y0031092D01*
X0020733Y0030975D01*
X0020267D01*
X002015Y0031092D01*
Y0031325D01*
X0020267Y0031442D01*
X0020733D01*
X0017788Y0019542D02*
Y0019707D01*
X0017623Y0019872D01*
X0017458D01*
X0017128Y0019542D01*
Y0019377D01*
X0017293Y0019212D01*
X0017458D01*
X0017953Y0019377D02*
X0018118D01*
X0018282Y0019212D01*
Y0019047D01*
X00182Y0018965D01*
X0018035D01*
X0017953Y0019047D01*
X0018035Y0018965D01*
Y00188D01*
X0017953Y0018718D01*
X0017788D01*
X0017623Y0018882D01*
Y0019047D01*
X0018447Y0018882D02*
X0018612D01*
X0018777Y0018718D01*
Y0018553D01*
X0018447Y0018223D01*
X0018282D01*
X0018118Y0018388D01*
Y0018553D01*
X0018447Y0018882D01*
X0018612Y0018058D02*
Y0017893D01*
X0018777Y0017728D01*
X0018942D01*
X0019272Y0018058D01*
Y0018223D01*
X0019107Y0018388D01*
X0018942D01*
X001886Y0018305D01*
Y001814D01*
X0019107Y0017893D01*
X0016288Y0019442D02*
Y0019607D01*
X0016123Y0019772D01*
X0015958D01*
X0015628Y0019442D01*
Y0019277D01*
X0015793Y0019112D01*
X0015958D01*
X0016453Y0019277D02*
X0016618D01*
X0016782Y0019112D01*
Y0018947D01*
X00167Y0018865D01*
X0016535D01*
X0016453Y0018947D01*
X0016535Y0018865D01*
Y00187D01*
X0016453Y0018618D01*
X0016288D01*
X0016123Y0018782D01*
Y0018947D01*
X0016947Y0018782D02*
X0017112D01*
X0017277Y0018618D01*
Y0018453D01*
X0016947Y0018123D01*
X0016782D01*
X0016618Y0018288D01*
Y0018453D01*
X0016947Y0018782D01*
X0017525Y001837D02*
X0017855Y001804D01*
X0017772Y0017958D01*
X0017112D01*
X001703Y0017875D01*
X0011233Y0019216D02*
X001135Y0019333D01*
Y0019566D01*
X0011233Y0019683D01*
X0010767D01*
X001065Y0019566D01*
Y0019333D01*
X0010767Y0019216D01*
X0011233Y0018983D02*
X001135Y0018867D01*
Y0018633D01*
X0011233Y0018517D01*
X0011117D01*
X0011Y0018633D01*
Y001875D01*
Y0018633D01*
X0010883Y0018517D01*
X0010767D01*
X001065Y0018633D01*
Y0018867D01*
X0010767Y0018983D01*
X0011233Y0018283D02*
X001135Y0018167D01*
Y0017933D01*
X0011233Y0017817D01*
X0010767D01*
X001065Y0017933D01*
Y0018167D01*
X0010767Y0018283D01*
X0011233D01*
X001135Y0017117D02*
X0011233Y001735D01*
X0011Y0017584D01*
X0010767D01*
X001065Y0017467D01*
Y0017234D01*
X0010767Y0017117D01*
X0010883D01*
X0011Y0017234D01*
Y0017584D01*
X0022033Y0027216D02*
X002215Y0027333D01*
Y0027566D01*
X0022033Y0027683D01*
X0021567D01*
X002145Y0027566D01*
Y0027333D01*
X0021567Y0027216D01*
X0022033Y0026983D02*
X002215Y0026867D01*
Y0026633D01*
X0022033Y0026517D01*
X0021917D01*
X00218Y0026633D01*
Y002675D01*
Y0026633D01*
X0021683Y0026517D01*
X0021567D01*
X002145Y0026633D01*
Y0026867D01*
X0021567Y0026983D01*
X0022033Y0026283D02*
X002215Y0026167D01*
Y0025933D01*
X0022033Y0025817D01*
X0021567D01*
X002145Y0025933D01*
Y0026167D01*
X0021567Y0026283D01*
X0022033D01*
X002215Y0025117D02*
Y0025584D01*
X00218D01*
X0021917Y002535D01*
Y0025234D01*
X00218Y0025117D01*
X0021567D01*
X002145Y0025234D01*
Y0025467D01*
X0021567Y0025584D01*
X0009933Y0027216D02*
X001005Y0027333D01*
Y0027566D01*
X0009933Y0027683D01*
X0009467D01*
X000935Y0027566D01*
Y0027333D01*
X0009467Y0027216D01*
X0009933Y0026983D02*
X001005Y0026867D01*
Y0026633D01*
X0009933Y0026517D01*
X0009817D01*
X00097Y0026633D01*
Y002675D01*
Y0026633D01*
X0009583Y0026517D01*
X0009467D01*
X000935Y0026633D01*
Y0026867D01*
X0009467Y0026983D01*
X0009933Y0026283D02*
X001005Y0026167D01*
Y0025933D01*
X0009933Y0025817D01*
X0009467D01*
X000935Y0025933D01*
Y0026167D01*
X0009467Y0026283D01*
X0009933D01*
X000935Y0025234D02*
X001005D01*
X00097Y0025584D01*
Y0025117D01*
X0010833Y0027216D02*
X001095Y0027333D01*
Y0027566D01*
X0010833Y0027683D01*
X0010367D01*
X001025Y0027566D01*
Y0027333D01*
X0010367Y0027216D01*
X0010833Y0026983D02*
X001095Y0026867D01*
Y0026633D01*
X0010833Y0026517D01*
X0010717D01*
X00106Y0026633D01*
Y002675D01*
Y0026633D01*
X0010483Y0026517D01*
X0010367D01*
X001025Y0026633D01*
Y0026867D01*
X0010367Y0026983D01*
X0010833Y0026283D02*
X001095Y0026167D01*
Y0025933D01*
X0010833Y0025817D01*
X0010367D01*
X001025Y0025933D01*
Y0026167D01*
X0010367Y0026283D01*
X0010833D01*
Y0025584D02*
X001095Y0025467D01*
Y0025234D01*
X0010833Y0025117D01*
X0010717D01*
X00106Y0025234D01*
Y002535D01*
Y0025234D01*
X0010483Y0025117D01*
X0010367D01*
X001025Y0025234D01*
Y0025467D01*
X0010367Y0025584D01*
X0023033Y0027216D02*
X002315Y0027333D01*
Y0027566D01*
X0023033Y0027683D01*
X0022567D01*
X002245Y0027566D01*
Y0027333D01*
X0022567Y0027216D01*
X0023033Y0026983D02*
X002315Y0026867D01*
Y0026633D01*
X0023033Y0026517D01*
X0022917D01*
X00228Y0026633D01*
Y002675D01*
Y0026633D01*
X0022683Y0026517D01*
X0022567D01*
X002245Y0026633D01*
Y0026867D01*
X0022567Y0026983D01*
X0023033Y0026283D02*
X002315Y0026167D01*
Y0025933D01*
X0023033Y0025817D01*
X0022567D01*
X002245Y0025933D01*
Y0026167D01*
X0022567Y0026283D01*
X0023033D01*
X002245Y0025117D02*
Y0025584D01*
X0022917Y0025117D01*
X0023033D01*
X002315Y0025234D01*
Y0025467D01*
X0023033Y0025584D01*
X0002684Y0023533D02*
X0002567Y002365D01*
X0002334D01*
X0002217Y0023533D01*
Y0023067D01*
X0002334Y002295D01*
X0002567D01*
X0002684Y0023067D01*
X0002917Y0023533D02*
X0003033Y002365D01*
X0003267D01*
X0003383Y0023533D01*
Y0023417D01*
X0003267Y00233D01*
X000315D01*
X0003267D01*
X0003383Y0023183D01*
Y0023067D01*
X0003267Y002295D01*
X0003033D01*
X0002917Y0023067D01*
X0003617Y0023533D02*
X0003733Y002365D01*
X0003967D01*
X0004083Y0023533D01*
Y0023067D01*
X0003967Y002295D01*
X0003733D01*
X0003617Y0023067D01*
Y0023533D01*
X0004316D02*
X0004433Y002365D01*
X0004666D01*
X0004783Y0023533D01*
Y0023067D01*
X0004666Y002295D01*
X0004433D01*
X0004316Y0023067D01*
Y0023533D01*
X-0017616Y0032833D02*
X-0017733Y003295D01*
X-0017966D01*
X-0018083Y0032833D01*
Y0032367D01*
X-0017966Y003225D01*
X-0017733D01*
X-0017616Y0032367D01*
X-0016917Y003225D02*
X-0017383D01*
X-0016917Y0032717D01*
Y0032833D01*
X-0017033Y003295D01*
X-0017267D01*
X-0017383Y0032833D01*
X-0016683D02*
X-0016567Y003295D01*
X-0016333D01*
X-0016217Y0032833D01*
Y0032717D01*
X-0016333Y00326D01*
X-001645D01*
X-0016333D01*
X-0016217Y0032483D01*
Y0032367D01*
X-0016333Y003225D01*
X-0016567D01*
X-0016683Y0032367D01*
X-0015984Y0032833D02*
X-0015867Y003295D01*
X-0015634D01*
X-0015517Y0032833D01*
Y0032367D01*
X-0015634Y003225D01*
X-0015867D01*
X-0015984Y0032367D01*
Y0032833D01*
X-0014264Y0042394D02*
Y0042559D01*
X-0014429Y0042724D01*
X-0014594D01*
X-0014924Y0042394D01*
Y0042229D01*
X-0014759Y0042064D01*
X-0014594D01*
X-0014182Y0041487D02*
X-0014512Y0041816D01*
X-0013852D01*
X-0013769Y0041899D01*
Y0042064D01*
X-0013934Y0042229D01*
X-0014099D01*
X-0013687Y0040992D02*
X-0014017Y0041322D01*
X-0013357D01*
X-0013275Y0041404D01*
Y0041569D01*
X-001344Y0041734D01*
X-0013604D01*
X-0013522Y0040827D02*
X-0013357Y0040662D01*
X-001344Y0040744D01*
X-0012945Y0041239D01*
X-001311D01*
X-0011712Y0042442D02*
Y0042607D01*
X-0011877Y0042772D01*
X-0012042D01*
X-0012372Y0042442D01*
Y0042277D01*
X-0012207Y0042112D01*
X-0012042D01*
X-001163Y0041535D02*
X-001196Y0041865D01*
X-00113D01*
X-0011218Y0041947D01*
Y0042112D01*
X-0011382Y0042277D01*
X-0011547D01*
X-0011135Y004104D02*
X-0011465Y004137D01*
X-0010805D01*
X-0010723Y0041453D01*
Y0041618D01*
X-0010888Y0041782D01*
X-0011053D01*
X-0010558Y0041288D02*
X-0010393D01*
X-0010228Y0041123D01*
Y0040958D01*
X-0010558Y0040628D01*
X-0010723D01*
X-0010888Y0040793D01*
Y0040958D01*
X-0010558Y0041288D01*
X-0000171Y0031201D02*
Y0031366D01*
X-0000336Y0031531D01*
X-0000501D01*
X-0000831Y0031201D01*
Y0031036D01*
X-0000666Y0030871D01*
X-0000501D01*
X-0000089Y0030294D02*
X-0000419Y0030624D01*
X0000241D01*
X0000324Y0030706D01*
Y0030871D01*
X0000159Y0031036D01*
X-0000006D01*
X0000076Y0030129D02*
X0000241Y0029964D01*
X0000159Y0030046D01*
X0000654Y0030541D01*
X0000489D01*
X0000571Y0029799D02*
Y0029634D01*
X0000736Y0029469D01*
X0000901D01*
X0001231Y0029799D01*
Y0029964D01*
X0001066Y0030129D01*
X0000901D01*
X0000819Y0030046D01*
Y0029881D01*
X0001066Y0029634D01*
X-0001801Y0043129D02*
X-0001966D01*
X-0002131Y0042964D01*
Y0042799D01*
X-0001801Y0042469D01*
X-0001636D01*
X-0001471Y0042634D01*
Y0042799D01*
X-0000894Y0043211D02*
X-0001224Y0042881D01*
Y0043541D01*
X-0001306Y0043624D01*
X-0001471D01*
X-0001636Y0043459D01*
Y0043294D01*
X-0000729Y0043376D02*
X-0000564Y0043541D01*
X-0000646Y0043459D01*
X-0001141Y0043954D01*
Y0043789D01*
X-0000729Y0044201D02*
Y0044366D01*
X-0000564Y0044531D01*
X-0000399D01*
X-0000317Y0044448D01*
Y0044283D01*
X-0000152D01*
X-0000069Y0044201D01*
Y0044036D01*
X-0000234Y0043871D01*
X-0000399D01*
X-0000481Y0043954D01*
Y0044119D01*
X-0000646D01*
X-0000729Y0044201D01*
X-0000481Y0044119D02*
X-0000317Y0044283D01*
X-0016867Y0039916D02*
X-001675Y0040033D01*
Y0040266D01*
X-0016867Y0040383D01*
X-0017333D01*
X-001745Y0040266D01*
Y0040033D01*
X-0017333Y0039916D01*
X-001745Y0039217D02*
Y0039683D01*
X-0016983Y0039217D01*
X-0016867D01*
X-001675Y0039333D01*
Y0039567D01*
X-0016867Y0039683D01*
Y0038983D02*
X-001675Y0038867D01*
Y0038633D01*
X-0016867Y0038517D01*
X-0017333D01*
X-001745Y0038633D01*
Y0038867D01*
X-0017333Y0038983D01*
X-0016867D01*
Y0038284D02*
X-001675Y0038167D01*
Y0037934D01*
X-0016867Y0037817D01*
X-0017333D01*
X-001745Y0037934D01*
Y0038167D01*
X-0017333Y0038284D01*
X-0016867D01*
X-0022967Y0037116D02*
X-002285Y0037233D01*
Y0037466D01*
X-0022967Y0037583D01*
X-0023433D01*
X-002355Y0037466D01*
Y0037233D01*
X-0023433Y0037116D01*
X-002355Y0036417D02*
Y0036883D01*
X-0023083Y0036417D01*
X-0022967D01*
X-002285Y0036533D01*
Y0036767D01*
X-0022967Y0036883D01*
Y0036183D02*
X-002285Y0036067D01*
Y0035833D01*
X-0022967Y0035717D01*
X-0023433D01*
X-002355Y0035833D01*
Y0036067D01*
X-0023433Y0036183D01*
X-0022967D01*
X-002285Y0035017D02*
Y0035484D01*
X-00232D01*
X-0023083Y003525D01*
Y0035134D01*
X-00232Y0035017D01*
X-0023433D01*
X-002355Y0035134D01*
Y0035367D01*
X-0023433Y0035484D01*
X-0002571Y0029001D02*
Y0029166D01*
X-0002736Y0029331D01*
X-0002901D01*
X-0003231Y0029001D01*
Y0028836D01*
X-0003066Y0028671D01*
X-0002901D01*
X-0002489Y0028094D02*
X-0002819Y0028424D01*
X-0002159D01*
X-0002076Y0028506D01*
Y0028671D01*
X-0002241Y0028836D01*
X-0002406D01*
X-0002324Y0027929D02*
X-0002159Y0027764D01*
X-0002241Y0027846D01*
X-0001746Y0028341D01*
X-0001911D01*
X-0001664Y0027269D02*
X-0001169Y0027764D01*
X-0001664D01*
X-0001334Y0027434D01*
X0001229Y0032601D02*
Y0032766D01*
X0001064Y0032931D01*
X0000899D01*
X0000569Y0032601D01*
Y0032436D01*
X0000734Y0032271D01*
X0000899D01*
X0001311Y0031694D02*
X0000981Y0032024D01*
X0001641D01*
X0001724Y0032106D01*
Y0032271D01*
X0001559Y0032436D01*
X0001394D01*
X0001476Y0031529D02*
X0001641Y0031364D01*
X0001559Y0031446D01*
X0002054Y0031941D01*
X0001889D01*
X0002301Y0031529D02*
X0002466D01*
X0002631Y0031364D01*
Y0031199D01*
X0002548Y0031117D01*
X0002383D01*
X0002301Y0031199D01*
X0002383Y0031117D01*
Y0030952D01*
X0002301Y0030869D01*
X0002136D01*
X0001971Y0031034D01*
Y0031199D01*
X-0001542Y0039388D02*
X-0001707D01*
X-0001872Y0039223D01*
Y0039058D01*
X-0001542Y0038728D01*
X-0001377D01*
X-0001212Y0038893D01*
Y0039058D01*
X-0000635Y003947D02*
X-0000965Y003914D01*
Y00398D01*
X-0001047Y0039882D01*
X-0001212D01*
X-0001377Y0039718D01*
Y0039553D01*
X-0000882Y0040047D02*
Y0040212D01*
X-0000718Y0040377D01*
X-0000553D01*
X-0000223Y0040047D01*
Y0039882D01*
X-0000388Y0039718D01*
X-0000553D01*
X-0000882Y0040047D01*
X-0000058Y0040212D02*
X0000107D01*
X0000272Y0040377D01*
Y0040542D01*
X-0000058Y0040872D01*
X-0000223D01*
X-0000388Y0040707D01*
Y0040542D01*
X-0000305Y004046D01*
X-000014D01*
X0000107Y0040707D01*
X-0042517Y0009066D02*
X-00424Y0009183D01*
Y0009416D01*
X-0042517Y0009533D01*
X-0042983D01*
X-00431Y0009416D01*
Y0009183D01*
X-0042983Y0009066D01*
X-00431Y0008367D02*
Y0008833D01*
X-0042633Y0008367D01*
X-0042517D01*
X-00424Y0008483D01*
Y0008717D01*
X-0042517Y0008833D01*
Y0008133D02*
X-00424Y0008017D01*
Y0007783D01*
X-0042517Y0007667D01*
X-0042983D01*
X-00431Y0007783D01*
Y0008017D01*
X-0042983Y0008133D01*
X-0042517D01*
X-00431Y0007084D02*
X-00424D01*
X-004275Y0007434D01*
Y0006967D01*
X-0043066Y0004733D02*
X-0043183Y000485D01*
X-0043416D01*
X-0043533Y0004733D01*
Y0004267D01*
X-0043416Y000415D01*
X-0043183D01*
X-0043066Y0004267D01*
X-0042367Y000415D02*
X-0042833D01*
X-0042367Y0004617D01*
Y0004733D01*
X-0042483Y000485D01*
X-0042717D01*
X-0042833Y0004733D01*
X-0042133D02*
X-0042017Y000485D01*
X-0041783D01*
X-0041667Y0004733D01*
Y0004267D01*
X-0041783Y000415D01*
X-0042017D01*
X-0042133Y0004267D01*
Y0004733D01*
X-0041434D02*
X-0041317Y000485D01*
X-0041084D01*
X-0040967Y0004733D01*
Y0004617D01*
X-0041084Y00045D01*
X-00412D01*
X-0041084D01*
X-0040967Y0004383D01*
Y0004267D01*
X-0041084Y000415D01*
X-0041317D01*
X-0041434Y0004267D01*
X-0043158Y-0007767D02*
X-0043275Y-000765D01*
X-0043508D01*
X-0043625Y-0007767D01*
Y-0008233D01*
X-0043508Y-000835D01*
X-0043275D01*
X-0043158Y-0008233D01*
X-0042925Y-000835D02*
X-0042692D01*
X-0042808D01*
Y-000765D01*
X-0042925Y-0007767D01*
X-0042342D02*
X-0042225Y-000765D01*
X-0041992D01*
X-0041875Y-0007767D01*
Y-0008233D01*
X-0041992Y-000835D01*
X-0042225D01*
X-0042342Y-0008233D01*
Y-0007767D01*
X-0041642D02*
X-0041525Y-000765D01*
X-0041292D01*
X-0041175Y-0007767D01*
Y-0007883D01*
X-0041292Y-0008D01*
X-0041409D01*
X-0041292D01*
X-0041175Y-0008117D01*
Y-0008233D01*
X-0041292Y-000835D01*
X-0041525D01*
X-0041642Y-0008233D01*
X-0043158Y-0009567D02*
X-0043275Y-000945D01*
X-0043508D01*
X-0043625Y-0009567D01*
Y-0010033D01*
X-0043508Y-001015D01*
X-0043275D01*
X-0043158Y-0010033D01*
X-0042925Y-001015D02*
X-0042692D01*
X-0042808D01*
Y-000945D01*
X-0042925Y-0009567D01*
X-0042342D02*
X-0042225Y-000945D01*
X-0041992D01*
X-0041875Y-0009567D01*
Y-0010033D01*
X-0041992Y-001015D01*
X-0042225D01*
X-0042342Y-0010033D01*
Y-0009567D01*
X-0041175Y-001015D02*
X-0041642D01*
X-0041175Y-0009683D01*
Y-0009567D01*
X-0041292Y-000945D01*
X-0041525D01*
X-0041642Y-0009567D01*
D14*
X0020025Y-00081D02*
X0021925D01*
X0020025Y-0007D02*
X0021925D01*
X0022025Y-00081D02*
Y-0007D01*
X0021925D02*
X0022025D01*
X0021925Y-00081D02*
X0022025D01*
X0021925D02*
Y-0007D01*
X0013025Y-000895D02*
X0014125D01*
Y-000885D01*
X0013025Y-000895D02*
Y-000885D01*
X0014125D01*
X0013025Y-001085D02*
Y-000895D01*
X0014125Y-001085D02*
Y-000895D01*
D15*
X0027434Y0024567D02*
X0027567Y00247D01*
X0027834D01*
X0027967Y0024567D01*
Y0024433D01*
X0027834Y00243D01*
X00277D01*
X0027834D01*
X0027967Y0024167D01*
Y0024033D01*
X0027834Y00239D01*
X0027567D01*
X0027434Y0024033D01*
X0028233Y00247D02*
Y0024167D01*
X00285Y00239D01*
X0028767Y0024167D01*
Y00247D01*
X0029033Y0024567D02*
X0029166Y00247D01*
X0029433D01*
X0029566Y0024567D01*
Y0024433D01*
X0029433Y00243D01*
X00293D01*
X0029433D01*
X0029566Y0024167D01*
Y0024033D01*
X0029433Y00239D01*
X0029166D01*
X0029033Y0024033D01*
X0033047Y0024567D02*
X0032914Y00247D01*
X0032647D01*
X0032514Y0024567D01*
Y0024033D01*
X0032647Y00239D01*
X0032914D01*
X0033047Y0024033D01*
Y00243D01*
X003278D01*
X0033313Y00239D02*
Y00247D01*
X0033847Y00239D01*
Y00247D01*
X0034113D02*
Y00239D01*
X0034513D01*
X0034646Y0024033D01*
Y0024567D01*
X0034513Y00247D01*
X0034113D01*
X002242Y00239D02*
X0022687D01*
X0022554D01*
Y00247D01*
X002242Y0024567D01*
X002362Y00239D02*
X0023087D01*
X002362Y0024433D01*
Y0024567D01*
X0023487Y00247D01*
X002322D01*
X0023087Y0024567D01*
X0023887Y00247D02*
Y0024167D01*
X0024153Y00239D01*
X002442Y0024167D01*
Y00247D01*
X0025827D02*
X0025294D01*
Y00243D01*
X002556Y0024433D01*
X0025693D01*
X0025827Y00243D01*
Y0024033D01*
X0025693Y00239D01*
X0025427D01*
X0025294Y0024033D01*
X0026093Y00247D02*
Y0024167D01*
X002636Y00239D01*
X0026626Y0024167D01*
Y00247D01*
D16*
X0002962Y-004065D02*
Y-003995D01*
X0003312D01*
X0003428Y-0040067D01*
Y-00403D01*
X0003312Y-0040417D01*
X0002962D01*
X0004128Y-0040067D02*
X0004012Y-003995D01*
X0003778D01*
X0003662Y-0040067D01*
Y-0040533D01*
X0003778Y-004065D01*
X0004012D01*
X0004128Y-0040533D01*
Y-00403D01*
X0003895D01*
X0004828Y-0040067D02*
X0004711Y-003995D01*
X0004478D01*
X0004362Y-0040067D01*
Y-0040533D01*
X0004478Y-004065D01*
X0004711D01*
X0004828Y-0040533D01*
X-0007198Y-004065D02*
Y-003995D01*
X-0006848D01*
X-0006732Y-0040067D01*
Y-00403D01*
X-0006848Y-0040417D01*
X-0007198D01*
X-0006965D02*
X-0006732Y-004065D01*
X-0006032Y-0040067D02*
X-0006148Y-003995D01*
X-0006382D01*
X-0006498Y-0040067D01*
Y-0040183D01*
X-0006382Y-00403D01*
X-0006148D01*
X-0006032Y-0040417D01*
Y-0040533D01*
X-0006148Y-004065D01*
X-0006382D01*
X-0006498Y-0040533D01*
X-0005798Y-003995D02*
X-0005332D01*
X-0005565D01*
Y-004065D01*
X-0004658Y-0040067D02*
X-0004541Y-003995D01*
X-0004308D01*
X-0004192Y-0040067D01*
Y-0040183D01*
X-0004308Y-00403D01*
X-0004425D01*
X-0004308D01*
X-0004192Y-0040417D01*
Y-0040533D01*
X-0004308Y-004065D01*
X-0004541D01*
X-0004658Y-0040533D01*
X-0003958Y-003995D02*
Y-0040417D01*
X-0003725Y-004065D01*
X-0003492Y-0040417D01*
Y-003995D01*
X-0003258Y-0040067D02*
X-0003142Y-003995D01*
X-0002909D01*
X-0002792Y-0040067D01*
Y-0040183D01*
X-0002909Y-00403D01*
X-0003025D01*
X-0002909D01*
X-0002792Y-0040417D01*
Y-0040533D01*
X-0002909Y-004065D01*
X-0003142D01*
X-0003258Y-0040533D01*
X-0001652Y-0040067D02*
X-0001768Y-003995D01*
X-0002001D01*
X-0002118Y-0040067D01*
Y-0040533D01*
X-0002001Y-004065D01*
X-0001768D01*
X-0001652Y-0040533D01*
Y-00403D01*
X-0001885D01*
X-0001418Y-004065D02*
Y-003995D01*
X-0000952Y-004065D01*
Y-003995D01*
X-0000718D02*
Y-004065D01*
X-0000369D01*
X-0000252Y-0040533D01*
Y-0040067D01*
X-0000369Y-003995D01*
X-0000718D01*
X0000422Y-004065D02*
Y-003995D01*
X0000772D01*
X0000888Y-0040067D01*
Y-00403D01*
X0000772Y-0040417D01*
X0000422D01*
X0001588Y-0040067D02*
X0001472Y-003995D01*
X0001238D01*
X0001122Y-0040067D01*
Y-0040533D01*
X0001238Y-004065D01*
X0001472D01*
X0001588Y-0040533D01*
Y-00403D01*
X0001355D01*
X0001822Y-003995D02*
Y-004065D01*
X0002171D01*
X0002288Y-0040533D01*
Y-0040067D01*
X0002171Y-003995D01*
X0001822D01*
M02*
