G04*
G04 #@! TF.GenerationSoftware,Altium Limited,Altium Designer,21.8.1 (53)*
G04*
G04 Layer_Physical_Order=2*
G04 Layer_Color=16776960*
%FSTAX43Y43*%
%MOMM*%
G71*
G04*
G04 #@! TF.SameCoordinates,4D8E118D-B1AD-4882-94AF-A7B266F95968*
G04*
G04*
G04 #@! TF.FilePolarity,Positive*
G04*
G01*
G75*
%ADD10C,0.200*%
%ADD67C,1.000*%
%ADD68C,1.800*%
%ADD70O,1.400X1.950*%
%ADD71O,1.600X3.500*%
%ADD73C,1.600*%
%ADD81C,0.300*%
%ADD88C,0.600*%
G36*
X0002983Y0045505D02*
X0004965Y0045332D01*
X0006937Y0045072D01*
X0008897Y0044727D01*
X0010839Y0044296D01*
X0012761Y0043781D01*
X0014659Y0043183D01*
X0016528Y0042502D01*
X0018366Y0041741D01*
X002017Y00409D01*
X0021935Y0039981D01*
X0023658Y0038987D01*
X0025336Y0037918D01*
X0026965Y0036776D01*
X0028544Y0035565D01*
X0030068Y0034286D01*
X0031535Y0032942D01*
X0032942Y0031535D01*
X0034286Y0030068D01*
X0035565Y0028544D01*
X0036776Y0026965D01*
X0037918Y0025336D01*
X0038987Y0023658D01*
X0039981Y0021935D01*
X00409Y002017D01*
X0041741Y0018367D01*
X0042502Y0016528D01*
X0043183Y0014659D01*
X0043781Y0012761D01*
X0044296Y0010839D01*
X0044727Y0008897D01*
X0045072Y0006937D01*
X0045332Y0004965D01*
X0045505Y0002983D01*
X0045592Y0000995D01*
Y0D01*
Y-0000995D01*
X0045505Y-0002983D01*
X0045332Y-0004965D01*
X0045072Y-0006937D01*
X0044727Y-0008897D01*
X0044296Y-0010839D01*
X0043781Y-0012761D01*
X0043183Y-0014659D01*
X0042502Y-0016528D01*
X0041741Y-0018366D01*
X00409Y-002017D01*
X0039981Y-0021935D01*
X0038987Y-0023658D01*
X0037918Y-0025336D01*
X0036776Y-0026965D01*
X0035565Y-0028544D01*
X0034286Y-0030068D01*
X0032942Y-0031535D01*
X0031535Y-0032942D01*
X0030068Y-0034286D01*
X0028544Y-0035565D01*
X0026965Y-0036776D01*
X0025336Y-0037918D01*
X0023658Y-0038987D01*
X0021935Y-0039981D01*
X002017Y-00409D01*
X0018367Y-0041741D01*
X0016528Y-0042502D01*
X0014659Y-0043183D01*
X0012761Y-0043781D01*
X0010839Y-0044296D01*
X0008897Y-0044727D01*
X0006937Y-0045072D01*
X0004965Y-0045332D01*
X0002983Y-0045505D01*
X0000995Y-0045592D01*
X-0000995D01*
X-0002983Y-0045505D01*
X-0004965Y-0045332D01*
X-0006937Y-0045072D01*
X-0008897Y-0044727D01*
X-0010839Y-0044296D01*
X-0012761Y-0043781D01*
X-0014659Y-0043183D01*
X-0016528Y-0042502D01*
X-0018366Y-0041741D01*
X-002017Y-00409D01*
X-0021935Y-0039981D01*
X-0023658Y-0038987D01*
X-0025336Y-0037918D01*
X-0026965Y-0036776D01*
X-0028544Y-0035565D01*
X-0030068Y-0034286D01*
X-0031535Y-0032942D01*
X-0032942Y-0031535D01*
X-0034286Y-0030068D01*
X-0035565Y-0028544D01*
X-0036776Y-0026965D01*
X-0037918Y-0025336D01*
X-0038987Y-0023658D01*
X-0039981Y-0021935D01*
X-00409Y-002017D01*
X-0041741Y-0018367D01*
X-0042502Y-0016528D01*
X-0043183Y-0014659D01*
X-0043781Y-0012761D01*
X-0044296Y-0010839D01*
X-0044727Y-0008897D01*
X-0045072Y-0006937D01*
X-0045332Y-0004965D01*
X-0045505Y-0002983D01*
X-0045592Y-0000995D01*
Y0D01*
Y0000995D01*
X-0045505Y0002983D01*
X-0045332Y0004965D01*
X-0045072Y0006937D01*
X-0044727Y0008897D01*
X-0044296Y0010839D01*
X-0043781Y0012761D01*
X-0043183Y0014659D01*
X-0042502Y0016528D01*
X-0041741Y0018366D01*
X-00409Y002017D01*
X-0039981Y0021935D01*
X-0038987Y0023658D01*
X-0037918Y0025336D01*
X-0036776Y0026965D01*
X-0035565Y0028544D01*
X-0034286Y0030068D01*
X-0032942Y0031535D01*
X-0031535Y0032942D01*
X-0030068Y0034286D01*
X-0028544Y0035565D01*
X-0026965Y0036776D01*
X-002649Y0037109D01*
X-002634Y0036996D01*
X-0026325Y0036981D01*
Y0036815D01*
X-002626Y0036659D01*
X-0026141Y003654D01*
X-0025985Y0036475D01*
X-0025815D01*
X-0025659Y003654D01*
X-002554Y0036659D01*
X-0025475Y0036815D01*
Y0036985D01*
X-002554Y0037141D01*
X-0025659Y003726D01*
X-0025815Y0037325D01*
X-0025833D01*
X-0025896Y0037525D01*
X-0025336Y0037918D01*
X-0023658Y0038987D01*
X-0021935Y0039981D01*
X-002017Y00409D01*
X-0018367Y0041741D01*
X-0016528Y0042502D01*
X-0014659Y0043183D01*
X-0012761Y0043781D01*
X-0010839Y0044296D01*
X-0008897Y0044727D01*
X-0006937Y0045072D01*
X-0004965Y0045332D01*
X-0002983Y0045505D01*
X-0000995Y0045592D01*
X0000995D01*
X0002983Y0045505D01*
D02*
G37*
%LPC*%
G36*
X0001485Y0044325D02*
X0001315D01*
X0001159Y004426D01*
X000104Y0044141D01*
X0000975Y0043985D01*
Y0043815D01*
X000104Y0043659D01*
X0001159Y004354D01*
X0001315Y0043475D01*
X0001485D01*
X0001641Y004354D01*
X000176Y0043659D01*
X0001825Y0043815D01*
Y0043985D01*
X000176Y0044141D01*
X0001641Y004426D01*
X0001485Y0044325D01*
D02*
G37*
G36*
X-0010515Y0043425D02*
X-0010685D01*
X-0010841Y004336D01*
X-001096Y0043241D01*
X-0011084Y004311D01*
X-001124Y0043175D01*
X-001141D01*
X-0011566Y004311D01*
X-0011685Y0042991D01*
X-0011884Y0042935D01*
X-001204Y0043D01*
X-001221D01*
X-0012366Y0042935D01*
X-0012485Y0042816D01*
X-0012528Y0042712D01*
X-0012686Y0042654D01*
X-001275Y0042651D01*
X-0012759Y004266D01*
X-0012915Y0042725D01*
X-0013085D01*
X-0013241Y004266D01*
X-001336Y0042541D01*
X-0013418Y0042402D01*
X-0013445Y0042375D01*
X-0013625Y0042288D01*
X-0013715Y0042325D01*
X-0013885D01*
X-0014041Y004226D01*
X-001416Y0042141D01*
X-0014225Y0041985D01*
Y0041815D01*
X-001416Y0041659D01*
X-0014041Y004154D01*
X-0013885Y0041475D01*
X-0013715D01*
X-0013559Y004154D01*
X-001344Y0041659D01*
X-0013382Y0041798D01*
X-0013355Y0041825D01*
X-0013175Y0041912D01*
X-0013085Y0041875D01*
X-0012915D01*
X-0012759Y004194D01*
X-001264Y0042059D01*
X-0012597Y0042163D01*
X-0012439Y0042221D01*
X-0012375Y0042224D01*
X-0012366Y0042215D01*
X-0012262Y0042172D01*
X-0012196Y0041994D01*
X-0012192Y004195D01*
X-001225Y004181D01*
Y004164D01*
X-0012185Y0041484D01*
X-0012066Y0041365D01*
X-001191Y00413D01*
X-001174D01*
X-0011584Y0041365D01*
X-0011465Y0041484D01*
X-00114Y004164D01*
Y004181D01*
X-0011465Y0041966D01*
X-0011584Y0042085D01*
X-0011613Y0042313D01*
X-0011577Y0042387D01*
X-0011566Y004239D01*
X-001141Y0042325D01*
X-001124D01*
X-0011084Y004239D01*
X-0010965Y0042509D01*
X-0010841Y004264D01*
X-0010685Y0042575D01*
X-0010515D01*
X-0010359Y004264D01*
X-001024Y0042759D01*
X-0010175Y0042915D01*
Y0043085D01*
X-001024Y0043241D01*
X-0010359Y004336D01*
X-0010515Y0043425D01*
D02*
G37*
G36*
X-0000015Y0043525D02*
X-0000185D01*
X-0000341Y004346D01*
X-000046Y0043341D01*
X-0000525Y0043185D01*
Y0043015D01*
X-000046Y0042859D01*
X-0000341Y004274D01*
X-0000185Y0042675D01*
X-0000015D01*
X0000141Y004274D01*
X000026Y0042859D01*
X0000325Y0043015D01*
Y0043185D01*
X000026Y0043341D01*
X0000141Y004346D01*
X-0000015Y0043525D01*
D02*
G37*
G36*
X-0008815Y0042325D02*
X-0008985D01*
X-0009141Y004226D01*
X-000926Y0042141D01*
X-0009268Y0042122D01*
X-0009343Y0041988D01*
X-0009509Y0042022D01*
X-0009515Y0042025D01*
X-0009685D01*
X-0009841Y004196D01*
X-000996Y0041841D01*
X-0010025Y0041685D01*
Y0041515D01*
X-000996Y0041359D01*
X-0009841Y004124D01*
X-0009685Y0041175D01*
X-0009515D01*
X-0009359Y004124D01*
X-000924Y0041359D01*
X-0009232Y0041378D01*
X-0009157Y0041512D01*
X-0008991Y0041478D01*
X-0008985Y0041475D01*
X-0008815D01*
X-0008659Y004154D01*
X-000854Y0041659D01*
X-0008475Y0041815D01*
Y0041985D01*
X-000854Y0042141D01*
X-0008659Y004226D01*
X-0008815Y0042325D01*
D02*
G37*
G36*
X0003635Y0042725D02*
X0003465D01*
X0003309Y004266D01*
X000319Y0042541D01*
X0003125Y0042385D01*
Y0042215D01*
X000319Y0042059D01*
X0003309Y004194D01*
X0003465Y0041875D01*
X0003635D01*
X0003791Y004194D01*
X000391Y0042059D01*
X0003975Y0042215D01*
Y0042385D01*
X000391Y0042541D01*
X0003791Y004266D01*
X0003635Y0042725D01*
D02*
G37*
G36*
X-0017515Y0041025D02*
X-0017685D01*
X-0017841Y004096D01*
X-001796Y0040841D01*
X-0018025Y0040685D01*
Y0040515D01*
X-001796Y0040359D01*
X-0017841Y004024D01*
X-0017685Y0040175D01*
X-0017515D01*
X-0017359Y004024D01*
X-001724Y0040359D01*
X-0017175Y0040515D01*
Y0040685D01*
X-001724Y0040841D01*
X-0017359Y004096D01*
X-0017515Y0041025D01*
D02*
G37*
G36*
X-0004116Y0041766D02*
X-0004285D01*
X-0004442Y0041701D01*
X-0004561Y0041582D01*
X-0004626Y0041426D01*
Y0041257D01*
X-0004561Y00411D01*
X-0004442Y0040981D01*
X-0004285Y0040916D01*
X-0004116D01*
X-000404Y0040948D01*
X-0003887Y0040795D01*
X-0003919Y0040719D01*
Y004055D01*
X-0003854Y0040393D01*
X-0003735Y0040274D01*
X-0003578Y0040209D01*
X-0003409D01*
X-0003253Y0040274D01*
X-0003225Y0040302D01*
X-0003025Y0040219D01*
Y0040215D01*
X-000296Y0040059D01*
X-0002841Y003994D01*
X-0002685Y0039875D01*
X-0002515D01*
X-0002359Y003994D01*
X-000224Y0040059D01*
X-0002175Y0040215D01*
Y0040385D01*
X-000224Y0040541D01*
X-0002359Y004066D01*
X-0002515Y0040725D01*
X-0002685D01*
X-0002841Y004066D01*
X-0002869Y0040632D01*
X-0003069Y0040715D01*
Y0040719D01*
X-0003133Y0040875D01*
X-0003253Y0040994D01*
X-0003409Y0041059D01*
X-0003578D01*
X-0003654Y0041028D01*
X-0003807Y0041181D01*
X-0003776Y0041257D01*
Y0041426D01*
X-0003841Y0041582D01*
X-000396Y0041701D01*
X-0004116Y0041766D01*
D02*
G37*
G36*
X-001904Y0040175D02*
X-001921D01*
X-0019366Y004011D01*
X-0019485Y0039991D01*
X-001955Y0039835D01*
Y0039665D01*
X-0019485Y0039509D01*
X-0019366Y003939D01*
X-001921Y0039325D01*
X-001904D01*
X-0018884Y003939D01*
X-0018765Y0039509D01*
X-00187Y0039665D01*
Y0039835D01*
X-0018765Y0039991D01*
X-0018884Y004011D01*
X-001904Y0040175D01*
D02*
G37*
G36*
X-0010869Y0040175D02*
X-0011038D01*
X-0011194Y004011D01*
X-0011314Y0039991D01*
X-0011379Y0039835D01*
Y003983D01*
X-0011397Y0039664D01*
X-0011564Y0039645D01*
X-0011569D01*
X-0011725Y003958D01*
X-0011844Y0039461D01*
X-0011909Y0039304D01*
Y0039135D01*
X-0011844Y0038979D01*
X-0011725Y003886D01*
X-0011569Y0038795D01*
X-00114D01*
X-0011243Y003886D01*
X-0011124Y0038979D01*
X-0011059Y0039135D01*
Y003914D01*
X-001104Y0039306D01*
X-0010874Y0039325D01*
X-0010869D01*
X-0010713Y003939D01*
X-0010593Y0039509D01*
X-0010529Y0039666D01*
Y0039835D01*
X-0010593Y0039991D01*
X-0010713Y004011D01*
X-0010869Y0040175D01*
D02*
G37*
G36*
X0000485Y0038725D02*
X0000315D01*
X0000159Y003866D01*
X000004Y0038541D01*
X-0000025Y0038385D01*
Y0038215D01*
X000004Y0038059D01*
X0000159Y003794D01*
X0000315Y0037875D01*
X0000485D01*
X0000641Y003794D01*
X000076Y0038059D01*
X0000825Y0038215D01*
Y0038385D01*
X000076Y0038541D01*
X0000641Y003866D01*
X0000485Y0038725D01*
D02*
G37*
G36*
X-0000899Y0038549D02*
X-0001068D01*
X-0001224Y0038484D01*
X-0001344Y0038365D01*
X-0001409Y0038208D01*
Y0038039D01*
X-0001344Y0037883D01*
X-0001224Y0037764D01*
X-0001068Y0037699D01*
X-0000899D01*
X-0000743Y0037764D01*
X-0000623Y0037883D01*
X-0000559Y0038039D01*
Y0038208D01*
X-0000623Y0038365D01*
X-0000743Y0038484D01*
X-0000899Y0038549D01*
D02*
G37*
G36*
X-0013627Y0038337D02*
X-0013796D01*
X-0013952Y0038272D01*
X-0014072Y0038152D01*
X-0014136Y0037996D01*
Y0037827D01*
X-0014072Y0037671D01*
X-0013952Y0037551D01*
X-0013796Y0037487D01*
X-0013627D01*
X-0013471Y0037551D01*
X-0013351Y0037671D01*
X-0013286Y0037827D01*
Y0037996D01*
X-0013351Y0038152D01*
X-0013471Y0038272D01*
X-0013627Y0038337D01*
D02*
G37*
G36*
X-001689Y0038275D02*
X-001706D01*
X-0017216Y003821D01*
X-0017335Y0038091D01*
X-00174Y0037935D01*
Y0037765D01*
X-0017335Y0037609D01*
X-0017216Y003749D01*
X-001706Y0037425D01*
X-001689D01*
X-0016734Y003749D01*
X-0016615Y0037609D01*
X-001655Y0037765D01*
Y0037935D01*
X-0016615Y0038091D01*
X-0016734Y003821D01*
X-001689Y0038275D01*
D02*
G37*
G36*
X-002199Y0038275D02*
X-002216D01*
X-0022316Y003821D01*
X-0022435Y0038091D01*
X-00225Y0037935D01*
Y0037765D01*
X-0022435Y0037609D01*
X-0022316Y003749D01*
X-002216Y0037425D01*
X-002199D01*
X-0021834Y003749D01*
X-0021715Y0037609D01*
X-002165Y0037765D01*
Y0037935D01*
X-0021715Y0038091D01*
X-0021834Y003821D01*
X-002199Y0038275D01*
D02*
G37*
G36*
X0018555Y0038875D02*
X0018325D01*
X0018102Y0038815D01*
X0017903Y00387D01*
X001774Y0038537D01*
X0017625Y0038338D01*
X0017565Y0038115D01*
Y0037885D01*
X0017625Y0037662D01*
X001774Y0037463D01*
X0017903Y00373D01*
X0018102Y0037185D01*
X0018325Y0037125D01*
X0018555D01*
X0018778Y0037185D01*
X0018977Y00373D01*
X001914Y0037463D01*
X0019255Y0037662D01*
X0019315Y0037885D01*
Y0038115D01*
X0019255Y0038338D01*
X001914Y0038537D01*
X0018977Y00387D01*
X0018778Y0038815D01*
X0018555Y0038875D01*
D02*
G37*
G36*
X0016015D02*
X0015785D01*
X0015562Y0038815D01*
X0015363Y00387D01*
X00152Y0038537D01*
X0015085Y0038338D01*
X0015025Y0038115D01*
Y0037885D01*
X0015085Y0037662D01*
X00152Y0037463D01*
X0015363Y00373D01*
X0015562Y0037185D01*
X0015785Y0037125D01*
X0016015D01*
X0016238Y0037185D01*
X0016437Y00373D01*
X00166Y0037463D01*
X0016715Y0037662D01*
X0016775Y0037885D01*
Y0038115D01*
X0016715Y0038338D01*
X00166Y0038537D01*
X0016437Y00387D01*
X0016238Y0038815D01*
X0016015Y0038875D01*
D02*
G37*
G36*
X0012585D02*
X0012355D01*
X0012132Y0038815D01*
X0011933Y00387D01*
X001177Y0038537D01*
X0011655Y0038338D01*
X0011595Y0038115D01*
Y0037885D01*
X0011655Y0037662D01*
X001177Y0037463D01*
X0011933Y00373D01*
X0012132Y0037185D01*
X0012355Y0037125D01*
X0012585D01*
X0012808Y0037185D01*
X0013007Y00373D01*
X001317Y0037463D01*
X0013285Y0037662D01*
X0013345Y0037885D01*
Y0038115D01*
X0013285Y0038338D01*
X001317Y0038537D01*
X0013007Y00387D01*
X0012808Y0038815D01*
X0012585Y0038875D01*
D02*
G37*
G36*
X0010045D02*
X0009815D01*
X0009592Y0038815D01*
X0009393Y00387D01*
X000923Y0038537D01*
X0009115Y0038338D01*
X0009055Y0038115D01*
Y0037885D01*
X0009115Y0037662D01*
X000923Y0037463D01*
X0009393Y00373D01*
X0009592Y0037185D01*
X0009815Y0037125D01*
X0010045D01*
X0010268Y0037185D01*
X0010467Y00373D01*
X001063Y0037463D01*
X0010745Y0037662D01*
X0010805Y0037885D01*
Y0038115D01*
X0010745Y0038338D01*
X001063Y0038537D01*
X0010467Y00387D01*
X0010268Y0038815D01*
X0010045Y0038875D01*
D02*
G37*
G36*
X0021872Y0038299D02*
X0021623D01*
X0021393Y0038203D01*
X0021217Y0038028D01*
X0021122Y0037798D01*
Y0037549D01*
X0021217Y003732D01*
X0021393Y0037144D01*
X0021623Y0037049D01*
X0021872D01*
X0022101Y0037144D01*
X0022277Y003732D01*
X0022372Y0037549D01*
Y0037798D01*
X0022277Y0038028D01*
X0022101Y0038203D01*
X0021872Y0038299D01*
D02*
G37*
G36*
X-001609Y0037475D02*
X-0016259D01*
X-0016416Y003741D01*
X-0016535Y0037291D01*
X-00166Y0037135D01*
Y0036965D01*
X-0016535Y0036809D01*
X-0016416Y003669D01*
X-0016259Y0036625D01*
X-001609D01*
X-0015934Y003669D01*
X-0015815Y0036809D01*
X-001575Y0036965D01*
Y0037135D01*
X-0015815Y0037291D01*
X-0015934Y003741D01*
X-001609Y0037475D01*
D02*
G37*
G36*
X-002279Y0037475D02*
X-002296D01*
X-0023116Y003741D01*
X-0023235Y0037291D01*
X-00233Y0037135D01*
Y0036965D01*
X-0023235Y0036809D01*
X-0023116Y003669D01*
X-002296Y0036625D01*
X-002279D01*
X-0022634Y003669D01*
X-0022515Y0036809D01*
X-002245Y0036965D01*
Y0037135D01*
X-0022515Y0037291D01*
X-0022634Y003741D01*
X-002279Y0037475D01*
D02*
G37*
G36*
X-0012955Y0036675D02*
X-0013124D01*
X-001328Y003661D01*
X-00134Y0036491D01*
X-0013465Y0036335D01*
Y0036165D01*
X-00134Y0036009D01*
X-001328Y003589D01*
X-0013124Y0035825D01*
X-0012955D01*
X-0012799Y003589D01*
X-0012679Y0036009D01*
X-0012615Y0036165D01*
Y0036335D01*
X-0012679Y0036491D01*
X-0012799Y003661D01*
X-0012955Y0036675D01*
D02*
G37*
G36*
X000021Y00371D02*
X000004D01*
X-0000116Y0037035D01*
X-0000235Y0036916D01*
X-00003Y003676D01*
Y003659D01*
X-0000235Y0036434D01*
X-0000191Y003626D01*
X-000031Y0036141D01*
X-0000375Y0035985D01*
Y0035815D01*
X-000031Y0035659D01*
X-0000191Y003554D01*
X-0000035Y0035475D01*
X0000135D01*
X0000291Y003554D01*
X000041Y0035659D01*
X0000475Y0035815D01*
Y0035985D01*
X000041Y0036141D01*
X0000366Y0036315D01*
X0000485Y0036434D01*
X000055Y003659D01*
Y003676D01*
X0000485Y0036916D01*
X0000366Y0037035D01*
X000021Y00371D01*
D02*
G37*
G36*
X-0023615Y0036325D02*
X-0023785D01*
X-0023941Y003626D01*
X-002406Y0036141D01*
X-0024125Y0035985D01*
Y0035815D01*
X-002406Y0035659D01*
X-0023941Y003554D01*
X-0023785Y0035475D01*
X-0023615D01*
X-0023459Y003554D01*
X-002334Y0035659D01*
X-0023275Y0035815D01*
Y0035985D01*
X-002334Y0036141D01*
X-0023459Y003626D01*
X-0023615Y0036325D01*
D02*
G37*
G36*
X-0026815Y0035625D02*
X-0026985D01*
X-0027141Y003556D01*
X-002726Y0035441D01*
X-0027325Y0035285D01*
Y0035115D01*
X-002726Y0034959D01*
X-0027141Y003484D01*
X-0026985Y0034775D01*
X-0026815D01*
X-0026659Y003484D01*
X-002654Y0034959D01*
X-0026475Y0035115D01*
Y0035285D01*
X-002654Y0035441D01*
X-0026659Y003556D01*
X-0026815Y0035625D01*
D02*
G37*
G36*
X-0000934Y0034837D02*
X-0001103D01*
X-000126Y0034772D01*
X-0001379Y0034652D01*
X-0001444Y0034496D01*
Y0034327D01*
X-0001379Y0034171D01*
X-000126Y0034051D01*
X-0001103Y0033987D01*
X-0000934D01*
X-0000778Y0034051D01*
X-0000659Y0034171D01*
X-0000594Y0034327D01*
Y0034496D01*
X-0000659Y0034652D01*
X-0000778Y0034772D01*
X-0000934Y0034837D01*
D02*
G37*
G36*
X0023085Y0034825D02*
X0022915D01*
X0022759Y003476D01*
X002264Y0034641D01*
X0022575Y0034485D01*
Y0034315D01*
X002264Y0034159D01*
X0022759Y003404D01*
X0022915Y0033975D01*
X0023085D01*
X0023241Y003404D01*
X002336Y0034159D01*
X0023425Y0034315D01*
Y0034485D01*
X002336Y0034641D01*
X0023241Y003476D01*
X0023085Y0034825D01*
D02*
G37*
G36*
X-0011647Y0034165D02*
X-0011816D01*
X-0011972Y00341D01*
X-0012092Y003398D01*
X-0012157Y0033824D01*
Y0033655D01*
X-0012092Y0033499D01*
X-0011972Y0033379D01*
X-0011816Y0033315D01*
X-0011647D01*
X-0011491Y0033379D01*
X-0011371Y0033499D01*
X-0011307Y0033655D01*
Y0033824D01*
X-0011371Y003398D01*
X-0011491Y00341D01*
X-0011647Y0034165D01*
D02*
G37*
G36*
X0019485Y0034125D02*
X0019315D01*
X0019159Y003406D01*
X001904Y0033941D01*
X0018975Y0033785D01*
Y0033615D01*
X001904Y0033459D01*
X0019159Y003334D01*
X0019315Y0033275D01*
X0019485D01*
X0019641Y003334D01*
X001976Y0033459D01*
X0019825Y0033615D01*
Y0033785D01*
X001976Y0033941D01*
X0019641Y003406D01*
X0019485Y0034125D01*
D02*
G37*
G36*
X0004885Y0034025D02*
X0004715D01*
X0004559Y003396D01*
X000444Y0033841D01*
X0004375Y0033685D01*
Y0033515D01*
X000444Y0033359D01*
X0004559Y003324D01*
X0004715Y0033175D01*
X0004885D01*
X0005041Y003324D01*
X000516Y0033359D01*
X0005225Y0033515D01*
Y0033685D01*
X000516Y0033841D01*
X0005041Y003396D01*
X0004885Y0034025D01*
D02*
G37*
G36*
X0014485Y0033725D02*
X0014315D01*
X0014159Y003366D01*
X001404Y0033541D01*
X0013975Y0033385D01*
Y0033215D01*
X001404Y0033059D01*
X0014159Y003294D01*
X0014315Y0032875D01*
X0014485D01*
X0014641Y003294D01*
X001476Y0033059D01*
X0014825Y0033215D01*
Y0033385D01*
X001476Y0033541D01*
X0014641Y003366D01*
X0014485Y0033725D01*
D02*
G37*
G36*
X0027885Y0033425D02*
X0027715D01*
X0027559Y003336D01*
X002744Y0033241D01*
X0027375Y0033085D01*
Y0032915D01*
X002744Y0032759D01*
X0027559Y003264D01*
X0027715Y0032575D01*
X0027885D01*
X0028041Y003264D01*
X002816Y0032759D01*
X0028225Y0032915D01*
Y0033085D01*
X002816Y0033241D01*
X0028041Y003336D01*
X0027885Y0033425D01*
D02*
G37*
G36*
X0025685D02*
X0025515D01*
X0025359Y003336D01*
X002524Y0033241D01*
X0025175Y0033085D01*
Y0032915D01*
X002524Y0032759D01*
X0025359Y003264D01*
X0025515Y0032575D01*
X0025685D01*
X0025841Y003264D01*
X002596Y0032759D01*
X0026025Y0032915D01*
Y0033085D01*
X002596Y0033241D01*
X0025841Y003336D01*
X0025685Y0033425D01*
D02*
G37*
G36*
X-0002349Y0033422D02*
X-0002518D01*
X-0002674Y0033358D01*
X-0002793Y0033238D01*
X-0002858Y0033082D01*
Y0032913D01*
X-0002793Y0032757D01*
X-0002674Y0032637D01*
X-0002518Y0032572D01*
X-0002349D01*
X-0002192Y0032637D01*
X-0002073Y0032757D01*
X-0002008Y0032913D01*
Y0033082D01*
X-0002073Y0033238D01*
X-0002192Y0033358D01*
X-0002349Y0033422D01*
D02*
G37*
G36*
X-0010586Y0033104D02*
X-0010755D01*
X-0010912Y0033039D01*
X-0011031Y003292D01*
X-0011096Y0032764D01*
Y0032595D01*
X-0011031Y0032438D01*
X-0010912Y0032319D01*
X-0010755Y0032254D01*
X-0010586D01*
X-001043Y0032319D01*
X-0010311Y0032438D01*
X-0010246Y0032595D01*
Y0032764D01*
X-0010311Y003292D01*
X-001043Y0033039D01*
X-0010586Y0033104D01*
D02*
G37*
G36*
X-0023615Y0032525D02*
X-0023785D01*
X-0023941Y003246D01*
X-002406Y0032341D01*
X-0024125Y0032185D01*
Y0032015D01*
X-002406Y0031859D01*
X-0023941Y003174D01*
X-0023785Y0031675D01*
X-0023615D01*
X-0023459Y003174D01*
X-002334Y0031859D01*
X-0023275Y0032015D01*
Y0032185D01*
X-002334Y0032341D01*
X-0023459Y003246D01*
X-0023615Y0032525D01*
D02*
G37*
G36*
X0006785Y00322D02*
X0006615D01*
X0006459Y0032135D01*
X000634Y0032016D01*
X0006275Y003186D01*
Y003169D01*
X000634Y0031534D01*
X0006459Y0031415D01*
X0006615Y003135D01*
X0006785D01*
X0006941Y0031415D01*
X000706Y0031534D01*
X0007125Y003169D01*
Y003186D01*
X000706Y0032016D01*
X0006941Y0032135D01*
X0006785Y00322D01*
D02*
G37*
G36*
X0004585D02*
X0004415D01*
X0004259Y0032135D01*
X000414Y0032016D01*
X0004075Y003186D01*
Y003169D01*
X000414Y0031534D01*
X0004259Y0031415D01*
X0004415Y003135D01*
X0004585D01*
X0004741Y0031415D01*
X000486Y0031534D01*
X0004925Y003169D01*
Y003186D01*
X000486Y0032016D01*
X0004741Y0032135D01*
X0004585Y00322D01*
D02*
G37*
G36*
X-0017464Y0032041D02*
X-0017633D01*
X-0017789Y0031977D01*
X-0017909Y0031857D01*
X-0017974Y0031701D01*
Y0031532D01*
X-0017909Y0031376D01*
X-0017789Y0031256D01*
X-0017633Y0031191D01*
X-0017464D01*
X-0017308Y0031256D01*
X-0017188Y0031376D01*
X-0017124Y0031532D01*
Y0031701D01*
X-0017188Y0031857D01*
X-0017308Y0031977D01*
X-0017464Y0032041D01*
D02*
G37*
G36*
X-0009596Y0031973D02*
X-0009765D01*
X-0009922Y0031908D01*
X-0010041Y0031788D01*
X-0010106Y0031632D01*
Y0031463D01*
X-0010041Y0031307D01*
X-0009922Y0031187D01*
X-0009765Y0031123D01*
X-0009596D01*
X-000944Y0031187D01*
X-0009321Y0031307D01*
X-0009256Y0031463D01*
Y0031632D01*
X-0009321Y0031788D01*
X-000944Y0031908D01*
X-0009596Y0031973D01*
D02*
G37*
G36*
X0013974Y0031843D02*
X0013805D01*
X0013649Y0031778D01*
X0013529Y0031659D01*
X0013464Y0031502D01*
Y0031333D01*
X0013529Y0031177D01*
X0013649Y0031058D01*
X0013805Y0030993D01*
X0013974D01*
X001413Y0031058D01*
X001425Y0031177D01*
X0014314Y0031333D01*
Y0031502D01*
X001425Y0031659D01*
X001413Y0031778D01*
X0013974Y0031843D01*
D02*
G37*
G36*
X-0002915Y0032525D02*
X-0003085D01*
X-0003241Y003246D01*
X-000336Y0032341D01*
X-0003425Y0032185D01*
Y0032015D01*
X-000336Y0031859D01*
X-0003241Y003174D01*
X-0003085Y0031675D01*
X-0003075Y0031651D01*
X-0003033Y0031542D01*
X-0003026Y0031475D01*
X-0003132Y003137D01*
X-0003196Y0031213D01*
Y003108D01*
X-0003305Y0031D01*
X-0003381Y0030969D01*
X-0003515Y0031025D01*
X-0003685D01*
X-0003841Y003096D01*
X-000396Y0030841D01*
X-0004025Y0030684D01*
Y0030515D01*
X-000396Y0030359D01*
X-0003841Y003024D01*
X-0003685Y0030175D01*
X-0003515D01*
X-0003359Y003024D01*
X-000324Y0030359D01*
X-0003175Y0030515D01*
Y0030649D01*
X-0003066Y0030729D01*
X-000299Y0030759D01*
X-0002856Y0030704D01*
X-0002687D01*
X-000253Y0030768D01*
X-0002411Y0030888D01*
X-0002346Y0031044D01*
Y0031213D01*
X-0002411Y003137D01*
X-000253Y0031489D01*
X-0002686Y0031554D01*
X-0002696Y0031578D01*
X-0002738Y0031687D01*
X-0002745Y0031754D01*
X-000264Y0031859D01*
X-0002575Y0032015D01*
Y0032185D01*
X-000264Y0032341D01*
X-0002759Y003246D01*
X-0002915Y0032525D01*
D02*
G37*
G36*
X0002885Y0032425D02*
X0002716D01*
X000256Y003236D01*
X000244Y0032241D01*
X0002375Y0032084D01*
Y0031915D01*
X0002381Y0031901D01*
X0002345Y0031836D01*
X0002238Y0031725D01*
X0002115D01*
X0001959Y003166D01*
X000184Y0031541D01*
X0001775Y0031385D01*
Y0031215D01*
X000184Y0031059D01*
X0001959Y003094D01*
X0002115Y0030875D01*
X0002285D01*
X0002441Y003094D01*
X000256Y0031059D01*
X0002625Y0031215D01*
Y0031385D01*
X0002619Y0031398D01*
X0002655Y0031464D01*
X0002763Y0031575D01*
X0002885D01*
X0003041Y003164D01*
X0003161Y0031759D01*
X0003225Y0031915D01*
Y0032084D01*
X0003161Y0032241D01*
X0003041Y003236D01*
X0002885Y0032425D01*
D02*
G37*
G36*
X-0019915Y0031225D02*
X-0020085D01*
X-0020241Y003116D01*
X-002036Y0031041D01*
X-0020425Y0030885D01*
Y0030784D01*
X-0020615Y0030691D01*
X-0020684Y003076D01*
X-002084Y0030825D01*
X-002101D01*
X-0021166Y003076D01*
X-0021285Y0030641D01*
X-002135Y0030485D01*
Y0030315D01*
X-0021285Y0030159D01*
X-0021166Y003004D01*
X-002101Y0029975D01*
X-002084D01*
X-0020684Y003004D01*
X-002062Y0030104D01*
X-0020577Y0030106D01*
X-0020412Y0030067D01*
X-0020402Y003006D01*
X-002036Y0029959D01*
X-0020241Y002984D01*
X-0020085Y0029775D01*
X-0019915D01*
X-0019759Y002984D01*
X-001964Y0029959D01*
X-0019638Y0029962D01*
X-0019422D01*
X-001941Y0029934D01*
X-0019291Y0029815D01*
X-0019135Y002975D01*
X-0018965D01*
X-0018809Y0029815D01*
X-001869Y0029934D01*
X-0018625Y003009D01*
Y003026D01*
X-001869Y0030416D01*
X-0018749Y0030475D01*
X-001869Y0030534D01*
X-0018625Y003069D01*
Y003086D01*
X-001869Y0031016D01*
X-0018809Y0031135D01*
X-0018965Y00312D01*
X-0019135D01*
X-0019291Y0031135D01*
X-001941Y0031016D01*
X-0019412Y0031013D01*
X-0019628D01*
X-001964Y0031041D01*
X-0019759Y003116D01*
X-0019915Y0031225D01*
D02*
G37*
G36*
X0017777Y0031493D02*
X0017608D01*
X0017452Y0031428D01*
X0017332Y0031308D01*
X0017267Y0031152D01*
Y0030983D01*
X0017332Y0030827D01*
X0017452Y0030707D01*
X0017608Y0030643D01*
X0017777D01*
X0017933Y0030707D01*
X0018053Y0030827D01*
X0018117Y0030983D01*
Y0031152D01*
X0018053Y0031308D01*
X0017933Y0031428D01*
X0017777Y0031493D01*
D02*
G37*
G36*
X0027885Y0031175D02*
X0027715D01*
X0027559Y003111D01*
X002744Y0030991D01*
X0027375Y0030835D01*
Y0030665D01*
X002744Y0030509D01*
X0027559Y003039D01*
X0027715Y0030325D01*
X0027885D01*
X0028041Y003039D01*
X002816Y0030509D01*
X0028225Y0030665D01*
Y0030835D01*
X002816Y0030991D01*
X0028041Y003111D01*
X0027885Y0031175D01*
D02*
G37*
G36*
X0025685D02*
X0025515D01*
X0025359Y003111D01*
X002524Y0030991D01*
X0025175Y0030835D01*
Y0030665D01*
X002524Y0030509D01*
X0025359Y003039D01*
X0025515Y0030325D01*
X0025685D01*
X0025841Y003039D01*
X002596Y0030509D01*
X0026025Y0030665D01*
Y0030835D01*
X002596Y0030991D01*
X0025841Y003111D01*
X0025685Y0031175D01*
D02*
G37*
G36*
X-0024165Y0031175D02*
X-0024335D01*
X-0024491Y003111D01*
X-002461Y0030991D01*
X-0024675Y0030835D01*
Y0030665D01*
X-002461Y0030509D01*
X-0024491Y003039D01*
X-0024335Y0030325D01*
X-0024165D01*
X-0024009Y003039D01*
X-002389Y0030509D01*
X-0023825Y0030665D01*
Y0030835D01*
X-002389Y0030991D01*
X-0024009Y003111D01*
X-0024165Y0031175D01*
D02*
G37*
G36*
X0001385Y0030725D02*
X0001215D01*
X0001059Y003066D01*
X000094Y0030541D01*
X0000875Y0030385D01*
Y0030215D01*
X000094Y0030059D01*
X0001059Y002994D01*
X0001215Y0029875D01*
X0001385D01*
X0001541Y002994D01*
X000166Y0030059D01*
X0001725Y0030215D01*
Y0030385D01*
X000166Y0030541D01*
X0001541Y003066D01*
X0001385Y0030725D01*
D02*
G37*
G36*
X0003785Y0031125D02*
X0003615D01*
X0003459Y003106D01*
X000334Y0030941D01*
X0003275Y0030785D01*
Y0030615D01*
X0003281Y0030602D01*
X0003245Y0030536D01*
X0003137Y0030425D01*
X0003015D01*
X0002859Y003036D01*
X0002739Y0030241D01*
X0002675Y0030085D01*
Y0029916D01*
X0002739Y0029759D01*
X0002859Y002964D01*
X0003015Y0029575D01*
X0003184D01*
X000334Y002964D01*
X000346Y0029759D01*
X0003525Y0029916D01*
Y0030085D01*
X0003519Y0030099D01*
X0003555Y0030164D01*
X0003662Y0030275D01*
X0003785D01*
X0003941Y003034D01*
X000406Y0030459D01*
X0004125Y0030615D01*
Y0030785D01*
X000406Y0030941D01*
X0003941Y003106D01*
X0003785Y0031125D01*
D02*
G37*
G36*
X0006785Y002995D02*
X0006615D01*
X0006459Y0029885D01*
X000634Y0029766D01*
X0006275Y002961D01*
Y002944D01*
X000634Y0029284D01*
X0006459Y0029165D01*
X0006615Y00291D01*
X0006785D01*
X0006941Y0029165D01*
X000706Y0029284D01*
X0007125Y002944D01*
Y002961D01*
X000706Y0029766D01*
X0006941Y0029885D01*
X0006785Y002995D01*
D02*
G37*
G36*
X0004585D02*
X0004415D01*
X0004259Y0029885D01*
X000414Y0029766D01*
X0004075Y002961D01*
Y002944D01*
X000414Y0029284D01*
X0004259Y0029165D01*
X0004415Y00291D01*
X0004585D01*
X0004741Y0029165D01*
X000486Y0029284D01*
X0004925Y002944D01*
Y002961D01*
X000486Y0029766D01*
X0004741Y0029885D01*
X0004585Y002995D01*
D02*
G37*
G36*
X-0004917Y0030524D02*
X-0005086D01*
X-0005242Y003046D01*
X-0005362Y003034D01*
X-0005427Y0030184D01*
Y0030015D01*
X-0005362Y0029859D01*
X-0005242Y0029739D01*
X-0005102Y0029681D01*
X-0004925Y0029585D01*
Y0029415D01*
X-000486Y0029259D01*
X-0004741Y002914D01*
X-0004585Y0029075D01*
X-0004415D01*
X-0004259Y002914D01*
X-000414Y0029259D01*
X-0004075Y0029415D01*
Y0029585D01*
X-000414Y0029741D01*
X-0004259Y002986D01*
X-00044Y0029919D01*
X-0004577Y0030015D01*
Y0030184D01*
X-0004641Y003034D01*
X-0004761Y003046D01*
X-0004917Y0030524D01*
D02*
G37*
G36*
X-0001015Y0028375D02*
X-0001185D01*
X-0001341Y002831D01*
X-000146Y0028191D01*
X-0001525Y0028035D01*
Y0027865D01*
X-000146Y0027709D01*
X-0001341Y002759D01*
X-0001185Y0027525D01*
X-0001015D01*
X-0000859Y002759D01*
X-000074Y0027709D01*
X-0000675Y0027865D01*
Y0028035D01*
X-000074Y0028191D01*
X-0000859Y002831D01*
X-0001015Y0028375D01*
D02*
G37*
G36*
X001531Y0023625D02*
X001514D01*
X0014984Y002356D01*
X0014981Y0023557D01*
X001485Y0023452D01*
X0014719Y0023557D01*
X0014716Y002356D01*
X001456Y0023625D01*
X001439D01*
X0014234Y002356D01*
X0014115Y0023441D01*
X001405Y0023285D01*
Y0023115D01*
X0014115Y0022959D01*
X0014234Y002284D01*
X001439Y0022775D01*
X001456D01*
X0014716Y002284D01*
X0014719Y0022843D01*
X001485Y0022948D01*
X0014981Y0022843D01*
X0014984Y002284D01*
X001514Y0022775D01*
X001531D01*
X0015466Y002284D01*
X0015585Y0022959D01*
X001565Y0023115D01*
Y0023285D01*
X0015585Y0023441D01*
X0015466Y002356D01*
X001531Y0023625D01*
D02*
G37*
G36*
X003383Y0023394D02*
Y002252D01*
X0034704D01*
X0034652Y0022714D01*
X00345Y0022976D01*
X0034286Y002319D01*
X0034024Y0023342D01*
X003383Y0023394D01*
D02*
G37*
G36*
X003333D02*
X0033136Y0023342D01*
X0032874Y002319D01*
X003266Y0022976D01*
X0032508Y0022714D01*
X0032456Y002252D01*
X003333D01*
Y0023394D01*
D02*
G37*
G36*
X0007085Y0022675D02*
X0006915D01*
X0006759Y002261D01*
X000664Y0022491D01*
X0006575Y0022335D01*
Y0022165D01*
X000664Y0022009D01*
X0006759Y002189D01*
X0006915Y0021825D01*
X0007085D01*
X0007241Y002189D01*
X000736Y0022009D01*
X0007425Y0022165D01*
Y0022335D01*
X000736Y0022491D01*
X0007241Y002261D01*
X0007085Y0022675D01*
D02*
G37*
G36*
X0031155Y0023145D02*
X0030925D01*
X0030702Y0023085D01*
X0030503Y002297D01*
X003034Y0022807D01*
X0030225Y0022608D01*
X0030165Y0022385D01*
Y0022155D01*
X0030225Y0021932D01*
X003034Y0021733D01*
X0030503Y002157D01*
X0030702Y0021455D01*
X0030925Y0021395D01*
X0031155D01*
X0031378Y0021455D01*
X0031577Y002157D01*
X003174Y0021733D01*
X0031855Y0021932D01*
X0031915Y0022155D01*
Y0022385D01*
X0031855Y0022608D01*
X003174Y0022807D01*
X0031577Y002297D01*
X0031378Y0023085D01*
X0031155Y0023145D01*
D02*
G37*
G36*
X0028615D02*
X0028385D01*
X0028162Y0023085D01*
X0027963Y002297D01*
X00278Y0022807D01*
X0027685Y0022608D01*
X0027625Y0022385D01*
Y0022155D01*
X0027685Y0021932D01*
X00278Y0021733D01*
X0027963Y002157D01*
X0028162Y0021455D01*
X0028385Y0021395D01*
X0028615D01*
X0028838Y0021455D01*
X0029037Y002157D01*
X00292Y0021733D01*
X0029315Y0021932D01*
X0029375Y0022155D01*
Y0022385D01*
X0029315Y0022608D01*
X00292Y0022807D01*
X0029037Y002297D01*
X0028838Y0023085D01*
X0028615Y0023145D01*
D02*
G37*
G36*
X0026075D02*
X0025845D01*
X0025622Y0023085D01*
X0025423Y002297D01*
X002526Y0022807D01*
X0025145Y0022608D01*
X0025085Y0022385D01*
Y0022155D01*
X0025145Y0021932D01*
X002526Y0021733D01*
X0025423Y002157D01*
X0025622Y0021455D01*
X0025845Y0021395D01*
X0026075D01*
X0026298Y0021455D01*
X0026497Y002157D01*
X002666Y0021733D01*
X0026775Y0021932D01*
X0026835Y0022155D01*
Y0022385D01*
X0026775Y0022608D01*
X002666Y0022807D01*
X0026497Y002297D01*
X0026298Y0023085D01*
X0026075Y0023145D01*
D02*
G37*
G36*
X0023535D02*
X0023305D01*
X0023082Y0023085D01*
X0022883Y002297D01*
X002272Y0022807D01*
X0022605Y0022608D01*
X0022545Y0022385D01*
Y0022155D01*
X0022605Y0021932D01*
X002272Y0021733D01*
X0022883Y002157D01*
X0023082Y0021455D01*
X0023305Y0021395D01*
X0023535D01*
X0023758Y0021455D01*
X0023957Y002157D01*
X002412Y0021733D01*
X0024235Y0021932D01*
X0024295Y0022155D01*
Y0022385D01*
X0024235Y0022608D01*
X002412Y0022807D01*
X0023957Y002297D01*
X0023758Y0023085D01*
X0023535Y0023145D01*
D02*
G37*
G36*
X0034704Y002202D02*
X003383D01*
Y0021146D01*
X0034024Y0021198D01*
X0034286Y002135D01*
X00345Y0021564D01*
X0034652Y0021826D01*
X0034704Y002202D01*
D02*
G37*
G36*
X003333D02*
X0032456D01*
X0032508Y0021826D01*
X003266Y0021564D01*
X0032874Y002135D01*
X0033136Y0021198D01*
X003333Y0021146D01*
Y002202D01*
D02*
G37*
G36*
X-0001074Y0026875D02*
X-0001526D01*
X-0001973Y0026804D01*
X-0002404Y0026664D01*
X-0002807Y0026459D01*
X-0003173Y0026193D01*
X-0003493Y0025873D01*
X-0003759Y0025507D01*
X-0003964Y0025104D01*
X-0004104Y0024673D01*
X-0004175Y0024226D01*
Y0023774D01*
X-0004104Y0023327D01*
X-0003964Y0022896D01*
X-0003759Y0022493D01*
X-0003493Y0022127D01*
X-0003173Y0021807D01*
X-0002807Y0021541D01*
X-0002404Y0021336D01*
X-0001973Y0021196D01*
X-0001526Y0021125D01*
X-0001074D01*
X-0000627Y0021196D01*
X-0000196Y0021336D01*
X0000207Y0021541D01*
X0000573Y0021807D01*
X0000893Y0022127D01*
X0001159Y0022493D01*
X0001364Y0022896D01*
X0001504Y0023327D01*
X0001575Y0023774D01*
Y0024226D01*
X0001504Y0024673D01*
X0001364Y0025104D01*
X0001159Y0025507D01*
X0000893Y0025873D01*
X0000573Y0026193D01*
X0000207Y0026459D01*
X-0000196Y0026664D01*
X-0000627Y0026804D01*
X-0001074Y0026875D01*
D02*
G37*
G36*
X-0034074D02*
X-0034526D01*
X-0034973Y0026804D01*
X-0035404Y0026664D01*
X-0035807Y0026459D01*
X-0036173Y0026193D01*
X-0036493Y0025873D01*
X-0036759Y0025507D01*
X-0036964Y0025104D01*
X-0037104Y0024673D01*
X-0037175Y0024226D01*
Y0023774D01*
X-0037104Y0023327D01*
X-0036964Y0022896D01*
X-0036759Y0022493D01*
X-0036493Y0022127D01*
X-0036173Y0021807D01*
X-0035807Y0021541D01*
X-0035404Y0021336D01*
X-0034973Y0021196D01*
X-0034526Y0021125D01*
X-0034074D01*
X-0033627Y0021196D01*
X-0033196Y0021336D01*
X-0032793Y0021541D01*
X-0032427Y0021807D01*
X-0032107Y0022127D01*
X-0031841Y0022493D01*
X-0031636Y0022896D01*
X-0031496Y0023327D01*
X-0031425Y0023774D01*
Y0024226D01*
X-0031496Y0024673D01*
X-0031636Y0025104D01*
X-0031841Y0025507D01*
X-0032107Y0025873D01*
X-0032427Y0026193D01*
X-0032793Y0026459D01*
X-0033196Y0026664D01*
X-0033627Y0026804D01*
X-0034074Y0026875D01*
D02*
G37*
G36*
X000241Y002165D02*
X000224D01*
X0002084Y0021585D01*
X0001965Y0021466D01*
X00019Y002131D01*
Y002114D01*
X0001965Y0020984D01*
X0002084Y0020865D01*
X000224Y00208D01*
X000241D01*
X0002566Y0020865D01*
X0002685Y0020984D01*
X000275Y002114D01*
Y002131D01*
X0002685Y0021466D01*
X0002566Y0021585D01*
X000241Y002165D01*
D02*
G37*
G36*
X0011427Y0021134D02*
X0011257D01*
X0011101Y002107D01*
X0010982Y002095D01*
X0010917Y0020794D01*
Y0020625D01*
X0010982Y0020469D01*
X0011101Y0020349D01*
X0011257Y0020284D01*
X0011427D01*
X0011583Y0020349D01*
X0011702Y0020469D01*
X0011767Y0020625D01*
Y0020794D01*
X0011702Y002095D01*
X0011583Y002107D01*
X0011427Y0021134D01*
D02*
G37*
G36*
X0003771Y0020961D02*
X0003602D01*
X0003446Y0020897D01*
X0003326Y0020777D01*
X0003261Y0020621D01*
Y0020452D01*
X0003326Y0020296D01*
X0003446Y0020176D01*
X0003602Y0020111D01*
X0003771D01*
X0003927Y0020176D01*
X0004047Y0020296D01*
X0004111Y0020452D01*
Y0020621D01*
X0004047Y0020777D01*
X0003927Y0020897D01*
X0003771Y0020961D01*
D02*
G37*
G36*
X003383Y0020854D02*
Y001998D01*
X0034704D01*
X0034652Y0020174D01*
X00345Y0020436D01*
X0034286Y002065D01*
X0034024Y0020802D01*
X003383Y0020854D01*
D02*
G37*
G36*
X003333D02*
X0033136Y0020802D01*
X0032874Y002065D01*
X003266Y0020436D01*
X0032508Y0020174D01*
X0032456Y001998D01*
X003333D01*
Y0020854D01*
D02*
G37*
G36*
X0014774Y00204D02*
X0014604D01*
X0014448Y0020335D01*
X0014329Y0020216D01*
X0014264Y002006D01*
Y001989D01*
X0014329Y0019734D01*
X0014448Y0019615D01*
X0014604Y001955D01*
X0014774D01*
X001493Y0019615D01*
X0015049Y0019734D01*
X0015114Y001989D01*
Y002006D01*
X0015049Y0020216D01*
X001493Y0020335D01*
X0014774Y00204D01*
D02*
G37*
G36*
X0031155Y0020605D02*
X0030925D01*
X0030702Y0020545D01*
X0030503Y002043D01*
X003034Y0020267D01*
X0030225Y0020068D01*
X0030165Y0019845D01*
Y0019615D01*
X0030225Y0019392D01*
X003034Y0019193D01*
X0030503Y001903D01*
X0030702Y0018915D01*
X0030925Y0018855D01*
X0031155D01*
X0031378Y0018915D01*
X0031577Y001903D01*
X003174Y0019193D01*
X0031855Y0019392D01*
X0031915Y0019615D01*
Y0019845D01*
X0031855Y0020068D01*
X003174Y0020267D01*
X0031577Y002043D01*
X0031378Y0020545D01*
X0031155Y0020605D01*
D02*
G37*
G36*
X0028615D02*
X0028385D01*
X0028162Y0020545D01*
X0027963Y002043D01*
X00278Y0020267D01*
X0027685Y0020068D01*
X0027625Y0019845D01*
Y0019615D01*
X0027685Y0019392D01*
X00278Y0019193D01*
X0027963Y001903D01*
X0028162Y0018915D01*
X0028385Y0018855D01*
X0028615D01*
X0028838Y0018915D01*
X0029037Y001903D01*
X00292Y0019193D01*
X0029315Y0019392D01*
X0029375Y0019615D01*
Y0019845D01*
X0029315Y0020068D01*
X00292Y0020267D01*
X0029037Y002043D01*
X0028838Y0020545D01*
X0028615Y0020605D01*
D02*
G37*
G36*
X0026075D02*
X0025845D01*
X0025622Y0020545D01*
X0025423Y002043D01*
X002526Y0020267D01*
X0025145Y0020068D01*
X0025085Y0019845D01*
Y0019615D01*
X0025145Y0019392D01*
X002526Y0019193D01*
X0025423Y001903D01*
X0025622Y0018915D01*
X0025845Y0018855D01*
X0026075D01*
X0026298Y0018915D01*
X0026497Y001903D01*
X002666Y0019193D01*
X0026775Y0019392D01*
X0026835Y0019615D01*
Y0019845D01*
X0026775Y0020068D01*
X002666Y0020267D01*
X0026497Y002043D01*
X0026298Y0020545D01*
X0026075Y0020605D01*
D02*
G37*
G36*
X0023535D02*
X0023305D01*
X0023082Y0020545D01*
X0022883Y002043D01*
X002272Y0020267D01*
X0022605Y0020068D01*
X0022545Y0019845D01*
Y0019615D01*
X0022605Y0019392D01*
X002272Y0019193D01*
X0022883Y001903D01*
X0023082Y0018915D01*
X0023305Y0018855D01*
X0023535D01*
X0023758Y0018915D01*
X0023957Y001903D01*
X002412Y0019193D01*
X0024235Y0019392D01*
X0024295Y0019615D01*
Y0019845D01*
X0024235Y0020068D01*
X002412Y0020267D01*
X0023957Y002043D01*
X0023758Y0020545D01*
X0023535Y0020605D01*
D02*
G37*
G36*
X0004548Y0019689D02*
X0004379D01*
X0004223Y0019624D01*
X0004104Y0019505D01*
X0004039Y0019348D01*
Y0019179D01*
X0004104Y0019023D01*
X0004223Y0018904D01*
X0004379Y0018839D01*
X0004548D01*
X0004705Y0018904D01*
X0004824Y0019023D01*
X0004889Y0019179D01*
Y0019348D01*
X0004824Y0019505D01*
X0004705Y0019624D01*
X0004548Y0019689D01*
D02*
G37*
G36*
X0034704Y001948D02*
X003383D01*
Y0018606D01*
X0034024Y0018658D01*
X0034286Y001881D01*
X00345Y0019024D01*
X0034652Y0019286D01*
X0034704Y001948D01*
D02*
G37*
G36*
X003333D02*
X0032456D01*
X0032508Y0019286D01*
X003266Y0019024D01*
X0032874Y001881D01*
X0033136Y0018658D01*
X003333Y0018606D01*
Y001948D01*
D02*
G37*
G36*
X0003685Y0018875D02*
X0003515D01*
X0003359Y001881D01*
X000324Y0018691D01*
X0003183Y0018554D01*
X0003135Y001853D01*
X0003122Y0018526D01*
X0002975Y0018501D01*
X0002891Y0018585D01*
X0002735Y001865D01*
X0002565D01*
X0002409Y0018585D01*
X000229Y0018466D01*
X0002225Y001831D01*
Y001814D01*
X000229Y0017984D01*
X0002409Y0017865D01*
X0002565Y00178D01*
X0002735D01*
X0002891Y0017865D01*
X000301Y0017984D01*
X0003067Y0018121D01*
X0003115Y0018145D01*
X0003128Y0018149D01*
X0003275Y0018174D01*
X0003359Y001809D01*
X0003515Y0018025D01*
X0003685D01*
X0003841Y001809D01*
X000396Y0018209D01*
X0004025Y0018365D01*
Y0018535D01*
X000396Y0018691D01*
X0003841Y001881D01*
X0003685Y0018875D01*
D02*
G37*
G36*
X0007862Y0018175D02*
X0007693D01*
X0007537Y001811D01*
X0007418Y0017991D01*
X0007353Y0017835D01*
Y0017665D01*
X0007418Y0017509D01*
X0007537Y001739D01*
X0007693Y0017325D01*
X0007862D01*
X0008019Y001739D01*
X0008138Y0017509D01*
X0008203Y0017665D01*
Y0017835D01*
X0008138Y0017991D01*
X0008019Y001811D01*
X0007862Y0018175D01*
D02*
G37*
G36*
X0000785Y0017875D02*
X0000615D01*
X0000459Y001781D01*
X000034Y0017691D01*
X0000275Y0017535D01*
Y0017365D01*
X000034Y0017209D01*
X0000459Y001709D01*
X0000615Y0017025D01*
X0000785D01*
X0000941Y001709D01*
X000106Y0017209D01*
X0001125Y0017365D01*
Y0017535D01*
X000106Y0017691D01*
X0000941Y001781D01*
X0000785Y0017875D01*
D02*
G37*
G36*
X0014935Y0016975D02*
X0014765D01*
X0014609Y001691D01*
X0014516Y0016817D01*
X00144Y0016802D01*
X0014284Y0016817D01*
X0014191Y001691D01*
X0014035Y0016975D01*
X0013865D01*
X0013709Y001691D01*
X001359Y0016791D01*
X0013525Y0016635D01*
Y0016465D01*
X001359Y0016309D01*
X0013709Y001619D01*
X0013865Y0016125D01*
X0014035D01*
X0014191Y001619D01*
X0014284Y0016283D01*
X00144Y0016298D01*
X0014516Y0016283D01*
X0014609Y001619D01*
X0014765Y0016125D01*
X0014935D01*
X0015091Y001619D01*
X001521Y0016309D01*
X0015275Y0016465D01*
Y0016635D01*
X001521Y0016791D01*
X0015091Y001691D01*
X0014935Y0016975D01*
D02*
G37*
G36*
X0033695Y0017645D02*
X0033465D01*
X0033242Y0017585D01*
X0033043Y001747D01*
X003288Y0017307D01*
X0032765Y0017108D01*
X0032705Y0016885D01*
Y0016655D01*
X0032765Y0016432D01*
X003288Y0016233D01*
X0033043Y001607D01*
X0033242Y0015955D01*
X0033465Y0015895D01*
X0033695D01*
X0033918Y0015955D01*
X0034117Y001607D01*
X003428Y0016233D01*
X0034395Y0016432D01*
X0034455Y0016655D01*
Y0016885D01*
X0034395Y0017108D01*
X003428Y0017307D01*
X0034117Y001747D01*
X0033918Y0017585D01*
X0033695Y0017645D01*
D02*
G37*
G36*
X0031155D02*
X0030925D01*
X0030702Y0017585D01*
X0030503Y001747D01*
X003034Y0017307D01*
X0030225Y0017108D01*
X0030165Y0016885D01*
Y0016655D01*
X0030225Y0016432D01*
X003034Y0016233D01*
X0030503Y001607D01*
X0030702Y0015955D01*
X0030925Y0015895D01*
X0031155D01*
X0031378Y0015955D01*
X0031577Y001607D01*
X003174Y0016233D01*
X0031855Y0016432D01*
X0031915Y0016655D01*
Y0016885D01*
X0031855Y0017108D01*
X003174Y0017307D01*
X0031577Y001747D01*
X0031378Y0017585D01*
X0031155Y0017645D01*
D02*
G37*
G36*
X0028615D02*
X0028385D01*
X0028162Y0017585D01*
X0027963Y001747D01*
X00278Y0017307D01*
X0027685Y0017108D01*
X0027625Y0016885D01*
Y0016655D01*
X0027685Y0016432D01*
X00278Y0016233D01*
X0027963Y001607D01*
X0028162Y0015955D01*
X0028385Y0015895D01*
X0028615D01*
X0028838Y0015955D01*
X0029037Y001607D01*
X00292Y0016233D01*
X0029315Y0016432D01*
X0029375Y0016655D01*
Y0016885D01*
X0029315Y0017108D01*
X00292Y0017307D01*
X0029037Y001747D01*
X0028838Y0017585D01*
X0028615Y0017645D01*
D02*
G37*
G36*
X0026075D02*
X0025845D01*
X0025622Y0017585D01*
X0025423Y001747D01*
X002526Y0017307D01*
X0025145Y0017108D01*
X0025085Y0016885D01*
Y0016655D01*
X0025145Y0016432D01*
X002526Y0016233D01*
X0025423Y001607D01*
X0025622Y0015955D01*
X0025845Y0015895D01*
X0026075D01*
X0026298Y0015955D01*
X0026497Y001607D01*
X002666Y0016233D01*
X0026775Y0016432D01*
X0026835Y0016655D01*
Y0016885D01*
X0026775Y0017108D01*
X002666Y0017307D01*
X0026497Y001747D01*
X0026298Y0017585D01*
X0026075Y0017645D01*
D02*
G37*
G36*
X0023535D02*
X0023305D01*
X0023082Y0017585D01*
X0022883Y001747D01*
X002272Y0017307D01*
X0022605Y0017108D01*
X0022545Y0016885D01*
Y0016655D01*
X0022605Y0016432D01*
X002272Y0016233D01*
X0022883Y001607D01*
X0023082Y0015955D01*
X0023305Y0015895D01*
X0023535D01*
X0023758Y0015955D01*
X0023957Y001607D01*
X002412Y0016233D01*
X0024235Y0016432D01*
X0024295Y0016655D01*
Y0016885D01*
X0024235Y0017108D01*
X002412Y0017307D01*
X0023957Y001747D01*
X0023758Y0017585D01*
X0023535Y0017645D01*
D02*
G37*
G36*
X0001897Y0015587D02*
X0001727D01*
X0001571Y0015523D01*
X0001452Y0015403D01*
X0001387Y0015247D01*
Y0015078D01*
X0001452Y0014922D01*
X0001571Y0014802D01*
X0001727Y0014738D01*
X0001897D01*
X0002053Y0014802D01*
X0002172Y0014922D01*
X0002237Y0015078D01*
Y0015247D01*
X0002172Y0015403D01*
X0002053Y0015523D01*
X0001897Y0015587D01*
D02*
G37*
G36*
X003383Y0015354D02*
Y001448D01*
X0034704D01*
X0034652Y0014674D01*
X00345Y0014936D01*
X0034286Y001515D01*
X0034024Y0015302D01*
X003383Y0015354D01*
D02*
G37*
G36*
X003333D02*
X0033136Y0015302D01*
X0032874Y001515D01*
X003266Y0014936D01*
X0032508Y0014674D01*
X0032456Y001448D01*
X003333D01*
Y0015354D01*
D02*
G37*
G36*
X0014935Y0014725D02*
X0014765D01*
X0014609Y001466D01*
X001449Y0014541D01*
X0014425Y0014385D01*
Y0014215D01*
X001449Y0014059D01*
X0014609Y001394D01*
X0014765Y0013875D01*
X0014935D01*
X0015091Y001394D01*
X001521Y0014059D01*
X0015275Y0014215D01*
Y0014385D01*
X001521Y0014541D01*
X0015091Y001466D01*
X0014935Y0014725D01*
D02*
G37*
G36*
X0031155Y0015105D02*
X0030925D01*
X0030702Y0015045D01*
X0030503Y001493D01*
X003034Y0014767D01*
X0030225Y0014568D01*
X0030165Y0014345D01*
Y0014115D01*
X0030225Y0013892D01*
X003034Y0013693D01*
X0030503Y001353D01*
X0030702Y0013415D01*
X0030925Y0013355D01*
X0031155D01*
X0031378Y0013415D01*
X0031577Y001353D01*
X003174Y0013693D01*
X0031855Y0013892D01*
X0031915Y0014115D01*
Y0014345D01*
X0031855Y0014568D01*
X003174Y0014767D01*
X0031577Y001493D01*
X0031378Y0015045D01*
X0031155Y0015105D01*
D02*
G37*
G36*
X0028615D02*
X0028385D01*
X0028162Y0015045D01*
X0027963Y001493D01*
X00278Y0014767D01*
X0027685Y0014568D01*
X0027625Y0014345D01*
Y0014115D01*
X0027685Y0013892D01*
X00278Y0013693D01*
X0027963Y001353D01*
X0028162Y0013415D01*
X0028385Y0013355D01*
X0028615D01*
X0028838Y0013415D01*
X0029037Y001353D01*
X00292Y0013693D01*
X0029315Y0013892D01*
X0029375Y0014115D01*
Y0014345D01*
X0029315Y0014568D01*
X00292Y0014767D01*
X0029037Y001493D01*
X0028838Y0015045D01*
X0028615Y0015105D01*
D02*
G37*
G36*
X0026075D02*
X0025845D01*
X0025622Y0015045D01*
X0025423Y001493D01*
X002526Y0014767D01*
X0025145Y0014568D01*
X0025085Y0014345D01*
Y0014115D01*
X0025145Y0013892D01*
X002526Y0013693D01*
X0025423Y001353D01*
X0025622Y0013415D01*
X0025845Y0013355D01*
X0026075D01*
X0026298Y0013415D01*
X0026497Y001353D01*
X002666Y0013693D01*
X0026775Y0013892D01*
X0026835Y0014115D01*
Y0014345D01*
X0026775Y0014568D01*
X002666Y0014767D01*
X0026497Y001493D01*
X0026298Y0015045D01*
X0026075Y0015105D01*
D02*
G37*
G36*
X0023535D02*
X0023305D01*
X0023082Y0015045D01*
X0022883Y001493D01*
X002272Y0014767D01*
X0022605Y0014568D01*
X0022545Y0014345D01*
Y0014115D01*
X0022605Y0013892D01*
X002272Y0013693D01*
X0022883Y001353D01*
X0023082Y0013415D01*
X0023305Y0013355D01*
X0023535D01*
X0023758Y0013415D01*
X0023957Y001353D01*
X002412Y0013693D01*
X0024235Y0013892D01*
X0024295Y0014115D01*
Y0014345D01*
X0024235Y0014568D01*
X002412Y0014767D01*
X0023957Y001493D01*
X0023758Y0015045D01*
X0023535Y0015105D01*
D02*
G37*
G36*
X0034704Y001398D02*
X003383D01*
Y0013106D01*
X0034024Y0013158D01*
X0034286Y001331D01*
X00345Y0013524D01*
X0034652Y0013786D01*
X0034704Y001398D01*
D02*
G37*
G36*
X003333D02*
X0032456D01*
X0032508Y0013786D01*
X003266Y0013524D01*
X0032874Y001331D01*
X0033136Y0013158D01*
X003333Y0013106D01*
Y001398D01*
D02*
G37*
G36*
X003916Y0015625D02*
X003884D01*
X0038526Y0015563D01*
X003823Y001544D01*
X0037964Y0015262D01*
X0037738Y0015036D01*
X003756Y001477D01*
X0037437Y0014474D01*
X0037375Y001416D01*
Y001384D01*
X0037437Y0013526D01*
X003756Y001323D01*
X0037738Y0012964D01*
X0037964Y0012738D01*
X003823Y001256D01*
X0038526Y0012437D01*
X003884Y0012375D01*
X003916D01*
X0039474Y0012437D01*
X003977Y001256D01*
X0040036Y0012738D01*
X0040262Y0012964D01*
X004044Y001323D01*
X0040563Y0013526D01*
X0040625Y001384D01*
Y001416D01*
X0040563Y0014474D01*
X004044Y001477D01*
X0040262Y0015036D01*
X0040036Y0015262D01*
X003977Y001544D01*
X0039474Y0015563D01*
X003916Y0015625D01*
D02*
G37*
G36*
X00107Y0012258D02*
Y0011015D01*
X0011684D01*
Y0011165D01*
X0011647Y0011452D01*
X0011536Y001172D01*
X001136Y001195D01*
X001113Y0012126D01*
X0010862Y0012237D01*
X00107Y0012258D01*
D02*
G37*
G36*
X000355D02*
Y0011015D01*
X0004534D01*
Y0011165D01*
X0004497Y0011452D01*
X0004386Y001172D01*
X000421Y001195D01*
X000398Y0012126D01*
X0003712Y0012237D01*
X000355Y0012258D01*
D02*
G37*
G36*
X001045D02*
X0010288Y0012237D01*
X001002Y0012126D01*
X000979Y001195D01*
X0009614Y001172D01*
X0009503Y0011452D01*
X0009466Y0011165D01*
Y0011015D01*
X001045D01*
Y0012258D01*
D02*
G37*
G36*
X00033D02*
X0003138Y0012237D01*
X000287Y0012126D01*
X000264Y001195D01*
X0002464Y001172D01*
X0002353Y0011452D01*
X0002316Y0011165D01*
Y0011015D01*
X00033D01*
Y0012258D01*
D02*
G37*
G36*
X-0042215Y0011225D02*
X-0042385D01*
X-0042541Y001116D01*
X-004266Y0011041D01*
X-0042725Y0010885D01*
Y0010715D01*
X-004266Y0010559D01*
X-0042541Y001044D01*
X-0042385Y0010375D01*
X-0042215D01*
X-0042059Y001044D01*
X-004194Y0010559D01*
X-0041875Y0010715D01*
Y0010885D01*
X-004194Y0011041D01*
X-0042059Y001116D01*
X-0042215Y0011225D01*
D02*
G37*
G36*
X001045Y0010765D02*
X0009466D01*
Y0010615D01*
X0009503Y0010328D01*
X0009614Y001006D01*
X000979Y000983D01*
X001002Y0009654D01*
X0010288Y0009543D01*
X001045Y0009522D01*
Y0010765D01*
D02*
G37*
G36*
X00033D02*
X0002316D01*
Y0010615D01*
X0002353Y0010328D01*
X0002464Y001006D01*
X000264Y000983D01*
X000287Y0009654D01*
X0003138Y0009543D01*
X00033Y0009522D01*
Y0010765D01*
D02*
G37*
G36*
X0011684D02*
X00107D01*
Y0009522D01*
X0010862Y0009543D01*
X001113Y0009654D01*
X001136Y000983D01*
X0011536Y001006D01*
X0011647Y0010328D01*
X0011684Y0010615D01*
Y0010765D01*
D02*
G37*
G36*
X0004534D02*
X000355D01*
Y0009522D01*
X0003712Y0009543D01*
X000398Y0009654D01*
X000421Y000983D01*
X0004386Y001006D01*
X0004497Y0010328D01*
X0004534Y0010615D01*
Y0010765D01*
D02*
G37*
G36*
X000785Y001075D02*
X00068D01*
Y000925D01*
X000785D01*
Y001075D01*
D02*
G37*
G36*
X0005875Y0008575D02*
X0005225D01*
Y0008075D01*
X0005875D01*
Y0008575D01*
D02*
G37*
G36*
X-0031165Y0008675D02*
X-0031335D01*
X-0031491Y000861D01*
X-003161Y0008491D01*
X-0031675Y0008335D01*
Y0008165D01*
X-003161Y0008009D01*
X-0031491Y000789D01*
X-0031335Y0007825D01*
X-0031165D01*
X-0031009Y000789D01*
X-003089Y0008009D01*
X-0030825Y0008165D01*
Y0008335D01*
X-003089Y0008491D01*
X-0031009Y000861D01*
X-0031165Y0008675D01*
D02*
G37*
G36*
X-003284Y000855D02*
X-003301D01*
X-0033166Y0008485D01*
X-0033285Y0008366D01*
X-003335Y000821D01*
Y000804D01*
X-0033285Y0007884D01*
X-0033166Y0007765D01*
X-003301Y00077D01*
X-003284D01*
X-0032684Y0007765D01*
X-0032565Y0007884D01*
X-00325Y000804D01*
Y000821D01*
X-0032565Y0008366D01*
X-0032684Y0008485D01*
X-003284Y000855D01*
D02*
G37*
G36*
X0039885Y0008425D02*
X0039715D01*
X0039559Y000836D01*
X003944Y0008241D01*
X0039375Y0008085D01*
Y0007915D01*
X003944Y0007759D01*
X0039559Y000764D01*
X0039715Y0007575D01*
X0039885D01*
X0040041Y000764D01*
X004016Y0007759D01*
X0040225Y0007915D01*
Y0008085D01*
X004016Y0008241D01*
X0040041Y000836D01*
X0039885Y0008425D01*
D02*
G37*
G36*
X0005875Y0007275D02*
X0005225D01*
Y0006775D01*
X0005875D01*
Y0007275D01*
D02*
G37*
G36*
X0014585Y0006175D02*
X0014415D01*
X0014259Y000611D01*
X001414Y0005991D01*
X0014108Y0005915D01*
X0013892D01*
X001386Y0005991D01*
X0013741Y000611D01*
X0013585Y0006175D01*
X0013415D01*
X0013259Y000611D01*
X001314Y0005991D01*
X0013075Y0005835D01*
Y0005665D01*
X001314Y0005509D01*
X0013259Y000539D01*
X0013415Y0005325D01*
X0013585D01*
X0013741Y000539D01*
X001386Y0005509D01*
X0013892Y0005585D01*
X0014108D01*
X001414Y0005509D01*
X0014259Y000539D01*
X0014415Y0005325D01*
X0014585D01*
X0014741Y000539D01*
X001486Y0005509D01*
X0014925Y0005665D01*
Y0005835D01*
X001486Y0005991D01*
X0014741Y000611D01*
X0014585Y0006175D01*
D02*
G37*
G36*
X-003069Y000655D02*
X-003086D01*
X-0031016Y0006485D01*
X-0031135Y0006366D01*
X-00312Y000621D01*
Y000604D01*
X-0031135Y0005884D01*
X-0031016Y0005765D01*
X-003086Y00057D01*
X-003069D01*
X-0030534Y0005765D01*
X-0030415Y0005884D01*
X-003035Y000604D01*
Y000621D01*
X-0030415Y0006366D01*
X-0030534Y0006485D01*
X-003069Y000655D01*
D02*
G37*
G36*
X-0042239Y0006119D02*
X-0042408D01*
X-0042564Y0006054D01*
X-0042683Y0005934D01*
X-0042748Y0005778D01*
Y0005609D01*
X-0042683Y0005453D01*
X-0042564Y0005333D01*
X-0042408Y0005269D01*
X-0042239D01*
X-0042082Y0005333D01*
X-0041963Y0005453D01*
X-0041898Y0005609D01*
Y0005778D01*
X-0041963Y0005934D01*
X-0042082Y0006054D01*
X-0042239Y0006119D01*
D02*
G37*
G36*
X-0031315Y0005051D02*
X-0031485D01*
X-0031641Y0004987D01*
X-003176Y0004867D01*
X-0031825Y0004711D01*
Y0004542D01*
X-003176Y0004386D01*
X-0031641Y0004266D01*
X-0031485Y0004201D01*
X-0031315D01*
X-0031159Y0004266D01*
X-003104Y0004386D01*
X-0030975Y0004542D01*
Y0004711D01*
X-003104Y0004867D01*
X-0031159Y0004987D01*
X-0031315Y0005051D01*
D02*
G37*
G36*
X00391Y0005482D02*
X00373D01*
X0037098Y0005455D01*
X0036909Y0005377D01*
X0036747Y0005253D01*
X0036623Y0005091D01*
X0036545Y0004902D01*
X0036518Y00047D01*
X0036545Y0004498D01*
X0036623Y0004309D01*
X0036747Y0004147D01*
X0036909Y0004023D01*
X0037098Y0003945D01*
X00373Y0003918D01*
X00391D01*
X0039302Y0003945D01*
X0039491Y0004023D01*
X0039653Y0004147D01*
X0039777Y0004309D01*
X0039855Y0004498D01*
X0039882Y00047D01*
X0039855Y0004902D01*
X0039777Y0005091D01*
X0039653Y0005253D01*
X0039491Y0005377D01*
X0039302Y0005455D01*
X00391Y0005482D01*
D02*
G37*
G36*
X-0024165Y0004675D02*
X-0024335D01*
X-0024491Y000461D01*
X-002461Y0004491D01*
X-0024675Y0004335D01*
Y0004165D01*
X-002461Y0004009D01*
X-0024491Y000389D01*
X-0024335Y0003825D01*
X-0024165D01*
X-0024009Y000389D01*
X-002389Y0004009D01*
X-0023825Y0004165D01*
Y0004335D01*
X-002389Y0004491D01*
X-0024009Y000461D01*
X-0024165Y0004675D01*
D02*
G37*
G36*
X-0031915Y0004175D02*
X-0032085D01*
X-0032241Y000411D01*
X-003236Y0003991D01*
X-0032425Y0003835D01*
Y0003665D01*
X-003236Y0003509D01*
X-0032241Y000339D01*
X-0032085Y0003325D01*
X-0031915D01*
X-0031759Y000339D01*
X-003164Y0003509D01*
X-0031575Y0003665D01*
Y0003835D01*
X-003164Y0003991D01*
X-0031759Y000411D01*
X-0031915Y0004175D01*
D02*
G37*
G36*
X-0028765Y0003875D02*
X-0028935D01*
X-0029091Y000381D01*
X-002921Y0003691D01*
X-0029275Y0003535D01*
Y0003409D01*
X-0029384Y0003325D01*
X-002946Y0003296D01*
X-002959Y000335D01*
X-002976D01*
X-0029916Y0003285D01*
X-0030035Y0003166D01*
X-00301Y000301D01*
Y000284D01*
X-0030035Y0002684D01*
X-0029916Y0002565D01*
X-002976Y00025D01*
X-002959D01*
X-0029434Y0002565D01*
X-0029315Y0002684D01*
X-002925Y000284D01*
Y0002966D01*
X-0029141Y000305D01*
X-0029065Y0003079D01*
X-0028935Y0003025D01*
X-0028927D01*
X-0028794Y0002825D01*
X-00288Y000281D01*
Y000264D01*
X-0028735Y0002484D01*
X-0028686Y0002435D01*
X-0028728Y0002211D01*
X-0028791Y0002185D01*
X-002891Y0002066D01*
X-0028975Y000191D01*
Y000174D01*
X-002891Y0001584D01*
X-0028791Y0001465D01*
X-0028635Y00014D01*
X-0028465D01*
X-0028309Y0001465D01*
X-002819Y0001584D01*
X-0028125Y000174D01*
Y000191D01*
X-002819Y0002066D01*
X-0028239Y0002115D01*
X-0028197Y0002339D01*
X-0028134Y0002365D01*
X-0028015Y0002484D01*
X-002795Y000264D01*
Y000281D01*
X-0028015Y0002966D01*
X-0028134Y0003085D01*
X-002829Y000315D01*
X-0028298D01*
X-0028431Y000335D01*
X-0028425Y0003365D01*
Y0003535D01*
X-002849Y0003691D01*
X-0028609Y000381D01*
X-0028765Y0003875D01*
D02*
G37*
G36*
X-0030715Y0004075D02*
X-0030885D01*
X-0031041Y000401D01*
X-003116Y0003891D01*
X-0031225Y0003735D01*
Y0003565D01*
X-003116Y0003409D01*
X-0031041Y000329D01*
X-0030885Y0003225D01*
X-0030715D01*
X-0030559Y000329D01*
X-003044Y0003409D01*
X-0030375Y0003565D01*
Y0003735D01*
X-003044Y0003891D01*
X-0030559Y000401D01*
X-0030715Y0004075D01*
D02*
G37*
G36*
X-002104D02*
X-002121D01*
X-0021366Y000401D01*
X-0021485Y0003891D01*
X-002155Y0003735D01*
Y0003565D01*
X-0021485Y0003409D01*
X-0021366Y000329D01*
X-002121Y0003225D01*
X-002104D01*
X-0020884Y000329D01*
X-0020788Y0003386D01*
X-0020658Y0003388D01*
X-0020565Y000337D01*
X-002056Y0003359D01*
X-0020441Y000324D01*
X-0020285Y0003175D01*
X-0020115D01*
X-0019959Y000324D01*
X-001984Y0003359D01*
X-0019775Y0003515D01*
Y0003685D01*
X-001984Y0003841D01*
X-0019959Y000396D01*
X-0020115Y0004025D01*
X-0020285D01*
X-0020441Y000396D01*
X-0020537Y0003864D01*
X-0020667Y0003862D01*
X-002076Y000388D01*
X-0020765Y0003891D01*
X-0020884Y000401D01*
X-002104Y0004075D01*
D02*
G37*
G36*
X-0041965Y0003125D02*
X-0042135D01*
X-0042291Y000306D01*
X-004241Y0002941D01*
X-0042475Y0002785D01*
Y0002615D01*
X-004241Y0002459D01*
X-0042291Y000234D01*
X-0042135Y0002275D01*
X-0041965D01*
X-0041809Y000234D01*
X-004169Y0002459D01*
X-0041625Y0002615D01*
Y0002785D01*
X-004169Y0002941D01*
X-0041809Y000306D01*
X-0041965Y0003125D01*
D02*
G37*
G36*
X0015384Y0002275D02*
X0015215D01*
X0015059Y000221D01*
X0015056Y0002207D01*
X0014925Y0002102D01*
X0014794Y0002207D01*
X0014791Y000221D01*
X0014634Y0002275D01*
X0014465D01*
X0014309Y000221D01*
X0014306Y0002207D01*
X0014175Y0002102D01*
X0014044Y0002207D01*
X0014041Y000221D01*
X0013885Y0002275D01*
X0013715D01*
X0013559Y000221D01*
X001344Y0002091D01*
X0013375Y0001935D01*
Y0001765D01*
X001344Y0001609D01*
X0013559Y000149D01*
X0013715Y0001425D01*
X0013885D01*
X0014041Y000149D01*
X0014044Y0001493D01*
X0014175Y0001598D01*
X0014306Y0001493D01*
X0014309Y000149D01*
X0014465Y0001425D01*
X0014634D01*
X0014791Y000149D01*
X0014794Y0001493D01*
X0014925Y0001598D01*
X0015056Y0001493D01*
X0015059Y000149D01*
X0015215Y0001425D01*
X0015384D01*
X0015541Y000149D01*
X001566Y0001609D01*
X0015725Y0001765D01*
Y0001935D01*
X001566Y0002091D01*
X0015541Y000221D01*
X0015384Y0002275D01*
D02*
G37*
G36*
X-0040515Y0002925D02*
X-0040685D01*
X-0040841Y000286D01*
X-004096Y0002741D01*
X-0041025Y0002585D01*
Y0002415D01*
X-004096Y0002259D01*
X-0040841Y000214D01*
X-0040685Y0002075D01*
X-0040515D01*
X-0040359Y000214D01*
X-004024Y0002259D01*
X-0040175Y0002415D01*
Y0002585D01*
X-004024Y0002741D01*
X-0040359Y000286D01*
X-0040515Y0002925D01*
D02*
G37*
G36*
X-0032261Y0002902D02*
X-003243D01*
X-0032586Y0002838D01*
X-0032706Y0002718D01*
X-003277Y0002562D01*
Y0002393D01*
X-0032706Y0002237D01*
X-0032586Y0002117D01*
X-003243Y0002052D01*
X-0032261D01*
X-0032105Y0002117D01*
X-0031985Y0002237D01*
X-003192Y0002393D01*
Y0002562D01*
X-0031985Y0002718D01*
X-0032105Y0002838D01*
X-0032261Y0002902D01*
D02*
G37*
G36*
X-0037215Y0002625D02*
X-0037385D01*
X-0037541Y000256D01*
X-003766Y0002441D01*
X-0037725Y0002285D01*
Y0002115D01*
X-003766Y0001959D01*
X-0037541Y000184D01*
X-0037385Y0001775D01*
X-0037215D01*
X-0037059Y000184D01*
X-003694Y0001959D01*
X-0036875Y0002115D01*
Y0002285D01*
X-003694Y0002441D01*
X-0037059Y000256D01*
X-0037215Y0002625D01*
D02*
G37*
G36*
X-0044572Y0001819D02*
X-0044741D01*
X-0044897Y0001754D01*
X-0045017Y0001634D01*
X-0045082Y0001478D01*
Y0001309D01*
X-0045017Y0001153D01*
X-0044897Y0001033D01*
X-0044741Y0000969D01*
X-0044572D01*
X-0044416Y0001033D01*
X-0044296Y0001153D01*
X-0044231Y0001309D01*
Y0001478D01*
X-0044296Y0001634D01*
X-0044416Y0001754D01*
X-0044572Y0001819D01*
D02*
G37*
G36*
X-002664Y0001675D02*
X-002681D01*
X-0026966Y000161D01*
X-0027085Y0001491D01*
X-002715Y0001335D01*
Y0001165D01*
X-0027085Y0001009D01*
X-0026966Y000089D01*
X-002681Y0000825D01*
X-002664D01*
X-0026484Y000089D01*
X-0026365Y0001009D01*
X-00263Y0001165D01*
Y0001335D01*
X-0026365Y0001491D01*
X-0026484Y000161D01*
X-002664Y0001675D01*
D02*
G37*
G36*
X-0021217Y0002201D02*
X-0021386D01*
X-0021542Y0002137D01*
X-0021662Y0002017D01*
X-0021726Y0001861D01*
Y0001692D01*
X-0021662Y0001536D01*
X-0021542Y0001416D01*
X-0021386Y0001351D01*
X-0021381D01*
X-0021215Y0001333D01*
X-0021196Y0001167D01*
Y0001162D01*
X-0021131Y0001005D01*
X-0021012Y0000886D01*
X-0020856Y0000821D01*
X-0020687D01*
X-002053Y0000886D01*
X-0020411Y0001005D01*
X-0020346Y0001162D01*
Y0001331D01*
X-0020411Y0001487D01*
X-002053Y0001606D01*
X-0020687Y0001671D01*
X-0020692D01*
X-0020858Y000169D01*
X-0020876Y0001856D01*
Y0001861D01*
X-0020941Y0002017D01*
X-0021061Y0002137D01*
X-0021217Y0002201D01*
D02*
G37*
G36*
X-0037903Y0001637D02*
X-0038072D01*
X-0038229Y0001572D01*
X-0038348Y0001453D01*
X-0038413Y0001297D01*
Y0001128D01*
X-0038348Y0000971D01*
X-0038229Y0000852D01*
X-0038072Y0000787D01*
X-0037903D01*
X-0037747Y0000852D01*
X-0037628Y0000971D01*
X-0037563Y0001128D01*
Y0001297D01*
X-0037628Y0001453D01*
X-0037747Y0001572D01*
X-0037903Y0001637D01*
D02*
G37*
G36*
X-0042815Y0001625D02*
X-0042985D01*
X-0043141Y000156D01*
X-004326Y0001441D01*
X-0043325Y0001285D01*
Y0001115D01*
X-004326Y0000959D01*
X-0043141Y000084D01*
X-0042985Y0000775D01*
X-0042815D01*
X-0042659Y000084D01*
X-004254Y0000959D01*
X-0042475Y0001115D01*
Y0001285D01*
X-004254Y0001441D01*
X-0042659Y000156D01*
X-0042815Y0001625D01*
D02*
G37*
G36*
X-002049Y000035D02*
X-002066D01*
X-0020816Y0000285D01*
X-0020819Y0000282D01*
X-002095Y0000177D01*
X-0021081Y0000282D01*
X-0021084Y0000285D01*
X-002124Y000035D01*
X-002141D01*
X-0021566Y0000285D01*
X-0021685Y0000166D01*
X-002175Y000001D01*
Y-000016D01*
X-0021685Y-0000316D01*
X-0021566Y-0000435D01*
X-002141Y-00005D01*
X-002124D01*
X-0021084Y-0000435D01*
X-0021081Y-0000432D01*
X-002095Y-0000327D01*
X-0020819Y-0000432D01*
X-0020816Y-0000435D01*
X-002066Y-00005D01*
X-002049D01*
X-0020334Y-0000435D01*
X-0020215Y-0000316D01*
X-002015Y-000016D01*
Y000001D01*
X-0020215Y0000166D01*
X-0020334Y0000285D01*
X-002049Y000035D01*
D02*
G37*
G36*
X0042375Y0002144D02*
Y0000125D01*
X004346D01*
Y000095D01*
X0043419Y0001263D01*
X0043298Y0001555D01*
X0043106Y0001806D01*
X0042855Y0001998D01*
X0042563Y0002119D01*
X0042375Y0002144D01*
D02*
G37*
G36*
X0040115Y0002145D02*
X0039885D01*
X0039662Y0002085D01*
X0039463Y000197D01*
X00393Y0001807D01*
X0039185Y0001608D01*
X0039125Y0001385D01*
Y0001155D01*
X0039185Y0000932D01*
X00393Y0000733D01*
X0039463Y000057D01*
X0039662Y0000455D01*
X0039885Y0000395D01*
X0040115D01*
X0040338Y0000455D01*
X0040537Y000057D01*
X00407Y0000733D01*
X0040815Y0000932D01*
X0040844Y0001041D01*
X0040855Y0001081D01*
X0041052Y0001041D01*
X004104Y000095D01*
Y0000125D01*
X0042125D01*
Y0002144D01*
X0041937Y0002119D01*
X0041645Y0001998D01*
X0041394Y0001806D01*
X0041202Y0001555D01*
X0041081Y0001263D01*
X0041075Y0001219D01*
X0040875Y0001232D01*
X0040875Y0001273D01*
Y0001385D01*
X0040815Y0001608D01*
X00407Y0001807D01*
X0040537Y000197D01*
X0040338Y0002085D01*
X0040115Y0002145D01*
D02*
G37*
G36*
X-0032015Y0000925D02*
X-0032185D01*
X-0032341Y000086D01*
X-003246Y0000741D01*
X-0032525Y0000585D01*
Y0000415D01*
X-003246Y0000259D01*
X-0032341Y000014D01*
X-0032185Y0000075D01*
X-0032015D01*
X-0031859Y000014D01*
X-003174Y0000259D01*
X-0031675Y0000415D01*
Y0000585D01*
X-003174Y0000741D01*
X-0031859Y000086D01*
X-0032015Y0000925D01*
D02*
G37*
G36*
X-0030215Y00008D02*
X-0030385D01*
X-0030541Y0000735D01*
X-003066Y0000616D01*
X-0030725Y000046D01*
Y000029D01*
X-003066Y0000134D01*
X-0030541Y0000015D01*
X-0030385Y-000005D01*
X-0030215D01*
X-0030059Y0000015D01*
X-002994Y0000134D01*
X-0029875Y000029D01*
Y000046D01*
X-002994Y0000616D01*
X-0030059Y0000735D01*
X-0030215Y00008D01*
D02*
G37*
G36*
X-0025815Y00003D02*
X-0025985D01*
X-0026141Y0000235D01*
X-002626Y0000116D01*
X-0026325Y-000004D01*
Y-000021D01*
X-002626Y-0000366D01*
X-0026141Y-0000485D01*
X-0025985Y-000055D01*
X-0025815D01*
X-0025659Y-0000485D01*
X-002554Y-0000366D01*
X-0025475Y-000021D01*
Y-000004D01*
X-002554Y0000116D01*
X-0025659Y0000235D01*
X-0025815Y00003D01*
D02*
G37*
G36*
X-0027524Y0000253D02*
X-0027694D01*
X-002785Y0000189D01*
X-0027969Y0000069D01*
X-0028034Y-0000087D01*
Y-0000256D01*
X-0027969Y-0000412D01*
X-002785Y-0000532D01*
X-0027694Y-0000597D01*
X-0027524D01*
X-0027368Y-0000532D01*
X-0027249Y-0000412D01*
X-0027184Y-0000256D01*
Y-0000087D01*
X-0027249Y0000069D01*
X-0027368Y0000189D01*
X-0027524Y0000253D01*
D02*
G37*
G36*
X-0043376Y0000625D02*
X-0043624D01*
X-0043854Y000053D01*
X-004403Y0000354D01*
X-0044125Y0000124D01*
Y-0000124D01*
X-004403Y-0000354D01*
X-0043854Y-000053D01*
X-0043624Y-0000625D01*
X-0043376D01*
X-0043146Y-000053D01*
X-004297Y-0000354D01*
X-0042875Y-0000124D01*
Y0000124D01*
X-004297Y0000354D01*
X-0043146Y000053D01*
X-0043376Y0000625D01*
D02*
G37*
G36*
X-002876Y0000475D02*
X-002893D01*
X-0029086Y000041D01*
X-0029205Y0000291D01*
X-002927Y0000135D01*
Y0000081D01*
X-0029405Y-0000064D01*
X-0029455Y-0000075D01*
X-0029585D01*
X-0029741Y-000014D01*
X-002986Y-0000259D01*
X-0029925Y-0000415D01*
Y-0000585D01*
X-002986Y-0000741D01*
X-0029741Y-000086D01*
X-0029585Y-0000925D01*
X-0029415D01*
X-0029259Y-000086D01*
X-002914Y-0000741D01*
X-0029075Y-0000585D01*
Y-0000531D01*
X-002894Y-0000386D01*
X-002889Y-0000375D01*
X-002876D01*
X-0028604Y-000031D01*
X-0028485Y-0000191D01*
X-002842Y-0000035D01*
Y0000135D01*
X-0028485Y0000291D01*
X-0028604Y000041D01*
X-002876Y0000475D01*
D02*
G37*
G36*
X-0039113Y0000275D02*
X-0039282D01*
X-0039438Y000021D01*
X-0039558Y0000091D01*
X-0039623Y-0000065D01*
Y-0000235D01*
X-0039558Y-0000391D01*
X-0039438Y-000051D01*
X-0039282Y-0000575D01*
X-0039113D01*
X-0039083Y-0000563D01*
X-0038901Y-0000598D01*
X-0038856Y-0000668D01*
X-0038819Y-0000757D01*
X-0038699Y-0000877D01*
X-0038543Y-0000942D01*
X-0038374D01*
X-0038218Y-0000877D01*
X-0038098Y-0000757D01*
X-0038033Y-0000601D01*
Y-0000432D01*
X-0038098Y-0000276D01*
X-0038218Y-0000156D01*
X-0038374Y-0000092D01*
X-0038543D01*
X-0038573Y-0000104D01*
X-0038755Y-0000069D01*
X-00388Y0000002D01*
X-0038837Y0000091D01*
X-0038957Y000021D01*
X-0039113Y0000275D01*
D02*
G37*
G36*
X0039875Y-000007D02*
X0039842D01*
X0039537Y-0000152D01*
X0039263Y-000031D01*
X003904Y-0000533D01*
X0038882Y-0000807D01*
X00388Y-0001112D01*
Y-0001145D01*
X0039875D01*
Y-000007D01*
D02*
G37*
G36*
X-0040163Y000032D02*
X-0040332D01*
X-0040488Y0000256D01*
X-0040608Y0000136D01*
X-0040673Y-000002D01*
Y-0000189D01*
X-0040817Y-0000362D01*
X-0040876Y-0000386D01*
X-0040996Y-0000506D01*
X-004106Y-0000662D01*
Y-0000831D01*
X-0040996Y-0000987D01*
X-0040876Y-0001107D01*
X-004072Y-0001172D01*
X-0040551D01*
X-0040395Y-0001107D01*
X-0040275Y-0000987D01*
X-004021Y-0000831D01*
Y-0000662D01*
X-0040065Y-0000489D01*
X-0040007Y-0000465D01*
X-0039887Y-0000345D01*
X-0039823Y-0000189D01*
Y-000002D01*
X-0039887Y0000136D01*
X-0040007Y0000256D01*
X-0040163Y000032D01*
D02*
G37*
G36*
X-0030915Y-0000543D02*
X-0031084D01*
X-003124Y-0000607D01*
X-0031359Y-0000727D01*
X-0031424Y-0000883D01*
Y-0001052D01*
X-0031359Y-0001208D01*
X-003124Y-0001328D01*
X-0031084Y-0001393D01*
X-0030915D01*
X-0030758Y-0001328D01*
X-0030639Y-0001208D01*
X-0030574Y-0001052D01*
Y-0000883D01*
X-0030639Y-0000727D01*
X-0030758Y-0000607D01*
X-0030915Y-0000543D01*
D02*
G37*
G36*
X0002309Y0002825D02*
X0002091D01*
X0001888Y0002741D01*
X0001734Y0002587D01*
X000165Y0002384D01*
Y0002166D01*
X0001734Y0001963D01*
X0001797Y00019D01*
X0001734Y0001837D01*
X000165Y0001634D01*
Y0001625D01*
X0001491D01*
X0001288Y0001541D01*
X0001134Y0001387D01*
X000105Y0001184D01*
Y0000966D01*
X0001134Y0000763D01*
X0001197Y00007D01*
X0001134Y0000637D01*
X000105Y0000434D01*
Y0000216D01*
X0001134Y0000013D01*
X0001288Y-0000141D01*
X0001491Y-0000225D01*
X000165D01*
Y-0000234D01*
X0001734Y-0000437D01*
X0001797Y-00005D01*
X0001734Y-0000563D01*
X000165Y-0000766D01*
Y-0000984D01*
X0001734Y-0001187D01*
X0001888Y-0001341D01*
X0002091Y-0001425D01*
X0002309D01*
X0002512Y-0001341D01*
X0002666Y-0001187D01*
X000275Y-0000984D01*
Y-0000766D01*
X0002666Y-0000563D01*
X0002603Y-00005D01*
X0002666Y-0000437D01*
X0002716Y-0000317D01*
X0002712D01*
X000272Y-0000306D01*
X000275Y-0000234D01*
Y-0000016D01*
X0002666Y0000187D01*
X0002512Y0000341D01*
X0002309Y0000425D01*
X000215D01*
Y0000434D01*
X0002066Y0000637D01*
X0002003Y00007D01*
X0002066Y0000763D01*
X000215Y0000966D01*
Y0000975D01*
X0002309D01*
X0002512Y0001059D01*
X0002666Y0001213D01*
X000275Y0001416D01*
Y0001634D01*
X000272Y0001706D01*
X0002712Y0001717D01*
X0002716D01*
X0002666Y0001837D01*
X0002603Y00019D01*
X0002666Y0001963D01*
X000275Y0002166D01*
Y0002384D01*
X0002666Y0002587D01*
X0002512Y0002741D01*
X0002309Y0002825D01*
D02*
G37*
G36*
X0035275Y0001682D02*
X0035073Y0001655D01*
X0034884Y0001577D01*
X0034722Y0001453D01*
X0034598Y0001291D01*
X003452Y0001102D01*
X0034493Y00009D01*
Y-00009D01*
X003452Y-0001102D01*
X0034598Y-0001291D01*
X0034722Y-0001453D01*
X0034884Y-0001577D01*
X0035073Y-0001655D01*
X0035275Y-0001682D01*
X0035477Y-0001655D01*
X0035666Y-0001577D01*
X0035828Y-0001453D01*
X0035952Y-0001291D01*
X003603Y-0001102D01*
X0036057Y-00009D01*
Y00009D01*
X003603Y0001102D01*
X0035952Y0001291D01*
X0035828Y0001453D01*
X0035666Y0001577D01*
X0035477Y0001655D01*
X0035275Y0001682D01*
D02*
G37*
G36*
X-0005691Y0003725D02*
X-0005909D01*
X-0006112Y0003641D01*
X-0006266Y0003487D01*
X-000635Y0003284D01*
Y0003066D01*
X-0006266Y0002863D01*
X-0006203Y00028D01*
X-0006266Y0002737D01*
X-000635Y0002534D01*
Y0002316D01*
X-0006266Y0002113D01*
X-0006112Y0001959D01*
X-0005909Y0001875D01*
X-0005691D01*
X-0005564Y0001928D01*
X-0005516Y0001813D01*
X-0005453Y000175D01*
X-0005516Y0001687D01*
X-00056Y0001484D01*
Y0001266D01*
X-0005593Y000125D01*
X-000569Y0001105D01*
X-0005892Y0001022D01*
X-0006047Y0000867D01*
X-000613Y0000665D01*
Y0000446D01*
X-0006047Y0000244D01*
X-0005892Y0000089D01*
X-000569Y0000005D01*
X-0005648D01*
X-0005567Y-0000181D01*
X-0005637Y-0000418D01*
X-0005756Y-0000538D01*
X-0005821Y-0000694D01*
Y-0000863D01*
X-0005756Y-0001019D01*
X-0005688Y-0001087D01*
X-000576Y-0001159D01*
X-0005825Y-0001315D01*
Y-0001485D01*
X-000576Y-0001641D01*
X-0005641Y-000176D01*
X-0005485Y-0001825D01*
X-0005315D01*
X-0005159Y-000176D01*
X-000504Y-0001641D01*
X-0004975Y-0001485D01*
Y-0001315D01*
X-000504Y-0001159D01*
X-0005108Y-0001091D01*
X-0005036Y-0001019D01*
X-0004971Y-0000863D01*
Y-0000694D01*
X-0004941Y-0000525D01*
X-0004856Y-000049D01*
X-0004738Y-0000441D01*
X-0004584Y-0000287D01*
X-00045Y-0000084D01*
Y0000134D01*
X-0004584Y0000337D01*
X-0004738Y0000491D01*
X-0004892Y0000555D01*
X-0004931Y000064D01*
X-0004851Y0000862D01*
X-0004738Y0000909D01*
X-0004584Y0001063D01*
X-00045Y0001266D01*
Y0001484D01*
X-0004584Y0001687D01*
X-0004647Y000175D01*
X-0004584Y0001813D01*
X-00045Y0002016D01*
Y0002234D01*
X-0004584Y0002437D01*
X-0004738Y0002591D01*
X-0004941Y0002675D01*
X-0005159D01*
X-0005286Y0002622D01*
X-0005334Y0002737D01*
X-0005397Y00028D01*
X-0005334Y0002863D01*
X-000525Y0003066D01*
Y0003284D01*
X-0005334Y0003487D01*
X-0005488Y0003641D01*
X-0005691Y0003725D01*
D02*
G37*
G36*
X-0022915Y-0001175D02*
X-0023085D01*
X-0023241Y-000124D01*
X-002336Y-0001359D01*
X-0023425Y-0001515D01*
Y-0001685D01*
X-002336Y-0001841D01*
X-0023241Y-000196D01*
X-0023085Y-0002025D01*
X-0022915D01*
X-0022759Y-000196D01*
X-002264Y-0001841D01*
X-0022575Y-0001685D01*
Y-0001515D01*
X-002264Y-0001359D01*
X-0022759Y-000124D01*
X-0022915Y-0001175D01*
D02*
G37*
G36*
X-0027215D02*
X-0027385D01*
X-0027541Y-000124D01*
X-002766Y-0001359D01*
X-0027725Y-0001515D01*
Y-0001685D01*
X-002766Y-0001841D01*
X-0027541Y-000196D01*
X-0027385Y-0002025D01*
X-0027215D01*
X-0027059Y-000196D01*
X-002694Y-0001841D01*
X-0026875Y-0001685D01*
Y-0001515D01*
X-002694Y-0001359D01*
X-0027059Y-000124D01*
X-0027215Y-0001175D01*
D02*
G37*
G36*
X0040158Y-000007D02*
X0040125D01*
Y-000127D01*
Y-000247D01*
X0040158D01*
X0040463Y-0002388D01*
X0040737Y-000223D01*
X004096Y-0002007D01*
X0041105Y-0001757D01*
X00412Y-0001728D01*
X0041329Y-0001721D01*
X0041394Y-0001806D01*
X0041645Y-0001998D01*
X0041937Y-0002119D01*
X0042125Y-0002144D01*
Y-0000125D01*
X004104D01*
Y-000033D01*
X004084Y-0000413D01*
X0040737Y-000031D01*
X0040463Y-0000152D01*
X0040158Y-000007D01*
D02*
G37*
G36*
X004346Y-0000125D02*
X0042375D01*
Y-0002144D01*
X0042563Y-0002119D01*
X0042855Y-0001998D01*
X0043106Y-0001806D01*
X0043298Y-0001555D01*
X0043419Y-0001263D01*
X004346Y-000095D01*
Y-0000125D01*
D02*
G37*
G36*
X0039875Y-0001395D02*
X00388D01*
Y-0001428D01*
X0038882Y-0001733D01*
X003904Y-0002007D01*
X0039263Y-000223D01*
X0039537Y-0002388D01*
X0039842Y-000247D01*
X0039875D01*
Y-0001395D01*
D02*
G37*
G36*
X-003751Y-0001632D02*
X-0037679D01*
X-0037835Y-0001697D01*
X-0037955Y-0001816D01*
X-003802Y-0001972D01*
Y-0002142D01*
X-0037955Y-0002298D01*
X-0037835Y-0002417D01*
X-0037679Y-0002482D01*
X-003751D01*
X-0037354Y-0002417D01*
X-0037234Y-0002298D01*
X-003717Y-0002142D01*
Y-0001972D01*
X-0037234Y-0001816D01*
X-0037354Y-0001697D01*
X-003751Y-0001632D01*
D02*
G37*
G36*
X-0043785Y-0001824D02*
X-0043954D01*
X-004411Y-0001889D01*
X-004423Y-0002009D01*
X-0044295Y-0002165D01*
Y-0002334D01*
X-004423Y-000249D01*
X-004411Y-000261D01*
X-0043954Y-0002674D01*
X-0043785D01*
X-0043629Y-000261D01*
X-0043509Y-000249D01*
X-0043445Y-0002334D01*
Y-0002165D01*
X-0043509Y-0002009D01*
X-0043629Y-0001889D01*
X-0043785Y-0001824D01*
D02*
G37*
G36*
X-0024015Y-0001875D02*
X-0024185D01*
X-0024341Y-000194D01*
X-002446Y-0002059D01*
X-0024525Y-0002215D01*
Y-0002385D01*
X-002446Y-0002541D01*
X-0024341Y-000266D01*
X-0024185Y-0002725D01*
X-0024015D01*
X-0023859Y-000266D01*
X-002374Y-0002541D01*
X-0023675Y-0002385D01*
Y-0002215D01*
X-002374Y-0002059D01*
X-0023859Y-000194D01*
X-0024015Y-0001875D01*
D02*
G37*
G36*
X-0028015D02*
X-0028185D01*
X-0028341Y-000194D01*
X-002846Y-0002059D01*
X-0028525Y-0002215D01*
Y-0002385D01*
X-002846Y-0002541D01*
X-0028341Y-000266D01*
X-0028185Y-0002725D01*
X-0028015D01*
X-0027859Y-000266D01*
X-002774Y-0002541D01*
X-0027675Y-0002385D01*
Y-0002215D01*
X-002774Y-0002059D01*
X-0027859Y-000194D01*
X-0028015Y-0001875D01*
D02*
G37*
G36*
X-0030665Y-000205D02*
X-0030835D01*
X-0030991Y-0002115D01*
X-003111Y-0002234D01*
X-0031175Y-000239D01*
Y-000256D01*
X-003111Y-0002716D01*
X-0030991Y-0002835D01*
X-0030835Y-00029D01*
X-0030665D01*
X-0030509Y-0002835D01*
X-003039Y-0002716D01*
X-0030325Y-000256D01*
Y-000239D01*
X-003039Y-0002234D01*
X-0030509Y-0002115D01*
X-0030665Y-000205D01*
D02*
G37*
G36*
X-0038715Y-0002342D02*
X-0038885D01*
X-0039041Y-0002407D01*
X-003916Y-0002526D01*
X-0039225Y-0002683D01*
Y-0002852D01*
X-003916Y-0003008D01*
X-0039041Y-0003128D01*
X-0038885Y-0003192D01*
X-0038715D01*
X-0038559Y-0003128D01*
X-003844Y-0003008D01*
X-0038375Y-0002852D01*
Y-0002683D01*
X-003844Y-0002526D01*
X-0038559Y-0002407D01*
X-0038715Y-0002342D01*
D02*
G37*
G36*
X-0039915Y-0002625D02*
X-0040085D01*
X-0040241Y-000269D01*
X-004036Y-0002809D01*
X-0040425Y-0002965D01*
Y-0003135D01*
X-004036Y-0003291D01*
X-0040241Y-000341D01*
X-0040085Y-0003475D01*
X-0039915D01*
X-0039759Y-000341D01*
X-003964Y-0003291D01*
X-0039575Y-0003135D01*
Y-0002965D01*
X-003964Y-0002809D01*
X-0039759Y-000269D01*
X-0039915Y-0002625D01*
D02*
G37*
G36*
X-0026661Y-0002729D02*
X-0026831D01*
X-0026987Y-0002794D01*
X-0027106Y-0002913D01*
X-0027171Y-0003069D01*
Y-0003239D01*
X-0027106Y-0003395D01*
X-0026987Y-0003514D01*
X-0026831Y-0003579D01*
X-0026661D01*
X-0026505Y-0003514D01*
X-0026386Y-0003395D01*
X-0026321Y-0003239D01*
Y-0003069D01*
X-0026386Y-0002913D01*
X-0026505Y-0002794D01*
X-0026661Y-0002729D01*
D02*
G37*
G36*
X-0027815Y-0004275D02*
X-0027985D01*
X-0028141Y-000434D01*
X-0028169Y-0004368D01*
X-00283Y-0004438D01*
X-0028431Y-0004368D01*
X-0028459Y-000434D01*
X-0028615Y-0004275D01*
X-0028785D01*
X-0028941Y-000434D01*
X-002906Y-0004459D01*
X-0029125Y-0004615D01*
Y-0004785D01*
X-002906Y-0004941D01*
X-0028941Y-000506D01*
X-0028785Y-0005125D01*
X-0028615D01*
X-0028459Y-000506D01*
X-0028431Y-0005032D01*
X-00283Y-0004962D01*
X-0028169Y-0005032D01*
X-0028141Y-000506D01*
X-0027985Y-0005125D01*
X-0027977D01*
X-0027844Y-0005325D01*
X-002785Y-000534D01*
Y-000551D01*
X-0027785Y-0005666D01*
X-0027666Y-0005785D01*
X-002751Y-000585D01*
X-002734D01*
X-0027184Y-0005785D01*
X-0027065Y-0005666D01*
X-0027Y-000551D01*
Y-000534D01*
X-0027065Y-0005184D01*
X-0027184Y-0005065D01*
X-002734Y-0005D01*
X-0027348D01*
X-0027481Y-00048D01*
X-0027475Y-0004785D01*
Y-0004615D01*
X-002754Y-0004459D01*
X-0027659Y-000434D01*
X-0027815Y-0004275D01*
D02*
G37*
G36*
X-0038815Y-0003675D02*
X-0038985D01*
X-0039141Y-000374D01*
X-003926Y-0003859D01*
X-0039325Y-0004015D01*
Y-0004185D01*
X-003926Y-0004341D01*
X-0039141Y-000446D01*
X-0038985Y-0004525D01*
X-0038815D01*
X-0038659Y-000446D01*
X-003854Y-0004341D01*
X-0038475Y-0004185D01*
Y-0004015D01*
X-003854Y-0003859D01*
X-0038659Y-000374D01*
X-0038815Y-0003675D01*
D02*
G37*
G36*
X-002539Y-000375D02*
X-002556D01*
X-0025716Y-0003815D01*
X-0025835Y-0003934D01*
X-00259Y-000409D01*
Y-000426D01*
X-0025835Y-0004416D01*
X-0025716Y-0004535D01*
X-002556Y-00046D01*
X-002539D01*
X-0025234Y-0004535D01*
X-0025115Y-0004416D01*
X-002505Y-000426D01*
Y-000409D01*
X-0025115Y-0003934D01*
X-0025234Y-0003815D01*
X-002539Y-000375D01*
D02*
G37*
G36*
X-0026415Y-0004025D02*
X-0026585D01*
X-0026741Y-000409D01*
X-002686Y-0004209D01*
X-0026925Y-0004365D01*
Y-0004535D01*
X-002686Y-0004691D01*
X-0026741Y-000481D01*
X-0026585Y-0004875D01*
X-0026415D01*
X-0026259Y-000481D01*
X-002614Y-0004691D01*
X-0026075Y-0004535D01*
Y-0004365D01*
X-002614Y-0004209D01*
X-0026259Y-000409D01*
X-0026415Y-0004025D01*
D02*
G37*
G36*
X-0029915Y-0004275D02*
X-0030085D01*
X-0030241Y-000434D01*
X-003036Y-0004459D01*
X-0030425Y-0004615D01*
Y-0004785D01*
X-003036Y-0004941D01*
X-0030241Y-000506D01*
X-0030085Y-0005125D01*
X-0029915D01*
X-0029759Y-000506D01*
X-002964Y-0004941D01*
X-0029575Y-0004785D01*
Y-0004615D01*
X-002964Y-0004459D01*
X-0029759Y-000434D01*
X-0029915Y-0004275D01*
D02*
G37*
G36*
X-0031215D02*
X-0031385D01*
X-0031541Y-000434D01*
X-003166Y-0004459D01*
X-0031725Y-0004615D01*
Y-0004785D01*
X-003166Y-0004941D01*
X-0031541Y-000506D01*
X-0031385Y-0005125D01*
X-0031215D01*
X-0031059Y-000506D01*
X-003094Y-0004941D01*
X-0030875Y-0004785D01*
Y-0004615D01*
X-003094Y-0004459D01*
X-0031059Y-000434D01*
X-0031215Y-0004275D01*
D02*
G37*
G36*
X-0038315Y-0005425D02*
X-0038485D01*
X-0038641Y-000549D01*
X-0038644Y-0005493D01*
X-0038775Y-0005598D01*
X-0038906Y-0005493D01*
X-0038909Y-000549D01*
X-0039065Y-0005425D01*
X-0039235D01*
X-0039391Y-000549D01*
X-003951Y-0005609D01*
X-0039575Y-0005766D01*
Y-0005935D01*
X-003951Y-0006091D01*
X-0039507Y-0006094D01*
X-0039402Y-0006225D01*
X-0039507Y-0006356D01*
X-003951Y-0006359D01*
X-0039575Y-0006515D01*
Y-0006685D01*
X-003951Y-0006841D01*
X-0039391Y-000696D01*
X-0039235Y-0007025D01*
X-0039065D01*
X-0038909Y-000696D01*
X-0038906Y-0006957D01*
X-0038775Y-0006852D01*
X-0038644Y-0006957D01*
X-0038641Y-000696D01*
X-0038485Y-0007025D01*
X-0038315D01*
X-0038159Y-000696D01*
X-003804Y-0006841D01*
X-0037975Y-0006685D01*
Y-0006515D01*
X-003804Y-0006359D01*
X-0038043Y-0006356D01*
X-0038148Y-0006225D01*
X-0038043Y-0006094D01*
X-003804Y-0006091D01*
X-0037975Y-0005935D01*
Y-0005766D01*
X-003804Y-0005609D01*
X-0038159Y-000549D01*
X-0038315Y-0005425D01*
D02*
G37*
G36*
X002106Y-00033D02*
X002089D01*
X0020734Y-0003365D01*
X0020615Y-0003484D01*
X002055Y-0003641D01*
Y-000381D01*
X0020615Y-0003966D01*
X0020618Y-0003969D01*
X0020723Y-00041D01*
X0020618Y-0004231D01*
X0020615Y-0004234D01*
X002055Y-0004391D01*
Y-000456D01*
X0020615Y-0004716D01*
X0020618Y-0004719D01*
X0020723Y-000485D01*
X0020618Y-0004981D01*
X0020615Y-0004984D01*
X002055Y-000514D01*
Y-000531D01*
X0020615Y-0005466D01*
X0020734Y-0005585D01*
X002089Y-000565D01*
X002106D01*
X0021216Y-0005585D01*
X0021335Y-0005466D01*
X00214Y-000531D01*
Y-000514D01*
X0021335Y-0004984D01*
X0021332Y-0004981D01*
X0021227Y-000485D01*
X0021332Y-0004719D01*
X0021335Y-0004716D01*
X00214Y-000456D01*
Y-0004391D01*
X0021335Y-0004234D01*
X0021332Y-0004231D01*
X0021227Y-00041D01*
X0021332Y-0003969D01*
X0021335Y-0003966D01*
X00214Y-000381D01*
Y-0003641D01*
X0021335Y-0003484D01*
X0021216Y-0003365D01*
X002106Y-00033D01*
D02*
G37*
G36*
X000475Y0006158D02*
X000475Y0006158D01*
X0004652D01*
X0004612Y000615D01*
X0004572D01*
X0004379Y0006112D01*
X0004342Y0006096D01*
X0004302Y0006088D01*
X000412Y0006013D01*
X0004087Y0005991D01*
X000405Y0005975D01*
X0003886Y0005866D01*
X0003858Y0005837D01*
X0003824Y0005815D01*
X0003685Y0005676D01*
X0003663Y0005642D01*
X0003634Y0005614D01*
X0003525Y000545D01*
X0003509Y0005413D01*
X0003487Y000538D01*
X0003412Y0005198D01*
X0003404Y0005158D01*
X0003388Y0005121D01*
X000335Y0004928D01*
Y0004888D01*
X0003342Y0004848D01*
Y000475D01*
X0003342Y-000475D01*
X0003342Y-000475D01*
Y-0004848D01*
X000335Y-0004888D01*
Y-0004928D01*
X0003388Y-0005121D01*
X0003404Y-0005158D01*
X0003412Y-0005198D01*
X0003487Y-000538D01*
X0003509Y-0005413D01*
X0003525Y-000545D01*
X0003634Y-0005614D01*
X0003663Y-0005642D01*
X0003685Y-0005676D01*
X0003824Y-0005815D01*
X0003858Y-0005837D01*
X0003886Y-0005866D01*
X000405Y-0005975D01*
X0004087Y-0005991D01*
X000412Y-0006013D01*
X0004302Y-0006088D01*
X0004342Y-0006096D01*
X0004379Y-0006112D01*
X0004572Y-000615D01*
X0004612D01*
X0004652Y-0006158D01*
X0006848Y-0006158D01*
X0006888Y-000615D01*
X0006928D01*
X0007121Y-0006112D01*
X0007158Y-0006096D01*
X0007198Y-0006088D01*
X000738Y-0006013D01*
X0007413Y-0005991D01*
X000745Y-0005975D01*
X0007614Y-0005866D01*
X0007642Y-0005837D01*
X0007676Y-0005815D01*
X0007815Y-0005676D01*
X0007837Y-0005642D01*
X0007866Y-0005614D01*
X0007975Y-000545D01*
X0007991Y-0005413D01*
X0008013Y-000538D01*
X0008088Y-0005198D01*
X0008096Y-0005158D01*
X0008112Y-0005121D01*
X000815Y-0004928D01*
Y-0004888D01*
X0008158Y-0004848D01*
X0008158Y-000475D01*
X0008158Y000475D01*
X0008158Y000475D01*
Y0004848D01*
X000815Y0004888D01*
Y0004928D01*
X0008112Y0005121D01*
X0008096Y0005158D01*
X0008088Y0005198D01*
X0008013Y000538D01*
X0007991Y0005413D01*
X0007975Y000545D01*
X0007866Y0005614D01*
X0007837Y0005642D01*
X0007815Y0005676D01*
X0007676Y0005815D01*
X0007642Y0005837D01*
X0007614Y0005866D01*
X000745Y0005975D01*
X0007413Y0005991D01*
X000738Y0006013D01*
X0007198Y0006088D01*
X0007158Y0006096D01*
X0007121Y0006112D01*
X0006928Y000615D01*
X0006888D01*
X0006848Y0006158D01*
X000675D01*
X000475Y0006158D01*
D02*
G37*
G36*
X-004129Y-0005425D02*
X-004146D01*
X-0041616Y-000549D01*
X-0041735Y-0005609D01*
X-00418Y-0005765D01*
Y-0005935D01*
X-0041735Y-0006091D01*
X-0041616Y-000621D01*
X-004146Y-0006275D01*
X-004129D01*
X-0041134Y-000621D01*
X-0041015Y-0006091D01*
X-004095Y-0005935D01*
Y-0005765D01*
X-0041015Y-0005609D01*
X-0041134Y-000549D01*
X-004129Y-0005425D01*
D02*
G37*
G36*
X0036885Y-0006875D02*
X0036715D01*
X0036559Y-000694D01*
X003645Y-0007049D01*
X0036341Y-000694D01*
X0036185Y-0006875D01*
X0036015D01*
X0035859Y-000694D01*
X003575Y-0007049D01*
X0035641Y-000694D01*
X0035485Y-0006875D01*
X0035315D01*
X0035159Y-000694D01*
X003504Y-0007059D01*
X0034975Y-0007215D01*
Y-0007385D01*
X003504Y-0007541D01*
X0035133Y-0007634D01*
X0035148Y-000775D01*
X0035133Y-0007866D01*
X003504Y-0007959D01*
X0034975Y-0008115D01*
Y-0008285D01*
X003504Y-0008441D01*
X0035159Y-000856D01*
X0035315Y-0008625D01*
X0035485D01*
X0035641Y-000856D01*
X003575Y-0008451D01*
X0035859Y-000856D01*
X0036015Y-0008625D01*
X0036185D01*
X0036341Y-000856D01*
X003645Y-0008451D01*
X0036559Y-000856D01*
X0036715Y-0008625D01*
X0036885D01*
X0037041Y-000856D01*
X003716Y-0008441D01*
X0037225Y-0008285D01*
Y-0008115D01*
X003716Y-0007959D01*
X0037067Y-0007866D01*
X0037052Y-000775D01*
X0037067Y-0007634D01*
X003716Y-0007541D01*
X0037225Y-0007385D01*
Y-0007215D01*
X003716Y-0007059D01*
X0037041Y-000694D01*
X0036885Y-0006875D01*
D02*
G37*
G36*
X001092Y-0007149D02*
X0010751D01*
X0010594Y-0007213D01*
X0010591Y-0007217D01*
X001046Y-0007321D01*
X001033Y-0007217D01*
X0010326Y-0007213D01*
X001017Y-0007149D01*
X0010001D01*
X0009844Y-0007213D01*
X0009725Y-0007333D01*
X000966Y-0007489D01*
Y-0007658D01*
X0009725Y-0007814D01*
X0009729Y-0007818D01*
X0009833Y-0007949D01*
X0009729Y-0008079D01*
X0009725Y-0008083D01*
X000966Y-0008239D01*
Y-0008408D01*
X0009725Y-0008564D01*
X0009844Y-0008684D01*
X0010001Y-0008749D01*
X001017D01*
X0010326Y-0008684D01*
X001033Y-000868D01*
X001046Y-0008576D01*
X0010591Y-000868D01*
X0010594Y-0008684D01*
X0010751Y-0008749D01*
X001092D01*
X0011076Y-0008684D01*
X0011196Y-0008564D01*
X001126Y-0008408D01*
Y-0008239D01*
X0011196Y-0008083D01*
X0011192Y-0008079D01*
X0011088Y-0007949D01*
X0011192Y-0007818D01*
X0011196Y-0007814D01*
X001126Y-0007658D01*
Y-0007489D01*
X0011196Y-0007333D01*
X0011076Y-0007213D01*
X001092Y-0007149D01*
D02*
G37*
G36*
X-0023365Y-00093D02*
X-0023535D01*
X-0023691Y-0009365D01*
X-002381Y-0009484D01*
X-0023875Y-000964D01*
Y-000981D01*
X-002381Y-0009966D01*
X-0023691Y-0010085D01*
X-0023535Y-001015D01*
X-0023365D01*
X-0023209Y-0010085D01*
X-002309Y-0009966D01*
X-0023025Y-000981D01*
Y-000964D01*
X-002309Y-0009484D01*
X-0023209Y-0009365D01*
X-0023365Y-00093D01*
D02*
G37*
G36*
X-0020227Y-0009436D02*
X-0020396D01*
X-0020552Y-0009501D01*
X-0020671Y-000962D01*
X-0020736Y-0009777D01*
Y-0009946D01*
X-0020671Y-0010102D01*
X-0020552Y-0010221D01*
X-0020396Y-0010286D01*
X-0020227D01*
X-002007Y-0010221D01*
X-0019951Y-0010102D01*
X-0019886Y-0009946D01*
Y-0009777D01*
X-0019951Y-000962D01*
X-002007Y-0009501D01*
X-0020227Y-0009436D01*
D02*
G37*
G36*
X-002209Y-00107D02*
X-002226D01*
X-0022416Y-0010765D01*
X-0022535Y-0010884D01*
X-002272Y-00109D01*
X-002284Y-001085D01*
X-002301D01*
X-0023166Y-0010915D01*
X-0023285Y-0011034D01*
X-002335Y-001119D01*
Y-001136D01*
X-0023285Y-0011516D01*
X-0023166Y-0011635D01*
X-002301Y-00117D01*
X-002284D01*
X-0022684Y-0011635D01*
X-0022565Y-0011516D01*
X-002238Y-00115D01*
X-002226Y-001155D01*
X-002209D01*
X-0021934Y-0011485D01*
X-002181Y-0011616D01*
X-0021691Y-0011735D01*
X-0021535Y-00118D01*
X-0021365D01*
X-0021209Y-0011735D01*
X-002109Y-0011616D01*
X-0021025Y-001146D01*
Y-001129D01*
X-002109Y-0011134D01*
X-0021209Y-0011015D01*
X-0021365Y-001095D01*
X-0021535D01*
X-0021691Y-0011015D01*
X-0021815Y-0010884D01*
X-0021934Y-0010765D01*
X-002209Y-00107D01*
D02*
G37*
G36*
X-0038315Y-0010775D02*
X-0038485D01*
X-0038641Y-001084D01*
X-0038644Y-0010843D01*
X-0038775Y-0010948D01*
X-0038906Y-0010843D01*
X-0038909Y-001084D01*
X-0039065Y-0010775D01*
X-0039235D01*
X-0039391Y-001084D01*
X-003951Y-0010959D01*
X-0039575Y-0011115D01*
Y-0011285D01*
X-003951Y-0011441D01*
X-0039507Y-0011444D01*
X-0039402Y-0011575D01*
X-0039507Y-0011706D01*
X-003951Y-0011709D01*
X-0039575Y-0011865D01*
Y-0012035D01*
X-003951Y-0012191D01*
X-0039391Y-001231D01*
X-0039235Y-0012375D01*
X-0039065D01*
X-0038909Y-001231D01*
X-0038906Y-0012307D01*
X-0038775Y-0012202D01*
X-0038644Y-0012307D01*
X-0038641Y-001231D01*
X-0038485Y-0012375D01*
X-0038437D01*
X-0038307Y-0012571D01*
X-0038325Y-0012615D01*
Y-0012785D01*
X-003826Y-0012941D01*
X-0038141Y-001306D01*
X-0037985Y-0013125D01*
X-0037815D01*
X-0037659Y-001306D01*
X-003754Y-0012941D01*
X-0037475Y-0012785D01*
Y-0012615D01*
X-003754Y-0012459D01*
X-0037659Y-001234D01*
X-0037815Y-0012275D01*
X-0037863D01*
X-0037993Y-0012079D01*
X-0037975Y-0012035D01*
Y-0011865D01*
X-003804Y-0011709D01*
X-0038043Y-0011706D01*
X-0038148Y-0011575D01*
X-0038043Y-0011444D01*
X-003804Y-0011441D01*
X-0037975Y-0011285D01*
Y-0011115D01*
X-003804Y-0010959D01*
X-0038159Y-001084D01*
X-0038315Y-0010775D01*
D02*
G37*
G36*
X-0024915Y-0010825D02*
X-0025085D01*
X-0025241Y-001089D01*
X-002536Y-0011009D01*
X-0025425Y-0011165D01*
Y-0011335D01*
X-002536Y-0011491D01*
X-0025241Y-001161D01*
X-0025085Y-0011675D01*
X-0024915D01*
X-0024759Y-001161D01*
X-002464Y-0011491D01*
X-0024575Y-0011335D01*
Y-0011165D01*
X-002464Y-0011009D01*
X-0024759Y-001089D01*
X-0024915Y-0010825D01*
D02*
G37*
G36*
X0033585Y-0012375D02*
X0033415D01*
X0033259Y-001244D01*
X003314Y-0012559D01*
X0033108Y-0012635D01*
X0032892D01*
X003286Y-0012559D01*
X0032741Y-001244D01*
X0032585Y-0012375D01*
X0032415D01*
X0032259Y-001244D01*
X003214Y-0012559D01*
X0032075Y-0012715D01*
Y-0012885D01*
X003214Y-0013041D01*
X0032259Y-001316D01*
X0032415Y-0013225D01*
X0032437D01*
X0032575Y-0013415D01*
Y-0013585D01*
X003264Y-0013741D01*
X0032759Y-001386D01*
X0032915Y-0013925D01*
X0033085D01*
X0033241Y-001386D01*
X003336Y-0013741D01*
X0033425Y-0013585D01*
Y-0013415D01*
X0033563Y-0013225D01*
X0033585D01*
X0033741Y-001316D01*
X003386Y-0013041D01*
X0033925Y-0012885D01*
Y-0012715D01*
X003386Y-0012559D01*
X0033741Y-001244D01*
X0033585Y-0012375D01*
D02*
G37*
G36*
X002666Y-0013D02*
X002649D01*
X0026334Y-0013065D01*
X0026225Y-0013174D01*
X0026116Y-0013065D01*
X002596Y-0013D01*
X002579D01*
X0025634Y-0013065D01*
X0025525Y-0013174D01*
X0025416Y-0013065D01*
X002526Y-0013D01*
X002509D01*
X0024934Y-0013065D01*
X0024815Y-0013184D01*
X002475Y-001334D01*
Y-001351D01*
X0024815Y-0013666D01*
X0024934Y-0013785D01*
X002509Y-001385D01*
X002526D01*
X0025416Y-0013785D01*
X0025525Y-0013676D01*
X0025634Y-0013785D01*
X002579Y-001385D01*
X002596D01*
X0026116Y-0013785D01*
X0026225Y-0013676D01*
X0026334Y-0013785D01*
X002649Y-001385D01*
X002666D01*
X0026816Y-0013785D01*
X0026935Y-0013666D01*
X0027Y-001351D01*
Y-001334D01*
X0026935Y-0013184D01*
X0026816Y-0013065D01*
X002666Y-0013D01*
D02*
G37*
G36*
X-000934Y-001235D02*
X-000951D01*
X-0009666Y-0012415D01*
X-0009785Y-0012534D01*
X-000985Y-001269D01*
Y-001286D01*
X-0009785Y-0013016D01*
X-0009666Y-0013135D01*
X-000951Y-00132D01*
X-000934D01*
X-0009184Y-0013135D01*
X-0009065Y-0013016D01*
X-0009Y-001286D01*
Y-001269D01*
X-0009065Y-0012534D01*
X-0009184Y-0012415D01*
X-000934Y-001235D01*
D02*
G37*
G36*
X-0007365Y-0011826D02*
X-0007535D01*
X-0007691Y-001189D01*
X-000781Y-001201D01*
X-0007875Y-0012166D01*
Y-0012335D01*
X-000781Y-0012491D01*
X-0007691Y-0012611D01*
X-0007636Y-0012784D01*
X-0007654Y-0012826D01*
X-0007701Y-001294D01*
Y-0013109D01*
X-0007636Y-0013265D01*
X-0007516Y-0013385D01*
X-000736Y-0013449D01*
X-0007191D01*
X-0007035Y-0013385D01*
X-0006915Y-0013265D01*
X-0006851Y-0013109D01*
Y-001294D01*
X-0006915Y-0012784D01*
X-0007035Y-0012664D01*
X-000709Y-0012491D01*
X-0007072Y-0012449D01*
X-0007025Y-0012335D01*
Y-0012166D01*
X-000709Y-001201D01*
X-0007209Y-001189D01*
X-0007365Y-0011826D01*
D02*
G37*
G36*
X0014082Y-0013511D02*
X0013913D01*
X0013757Y-0013576D01*
X0013753Y-001358D01*
X0013623Y-0013684D01*
X0013492Y-001358D01*
X0013488Y-0013576D01*
X0013332Y-0013511D01*
X0013163D01*
X0013007Y-0013576D01*
X0012887Y-0013696D01*
X0012823Y-0013852D01*
Y-0014021D01*
X0012887Y-0014177D01*
X0012891Y-0014181D01*
X0012995Y-0014311D01*
X0012891Y-0014442D01*
X0012887Y-0014446D01*
X0012823Y-0014602D01*
Y-0014771D01*
X0012887Y-0014927D01*
X0013007Y-0015047D01*
X0013163Y-0015111D01*
X0013332D01*
X0013488Y-0015047D01*
X0013492Y-0015043D01*
X0013623Y-0014939D01*
X0013753Y-0015043D01*
X0013757Y-0015047D01*
X0013913Y-0015111D01*
X0014082D01*
X0014238Y-0015047D01*
X0014358Y-0014927D01*
X0014423Y-0014771D01*
Y-0014602D01*
X0014358Y-0014446D01*
X0014354Y-0014442D01*
X001425Y-0014311D01*
X0014354Y-0014181D01*
X0014358Y-0014177D01*
X0014423Y-0014021D01*
Y-0013852D01*
X0014358Y-0013696D01*
X0014238Y-0013576D01*
X0014082Y-0013511D01*
D02*
G37*
G36*
X-002054Y-00144D02*
X-002071D01*
X-0020866Y-0014465D01*
X-0020985Y-0014584D01*
X-002105Y-001474D01*
Y-001491D01*
X-0021028Y-0014963D01*
X-002116Y-001507D01*
X-0021193Y-0015086D01*
X-002134Y-0015025D01*
X-002151D01*
X-0021666Y-001509D01*
X-0021707Y-0015131D01*
X-0021815Y-0015109D01*
X-0021934Y-001499D01*
X-002209Y-0014925D01*
X-002226D01*
X-0022416Y-001499D01*
X-0022535Y-0015109D01*
X-00226Y-0015265D01*
Y-0015435D01*
X-0022535Y-0015591D01*
X-0022416Y-001571D01*
X-0022394Y-0015818D01*
X-0022435Y-0015859D01*
X-00225Y-0016015D01*
Y-0016185D01*
X-0022435Y-0016341D01*
X-0022316Y-001646D01*
X-002216Y-0016525D01*
X-002199D01*
X-0021834Y-001646D01*
X-0021715Y-0016341D01*
X-002165Y-0016185D01*
Y-0016033D01*
X-0021576Y-0015949D01*
X-0021492Y-0015875D01*
X-002134D01*
X-0021184Y-001581D01*
X-0021065Y-0015691D01*
X-0021Y-0015535D01*
Y-0015365D01*
X-0021022Y-0015312D01*
X-002089Y-0015205D01*
X-0020857Y-0015189D01*
X-002071Y-001525D01*
X-002054D01*
X-0020384Y-0015185D01*
X-0020265Y-0015066D01*
X-00202Y-001491D01*
Y-001474D01*
X-0020265Y-0014584D01*
X-0020384Y-0014465D01*
X-002054Y-00144D01*
D02*
G37*
G36*
X-003779Y-00143D02*
X-003796D01*
X-0038116Y-0014365D01*
X-0038235Y-0014484D01*
X-00383Y-001464D01*
Y-001481D01*
X-0038235Y-0014966D01*
X-0038116Y-0015085D01*
X-003796Y-001515D01*
X-003779D01*
X-0037634Y-0015085D01*
X-0037515Y-0014966D01*
X-003745Y-001481D01*
Y-001464D01*
X-0037515Y-0014484D01*
X-0037634Y-0014365D01*
X-003779Y-00143D01*
D02*
G37*
G36*
X003916Y-0012375D02*
X003884D01*
X0038526Y-0012437D01*
X003823Y-001256D01*
X0037964Y-0012738D01*
X0037738Y-0012964D01*
X003756Y-001323D01*
X0037437Y-0013526D01*
X0037375Y-001384D01*
Y-001416D01*
X0037437Y-0014474D01*
X003756Y-001477D01*
X0037738Y-0015036D01*
X0037964Y-0015262D01*
X003823Y-001544D01*
X0038526Y-0015563D01*
X003884Y-0015625D01*
X003916D01*
X0039474Y-0015563D01*
X003977Y-001544D01*
X0040036Y-0015262D01*
X0040262Y-0015036D01*
X004044Y-001477D01*
X0040563Y-0014474D01*
X0040625Y-001416D01*
Y-001384D01*
X0040563Y-0013526D01*
X004044Y-001323D01*
X0040262Y-0012964D01*
X0040036Y-0012738D01*
X003977Y-001256D01*
X0039474Y-0012437D01*
X003916Y-0012375D01*
D02*
G37*
G36*
X-0007315Y-001475D02*
X-0007485D01*
X-0007641Y-0014815D01*
X-000776Y-0014934D01*
X-0007825Y-001509D01*
Y-001526D01*
X-000776Y-0015416D01*
X-0007641Y-0015535D01*
X-0007507Y-0015591D01*
X-0007338Y-0015703D01*
Y-0015872D01*
X-0007273Y-0016028D01*
X-0007153Y-0016148D01*
X-0006997Y-0016212D01*
X-0006828D01*
X-0006672Y-0016148D01*
X-0006552Y-0016028D01*
X-0006488Y-0015872D01*
Y-0015703D01*
X-0006552Y-0015547D01*
X-0006672Y-0015427D01*
X-0006805Y-0015372D01*
X-0006975Y-001526D01*
Y-001509D01*
X-000704Y-0014934D01*
X-0007159Y-0014815D01*
X-0007315Y-001475D01*
D02*
G37*
G36*
X-0024665Y-0014975D02*
X-0024835D01*
X-0024991Y-001504D01*
X-002511Y-0015159D01*
X-0025175Y-0015315D01*
Y-0015485D01*
X-002511Y-0015641D01*
X-0024991Y-001576D01*
X-0024835Y-0015825D01*
X-0024665D01*
X-0024621Y-0015807D01*
X-0024425Y-0015937D01*
Y-0015985D01*
X-002436Y-0016141D01*
X-0024241Y-001626D01*
X-0024085Y-0016325D01*
X-0023915D01*
X-0023759Y-001626D01*
X-002364Y-0016141D01*
X-0023575Y-0015985D01*
Y-0015815D01*
X-002364Y-0015659D01*
X-0023759Y-001554D01*
X-0023915Y-0015475D01*
X-0024085D01*
X-0024129Y-0015493D01*
X-0024325Y-0015363D01*
Y-0015315D01*
X-002439Y-0015159D01*
X-0024509Y-001504D01*
X-0024665Y-0014975D01*
D02*
G37*
G36*
X-0009085Y-001565D02*
X-0009254D01*
X-000941Y-0015715D01*
X-000953Y-0015834D01*
X-0009595Y-001599D01*
Y-001616D01*
X-000953Y-0016316D01*
X-0009526Y-0016319D01*
X-0009422Y-001645D01*
X-0009526Y-0016581D01*
X-000953Y-0016584D01*
X-0009595Y-001674D01*
Y-001691D01*
X-000953Y-0017066D01*
X-000941Y-0017185D01*
X-0009254Y-001725D01*
X-0009085D01*
X-0008929Y-0017185D01*
X-0008809Y-0017066D01*
X-0008745Y-001691D01*
Y-001674D01*
X-0008809Y-0016584D01*
X-0008813Y-0016581D01*
X-0008917Y-001645D01*
X-0008813Y-0016319D01*
X-0008809Y-0016316D01*
X-0008745Y-001616D01*
Y-001599D01*
X-0008809Y-0015834D01*
X-0008929Y-0015715D01*
X-0009085Y-001565D01*
D02*
G37*
G36*
X001446Y-0017875D02*
X001429D01*
X0014134Y-001794D01*
X0014015Y-0018059D01*
X001395Y-0018215D01*
Y-0018385D01*
X0014015Y-0018541D01*
X0014134Y-001866D01*
X001429Y-0018725D01*
X001446D01*
X0014616Y-001866D01*
X0014735Y-0018541D01*
X00148Y-0018385D01*
Y-0018215D01*
X0014735Y-0018059D01*
X0014616Y-001794D01*
X001446Y-0017875D01*
D02*
G37*
G36*
X-0030025Y-0017D02*
X-0035025D01*
Y-0019D01*
X-0030025D01*
Y-0017D01*
D02*
G37*
G36*
X0030985Y-0018875D02*
X0030815D01*
X0030659Y-001894D01*
X003055Y-0019049D01*
X0030441Y-001894D01*
X0030285Y-0018875D01*
X0030115D01*
X0029959Y-001894D01*
X002985Y-0019049D01*
X0029741Y-001894D01*
X0029585Y-0018875D01*
X0029415D01*
X0029259Y-001894D01*
X002914Y-0019059D01*
X0029075Y-0019215D01*
Y-0019385D01*
X002914Y-0019541D01*
X0029259Y-001966D01*
X0029415Y-0019725D01*
X0029585D01*
X0029741Y-001966D01*
X002985Y-0019551D01*
X0029959Y-001966D01*
X0030115Y-0019725D01*
X0030285D01*
X0030441Y-001966D01*
X003055Y-0019551D01*
X0030659Y-001966D01*
X0030815Y-0019725D01*
X0030985D01*
X0031141Y-001966D01*
X003126Y-0019541D01*
X0031325Y-0019385D01*
Y-0019215D01*
X003126Y-0019059D01*
X0031141Y-001894D01*
X0030985Y-0018875D01*
D02*
G37*
G36*
X-001499Y-001875D02*
X-001516D01*
X-0015316Y-0018815D01*
X-0015435Y-0018934D01*
X-00155Y-001909D01*
Y-001926D01*
X-0015435Y-0019416D01*
X-0015316Y-0019535D01*
X-001516Y-00196D01*
X-001499D01*
X-0014834Y-0019535D01*
X-0014715Y-0019416D01*
X-001465Y-001926D01*
Y-001909D01*
X-0014715Y-0018934D01*
X-0014834Y-0018815D01*
X-001499Y-001875D01*
D02*
G37*
G36*
X-001239Y-0018751D02*
X-0012559D01*
X-0012715Y-0018815D01*
X-0012835Y-0018935D01*
X-0012899Y-0019091D01*
Y-001926D01*
X-0012835Y-0019417D01*
X-0012715Y-0019536D01*
X-0012559Y-0019601D01*
X-001239D01*
X-0012234Y-0019536D01*
X-0012114Y-0019417D01*
X-0012049Y-001926D01*
Y-0019091D01*
X-0012114Y-0018935D01*
X-0012234Y-0018815D01*
X-001239Y-0018751D01*
D02*
G37*
G36*
X0018735Y-00189D02*
X0018565D01*
X0018409Y-0018965D01*
X001829Y-0019084D01*
X0018225Y-001924D01*
Y-001941D01*
X001829Y-0019566D01*
X0018409Y-0019685D01*
X0018565Y-001975D01*
X0018735D01*
X0018891Y-0019685D01*
X001901Y-0019566D01*
X0019075Y-001941D01*
Y-001924D01*
X001901Y-0019084D01*
X0018891Y-0018965D01*
X0018735Y-00189D01*
D02*
G37*
G36*
X0037923Y-0018248D02*
X0037693D01*
X003747Y-0018307D01*
X0037271Y-0018423D01*
X0037108Y-0018586D01*
X0036993Y-0018785D01*
X0036933Y-0019008D01*
Y-0019238D01*
X0036993Y-0019461D01*
X0037108Y-001966D01*
X0037271Y-0019823D01*
X003747Y-0019938D01*
X0037693Y-0019998D01*
X0037923D01*
X0038146Y-0019938D01*
X0038345Y-0019823D01*
X0038508Y-001966D01*
X0038624Y-0019461D01*
X0038683Y-0019238D01*
Y-0019008D01*
X0038624Y-0018785D01*
X0038508Y-0018586D01*
X0038345Y-0018423D01*
X0038146Y-0018307D01*
X0037923Y-0018248D01*
D02*
G37*
G36*
X-0009415Y-0019341D02*
X-0009585D01*
X-0009741Y-0019405D01*
X-000986Y-0019525D01*
X-0009925Y-0019681D01*
Y-001985D01*
X-000986Y-0020006D01*
X-0009741Y-0020126D01*
X-0009585Y-0020191D01*
X-0009415D01*
X-0009259Y-0020126D01*
X-000914Y-0020006D01*
X-0009075Y-001985D01*
Y-0019681D01*
X-000914Y-0019525D01*
X-0009259Y-0019405D01*
X-0009415Y-0019341D01*
D02*
G37*
G36*
X-0027Y-002075D02*
X-0027Y-002075D01*
X-0027098Y-002075D01*
X-0027292Y-0020788D01*
X-0027474Y-0020864D01*
X-0027637Y-0020973D01*
X-0027777Y-0021113D01*
X-0027886Y-0021276D01*
X-0027962Y-0021458D01*
X-0028Y-0021652D01*
X-0028Y-002175D01*
Y-002675D01*
Y-0026848D01*
X-0027962Y-0027042D01*
X-0027886Y-0027224D01*
X-0027777Y-0027387D01*
X-0027637Y-0027527D01*
X-0027474Y-0027636D01*
X-0027292Y-0027712D01*
X-0027098Y-002775D01*
X-00175D01*
X-0017402Y-002775D01*
X-0017208Y-0027712D01*
X-0017026Y-0027636D01*
X-0016863Y-0027527D01*
X-0016723Y-0027387D01*
X-0016614Y-0027224D01*
X-0016538Y-0027042D01*
X-00165Y-0026848D01*
X-00165Y-002675D01*
X-00165Y-002175D01*
X-00165Y-002175D01*
X-00165Y-002175D01*
X-00165Y-002175D01*
X-00165Y-0021652D01*
X-0016518Y-0021563D01*
X-0016538Y-0021458D01*
X-0016614Y-0021276D01*
X-0016723Y-0021113D01*
X-0016863Y-0020973D01*
X-0017026Y-0020864D01*
X-0017208Y-0020788D01*
X-0017402Y-002075D01*
X-00175Y-002075D01*
X-0027Y-002075D01*
D02*
G37*
G36*
X001501Y-0021025D02*
X001484D01*
X0014684Y-002109D01*
X0014565Y-0021209D01*
X00145Y-0021365D01*
Y-0021535D01*
X0014565Y-0021691D01*
X0014684Y-002181D01*
X001484Y-0021875D01*
X001501D01*
X0015166Y-002181D01*
X0015285Y-0021691D01*
X001535Y-0021535D01*
Y-0021365D01*
X0015285Y-0021209D01*
X0015166Y-002109D01*
X001501Y-0021025D01*
D02*
G37*
G36*
X0036615Y-0020425D02*
X0036385D01*
X0036162Y-0020485D01*
X0035963Y-00206D01*
X00358Y-0020763D01*
X0035685Y-0020962D01*
X0035625Y-0021185D01*
Y-0021415D01*
X0035685Y-0021638D01*
X00358Y-0021837D01*
X0035963Y-0022D01*
X0036162Y-0022115D01*
X0036385Y-0022175D01*
X0036615D01*
X0036838Y-0022115D01*
X0037037Y-0022D01*
X00372Y-0021837D01*
X0037315Y-0021638D01*
X0037375Y-0021415D01*
Y-0021185D01*
X0037315Y-0020962D01*
X00372Y-0020763D01*
X0037037Y-00206D01*
X0036838Y-0020485D01*
X0036615Y-0020425D01*
D02*
G37*
G36*
X-0006915Y-0022475D02*
X-0007085D01*
X-0007241Y-002254D01*
X-000736Y-0022659D01*
X-0007425Y-0022815D01*
Y-0022985D01*
X-000736Y-0023141D01*
X-0007241Y-002326D01*
X-0007085Y-0023325D01*
X-0006915D01*
X-0006759Y-002326D01*
X-000664Y-0023141D01*
X-0006575Y-0022985D01*
Y-0022815D01*
X-000664Y-0022659D01*
X-0006759Y-002254D01*
X-0006915Y-0022475D01*
D02*
G37*
G36*
X0035307Y-0022602D02*
X0035077D01*
X0034854Y-0022662D01*
X0034655Y-0022777D01*
X0034492Y-002294D01*
X0034376Y-0023139D01*
X0034317Y-0023362D01*
Y-0023592D01*
X0034376Y-0023815D01*
X0034492Y-0024014D01*
X0034655Y-0024177D01*
X0034854Y-0024293D01*
X0035077Y-0024352D01*
X0035307D01*
X003553Y-0024293D01*
X0035729Y-0024177D01*
X0035892Y-0024014D01*
X0036007Y-0023815D01*
X0036067Y-0023592D01*
Y-0023362D01*
X0036007Y-0023139D01*
X0035892Y-002294D01*
X0035729Y-0022777D01*
X003553Y-0022662D01*
X0035307Y-0022602D01*
D02*
G37*
G36*
X-0009015Y-0023575D02*
X-0009185D01*
X-0009341Y-002364D01*
X-000946Y-0023759D01*
X-0009525Y-0023915D01*
Y-0024085D01*
X-000946Y-0024241D01*
X-0009341Y-002436D01*
X-0009185Y-0024425D01*
X-0009015D01*
X-0008859Y-002436D01*
X-000874Y-0024241D01*
X-0008675Y-0024085D01*
Y-0023915D01*
X-000874Y-0023759D01*
X-0008859Y-002364D01*
X-0009015Y-0023575D01*
D02*
G37*
G36*
X-0011365Y-00246D02*
X-0011535D01*
X-0011691Y-0024665D01*
X-001181Y-0024784D01*
X-0011875Y-002494D01*
Y-002511D01*
X-001181Y-0025266D01*
X-0011691Y-0025385D01*
X-0011535Y-002545D01*
X-0011365D01*
X-0011209Y-0025385D01*
X-001109Y-0025266D01*
X-0011025Y-002511D01*
Y-002494D01*
X-001109Y-0024784D01*
X-0011209Y-0024665D01*
X-0011365Y-00246D01*
D02*
G37*
G36*
X0032285Y-0025525D02*
X0032115D01*
X0031959Y-002559D01*
X003185Y-0025699D01*
X0031741Y-002559D01*
X0031585Y-0025525D01*
X0031415D01*
X0031259Y-002559D01*
X003115Y-0025699D01*
X0031041Y-002559D01*
X0030885Y-0025525D01*
X0030715D01*
X0030559Y-002559D01*
X003044Y-0025709D01*
X0030375Y-0025865D01*
Y-0026035D01*
X003044Y-0026191D01*
X0030559Y-002631D01*
X0030715Y-0026375D01*
X0030885D01*
X0031041Y-002631D01*
X003115Y-0026201D01*
X0031259Y-002631D01*
X0031415Y-0026375D01*
X0031585D01*
X0031741Y-002631D01*
X003185Y-0026201D01*
X0031959Y-002631D01*
X0032115Y-0026375D01*
X0032285D01*
X0032441Y-002631D01*
X003256Y-0026191D01*
X0032625Y-0026035D01*
Y-0025865D01*
X003256Y-0025709D01*
X0032441Y-002559D01*
X0032285Y-0025525D01*
D02*
G37*
G36*
X-0014015Y-002555D02*
X-0014185D01*
X-0014341Y-0025615D01*
X-001446Y-0025734D01*
X-0014525Y-002589D01*
Y-002606D01*
X-001446Y-0026216D01*
X-0014341Y-0026335D01*
X-0014185Y-00264D01*
X-0014015D01*
X-0013859Y-0026335D01*
X-001374Y-0026216D01*
X-0013675Y-002606D01*
Y-002589D01*
X-001374Y-0025734D01*
X-0013859Y-0025615D01*
X-0014015Y-002555D01*
D02*
G37*
G36*
X-000604Y-0025925D02*
X-000621D01*
X-0006366Y-002599D01*
X-0006485Y-0026109D01*
X-000655Y-0026265D01*
Y-0026435D01*
X-0006485Y-0026591D01*
X-0006366Y-002671D01*
X-000621Y-0026775D01*
X-000604D01*
X-0005884Y-002671D01*
X-0005765Y-0026591D01*
X-00057Y-0026435D01*
Y-0026265D01*
X-0005765Y-0026109D01*
X-0005884Y-002599D01*
X-000604Y-0025925D01*
D02*
G37*
G36*
X-0001074Y-0021125D02*
X-0001526D01*
X-0001973Y-0021196D01*
X-0002404Y-0021336D01*
X-0002807Y-0021541D01*
X-0003173Y-0021807D01*
X-0003493Y-0022127D01*
X-0003759Y-0022493D01*
X-0003964Y-0022896D01*
X-0004104Y-0023327D01*
X-0004175Y-0023774D01*
Y-0024226D01*
X-0004104Y-0024673D01*
X-0003964Y-0025104D01*
X-0003759Y-0025507D01*
X-0003493Y-0025873D01*
X-0003173Y-0026193D01*
X-0002807Y-0026459D01*
X-0002404Y-0026664D01*
X-0001973Y-0026804D01*
X-0001526Y-0026875D01*
X-0001074D01*
X-0000627Y-0026804D01*
X-0000196Y-0026664D01*
X0000207Y-0026459D01*
X0000573Y-0026193D01*
X0000893Y-0025873D01*
X0001159Y-0025507D01*
X0001364Y-0025104D01*
X0001504Y-0024673D01*
X0001575Y-0024226D01*
Y-0023774D01*
X0001504Y-0023327D01*
X0001364Y-0022896D01*
X0001159Y-0022493D01*
X0000893Y-0022127D01*
X0000573Y-0021807D01*
X0000207Y-0021541D01*
X-0000196Y-0021336D01*
X-0000627Y-0021196D01*
X-0001074Y-0021125D01*
D02*
G37*
G36*
X-0034074D02*
X-0034526D01*
X-0034973Y-0021196D01*
X-0035404Y-0021336D01*
X-0035807Y-0021541D01*
X-0036173Y-0021807D01*
X-0036493Y-0022127D01*
X-0036759Y-0022493D01*
X-0036964Y-0022896D01*
X-0037104Y-0023327D01*
X-0037175Y-0023774D01*
Y-0024226D01*
X-0037104Y-0024673D01*
X-0036964Y-0025104D01*
X-0036759Y-0025507D01*
X-0036493Y-0025873D01*
X-0036173Y-0026193D01*
X-0035807Y-0026459D01*
X-0035404Y-0026664D01*
X-0034973Y-0026804D01*
X-0034526Y-0026875D01*
X-0034074D01*
X-0033627Y-0026804D01*
X-0033196Y-0026664D01*
X-0032793Y-0026459D01*
X-0032427Y-0026193D01*
X-0032107Y-0025873D01*
X-0031841Y-0025507D01*
X-0031636Y-0025104D01*
X-0031496Y-0024673D01*
X-0031425Y-0024226D01*
Y-0023774D01*
X-0031496Y-0023327D01*
X-0031636Y-0022896D01*
X-0031841Y-0022493D01*
X-0032107Y-0022127D01*
X-0032427Y-0021807D01*
X-0032793Y-0021541D01*
X-0033196Y-0021336D01*
X-0033627Y-0021196D01*
X-0034074Y-0021125D01*
D02*
G37*
G36*
X-0009092Y-0026724D02*
X-0009261D01*
X-0009417Y-0026789D01*
X-0009429Y-0026801D01*
X-0009543Y-0026905D01*
X-0009686Y-0026807D01*
X-0009842Y-0026742D01*
X-0010011D01*
X-0010167Y-0026807D01*
X-0010287Y-0026926D01*
X-0010351Y-0027082D01*
Y-0027251D01*
X-0010287Y-0027408D01*
X-0010167Y-0027527D01*
X-0010011Y-0027592D01*
X-0009842D01*
X-0009686Y-0027527D01*
X-0009673Y-0027515D01*
X-000956Y-0027412D01*
X-0009417Y-002751D01*
X-0009261Y-0027574D01*
X-0009092D01*
X-0008936Y-002751D01*
X-0008816Y-002739D01*
X-0008752Y-0027234D01*
Y-0027065D01*
X-0008816Y-0026909D01*
X-0008936Y-0026789D01*
X-0009092Y-0026724D01*
D02*
G37*
G36*
X-001289Y-0026575D02*
X-001306D01*
X-0013216Y-002664D01*
X-0013335Y-0026759D01*
X-00134Y-0026915D01*
Y-0027085D01*
X-0013335Y-0027241D01*
X-0013216Y-002736D01*
X-001306Y-0027425D01*
X-001289D01*
X-0012734Y-002736D01*
X-0012615Y-0027241D01*
X-001255Y-0027085D01*
Y-0026915D01*
X-0012615Y-0026759D01*
X-0012734Y-002664D01*
X-001289Y-0026575D01*
D02*
G37*
G36*
X-001809Y-002825D02*
X-001826D01*
X-0018416Y-0028315D01*
X-0018535Y-0028434D01*
X-00186Y-002859D01*
Y-002876D01*
X-0018535Y-0028916D01*
X-0018416Y-0029035D01*
X-001826Y-00291D01*
X-001809D01*
X-0017934Y-0029035D01*
X-0017815Y-0028916D01*
X-001775Y-002876D01*
Y-002859D01*
X-0017815Y-0028434D01*
X-0017934Y-0028315D01*
X-001809Y-002825D01*
D02*
G37*
G36*
X-0006065Y-0028825D02*
X-0006235D01*
X-0006391Y-002889D01*
X-000651Y-0029009D01*
X-0006575Y-0029165D01*
Y-0029335D01*
X-000651Y-0029491D01*
X-0006391Y-002961D01*
X-0006235Y-0029675D01*
X-0006065D01*
X-0005909Y-002961D01*
X-000579Y-0029491D01*
X-0005725Y-0029335D01*
Y-0029165D01*
X-000579Y-0029009D01*
X-0005909Y-002889D01*
X-0006065Y-0028825D01*
D02*
G37*
G36*
X-0015743Y-002895D02*
X-0015912D01*
X-0016069Y-0029015D01*
X-0016188Y-0029134D01*
X-0016253Y-002929D01*
Y-002946D01*
X-0016188Y-0029616D01*
X-0016069Y-0029735D01*
X-0015912Y-00298D01*
X-0015743D01*
X-0015587Y-0029735D01*
X-0015468Y-0029616D01*
X-0015403Y-002946D01*
Y-002929D01*
X-0015468Y-0029134D01*
X-0015587Y-0029015D01*
X-0015743Y-002895D01*
D02*
G37*
G36*
X-001229Y-002885D02*
X-001246D01*
X-0012616Y-0028915D01*
X-0012735Y-0029034D01*
X-00128Y-002919D01*
Y-002936D01*
X-0012735Y-0029516D01*
X-0012616Y-0029635D01*
X-001246Y-00297D01*
X-001229D01*
X-0012134Y-0029635D01*
X-0012024Y-0029753D01*
X-0011904Y-0029872D01*
X-0011748Y-0029937D01*
X-0011579D01*
X-0011423Y-0029872D01*
X-0011303Y-0029753D01*
X-0011238Y-0029597D01*
Y-0029428D01*
X-0011303Y-0029271D01*
X-0011423Y-0029152D01*
X-0011579Y-0029087D01*
X-0011748D01*
X-0011904Y-0029152D01*
X-0012015Y-0029034D01*
X-0012134Y-0028915D01*
X-001229Y-002885D01*
D02*
G37*
G36*
X-0021565Y-0028325D02*
X-0021735D01*
X-0021891Y-002839D01*
X-002201Y-0028509D01*
X-0022075Y-0028665D01*
Y-0028835D01*
X-002201Y-0028991D01*
X-0021891Y-002911D01*
X-0021735Y-0029175D01*
X-0021565D01*
X-0021409Y-002911D01*
X-0021185Y-0029141D01*
X-0021066Y-002926D01*
X-002091Y-0029325D01*
X-0020798D01*
X-0020657Y-0029478D01*
X-002065Y-002949D01*
Y-002966D01*
X-0020585Y-0029816D01*
X-0020466Y-0029935D01*
X-002031Y-003D01*
X-002014D01*
X-0019984Y-0029935D01*
X-0019865Y-0029816D01*
X-00198Y-002966D01*
Y-002949D01*
X-0019865Y-0029334D01*
X-0019984Y-0029215D01*
X-002014Y-002915D01*
X-0020252D01*
X-0020393Y-0028997D01*
X-00204Y-0028985D01*
Y-0028815D01*
X-0020465Y-0028659D01*
X-0020584Y-002854D01*
X-002074Y-0028475D01*
X-002091D01*
X-0021066Y-002854D01*
X-002129Y-0028509D01*
X-0021409Y-002839D01*
X-0021565Y-0028325D01*
D02*
G37*
G36*
X-001439Y-0029325D02*
X-001456D01*
X-0014716Y-002939D01*
X-0014835Y-0029509D01*
X-00149Y-0029665D01*
Y-0029835D01*
X-0014835Y-0029991D01*
X-0014716Y-003011D01*
X-001456Y-0030175D01*
X-001439D01*
X-0014234Y-003011D01*
X-0014115Y-0029991D01*
X-001405Y-0029835D01*
Y-0029665D01*
X-0014115Y-0029509D01*
X-0014234Y-002939D01*
X-001439Y-0029325D01*
D02*
G37*
G36*
X-0007615Y-0029275D02*
X-0007785D01*
X-0007941Y-002934D01*
X-000806Y-0029459D01*
X-0008125Y-0029615D01*
Y-0029785D01*
X-000806Y-0029941D01*
X-0008041Y-003014D01*
X-000816Y-0030259D01*
X-0008225Y-0030415D01*
Y-0030585D01*
X-000816Y-0030741D01*
X-0008041Y-003086D01*
X-0007885Y-0030925D01*
X-0007715D01*
X-0007559Y-003086D01*
X-000744Y-0030741D01*
X-0007375Y-0030585D01*
Y-0030415D01*
X-0007436Y-0030267D01*
X-000744Y-0030254D01*
X-0007459Y-003006D01*
X-000734Y-0029941D01*
X-0007275Y-0029785D01*
Y-0029615D01*
X-000734Y-0029459D01*
X-0007459Y-002934D01*
X-0007615Y-0029275D01*
D02*
G37*
G36*
X-0016415Y-0030125D02*
X-0016585D01*
X-0016741Y-003019D01*
X-001686Y-0030309D01*
X-0016925Y-0030465D01*
Y-0030635D01*
X-001686Y-0030791D01*
X-0016741Y-003091D01*
X-0016585Y-0030975D01*
X-0016415D01*
X-0016259Y-003091D01*
X-001614Y-0030791D01*
X-0016075Y-0030635D01*
Y-0030465D01*
X-001614Y-0030309D01*
X-0016259Y-003019D01*
X-0016415Y-0030125D01*
D02*
G37*
G36*
X-0019691Y-003026D02*
X-001986D01*
X-0020016Y-0030325D01*
X-0020136Y-0030444D01*
X-00202Y-00306D01*
Y-0030769D01*
X-0020136Y-0030926D01*
X-0020016Y-0031045D01*
X-001986Y-003111D01*
X-0019691D01*
X-0019535Y-0031045D01*
X-0019415Y-0030926D01*
X-001935Y-0030769D01*
Y-00306D01*
X-0019415Y-0030444D01*
X-0019535Y-0030325D01*
X-0019691Y-003026D01*
D02*
G37*
G36*
X-0021705Y-0031608D02*
X-0021874D01*
X-002203Y-0031673D01*
X-002215Y-0031792D01*
X-0022215Y-0031949D01*
Y-0032118D01*
X-002215Y-0032274D01*
X-002203Y-0032393D01*
X-0021874Y-0032458D01*
X-0021705D01*
X-0021549Y-0032393D01*
X-0021429Y-0032274D01*
X-0021365Y-0032118D01*
Y-0031949D01*
X-0021429Y-0031792D01*
X-0021549Y-0031673D01*
X-0021705Y-0031608D01*
D02*
G37*
G36*
X-002424Y-003075D02*
X-002441D01*
X-0024566Y-0030815D01*
X-0024685Y-0030934D01*
X-002475Y-003109D01*
Y-003126D01*
X-0024685Y-0031416D01*
X-0024566Y-0031535D01*
X-002441Y-00316D01*
X-0024369D01*
X-0024218Y-0031703D01*
X-00242Y-0031785D01*
Y-0031885D01*
X-0024135Y-0032041D01*
X-0024016Y-003216D01*
X-002386Y-0032225D01*
X-002371D01*
X-0023678Y-0032236D01*
X-0023525Y-0032373D01*
Y-003246D01*
X-002346Y-0032616D01*
X-0023341Y-0032735D01*
X-0023185Y-00328D01*
X-0023015D01*
X-0022859Y-0032735D01*
X-002274Y-0032616D01*
X-0022675Y-003246D01*
Y-003229D01*
X-002274Y-0032134D01*
X-0022859Y-0032015D01*
X-0023015Y-003195D01*
X-0023165D01*
X-0023197Y-0031939D01*
X-002335Y-0031802D01*
Y-0031715D01*
X-0023415Y-0031559D01*
X-0023534Y-003144D01*
X-002369Y-0031375D01*
X-0023731D01*
X-0023882Y-0031272D01*
X-00239Y-003119D01*
Y-003109D01*
X-0023965Y-0030934D01*
X-0024084Y-0030815D01*
X-002424Y-003075D01*
D02*
G37*
G36*
X-0003565Y-0032D02*
X-0003735D01*
X-0003891Y-0032065D01*
X-000401Y-0032184D01*
X-0004075Y-003234D01*
Y-003251D01*
X-000401Y-0032666D01*
X-0003891Y-0032785D01*
X-0003735Y-003285D01*
X-0003565D01*
X-0003409Y-0032785D01*
X-000329Y-0032666D01*
X-0003225Y-003251D01*
Y-003234D01*
X-000329Y-0032184D01*
X-0003409Y-0032065D01*
X-0003565Y-0032D01*
D02*
G37*
G36*
X-0005815D02*
X-0005985D01*
X-0006141Y-0032065D01*
X-000626Y-0032184D01*
X-0006325Y-003234D01*
Y-003251D01*
X-000626Y-0032666D01*
X-0006141Y-0032785D01*
X-0005985Y-003285D01*
X-0005815D01*
X-0005659Y-0032785D01*
X-000554Y-0032666D01*
X-0005475Y-003251D01*
Y-003234D01*
X-000554Y-0032184D01*
X-0005659Y-0032065D01*
X-0005815Y-0032D01*
D02*
G37*
G36*
X-0026693Y-0032312D02*
X-0027239Y-0032859D01*
X-0026693Y-0033406D01*
X-0026577Y-0033206D01*
X-0026516Y-0032977D01*
Y-003274D01*
X-0026577Y-0032512D01*
X-0026693Y-0032312D01*
D02*
G37*
G36*
X-0029085Y-0030341D02*
X-0029283D01*
X-0029473Y-0030392D01*
X-0029644Y-0030491D01*
X-0029784Y-0030631D01*
X-0029883Y-0030802D01*
X-0029934Y-0030992D01*
Y-003119D01*
X-0029883Y-0031381D01*
X-0029784Y-0031552D01*
X-0029644Y-0031691D01*
X-0029473Y-003179D01*
X-0029283Y-0031841D01*
X-0029241D01*
X-002908Y-0031871D01*
X-002905Y-0032032D01*
Y-0032074D01*
X-0028999Y-0032264D01*
X-00289Y-0032436D01*
X-0028761Y-0032575D01*
X-0028589Y-0032674D01*
X-0028399Y-0032725D01*
X-0028328D01*
X-0028316Y-003274D01*
Y-0032977D01*
X-0028255Y-0033206D01*
X-002814Y-0033406D01*
X-0027504Y-0032771D01*
X-0026869Y-0032135D01*
X-0027069Y-003202D01*
X-0027298Y-0031959D01*
X-0027535D01*
X-002755Y-0031947D01*
Y-0031876D01*
X-0027601Y-0031686D01*
X-00277Y-0031514D01*
X-0027839Y-0031375D01*
X-0028011Y-0031276D01*
X-0028201Y-0031225D01*
X-0028243D01*
X-0028404Y-0031195D01*
X-0028434Y-0031034D01*
Y-0030992D01*
X-0028485Y-0030802D01*
X-0028584Y-0030631D01*
X-0028723Y-0030491D01*
X-0028894Y-0030392D01*
X-0029085Y-0030341D01*
D02*
G37*
G36*
X-0027416Y-0033036D02*
X-0027963Y-0033582D01*
X-0027764Y-0033698D01*
X-0027535Y-0033759D01*
X-0027298D01*
X-0027069Y-0033698D01*
X-0026869Y-0033582D01*
X-0027416Y-0033036D01*
D02*
G37*
G36*
X0015685Y-0031875D02*
X0015515D01*
X0015359Y-003194D01*
X001524Y-0032059D01*
X0015175Y-0032215D01*
Y-0032385D01*
X001524Y-0032541D01*
X0015349Y-003265D01*
X001524Y-0032759D01*
X0015175Y-0032915D01*
Y-0033085D01*
X001524Y-0033241D01*
X0015349Y-003335D01*
X001524Y-0033459D01*
X0015175Y-0033615D01*
Y-0033785D01*
X001524Y-0033941D01*
X0015359Y-003406D01*
X0015515Y-0034125D01*
X0015685D01*
X0015841Y-003406D01*
X001596Y-0033941D01*
X0016025Y-0033785D01*
Y-0033615D01*
X001596Y-0033459D01*
X0015851Y-003335D01*
X001596Y-0033241D01*
X0016025Y-0033085D01*
Y-0032915D01*
X001596Y-0032759D01*
X0015851Y-003265D01*
X001596Y-0032541D01*
X0016025Y-0032385D01*
Y-0032215D01*
X001596Y-0032059D01*
X0015841Y-003194D01*
X0015685Y-0031875D01*
D02*
G37*
G36*
X-0008318Y-0033682D02*
X-0008488D01*
X-0008644Y-0033746D01*
X-0008763Y-0033866D01*
X-0008828Y-0034022D01*
Y-0034191D01*
X-0008763Y-0034348D01*
X-0008644Y-0034467D01*
X-0008488Y-0034532D01*
X-0008318D01*
X-0008162Y-0034467D01*
X-0008043Y-0034348D01*
X-0007978Y-0034191D01*
Y-0034022D01*
X-0008043Y-0033866D01*
X-0008162Y-0033746D01*
X-0008318Y-0033682D01*
D02*
G37*
G36*
X-0016915Y-0033775D02*
X-0017085D01*
X-0017241Y-003384D01*
X-001736Y-0033959D01*
X-0017425Y-0034115D01*
Y-0034285D01*
X-001736Y-0034441D01*
X-0017241Y-003456D01*
X-0017085Y-0034625D01*
X-0016915D01*
X-0016759Y-003456D01*
X-001664Y-0034441D01*
X-0016575Y-0034285D01*
Y-0034115D01*
X-001664Y-0033959D01*
X-0016759Y-003384D01*
X-0016915Y-0033775D01*
D02*
G37*
G36*
X-0001115Y-0034175D02*
X-0001285D01*
X-0001441Y-003424D01*
X-000156Y-0034359D01*
X-0001625Y-0034515D01*
Y-0034685D01*
X-000156Y-0034841D01*
X-0001441Y-003496D01*
X-0001285Y-0035025D01*
X-0001115D01*
X-0000959Y-003496D01*
X-000084Y-0034841D01*
X-0000775Y-0034685D01*
Y-0034515D01*
X-000084Y-0034359D01*
X-0000959Y-003424D01*
X-0001115Y-0034175D01*
D02*
G37*
G36*
X0008935Y-0033175D02*
X0008765D01*
X0008609Y-003324D01*
X000849Y-0033359D01*
X0008425Y-0033515D01*
Y-0033685D01*
X000849Y-0033841D01*
X0008599Y-003395D01*
X000849Y-0034059D01*
X0008425Y-0034215D01*
Y-0034385D01*
X000849Y-0034541D01*
X0008599Y-003465D01*
X000849Y-0034759D01*
X0008425Y-0034915D01*
Y-0035085D01*
X000849Y-0035241D01*
X0008609Y-003536D01*
X0008765Y-0035425D01*
X0008935D01*
X0009091Y-003536D01*
X000921Y-0035241D01*
X0009275Y-0035085D01*
Y-0034915D01*
X000921Y-0034759D01*
X0009101Y-003465D01*
X000921Y-0034541D01*
X0009275Y-0034385D01*
Y-0034215D01*
X000921Y-0034059D01*
X0009101Y-003395D01*
X000921Y-0033841D01*
X0009275Y-0033685D01*
Y-0033515D01*
X000921Y-0033359D01*
X0009091Y-003324D01*
X0008935Y-0033175D01*
D02*
G37*
G36*
X-0008015Y-0036475D02*
X-0008185D01*
X-0008341Y-003654D01*
X-0008399Y-0036598D01*
X-0008525Y-0036638D01*
X-0008651Y-0036598D01*
X-0008709Y-003654D01*
X-0008865Y-0036475D01*
X-0009035D01*
X-0009191Y-003654D01*
X-000931Y-0036659D01*
X-0009375Y-0036815D01*
Y-0036985D01*
X-000931Y-0037141D01*
X-0009191Y-003726D01*
X-0009035Y-0037325D01*
X-0008865D01*
X-0008709Y-003726D01*
X-0008651Y-0037202D01*
X-0008525Y-0037162D01*
X-0008399Y-0037202D01*
X-0008341Y-003726D01*
X-0008185Y-0037325D01*
X-0008015D01*
X-0007859Y-003726D01*
X-000774Y-0037141D01*
X-0007675Y-0036985D01*
Y-0036815D01*
X-000774Y-0036659D01*
X-0007859Y-003654D01*
X-0008015Y-0036475D01*
D02*
G37*
G36*
X-0021666Y-0036205D02*
X-0022109Y-0036838D01*
X-0021476Y-0037281D01*
X-0021397Y-0037065D01*
X-0021376Y-0036829D01*
X-0021417Y-0036596D01*
X-0021518Y-0036381D01*
X-0021666Y-0036205D01*
D02*
G37*
G36*
X-0024364Y-0034679D02*
X-0024558Y-0034713D01*
X-0024737Y-0034797D01*
X-0024889Y-0034924D01*
X-0025002Y-0035085D01*
X-002507Y-0035271D01*
X-0025087Y-0035468D01*
X-0025052Y-0035662D01*
X-0024969Y-0035841D01*
X-0024842Y-0035992D01*
X-002468Y-0036106D01*
X-0024495Y-0036173D01*
X-0024298Y-003619D01*
X-0024257Y-0036183D01*
X-0024093Y-0036184D01*
X-0024036Y-0036338D01*
X-0024029Y-0036379D01*
X-0023945Y-0036558D01*
X-0023818Y-0036709D01*
X-0023656Y-0036823D01*
X-0023471Y-003689D01*
X-0023274Y-0036907D01*
X-0023158Y-003709D01*
X-0023149Y-0037142D01*
X-0023049Y-0037356D01*
X-0022901Y-0037533D01*
X-0022385Y-0036797D01*
X-002187Y-0036061D01*
X-0022087Y-0035982D01*
X-0022323Y-0035962D01*
X-0022556Y-0036003D01*
X-0022583Y-003594D01*
X-0022586Y-0035924D01*
X-0022669Y-0035745D01*
X-0022796Y-0035594D01*
X-0022958Y-0035481D01*
X-0023143Y-0035413D01*
X-002334Y-0035396D01*
X-0023381Y-0035403D01*
X-0023545Y-0035402D01*
X-0023602Y-0035248D01*
X-002361Y-0035207D01*
X-0023693Y-0035028D01*
X-002382Y-0034877D01*
X-0023982Y-0034764D01*
X-0024167Y-0034696D01*
X-0024364Y-0034679D01*
D02*
G37*
G36*
X-0013515Y-0036875D02*
X-0013685D01*
X-0013841Y-003694D01*
X-001396Y-0037059D01*
X-0014025Y-0037215D01*
Y-0037385D01*
X-001396Y-0037541D01*
X-0013841Y-003766D01*
X-0013685Y-0037725D01*
X-0013515D01*
X-0013359Y-003766D01*
X-001324Y-0037541D01*
X-0013175Y-0037385D01*
Y-0037215D01*
X-001324Y-0037059D01*
X-0013359Y-003694D01*
X-0013515Y-0036875D01*
D02*
G37*
G36*
X-0022252Y-0037043D02*
X-0022696Y-0037676D01*
X-002248Y-0037755D01*
X-0022244Y-0037776D01*
X-002201Y-0037734D01*
X-0021795Y-0037634D01*
X-0021619Y-0037486D01*
X-0022252Y-0037043D01*
D02*
G37*
G36*
X0021874Y-0037047D02*
X0021626D01*
X0021396Y-0037142D01*
X002122Y-0037318D01*
X0021125Y-0037548D01*
Y-0037796D01*
X002122Y-0038026D01*
X0021396Y-0038202D01*
X0021626Y-0038297D01*
X0021874D01*
X0022104Y-0038202D01*
X002228Y-0038026D01*
X0022375Y-0037796D01*
Y-0037548D01*
X002228Y-0037318D01*
X0022104Y-0037142D01*
X0021874Y-0037047D01*
D02*
G37*
G36*
X-000114Y-003755D02*
X-000131D01*
X-0001466Y-0037615D01*
X-0001585Y-0037734D01*
X-000165Y-003789D01*
Y-003806D01*
X-0001585Y-0038216D01*
X-0001466Y-0038335D01*
X-000131Y-00384D01*
X-000114D01*
X-0000984Y-0038335D01*
X-0000865Y-0038216D01*
X-00008Y-003806D01*
Y-003789D01*
X-0000865Y-0037734D01*
X-0000984Y-0037615D01*
X-000114Y-003755D01*
D02*
G37*
G36*
X0019785Y-0037775D02*
X0019615D01*
X0019459Y-003784D01*
X001934Y-0037959D01*
X0019275Y-0038115D01*
Y-0038285D01*
X001934Y-0038441D01*
X0019459Y-003856D01*
X0019615Y-0038625D01*
X0019785D01*
X0019941Y-003856D01*
X002006Y-0038441D01*
X0020125Y-0038285D01*
Y-0038115D01*
X002006Y-0037959D01*
X0019941Y-003784D01*
X0019785Y-0037775D01*
D02*
G37*
G36*
X-0008015Y-0039425D02*
X-0008185D01*
X-0008341Y-003949D01*
X-0008399Y-0039548D01*
X-0008525Y-0039588D01*
X-0008651Y-0039548D01*
X-0008709Y-003949D01*
X-0008865Y-0039425D01*
X-0009035D01*
X-0009191Y-003949D01*
X-000931Y-0039609D01*
X-0009375Y-0039765D01*
Y-0039935D01*
X-000931Y-0040091D01*
X-0009191Y-004021D01*
X-0009035Y-0040275D01*
X-0008865D01*
X-0008709Y-004021D01*
X-0008651Y-0040152D01*
X-0008525Y-0040112D01*
X-0008399Y-0040152D01*
X-0008341Y-004021D01*
X-0008185Y-0040275D01*
X-0008015D01*
X-0007859Y-004021D01*
X-000774Y-0040091D01*
X-0007675Y-0039935D01*
Y-0039765D01*
X-000774Y-0039609D01*
X-0007859Y-003949D01*
X-0008015Y-0039425D01*
D02*
G37*
G36*
X0013569Y-0038468D02*
X0013338D01*
X0013116Y-0038527D01*
X0012916Y-0038642D01*
X0012753Y-0038805D01*
X0012638Y-0039005D01*
X0012578Y-0039227D01*
Y-0039458D01*
X0012638Y-003968D01*
X0012753Y-003988D01*
X0012916Y-0040043D01*
X0013116Y-0040158D01*
X0013338Y-0040218D01*
X0013569D01*
X0013791Y-0040158D01*
X0013991Y-0040043D01*
X0014154Y-003988D01*
X0014269Y-003968D01*
X0014328Y-0039458D01*
Y-0039227D01*
X0014269Y-0039005D01*
X0014154Y-0038805D01*
X0013991Y-0038642D01*
X0013791Y-0038527D01*
X0013569Y-0038468D01*
D02*
G37*
G36*
X0011115Y-0039125D02*
X0010885D01*
X0010662Y-0039185D01*
X0010463Y-00393D01*
X00103Y-0039463D01*
X0010185Y-0039662D01*
X0010125Y-0039885D01*
Y-0040115D01*
X0010185Y-0040338D01*
X00103Y-0040537D01*
X0010463Y-00407D01*
X0010662Y-0040815D01*
X0010885Y-0040875D01*
X0011115D01*
X0011338Y-0040815D01*
X0011537Y-00407D01*
X00117Y-0040537D01*
X0011815Y-0040338D01*
X0011875Y-0040115D01*
Y-0039885D01*
X0011815Y-0039662D01*
X00117Y-0039463D01*
X0011537Y-00393D01*
X0011338Y-0039185D01*
X0011115Y-0039125D01*
D02*
G37*
G36*
X0008662Y-0039782D02*
X0008431D01*
X0008209Y-0039842D01*
X0008009Y-0039957D01*
X0007846Y-004012D01*
X0007731Y-004032D01*
X0007672Y-0040542D01*
Y-0040773D01*
X0007731Y-0040995D01*
X0007846Y-0041195D01*
X0008009Y-0041358D01*
X0008209Y-0041473D01*
X0008431Y-0041532D01*
X0008662D01*
X0008884Y-0041473D01*
X0009084Y-0041358D01*
X0009247Y-0041195D01*
X0009362Y-0040995D01*
X0009422Y-0040773D01*
Y-0040542D01*
X0009362Y-004032D01*
X0009247Y-004012D01*
X0009084Y-0039957D01*
X0008884Y-0039842D01*
X0008662Y-0039782D01*
D02*
G37*
G36*
X-0001014Y-004095D02*
X-000106D01*
Y-0042125D01*
X0000115D01*
Y-0042079D01*
X0000026Y-0041748D01*
X-0000145Y-0041452D01*
X-0000387Y-004121D01*
X-0000683Y-0041039D01*
X-0001014Y-004095D01*
D02*
G37*
G36*
X-000131D02*
X-0001356D01*
X-0001687Y-0041039D01*
X-0001983Y-004121D01*
X-0002225Y-0041452D01*
X-0002396Y-0041748D01*
X-0002485Y-0042079D01*
Y-0042125D01*
X-000131D01*
Y-004095D01*
D02*
G37*
G36*
X000401Y-0041375D02*
X000378D01*
X0003557Y-0041435D01*
X0003358Y-004155D01*
X0003195Y-0041713D01*
X000308Y-0041912D01*
X000302Y-0042135D01*
Y-0042365D01*
X000308Y-0042588D01*
X0003195Y-0042787D01*
X0003358Y-004295D01*
X0003557Y-0043065D01*
X000378Y-0043125D01*
X000401D01*
X0004233Y-0043065D01*
X0004432Y-004295D01*
X0004595Y-0042787D01*
X000471Y-0042588D01*
X000477Y-0042365D01*
Y-0042135D01*
X000471Y-0041912D01*
X0004595Y-0041713D01*
X0004432Y-004155D01*
X0004233Y-0041435D01*
X000401Y-0041375D01*
D02*
G37*
G36*
X000147D02*
X000124D01*
X0001017Y-0041435D01*
X0000818Y-004155D01*
X0000655Y-0041713D01*
X000054Y-0041912D01*
X000048Y-0042135D01*
Y-0042365D01*
X000054Y-0042588D01*
X0000655Y-0042787D01*
X0000818Y-004295D01*
X0001017Y-0043065D01*
X000124Y-0043125D01*
X000147D01*
X0001693Y-0043065D01*
X0001892Y-004295D01*
X0002055Y-0042787D01*
X000217Y-0042588D01*
X000223Y-0042365D01*
Y-0042135D01*
X000217Y-0041912D01*
X0002055Y-0041713D01*
X0001892Y-004155D01*
X0001693Y-0041435D01*
X000147Y-0041375D01*
D02*
G37*
G36*
X-000361D02*
X-000384D01*
X-0004063Y-0041435D01*
X-0004262Y-004155D01*
X-0004425Y-0041713D01*
X-000454Y-0041912D01*
X-00046Y-0042135D01*
Y-0042365D01*
X-000454Y-0042588D01*
X-0004425Y-0042787D01*
X-0004262Y-004295D01*
X-0004063Y-0043065D01*
X-000384Y-0043125D01*
X-000361D01*
X-0003387Y-0043065D01*
X-0003188Y-004295D01*
X-0003025Y-0042787D01*
X-000291Y-0042588D01*
X-000285Y-0042365D01*
Y-0042135D01*
X-000291Y-0041912D01*
X-0003025Y-0041713D01*
X-0003188Y-004155D01*
X-0003387Y-0041435D01*
X-000361Y-0041375D01*
D02*
G37*
G36*
X-000615D02*
X-000638D01*
X-0006603Y-0041435D01*
X-0006802Y-004155D01*
X-0006965Y-0041713D01*
X-000708Y-0041912D01*
X-000714Y-0042135D01*
Y-0042365D01*
X-000708Y-0042588D01*
X-0006965Y-0042787D01*
X-0006802Y-004295D01*
X-0006603Y-0043065D01*
X-000638Y-0043125D01*
X-000615D01*
X-0005927Y-0043065D01*
X-0005728Y-004295D01*
X-0005565Y-0042787D01*
X-000545Y-0042588D01*
X-000539Y-0042365D01*
Y-0042135D01*
X-000545Y-0041912D01*
X-0005565Y-0041713D01*
X-0005728Y-004155D01*
X-0005927Y-0041435D01*
X-000615Y-0041375D01*
D02*
G37*
G36*
X0000115Y-0042375D02*
X-000106D01*
Y-004355D01*
X-0001014D01*
X-0000683Y-0043461D01*
X-0000387Y-004329D01*
X-0000145Y-0043048D01*
X0000026Y-0042752D01*
X0000115Y-0042421D01*
Y-0042375D01*
D02*
G37*
G36*
X-000131D02*
X-0002485D01*
Y-0042421D01*
X-0002396Y-0042752D01*
X-0002225Y-0043048D01*
X-0001983Y-004329D01*
X-0001687Y-0043461D01*
X-0001356Y-004355D01*
X-000131D01*
Y-0042375D01*
D02*
G37*
%LPD*%
D10*
X-0032692Y-00185D02*
X-0033358D01*
X-0032692Y-0017833D01*
Y-0017667D01*
X-0032858Y-00175D01*
X-0033192D01*
X-0033358Y-0017667D01*
D67*
X-0022283Y-0036869D02*
D03*
X-0027416Y-0032859D02*
D03*
D68*
X003358Y001423D02*
D03*
X-0001185Y-004225D02*
D03*
X003358Y002227D02*
D03*
Y001973D02*
D03*
D70*
X0010575Y001089D02*
D03*
X0003425D02*
D03*
D71*
X004225Y0D02*
D03*
D73*
X004Y-000127D02*
D03*
D81*
X0002275Y00007D02*
X000295D01*
Y00019D01*
Y-00005D02*
Y00007D01*
D88*
X-0041Y-00155D02*
D03*
X-0018Y-00312D02*
D03*
X-0014475Y-0027475D02*
D03*
X-0010174Y-0027988D02*
D03*
X-00008Y00061D02*
D03*
Y00049D02*
D03*
X000158Y00037D02*
D03*
X-00008D02*
D03*
Y-00119D02*
D03*
Y-00047D02*
D03*
Y-00059D02*
D03*
Y-00071D02*
D03*
Y-00083D02*
D03*
Y-00095D02*
D03*
Y-00107D02*
D03*
X000795Y-0011025D02*
D03*
X00066Y-0007975D02*
D03*
X-00348Y00073D02*
D03*
Y00061D02*
D03*
Y00049D02*
D03*
X-0041Y-00075D02*
D03*
X-004Y-00066D02*
D03*
X-0041Y-000845D02*
D03*
Y-00094D02*
D03*
Y-001035D02*
D03*
X-004Y-00112D02*
D03*
X-00348Y-00119D02*
D03*
Y-00011D02*
D03*
Y-00031D02*
D03*
Y-00043D02*
D03*
Y-00067D02*
D03*
X000795Y-001265D02*
D03*
X-004175Y-000845D02*
D03*
Y-00094D02*
D03*
X0007475Y-0006775D02*
D03*
X0029325Y-0011475D02*
D03*
X0028475Y-0007225D02*
D03*
X0030825Y-00124D02*
D03*
X0030225Y-00082D02*
D03*
X0002275Y00007D02*
D03*
X00022Y0003075D02*
D03*
Y-0001675D02*
D03*
X000295Y00019D02*
D03*
Y-00005D02*
D03*
X-00008Y-00004D02*
D03*
X-0003175Y0D02*
D03*
X-001Y00054D02*
D03*
Y00024D02*
D03*
X-00075Y00009D02*
D03*
X-0007Y00054D02*
D03*
X00031D02*
D03*
X00018D02*
D03*
X-00059Y00015D02*
D03*
X-00066Y00028D02*
D03*
X-00064Y00002D02*
D03*
X-0008175Y-0000775D02*
D03*
Y-0001725D02*
D03*
X-0009825Y-00118D02*
D03*
X-000985Y-00145D02*
D03*
X-001Y-00006D02*
D03*
Y-00036D02*
D03*
Y-00066D02*
D03*
X000295Y-00035D02*
D03*
Y-00065D02*
D03*
Y-00095D02*
D03*
X-00015Y-00163D02*
D03*
X-00045D02*
D03*
X-0003425Y-0005025D02*
D03*
X-0004075D02*
D03*
X-0031675Y000615D02*
D03*
X-00267Y000215D02*
D03*
X-00074Y-0009725D02*
D03*
X-0009025Y-0008425D02*
D03*
X-0018Y-00334D02*
D03*
X-00074D02*
D03*
X-00129Y-00385D02*
D03*
X-0030425Y-0010025D02*
D03*
X-00313Y-000645D02*
D03*
X-0025925Y-0011025D02*
D03*
X-000365Y-0034025D02*
D03*
X-00059D02*
D03*
X-0014312Y0038583D02*
D03*
X-0012578Y0041328D02*
D03*
X-0001938Y004219D02*
D03*
X-0002645Y0042897D02*
D03*
X0000572Y0039679D02*
D03*
X-0013287Y0032184D02*
D03*
X-0012227Y0031123D02*
D03*
X-0011237Y0029992D02*
D03*
X-0014984Y0041377D02*
D03*
X-0016328Y0040033D02*
D03*
X-0015349Y0031616D02*
D03*
X-0014702Y0027774D02*
D03*
X000445Y00423D02*
D03*
X0000537Y0032856D02*
D03*
X-0002934Y002972D02*
D03*
X-0000877Y0031442D02*
D03*
X-0015656Y0040705D02*
D03*
X0022214Y0026625D02*
D03*
Y002555D02*
D03*
X00181Y0019875D02*
D03*
X0016248Y0019865D02*
D03*
X00105Y0021175D02*
D03*
X0010114Y0026625D02*
D03*
Y002555D02*
D03*
X0021114D02*
D03*
Y0026625D02*
D03*
X0020014Y002555D02*
D03*
Y0026625D02*
D03*
Y0027725D02*
D03*
X0011214Y002555D02*
D03*
Y0026625D02*
D03*
X0012314Y002555D02*
D03*
Y0026625D02*
D03*
Y0027725D02*
D03*
X0013414Y002555D02*
D03*
X0018914D02*
D03*
X0017814D02*
D03*
X0016714D02*
D03*
X0014514D02*
D03*
X0015614D02*
D03*
X-0022875Y003565D02*
D03*
X-0022075Y003485D02*
D03*
X-0016975Y003485D02*
D03*
X-0016175Y003565D02*
D03*
X-0019875Y0035875D02*
D03*
X-0039323Y0005694D02*
D03*
X-0039323Y0010794D02*
D03*
X-004295Y00027D02*
D03*
X00211Y00366D02*
D03*
X-0042248Y0D02*
D03*
X00228Y-00369D02*
D03*
X00187Y-00363D02*
D03*
X001455Y00288D02*
D03*
X00178D02*
D03*
X0015614D02*
D03*
X0016714D02*
D03*
X0018914D02*
D03*
X0013414D02*
D03*
X0012314Y0028825D02*
D03*
X0020014D02*
D03*
X-00132Y0040925D02*
D03*
X-0007287Y00438D02*
D03*
X-00256Y00344D02*
D03*
X-00133Y00273D02*
D03*
X00204Y00233D02*
D03*
X-00165Y-0015D02*
D03*
Y-0009925D02*
D03*
X-0028Y-0012D02*
D03*
X-00285Y-002225D02*
D03*
Y-00255D02*
D03*
Y-0023875D02*
D03*
X-0016Y-002225D02*
D03*
Y-00255D02*
D03*
Y-0023875D02*
D03*
X-0018Y-002025D02*
D03*
X-00265D02*
D03*
X-0024375D02*
D03*
X-002225D02*
D03*
X-0020125D02*
D03*
X-002025Y-002825D02*
D03*
X004225Y0003D02*
D03*
Y-0003D02*
D03*
X004425Y0D02*
D03*
X00329Y-0003625D02*
D03*
Y-0002925D02*
D03*
Y-0004325D02*
D03*
X002815Y-0004325D02*
D03*
Y-0002925D02*
D03*
Y-0003625D02*
D03*
X0007305Y0036D02*
D03*
X0018Y00358D02*
D03*
X00141Y00342D02*
D03*
X0013Y00358D02*
D03*
X00091Y00341D02*
D03*
X00282Y0026725D02*
D03*
X00252D02*
D03*
X00071Y00255D02*
D03*
X00041D02*
D03*
X002365Y0032975D02*
D03*
X00097Y-0012475D02*
D03*
Y-00143D02*
D03*
X00138Y-000065D02*
D03*
X0023475Y-0003725D02*
D03*
Y-0005225D02*
D03*
Y-0004475D02*
D03*
X0003Y0007675D02*
D03*
X000365Y0007125D02*
D03*
X-0026Y-001565D02*
D03*
X00057Y00112D02*
D03*
X-00114Y-0024D02*
D03*
X-0007Y-00206D02*
D03*
X-00114Y-002225D02*
D03*
X-0008025Y-0019875D02*
D03*
X-00076Y-001725D02*
D03*
X-00008Y-00035D02*
D03*
X00125Y000675D02*
D03*
X00135D02*
D03*
X001455Y-000065D02*
D03*
X00153D02*
D03*
X-00348Y-00055D02*
D03*
Y00029D02*
D03*
Y000095D02*
D03*
X001725Y0015875D02*
D03*
X0042Y0008D02*
D03*
X-0035Y001D02*
D03*
X-003Y002D02*
D03*
X-002D02*
D03*
X-0005Y-003D02*
D03*
Y001D02*
D03*
X0015Y-001D02*
D03*
X001Y004D02*
D03*
X0025Y-001D02*
D03*
X002Y0D02*
D03*
X0035Y001D02*
D03*
X004Y002D02*
D03*
X00136Y-00087D02*
D03*
X-003Y0028D02*
D03*
X-0038Y002D02*
D03*
X0027Y0036D02*
D03*
X0033Y003D02*
D03*
X0037Y0025D02*
D03*
X0043Y0012D02*
D03*
X0044Y-0008D02*
D03*
X0042Y-0016D02*
D03*
X-0011Y-0043D02*
D03*
X-0033Y-0029D02*
D03*
X-0038Y-0022D02*
D03*
X-0043Y0008D02*
D03*
X-004Y0016D02*
D03*
X-0026Y0032D02*
D03*
X000225Y004425D02*
D03*
X-002325Y-00055D02*
D03*
X-00145Y000275D02*
D03*
X-00265Y00125D02*
D03*
X-000575Y0022D02*
D03*
X00316Y00035D02*
D03*
X00307D02*
D03*
X00298D02*
D03*
Y00027D02*
D03*
Y00019D02*
D03*
X00307D02*
D03*
Y00027D02*
D03*
X00316Y00019D02*
D03*
Y00027D02*
D03*
X00334D02*
D03*
Y00019D02*
D03*
Y00035D02*
D03*
X00343Y00027D02*
D03*
Y00035D02*
D03*
X00325D02*
D03*
Y00019D02*
D03*
Y00027D02*
D03*
X00289D02*
D03*
Y00019D02*
D03*
Y00035D02*
D03*
X00349Y00084D02*
D03*
X00288Y0008D02*
D03*
X0023314Y002555D02*
D03*
Y0026625D02*
D03*
X0009014Y002555D02*
D03*
Y0026625D02*
D03*
X0022225Y-0007553D02*
D03*
X-0008161Y0039503D02*
D03*
X-0003494Y0034836D02*
D03*
X-0005332Y0032997D02*
D03*
X-0009999Y0037664D02*
D03*
X-0006746Y0034412D02*
D03*
X-0008161Y0032997D02*
D03*
X-0004908Y003625D02*
D03*
X-0003494Y0037664D02*
D03*
X-0008603Y0036232D02*
D03*
X-0006746Y0038088D02*
D03*
X-0005332Y0039503D02*
D03*
X-0009999Y0034836D02*
D03*
X-0005827Y0037169D02*
D03*
X-0005827Y0035331D02*
D03*
X-0007666Y0035331D02*
D03*
Y0037169D02*
D03*
X-00127Y-00332D02*
D03*
Y-00347D02*
D03*
X-00142Y-00332D02*
D03*
X-00112Y-00332D02*
D03*
X-00127Y-00317D02*
D03*
X0018914Y0027725D02*
D03*
Y0026625D02*
D03*
X0017814Y0027725D02*
D03*
Y0026625D02*
D03*
X0016714Y0027725D02*
D03*
Y0026625D02*
D03*
X0015614Y0027725D02*
D03*
Y0026625D02*
D03*
X0014514Y0027725D02*
D03*
Y0026625D02*
D03*
X0013414Y0027725D02*
D03*
Y0026625D02*
D03*
X00322Y-0027D02*
D03*
X00315D02*
D03*
X00308D02*
D03*
X00309Y-001825D02*
D03*
X00302D02*
D03*
X00295D02*
D03*
X001665Y-00337D02*
D03*
Y-0033D02*
D03*
Y-00323D02*
D03*
X00078Y-00336D02*
D03*
Y-00343D02*
D03*
Y-0035D02*
D03*
X0021425Y-0013425D02*
D03*
X0020725D02*
D03*
X0020025D02*
D03*
X001865Y-0018325D02*
D03*
X0014575Y-00276D02*
D03*
Y-002645D02*
D03*
Y-002875D02*
D03*
X00124D02*
D03*
Y-002645D02*
D03*
X00124Y-00276D02*
D03*
X0010225Y-002875D02*
D03*
Y-002645D02*
D03*
Y-00276D02*
D03*
X0011312Y-0027025D02*
D03*
X0013488D02*
D03*
Y-0028175D02*
D03*
X0011312D02*
D03*
X0015663D02*
D03*
Y-0027025D02*
D03*
X001675Y-002875D02*
D03*
Y-002645D02*
D03*
Y-00276D02*
D03*
X0009137Y-0028175D02*
D03*
Y-0027025D02*
D03*
X000805Y-002875D02*
D03*
Y-002645D02*
D03*
Y-00276D02*
D03*
X00248Y-002675D02*
D03*
X002365D02*
D03*
X002595D02*
D03*
X0024225Y-0025663D02*
D03*
X0025375D02*
D03*
X00248Y-001805D02*
D03*
X002365D02*
D03*
X002595D02*
D03*
X0024225Y-0019138D02*
D03*
X0025375D02*
D03*
Y-0023487D02*
D03*
Y-0021312D02*
D03*
X0024225D02*
D03*
Y-0023487D02*
D03*
X00248Y-0024575D02*
D03*
X002365D02*
D03*
X002595D02*
D03*
X00248Y-00224D02*
D03*
X002365Y-00224D02*
D03*
X002595D02*
D03*
Y-0020225D02*
D03*
X002365D02*
D03*
X00248D02*
D03*
X0023825Y-0016675D02*
D03*
X00182Y-0027825D02*
D03*
X00382Y-002315D02*
D03*
X0034275Y-0028825D02*
D03*
X00298Y-0033175D02*
D03*
X0011725Y-004225D02*
D03*
X0017475Y-0040175D02*
D03*
X00238Y-0032475D02*
D03*
X000435Y-0038625D02*
D03*
X0015925Y-002145D02*
D03*
M02*
