M48
;Layer_Color=9474304
;FILE_FORMAT=4:3
METRIC
;TYPE=PLATED
T1F00S00C0.300
T2F00S00C0.600
T5F00S00C1.200
T6F00S00C5.200
%
T01
X-0033000Y-0029000
X-0028500Y-0025500
Y-0023875
Y-0022250
X-0026500Y-0020250
X-0024375
X-0022250
X-0020125
X-0018000
X-0015075Y-0019175
X-0012474Y-0019176
X-0011400Y-0022250
Y-0024000
X-0011450Y-0025025
X-0012975Y-0027000
X-0014475Y-0027475
X-0014100Y-0025975
X-0016000Y-0025500
Y-0023875
Y-0022250
X-0015828Y-0029375
X-0014475Y-0029750
X-0012375Y-0029275
X-0011663Y-0029512
X-0012700Y-0031700
Y-0033200
Y-0034700
X-0011200Y-0033200
X-0014200Y-0033200
X-0017000Y-0034200
X-0018000Y-0033400
Y-0031200
X-0016500Y-0030550
X-0019775Y-0030685
X-0020225Y-0029575
X-0020825Y-0028900
X-0021650Y-0028750
X-0020250Y-0028250
X-0018175Y-0028675
X-0021790Y-0032033
X-0023100Y-0032375
X-0023775Y-0031800
X-0024325Y-0031175
X-0024000Y-0015900
X-0024750Y-0015400
X-0026000Y-0015650
X-0022175Y-0015350
X-0022075Y-0016100
X-0021425Y-0015450
X-0020625Y-0014825
X-0021450Y-0011375
X-0022175Y-0011125
X-0022925Y-0011275
X-0025000Y-0011250
X-0025925Y-0011025
X-0028000Y-0012000
X-0034800Y-0011900
X-0038400Y-0011950
Y-0011200
X-0039150
Y-0011950
X-0040000Y-0011200
X-0041000Y-0010350
Y-0015500
X-0037875Y-0014725
X-0037900Y-0012700
X-0038000Y-0022000
X-0016500Y-0015000
X-0013600Y-0037300
X-0012900Y-0038500
X-0011000Y-0043000
X-0008950Y-0039850
X-0008100
Y-0036900
X-0008950
X-0008403Y-0034107
X-0007400Y-0033400
X-0005900Y-0034025
Y-0032425
X-0003650
Y-0034025
X-0001200Y-0034600
X-0001225Y-0037975
X0004350Y-0038625
X0007800Y-0035000
Y-0034300
Y-0033600
X0008850
Y-0034300
Y-0035000
X0008050Y-0028750
Y-0027600
Y-0026450
X0009137Y-0027025
Y-0028175
X0010225Y-0028750
Y-0027600
Y-0026450
X0011312Y-0027025
X0011312Y-0028175
X0012400Y-0027600
X0012400Y-0028750
X0013488Y-0028175
Y-0027025
X0012400Y-0026450
X0014575
Y-0027600
Y-0028750
X0015663Y-0028175
Y-0027025
X0016750Y-0026450
Y-0027600
Y-0028750
X0018200Y-0027825
X0016650Y-0032300
Y-0033000
Y-0033700
X0015600
Y-0033000
Y-0032300
X0018700Y-0036300
X0019700Y-0038200
X0017475Y-0040175
X0011725Y-0042250
X0022800Y-0036900
X0023800Y-0032475
X0023650Y-0026750
X0024800
X0025950
X0025375Y-0025663
X0024225
X0024800Y-0024575
X0023650
X0024225Y-0023487
X0025375Y-0023487
X0024800Y-0022400
X0023650Y-0022400
X0024225Y-0021312
X0025375
X0025950Y-0022400
Y-0024575
Y-0020225
X0024800
X0023650
X0024225Y-0019138
X0025375
X0024800Y-0018050
X0023650
X0023825Y-0016675
X0025950Y-0018050
X0025875Y-0013425
X0025175
X0026575
X0029325Y-0011475
X0021425Y-0013425
X0020725
X0020025
X0018650Y-0018325
Y-0019325
X0015925Y-0021450
X0014925
X0014375Y-0018300
X0013998Y-0014686
X0013248
Y-0013936
X0013998
X0009700Y-0014300
Y-0012475
X0007950Y-0012650
X0007950Y-0011025
X-0000800Y-0010700
Y-0011900
X-0001500Y-0016300
X-0004500
X-0006912Y-0015788
X-0007400Y-0015175
X-0007276Y-0013024
X-0007450Y-0012251
X-0009425Y-0012775
X-0009825Y-0011800
X-0009850Y-0014500
X-0009170Y-0016075
Y-0016825
X-0007600Y-0017250
X-0008025Y-0019875
X-0009500Y-0019766
X-0007000Y-0020600
Y-0022900
X-0009100Y-0024000
X-0009177Y-0027149
X-0009926Y-0027167
X-0010174Y-0027988
X-0007700Y-0029700
X-0007800Y-0030500
X-0006150Y-0029250
X-0005000Y-0030000
X-0006125Y-0026350
X0030800Y-0025950
X0031500
X0032200
Y-0027000
X0031500
X0030800
X0034275Y-0028825
X0029800Y-0033175
X0029500Y-0019300
X0030200
X0030900
Y-0018250
X0030200
X0029500
X0030825Y-0012400
X0032500Y-0012800
X0033500
X0033000Y-0013500
X0042000Y-0016000
X0038200Y-0023150
X0036800Y-0008200
X0036100
X0035400
Y-0007300
X0036100
X0036800
X0032900Y-0004325
Y-0003625
Y-0002925
X0032500Y0001900
Y0002700
Y0003500
X0031600
Y0002700
Y0001900
X0030700
Y0002700
Y0003500
X0029800
Y0002700
Y0001900
X0033400
Y0002700
Y0003500
X0034300
Y0002700
X0034900Y0008400
X0035000Y0010000
X0039800Y0008000
X0042000Y0008000
X0043000Y0012000
X0042250Y0003000
X0044250Y0000000
X0042250Y-0003000
X0044000Y-0008000
X0030225Y-0008200
X0040000Y0020000
X0037000Y0025000
X0028200Y0026725
X0025200
X0023314Y0026625
Y0025550
X0022214
Y0026625
X0021114
Y0025550
X0020014
Y0026625
Y0027725
Y0028825
X0018914Y0028800
X0018914Y0027725
Y0026625
X0018914Y0025550
X0017814
X0017814Y0026625
Y0027725
X0017800Y0028800
X0016714
X0016714Y0027725
Y0026625
X0016714Y0025550
X0015614
X0015614Y0026625
X0014514
X0014514Y0025550
X0013414
X0013414Y0026625
Y0027725
X0013414Y0028800
X0012314Y0028825
Y0027725
Y0026625
Y0025550
X0011214
Y0026625
X0010114
Y0025550
X0009014
Y0026625
X0007100Y0025500
X0004100
X0003686Y0020536
X0004464Y0019264
X0003600Y0018450
X0002650Y0018225
X0000700Y0017450
X0001812Y0015163
X0002325Y0021225
X0007000Y0022250
X0010500Y0021175
X0011342Y0020709
X0014689Y0019975
X0016248Y0019865
X0018100Y0019875
X0017250Y0015875
X0014850Y0016550
X0013950Y0016550
X0014850Y0014300
X0014500Y0005750
X0013500
Y0006750
X0012500
X0013800Y0001850
X0014550
X0015300
X0015300Y-0000650
X0014550
X0013800
X0020000Y0000000
X0020975Y-0003725
Y-0004475
Y-0005225
X0023475Y-0005225
Y-0004475
Y-0003725
X0028150Y-0003625
Y-0004325
Y-0002925
X0028475Y-0007225
X0025000Y-0010000
X0022225Y-0007553
X0015000Y-0010000
X0013600Y-0008700
X0010835Y-0008324
X0010085
Y-0007574
X0010835
X0007475Y-0006775
X0006600Y-0007975
X0002950Y-0006500
Y-0003500
X0002200Y-0001675
X0002200Y-0000875
Y-0000125
X0002275Y0000700
X0002200Y0001525
Y0002275
X0002200Y0003075
X0001580Y0003700
X0001800Y0005400
X0003100
X0003650Y0007125
X0003000Y0007675
X-0000800Y0006100
Y0004900
Y0003700
X-0000800Y-0000400
X-0003175Y0000000
X-0005050Y0000025
X-0005580Y0000555
X-0006400Y0000200
X-0005900Y0001500
X-0005050Y0001375
Y0002125
X-0005800Y0002425
Y0003175
X-0006600Y0002800
X-0007500Y0000900
X-0008175Y-0000775
Y-0001725
X-0010000Y-0000600
Y0002400
Y0005400
X-0007000
X-0005000Y0010000
X-0005396Y-0000778
X-0005400Y-0001400
X-0004075Y-0005025
X-0003425
X-0000800Y-0004700
Y-0005900
Y-0007100
Y-0008300
Y-0009500
X0002950Y-0009500
Y-0000500
X0001600Y0000325
Y0001075
X0002950Y0001900
X-0000800Y-0003500
X-0010000Y-0003600
Y-0006600
X-0009025Y-0008425
X-0007400Y-0009725
X-0005750Y0022000
X-0001100Y0027950
X0014514Y0027725
X0015614
X0015614Y0028800
X0014550
X0014475Y0023200
X0015225
X0020400Y0023300
X0007778Y0017750
X0005700Y0011200
X0028800Y0008000
X0028900Y0003500
Y0002700
Y0001900
X-0014500Y0002750
X-0020200Y0003600
X-0021125Y0003650
X-0021301Y0001776
X-0020771Y0001246
X-0020575Y-0000075
X-0021325
X-0023000Y-0001600
X-0024100Y-0002300
X-0025475Y-0004175
X-0026500Y-0004450
X-0026746Y-0003154
X-0027300Y-0001600
X-0028100Y-0002300
X-0027900Y-0004700
X-0028700
X-0030000
X-0031300
Y-0006450
X-0034800Y-0006700
Y-0005500
Y-0004300
Y-0003100
Y-0001100
Y0000950
Y0002900
Y0004900
Y0006100
Y0007300
X-0032925Y0008125
X-0031250Y0008250
X-0031675Y0006150
X-0030775Y0006125
X-0031400Y0004626
X-0032000Y0003750
X-0030800Y0003650
X-0029675Y0002925
X-0028850Y0003450
X-0028375Y0002725
X-0028550Y0001825
X-0028845Y0000050
X-0029500Y-0000500
X-0030300Y0000375
X-0032100Y0000500
X-0032345Y0002477
X-0030999Y-0000968
X-0030750Y-0002475
X-0027609Y-0000172
X-0025900Y-0000125
X-0026725Y0001250
X-0026700Y0002150
X-0024250Y0004250
X-0026500Y0012500
X-0035000Y0010000
X-0039323Y0010794
X-0042300Y0010800
X-0043000Y0008000
X-0042323Y0005694
X-0039323Y0005694
X-0040600Y0002500
X-0042050Y0002700
X-0042950
X-0042900Y0001200
X-0042248Y0000000
X-0040248Y-0000105
X-0040635Y-0000747
X-0039198Y-0000150
X-0038458Y-0000517
X-0037988Y0001212
X-0037300Y0002200
X-0037595Y-0002057
X-0038800Y-0002767
X-0038900Y-0004100
X-0039150Y-0005850
Y-0006600
X-0038400
Y-0005850
X-0040000Y-0006600
X-0041000Y-0007500
Y-0008450
X-0041750Y-0008450
Y-0009400
X-0041000Y-0009400
X-0041375Y-0005850
X-0040000Y-0003050
X-0043870Y-0002249
X-0044657Y0001394
X-0040000Y0016000
X-0038000Y0020000
X-0030000Y0020000
X-0030000Y0028000
X-0014702Y0027774
X-0013300Y0027300
X-0020000Y0020000
X-0023250Y-0005500
X-0027425Y-0005425
X-0030425Y-0010025
X-0023450Y-0009725
X-0020311Y-0009861
X-0016500Y-0009925
X-0017549Y0031616
X-0015349Y0031616
X-0013287Y0032184
X-0012227Y0031123
X-0011237Y0029992
X-0010671Y0032679
X-0011732Y0033740
X-0013040Y0036250
X-0013711Y0037912
X-0014312Y0038583
X-0016175Y0037050
Y0035650
X-0016975Y0034850
Y0037850
X-0016328Y0040033
X-0015656Y0040705
X-0014984Y0041377
X-0013800Y0041900
X-0013000Y0042300
X-0012125Y0042575
X-0011325Y0042750
X-0010600Y0043000
X-0011825Y0041725
X-0012578Y0041328
X-0013200Y0040925
X-0010954Y0039750
X-0011484Y0039220
X-0017600Y0040600
X-0019125Y0039750
X-0019875Y0035875
X-0022875Y0035650
X-0023700Y0035900
X-0022875Y0037050
X-0022075Y0037850
Y0034850
X-0025600Y0034400
X-0026900Y0035200
X-0025900Y0036900
X-0026000Y0032000
X-0023700Y0032100
X-0024250Y0030750
X-0020925Y0030400
X-0020000Y0030200
Y0030800
X-0019050Y0030775
Y0030175
X-0009681Y0031548
X-0008161Y0032997
X-0005332Y0032997
X-0006746Y0034412
X-0007666Y0035331
X-0008603Y0036232
X-0007666Y0037169
X-0006746Y0038088
X-0005827Y0037169
X-0004908Y0036250
X-0005827Y0035331
X-0003494Y0034836
Y0037664
X-0003494Y0040634
X-0002600Y0040300
X-0001938Y0042190
X-0002645Y0042897
X-0000100Y0043100
X0001400Y0043900
X0002250Y0044250
X0003550Y0042300
X0004450
X0000572Y0039679
X0000400Y0038300
X-0000984Y0038124
X0000125Y0036675
X0000050Y0035900
X-0001019Y0034412
X-0002433Y0032997
X-0003000Y0032100
X-0002771Y0031129
X-0003600Y0030600
X-0002934Y0029720
X-0004500Y0029500
X-0005002Y0030099
X-0000877Y0031442
X0000537Y0032856
X0002800Y0032000
X0002200Y0031300
X0001300Y0030300
X0003100Y0030000
X0003700Y0030700
X0004500Y0031775
X0004800Y0033600
X0006700Y0031775
Y0029525
X0004500
X0009100Y0034100
X0007305Y0036000
X0013000Y0035800
X0014100Y0034200
X0014400Y0033300
X0013889Y0031418
X0017692Y0031068
X0019400Y0033700
X0018000Y0035800
X0021100Y0036600
X0023000Y0034400
X0023650Y0032975
X0025600Y0033000
X0027800
Y0030750
X0025600
X0027000Y0036000
X0010000Y0040000
X-0004201Y0041341
X-0005332Y0039503
X-0008161
X-0008900Y0041900
X-0009600Y0041600
X-0009999Y0037664
Y0034836
X-0007287Y0043800
X0033000Y0030000
T02
X-0027416Y-0032859
X-0028300Y-0031975
X-0029184Y-0031091
X-0024331Y-0035435
X-0023307Y-0036152
X-0022283Y-0036869
T05
X-0006265Y-0042250
X-0003725
X-0001185
X0001355
X0003895
X0008547Y-0040657
X0011000Y-0040000
X0013453Y-0039343
X0035192Y-0023477
X0036500Y-0021300
X0037808Y-0019123
X0040000Y-0001270
Y0001270
X0033580Y0014230
X0031040
Y0016770
X0033580
Y0019730
Y0022270
X0031040
Y0019730
X0028500
Y0022270
X0025960
Y0019730
X0023420
Y0022270
Y0016770
Y0014230
X0025960
X0028500
Y0016770
X0025960
X0018440Y0038000
X0015900
X0012470
X0009930
T06
X-0034300Y-0024000
Y0024000
M30
