G04*
G04 #@! TF.GenerationSoftware,Altium Limited,Altium Designer,21.8.1 (53)*
G04*
G04 Layer_Physical_Order=1*
G04 Layer_Color=255*
%FSTAX43Y43*%
%MOMM*%
G71*
G04*
G04 #@! TF.SameCoordinates,77AD0121-2578-4578-B714-FB4ED1F38CAD*
G04*
G04*
G04 #@! TF.FilePolarity,Positive*
G04*
G01*
G75*
%ADD10C,0.200*%
%ADD11C,0.150*%
%ADD12C,0.300*%
%ADD14R,0.610X2.000*%
%ADD15R,2.680X3.600*%
G04:AMPARAMS|DCode=17|XSize=0.455mm|YSize=0.33mm|CornerRadius=0.033mm|HoleSize=0mm|Usage=FLASHONLY|Rotation=0.000|XOffset=0mm|YOffset=0mm|HoleType=Round|Shape=RoundedRectangle|*
%AMROUNDEDRECTD17*
21,1,0.455,0.264,0,0,0.0*
21,1,0.389,0.330,0,0,0.0*
1,1,0.066,0.195,-0.132*
1,1,0.066,-0.195,-0.132*
1,1,0.066,-0.195,0.132*
1,1,0.066,0.195,0.132*
%
%ADD17ROUNDEDRECTD17*%
G04:AMPARAMS|DCode=18|XSize=1.45mm|YSize=0.95mm|CornerRadius=0.095mm|HoleSize=0mm|Usage=FLASHONLY|Rotation=180.000|XOffset=0mm|YOffset=0mm|HoleType=Round|Shape=RoundedRectangle|*
%AMROUNDEDRECTD18*
21,1,1.450,0.760,0,0,180.0*
21,1,1.260,0.950,0,0,180.0*
1,1,0.190,-0.630,0.380*
1,1,0.190,0.630,0.380*
1,1,0.190,0.630,-0.380*
1,1,0.190,-0.630,-0.380*
%
%ADD18ROUNDEDRECTD18*%
G04:AMPARAMS|DCode=19|XSize=0.6mm|YSize=0.5mm|CornerRadius=0.05mm|HoleSize=0mm|Usage=FLASHONLY|Rotation=270.000|XOffset=0mm|YOffset=0mm|HoleType=Round|Shape=RoundedRectangle|*
%AMROUNDEDRECTD19*
21,1,0.600,0.400,0,0,270.0*
21,1,0.500,0.500,0,0,270.0*
1,1,0.100,-0.200,-0.250*
1,1,0.100,-0.200,0.250*
1,1,0.100,0.200,0.250*
1,1,0.100,0.200,-0.250*
%
%ADD19ROUNDEDRECTD19*%
%ADD20R,0.250X0.350*%
%ADD21R,0.350X0.250*%
G04:AMPARAMS|DCode=22|XSize=0.6mm|YSize=0.5mm|CornerRadius=0.05mm|HoleSize=0mm|Usage=FLASHONLY|Rotation=180.000|XOffset=0mm|YOffset=0mm|HoleType=Round|Shape=RoundedRectangle|*
%AMROUNDEDRECTD22*
21,1,0.600,0.400,0,0,180.0*
21,1,0.500,0.500,0,0,180.0*
1,1,0.100,-0.250,0.200*
1,1,0.100,0.250,0.200*
1,1,0.100,0.250,-0.200*
1,1,0.100,-0.250,-0.200*
%
%ADD22ROUNDEDRECTD22*%
G04:AMPARAMS|DCode=23|XSize=0.18mm|YSize=0.4mm|CornerRadius=0.018mm|HoleSize=0mm|Usage=FLASHONLY|Rotation=180.000|XOffset=0mm|YOffset=0mm|HoleType=Round|Shape=RoundedRectangle|*
%AMROUNDEDRECTD23*
21,1,0.180,0.364,0,0,180.0*
21,1,0.144,0.400,0,0,180.0*
1,1,0.036,-0.072,0.182*
1,1,0.036,0.072,0.182*
1,1,0.036,0.072,-0.182*
1,1,0.036,-0.072,-0.182*
%
%ADD23ROUNDEDRECTD23*%
%ADD24C,1.500*%
%ADD26C,2.700*%
%ADD27C,0.164*%
%ADD28C,0.164*%
%ADD29C,1.000*%
%ADD30C,0.500*%
%ADD31C,0.600*%
%ADD32C,0.180*%
%ADD33C,0.600*%
%ADD34C,0.550*%
G36*
X0019765Y0003868D02*
X0019765Y0003868D01*
X0019235D01*
Y0006132D01*
X0019765D01*
X0019765Y0003868D01*
D02*
G37*
G36*
X001085Y00181D02*
X00066D01*
X0006Y00175D01*
Y001375D01*
X000675Y0013D01*
X001D01*
X001085Y001385D01*
Y00181D01*
D02*
G37*
G36*
X003375Y0007D02*
X0035D01*
Y000575D01*
X003375D01*
Y0007D01*
D02*
G37*
G36*
X002815Y00181D02*
X00324D01*
X0033Y00175D01*
Y001375D01*
X003225Y0013D01*
X0029D01*
X002815Y001385D01*
Y00181D01*
D02*
G37*
D10*
X0033975Y0008575D02*
Y0008675D01*
X00338Y000765D02*
Y00084D01*
X0033975Y0008575D01*
X00338Y000695D02*
X0034375Y0006375D01*
X00338Y000695D02*
Y000765D01*
X0034375Y0006483D02*
X00348Y0006908D01*
X0034375Y0006375D02*
Y0006483D01*
X00348Y0006908D02*
Y000765D01*
X00344Y00064D02*
X00355D01*
X0034375Y0006375D02*
X00344Y00064D01*
X00355D02*
X0035525Y0006425D01*
X0034375Y0006375D02*
X0035175Y0005479D01*
X0035275Y0005275D02*
X00353Y00052D01*
X0035175Y0005479D02*
X0035275Y0005275D01*
X0032925Y0007371D02*
Y000865D01*
Y0007371D02*
X0033Y0007296D01*
Y000695D02*
Y0007296D01*
Y000695D02*
X0033025Y0006925D01*
X0033075D01*
X00331Y000865D02*
X00331Y000865D01*
X0033145Y0004044D02*
X003315Y000405D01*
X00333Y000425D02*
Y00052D01*
X003315Y00041D02*
X00333Y000425D01*
D11*
X0006075Y0005D02*
G03*
X0006075Y0005I-0001075J0D01*
G01*
X0037075Y0014D02*
G03*
X0037075Y0014I-0001075J0D01*
G01*
X0035Y0003275D02*
Y0003275D01*
X003525Y0003525D02*
Y0004267D01*
X0035Y0003275D02*
X003525Y0003525D01*
X003485Y0004667D02*
X003525Y0004267D01*
X003485Y0004667D02*
Y000515D01*
X0034525Y00028D02*
X0035Y0003275D01*
X001735Y0016325D02*
X00241D01*
X0015805Y001478D02*
X001735Y0016325D01*
X0015805Y00145D02*
Y001478D01*
X00155Y0014195D02*
X0015805Y00145D01*
X00165Y00135D02*
Y001495D01*
X0017425Y0015875D01*
X00236D01*
X00155Y00135D02*
Y0014195D01*
X00145Y00135D02*
X00145Y00135D01*
Y0015075D01*
X00135Y00135D02*
Y0015075D01*
X00236Y0015875D02*
X00242Y0015275D01*
X00241Y0016325D02*
X002515Y0015275D01*
X003245Y001125D02*
Y00122D01*
X003145Y001125D02*
Y00122D01*
X003045Y001125D02*
Y00122D01*
X002945Y001125D02*
Y00122D01*
X00215Y00015D02*
Y0002292D01*
X0021984Y0002233D02*
X0022025D01*
X0021075Y0003142D02*
X0021984Y0002233D01*
X0020725Y0003067D02*
X00215Y0002292D01*
X0020701Y0002289D02*
Y0002349D01*
X00199Y0002453D02*
Y0002575D01*
X0020025Y00027D01*
Y000405D01*
X0020375Y0002676D02*
X0020701Y0002349D01*
X0020375Y0002676D02*
Y000405D01*
X0021075Y0003142D02*
Y000405D01*
X0020725Y0003067D02*
Y000405D01*
X0022724Y00027D02*
X00294D01*
X002179Y0003634D02*
Y0004035D01*
Y0003634D02*
X0022724Y00027D01*
X002144Y000356D02*
X00227Y00023D01*
X002995D01*
X002144Y000356D02*
Y0004035D01*
X0022475Y000405D02*
X0022485Y000404D01*
Y0003615D02*
X002275Y000335D01*
X0029267D01*
X0022485Y0003615D02*
Y000404D01*
X003615Y001035D02*
X00362Y00104D01*
X003245Y001035D02*
X003615D01*
X003045D02*
X003145D01*
X003245D01*
X00312Y00028D02*
X0034525D01*
X00348Y00052D02*
X003485Y000515D01*
X00362Y00037D02*
Y0005793D01*
X00348Y00023D02*
X00362Y00037D01*
X0035125Y0009325D02*
X00362Y000825D01*
X0033582Y0009325D02*
X0035125D01*
X00362Y00071D02*
Y000825D01*
X0033275Y0009018D02*
X0033582Y0009325D01*
X00331Y000865D02*
X0033275Y0008825D01*
Y0009018D01*
X0035525Y0005925D02*
X0036068D01*
X00362Y0005793D01*
X0031Y00023D02*
X00348D01*
X0030825Y0003175D02*
X0031275Y0003625D01*
X002995Y00023D02*
X0030825Y0003175D01*
X00312Y00028D01*
X0035525Y0006925D02*
X0036025D01*
X00362Y00071D01*
X002945Y001035D02*
X003045D01*
X00296Y00065D02*
Y00102D01*
X002945Y001035D02*
X00296Y00102D01*
X0029267Y000335D02*
X00299Y0003983D01*
Y0004678D01*
X00296Y0004978D02*
X00299Y0004678D01*
X00296Y0004978D02*
Y00051D01*
X00294Y00027D02*
X0030525Y0003825D01*
Y000495D01*
X0021775Y000405D02*
X002179Y0004035D01*
X0031275Y0003625D02*
Y0004775D01*
X003145Y000495D01*
X00315D01*
X0021425Y000405D02*
X002144Y0004035D01*
X0020375Y000595D02*
Y0006475D01*
X0020025Y000595D02*
Y0006475D01*
X0020725Y000595D02*
Y0006475D01*
D12*
X00265Y0012075D02*
X00265Y0012075D01*
X003405Y000405D02*
X003405Y000405D01*
X0034725D02*
X0034725Y000405D01*
X003405Y000405D02*
X0034725D01*
X0034Y000865D02*
X0034675D01*
X0033975Y0008675D02*
X0034Y000865D01*
X0030525Y0005825D02*
X0031475D01*
X00315Y00079D02*
X003225Y000865D01*
X00315Y000585D02*
Y00079D01*
Y000585D02*
X00316Y000575D01*
X0032028D02*
X0032341Y0005436D01*
X00316Y000575D02*
X0032028D01*
X0032341Y0004513D02*
Y0005436D01*
X0032655Y00042D02*
X003305D01*
X0032341Y0004513D02*
X0032655Y00042D01*
X003305D02*
X0033145Y0004105D01*
Y0004044D02*
Y0004105D01*
X0030525Y0005825D02*
Y000585D01*
X0031475Y0005825D02*
X00315Y000585D01*
X002825Y0005825D02*
X0030525D01*
X0032925Y000865D02*
X00331D01*
X003225D02*
X0032925D01*
X0028225Y00058D02*
X002825Y0005825D01*
X0021075Y0005D02*
X002348D01*
X001552Y0004055D02*
Y0005D01*
Y0005945D01*
X002348Y0004055D02*
Y0005D01*
Y0005945D01*
X00195Y0005D02*
X0021075D01*
X0016175D02*
X0017225D01*
X0027075Y00042D02*
X0028225D01*
X0029375D01*
X0015525Y0005D02*
X0016175D01*
X0017225D02*
X0018275D01*
X00195D01*
X0021075D02*
X0021075Y0005D01*
D14*
X00265Y00135D02*
D03*
X00255D02*
D03*
X00245D02*
D03*
X00235D02*
D03*
X00225D02*
D03*
X00215D02*
D03*
X00205D02*
D03*
X00195D02*
D03*
X00185D02*
D03*
X00175D02*
D03*
X00165D02*
D03*
X00155D02*
D03*
X00145D02*
D03*
X00135D02*
D03*
X00125D02*
D03*
D15*
X000951Y00163D02*
D03*
X002949D02*
D03*
D17*
X001552Y0004055D02*
D03*
Y0005945D02*
D03*
X002348Y0005945D02*
D03*
Y0004055D02*
D03*
D18*
X0028225Y00042D02*
D03*
Y00058D02*
D03*
D19*
X0034Y000865D02*
D03*
X00331D02*
D03*
X003315Y000405D02*
D03*
X003405D02*
D03*
D20*
X00333Y00052D02*
D03*
X00338D02*
D03*
X00343D02*
D03*
X00348D02*
D03*
X00353D02*
D03*
Y000765D02*
D03*
X00348D02*
D03*
X00343D02*
D03*
X00338D02*
D03*
X00333D02*
D03*
D21*
X0035525Y0005925D02*
D03*
Y0006425D02*
D03*
Y0006925D02*
D03*
X0033075D02*
D03*
Y0006425D02*
D03*
Y0005925D02*
D03*
D22*
X00315Y000585D02*
D03*
Y000495D02*
D03*
X002945Y001125D02*
D03*
Y001035D02*
D03*
X003045Y001125D02*
D03*
Y001035D02*
D03*
X003245Y001125D02*
D03*
Y001035D02*
D03*
X003145Y001125D02*
D03*
Y001035D02*
D03*
X0030525Y000495D02*
D03*
Y000585D02*
D03*
D23*
X0016175Y000405D02*
D03*
X0016525Y000405D02*
D03*
X0016875D02*
D03*
X0017225Y000405D02*
D03*
X0017575Y000405D02*
D03*
X0016175Y000595D02*
D03*
X0016525Y000595D02*
D03*
X0016875D02*
D03*
X0017225Y000595D02*
D03*
X0017575Y000595D02*
D03*
X0018275Y000405D02*
D03*
X0018625Y000405D02*
D03*
X0018975Y000405D02*
D03*
X0019325Y000405D02*
D03*
X0019675Y000405D02*
D03*
X0022125D02*
D03*
X0022825D02*
D03*
X0017925D02*
D03*
X0022825Y000595D02*
D03*
X0018625Y000595D02*
D03*
X0018275Y000595D02*
D03*
X0017925Y000595D02*
D03*
X0018975D02*
D03*
X0019325D02*
D03*
X0020375D02*
D03*
X0021075D02*
D03*
X0020025D02*
D03*
X0021425D02*
D03*
X0021775Y000595D02*
D03*
X0022125Y000595D02*
D03*
X0022475D02*
D03*
X0019675D02*
D03*
X0020725Y000595D02*
D03*
X0022475Y000405D02*
D03*
X0021075D02*
D03*
X0020725Y000405D02*
D03*
X0020375Y000405D02*
D03*
X0020025Y000405D02*
D03*
X0021425Y000405D02*
D03*
X0021775Y000405D02*
D03*
D24*
X00362Y00104D02*
D03*
D26*
X003625Y001825D02*
D03*
X000275D02*
D03*
D27*
X0017025Y0006743D02*
G03*
X0016882Y0006397I0000346J-0000346D01*
G01*
X0016518Y000635D02*
G03*
X0016412Y0006606I-0000362J0D01*
G01*
X0017562Y000697D02*
G03*
X0017365Y0007443I-0000669J-0D01*
G01*
X0018618Y0006397D02*
G03*
X0018475Y0006743I-0000489J0D01*
G01*
X0019088Y0006606D02*
G03*
X0018982Y000635I0000256J-0000256D01*
G01*
X0025163Y0011223D02*
G03*
X0025182Y0011305I-0000163J0000081D01*
G01*
X0025033Y0011044D02*
G03*
X0025163Y0011223I-0000492J0000492D01*
G01*
X0024463Y0010474D02*
G03*
X0024933Y0010005I0000235J-0000234D01*
G01*
X0026167Y0010257D02*
G03*
X0025183Y0010256I-0000492J-0000492D01*
G01*
X0026167Y0009273D02*
G03*
X0026167Y0010257I-0000492J0000492D01*
G01*
X002348Y0007569D02*
G03*
X0024464Y000757I0000492J0000492D01*
G01*
X002348Y0008553D02*
G03*
X002348Y0007569I0000491J-0000492D01*
G01*
X002348Y0008553D02*
G03*
X0023011Y0009022I-0000235J0000234D01*
G01*
X0022301Y0008357D02*
G03*
X002247Y0008481I-0000322J0000616D01*
G01*
X0022216Y0008336D02*
G03*
X0022301Y0008357I0000001J0000182D01*
G01*
X0024777Y0011302D02*
G03*
X0024818Y0011352I-0000235J0000234D01*
G01*
X0024206Y0010731D02*
G03*
X002519Y0009748I0000492J-0000492D01*
G01*
X002591Y001D02*
G03*
X0025442Y001I-0000234J-0000235D01*
G01*
X0025911Y0009999D02*
G03*
X002591Y001I-0000235J-0000234D01*
G01*
X002591Y000953D02*
G03*
X0025911Y0009999I-0000234J0000235D01*
G01*
X0023737Y0007826D02*
G03*
X0024207Y0007827I0000234J0000235D01*
G01*
X0023737Y0007827D02*
G03*
X0023737Y0007826I0000235J0000234D01*
G01*
X0023737Y0008295D02*
G03*
X0023737Y0007827I0000235J-0000234D01*
G01*
X0023737Y0008295D02*
G03*
X0023737Y0008296I-0000492J0000492D01*
G01*
X0023738Y0008296D02*
G03*
X0023737Y0008296I0000234J-0000235D01*
G01*
X0023738Y0008296D02*
G03*
X0022754Y0009279I-0000492J0000491D01*
G01*
X0022167Y00087D02*
G03*
X0022213Y0008738I-0000188J0000273D01*
G01*
X0012125Y0004416D02*
G03*
X0011793Y0004748I-0000332J0D01*
G01*
X0010971Y0005443D02*
G03*
X0011666Y0004748I0000695J0D01*
G01*
Y0006139D02*
G03*
X0010971Y0005443I0J-0000695D01*
G01*
X0012972Y0006139D02*
G03*
X0013303Y000647I0J0000332D01*
G01*
Y000647D02*
G03*
X0012972Y0006802I-0000332J0D01*
G01*
X0012125Y0007497D02*
G03*
X001282Y0006802I0000695J0D01*
G01*
X0012488Y0004416D02*
G03*
X0011793Y0005111I-0000695J0D01*
G01*
X0011334Y0005443D02*
G03*
X0011666Y0005111I0000332J0D01*
G01*
Y0005775D02*
G03*
X0011334Y0005443I0J-0000332D01*
G01*
X0012972Y0005775D02*
G03*
X0013667Y000647I0J0000695D01*
G01*
Y000647D02*
G03*
X0012972Y0007166I-0000695J0D01*
G01*
X0012488Y0007497D02*
G03*
X001282Y0007166I0000332J0D01*
G01*
X0013464Y0011489D02*
X0018499D01*
X0013614Y0011125D02*
X001865D01*
X0010161Y0003174D02*
Y0008186D01*
X0018499Y0011489D02*
X0018818Y0011807D01*
X001865Y0011125D02*
X0019182Y0011657D01*
X0010525Y0008036D02*
X0013614Y0011125D01*
X0010161Y0008186D02*
X0013464Y0011489D01*
X0016882Y0005957D02*
Y0006397D01*
X0016275Y0006743D02*
X0016412Y0006606D01*
X0016518Y0005957D02*
Y000635D01*
X0017562Y0006591D02*
Y000697D01*
X0017561Y000595D02*
Y0006591D01*
X0018618Y0005957D02*
Y0006397D01*
X0019088Y0006606D02*
X0019225Y0006743D01*
X0018982Y0005957D02*
Y000635D01*
X0025182Y0011305D02*
Y0011568D01*
X0024463Y0010474D02*
X0025033Y0011044D01*
X0024933Y0010005D02*
X0025183Y0010256D01*
X0024464Y000757D02*
X0026167Y0009273D01*
X002348Y0007569D02*
X002348Y0007569D01*
X002247Y0008481D02*
X0023011Y0009022D01*
X0021954Y0008336D02*
X0022216D01*
X0024818Y0011568D02*
X0024818D01*
Y0011352D02*
Y0011568D01*
X0024206Y0010731D02*
X0024777Y0011302D01*
X002519Y0009748D02*
X0025442Y001D01*
X002591Y001D02*
X002591Y001D01*
X0024207Y0007827D02*
X002591Y000953D01*
X0023737Y0007826D02*
X0023737D01*
X0023737Y0007827D02*
Y0007827D01*
X0023737Y0008295D02*
X0023737Y0008295D01*
X0022213Y0008738D02*
X0022754Y0009279D01*
X0021954Y00087D02*
X0022167D01*
X0021954D02*
Y00087D01*
X001675Y0001175D02*
X001725D01*
X0016495Y000143D02*
X001675Y0001175D01*
X0016245Y000143D02*
X0016495D01*
X0015991Y0001175D02*
X0016245Y000143D01*
X0015741Y0001175D02*
X0015991D01*
X0015455Y000146D02*
X0015741Y0001175D01*
X0015205Y000146D02*
X0015455D01*
X001492Y0001175D02*
X0015205Y000146D01*
X001467Y0001175D02*
X001492D01*
X0014385Y000146D02*
X001467Y0001175D01*
X0014135Y000146D02*
X0014385D01*
X001385Y0001175D02*
X0014135Y000146D01*
X001335Y0001175D02*
X001385D01*
X0012125Y0003565D02*
Y0004416D01*
X0011666Y0004748D02*
X0011793D01*
X0010971Y0005443D02*
Y0005443D01*
X0011666Y0006139D02*
X0012972D01*
X0013303Y000647D02*
Y000647D01*
X001282Y0006802D02*
X0012972D01*
X0012125Y0007497D02*
Y0007761D01*
X0012488Y0003565D02*
X0012489D01*
X0012488D02*
Y0004416D01*
X0011666Y0005111D02*
X0011793D01*
X0011334Y0005443D02*
Y0005443D01*
X0011666Y0005775D02*
X0012972D01*
X0013667Y000647D02*
Y000647D01*
X001282Y0007166D02*
X0012972D01*
X0012488Y0007497D02*
Y0007761D01*
X0012489D01*
X0018625Y0001695D02*
Y000405D01*
X0018989Y0001544D02*
Y0004036D01*
X0016875Y0003411D02*
Y000405D01*
X0016219Y0003269D02*
X0016525Y0003575D01*
X0015011Y00087D02*
X0021954D01*
X0014645Y0002905D02*
X0016369D01*
X001415Y00034D02*
X0014645Y0002905D01*
X0016369D02*
X0016875Y0003411D01*
X001415Y00034D02*
Y0007839D01*
X0015011Y00087D01*
X0012524Y0000811D02*
X0018256D01*
X0010161Y0003174D02*
X0012524Y0000811D01*
X0018256D02*
X0018989Y0001544D01*
X0017575Y0002639D02*
Y000405D01*
X0017136Y00022D02*
X0017575Y0002639D01*
X0016982Y00022D02*
X0017136Y00022D01*
X0017925Y000595D02*
Y0006441D01*
X0017925Y0007139D02*
X0018121Y0007335D01*
X0017925Y0006441D02*
X0017925Y0006441D01*
Y000697D01*
X0018121Y0007335D02*
Y0007443D01*
X0017925Y000697D02*
Y0007088D01*
X0017925Y0007088D01*
Y0007139D01*
X0018975Y000405D02*
X0018989Y0004036D01*
X0016518Y0005957D02*
X0016525Y000595D01*
X0018975Y000595D02*
X0018982Y0005957D01*
X0017925Y000405D02*
X0017939Y0004036D01*
Y0002489D02*
Y0004036D01*
X0017287Y0001837D02*
X0017939Y0002489D01*
X001515Y0001837D02*
X0017287D01*
X001515Y0001837D02*
X001515Y0001837D01*
X0013524Y0001837D02*
X001515D01*
X0012125Y0003236D02*
X0013524Y0001837D01*
X0012125Y0003236D02*
Y0003565D01*
X0016525Y0003575D02*
Y000405D01*
X0014795Y0003269D02*
X0016219D01*
X0014514Y0003551D02*
X0014795Y0003269D01*
X0014514Y0003551D02*
Y0007688D01*
X0015161Y0008336D01*
X00161D01*
X0017562Y000405D02*
X0017575D01*
X0018618Y0005957D02*
X0018625Y000595D01*
X0018105Y0001175D02*
X0018625Y0001695D01*
X001725Y0001175D02*
X0018105D01*
X0016875Y000595D02*
X0016882Y0005957D01*
X0017561Y0006591D02*
X0017562Y0006591D01*
X00185Y0012699D02*
Y00135D01*
Y0012699D02*
X0018568Y001263D01*
X0018675D01*
X0018818Y0012487D01*
Y0011807D02*
Y0012487D01*
X0025182Y0011568D02*
Y0012487D01*
X002135Y0008336D02*
X0021954D01*
X0024818Y0011568D02*
Y0012487D01*
X0012489Y0003386D02*
Y0003565D01*
Y0003386D02*
X0012842Y0003033D01*
X0013145D01*
X0013321Y0002856D01*
Y0002554D02*
Y0002856D01*
Y0002554D02*
X0013675Y00022D01*
X0014846D01*
X0015062Y0002415D01*
X0015312D01*
X0015527Y00022D01*
X0015802D01*
X0016017Y0002415D01*
X0016267D01*
X0016482Y00022D01*
X0016982D01*
X0020317Y0008336D02*
X002135D01*
X0020059Y0008078D02*
X0020317Y0008336D01*
X0019809Y0008078D02*
X0020059D01*
X001955Y0008336D02*
X0019809Y0008078D01*
X00193Y0008336D02*
X001955D01*
X0019042Y0008078D02*
X00193Y0008336D01*
X0018792Y0008078D02*
X0019042D01*
X0018534Y0008336D02*
X0018792Y0008078D01*
X0018284Y0008336D02*
X0018534D01*
X0018025Y0008078D02*
X0018284Y0008336D01*
X0017775Y0008078D02*
X0018025D01*
X0017517Y0008336D02*
X0017775Y0008078D01*
X0017267Y0008336D02*
X0017517D01*
X0017008Y0008078D02*
X0017267Y0008336D01*
X0016758Y0008078D02*
X0017008D01*
X00165Y0008336D02*
X0016758Y0008078D01*
X00161Y0008336D02*
X00165D01*
X0012675Y0001175D02*
X001335D01*
X0010525Y0003325D02*
Y0003547D01*
Y0003325D02*
X0010882Y0002968D01*
X0011236D01*
X0011413Y0002791D01*
Y0002438D02*
Y0002791D01*
Y0002438D02*
X0011589Y0002261D01*
X0011943D01*
X001212Y0002084D01*
Y000173D02*
Y0002084D01*
Y000173D02*
X0012473Y0001377D01*
X0010525Y0003547D02*
Y0008036D01*
X0012473Y0001377D02*
X0012675Y0001175D01*
X0012125Y0007761D02*
Y0007914D01*
X0012489Y0007761D02*
Y0007764D01*
X0014387Y0009661D01*
X0012125Y0007914D02*
X0014236Y0010025D01*
X0021568Y001263D02*
X0021675D01*
X00215Y0012699D02*
X0021568Y001263D01*
X0021675D02*
X0021818Y0012487D01*
X00215Y0012699D02*
Y00135D01*
X0021818Y0011143D02*
Y0012487D01*
X00207Y0010025D02*
X0021818Y0011143D01*
X0014236Y0010025D02*
X00207D01*
X00225Y0012699D02*
Y00135D01*
X0022432Y001263D02*
X00225Y0012699D01*
X0022182Y0012487D02*
X0022325Y001263D01*
X0022432D01*
X0022182Y0010993D02*
Y0012487D01*
X0020851Y0009661D02*
X0022182Y0010993D01*
X0014387Y0009661D02*
X0020851D01*
X0019182Y0011657D02*
Y0012487D01*
X0019325Y001263D02*
X0019432D01*
X0019182Y0012487D02*
X0019325Y001263D01*
X0024675D02*
X0024818Y0012487D01*
X0024568Y001263D02*
X0024675D01*
X00195Y0012699D02*
Y00135D01*
X0019432Y001263D02*
X00195Y0012699D01*
X0025432Y001263D02*
X00255Y0012699D01*
Y00135D01*
X0025325Y001263D02*
X0025432D01*
X0025182Y0012487D02*
X0025325Y001263D01*
X00245Y0012699D02*
X0024568Y001263D01*
X00245Y0012699D02*
Y00135D01*
D28*
X0025033Y0011044D02*
D03*
X0024933Y0010005D02*
D03*
X0025183Y0010256D02*
D03*
X0024464Y000757D02*
D03*
X0023011Y0009022D02*
D03*
X002247Y0008481D02*
D03*
X0024206Y0010731D02*
D03*
X002519Y0009748D02*
D03*
X002591Y001D02*
D03*
X002591Y000953D02*
D03*
X0024207Y0007827D02*
D03*
X0023737Y0007826D02*
D03*
X0023737Y0008295D02*
D03*
X0023738Y0008296D02*
D03*
X0022754Y0009279D02*
D03*
D29*
X0005Y0005D02*
D03*
X0036Y0014D02*
D03*
D30*
X0027117Y0015031D02*
X00275Y0014648D01*
X0026494Y0015031D02*
X0027117D01*
X00275Y0012D02*
Y0014648D01*
Y0012D02*
X0028225Y0011275D01*
X0024525Y0017D02*
X0026494Y0015031D01*
X0014Y0017D02*
X0024525D01*
X00125Y0013099D02*
Y00155D01*
X0014Y0017D01*
X0028225Y00058D02*
Y0011275D01*
X00251Y00058D02*
X0028225D01*
X00201Y000655D02*
X002435D01*
X00251Y00058D01*
D31*
X00265Y0012075D02*
Y00135D01*
X00235Y0011975D02*
Y00135D01*
X00205Y00135D02*
Y001495D01*
Y00135D02*
X00205Y00135D01*
X00175D02*
Y001495D01*
D32*
X0018275Y000405D02*
Y0005D01*
X0016175D02*
Y000595D01*
X0017225Y000405D02*
Y0005D01*
X0016175Y000405D02*
Y0005D01*
X0022825Y0005D02*
Y000595D01*
X0021075Y0005D02*
Y000595D01*
X0017225Y0005D02*
Y0005545D01*
X0018275Y0005D02*
Y000595D01*
X0017225Y0005545D02*
X0017225Y0005545D01*
Y000595D01*
X0021075Y0005D02*
Y0005D01*
D33*
X001025Y0014D02*
D03*
X002875D02*
D03*
X00155Y0015275D02*
D03*
X00145Y0015075D02*
D03*
X00135D02*
D03*
X0018525Y001495D02*
D03*
X00175D02*
D03*
X00215D02*
D03*
X00205D02*
D03*
X002515Y0015275D02*
D03*
X00242D02*
D03*
X0020035Y0000846D02*
D03*
X0024Y0001D02*
D03*
X0026D02*
D03*
X00215Y00015D02*
D03*
X0022025Y0002233D02*
D03*
X0020701Y0002289D02*
D03*
X00199Y0002453D02*
D03*
X0034375Y0006375D02*
D03*
X0028Y0001D02*
D03*
X003D02*
D03*
X0032D02*
D03*
X0034D02*
D03*
X0036D02*
D03*
X00378Y00012D02*
D03*
X0038Y0003D02*
D03*
Y0005D02*
D03*
Y0007D02*
D03*
Y0009D02*
D03*
Y0011D02*
D03*
Y0013D02*
D03*
Y0015D02*
D03*
X0032Y002D02*
D03*
X003D02*
D03*
X0028D02*
D03*
X0026D02*
D03*
X0024D02*
D03*
X0022D02*
D03*
X002D02*
D03*
X0018D02*
D03*
X0016D02*
D03*
X0014D02*
D03*
X0012D02*
D03*
X001D02*
D03*
X0008D02*
D03*
X0006D02*
D03*
X0001Y0015D02*
D03*
Y0013D02*
D03*
Y0011D02*
D03*
Y0009D02*
D03*
Y0007D02*
D03*
Y0005D02*
D03*
Y0003D02*
D03*
X0011Y0001D02*
D03*
X0009D02*
D03*
X0007D02*
D03*
X0005D02*
D03*
X0003D02*
D03*
X00012Y00012D02*
D03*
X003045Y00122D02*
D03*
X002945Y00122D02*
D03*
X003245Y00122D02*
D03*
X003145D02*
D03*
X0031Y00023D02*
D03*
X0030525Y0003825D02*
D03*
X00296Y00065D02*
D03*
Y00051D02*
D03*
X0026475Y001505D02*
D03*
X00125Y0011975D02*
D03*
X00235D02*
D03*
X00265D02*
D03*
X0027075Y00042D02*
D03*
X0029375D02*
D03*
X0018118Y000745D02*
D03*
X0017368D02*
D03*
X0016175Y0005D02*
D03*
D34*
X0034725Y000405D02*
D03*
X0034675Y000865D02*
D03*
X0018475Y0006743D02*
D03*
X0019225D02*
D03*
X0016275Y0006743D02*
D03*
X0017025D02*
D03*
X0017225Y0005D02*
D03*
X0018275D02*
D03*
X0023475D02*
D03*
X001552D02*
D03*
X00195D02*
D03*
M02*
