G04*
G04 #@! TF.GenerationSoftware,Altium Limited,Altium Designer,21.8.1 (53)*
G04*
G04 Layer_Physical_Order=4*
G04 Layer_Color=14186556*
%FSTAX43Y43*%
%MOMM*%
G71*
G04*
G04 #@! TF.SameCoordinates,77AD0121-2578-4578-B714-FB4ED1F38CAD*
G04*
G04*
G04 #@! TF.FilePolarity,Positive*
G04*
G01*
G75*
%ADD11C,0.150*%
%ADD12C,0.300*%
%ADD14R,0.610X2.000*%
%ADD15R,2.680X3.600*%
%ADD26C,2.700*%
%ADD27C,0.164*%
%ADD29C,1.000*%
%ADD30C,0.500*%
%ADD31C,0.600*%
%ADD33C,0.600*%
%ADD34C,0.550*%
G36*
X001085Y00181D02*
X00066D01*
X0006Y00175D01*
Y001375D01*
X000675Y0013D01*
X001D01*
X001085Y001385D01*
Y00181D01*
D02*
G37*
G36*
X003083D02*
Y00145D01*
X002908Y001275D01*
X002775D01*
X002725Y001325D01*
Y001525D01*
X002625Y001625D01*
Y001775D01*
X00266Y00181D01*
X002815D01*
X003083D01*
D02*
G37*
D11*
X0006075Y0008D02*
G03*
X0006075Y0008I-0001075J0D01*
G01*
X0037075Y0014D02*
G03*
X0037075Y0014I-0001075J0D01*
G01*
X0011306Y0003012D02*
Y0015056D01*
X0011925Y0015675D01*
X0011306Y0003012D02*
X0012855Y0001464D01*
X0011741Y0014766D02*
X0012025Y001505D01*
X0013475D01*
X0011741Y0003259D02*
X0013Y0002D01*
X0011741Y0003259D02*
Y0014766D01*
X0011925Y0015675D02*
X00139D01*
X0013Y0002D02*
X001932D01*
X0013475Y001505D02*
X00135Y0015075D01*
X0012855Y0001464D02*
X0021464D01*
X00139Y0015675D02*
X00145Y0015075D01*
X00245Y0015925D02*
X002515Y0015275D01*
X00245Y0015925D02*
Y00175D01*
X00242Y0015275D02*
Y0017624D01*
X00225Y00135D02*
Y0016773D01*
X00235Y00135D02*
Y0017349D01*
X00225Y0016773D02*
X0025127Y00194D01*
X00235Y0017349D02*
X0025251Y00191D01*
X0031249D01*
X00242Y0017624D02*
X0025376Y00188D01*
X00245Y00175D02*
X00255Y00185D01*
X0025127Y00194D02*
X0031373D01*
X0031249Y00191D02*
X00322Y0018149D01*
X0025376Y00188D02*
X0031124D01*
X00255Y00185D02*
X0031D01*
X0031373Y00194D02*
X00325Y0018273D01*
Y001225D02*
Y0018273D01*
X00322Y001295D02*
Y0018149D01*
X0031124Y00188D02*
X00319Y0018024D01*
X0031Y00185D02*
X00316Y00179D01*
Y001435D02*
Y00179D01*
X002945Y00122D02*
X00316Y001435D01*
X00319Y001365D02*
Y0018024D01*
X003045Y00122D02*
X00319Y001365D01*
X003145Y00122D02*
X00322Y001295D01*
X003245Y00122D02*
X00325Y001225D01*
X0021676Y0005825D02*
X00245Y0008649D01*
X0019953Y0002453D02*
X0021676Y0004176D01*
Y0005825D01*
X00245Y0008649D02*
Y00135D01*
X00199Y0002453D02*
X0019953D01*
X00255Y0009D02*
Y00135D01*
X0022144Y0005644D02*
X00255Y0009D01*
X0020701Y0002289D02*
X0022144Y0003731D01*
Y0005644D01*
X0019556Y0001764D02*
X0020919D01*
X001932Y0002D02*
X0019556Y0001764D01*
X0021464Y0001464D02*
X00215Y00015D01*
X0020919Y0001764D02*
X0021388Y0002233D01*
X0022025D01*
X0030525Y000278D02*
X0031Y0002305D01*
X0030525Y000278D02*
Y0003825D01*
X0031Y00023D02*
Y0002305D01*
X00296Y00051D02*
Y00065D01*
D12*
X00185Y0013099D02*
X0018513Y0013111D01*
Y0014938D02*
X0018525Y001495D01*
D14*
X00125Y00135D02*
D03*
X00135D02*
D03*
X00145D02*
D03*
X00155D02*
D03*
X00165D02*
D03*
X00175D02*
D03*
X00185D02*
D03*
X00195D02*
D03*
X00205D02*
D03*
X00215D02*
D03*
X00225D02*
D03*
X00235D02*
D03*
X00245D02*
D03*
X00255D02*
D03*
X00265D02*
D03*
D15*
X002949Y00163D02*
D03*
X000951D02*
D03*
D26*
X003625Y001825D02*
D03*
X000275D02*
D03*
D27*
X0018105Y000745D02*
Y0007582D01*
X0017382Y000745D02*
Y0007582D01*
X00135Y0012699D02*
Y00135D01*
X0013661Y001263D02*
X0013818Y0012473D01*
X0013568Y001263D02*
X0013661D01*
X00135Y0012699D02*
X0013568Y001263D01*
X0013818Y0010168D02*
Y0012473D01*
X0014432Y001263D02*
X00145Y0012699D01*
Y00135D01*
X0014182Y0012473D02*
X0014339Y001263D01*
X0014432D01*
X0014182Y0010318D02*
Y0012473D01*
X00205Y0012699D02*
Y00135D01*
X0020339Y001263D02*
X0020432D01*
X00205Y0012699D01*
X0020182Y0011201D02*
Y0012473D01*
X0020339Y001263D01*
X0019568D02*
X0019661D01*
X0019818Y001105D02*
Y0012473D01*
X0019661Y001263D02*
X0019818Y0012473D01*
X00195Y0012699D02*
X0019568Y001263D01*
X00195Y0012699D02*
Y00135D01*
X00165Y0012699D02*
Y00135D01*
X0016568Y001263D02*
X0016661D01*
X00165Y0012699D02*
X0016568Y001263D01*
X0016818Y0010182D02*
Y0012473D01*
X0016661Y001263D02*
X0016818Y0012473D01*
X0017339Y001263D02*
X0017432D01*
X0017182Y0012473D02*
X0017339Y001263D01*
X0017182Y0010332D02*
Y0012473D01*
X0017432Y001263D02*
X00175Y0012699D01*
Y00135D01*
X0017724Y0009786D02*
X0018136Y0009374D01*
Y0008787D02*
Y0009374D01*
X0017925Y0008061D02*
X00185Y0008636D01*
Y0009525D01*
X0017562Y0008212D02*
X0018136Y0008787D01*
X0017875Y001015D02*
X00185Y0009525D01*
X0017213Y0009786D02*
X0017724D01*
X0017364Y001015D02*
X0017875D01*
X0016818Y0010182D02*
X0017213Y0009786D01*
X0017182Y0010332D02*
X0017364Y001015D01*
X0019837Y0007998D02*
X0019837D01*
X00209Y0009061D01*
X0019122Y0007283D02*
X0019837Y0007998D01*
X0018759Y0007434D02*
X0019687Y0008362D01*
X0019687D01*
X0020536Y0009211D01*
X0013818Y0010168D02*
X0016436Y0007549D01*
X0014182Y0010318D02*
X00168Y00077D01*
X0017562Y0007761D02*
Y0008212D01*
X0017925Y0007761D02*
Y0008061D01*
X0017382Y0007582D02*
X0017562Y0007761D01*
X0017925D02*
X0018105Y0007582D01*
X00209Y0009061D02*
Y0010482D01*
X0018475Y0006743D02*
Y0006848D01*
X0019151Y0006817D02*
X0019225Y0006743D01*
X0019122Y000708D02*
Y0007283D01*
Y000708D02*
X0019151Y0007051D01*
X0018759Y0007131D02*
Y0007434D01*
X0018475Y0006848D02*
X0018759Y0007131D01*
X0019151Y0006817D02*
Y0007051D01*
X0020536Y0009211D02*
Y0010332D01*
X0020182Y0011201D02*
X00209Y0010482D01*
X0019818Y001105D02*
X0020536Y0010332D01*
X00168Y0006968D02*
Y00077D01*
X0016436Y0006905D02*
Y0007549D01*
X00168Y0006968D02*
X0017025Y0006743D01*
X0016275D02*
X0016436Y0006905D01*
D29*
X0005Y0008D02*
D03*
X0036Y0014D02*
D03*
D30*
X0026494Y0015004D02*
X00265Y0014998D01*
X0026494Y0015019D02*
X00265Y0015025D01*
Y0013099D02*
Y0014998D01*
X0026494Y0015004D02*
Y0015019D01*
D31*
X00155Y0015275D02*
X00155Y0015275D01*
Y00135D02*
Y0015275D01*
X0018513Y0013111D02*
Y0014938D01*
X00215Y0013099D02*
Y001495D01*
X00125Y0012075D02*
Y0013099D01*
D33*
X001025Y0014D02*
D03*
X002875D02*
D03*
X00155Y0015275D02*
D03*
X00145Y0015075D02*
D03*
X00135D02*
D03*
X0018525Y001495D02*
D03*
X00175D02*
D03*
X00215D02*
D03*
X00205D02*
D03*
X002515Y0015275D02*
D03*
X00242D02*
D03*
X0020035Y0000846D02*
D03*
X0024Y0001D02*
D03*
X0026D02*
D03*
X00215Y00015D02*
D03*
X0022025Y0002233D02*
D03*
X0020701Y0002289D02*
D03*
X00199Y0002453D02*
D03*
X0034375Y0006375D02*
D03*
X0028Y0001D02*
D03*
X003D02*
D03*
X0032D02*
D03*
X0034D02*
D03*
X0036D02*
D03*
X00378Y00012D02*
D03*
X0038Y0003D02*
D03*
Y0005D02*
D03*
Y0007D02*
D03*
Y0009D02*
D03*
Y0011D02*
D03*
Y0013D02*
D03*
Y0015D02*
D03*
X0032Y002D02*
D03*
X003D02*
D03*
X0028D02*
D03*
X0026D02*
D03*
X0024D02*
D03*
X0022D02*
D03*
X002D02*
D03*
X0018D02*
D03*
X0016D02*
D03*
X0014D02*
D03*
X0012D02*
D03*
X001D02*
D03*
X0008D02*
D03*
X0006D02*
D03*
X0001Y0015D02*
D03*
Y0013D02*
D03*
Y0011D02*
D03*
Y0009D02*
D03*
Y0007D02*
D03*
Y0005D02*
D03*
Y0003D02*
D03*
X0011Y0001D02*
D03*
X0009D02*
D03*
X0007D02*
D03*
X0005D02*
D03*
X0003D02*
D03*
X00012Y00012D02*
D03*
X003045Y00122D02*
D03*
X002945Y00122D02*
D03*
X003245Y00122D02*
D03*
X003145D02*
D03*
X0031Y00023D02*
D03*
X0030525Y0003825D02*
D03*
X00296Y00065D02*
D03*
Y00051D02*
D03*
X0026475Y001505D02*
D03*
X00125Y0011975D02*
D03*
X00235D02*
D03*
X00265D02*
D03*
X0027075Y00042D02*
D03*
X0029375D02*
D03*
X0018118Y000745D02*
D03*
X0017368D02*
D03*
X0016175Y0005D02*
D03*
D34*
X0034725Y000405D02*
D03*
X0034675Y000865D02*
D03*
X0018475Y0006743D02*
D03*
X0019225D02*
D03*
X0016275Y0006743D02*
D03*
X0017025D02*
D03*
X0017225Y0005D02*
D03*
X0018275D02*
D03*
X0023475D02*
D03*
X001552D02*
D03*
X00195D02*
D03*
M02*
