G04*
G04 #@! TF.GenerationSoftware,Altium Limited,Altium Designer,21.8.1 (53)*
G04*
G04 Layer_Color=8388736*
%FSTAX43Y43*%
%MOMM*%
G71*
G04*
G04 #@! TF.SameCoordinates,77AD0121-2578-4578-B714-FB4ED1F38CAD*
G04*
G04*
G04 #@! TF.FilePolarity,Positive*
G04*
G01*
G75*
%ADD10C,0.200*%
%ADD11C,0.150*%
%ADD12C,0.300*%
%ADD37C,0.254*%
%ADD38C,0.381*%
%ADD39C,0.350*%
%ADD40C,0.400*%
%ADD41C,0.152*%
D10*
X00432Y009932D02*
Y0098321D01*
X0043866D01*
X0044366Y0098987D02*
X00447D01*
X0044866Y009882D01*
Y0098321D01*
X0044366D01*
X00442Y0098487D01*
X0044366Y0098654D01*
X0044866D01*
X0045199Y0098987D02*
Y0098487D01*
X0045366Y0098321D01*
X0045866D01*
Y0098154D01*
X0045699Y0097987D01*
X0045533D01*
X0045866Y0098321D02*
Y0098987D01*
X0046699Y0098321D02*
X0046366D01*
X0046199Y0098487D01*
Y009882D01*
X0046366Y0098987D01*
X0046699D01*
X0046865Y009882D01*
Y0098654D01*
X0046199D01*
X0047199Y0098987D02*
Y0098321D01*
Y0098654D01*
X0047365Y009882D01*
X0047532Y0098987D01*
X0047699D01*
X0048198Y0098321D02*
X0048698D01*
X0048865Y0098487D01*
X0048698Y0098654D01*
X0048365D01*
X0048198Y009882D01*
X0048365Y0098987D01*
X0048865D01*
X0050198D02*
Y0098321D01*
Y0098654D01*
X0050364Y009882D01*
X0050531Y0098987D01*
X0050698D01*
X0051697Y0098321D02*
X0051364D01*
X0051197Y0098487D01*
Y009882D01*
X0051364Y0098987D01*
X0051697D01*
X0051864Y009882D01*
Y0098654D01*
X0051197D01*
X0052197Y0098321D02*
X005253D01*
X0052364D01*
Y009932D01*
X0052197D01*
X0053197Y0098987D02*
X005353D01*
X0053697Y009882D01*
Y0098321D01*
X0053197D01*
X005303Y0098487D01*
X0053197Y0098654D01*
X0053697D01*
X0054196Y0099154D02*
Y0098987D01*
X005403D01*
X0054363D01*
X0054196D01*
Y0098487D01*
X0054363Y0098321D01*
X0055363D02*
X005503D01*
X0054863Y0098487D01*
Y009882D01*
X005503Y0098987D01*
X0055363D01*
X0055529Y009882D01*
Y0098654D01*
X0054863D01*
X0056529Y009932D02*
Y0098321D01*
X0056029D01*
X0055863Y0098487D01*
Y009882D01*
X0056029Y0098987D01*
X0056529D01*
X0058029Y0099154D02*
Y0098987D01*
X0057862D01*
X0058195D01*
X0058029D01*
Y0098487D01*
X0058195Y0098321D01*
X0058862D02*
X0059195D01*
X0059361Y0098487D01*
Y009882D01*
X0059195Y0098987D01*
X0058862D01*
X0058695Y009882D01*
Y0098487D01*
X0058862Y0098321D01*
X0060861Y0099154D02*
Y0098987D01*
X0060694D01*
X0061028D01*
X0060861D01*
Y0098487D01*
X0061028Y0098321D01*
X0061527Y009932D02*
Y0098321D01*
Y009882D01*
X0061694Y0098987D01*
X0062027D01*
X0062194Y009882D01*
Y0098321D01*
X0063027D02*
X0062694D01*
X0062527Y0098487D01*
Y009882D01*
X0062694Y0098987D01*
X0063027D01*
X0063194Y009882D01*
Y0098654D01*
X0062527D01*
X0064693Y0098987D02*
X0065026D01*
X0065193Y009882D01*
Y0098321D01*
X0064693D01*
X0064526Y0098487D01*
X0064693Y0098654D01*
X0065193D01*
X0065526Y0098321D02*
X0066026D01*
X0066193Y0098487D01*
X0066026Y0098654D01*
X0065693D01*
X0065526Y009882D01*
X0065693Y0098987D01*
X0066193D01*
X0066526Y0098321D02*
X0067026D01*
X0067192Y0098487D01*
X0067026Y0098654D01*
X0066692D01*
X0066526Y009882D01*
X0066692Y0098987D01*
X0067192D01*
X0068025Y0098321D02*
X0067692D01*
X0067525Y0098487D01*
Y009882D01*
X0067692Y0098987D01*
X0068025D01*
X0068192Y009882D01*
Y0098654D01*
X0067525D01*
X0068525Y0098321D02*
Y0098987D01*
X0068692D01*
X0068858Y009882D01*
Y0098321D01*
Y009882D01*
X0069025Y0098987D01*
X0069192Y009882D01*
Y0098321D01*
X0069525Y009932D02*
Y0098321D01*
X0070025D01*
X0070191Y0098487D01*
Y0098654D01*
Y009882D01*
X0070025Y0098987D01*
X0069525D01*
X0070525Y0098321D02*
X0070858D01*
X0070691D01*
Y009932D01*
X0070525D01*
X0071358Y0098987D02*
Y0098487D01*
X0071524Y0098321D01*
X0072024D01*
Y0098154D01*
X0071857Y0097987D01*
X0071691D01*
X0072024Y0098321D02*
Y0098987D01*
X0073524D02*
X0073857D01*
X0074023Y009882D01*
Y0098321D01*
X0073524D01*
X0073357Y0098487D01*
X0073524Y0098654D01*
X0074023D01*
X0074357Y0098987D02*
Y0098321D01*
Y0098654D01*
X0074523Y009882D01*
X007469Y0098987D01*
X0074856D01*
X0075856Y0098321D02*
X0075523D01*
X0075356Y0098487D01*
Y009882D01*
X0075523Y0098987D01*
X0075856D01*
X0076023Y009882D01*
Y0098654D01*
X0075356D01*
X0077356Y0098321D02*
Y0098987D01*
X0077855D01*
X0078022Y009882D01*
Y0098321D01*
X0078522D02*
X0078855D01*
X0079022Y0098487D01*
Y009882D01*
X0078855Y0098987D01*
X0078522D01*
X0078355Y009882D01*
Y0098487D01*
X0078522Y0098321D01*
X0079522Y0099154D02*
Y0098987D01*
X0079355D01*
X0079688D01*
X0079522D01*
Y0098487D01*
X0079688Y0098321D01*
X0081188D02*
X0081521D01*
X0081354D01*
Y0098987D01*
X0081188D01*
X0082021Y0098321D02*
Y0098987D01*
X0082521D01*
X0082687Y009882D01*
Y0098321D01*
X0083687Y0098987D02*
X0083187D01*
X0083021Y009882D01*
Y0098487D01*
X0083187Y0098321D01*
X0083687D01*
X008402D02*
X0084353D01*
X0084187D01*
Y009932D01*
X008402D01*
X0084853Y0098987D02*
Y0098487D01*
X008502Y0098321D01*
X008552D01*
Y0098987D01*
X0086519Y009932D02*
Y0098321D01*
X008602D01*
X0085853Y0098487D01*
Y009882D01*
X008602Y0098987D01*
X0086519D01*
X0087352Y0098321D02*
X0087019D01*
X0086853Y0098487D01*
Y009882D01*
X0087019Y0098987D01*
X0087352D01*
X0087519Y009882D01*
Y0098654D01*
X0086853D01*
X0088519Y009932D02*
Y0098321D01*
X0088019D01*
X0087852Y0098487D01*
Y009882D01*
X0088019Y0098987D01*
X0088519D01*
X0089852Y009932D02*
Y0098321D01*
X0090351D01*
X0090518Y0098487D01*
Y0098654D01*
Y009882D01*
X0090351Y0098987D01*
X0089852D01*
X0090851D02*
Y0098487D01*
X0091018Y0098321D01*
X0091518D01*
Y0098154D01*
X0091351Y0097987D01*
X0091185D01*
X0091518Y0098321D02*
Y0098987D01*
X0043866Y0097307D02*
Y0096308D01*
X0043367D01*
X00432Y0096474D01*
Y0096808D01*
X0043367Y0096974D01*
X0043866D01*
X00447Y0096308D02*
X0044366D01*
X00442Y0096474D01*
Y0096808D01*
X0044366Y0096974D01*
X00447D01*
X0044866Y0096808D01*
Y0096641D01*
X00442D01*
X0045366Y0096308D02*
Y0097141D01*
Y0096808D01*
X0045199D01*
X0045533D01*
X0045366D01*
Y0097141D01*
X0045533Y0097307D01*
X0046199Y0096974D02*
X0046532D01*
X0046699Y0096808D01*
Y0096308D01*
X0046199D01*
X0046032Y0096474D01*
X0046199Y0096641D01*
X0046699D01*
X0047032Y0096974D02*
Y0096474D01*
X0047199Y0096308D01*
X0047699D01*
Y0096974D01*
X0048032Y0096308D02*
X0048365D01*
X0048198D01*
Y0097307D01*
X0048032D01*
X0049031Y0097141D02*
Y0096974D01*
X0048865D01*
X0049198D01*
X0049031D01*
Y0096474D01*
X0049198Y0096308D01*
X0050698D02*
X0051031D01*
X0050864D01*
Y0096974D01*
X0050698D01*
X0051531Y0096308D02*
Y0096974D01*
X005203D01*
X0052197Y0096808D01*
Y0096308D01*
X0053697Y0097141D02*
Y0096974D01*
X005353D01*
X0053863D01*
X0053697D01*
Y0096474D01*
X0053863Y0096308D01*
X0054363Y0097307D02*
Y0096308D01*
Y0096808D01*
X005453Y0096974D01*
X0054863D01*
X005503Y0096808D01*
Y0096308D01*
X0055863D02*
X0055529D01*
X0055363Y0096474D01*
Y0096808D01*
X0055529Y0096974D01*
X0055863D01*
X0056029Y0096808D01*
Y0096641D01*
X0055363D01*
X0057362Y0095974D02*
Y0096974D01*
X0057862D01*
X0058029Y0096808D01*
Y0096474D01*
X0057862Y0096308D01*
X0057362D01*
X0058528Y0096974D02*
X0058862D01*
X0059028Y0096808D01*
Y0096308D01*
X0058528D01*
X0058362Y0096474D01*
X0058528Y0096641D01*
X0059028D01*
X0060028Y0096974D02*
X0059528D01*
X0059361Y0096808D01*
Y0096474D01*
X0059528Y0096308D01*
X0060028D01*
X0060361D02*
Y0097307D01*
Y0096641D02*
X0060861Y0096974D01*
X0060361Y0096641D02*
X0060861Y0096308D01*
X0061527Y0096974D02*
X0061861D01*
X0062027Y0096808D01*
Y0096308D01*
X0061527D01*
X0061361Y0096474D01*
X0061527Y0096641D01*
X0062027D01*
X0062694Y0095974D02*
X006286D01*
X0063027Y0096141D01*
Y0096974D01*
X0062527D01*
X006236Y0096808D01*
Y0096474D01*
X0062527Y0096308D01*
X0063027D01*
X006386D02*
X0063527D01*
X006336Y0096474D01*
Y0096808D01*
X0063527Y0096974D01*
X006386D01*
X0064027Y0096808D01*
Y0096641D01*
X006336D01*
X0065693Y0095974D02*
X0065859D01*
X0066026Y0096141D01*
Y0096974D01*
X0065526D01*
X006536Y0096808D01*
Y0096474D01*
X0065526Y0096308D01*
X0066026D01*
X0066859D02*
X0066526D01*
X0066359Y0096474D01*
Y0096808D01*
X0066526Y0096974D01*
X0066859D01*
X0067026Y0096808D01*
Y0096641D01*
X0066359D01*
X0067359Y0096308D02*
Y0096974D01*
X0067859D01*
X0068025Y0096808D01*
Y0096308D01*
X0068858D02*
X0068525D01*
X0068359Y0096474D01*
Y0096808D01*
X0068525Y0096974D01*
X0068858D01*
X0069025Y0096808D01*
Y0096641D01*
X0068359D01*
X0069358Y0096974D02*
Y0096308D01*
Y0096641D01*
X0069525Y0096808D01*
X0069691Y0096974D01*
X0069858D01*
X0070525D02*
X0070858D01*
X0071024Y0096808D01*
Y0096308D01*
X0070525D01*
X0070358Y0096474D01*
X0070525Y0096641D01*
X0071024D01*
X0071524Y0097141D02*
Y0096974D01*
X0071358D01*
X0071691D01*
X0071524D01*
Y0096474D01*
X0071691Y0096308D01*
X007269D02*
X0072357D01*
X0072191Y0096474D01*
Y0096808D01*
X0072357Y0096974D01*
X007269D01*
X0072857Y0096808D01*
Y0096641D01*
X0072191D01*
X0073857Y0097307D02*
Y0096308D01*
X0073357D01*
X007319Y0096474D01*
Y0096808D01*
X0073357Y0096974D01*
X0073857D01*
X0075356Y0096308D02*
Y0097141D01*
Y0096808D01*
X007519D01*
X0075523D01*
X0075356D01*
Y0097141D01*
X0075523Y0097307D01*
X0076189Y0096308D02*
X0076523D01*
X0076689Y0096474D01*
Y0096808D01*
X0076523Y0096974D01*
X0076189D01*
X0076023Y0096808D01*
Y0096474D01*
X0076189Y0096308D01*
X0077022Y0096974D02*
Y0096308D01*
Y0096641D01*
X0077189Y0096808D01*
X0077356Y0096974D01*
X0077522D01*
X0079188Y0097141D02*
Y0096974D01*
X0079022D01*
X0079355D01*
X0079188D01*
Y0096474D01*
X0079355Y0096308D01*
X0079855Y0097307D02*
Y0096308D01*
Y0096808D01*
X0080021Y0096974D01*
X0080355D01*
X0080521Y0096808D01*
Y0096308D01*
X0081354D02*
X0081021D01*
X0080855Y0096474D01*
Y0096808D01*
X0081021Y0096974D01*
X0081354D01*
X0081521Y0096808D01*
Y0096641D01*
X0080855D01*
X0082854Y0096308D02*
X0083187D01*
X0083021D01*
Y0097307D01*
X0082854D01*
X0083854Y0096974D02*
X0084187D01*
X0084353Y0096808D01*
Y0096308D01*
X0083854D01*
X0083687Y0096474D01*
X0083854Y0096641D01*
X0084353D01*
X0084687Y0096308D02*
Y0096974D01*
X0084853D01*
X008502Y0096808D01*
Y0096308D01*
Y0096808D01*
X0085186Y0096974D01*
X0085353Y0096808D01*
Y0096308D01*
X0085686D02*
X008602D01*
X0085853D01*
Y0096974D01*
X0085686D01*
X0086519Y0096308D02*
Y0096974D01*
X0087019D01*
X0087186Y0096808D01*
Y0096308D01*
X0087686Y0096974D02*
X0088019D01*
X0088186Y0096808D01*
Y0096308D01*
X0087686D01*
X0087519Y0096474D01*
X0087686Y0096641D01*
X0088186D01*
X0088685Y0097141D02*
Y0096974D01*
X0088519D01*
X0088852D01*
X0088685D01*
Y0096474D01*
X0088852Y0096308D01*
X0089852D02*
X0089518D01*
X0089352Y0096474D01*
Y0096808D01*
X0089518Y0096974D01*
X0089852D01*
X0090018Y0096808D01*
Y0096641D01*
X0089352D01*
X00432Y0094295D02*
Y0094961D01*
X0043367D01*
X0043533Y0094795D01*
Y0094295D01*
Y0094795D01*
X00437Y0094961D01*
X0043866Y0094795D01*
Y0094295D01*
X0044366Y0094961D02*
X00447D01*
X0044866Y0094795D01*
Y0094295D01*
X0044366D01*
X00442Y0094461D01*
X0044366Y0094628D01*
X0044866D01*
X0045199Y0094295D02*
Y0094961D01*
X0045699D01*
X0045866Y0094795D01*
Y0094295D01*
X0046199Y0094961D02*
Y0094461D01*
X0046366Y0094295D01*
X0046865D01*
Y0094961D01*
X0047365Y0094295D02*
Y0095128D01*
Y0094795D01*
X0047199D01*
X0047532D01*
X0047365D01*
Y0095128D01*
X0047532Y0095295D01*
X0048198Y0094961D02*
X0048532D01*
X0048698Y0094795D01*
Y0094295D01*
X0048198D01*
X0048032Y0094461D01*
X0048198Y0094628D01*
X0048698D01*
X0049698Y0094961D02*
X0049198D01*
X0049031Y0094795D01*
Y0094461D01*
X0049198Y0094295D01*
X0049698D01*
X0050198Y0095128D02*
Y0094961D01*
X0050031D01*
X0050364D01*
X0050198D01*
Y0094461D01*
X0050364Y0094295D01*
X0050864Y0094961D02*
Y0094461D01*
X0051031Y0094295D01*
X0051531D01*
Y0094961D01*
X0051864D02*
Y0094295D01*
Y0094628D01*
X005203Y0094795D01*
X0052197Y0094961D01*
X0052364D01*
X0053363Y0094295D02*
X005303D01*
X0052864Y0094461D01*
Y0094795D01*
X005303Y0094961D01*
X0053363D01*
X005353Y0094795D01*
Y0094628D01*
X0052864D01*
X0053863Y0094961D02*
Y0094295D01*
Y0094628D01*
X005403Y0094795D01*
X0054196Y0094961D01*
X0054363D01*
X0054863Y0094295D02*
Y0094461D01*
X005503D01*
Y0094295D01*
X0054863D01*
X00432Y0111487D02*
X0043866D01*
X0043533D01*
Y0110487D01*
X00442Y0111487D02*
Y0110487D01*
Y0110987D01*
X0044366Y0111154D01*
X00447D01*
X0044866Y0110987D01*
Y0110487D01*
X0045699D02*
X0045366D01*
X0045199Y0110654D01*
Y0110987D01*
X0045366Y0111154D01*
X0045699D01*
X0045866Y0110987D01*
Y011082D01*
X0045199D01*
X0047199Y0110487D02*
X0047699D01*
X0047865Y0110654D01*
X0047699Y011082D01*
X0047365D01*
X0047199Y0110987D01*
X0047365Y0111154D01*
X0047865D01*
X0048365Y0110487D02*
X0048698D01*
X0048865Y0110654D01*
Y0110987D01*
X0048698Y0111154D01*
X0048365D01*
X0048198Y0110987D01*
Y0110654D01*
X0048365Y0110487D01*
X0049198D02*
X0049531D01*
X0049365D01*
Y0111487D01*
X0049198D01*
X0050698D02*
Y0110487D01*
X0050198D01*
X0050031Y0110654D01*
Y0110987D01*
X0050198Y0111154D01*
X0050698D01*
X0051531Y0110487D02*
X0051197D01*
X0051031Y0110654D01*
Y0110987D01*
X0051197Y0111154D01*
X0051531D01*
X0051697Y0110987D01*
Y011082D01*
X0051031D01*
X005203Y0111154D02*
Y0110487D01*
Y011082D01*
X0052197Y0110987D01*
X0052364Y0111154D01*
X005253D01*
X005403Y0110487D02*
Y0111154D01*
X0054196D01*
X0054363Y0110987D01*
Y0110487D01*
Y0110987D01*
X005453Y0111154D01*
X0054696Y0110987D01*
Y0110487D01*
X0055196Y0111154D02*
X0055529D01*
X0055696Y0110987D01*
Y0110487D01*
X0055196D01*
X005503Y0110654D01*
X0055196Y011082D01*
X0055696D01*
X0056029Y0110487D02*
X0056529D01*
X0056696Y0110654D01*
X0056529Y011082D01*
X0056196D01*
X0056029Y0110987D01*
X0056196Y0111154D01*
X0056696D01*
X0057029Y0110487D02*
Y0111487D01*
Y011082D02*
X0057529Y0111154D01*
X0057029Y011082D02*
X0057529Y0110487D01*
X0059528D02*
X0059195D01*
X0059028Y0110654D01*
Y0110987D01*
X0059195Y0111154D01*
X0059528D01*
X0059695Y0110987D01*
Y011082D01*
X0059028D01*
X0060028Y0111154D02*
X0060694Y0110487D01*
X0060361Y011082D01*
X0060694Y0111154D01*
X0060028Y0110487D01*
X0061028Y0110154D02*
Y0111154D01*
X0061527D01*
X0061694Y0110987D01*
Y0110654D01*
X0061527Y0110487D01*
X0061028D01*
X0062194Y0111154D02*
X0062527D01*
X0062694Y0110987D01*
Y0110487D01*
X0062194D01*
X0062027Y0110654D01*
X0062194Y011082D01*
X0062694D01*
X0063027Y0110487D02*
Y0111154D01*
X0063527D01*
X0063693Y0110987D01*
Y0110487D01*
X0064027D02*
X0064526D01*
X0064693Y0110654D01*
X0064526Y011082D01*
X0064193D01*
X0064027Y0110987D01*
X0064193Y0111154D01*
X0064693D01*
X0065026Y0110487D02*
X006536D01*
X0065193D01*
Y0111154D01*
X0065026D01*
X0066026Y0110487D02*
X0066359D01*
X0066526Y0110654D01*
Y0110987D01*
X0066359Y0111154D01*
X0066026D01*
X0065859Y0110987D01*
Y0110654D01*
X0066026Y0110487D01*
X0066859D02*
Y0111154D01*
X0067359D01*
X0067525Y0110987D01*
Y0110487D01*
X0069358D02*
X0069025D01*
X0068858Y0110654D01*
Y0110987D01*
X0069025Y0111154D01*
X0069358D01*
X0069525Y0110987D01*
Y011082D01*
X0068858D01*
X0070525Y0110154D02*
Y0111154D01*
X0070025D01*
X0069858Y0110987D01*
Y0110654D01*
X0070025Y0110487D01*
X0070525D01*
X0070858Y0111154D02*
Y0110654D01*
X0071024Y0110487D01*
X0071524D01*
Y0111154D01*
X0072024D02*
X0072357D01*
X0072524Y0110987D01*
Y0110487D01*
X0072024D01*
X0071857Y0110654D01*
X0072024Y011082D01*
X0072524D01*
X0072857Y0110487D02*
X007319D01*
X0073024D01*
Y0111487D01*
X0072857D01*
X007369Y0110487D02*
X007419D01*
X0074357Y0110654D01*
X007419Y011082D01*
X0073857D01*
X007369Y0110987D01*
X0073857Y0111154D01*
X0074357D01*
X007569Y011132D02*
X0075856Y0111487D01*
X0076189D01*
X0076356Y011132D01*
Y0110654D01*
X0076189Y0110487D01*
X0075856D01*
X007569Y0110654D01*
Y011132D01*
X0076689Y0110487D02*
Y0111154D01*
X0076856D01*
X0077022Y0110987D01*
Y0110487D01*
Y0110987D01*
X0077189Y0111154D01*
X0077356Y0110987D01*
Y0110487D01*
X0077689D02*
Y0111154D01*
X0077855D01*
X0078022Y0110987D01*
Y0110487D01*
Y0110987D01*
X0078189Y0111154D01*
X0078355Y0110987D01*
Y0110487D01*
X0078689D02*
Y0110654D01*
X0078855D01*
Y0110487D01*
X0078689D01*
X0080521Y0111487D02*
X0081188D01*
X0080855D01*
Y0110487D01*
X0081521Y0111487D02*
Y0110487D01*
Y0110987D01*
X0081688Y0111154D01*
X0082021D01*
X0082187Y0110987D01*
Y0110487D01*
X0083021D02*
X0082687D01*
X0082521Y0110654D01*
Y0110987D01*
X0082687Y0111154D01*
X0083021D01*
X0083187Y0110987D01*
Y011082D01*
X0082521D01*
X00432Y0108474D02*
Y0109141D01*
X0043367D01*
X0043533Y0108974D01*
Y0108474D01*
Y0108974D01*
X00437Y0109141D01*
X0043866Y0108974D01*
Y0108474D01*
X0044366Y0109141D02*
X00447D01*
X0044866Y0108974D01*
Y0108474D01*
X0044366D01*
X00442Y0108641D01*
X0044366Y0108808D01*
X0044866D01*
X0045199Y0108474D02*
Y0109141D01*
X0045699D01*
X0045866Y0108974D01*
Y0108474D01*
X0046199Y0109141D02*
Y0108641D01*
X0046366Y0108474D01*
X0046865D01*
Y0109141D01*
X0047365Y0108474D02*
Y0109307D01*
Y0108974D01*
X0047199D01*
X0047532D01*
X0047365D01*
Y0109307D01*
X0047532Y0109474D01*
X0048198Y0109141D02*
X0048532D01*
X0048698Y0108974D01*
Y0108474D01*
X0048198D01*
X0048032Y0108641D01*
X0048198Y0108808D01*
X0048698D01*
X0049698Y0109141D02*
X0049198D01*
X0049031Y0108974D01*
Y0108641D01*
X0049198Y0108474D01*
X0049698D01*
X0050198Y0109307D02*
Y0109141D01*
X0050031D01*
X0050364D01*
X0050198D01*
Y0108641D01*
X0050364Y0108474D01*
X0050864Y0109141D02*
Y0108641D01*
X0051031Y0108474D01*
X0051531D01*
Y0109141D01*
X0051864D02*
Y0108474D01*
Y0108808D01*
X005203Y0108974D01*
X0052197Y0109141D01*
X0052364D01*
X0053363Y0108474D02*
X005303D01*
X0052864Y0108641D01*
Y0108974D01*
X005303Y0109141D01*
X0053363D01*
X005353Y0108974D01*
Y0108808D01*
X0052864D01*
X0053863Y0109141D02*
Y0108474D01*
Y0108808D01*
X005403Y0108974D01*
X0054196Y0109141D01*
X0054363D01*
X0055863Y0108474D02*
X0056196D01*
X0056029D01*
Y0109141D01*
X0055863D01*
X0056696Y0108474D02*
X0057195D01*
X0057362Y0108641D01*
X0057195Y0108808D01*
X0056862D01*
X0056696Y0108974D01*
X0056862Y0109141D01*
X0057362D01*
X0058862D02*
X0059195D01*
X0059361Y0108974D01*
Y0108474D01*
X0058862D01*
X0058695Y0108641D01*
X0058862Y0108808D01*
X0059361D01*
X0059695Y0108474D02*
X0060028D01*
X0059861D01*
Y0109474D01*
X0059695D01*
X0060528Y0108474D02*
X0060861D01*
X0060694D01*
Y0109474D01*
X0060528D01*
X0061527Y0108474D02*
X0061861D01*
X0062027Y0108641D01*
Y0108974D01*
X0061861Y0109141D01*
X0061527D01*
X0061361Y0108974D01*
Y0108641D01*
X0061527Y0108474D01*
X006236Y0109141D02*
Y0108641D01*
X0062527Y0108474D01*
X0062694Y0108641D01*
X006286Y0108474D01*
X0063027Y0108641D01*
Y0109141D01*
X006386Y0108474D02*
X0063527D01*
X006336Y0108641D01*
Y0108974D01*
X0063527Y0109141D01*
X006386D01*
X0064027Y0108974D01*
Y0108808D01*
X006336D01*
X0065026Y0109474D02*
Y0108474D01*
X0064526D01*
X006436Y0108641D01*
Y0108974D01*
X0064526Y0109141D01*
X0065026D01*
X0066526Y0109307D02*
Y0109141D01*
X0066359D01*
X0066692D01*
X0066526D01*
Y0108641D01*
X0066692Y0108474D01*
X0067359D02*
X0067692D01*
X0067859Y0108641D01*
Y0108974D01*
X0067692Y0109141D01*
X0067359D01*
X0067192Y0108974D01*
Y0108641D01*
X0067359Y0108474D01*
X0069192D02*
X0069525D01*
X0069358D01*
Y0109141D01*
X0069192D01*
X0070025Y0108474D02*
Y0109141D01*
X0070525D01*
X0070691Y0108974D01*
Y0108474D01*
X0071691Y0109141D02*
X0071191D01*
X0071024Y0108974D01*
Y0108641D01*
X0071191Y0108474D01*
X0071691D01*
X0072024Y0109141D02*
Y0108474D01*
Y0108808D01*
X0072191Y0108974D01*
X0072357Y0109141D01*
X0072524D01*
X0073524Y0108474D02*
X007319D01*
X0073024Y0108641D01*
Y0108974D01*
X007319Y0109141D01*
X0073524D01*
X007369Y0108974D01*
Y0108808D01*
X0073024D01*
X007419Y0109141D02*
X0074523D01*
X007469Y0108974D01*
Y0108474D01*
X007419D01*
X0074023Y0108641D01*
X007419Y0108808D01*
X007469D01*
X0075023Y0108474D02*
X0075523D01*
X007569Y0108641D01*
X0075523Y0108808D01*
X007519D01*
X0075023Y0108974D01*
X007519Y0109141D01*
X007569D01*
X0076523Y0108474D02*
X0076189D01*
X0076023Y0108641D01*
Y0108974D01*
X0076189Y0109141D01*
X0076523D01*
X0076689Y0108974D01*
Y0108808D01*
X0076023D01*
X0078189Y0109307D02*
Y0109141D01*
X0078022D01*
X0078355D01*
X0078189D01*
Y0108641D01*
X0078355Y0108474D01*
X0078855Y0109474D02*
Y0108474D01*
Y0108974D01*
X0079022Y0109141D01*
X0079355D01*
X0079522Y0108974D01*
Y0108474D01*
X0080355D02*
X0080021D01*
X0079855Y0108641D01*
Y0108974D01*
X0080021Y0109141D01*
X0080355D01*
X0080521Y0108974D01*
Y0108808D01*
X0079855D01*
X0082021Y0108474D02*
X0082354D01*
X0082521Y0108641D01*
Y0108974D01*
X0082354Y0109141D01*
X0082021D01*
X0081854Y0108974D01*
Y0108641D01*
X0082021Y0108474D01*
X0082854Y0108141D02*
Y0109141D01*
X0083354D01*
X008352Y0108974D01*
Y0108641D01*
X0083354Y0108474D01*
X0082854D01*
X0084353D02*
X008402D01*
X0083854Y0108641D01*
Y0108974D01*
X008402Y0109141D01*
X0084353D01*
X008452Y0108974D01*
Y0108808D01*
X0083854D01*
X0084853Y0108474D02*
Y0109141D01*
X0085353D01*
X008552Y0108974D01*
Y0108474D01*
X0085853D02*
X0086186D01*
X008602D01*
Y0109141D01*
X0085853D01*
X0086686Y0108474D02*
Y0109141D01*
X0087186D01*
X0087352Y0108974D01*
Y0108474D01*
X0088019Y0108141D02*
X0088186D01*
X0088352Y0108308D01*
Y0109141D01*
X0087852D01*
X0087686Y0108974D01*
Y0108641D01*
X0087852Y0108474D01*
X0088352D01*
X0089685D02*
X0090018D01*
X0089852D01*
Y0109141D01*
X0089685D01*
X0090518Y0108474D02*
Y0109141D01*
X0091018D01*
X0091185Y0108974D01*
Y0108474D01*
X0043367Y0107128D02*
X00437D01*
X0043866Y0106961D01*
Y0106461D01*
X0043367D01*
X00432Y0106628D01*
X0043367Y0106795D01*
X0043866D01*
X0044866Y0107128D02*
X0044366D01*
X00442Y0106961D01*
Y0106628D01*
X0044366Y0106461D01*
X0044866D01*
X0045866Y0107128D02*
X0045366D01*
X0045199Y0106961D01*
Y0106628D01*
X0045366Y0106461D01*
X0045866D01*
X0046366D02*
X0046699D01*
X0046865Y0106628D01*
Y0106961D01*
X0046699Y0107128D01*
X0046366D01*
X0046199Y0106961D01*
Y0106628D01*
X0046366Y0106461D01*
X0047199Y0107128D02*
Y0106461D01*
Y0106795D01*
X0047365Y0106961D01*
X0047532Y0107128D01*
X0047699D01*
X0048865Y0107461D02*
Y0106461D01*
X0048365D01*
X0048198Y0106628D01*
Y0106961D01*
X0048365Y0107128D01*
X0048865D01*
X0049365D02*
X0049698D01*
X0049865Y0106961D01*
Y0106461D01*
X0049365D01*
X0049198Y0106628D01*
X0049365Y0106795D01*
X0049865D01*
X0050198Y0106461D02*
Y0107128D01*
X0050698D01*
X0050864Y0106961D01*
Y0106461D01*
X0051864Y0107128D02*
X0051364D01*
X0051197Y0106961D01*
Y0106628D01*
X0051364Y0106461D01*
X0051864D01*
X0052697D02*
X0052364D01*
X0052197Y0106628D01*
Y0106961D01*
X0052364Y0107128D01*
X0052697D01*
X0052864Y0106961D01*
Y0106795D01*
X0052197D01*
X0054196Y0107128D02*
Y0106628D01*
X0054363Y0106461D01*
X005453Y0106628D01*
X0054696Y0106461D01*
X0054863Y0106628D01*
Y0107128D01*
X0055196Y0106461D02*
X0055529D01*
X0055363D01*
Y0107128D01*
X0055196D01*
X0056196Y0107295D02*
Y0107128D01*
X0056029D01*
X0056362D01*
X0056196D01*
Y0106628D01*
X0056362Y0106461D01*
X0056862Y0107461D02*
Y0106461D01*
Y0106961D01*
X0057029Y0107128D01*
X0057362D01*
X0057529Y0106961D01*
Y0106461D01*
X0058862Y0106128D02*
Y0107128D01*
X0059361D01*
X0059528Y0106961D01*
Y0106628D01*
X0059361Y0106461D01*
X0058862D01*
X0059861Y0107128D02*
Y0106461D01*
Y0106795D01*
X0060028Y0106961D01*
X0060195Y0107128D01*
X0060361D01*
X0061028Y0106461D02*
X0061361D01*
X0061527Y0106628D01*
Y0106961D01*
X0061361Y0107128D01*
X0061028D01*
X0060861Y0106961D01*
Y0106628D01*
X0061028Y0106461D01*
X0062527Y0107461D02*
Y0106461D01*
X0062027D01*
X0061861Y0106628D01*
Y0106961D01*
X0062027Y0107128D01*
X0062527D01*
X006286D02*
Y0106628D01*
X0063027Y0106461D01*
X0063527D01*
Y0107128D01*
X0064526D02*
X0064027D01*
X006386Y0106961D01*
Y0106628D01*
X0064027Y0106461D01*
X0064526D01*
X0065026Y0107295D02*
Y0107128D01*
X006486D01*
X0065193D01*
X0065026D01*
Y0106628D01*
X0065193Y0106461D01*
X0065693D02*
X0066026D01*
X0065859D01*
Y0107128D01*
X0065693D01*
X0066692Y0106461D02*
X0067026D01*
X0067192Y0106628D01*
Y0106961D01*
X0067026Y0107128D01*
X0066692D01*
X0066526Y0106961D01*
Y0106628D01*
X0066692Y0106461D01*
X0067525D02*
Y0107128D01*
X0068025D01*
X0068192Y0106961D01*
Y0106461D01*
X0069691Y0107295D02*
Y0107128D01*
X0069525D01*
X0069858D01*
X0069691D01*
Y0106628D01*
X0069858Y0106461D01*
X0070525D02*
X0070858D01*
X0071024Y0106628D01*
Y0106961D01*
X0070858Y0107128D01*
X0070525D01*
X0070358Y0106961D01*
Y0106628D01*
X0070525Y0106461D01*
X0071358D02*
X0071691D01*
X0071524D01*
Y0107461D01*
X0071358D01*
X007269Y0106461D02*
X0072357D01*
X0072191Y0106628D01*
Y0106961D01*
X0072357Y0107128D01*
X007269D01*
X0072857Y0106961D01*
Y0106795D01*
X0072191D01*
X007319Y0107128D02*
Y0106461D01*
Y0106795D01*
X0073357Y0106961D01*
X0073524Y0107128D01*
X007369D01*
X0074357D02*
X007469D01*
X0074856Y0106961D01*
Y0106461D01*
X0074357D01*
X007419Y0106628D01*
X0074357Y0106795D01*
X0074856D01*
X007519Y0106461D02*
Y0107128D01*
X007569D01*
X0075856Y0106961D01*
Y0106461D01*
X0076856Y0107128D02*
X0076356D01*
X0076189Y0106961D01*
Y0106628D01*
X0076356Y0106461D01*
X0076856D01*
X0077689D02*
X0077356D01*
X0077189Y0106628D01*
Y0106961D01*
X0077356Y0107128D01*
X0077689D01*
X0077855Y0106961D01*
Y0106795D01*
X0077189D01*
X0078189Y0106461D02*
X0078689D01*
X0078855Y0106628D01*
X0078689Y0106795D01*
X0078355D01*
X0078189Y0106961D01*
X0078355Y0107128D01*
X0078855D01*
X0079188Y0106461D02*
Y0106628D01*
X0079355D01*
Y0106461D01*
X0079188D01*
X0052816Y0132416D02*
X005215D01*
Y0131917D01*
X0052483D01*
X005215D01*
Y0131417D01*
X005315D02*
Y0132416D01*
X005365D01*
X0053816Y013225D01*
Y0131917D01*
X005365Y013175D01*
X005315D01*
X0053483D02*
X0053816Y0131417D01*
X0054649D02*
Y0132416D01*
X0054149Y0131917D01*
X0054816D01*
X0056815Y0132083D02*
X0056315D01*
X0056149Y0131917D01*
Y0131583D01*
X0056315Y0131417D01*
X0056815D01*
X0057315D02*
X0057648D01*
X0057815Y0131583D01*
Y0131917D01*
X0057648Y0132083D01*
X0057315D01*
X0057148Y0131917D01*
Y0131583D01*
X0057315Y0131417D01*
X0058148D02*
Y0132083D01*
X0058315D01*
X0058481Y0131917D01*
Y0131417D01*
Y0131917D01*
X0058648Y0132083D01*
X0058815Y0131917D01*
Y0131417D01*
X0059148Y0131084D02*
Y0132083D01*
X0059648D01*
X0059814Y0131917D01*
Y0131583D01*
X0059648Y0131417D01*
X0059148D01*
X0060147D02*
X0060481D01*
X0060314D01*
Y0132083D01*
X0060147D01*
X006098Y0131417D02*
X0061314D01*
X0061147D01*
Y0132416D01*
X006098D01*
X006198Y0132083D02*
X0062313D01*
X006248Y0131917D01*
Y0131417D01*
X006198D01*
X0061814Y0131583D01*
X006198Y013175D01*
X006248D01*
X0062813Y0131417D02*
Y0132083D01*
X0063313D01*
X006348Y0131917D01*
Y0131417D01*
X006398Y013225D02*
Y0132083D01*
X0063813D01*
X0064146D01*
X006398D01*
Y0131583D01*
X0064146Y0131417D01*
X0065646Y0132083D02*
Y0131583D01*
X0065812Y0131417D01*
X0065979Y0131583D01*
X0066145Y0131417D01*
X0066312Y0131583D01*
Y0132083D01*
X0066645Y0131417D02*
X0066979D01*
X0066812D01*
Y0132083D01*
X0066645D01*
X0067645Y013225D02*
Y0132083D01*
X0067478D01*
X0067812D01*
X0067645D01*
Y0131583D01*
X0067812Y0131417D01*
X0068311Y0132416D02*
Y0131417D01*
Y0131917D01*
X0068478Y0132083D01*
X0068811D01*
X0068978Y0131917D01*
Y0131417D01*
X0070311D02*
Y0132416D01*
X0070811D01*
X0070977Y013225D01*
Y0131917D01*
X0070811Y013175D01*
X0070311D01*
X0070644D02*
X0070977Y0131417D01*
X0071477D02*
X007181D01*
X0071977Y0131583D01*
Y0131917D01*
X007181Y0132083D01*
X0071477D01*
X007131Y0131917D01*
Y0131583D01*
X0071477Y0131417D01*
X007231Y0132416D02*
Y0131417D01*
Y0131917D01*
X0072977D01*
Y0132416D01*
Y0131417D01*
X007331D02*
X007381D01*
X0073976Y0131583D01*
X007381Y013175D01*
X0073476D01*
X007331Y0131917D01*
X0073476Y0132083D01*
X0073976D01*
X0075309D02*
Y0131417D01*
Y013175D01*
X0075476Y0131917D01*
X0075642Y0132083D01*
X0075809D01*
X0076809Y0131417D02*
X0076475D01*
X0076309Y0131583D01*
Y0131917D01*
X0076475Y0132083D01*
X0076809D01*
X0076975Y0131917D01*
Y013175D01*
X0076309D01*
X0077975Y0131084D02*
Y0132083D01*
X0077475D01*
X0077309Y0131917D01*
Y0131583D01*
X0077475Y0131417D01*
X0077975D01*
X0078308Y0132083D02*
Y0131583D01*
X0078475Y0131417D01*
X0078975D01*
Y0132083D01*
X0079308Y0131417D02*
X0079641D01*
X0079475D01*
Y0132083D01*
X0079308D01*
X0080141D02*
Y0131417D01*
Y013175D01*
X0080308Y0131917D01*
X0080474Y0132083D01*
X0080641D01*
X008164Y0131417D02*
X0081307D01*
X0081141Y0131583D01*
Y0131917D01*
X0081307Y0132083D01*
X008164D01*
X0081807Y0131917D01*
Y013175D01*
X0081141D01*
X008214Y0131417D02*
Y0132083D01*
X0082307D01*
X0082474Y0131917D01*
Y0131417D01*
Y0131917D01*
X008264Y0132083D01*
X0082807Y0131917D01*
Y0131417D01*
X008364D02*
X0083307D01*
X008314Y0131583D01*
Y0131917D01*
X0083307Y0132083D01*
X008364D01*
X0083806Y0131917D01*
Y013175D01*
X008314D01*
X008414Y0131417D02*
Y0132083D01*
X008464D01*
X0084806Y0131917D01*
Y0131417D01*
X0085306Y013225D02*
Y0132083D01*
X0085139D01*
X0085473D01*
X0085306D01*
Y0131583D01*
X0085473Y0131417D01*
X0085972D02*
X0086472D01*
X0086639Y0131583D01*
X0086472Y013175D01*
X0086139D01*
X0085972Y0131917D01*
X0086139Y0132083D01*
X0086639D01*
X00462Y0123308D02*
X00467Y0123808D01*
X00462Y0124307D01*
X0047033Y0123641D02*
X00477D01*
X0047033Y0123974D02*
X00477D01*
X0048033Y0124141D02*
X0048199Y0124307D01*
X0048533D01*
X0048699Y0124141D01*
Y0123974D01*
X0048533Y0123808D01*
X0048366D01*
X0048533D01*
X0048699Y0123641D01*
Y0123474D01*
X0048533Y0123308D01*
X0048199D01*
X0048033Y0123474D01*
X0049532Y0123308D02*
Y0124307D01*
X0049032Y0123808D01*
X0049699D01*
X0050032Y0124141D02*
X0050199Y0124307D01*
X0050532D01*
X0050699Y0124141D01*
Y0123474D01*
X0050532Y0123308D01*
X0050199D01*
X0050032Y0123474D01*
Y0124141D01*
X00432Y0124307D02*
X0043866D01*
X0043533D01*
Y0123308D01*
X00442Y0124307D02*
Y0123308D01*
X00447D01*
X0044866Y0123474D01*
Y0124141D01*
X00447Y0124307D01*
X00442D01*
X0045199Y0123974D02*
X0045366D01*
Y0123808D01*
X0045199D01*
Y0123974D01*
Y0123474D02*
X0045366D01*
Y0123308D01*
X0045199D01*
Y0123474D01*
X00462Y0125308D02*
X00467Y0125808D01*
X00462Y0126307D01*
X0047033Y0125641D02*
X00477D01*
X0047033Y0125974D02*
X00477D01*
X0048033Y0125308D02*
X0048366D01*
X0048199D01*
Y0126307D01*
X0048033Y0126141D01*
X0049532Y0126307D02*
X0048866D01*
Y0125808D01*
X0049199Y0125974D01*
X0049366D01*
X0049532Y0125808D01*
Y0125474D01*
X0049366Y0125308D01*
X0049032D01*
X0048866Y0125474D01*
X0049865Y0126141D02*
X0050032Y0126307D01*
X0050365D01*
X0050532Y0126141D01*
Y0125474D01*
X0050365Y0125308D01*
X0050032D01*
X0049865Y0125474D01*
Y0126141D01*
X00432Y0126307D02*
X0043866D01*
X0043533D01*
Y0125308D01*
X0044866Y0126141D02*
X00447Y0126307D01*
X0044366D01*
X00442Y0126141D01*
Y0125474D01*
X0044366Y0125308D01*
X00447D01*
X0044866Y0125474D01*
Y0125808D01*
X0044533D01*
X0045199Y0125974D02*
X0045366D01*
Y0125808D01*
X0045199D01*
Y0125974D01*
Y0125474D02*
X0045366D01*
Y0125308D01*
X0045199D01*
Y0125474D01*
X00632Y0135308D02*
X0063533D01*
X0063367D01*
Y0136307D01*
X00632Y0136141D01*
X0064033Y0135308D02*
Y0135474D01*
X00642D01*
Y0135308D01*
X0064033D01*
X0065533Y0136307D02*
X0064866D01*
Y0135808D01*
X0065199Y0135974D01*
X0065366D01*
X0065533Y0135808D01*
Y0135474D01*
X0065366Y0135308D01*
X0065033D01*
X0064866Y0135474D01*
X0066532Y0136307D02*
X0065866D01*
Y0135808D01*
X0066199Y0135974D01*
X0066366D01*
X0066532Y0135808D01*
Y0135474D01*
X0066366Y0135308D01*
X0066032D01*
X0065866Y0135474D01*
X0066865Y0135308D02*
Y0135974D01*
X0067032D01*
X0067199Y0135808D01*
Y0135308D01*
Y0135808D01*
X0067365Y0135974D01*
X0067532Y0135808D01*
Y0135308D01*
X0067865D02*
Y0135974D01*
X0068032D01*
X0068198Y0135808D01*
Y0135308D01*
Y0135808D01*
X0068365Y0135974D01*
X0068532Y0135808D01*
Y0135308D01*
X0068865D02*
X0069531Y0135974D01*
X0069865Y0135308D02*
X0070198D01*
X0070031D01*
Y0136307D01*
X0069865Y0136141D01*
X0070698Y0135308D02*
Y0135474D01*
X0070864D01*
Y0135308D01*
X0070698D01*
X0071531Y0136307D02*
X0072197D01*
Y0136141D01*
X0071531Y0135474D01*
Y0135308D01*
X007253D02*
X0072864D01*
X0072697D01*
Y0136307D01*
X007253Y0136141D01*
X0073363Y0135308D02*
Y0135974D01*
X007353D01*
X0073697Y0135808D01*
Y0135308D01*
Y0135808D01*
X0073863Y0135974D01*
X007403Y0135808D01*
Y0135308D01*
X0074363D02*
Y0135974D01*
X007453D01*
X0074696Y0135808D01*
Y0135308D01*
Y0135808D01*
X0074863Y0135974D01*
X007503Y0135808D01*
Y0135308D01*
X00432Y0129308D02*
Y0130307D01*
X0043866Y0129308D01*
Y0130307D01*
X0044366Y0129308D02*
X00447D01*
X0044866Y0129474D01*
Y0129808D01*
X00447Y0129974D01*
X0044366D01*
X00442Y0129808D01*
Y0129474D01*
X0044366Y0129308D01*
X0045199D02*
Y0129974D01*
X0045366D01*
X0045533Y0129808D01*
Y0129308D01*
Y0129808D01*
X0045699Y0129974D01*
X0045866Y0129808D01*
Y0129308D01*
X0046199D02*
Y0129474D01*
X0046366D01*
Y0129308D01*
X0046199D01*
X0047032D02*
X0047699Y0129974D01*
X0048032Y0129308D02*
Y0130307D01*
X0048365Y0129974D01*
X0048698Y0130307D01*
Y0129308D01*
X0049198Y0129974D02*
X0049531D01*
X0049698Y0129808D01*
Y0129308D01*
X0049198D01*
X0049031Y0129474D01*
X0049198Y0129641D01*
X0049698D01*
X0050031Y0129974D02*
X0050698Y0129308D01*
X0050364Y0129641D01*
X0050698Y0129974D01*
X0050031Y0129308D01*
X0051031D02*
Y0129474D01*
X0051197D01*
Y0129308D01*
X0051031D01*
X005303Y0130141D02*
Y0129974D01*
X0052864D01*
X0053197D01*
X005303D01*
Y0129474D01*
X0053197Y0129308D01*
X0053697Y0130307D02*
Y0129308D01*
Y0129808D01*
X0053863Y0129974D01*
X0054196D01*
X0054363Y0129808D01*
Y0129308D01*
X0054696D02*
X005503D01*
X0054863D01*
Y0129974D01*
X0054696D01*
X0056196D02*
X0055696D01*
X0055529Y0129808D01*
Y0129474D01*
X0055696Y0129308D01*
X0056196D01*
X0056529D02*
Y0130307D01*
Y0129641D02*
X0057029Y0129974D01*
X0056529Y0129641D02*
X0057029Y0129308D01*
X0057529D02*
Y0129974D01*
X0058029D01*
X0058195Y0129808D01*
Y0129308D01*
X0059028D02*
X0058695D01*
X0058528Y0129474D01*
Y0129808D01*
X0058695Y0129974D01*
X0059028D01*
X0059195Y0129808D01*
Y0129641D01*
X0058528D01*
X0059528Y0129308D02*
X0060028D01*
X0060195Y0129474D01*
X0060028Y0129641D01*
X0059695D01*
X0059528Y0129808D01*
X0059695Y0129974D01*
X0060195D01*
X0060528Y0129308D02*
X0061028D01*
X0061194Y0129474D01*
X0061028Y0129641D01*
X0060694D01*
X0060528Y0129808D01*
X0060694Y0129974D01*
X0061194D01*
X0061527D02*
X0061694D01*
Y0129808D01*
X0061527D01*
Y0129974D01*
Y0129474D02*
X0061694D01*
Y0129308D01*
X0061527D01*
Y0129474D01*
X00432Y0139307D02*
Y0138308D01*
X00437D01*
X0043866Y0138474D01*
Y0139141D01*
X00437Y0139307D01*
X00432D01*
X0044366Y0138974D02*
X00447D01*
X0044866Y0138808D01*
Y0138308D01*
X0044366D01*
X00442Y0138474D01*
X0044366Y0138641D01*
X0044866D01*
X0045366Y0139141D02*
Y0138974D01*
X0045199D01*
X0045533D01*
X0045366D01*
Y0138474D01*
X0045533Y0138308D01*
X0046532D02*
X0046199D01*
X0046032Y0138474D01*
Y0138808D01*
X0046199Y0138974D01*
X0046532D01*
X0046699Y0138808D01*
Y0138641D01*
X0046032D01*
X0047032Y0138974D02*
X0047199D01*
Y0138808D01*
X0047032D01*
Y0138974D01*
Y0138474D02*
X0047199D01*
Y0138308D01*
X0047032D01*
Y0138474D01*
X0053866Y0114141D02*
X00537Y0114307D01*
X0053367D01*
X00532Y0114141D01*
Y0113474D01*
X0053367Y0113308D01*
X00537D01*
X0053866Y0113474D01*
X00542Y0114307D02*
Y0113308D01*
Y0113808D01*
X0054366Y0113974D01*
X00547D01*
X0054866Y0113808D01*
Y0113308D01*
X0055699D02*
X0055366D01*
X0055199Y0113474D01*
Y0113808D01*
X0055366Y0113974D01*
X0055699D01*
X0055866Y0113808D01*
Y0113641D01*
X0055199D01*
X0057199Y0113308D02*
Y0114307D01*
X0057865Y0113308D01*
Y0114307D01*
X0058198Y0113308D02*
X0058532D01*
X0058365D01*
Y0113974D01*
X0058198D01*
X0059031Y0113308D02*
X0059698Y0113974D01*
X0060031Y0113308D02*
Y0113974D01*
X0060364Y0114307D01*
X0060698Y0113974D01*
Y0113308D01*
Y0113808D01*
X0060031D01*
X0061031Y0113974D02*
Y0113474D01*
X0061197Y0113308D01*
X0061697D01*
Y0113974D01*
X006303Y0113308D02*
X006353D01*
X0063697Y0113474D01*
X006353Y0113641D01*
X0063197D01*
X006303Y0113808D01*
X0063197Y0113974D01*
X0063697D01*
X006453Y0113308D02*
X0064196D01*
X006403Y0113474D01*
Y0113808D01*
X0064196Y0113974D01*
X006453D01*
X0064696Y0113808D01*
Y0113641D01*
X006403D01*
X006503Y0113308D02*
X0065363D01*
X0065196D01*
Y0114307D01*
X006503D01*
X0066362Y0113308D02*
X0066029D01*
X0065863Y0113474D01*
Y0113808D01*
X0066029Y0113974D01*
X0066362D01*
X0066529Y0113808D01*
Y0113641D01*
X0065863D01*
X0067529Y0113974D02*
X0067029D01*
X0066862Y0113808D01*
Y0113474D01*
X0067029Y0113308D01*
X0067529D01*
X0068029Y0114141D02*
Y0113974D01*
X0067862D01*
X0068195D01*
X0068029D01*
Y0113474D01*
X0068195Y0113308D01*
X0068695D02*
X0069028D01*
X0068862D01*
Y0113974D01*
X0068695D01*
X0069528D02*
X0069861Y0113308D01*
X0070195Y0113974D01*
X0071028Y0113308D02*
X0070694D01*
X0070528Y0113474D01*
Y0113808D01*
X0070694Y0113974D01*
X0071028D01*
X0071194Y0113808D01*
Y0113641D01*
X0070528D01*
X007286Y0113308D02*
X0072527Y0113641D01*
Y0113974D01*
X007286Y0114307D01*
X0074027D02*
X007336D01*
Y0113308D01*
X0074027D01*
X007336Y0113808D02*
X0073693D01*
X007436Y0113308D02*
Y0114307D01*
X0075026Y0113308D01*
Y0114307D01*
X007536D02*
X0075693D01*
X0075526D01*
Y0113308D01*
X007536D01*
X0075693D01*
X0076859Y0114141D02*
X0076692Y0114307D01*
X0076359D01*
X0076193Y0114141D01*
Y0113474D01*
X0076359Y0113308D01*
X0076692D01*
X0076859Y0113474D01*
Y0113808D01*
X0076526D01*
X0077192Y0113308D02*
X0077525Y0113641D01*
Y0113974D01*
X0077192Y0114307D01*
X00512Y0136974D02*
X0051533Y0136308D01*
X0051866Y0136974D01*
X00522Y0136308D02*
X0052533D01*
X0052366D01*
Y0137307D01*
X00522Y0137141D01*
X0053033Y0136308D02*
Y0136474D01*
X0053199D01*
Y0136308D01*
X0053033D01*
X0053866D02*
X0054199D01*
X0054032D01*
Y0137307D01*
X0053866Y0137141D01*
X0043866Y0114141D02*
X00437Y0114307D01*
X0043367D01*
X00432Y0114141D01*
Y0113474D01*
X0043367Y0113308D01*
X00437D01*
X0043866Y0113474D01*
X00442Y0113974D02*
Y0113474D01*
X0044366Y0113308D01*
X0044866D01*
Y0113974D01*
X0046366Y0113308D02*
Y0114141D01*
Y0113808D01*
X0046199D01*
X0046532D01*
X0046366D01*
Y0114141D01*
X0046532Y0114307D01*
X0047032Y0113308D02*
X0047365D01*
X0047199D01*
Y0113974D01*
X0047032D01*
X0047865Y0113308D02*
Y0113974D01*
X0048365D01*
X0048532Y0113808D01*
Y0113308D01*
X0048865D02*
X0049198D01*
X0049031D01*
Y0113974D01*
X0048865D01*
X0049698Y0113308D02*
X0050198D01*
X0050364Y0113474D01*
X0050198Y0113641D01*
X0049865D01*
X0049698Y0113808D01*
X0049865Y0113974D01*
X0050364D01*
X0050698Y0114307D02*
Y0113308D01*
Y0113808D01*
X0050864Y0113974D01*
X0051197D01*
X0051364Y0113808D01*
Y0113308D01*
X0051697Y0113974D02*
X0051864D01*
Y0113808D01*
X0051697D01*
Y0113974D01*
Y0113474D02*
X0051864D01*
Y0113308D01*
X0051697D01*
Y0113474D01*
X00542Y0117308D02*
Y0118307D01*
X0054533Y0117974D01*
X0054866Y0118307D01*
Y0117308D01*
X00552D02*
Y0117974D01*
X0055533Y0118307D01*
X0055866Y0117974D01*
Y0117308D01*
Y0117808D01*
X00552D01*
X0056199Y0118307D02*
X0056866D01*
X0056533D01*
Y0117308D01*
X0057199Y0118307D02*
X0057865D01*
X0057532D01*
Y0117308D01*
X0058865Y0118307D02*
X0058199D01*
Y0117308D01*
X0058865D01*
X0058199Y0117808D02*
X0058532D01*
X0060198Y0118307D02*
Y0117308D01*
X0060698D01*
X0060865Y0117474D01*
Y0117641D01*
X0060698Y0117808D01*
X0060198D01*
X0060698D01*
X0060865Y0117974D01*
Y0118141D01*
X0060698Y0118307D01*
X0060198D01*
X0061198D02*
Y0117308D01*
X0061864D01*
X0062197D02*
Y0117974D01*
X0062531Y0118307D01*
X0062864Y0117974D01*
Y0117308D01*
Y0117808D01*
X0062197D01*
X0063864Y0118141D02*
X0063697Y0118307D01*
X0063364D01*
X0063197Y0118141D01*
Y0117474D01*
X0063364Y0117308D01*
X0063697D01*
X0063864Y0117474D01*
X0064197Y0118307D02*
Y0117308D01*
Y0117641D01*
X0064863Y0118307D01*
X0064363Y0117808D01*
X0064863Y0117308D01*
X0043866Y0118141D02*
X00437Y0118307D01*
X0043367D01*
X00432Y0118141D01*
Y0117974D01*
X0043367Y0117808D01*
X00437D01*
X0043866Y0117641D01*
Y0117474D01*
X00437Y0117308D01*
X0043367D01*
X00432Y0117474D01*
X0044366Y0117308D02*
X00447D01*
X0044866Y0117474D01*
Y0117808D01*
X00447Y0117974D01*
X0044366D01*
X00442Y0117808D01*
Y0117474D01*
X0044366Y0117308D01*
X0045199D02*
X0045533D01*
X0045366D01*
Y0118307D01*
X0045199D01*
X0046699D02*
Y0117308D01*
X0046199D01*
X0046032Y0117474D01*
Y0117808D01*
X0046199Y0117974D01*
X0046699D01*
X0047532Y0117308D02*
X0047199D01*
X0047032Y0117474D01*
Y0117808D01*
X0047199Y0117974D01*
X0047532D01*
X0047699Y0117808D01*
Y0117641D01*
X0047032D01*
X0048032Y0117974D02*
Y0117308D01*
Y0117641D01*
X0048198Y0117808D01*
X0048365Y0117974D01*
X0048532D01*
X0049031Y0117308D02*
Y0117974D01*
X0049198D01*
X0049365Y0117808D01*
Y0117308D01*
Y0117808D01*
X0049531Y0117974D01*
X0049698Y0117808D01*
Y0117308D01*
X0050198Y0117974D02*
X0050531D01*
X0050698Y0117808D01*
Y0117308D01*
X0050198D01*
X0050031Y0117474D01*
X0050198Y0117641D01*
X0050698D01*
X0051031Y0117308D02*
X0051531D01*
X0051697Y0117474D01*
X0051531Y0117641D01*
X0051197D01*
X0051031Y0117808D01*
X0051197Y0117974D01*
X0051697D01*
X005203Y0117308D02*
Y0118307D01*
Y0117641D02*
X005253Y0117974D01*
X005203Y0117641D02*
X005253Y0117308D01*
X005303Y0117974D02*
X0053197D01*
Y0117808D01*
X005303D01*
Y0117974D01*
Y0117474D02*
X0053197D01*
Y0117308D01*
X005303D01*
Y0117474D01*
X00432Y0131308D02*
Y0132307D01*
X0043533Y0131974D01*
X0043866Y0132307D01*
Y0131308D01*
X0044366Y0131974D02*
X00447D01*
X0044866Y0131808D01*
Y0131308D01*
X0044366D01*
X00442Y0131474D01*
X0044366Y0131641D01*
X0044866D01*
X0045366Y0132141D02*
Y0131974D01*
X0045199D01*
X0045533D01*
X0045366D01*
Y0131474D01*
X0045533Y0131308D01*
X0046532D02*
X0046199D01*
X0046032Y0131474D01*
Y0131808D01*
X0046199Y0131974D01*
X0046532D01*
X0046699Y0131808D01*
Y0131641D01*
X0046032D01*
X0047032Y0131974D02*
Y0131308D01*
Y0131641D01*
X0047199Y0131808D01*
X0047365Y0131974D01*
X0047532D01*
X0048032Y0131308D02*
X0048365D01*
X0048198D01*
Y0131974D01*
X0048032D01*
X0049031D02*
X0049365D01*
X0049531Y0131808D01*
Y0131308D01*
X0049031D01*
X0048865Y0131474D01*
X0049031Y0131641D01*
X0049531D01*
X0049865Y0131308D02*
X0050198D01*
X0050031D01*
Y0132307D01*
X0049865D01*
X0050698Y0131974D02*
X0050864D01*
Y0131808D01*
X0050698D01*
Y0131974D01*
Y0131474D02*
X0050864D01*
Y0131308D01*
X0050698D01*
Y0131474D01*
X00482Y0139141D02*
X0048367Y0139307D01*
X00487D01*
X0048866Y0139141D01*
Y0138474D01*
X00487Y0138308D01*
X0048367D01*
X00482Y0138474D01*
Y0139141D01*
X00497Y0138308D02*
Y0139307D01*
X00492Y0138808D01*
X0049866D01*
X0050199Y0138308D02*
Y0138474D01*
X0050366D01*
Y0138308D01*
X0050199D01*
X0051032Y0139141D02*
X0051199Y0139307D01*
X0051532D01*
X0051699Y0139141D01*
Y0138474D01*
X0051532Y0138308D01*
X0051199D01*
X0051032Y0138474D01*
Y0139141D01*
X0052032Y0139307D02*
X0052699D01*
Y0139141D01*
X0052032Y0138474D01*
Y0138308D01*
X0053032D02*
Y0138474D01*
X0053198D01*
Y0138308D01*
X0053032D01*
X0054531D02*
X0053865D01*
X0054531Y0138974D01*
Y0139141D01*
X0054365Y0139307D01*
X0054031D01*
X0053865Y0139141D01*
X0054865D02*
X0055031Y0139307D01*
X0055364D01*
X0055531Y0139141D01*
Y0138474D01*
X0055364Y0138308D01*
X0055031D01*
X0054865Y0138474D01*
Y0139141D01*
X0056531Y0138308D02*
X0055864D01*
X0056531Y0138974D01*
Y0139141D01*
X0056364Y0139307D01*
X0056031D01*
X0055864Y0139141D01*
X0056864D02*
X005703Y0139307D01*
X0057364D01*
X005753Y0139141D01*
Y0138974D01*
X0057364Y0138808D01*
X0057197D01*
X0057364D01*
X005753Y0138641D01*
Y0138474D01*
X0057364Y0138308D01*
X005703D01*
X0056864Y0138474D01*
X00432Y0137307D02*
Y0136641D01*
X0043533Y0136308D01*
X0043866Y0136641D01*
Y0137307D01*
X00447Y0136308D02*
X0044366D01*
X00442Y0136474D01*
Y0136808D01*
X0044366Y0136974D01*
X00447D01*
X0044866Y0136808D01*
Y0136641D01*
X00442D01*
X0045199Y0136974D02*
Y0136308D01*
Y0136641D01*
X0045366Y0136808D01*
X0045533Y0136974D01*
X0045699D01*
X0046199Y0136308D02*
X0046699D01*
X0046865Y0136474D01*
X0046699Y0136641D01*
X0046366D01*
X0046199Y0136808D01*
X0046366Y0136974D01*
X0046865D01*
X0047199Y0136308D02*
X0047532D01*
X0047365D01*
Y0136974D01*
X0047199D01*
X0048198Y0136308D02*
X0048532D01*
X0048698Y0136474D01*
Y0136808D01*
X0048532Y0136974D01*
X0048198D01*
X0048032Y0136808D01*
Y0136474D01*
X0048198Y0136308D01*
X0049031D02*
Y0136974D01*
X0049531D01*
X0049698Y0136808D01*
Y0136308D01*
X0050031Y0136974D02*
X0050198D01*
Y0136808D01*
X0050031D01*
Y0136974D01*
Y0136474D02*
X0050198D01*
Y0136308D01*
X0050031D01*
Y0136474D01*
X0043866Y0116141D02*
X00437Y0116307D01*
X0043367D01*
X00432Y0116141D01*
Y0115974D01*
X0043367Y0115808D01*
X00437D01*
X0043866Y0115641D01*
Y0115474D01*
X00437Y0115308D01*
X0043367D01*
X00432Y0115474D01*
X00442Y0115308D02*
X0044533D01*
X0044366D01*
Y0115974D01*
X00442D01*
X0045033Y0115308D02*
X0045366D01*
X0045199D01*
Y0116307D01*
X0045033D01*
X0045866Y0115308D02*
Y0116307D01*
Y0115641D02*
X0046366Y0115974D01*
X0045866Y0115641D02*
X0046366Y0115308D01*
X0046865D02*
X0047365D01*
X0047532Y0115474D01*
X0047365Y0115641D01*
X0047032D01*
X0046865Y0115808D01*
X0047032Y0115974D01*
X0047532D01*
X0048532D02*
X0048032D01*
X0047865Y0115808D01*
Y0115474D01*
X0048032Y0115308D01*
X0048532D01*
X0048865Y0115974D02*
Y0115308D01*
Y0115641D01*
X0049031Y0115808D01*
X0049198Y0115974D01*
X0049365D01*
X0050364Y0115308D02*
X0050031D01*
X0049865Y0115474D01*
Y0115808D01*
X0050031Y0115974D01*
X0050364D01*
X0050531Y0115808D01*
Y0115641D01*
X0049865D01*
X0051364Y0115308D02*
X0051031D01*
X0050864Y0115474D01*
Y0115808D01*
X0051031Y0115974D01*
X0051364D01*
X0051531Y0115808D01*
Y0115641D01*
X0050864D01*
X0051864Y0115308D02*
Y0115974D01*
X0052364D01*
X005253Y0115808D01*
Y0115308D01*
X0052864Y0115974D02*
X005303D01*
Y0115808D01*
X0052864D01*
Y0115974D01*
Y0115474D02*
X005303D01*
Y0115308D01*
X0052864D01*
Y0115474D01*
X00542Y0116307D02*
Y0115308D01*
X0054533Y0115641D01*
X0054866Y0115308D01*
Y0116307D01*
X00552D02*
Y0115308D01*
Y0115808D01*
X0055866D01*
Y0116307D01*
Y0115308D01*
X0056199Y0116307D02*
X0056533D01*
X0056366D01*
Y0115308D01*
X0056199D01*
X0056533D01*
X0057032Y0116307D02*
X0057699D01*
X0057366D01*
Y0115308D01*
X0058699Y0116307D02*
X0058032D01*
Y0115308D01*
X0058699D01*
X0058032Y0115808D02*
X0058365D01*
X00472Y0127308D02*
X00477Y0127808D01*
X00472Y0128307D01*
X0048033Y0127641D02*
X00487D01*
X0048033Y0127974D02*
X00487D01*
X0049033Y0127308D02*
X0049366D01*
X0049199D01*
Y0128307D01*
X0049033Y0128141D01*
X0049866Y0128307D02*
X0050532D01*
Y0128141D01*
X0049866Y0127474D01*
Y0127308D01*
X0051532Y0128307D02*
X0050865D01*
Y0127808D01*
X0051199Y0127974D01*
X0051365D01*
X0051532Y0127808D01*
Y0127474D01*
X0051365Y0127308D01*
X0051032D01*
X0050865Y0127474D01*
X0043866Y0128141D02*
X00437Y0128307D01*
X0043367D01*
X00432Y0128141D01*
Y0127474D01*
X0043367Y0127308D01*
X00437D01*
X0043866Y0127474D01*
X00442Y0128307D02*
X0044866D01*
X0044533D01*
Y0127308D01*
X0045199Y0128307D02*
X0045533D01*
X0045366D01*
Y0127308D01*
X0045199D01*
X0045533D01*
X0046032Y0127974D02*
X0046199D01*
Y0127808D01*
X0046032D01*
Y0127974D01*
Y0127474D02*
X0046199D01*
Y0127308D01*
X0046032D01*
Y0127474D01*
D11*
X004315Y0043178D02*
X0043816D01*
X0043483D01*
Y0042179D01*
X004415Y0043178D02*
Y0042179D01*
Y0042679D01*
X0044316Y0042845D01*
X004465D01*
X0044816Y0042679D01*
Y0042179D01*
X0045649D02*
X0045316D01*
X0045149Y0042345D01*
Y0042679D01*
X0045316Y0042845D01*
X0045649D01*
X0045816Y0042679D01*
Y0042512D01*
X0045149D01*
X0047315Y0043012D02*
Y0042845D01*
X0047149D01*
X0047482D01*
X0047315D01*
Y0042345D01*
X0047482Y0042179D01*
X0047982Y0042845D02*
Y0042179D01*
Y0042512D01*
X0048148Y0042679D01*
X0048315Y0042845D01*
X0048482D01*
X0049148D02*
X0049481D01*
X0049648Y0042679D01*
Y0042179D01*
X0049148D01*
X0048981Y0042345D01*
X0049148Y0042512D01*
X0049648D01*
X0050648Y0042845D02*
X0050148D01*
X0049981Y0042679D01*
Y0042345D01*
X0050148Y0042179D01*
X0050648D01*
X0051481D02*
X0051147D01*
X0050981Y0042345D01*
Y0042679D01*
X0051147Y0042845D01*
X0051481D01*
X0051647Y0042679D01*
Y0042512D01*
X0050981D01*
X005198Y0042179D02*
X005248D01*
X0052647Y0042345D01*
X005248Y0042512D01*
X0052147D01*
X005198Y0042679D01*
X0052147Y0042845D01*
X0052647D01*
X0054146Y0043012D02*
Y0042845D01*
X005398D01*
X0054313D01*
X0054146D01*
Y0042345D01*
X0054313Y0042179D01*
X0054813Y0043178D02*
Y0042179D01*
Y0042679D01*
X005498Y0042845D01*
X0055313D01*
X0055479Y0042679D01*
Y0042179D01*
X0055979Y0042845D02*
X0056312D01*
X0056479Y0042679D01*
Y0042179D01*
X0055979D01*
X0055813Y0042345D01*
X0055979Y0042512D01*
X0056479D01*
X0056979Y0043012D02*
Y0042845D01*
X0056812D01*
X0057145D01*
X0056979D01*
Y0042345D01*
X0057145Y0042179D01*
X0058645Y0042845D02*
Y0042179D01*
Y0042512D01*
X0058812Y0042679D01*
X0058978Y0042845D01*
X0059145D01*
X0060145Y0042179D02*
X0059811D01*
X0059645Y0042345D01*
Y0042679D01*
X0059811Y0042845D01*
X0060145D01*
X0060311Y0042679D01*
Y0042512D01*
X0059645D01*
X0061311Y0041846D02*
Y0042845D01*
X0060811D01*
X0060644Y0042679D01*
Y0042345D01*
X0060811Y0042179D01*
X0061311D01*
X0061644Y0042845D02*
Y0042345D01*
X0061811Y0042179D01*
X006231D01*
Y0042845D01*
X0062644Y0042179D02*
X0062977D01*
X006281D01*
Y0042845D01*
X0062644D01*
X0063477D02*
Y0042179D01*
Y0042512D01*
X0063643Y0042679D01*
X006381Y0042845D01*
X0063977D01*
X0064976Y0042179D02*
X0064643D01*
X0064476Y0042345D01*
Y0042679D01*
X0064643Y0042845D01*
X0064976D01*
X0065143Y0042679D01*
Y0042512D01*
X0064476D01*
X0066476Y0042179D02*
X0066809D01*
X0066642D01*
Y0042845D01*
X0066476D01*
X0067309Y0042179D02*
Y0042845D01*
X0067475D01*
X0067642Y0042679D01*
Y0042179D01*
Y0042679D01*
X0067809Y0042845D01*
X0067975Y0042679D01*
Y0042179D01*
X0068309Y0041846D02*
Y0042845D01*
X0068808D01*
X0068975Y0042679D01*
Y0042345D01*
X0068808Y0042179D01*
X0068309D01*
X0069808D02*
X0069475D01*
X0069308Y0042345D01*
Y0042679D01*
X0069475Y0042845D01*
X0069808D01*
X0069975Y0042679D01*
Y0042512D01*
X0069308D01*
X0070974Y0043178D02*
Y0042179D01*
X0070475D01*
X0070308Y0042345D01*
Y0042679D01*
X0070475Y0042845D01*
X0070974D01*
X0071474D02*
X0071807D01*
X0071974Y0042679D01*
Y0042179D01*
X0071474D01*
X0071308Y0042345D01*
X0071474Y0042512D01*
X0071974D01*
X0072307Y0042179D02*
Y0042845D01*
X0072807D01*
X0072974Y0042679D01*
Y0042179D01*
X0073973Y0042845D02*
X0073474D01*
X0073307Y0042679D01*
Y0042345D01*
X0073474Y0042179D01*
X0073973D01*
X0074806D02*
X0074473D01*
X0074307Y0042345D01*
Y0042679D01*
X0074473Y0042845D01*
X0074806D01*
X0074973Y0042679D01*
Y0042512D01*
X0074307D01*
X0076306Y0042179D02*
Y0042845D01*
X0076473D01*
X0076639Y0042679D01*
Y0042179D01*
Y0042679D01*
X0076806Y0042845D01*
X0076972Y0042679D01*
Y0042179D01*
X0077472Y0042845D02*
X0077805D01*
X0077972Y0042679D01*
Y0042179D01*
X0077472D01*
X0077306Y0042345D01*
X0077472Y0042512D01*
X0077972D01*
X0078472Y0043012D02*
Y0042845D01*
X0078305D01*
X0078639D01*
X0078472D01*
Y0042345D01*
X0078639Y0042179D01*
X0079805Y0042845D02*
X0079305D01*
X0079138Y0042679D01*
Y0042345D01*
X0079305Y0042179D01*
X0079805D01*
X0080138Y0043178D02*
Y0042179D01*
Y0042679D01*
X0080305Y0042845D01*
X0080638D01*
X0080805Y0042679D01*
Y0042179D01*
X0081138D02*
X0081471D01*
X0081304D01*
Y0042845D01*
X0081138D01*
X0081971Y0042179D02*
Y0042845D01*
X0082471D01*
X0082637Y0042679D01*
Y0042179D01*
X0083304Y0041846D02*
X008347D01*
X0083637Y0042012D01*
Y0042845D01*
X0083137D01*
X008297Y0042679D01*
Y0042345D01*
X0083137Y0042179D01*
X0083637D01*
X0043317Y0040952D02*
X004365D01*
X0043816Y0040786D01*
Y0040286D01*
X0043317D01*
X004315Y0040453D01*
X0043317Y0040619D01*
X0043816D01*
X004415Y0040952D02*
Y0040286D01*
Y0040619D01*
X0044316Y0040786D01*
X0044483Y0040952D01*
X004465D01*
X0045649Y0040286D02*
X0045316D01*
X0045149Y0040453D01*
Y0040786D01*
X0045316Y0040952D01*
X0045649D01*
X0045816Y0040786D01*
Y0040619D01*
X0045149D01*
X0047149Y0040286D02*
Y0040952D01*
X0047315D01*
X0047482Y0040786D01*
Y0040286D01*
Y0040786D01*
X0047649Y0040952D01*
X0047815Y0040786D01*
Y0040286D01*
X0048315Y0040952D02*
X0048648D01*
X0048815Y0040786D01*
Y0040286D01*
X0048315D01*
X0048148Y0040453D01*
X0048315Y0040619D01*
X0048815D01*
X0049148Y0040952D02*
Y0040286D01*
Y0040619D01*
X0049315Y0040786D01*
X0049481Y0040952D01*
X0049648D01*
X0050148Y0040286D02*
Y0041286D01*
Y0040619D02*
X0050648Y0040952D01*
X0050148Y0040619D02*
X0050648Y0040286D01*
X0051647D02*
X0051314D01*
X0051147Y0040453D01*
Y0040786D01*
X0051314Y0040952D01*
X0051647D01*
X0051814Y0040786D01*
Y0040619D01*
X0051147D01*
X0052814Y0041286D02*
Y0040286D01*
X0052314D01*
X0052147Y0040453D01*
Y0040786D01*
X0052314Y0040952D01*
X0052814D01*
X0054313Y0040286D02*
X0054646D01*
X0054813Y0040453D01*
Y0040786D01*
X0054646Y0040952D01*
X0054313D01*
X0054146Y0040786D01*
Y0040453D01*
X0054313Y0040286D01*
X0055146D02*
Y0040952D01*
X0055646D01*
X0055813Y0040786D01*
Y0040286D01*
X0057145D02*
X0057479D01*
X0057312D01*
Y0041286D01*
X0057145D01*
X0058145Y0040952D02*
X0058478D01*
X0058645Y0040786D01*
Y0040286D01*
X0058145D01*
X0057979Y0040453D01*
X0058145Y0040619D01*
X0058645D01*
X0058978Y0040952D02*
Y0040453D01*
X0059145Y0040286D01*
X0059645D01*
Y0040119D01*
X0059478Y0039953D01*
X0059311D01*
X0059645Y0040286D02*
Y0040952D01*
X0060478Y0040286D02*
X0060145D01*
X0059978Y0040453D01*
Y0040786D01*
X0060145Y0040952D01*
X0060478D01*
X0060644Y0040786D01*
Y0040619D01*
X0059978D01*
X0060978Y0040952D02*
Y0040286D01*
Y0040619D01*
X0061144Y0040786D01*
X0061311Y0040952D01*
X0061477D01*
X0061977Y0040286D02*
X0062477D01*
X0062644Y0040453D01*
X0062477Y0040619D01*
X0062144D01*
X0061977Y0040786D01*
X0062144Y0040952D01*
X0062644D01*
X0063977Y0040286D02*
X006431D01*
X0064143D01*
Y0041286D01*
X0063977Y0041119D01*
X006481Y0041286D02*
X0065476D01*
Y0041119D01*
X006481Y0040453D01*
Y0040286D01*
X0067142D02*
X0066809Y0040619D01*
Y0040952D01*
X0067142Y0041286D01*
X0067642D02*
X0068309D01*
X0067975D01*
Y0040286D01*
X0069142Y0041286D02*
X0068808D01*
X0068642Y0041119D01*
Y0040453D01*
X0068808Y0040286D01*
X0069142D01*
X0069308Y0040453D01*
Y0041119D01*
X0069142Y0041286D01*
X0069641Y0040286D02*
Y0041286D01*
X0070141D01*
X0070308Y0041119D01*
Y0040786D01*
X0070141Y0040619D01*
X0069641D01*
X0070641Y0040286D02*
X0070974Y0040619D01*
Y0040952D01*
X0070641Y0041286D01*
X007264Y0040952D02*
X0072974D01*
X007314Y0040786D01*
Y0040286D01*
X007264D01*
X0072474Y0040453D01*
X007264Y0040619D01*
X007314D01*
X0073474Y0040286D02*
Y0040952D01*
X0073973D01*
X007414Y0040786D01*
Y0040286D01*
X007514Y0041286D02*
Y0040286D01*
X007464D01*
X0074473Y0040453D01*
Y0040786D01*
X007464Y0040952D01*
X007514D01*
X0076473Y0040286D02*
X0076806D01*
X0076639D01*
Y0041286D01*
X0076473Y0041119D01*
X0077306D02*
X0077472Y0041286D01*
X0077805D01*
X0077972Y0041119D01*
Y0040952D01*
X0077805Y0040786D01*
X0077972Y0040619D01*
Y0040453D01*
X0077805Y0040286D01*
X0077472D01*
X0077306Y0040453D01*
Y0040619D01*
X0077472Y0040786D01*
X0077306Y0040952D01*
Y0041119D01*
X0077472Y0040786D02*
X0077805D01*
X0079638Y0040286D02*
X0079305Y0040619D01*
Y0040952D01*
X0079638Y0041286D01*
X0080138D02*
Y0040286D01*
X0080638D01*
X0080805Y0040453D01*
Y0040619D01*
X0080638Y0040786D01*
X0080138D01*
X0080638D01*
X0080805Y0040952D01*
Y0041119D01*
X0080638Y0041286D01*
X0080138D01*
X0081638D02*
X0081304D01*
X0081138Y0041119D01*
Y0040453D01*
X0081304Y0040286D01*
X0081638D01*
X0081804Y0040453D01*
Y0041119D01*
X0081638Y0041286D01*
X0082137D02*
X0082804D01*
X0082471D01*
Y0040286D01*
X0083137Y0041286D02*
X0083804D01*
X008347D01*
Y0040286D01*
X0084637Y0041286D02*
X0084303D01*
X0084137Y0041119D01*
Y0040453D01*
X0084303Y0040286D01*
X0084637D01*
X0084803Y0040453D01*
Y0041119D01*
X0084637Y0041286D01*
X0085136Y0040286D02*
Y0041286D01*
X008547Y0040952D01*
X0085803Y0041286D01*
Y0040286D01*
X0086136D02*
X0086469Y0040619D01*
Y0040952D01*
X0086136Y0041286D01*
X004315Y0036834D02*
X0043483D01*
X0043317D01*
Y0037833D01*
X004315Y0037667D01*
X0043983Y0036834D02*
Y0037D01*
X004415D01*
Y0036834D01*
X0043983D01*
X0045816Y0037833D02*
Y0036834D01*
X0046316D01*
X0046482Y0037D01*
Y0037667D01*
X0046316Y0037833D01*
X0045816D01*
X0046815Y0036834D02*
X0047149D01*
X0046982D01*
Y00375D01*
X0046815D01*
X0047815Y0036834D02*
Y0037667D01*
Y0037333D01*
X0047649D01*
X0047982D01*
X0047815D01*
Y0037667D01*
X0047982Y0037833D01*
X0048648Y0036834D02*
Y0037667D01*
Y0037333D01*
X0048482D01*
X0048815D01*
X0048648D01*
Y0037667D01*
X0048815Y0037833D01*
X0049815Y0036834D02*
X0049481D01*
X0049315Y0037D01*
Y0037333D01*
X0049481Y00375D01*
X0049815D01*
X0049981Y0037333D01*
Y0037167D01*
X0049315D01*
X0050314Y00375D02*
Y0036834D01*
Y0037167D01*
X0050481Y0037333D01*
X0050648Y00375D01*
X0050814D01*
X0051814Y0036834D02*
X0051481D01*
X0051314Y0037D01*
Y0037333D01*
X0051481Y00375D01*
X0051814D01*
X005198Y0037333D01*
Y0037167D01*
X0051314D01*
X0052314Y0036834D02*
Y00375D01*
X0052814D01*
X005298Y0037333D01*
Y0036834D01*
X005348Y0037667D02*
Y00375D01*
X0053313D01*
X0053647D01*
X005348D01*
Y0037D01*
X0053647Y0036834D01*
X0054146D02*
X005448D01*
X0054313D01*
Y00375D01*
X0054146D01*
X0055146D02*
X0055479D01*
X0055646Y0037333D01*
Y0036834D01*
X0055146D01*
X005498Y0037D01*
X0055146Y0037167D01*
X0055646D01*
X0055979Y0036834D02*
X0056312D01*
X0056146D01*
Y0037833D01*
X0055979D01*
X0057812Y0036834D02*
X0058145D01*
X0057979D01*
Y0037833D01*
X0057812Y0037667D01*
X0058645D02*
X0058812Y0037833D01*
X0059145D01*
X0059311Y0037667D01*
Y0037D01*
X0059145Y0036834D01*
X0058812D01*
X0058645Y0037D01*
Y0037667D01*
X0059645D02*
X0059811Y0037833D01*
X0060145D01*
X0060311Y0037667D01*
Y0037D01*
X0060145Y0036834D01*
X0059811D01*
X0059645Y0037D01*
Y0037667D01*
X0060811Y0036834D02*
X0061144D01*
X0061311Y0037D01*
Y0037333D01*
X0061144Y00375D01*
X0060811D01*
X0060644Y0037333D01*
Y0037D01*
X0060811Y0036834D01*
X0061644Y0037833D02*
Y0036834D01*
Y0037333D01*
X0061811Y00375D01*
X0062144D01*
X006231Y0037333D01*
Y0036834D01*
X0062644D02*
Y00375D01*
X006281D01*
X0062977Y0037333D01*
Y0036834D01*
Y0037333D01*
X0063144Y00375D01*
X006331Y0037333D01*
Y0036834D01*
X004315Y0036274D02*
Y0035274D01*
X0043483Y0035607D01*
X0043816Y0035274D01*
Y0036274D01*
X004415Y0035274D02*
X0044483D01*
X0044316D01*
Y003594D01*
X004415D01*
X0045649Y0036274D02*
Y0035274D01*
X0045149D01*
X0044983Y0035441D01*
Y0035774D01*
X0045149Y003594D01*
X0045649D01*
X0046149Y0036107D02*
Y003594D01*
X0045982D01*
X0046316D01*
X0046149D01*
Y0035441D01*
X0046316Y0035274D01*
X0046815Y0036274D02*
Y0035274D01*
Y0035774D01*
X0046982Y003594D01*
X0047315D01*
X0047482Y0035774D01*
Y0035274D01*
X0048815Y0036107D02*
X0048981Y0036274D01*
X0049315D01*
X0049481Y0036107D01*
Y0035441D01*
X0049315Y0035274D01*
X0048981D01*
X0048815Y0035441D01*
Y0036107D01*
X0049815Y0035274D02*
Y0035441D01*
X0049981D01*
Y0035274D01*
X0049815D01*
X0050648D02*
X0050981D01*
X0050814D01*
Y0036274D01*
X0050648Y0036107D01*
X0052147Y0036274D02*
X0051814Y0036107D01*
X0051481Y0035774D01*
Y0035441D01*
X0051647Y0035274D01*
X005198D01*
X0052147Y0035441D01*
Y0035607D01*
X005198Y0035774D01*
X0051481D01*
X005248Y0036107D02*
X0052647Y0036274D01*
X005298D01*
X0053147Y0036107D01*
Y003594D01*
X005298Y0035774D01*
X0052814D01*
X005298D01*
X0053147Y0035607D01*
Y0035441D01*
X005298Y0035274D01*
X0052647D01*
X005248Y0035441D01*
X0054146Y0036274D02*
X005348D01*
Y0035774D01*
X0053813Y003594D01*
X005398D01*
X0054146Y0035774D01*
Y0035441D01*
X005398Y0035274D01*
X0053647D01*
X005348Y0035441D01*
X005448Y0035274D02*
Y003594D01*
X0054646D01*
X0054813Y0035774D01*
Y0035274D01*
Y0035774D01*
X005498Y003594D01*
X0055146Y0035774D01*
Y0035274D01*
X0055479D02*
Y003594D01*
X0055646D01*
X0055813Y0035774D01*
Y0035274D01*
Y0035774D01*
X0055979Y003594D01*
X0056146Y0035774D01*
Y0035274D01*
X0043816Y0034547D02*
X004365Y0034714D01*
X0043317D01*
X004315Y0034547D01*
Y0034381D01*
X0043317Y0034214D01*
X004365D01*
X0043816Y0034048D01*
Y0033881D01*
X004365Y0033714D01*
X0043317D01*
X004315Y0033881D01*
X004415Y0033381D02*
Y0034381D01*
X004465D01*
X0044816Y0034214D01*
Y0033881D01*
X004465Y0033714D01*
X004415D01*
X0045316Y0034381D02*
X0045649D01*
X0045816Y0034214D01*
Y0033714D01*
X0045316D01*
X0045149Y0033881D01*
X0045316Y0034048D01*
X0045816D01*
X0046815Y0034381D02*
X0046316D01*
X0046149Y0034214D01*
Y0033881D01*
X0046316Y0033714D01*
X0046815D01*
X0047149D02*
X0047482D01*
X0047315D01*
Y0034381D01*
X0047149D01*
X0047982Y0033714D02*
Y0034381D01*
X0048482D01*
X0048648Y0034214D01*
Y0033714D01*
X0049315Y0033381D02*
X0049481D01*
X0049648Y0033548D01*
Y0034381D01*
X0049148D01*
X0048981Y0034214D01*
Y0033881D01*
X0049148Y0033714D01*
X0049648D01*
X0050981Y0034547D02*
X0051147Y0034714D01*
X0051481D01*
X0051647Y0034547D01*
Y0033881D01*
X0051481Y0033714D01*
X0051147D01*
X0050981Y0033881D01*
Y0034547D01*
X005198Y0033714D02*
Y0033881D01*
X0052147D01*
Y0033714D01*
X005198D01*
X005348D02*
X0052814D01*
X005348Y0034381D01*
Y0034547D01*
X0053313Y0034714D01*
X005298D01*
X0052814Y0034547D01*
X0053813Y0033714D02*
Y0034381D01*
X005398D01*
X0054146Y0034214D01*
Y0033714D01*
Y0034214D01*
X0054313Y0034381D01*
X005448Y0034214D01*
Y0033714D01*
X0054813D02*
Y0034381D01*
X005498D01*
X0055146Y0034214D01*
Y0033714D01*
Y0034214D01*
X0055313Y0034381D01*
X0055479Y0034214D01*
Y0033714D01*
X004315Y0052474D02*
Y0052641D01*
X0043317D01*
Y0052474D01*
X004315D01*
X004465Y0053307D02*
X0044483Y0053474D01*
X004415D01*
X0043983Y0053307D01*
Y0052641D01*
X004415Y0052474D01*
X0044483D01*
X004465Y0052641D01*
Y0052974D01*
X0044316D01*
X0044983Y0052474D02*
Y0053474D01*
X0045316Y0053141D01*
X0045649Y0053474D01*
Y0052474D01*
X0045982D02*
X0046316D01*
X0046149D01*
Y0053474D01*
X0045982Y0053307D01*
X0046815Y0053474D02*
X0047482D01*
Y0053307D01*
X0046815Y0052641D01*
Y0052474D01*
X0048815Y0052974D02*
X0049481D01*
X0050814Y0053474D02*
X0051481D01*
X0051147D01*
Y0052474D01*
X005198D02*
X0052314D01*
X005248Y0052641D01*
Y0052974D01*
X0052314Y0053141D01*
X005198D01*
X0051814Y0052974D01*
Y0052641D01*
X005198Y0052474D01*
X0052814Y0052141D02*
Y0053141D01*
X0053313D01*
X005348Y0052974D01*
Y0052641D01*
X0053313Y0052474D01*
X0052814D01*
X0054813Y0053474D02*
X0055146D01*
X005498D01*
Y0052474D01*
X0054813D01*
X0055146D01*
X0055646D02*
Y0053141D01*
X0055813D01*
X0055979Y0052974D01*
Y0052474D01*
Y0052974D01*
X0056146Y0053141D01*
X0056312Y0052974D01*
Y0052474D01*
X0056646Y0052141D02*
Y0053141D01*
X0057145D01*
X0057312Y0052974D01*
Y0052641D01*
X0057145Y0052474D01*
X0056646D01*
X0058145D02*
X0057812D01*
X0057645Y0052641D01*
Y0052974D01*
X0057812Y0053141D01*
X0058145D01*
X0058312Y0052974D01*
Y0052808D01*
X0057645D01*
X0059311Y0053474D02*
Y0052474D01*
X0058812D01*
X0058645Y0052641D01*
Y0052974D01*
X0058812Y0053141D01*
X0059311D01*
X0059811D02*
X0060145D01*
X0060311Y0052974D01*
Y0052474D01*
X0059811D01*
X0059645Y0052641D01*
X0059811Y0052808D01*
X0060311D01*
X0060644Y0052474D02*
Y0053141D01*
X0061144D01*
X0061311Y0052974D01*
Y0052474D01*
X006231Y0053141D02*
X0061811D01*
X0061644Y0052974D01*
Y0052641D01*
X0061811Y0052474D01*
X006231D01*
X0063144D02*
X006281D01*
X0062644Y0052641D01*
Y0052974D01*
X006281Y0053141D01*
X0063144D01*
X006331Y0052974D01*
Y0052808D01*
X0062644D01*
X0064643Y0052474D02*
Y0053474D01*
X0064976Y0053141D01*
X006531Y0053474D01*
Y0052474D01*
X0065809Y0053141D02*
X0066143D01*
X0066309Y0052974D01*
Y0052474D01*
X0065809D01*
X0065643Y0052641D01*
X0065809Y0052808D01*
X0066309D01*
X0066809Y0053307D02*
Y0053141D01*
X0066642D01*
X0066976D01*
X0066809D01*
Y0052641D01*
X0066976Y0052474D01*
X0068142Y0053141D02*
X0067642D01*
X0067475Y0052974D01*
Y0052641D01*
X0067642Y0052474D01*
X0068142D01*
X0068475Y0053474D02*
Y0052474D01*
Y0052974D01*
X0068642Y0053141D01*
X0068975D01*
X0069142Y0052974D01*
Y0052474D01*
X0069475D02*
X0069808D01*
X0069641D01*
Y0053141D01*
X0069475D01*
X0070308Y0052474D02*
Y0053141D01*
X0070808D01*
X0070974Y0052974D01*
Y0052474D01*
X0071641Y0052141D02*
X0071807D01*
X0071974Y0052308D01*
Y0053141D01*
X0071474D01*
X0071308Y0052974D01*
Y0052641D01*
X0071474Y0052474D01*
X0071974D01*
X004315Y0050474D02*
Y0050641D01*
X0043317D01*
Y0050474D01*
X004315D01*
X004465Y0051307D02*
X0044483Y0051474D01*
X004415D01*
X0043983Y0051307D01*
Y0050641D01*
X004415Y0050474D01*
X0044483D01*
X004465Y0050641D01*
Y0050974D01*
X0044316D01*
X0044983Y0050474D02*
Y0051474D01*
X0045316Y0051141D01*
X0045649Y0051474D01*
Y0050474D01*
X0045982D02*
X0046316D01*
X0046149D01*
Y0051474D01*
X0045982Y0051307D01*
X0046815D02*
X0046982Y0051474D01*
X0047315D01*
X0047482Y0051307D01*
Y0051141D01*
X0047315Y0050974D01*
X0047482Y0050808D01*
Y0050641D01*
X0047315Y0050474D01*
X0046982D01*
X0046815Y0050641D01*
Y0050808D01*
X0046982Y0050974D01*
X0046815Y0051141D01*
Y0051307D01*
X0046982Y0050974D02*
X0047315D01*
X0048815D02*
X0049481D01*
X0050814Y0051474D02*
Y0050474D01*
X0051314D01*
X0051481Y0050641D01*
Y0050808D01*
X0051314Y0050974D01*
X0050814D01*
X0051314D01*
X0051481Y0051141D01*
Y0051307D01*
X0051314Y0051474D01*
X0050814D01*
X005198Y0050474D02*
X0052314D01*
X005248Y0050641D01*
Y0050974D01*
X0052314Y0051141D01*
X005198D01*
X0051814Y0050974D01*
Y0050641D01*
X005198Y0050474D01*
X005298Y0051307D02*
Y0051141D01*
X0052814D01*
X0053147D01*
X005298D01*
Y0050641D01*
X0053147Y0050474D01*
X0053813Y0051307D02*
Y0051141D01*
X0053647D01*
X005398D01*
X0053813D01*
Y0050641D01*
X005398Y0050474D01*
X0054646D02*
X005498D01*
X0055146Y0050641D01*
Y0050974D01*
X005498Y0051141D01*
X0054646D01*
X005448Y0050974D01*
Y0050641D01*
X0054646Y0050474D01*
X0055479D02*
Y0051141D01*
X0055646D01*
X0055813Y0050974D01*
Y0050474D01*
Y0050974D01*
X0055979Y0051141D01*
X0056146Y0050974D01*
Y0050474D01*
X0057479Y0051474D02*
X0057812D01*
X0057645D01*
Y0050474D01*
X0057479D01*
X0057812D01*
X0058312D02*
Y0051141D01*
X0058478D01*
X0058645Y0050974D01*
Y0050474D01*
Y0050974D01*
X0058812Y0051141D01*
X0058978Y0050974D01*
Y0050474D01*
X0059311Y0050141D02*
Y0051141D01*
X0059811D01*
X0059978Y0050974D01*
Y0050641D01*
X0059811Y0050474D01*
X0059311D01*
X0060811D02*
X0060478D01*
X0060311Y0050641D01*
Y0050974D01*
X0060478Y0051141D01*
X0060811D01*
X0060978Y0050974D01*
Y0050808D01*
X0060311D01*
X0061977Y0051474D02*
Y0050474D01*
X0061477D01*
X0061311Y0050641D01*
Y0050974D01*
X0061477Y0051141D01*
X0061977D01*
X0062477D02*
X006281D01*
X0062977Y0050974D01*
Y0050474D01*
X0062477D01*
X006231Y0050641D01*
X0062477Y0050808D01*
X0062977D01*
X006331Y0050474D02*
Y0051141D01*
X006381D01*
X0063977Y0050974D01*
Y0050474D01*
X0064976Y0051141D02*
X0064476D01*
X006431Y0050974D01*
Y0050641D01*
X0064476Y0050474D01*
X0064976D01*
X0065809D02*
X0065476D01*
X006531Y0050641D01*
Y0050974D01*
X0065476Y0051141D01*
X0065809D01*
X0065976Y0050974D01*
Y0050808D01*
X006531D01*
X0067309Y0050474D02*
Y0051474D01*
X0067642Y0051141D01*
X0067975Y0051474D01*
Y0050474D01*
X0068475Y0051141D02*
X0068808D01*
X0068975Y0050974D01*
Y0050474D01*
X0068475D01*
X0068309Y0050641D01*
X0068475Y0050808D01*
X0068975D01*
X0069475Y0051307D02*
Y0051141D01*
X0069308D01*
X0069641D01*
X0069475D01*
Y0050641D01*
X0069641Y0050474D01*
X0070808Y0051141D02*
X0070308D01*
X0070141Y0050974D01*
Y0050641D01*
X0070308Y0050474D01*
X0070808D01*
X0071141Y0051474D02*
Y0050474D01*
Y0050974D01*
X0071308Y0051141D01*
X0071641D01*
X0071807Y0050974D01*
Y0050474D01*
X0072141D02*
X0072474D01*
X0072307D01*
Y0051141D01*
X0072141D01*
X0072974Y0050474D02*
Y0051141D01*
X0073474D01*
X007364Y0050974D01*
Y0050474D01*
X0074307Y0050141D02*
X0074473D01*
X007464Y0050308D01*
Y0051141D01*
X007414D01*
X0073973Y0050974D01*
Y0050641D01*
X007414Y0050474D01*
X007464D01*
X004315Y0055474D02*
Y0055641D01*
X0043317D01*
Y0055474D01*
X004315D01*
X004465Y0056307D02*
X0044483Y0056474D01*
X004415D01*
X0043983Y0056307D01*
Y0055641D01*
X004415Y0055474D01*
X0044483D01*
X004465Y0055641D01*
Y0055974D01*
X0044316D01*
X0044983Y0055474D02*
Y0056474D01*
X0045316Y0056141D01*
X0045649Y0056474D01*
Y0055474D01*
X0045982D02*
X0046316D01*
X0046149D01*
Y0056474D01*
X0045982Y0056307D01*
X0047482Y0056474D02*
X0047149Y0056307D01*
X0046815Y0055974D01*
Y0055641D01*
X0046982Y0055474D01*
X0047315D01*
X0047482Y0055641D01*
Y0055808D01*
X0047315Y0055974D01*
X0046815D01*
X0048815D02*
X0049481D01*
X0050814Y0056474D02*
Y0055474D01*
X0051314D01*
X0051481Y0055641D01*
Y0055808D01*
X0051314Y0055974D01*
X0050814D01*
X0051314D01*
X0051481Y0056141D01*
Y0056307D01*
X0051314Y0056474D01*
X0050814D01*
X005198Y0055474D02*
X0052314D01*
X005248Y0055641D01*
Y0055974D01*
X0052314Y0056141D01*
X005198D01*
X0051814Y0055974D01*
Y0055641D01*
X005198Y0055474D01*
X005298Y0056307D02*
Y0056141D01*
X0052814D01*
X0053147D01*
X005298D01*
Y0055641D01*
X0053147Y0055474D01*
X0053813Y0056307D02*
Y0056141D01*
X0053647D01*
X005398D01*
X0053813D01*
Y0055641D01*
X005398Y0055474D01*
X0054646D02*
X005498D01*
X0055146Y0055641D01*
Y0055974D01*
X005498Y0056141D01*
X0054646D01*
X005448Y0055974D01*
Y0055641D01*
X0054646Y0055474D01*
X0055479D02*
Y0056141D01*
X0055646D01*
X0055813Y0055974D01*
Y0055474D01*
Y0055974D01*
X0055979Y0056141D01*
X0056146Y0055974D01*
Y0055474D01*
X0058145Y0056307D02*
X0057979Y0056474D01*
X0057645D01*
X0057479Y0056307D01*
Y0055641D01*
X0057645Y0055474D01*
X0057979D01*
X0058145Y0055641D01*
X0058645Y0055474D02*
X0058978D01*
X0059145Y0055641D01*
Y0055974D01*
X0058978Y0056141D01*
X0058645D01*
X0058478Y0055974D01*
Y0055641D01*
X0058645Y0055474D01*
X0059478Y0056141D02*
Y0055641D01*
X0059645Y0055474D01*
X0060145D01*
Y0056141D01*
X0060478D02*
Y0055474D01*
Y0055808D01*
X0060644Y0055974D01*
X0060811Y0056141D01*
X0060978D01*
X0061644Y0056307D02*
Y0056141D01*
X0061477D01*
X0061811D01*
X0061644D01*
Y0055641D01*
X0061811Y0055474D01*
X006231Y0056141D02*
Y0055641D01*
X0062477Y0055474D01*
X0062977D01*
Y0055308D01*
X006281Y0055141D01*
X0062644D01*
X0062977Y0055474D02*
Y0056141D01*
X0063477D02*
X006381D01*
X0063977Y0055974D01*
Y0055474D01*
X0063477D01*
X006331Y0055641D01*
X0063477Y0055808D01*
X0063977D01*
X006431Y0056141D02*
Y0055474D01*
Y0055808D01*
X0064476Y0055974D01*
X0064643Y0056141D01*
X006481D01*
X0065976Y0056474D02*
Y0055474D01*
X0065476D01*
X006531Y0055641D01*
Y0055974D01*
X0065476Y0056141D01*
X0065976D01*
X004315Y0057474D02*
Y0057641D01*
X0043317D01*
Y0057474D01*
X004315D01*
X004465Y0058307D02*
X0044483Y0058474D01*
X004415D01*
X0043983Y0058307D01*
Y0057641D01*
X004415Y0057474D01*
X0044483D01*
X004465Y0057641D01*
Y0057974D01*
X0044316D01*
X0044983Y0057474D02*
Y0058474D01*
X0045316Y0058141D01*
X0045649Y0058474D01*
Y0057474D01*
X0045982D02*
X0046316D01*
X0046149D01*
Y0058474D01*
X0045982Y0058307D01*
X0047482Y0058474D02*
X0046815D01*
Y0057974D01*
X0047149Y0058141D01*
X0047315D01*
X0047482Y0057974D01*
Y0057641D01*
X0047315Y0057474D01*
X0046982D01*
X0046815Y0057641D01*
X0048815Y0057974D02*
X0049481D01*
X0050814Y0058474D02*
X0051481D01*
X0051147D01*
Y0057474D01*
X005198D02*
X0052314D01*
X005248Y0057641D01*
Y0057974D01*
X0052314Y0058141D01*
X005198D01*
X0051814Y0057974D01*
Y0057641D01*
X005198Y0057474D01*
X0052814Y0057141D02*
Y0058141D01*
X0053313D01*
X005348Y0057974D01*
Y0057641D01*
X0053313Y0057474D01*
X0052814D01*
X0055479Y0058307D02*
X0055313Y0058474D01*
X005498D01*
X0054813Y0058307D01*
Y0057641D01*
X005498Y0057474D01*
X0055313D01*
X0055479Y0057641D01*
X0055979Y0057474D02*
X0056312D01*
X0056479Y0057641D01*
Y0057974D01*
X0056312Y0058141D01*
X0055979D01*
X0055813Y0057974D01*
Y0057641D01*
X0055979Y0057474D01*
X0056812Y0058141D02*
Y0057641D01*
X0056979Y0057474D01*
X0057479D01*
Y0058141D01*
X0057812D02*
Y0057474D01*
Y0057808D01*
X0057979Y0057974D01*
X0058145Y0058141D01*
X0058312D01*
X0058978Y0058307D02*
Y0058141D01*
X0058812D01*
X0059145D01*
X0058978D01*
Y0057641D01*
X0059145Y0057474D01*
X0059645Y0058141D02*
Y0057641D01*
X0059811Y0057474D01*
X0060311D01*
Y0057308D01*
X0060145Y0057141D01*
X0059978D01*
X0060311Y0057474D02*
Y0058141D01*
X0060811D02*
X0061144D01*
X0061311Y0057974D01*
Y0057474D01*
X0060811D01*
X0060644Y0057641D01*
X0060811Y0057808D01*
X0061311D01*
X0061644Y0058141D02*
Y0057474D01*
Y0057808D01*
X0061811Y0057974D01*
X0061977Y0058141D01*
X0062144D01*
X006331Y0058474D02*
Y0057474D01*
X006281D01*
X0062644Y0057641D01*
Y0057974D01*
X006281Y0058141D01*
X006331D01*
X004315Y0062474D02*
Y0062641D01*
X0043317D01*
Y0062474D01*
X004315D01*
X004465Y0063307D02*
X0044483Y0063474D01*
X004415D01*
X0043983Y0063307D01*
Y0062641D01*
X004415Y0062474D01*
X0044483D01*
X004465Y0062641D01*
Y0062974D01*
X0044316D01*
X0044983Y0062474D02*
Y0063474D01*
X0045316Y0063141D01*
X0045649Y0063474D01*
Y0062474D01*
X0045982D02*
X0046316D01*
X0046149D01*
Y0063474D01*
X0045982Y0063307D01*
X0046815Y0062474D02*
X0047149D01*
X0046982D01*
Y0063474D01*
X0046815Y0063307D01*
X0048648Y0062974D02*
X0049315D01*
X0050648Y0063474D02*
X0051314D01*
X0050981D01*
Y0062474D01*
X0051814D02*
X0052147D01*
X0052314Y0062641D01*
Y0062974D01*
X0052147Y0063141D01*
X0051814D01*
X0051647Y0062974D01*
Y0062641D01*
X0051814Y0062474D01*
X0052647Y0062141D02*
Y0063141D01*
X0053147D01*
X0053313Y0062974D01*
Y0062641D01*
X0053147Y0062474D01*
X0052647D01*
X0054646D02*
Y0063141D01*
X005498Y0063474D01*
X0055313Y0063141D01*
Y0062474D01*
Y0062974D01*
X0054646D01*
X0055646Y0062474D02*
X0056146D01*
X0056312Y0062641D01*
X0056146Y0062808D01*
X0055813D01*
X0055646Y0062974D01*
X0055813Y0063141D01*
X0056312D01*
X0056646Y0062474D02*
X0057145D01*
X0057312Y0062641D01*
X0057145Y0062808D01*
X0056812D01*
X0056646Y0062974D01*
X0056812Y0063141D01*
X0057312D01*
X0058145Y0062474D02*
X0057812D01*
X0057645Y0062641D01*
Y0062974D01*
X0057812Y0063141D01*
X0058145D01*
X0058312Y0062974D01*
Y0062808D01*
X0057645D01*
X0058645Y0062474D02*
Y0063141D01*
X0058812D01*
X0058978Y0062974D01*
Y0062474D01*
Y0062974D01*
X0059145Y0063141D01*
X0059311Y0062974D01*
Y0062474D01*
X0059645Y0063474D02*
Y0062474D01*
X0060145D01*
X0060311Y0062641D01*
Y0062808D01*
Y0062974D01*
X0060145Y0063141D01*
X0059645D01*
X0060644Y0062474D02*
X0060978D01*
X0060811D01*
Y0063474D01*
X0060644D01*
X0061477Y0063141D02*
Y0062641D01*
X0061644Y0062474D01*
X0062144D01*
Y0062308D01*
X0061977Y0062141D01*
X0061811D01*
X0062144Y0062474D02*
Y0063141D01*
X0063477Y0063474D02*
X006381D01*
X0063643D01*
Y0062474D01*
X0063477D01*
X006381D01*
X006431D02*
Y0063141D01*
X006481D01*
X0064976Y0062974D01*
Y0062474D01*
X0065476D02*
Y0063307D01*
Y0062974D01*
X006531D01*
X0065643D01*
X0065476D01*
Y0063307D01*
X0065643Y0063474D01*
X0066309Y0062474D02*
X0066642D01*
X0066809Y0062641D01*
Y0062974D01*
X0066642Y0063141D01*
X0066309D01*
X0066143Y0062974D01*
Y0062641D01*
X0066309Y0062474D01*
X0067142Y0063141D02*
Y0062474D01*
Y0062808D01*
X0067309Y0062974D01*
X0067475Y0063141D01*
X0067642D01*
X0068142Y0062474D02*
Y0063141D01*
X0068309D01*
X0068475Y0062974D01*
Y0062474D01*
Y0062974D01*
X0068642Y0063141D01*
X0068808Y0062974D01*
Y0062474D01*
X0069308Y0063141D02*
X0069641D01*
X0069808Y0062974D01*
Y0062474D01*
X0069308D01*
X0069142Y0062641D01*
X0069308Y0062808D01*
X0069808D01*
X0070308Y0063307D02*
Y0063141D01*
X0070141D01*
X0070475D01*
X0070308D01*
Y0062641D01*
X0070475Y0062474D01*
X0070974D02*
X0071308D01*
X0071141D01*
Y0063141D01*
X0070974D01*
X0071974Y0062474D02*
X0072307D01*
X0072474Y0062641D01*
Y0062974D01*
X0072307Y0063141D01*
X0071974D01*
X0071807Y0062974D01*
Y0062641D01*
X0071974Y0062474D01*
X0072807D02*
Y0063141D01*
X0073307D01*
X0073474Y0062974D01*
Y0062474D01*
X004315Y0060474D02*
Y0060641D01*
X0043317D01*
Y0060474D01*
X004315D01*
X004465Y0061307D02*
X0044483Y0061474D01*
X004415D01*
X0043983Y0061307D01*
Y0060641D01*
X004415Y0060474D01*
X0044483D01*
X004465Y0060641D01*
Y0060974D01*
X0044316D01*
X0044983Y0060474D02*
Y0061474D01*
X0045316Y0061141D01*
X0045649Y0061474D01*
Y0060474D01*
X0045982D02*
X0046316D01*
X0046149D01*
Y0061474D01*
X0045982Y0061307D01*
X0047482Y0060474D02*
X0046815D01*
X0047482Y0061141D01*
Y0061307D01*
X0047315Y0061474D01*
X0046982D01*
X0046815Y0061307D01*
X0048815Y0060974D02*
X0049481D01*
X0050814Y0061474D02*
Y0060474D01*
X0051314D01*
X0051481Y0060641D01*
Y0060808D01*
X0051314Y0060974D01*
X0050814D01*
X0051314D01*
X0051481Y0061141D01*
Y0061307D01*
X0051314Y0061474D01*
X0050814D01*
X005198Y0060474D02*
X0052314D01*
X005248Y0060641D01*
Y0060974D01*
X0052314Y0061141D01*
X005198D01*
X0051814Y0060974D01*
Y0060641D01*
X005198Y0060474D01*
X005298Y0061307D02*
Y0061141D01*
X0052814D01*
X0053147D01*
X005298D01*
Y0060641D01*
X0053147Y0060474D01*
X0053813Y0061307D02*
Y0061141D01*
X0053647D01*
X005398D01*
X0053813D01*
Y0060641D01*
X005398Y0060474D01*
X0054646D02*
X005498D01*
X0055146Y0060641D01*
Y0060974D01*
X005498Y0061141D01*
X0054646D01*
X005448Y0060974D01*
Y0060641D01*
X0054646Y0060474D01*
X0055479D02*
Y0061141D01*
X0055646D01*
X0055813Y0060974D01*
Y0060474D01*
Y0060974D01*
X0055979Y0061141D01*
X0056146Y0060974D01*
Y0060474D01*
X0057479D02*
Y0061141D01*
X0057812Y0061474D01*
X0058145Y0061141D01*
Y0060474D01*
Y0060974D01*
X0057479D01*
X0058478Y0060474D02*
X0058978D01*
X0059145Y0060641D01*
X0058978Y0060808D01*
X0058645D01*
X0058478Y0060974D01*
X0058645Y0061141D01*
X0059145D01*
X0059478Y0060474D02*
X0059978D01*
X0060145Y0060641D01*
X0059978Y0060808D01*
X0059645D01*
X0059478Y0060974D01*
X0059645Y0061141D01*
X0060145D01*
X0060978Y0060474D02*
X0060644D01*
X0060478Y0060641D01*
Y0060974D01*
X0060644Y0061141D01*
X0060978D01*
X0061144Y0060974D01*
Y0060808D01*
X0060478D01*
X0061477Y0060474D02*
Y0061141D01*
X0061644D01*
X0061811Y0060974D01*
Y0060474D01*
Y0060974D01*
X0061977Y0061141D01*
X0062144Y0060974D01*
Y0060474D01*
X0062477Y0061474D02*
Y0060474D01*
X0062977D01*
X0063144Y0060641D01*
Y0060808D01*
Y0060974D01*
X0062977Y0061141D01*
X0062477D01*
X0063477Y0060474D02*
X006381D01*
X0063643D01*
Y0061474D01*
X0063477D01*
X006431Y0061141D02*
Y0060641D01*
X0064476Y0060474D01*
X0064976D01*
Y0060308D01*
X006481Y0060141D01*
X0064643D01*
X0064976Y0060474D02*
Y0061141D01*
X0066309Y0061474D02*
X0066642D01*
X0066476D01*
Y0060474D01*
X0066309D01*
X0066642D01*
X0067142D02*
Y0061141D01*
X0067642D01*
X0067809Y0060974D01*
Y0060474D01*
X0068309D02*
Y0061307D01*
Y0060974D01*
X0068142D01*
X0068475D01*
X0068309D01*
Y0061307D01*
X0068475Y0061474D01*
X0069142Y0060474D02*
X0069475D01*
X0069641Y0060641D01*
Y0060974D01*
X0069475Y0061141D01*
X0069142D01*
X0068975Y0060974D01*
Y0060641D01*
X0069142Y0060474D01*
X0069975Y0061141D02*
Y0060474D01*
Y0060808D01*
X0070141Y0060974D01*
X0070308Y0061141D01*
X0070475D01*
X0070974Y0060474D02*
Y0061141D01*
X0071141D01*
X0071308Y0060974D01*
Y0060474D01*
Y0060974D01*
X0071474Y0061141D01*
X0071641Y0060974D01*
Y0060474D01*
X0072141Y0061141D02*
X0072474D01*
X007264Y0060974D01*
Y0060474D01*
X0072141D01*
X0071974Y0060641D01*
X0072141Y0060808D01*
X007264D01*
X007314Y0061307D02*
Y0061141D01*
X0072974D01*
X0073307D01*
X007314D01*
Y0060641D01*
X0073307Y0060474D01*
X0073807D02*
X007414D01*
X0073973D01*
Y0061141D01*
X0073807D01*
X0074806Y0060474D02*
X007514D01*
X0075306Y0060641D01*
Y0060974D01*
X007514Y0061141D01*
X0074806D01*
X007464Y0060974D01*
Y0060641D01*
X0074806Y0060474D01*
X007564D02*
Y0061141D01*
X0076139D01*
X0076306Y0060974D01*
Y0060474D01*
X004315Y0069308D02*
Y0069474D01*
X0043317D01*
Y0069308D01*
X004315D01*
X004465Y0070141D02*
X0044483Y0070307D01*
X004415D01*
X0043983Y0070141D01*
Y0069474D01*
X004415Y0069308D01*
X0044483D01*
X004465Y0069474D01*
Y0069808D01*
X0044316D01*
X0044983Y0069308D02*
Y0070307D01*
X0045316Y0069974D01*
X0045649Y0070307D01*
Y0069308D01*
X0046649D02*
X0045982D01*
X0046649Y0069974D01*
Y0070141D01*
X0046482Y0070307D01*
X0046149D01*
X0045982Y0070141D01*
X0047982Y0069808D02*
X0048648D01*
X0050648Y0070307D02*
X0049981D01*
Y0069808D01*
X0050314D01*
X0049981D01*
Y0069308D01*
X0051147Y0069974D02*
X0051481D01*
X0051647Y0069808D01*
Y0069308D01*
X0051147D01*
X0050981Y0069474D01*
X0051147Y0069641D01*
X0051647D01*
X005198Y0070307D02*
Y0069308D01*
X005248D01*
X0052647Y0069474D01*
Y0069641D01*
Y0069808D01*
X005248Y0069974D01*
X005198D01*
X005398Y0069308D02*
Y0070307D01*
X0054646Y0069308D01*
Y0070307D01*
X0055146Y0069308D02*
X0055479D01*
X0055646Y0069474D01*
Y0069808D01*
X0055479Y0069974D01*
X0055146D01*
X005498Y0069808D01*
Y0069474D01*
X0055146Y0069308D01*
X0056146Y0070141D02*
Y0069974D01*
X0055979D01*
X0056312D01*
X0056146D01*
Y0069474D01*
X0056312Y0069308D01*
X0057312D02*
X0056979D01*
X0056812Y0069474D01*
Y0069808D01*
X0056979Y0069974D01*
X0057312D01*
X0057479Y0069808D01*
Y0069641D01*
X0056812D01*
X0057812Y0069308D02*
X0058312D01*
X0058478Y0069474D01*
X0058312Y0069641D01*
X0057979D01*
X0057812Y0069808D01*
X0057979Y0069974D01*
X0058478D01*
X004315Y0077308D02*
Y0077474D01*
X0043317D01*
Y0077308D01*
X004315D01*
X004465Y0078141D02*
X0044483Y0078307D01*
X004415D01*
X0043983Y0078141D01*
Y0077474D01*
X004415Y0077308D01*
X0044483D01*
X004465Y0077474D01*
Y0077808D01*
X0044316D01*
X0044983Y0078307D02*
Y0077308D01*
X0045483D01*
X0045649Y0077474D01*
Y0077641D01*
X0045483Y0077808D01*
X0044983D01*
X0045483D01*
X0045649Y0077974D01*
Y0078141D01*
X0045483Y0078307D01*
X0044983D01*
X0046649Y0078141D02*
X0046482Y0078307D01*
X0046149D01*
X0045982Y0078141D01*
Y0077974D01*
X0046149Y0077808D01*
X0046482D01*
X0046649Y0077641D01*
Y0077474D01*
X0046482Y0077308D01*
X0046149D01*
X0045982Y0077474D01*
X0047982Y0077808D02*
X0048648D01*
X0049981Y0078307D02*
Y0077308D01*
X0050481D01*
X0050648Y0077474D01*
Y0077641D01*
X0050481Y0077808D01*
X0049981D01*
X0050481D01*
X0050648Y0077974D01*
Y0078141D01*
X0050481Y0078307D01*
X0049981D01*
X0051147Y0077308D02*
X0051481D01*
X0051647Y0077474D01*
Y0077808D01*
X0051481Y0077974D01*
X0051147D01*
X0050981Y0077808D01*
Y0077474D01*
X0051147Y0077308D01*
X0052147Y0078141D02*
Y0077974D01*
X005198D01*
X0052314D01*
X0052147D01*
Y0077474D01*
X0052314Y0077308D01*
X005298Y0078141D02*
Y0077974D01*
X0052814D01*
X0053147D01*
X005298D01*
Y0077474D01*
X0053147Y0077308D01*
X0053813D02*
X0054146D01*
X0054313Y0077474D01*
Y0077808D01*
X0054146Y0077974D01*
X0053813D01*
X0053647Y0077808D01*
Y0077474D01*
X0053813Y0077308D01*
X0054646D02*
Y0077974D01*
X0054813D01*
X005498Y0077808D01*
Y0077308D01*
Y0077808D01*
X0055146Y0077974D01*
X0055313Y0077808D01*
Y0077308D01*
X0057312Y0078141D02*
X0057145Y0078307D01*
X0056812D01*
X0056646Y0078141D01*
Y0077974D01*
X0056812Y0077808D01*
X0057145D01*
X0057312Y0077641D01*
Y0077474D01*
X0057145Y0077308D01*
X0056812D01*
X0056646Y0077474D01*
X0057812Y0077308D02*
X0058145D01*
X0058312Y0077474D01*
Y0077808D01*
X0058145Y0077974D01*
X0057812D01*
X0057645Y0077808D01*
Y0077474D01*
X0057812Y0077308D01*
X0058645D02*
X0058978D01*
X0058812D01*
Y0078307D01*
X0058645D01*
X0060145D02*
Y0077308D01*
X0059645D01*
X0059478Y0077474D01*
Y0077808D01*
X0059645Y0077974D01*
X0060145D01*
X0060978Y0077308D02*
X0060644D01*
X0060478Y0077474D01*
Y0077808D01*
X0060644Y0077974D01*
X0060978D01*
X0061144Y0077808D01*
Y0077641D01*
X0060478D01*
X0061477Y0077974D02*
Y0077308D01*
Y0077641D01*
X0061644Y0077808D01*
X0061811Y0077974D01*
X0061977D01*
X0063477Y0077308D02*
Y0078307D01*
X006381Y0077974D01*
X0064143Y0078307D01*
Y0077308D01*
X0064643Y0077974D02*
X0064976D01*
X0065143Y0077808D01*
Y0077308D01*
X0064643D01*
X0064476Y0077474D01*
X0064643Y0077641D01*
X0065143D01*
X0065476Y0077308D02*
X0065976D01*
X0066143Y0077474D01*
X0065976Y0077641D01*
X0065643D01*
X0065476Y0077808D01*
X0065643Y0077974D01*
X0066143D01*
X0066476Y0077308D02*
Y0078307D01*
Y0077641D02*
X0066976Y0077974D01*
X0066476Y0077641D02*
X0066976Y0077308D01*
X004315Y0079474D02*
Y0079641D01*
X0043317D01*
Y0079474D01*
X004315D01*
X004465Y0080307D02*
X0044483Y0080474D01*
X004415D01*
X0043983Y0080307D01*
Y0079641D01*
X004415Y0079474D01*
X0044483D01*
X004465Y0079641D01*
Y0079974D01*
X0044316D01*
X0044983Y0080474D02*
X0045649D01*
X0045316D01*
Y0079474D01*
X0046649Y0080307D02*
X0046482Y0080474D01*
X0046149D01*
X0045982Y0080307D01*
Y0080141D01*
X0046149Y0079974D01*
X0046482D01*
X0046649Y0079808D01*
Y0079641D01*
X0046482Y0079474D01*
X0046149D01*
X0045982Y0079641D01*
X0047982Y0079974D02*
X0048648D01*
X0049981Y0080474D02*
X0050648D01*
X0050314D01*
Y0079474D01*
X0051147D02*
X0051481D01*
X0051647Y0079641D01*
Y0079974D01*
X0051481Y0080141D01*
X0051147D01*
X0050981Y0079974D01*
Y0079641D01*
X0051147Y0079474D01*
X005198Y0079141D02*
Y0080141D01*
X005248D01*
X0052647Y0079974D01*
Y0079641D01*
X005248Y0079474D01*
X005198D01*
X0054646Y0080307D02*
X005448Y0080474D01*
X0054146D01*
X005398Y0080307D01*
Y0080141D01*
X0054146Y0079974D01*
X005448D01*
X0054646Y0079808D01*
Y0079641D01*
X005448Y0079474D01*
X0054146D01*
X005398Y0079641D01*
X0055146Y0079474D02*
X0055479D01*
X0055646Y0079641D01*
Y0079974D01*
X0055479Y0080141D01*
X0055146D01*
X005498Y0079974D01*
Y0079641D01*
X0055146Y0079474D01*
X0055979D02*
X0056312D01*
X0056146D01*
Y0080474D01*
X0055979D01*
X0057479D02*
Y0079474D01*
X0056979D01*
X0056812Y0079641D01*
Y0079974D01*
X0056979Y0080141D01*
X0057479D01*
X0058312Y0079474D02*
X0057979D01*
X0057812Y0079641D01*
Y0079974D01*
X0057979Y0080141D01*
X0058312D01*
X0058478Y0079974D01*
Y0079808D01*
X0057812D01*
X0058812Y0080141D02*
Y0079474D01*
Y0079808D01*
X0058978Y0079974D01*
X0059145Y0080141D01*
X0059311D01*
X0060811Y0079474D02*
Y0080474D01*
X0061144Y0080141D01*
X0061477Y0080474D01*
Y0079474D01*
X0061977Y0080141D02*
X006231D01*
X0062477Y0079974D01*
Y0079474D01*
X0061977D01*
X0061811Y0079641D01*
X0061977Y0079808D01*
X0062477D01*
X006281Y0079474D02*
X006331D01*
X0063477Y0079641D01*
X006331Y0079808D01*
X0062977D01*
X006281Y0079974D01*
X0062977Y0080141D01*
X0063477D01*
X006381Y0079474D02*
Y0080474D01*
Y0079808D02*
X006431Y0080141D01*
X006381Y0079808D02*
X006431Y0079474D01*
X004315Y0084474D02*
Y0084641D01*
X0043317D01*
Y0084474D01*
X004315D01*
X004465Y0085307D02*
X0044483Y0085474D01*
X004415D01*
X0043983Y0085307D01*
Y0084641D01*
X004415Y0084474D01*
X0044483D01*
X004465Y0084641D01*
Y0084974D01*
X0044316D01*
X0044983Y0085474D02*
X0045649D01*
X0045316D01*
Y0084474D01*
X0046482Y0085474D02*
X0046149D01*
X0045982Y0085307D01*
Y0084641D01*
X0046149Y0084474D01*
X0046482D01*
X0046649Y0084641D01*
Y0085307D01*
X0046482Y0085474D01*
X0047982Y0084974D02*
X0048648D01*
X0049981Y0085474D02*
X0050648D01*
X0050314D01*
Y0084474D01*
X0051147D02*
X0051481D01*
X0051647Y0084641D01*
Y0084974D01*
X0051481Y0085141D01*
X0051147D01*
X0050981Y0084974D01*
Y0084641D01*
X0051147Y0084474D01*
X005198Y0084141D02*
Y0085141D01*
X005248D01*
X0052647Y0084974D01*
Y0084641D01*
X005248Y0084474D01*
X005198D01*
X005448Y0085474D02*
X0054146D01*
X005398Y0085307D01*
Y0084641D01*
X0054146Y0084474D01*
X005448D01*
X0054646Y0084641D01*
Y0085307D01*
X005448Y0085474D01*
X005498Y0085141D02*
X0055313Y0084474D01*
X0055646Y0085141D01*
X0056479Y0084474D02*
X0056146D01*
X0055979Y0084641D01*
Y0084974D01*
X0056146Y0085141D01*
X0056479D01*
X0056646Y0084974D01*
Y0084808D01*
X0055979D01*
X0056979Y0085141D02*
Y0084474D01*
Y0084808D01*
X0057145Y0084974D01*
X0057312Y0085141D01*
X0057479D01*
X0057979Y0084474D02*
X0058312D01*
X0058145D01*
Y0085474D01*
X0057979D01*
X0058978Y0085141D02*
X0059311D01*
X0059478Y0084974D01*
Y0084474D01*
X0058978D01*
X0058812Y0084641D01*
X0058978Y0084808D01*
X0059478D01*
X0059811Y0085141D02*
Y0084641D01*
X0059978Y0084474D01*
X0060478D01*
Y0084308D01*
X0060311Y0084141D01*
X0060145D01*
X0060478Y0084474D02*
Y0085141D01*
X004315Y0072308D02*
Y0072474D01*
X0043317D01*
Y0072308D01*
X004315D01*
X004465Y0073141D02*
X0044483Y0073307D01*
X004415D01*
X0043983Y0073141D01*
Y0072474D01*
X004415Y0072308D01*
X0044483D01*
X004465Y0072474D01*
Y0072808D01*
X0044316D01*
X0044983Y0073307D02*
Y0072308D01*
X0045483D01*
X0045649Y0072474D01*
Y0072641D01*
X0045483Y0072808D01*
X0044983D01*
X0045483D01*
X0045649Y0072974D01*
Y0073141D01*
X0045483Y0073307D01*
X0044983D01*
X0045982Y0072308D02*
Y0073307D01*
X0046482D01*
X0046649Y0073141D01*
Y0072808D01*
X0046482Y0072641D01*
X0045982D01*
X0047982Y0072808D02*
X0048648D01*
X0049981Y0073307D02*
Y0072308D01*
X0050481D01*
X0050648Y0072474D01*
Y0072641D01*
X0050481Y0072808D01*
X0049981D01*
X0050481D01*
X0050648Y0072974D01*
Y0073141D01*
X0050481Y0073307D01*
X0049981D01*
X0051147Y0072308D02*
X0051481D01*
X0051647Y0072474D01*
Y0072808D01*
X0051481Y0072974D01*
X0051147D01*
X0050981Y0072808D01*
Y0072474D01*
X0051147Y0072308D01*
X0052147Y0073141D02*
Y0072974D01*
X005198D01*
X0052314D01*
X0052147D01*
Y0072474D01*
X0052314Y0072308D01*
X005298Y0073141D02*
Y0072974D01*
X0052814D01*
X0053147D01*
X005298D01*
Y0072474D01*
X0053147Y0072308D01*
X0053813D02*
X0054146D01*
X0054313Y0072474D01*
Y0072808D01*
X0054146Y0072974D01*
X0053813D01*
X0053647Y0072808D01*
Y0072474D01*
X0053813Y0072308D01*
X0054646D02*
Y0072974D01*
X0054813D01*
X005498Y0072808D01*
Y0072308D01*
Y0072808D01*
X0055146Y0072974D01*
X0055313Y0072808D01*
Y0072308D01*
X0056646D02*
Y0073307D01*
X0057145D01*
X0057312Y0073141D01*
Y0072808D01*
X0057145Y0072641D01*
X0056646D01*
X0057812Y0072974D02*
X0058145D01*
X0058312Y0072808D01*
Y0072308D01*
X0057812D01*
X0057645Y0072474D01*
X0057812Y0072641D01*
X0058312D01*
X0058645Y0072308D02*
X0059145D01*
X0059311Y0072474D01*
X0059145Y0072641D01*
X0058812D01*
X0058645Y0072808D01*
X0058812Y0072974D01*
X0059311D01*
X0059811Y0073141D02*
Y0072974D01*
X0059645D01*
X0059978D01*
X0059811D01*
Y0072474D01*
X0059978Y0072308D01*
X0060978D02*
X0060644D01*
X0060478Y0072474D01*
Y0072808D01*
X0060644Y0072974D01*
X0060978D01*
X0061144Y0072808D01*
Y0072641D01*
X0060478D01*
X004315Y0074474D02*
Y0074641D01*
X0043317D01*
Y0074474D01*
X004315D01*
X004465Y0075307D02*
X0044483Y0075474D01*
X004415D01*
X0043983Y0075307D01*
Y0074641D01*
X004415Y0074474D01*
X0044483D01*
X004465Y0074641D01*
Y0074974D01*
X0044316D01*
X0044983Y0075474D02*
X0045649D01*
X0045316D01*
Y0074474D01*
X0045982D02*
Y0075474D01*
X0046482D01*
X0046649Y0075307D01*
Y0074974D01*
X0046482Y0074808D01*
X0045982D01*
X0047982Y0074974D02*
X0048648D01*
X0049981Y0075474D02*
X0050648D01*
X0050314D01*
Y0074474D01*
X0051147D02*
X0051481D01*
X0051647Y0074641D01*
Y0074974D01*
X0051481Y0075141D01*
X0051147D01*
X0050981Y0074974D01*
Y0074641D01*
X0051147Y0074474D01*
X005198Y0074141D02*
Y0075141D01*
X005248D01*
X0052647Y0074974D01*
Y0074641D01*
X005248Y0074474D01*
X005198D01*
X005398D02*
Y0075474D01*
X005448D01*
X0054646Y0075307D01*
Y0074974D01*
X005448Y0074808D01*
X005398D01*
X0055146Y0075141D02*
X0055479D01*
X0055646Y0074974D01*
Y0074474D01*
X0055146D01*
X005498Y0074641D01*
X0055146Y0074808D01*
X0055646D01*
X0055979Y0074474D02*
X0056479D01*
X0056646Y0074641D01*
X0056479Y0074808D01*
X0056146D01*
X0055979Y0074974D01*
X0056146Y0075141D01*
X0056646D01*
X0057145Y0075307D02*
Y0075141D01*
X0056979D01*
X0057312D01*
X0057145D01*
Y0074641D01*
X0057312Y0074474D01*
X0058312D02*
X0057979D01*
X0057812Y0074641D01*
Y0074974D01*
X0057979Y0075141D01*
X0058312D01*
X0058478Y0074974D01*
Y0074808D01*
X0057812D01*
X004315Y0067308D02*
Y0067474D01*
X0043317D01*
Y0067308D01*
X004315D01*
X004465Y0068141D02*
X0044483Y0068307D01*
X004415D01*
X0043983Y0068141D01*
Y0067474D01*
X004415Y0067308D01*
X0044483D01*
X004465Y0067474D01*
Y0067808D01*
X0044316D01*
X0044983Y0067308D02*
Y0068307D01*
X0045316Y0067974D01*
X0045649Y0068307D01*
Y0067308D01*
X0045982Y0068141D02*
X0046149Y0068307D01*
X0046482D01*
X0046649Y0068141D01*
Y0067974D01*
X0046482Y0067808D01*
X0046316D01*
X0046482D01*
X0046649Y0067641D01*
Y0067474D01*
X0046482Y0067308D01*
X0046149D01*
X0045982Y0067474D01*
X0047982Y0067808D02*
X0048648D01*
X0049981Y0068307D02*
Y0067308D01*
X0050481D01*
X0050648Y0067474D01*
Y0067641D01*
X0050481Y0067808D01*
X0049981D01*
X0050481D01*
X0050648Y0067974D01*
Y0068141D01*
X0050481Y0068307D01*
X0049981D01*
X0051147Y0067308D02*
X0051481D01*
X0051647Y0067474D01*
Y0067808D01*
X0051481Y0067974D01*
X0051147D01*
X0050981Y0067808D01*
Y0067474D01*
X0051147Y0067308D01*
X0052147Y0067974D02*
X005248D01*
X0052647Y0067808D01*
Y0067308D01*
X0052147D01*
X005198Y0067474D01*
X0052147Y0067641D01*
X0052647D01*
X005298Y0067974D02*
Y0067308D01*
Y0067641D01*
X0053147Y0067808D01*
X0053313Y0067974D01*
X005348D01*
X0054646Y0068307D02*
Y0067308D01*
X0054146D01*
X005398Y0067474D01*
Y0067808D01*
X0054146Y0067974D01*
X0054646D01*
X0056146Y0067308D02*
X0056479D01*
X0056646Y0067474D01*
Y0067808D01*
X0056479Y0067974D01*
X0056146D01*
X0055979Y0067808D01*
Y0067474D01*
X0056146Y0067308D01*
X0056979Y0067974D02*
Y0067474D01*
X0057145Y0067308D01*
X0057645D01*
Y0067974D01*
X0058145Y0068141D02*
Y0067974D01*
X0057979D01*
X0058312D01*
X0058145D01*
Y0067474D01*
X0058312Y0067308D01*
X0058812D02*
X0059145D01*
X0058978D01*
Y0068307D01*
X0058812D01*
X0059645Y0067308D02*
X0059978D01*
X0059811D01*
Y0067974D01*
X0059645D01*
X0060478Y0067308D02*
Y0067974D01*
X0060978D01*
X0061144Y0067808D01*
Y0067308D01*
X0061977D02*
X0061644D01*
X0061477Y0067474D01*
Y0067808D01*
X0061644Y0067974D01*
X0061977D01*
X0062144Y0067808D01*
Y0067641D01*
X0061477D01*
X004315Y0082474D02*
Y0082641D01*
X0043317D01*
Y0082474D01*
X004315D01*
X004465Y0083307D02*
X0044483Y0083474D01*
X004415D01*
X0043983Y0083307D01*
Y0082641D01*
X004415Y0082474D01*
X0044483D01*
X004465Y0082641D01*
Y0082974D01*
X0044316D01*
X0044983Y0083474D02*
Y0082474D01*
X0045483D01*
X0045649Y0082641D01*
Y0082808D01*
X0045483Y0082974D01*
X0044983D01*
X0045483D01*
X0045649Y0083141D01*
Y0083307D01*
X0045483Y0083474D01*
X0044983D01*
X0046482D02*
X0046149D01*
X0045982Y0083307D01*
Y0082641D01*
X0046149Y0082474D01*
X0046482D01*
X0046649Y0082641D01*
Y0083307D01*
X0046482Y0083474D01*
X0047982Y0082974D02*
X0048648D01*
X0049981Y0083474D02*
Y0082474D01*
X0050481D01*
X0050648Y0082641D01*
Y0082808D01*
X0050481Y0082974D01*
X0049981D01*
X0050481D01*
X0050648Y0083141D01*
Y0083307D01*
X0050481Y0083474D01*
X0049981D01*
X0051147Y0082474D02*
X0051481D01*
X0051647Y0082641D01*
Y0082974D01*
X0051481Y0083141D01*
X0051147D01*
X0050981Y0082974D01*
Y0082641D01*
X0051147Y0082474D01*
X0052147Y0083307D02*
Y0083141D01*
X005198D01*
X0052314D01*
X0052147D01*
Y0082641D01*
X0052314Y0082474D01*
X005298Y0083307D02*
Y0083141D01*
X0052814D01*
X0053147D01*
X005298D01*
Y0082641D01*
X0053147Y0082474D01*
X0053813D02*
X0054146D01*
X0054313Y0082641D01*
Y0082974D01*
X0054146Y0083141D01*
X0053813D01*
X0053647Y0082974D01*
Y0082641D01*
X0053813Y0082474D01*
X0054646D02*
Y0083141D01*
X0054813D01*
X005498Y0082974D01*
Y0082474D01*
Y0082974D01*
X0055146Y0083141D01*
X0055313Y0082974D01*
Y0082474D01*
X0057145Y0083474D02*
X0056812D01*
X0056646Y0083307D01*
Y0082641D01*
X0056812Y0082474D01*
X0057145D01*
X0057312Y0082641D01*
Y0083307D01*
X0057145Y0083474D01*
X0057645Y0083141D02*
X0057979Y0082474D01*
X0058312Y0083141D01*
X0059145Y0082474D02*
X0058812D01*
X0058645Y0082641D01*
Y0082974D01*
X0058812Y0083141D01*
X0059145D01*
X0059311Y0082974D01*
Y0082808D01*
X0058645D01*
X0059645Y0083141D02*
Y0082474D01*
Y0082808D01*
X0059811Y0082974D01*
X0059978Y0083141D01*
X0060145D01*
X0060644Y0082474D02*
X0060978D01*
X0060811D01*
Y0083474D01*
X0060644D01*
X0061644Y0083141D02*
X0061977D01*
X0062144Y0082974D01*
Y0082474D01*
X0061644D01*
X0061477Y0082641D01*
X0061644Y0082808D01*
X0062144D01*
X0062477Y0083141D02*
Y0082641D01*
X0062644Y0082474D01*
X0063144D01*
Y0082308D01*
X0062977Y0082141D01*
X006281D01*
X0063144Y0082474D02*
Y0083141D01*
X004315Y0065474D02*
Y0065641D01*
X0043317D01*
Y0065474D01*
X004315D01*
X004465Y0066307D02*
X0044483Y0066474D01*
X004415D01*
X0043983Y0066307D01*
Y0065641D01*
X004415Y0065474D01*
X0044483D01*
X004465Y0065641D01*
Y0065974D01*
X0044316D01*
X0044983Y0065474D02*
Y0066474D01*
X0045316Y0066141D01*
X0045649Y0066474D01*
Y0065474D01*
X0045982Y0066474D02*
X0046649D01*
Y0066307D01*
X0045982Y0065641D01*
Y0065474D01*
X0047982Y0065974D02*
X0048648D01*
X0049981Y0066474D02*
X0050314D01*
X0050148D01*
Y0065474D01*
X0049981D01*
X0050314D01*
X0050814D02*
Y0066141D01*
X0051314D01*
X0051481Y0065974D01*
Y0065474D01*
X005198Y0066307D02*
Y0066141D01*
X0051814D01*
X0052147D01*
X005198D01*
Y0065641D01*
X0052147Y0065474D01*
X0053147D02*
X0052814D01*
X0052647Y0065641D01*
Y0065974D01*
X0052814Y0066141D01*
X0053147D01*
X0053313Y0065974D01*
Y0065808D01*
X0052647D01*
X0053647Y0066141D02*
Y0065474D01*
Y0065808D01*
X0053813Y0065974D01*
X005398Y0066141D01*
X0054146D01*
X0054646Y0065474D02*
Y0066141D01*
X0055146D01*
X0055313Y0065974D01*
Y0065474D01*
X0055813Y0066141D02*
X0056146D01*
X0056312Y0065974D01*
Y0065474D01*
X0055813D01*
X0055646Y0065641D01*
X0055813Y0065808D01*
X0056312D01*
X0056646Y0065474D02*
X0056979D01*
X0056812D01*
Y0066474D01*
X0056646D01*
X0058478Y0065474D02*
Y0066474D01*
X0058812Y0066141D01*
X0059145Y0066474D01*
Y0065474D01*
X0059478D02*
X0059811D01*
X0059645D01*
Y0066141D01*
X0059478D01*
X0060311Y0065474D02*
X0060644D01*
X0060478D01*
Y0066474D01*
X0060311D01*
X0061144Y0065474D02*
X0061477D01*
X0061311D01*
Y0066474D01*
X0061144D01*
X0061977Y0065474D02*
X006231D01*
X0062144D01*
Y0066141D01*
X0061977D01*
X006281Y0065474D02*
Y0066141D01*
X006331D01*
X0063477Y0065974D01*
Y0065474D01*
X0064143Y0065141D02*
X006431D01*
X0064476Y0065308D01*
Y0066141D01*
X0063977D01*
X006381Y0065974D01*
Y0065641D01*
X0063977Y0065474D01*
X0064476D01*
X0066309Y0066474D02*
X0065976D01*
X0065809Y0066307D01*
Y0065641D01*
X0065976Y0065474D01*
X0066309D01*
X0066476Y0065641D01*
Y0066307D01*
X0066309Y0066474D01*
X0066809Y0066141D02*
Y0065641D01*
X0066976Y0065474D01*
X0067475D01*
Y0066141D01*
X0067975Y0066307D02*
Y0066141D01*
X0067809D01*
X0068142D01*
X0067975D01*
Y0065641D01*
X0068142Y0065474D01*
X0068642D02*
X0068975D01*
X0068808D01*
Y0066474D01*
X0068642D01*
X0069475Y0065474D02*
X0069808D01*
X0069641D01*
Y0066141D01*
X0069475D01*
X0070308Y0065474D02*
Y0066141D01*
X0070808D01*
X0070974Y0065974D01*
Y0065474D01*
X0071807D02*
X0071474D01*
X0071308Y0065641D01*
Y0065974D01*
X0071474Y0066141D01*
X0071807D01*
X0071974Y0065974D01*
Y0065808D01*
X0071308D01*
X004315Y0091474D02*
Y0091641D01*
X0043317D01*
Y0091474D01*
X004315D01*
X004465Y0092307D02*
X0044483Y0092474D01*
X004415D01*
X0043983Y0092307D01*
Y0091641D01*
X004415Y0091474D01*
X0044483D01*
X004465Y0091641D01*
Y0091974D01*
X0044316D01*
X0044983Y0092474D02*
X0045649D01*
X0045316D01*
Y0091474D01*
X0045982Y0092474D02*
Y0091474D01*
X0046649D01*
X0047982Y0091974D02*
X0048648D01*
X0049981Y0092474D02*
X0050648D01*
X0050314D01*
Y0091474D01*
X0051147D02*
X0051481D01*
X0051647Y0091641D01*
Y0091974D01*
X0051481Y0092141D01*
X0051147D01*
X0050981Y0091974D01*
Y0091641D01*
X0051147Y0091474D01*
X005198Y0091141D02*
Y0092141D01*
X005248D01*
X0052647Y0091974D01*
Y0091641D01*
X005248Y0091474D01*
X005198D01*
X005398Y0092474D02*
Y0091474D01*
X0054646D01*
X0055146Y0092141D02*
X0055479D01*
X0055646Y0091974D01*
Y0091474D01*
X0055146D01*
X005498Y0091641D01*
X0055146Y0091808D01*
X0055646D01*
X0055979Y0092141D02*
Y0091641D01*
X0056146Y0091474D01*
X0056646D01*
Y0091308D01*
X0056479Y0091141D01*
X0056312D01*
X0056646Y0091474D02*
Y0092141D01*
X0057479Y0091474D02*
X0057145D01*
X0056979Y0091641D01*
Y0091974D01*
X0057145Y0092141D01*
X0057479D01*
X0057645Y0091974D01*
Y0091808D01*
X0056979D01*
X0057979Y0092141D02*
Y0091474D01*
Y0091808D01*
X0058145Y0091974D01*
X0058312Y0092141D01*
X0058478D01*
X0060311Y0091474D02*
X0059978Y0091808D01*
Y0092141D01*
X0060311Y0092474D01*
X0060811Y0091474D02*
Y0092141D01*
X0061311D01*
X0061477Y0091974D01*
Y0091474D01*
X0061977D02*
X006231D01*
X0062477Y0091641D01*
Y0091974D01*
X006231Y0092141D01*
X0061977D01*
X0061811Y0091974D01*
Y0091641D01*
X0061977Y0091474D01*
X006281D02*
Y0091641D01*
X0062977D01*
Y0091474D01*
X006281D01*
X0064643D02*
X0064976D01*
X006481D01*
Y0092474D01*
X0064643Y0092307D01*
X0065476Y0091474D02*
X0065809Y0091808D01*
Y0092141D01*
X0065476Y0092474D01*
X0067642Y0091474D02*
X0067309Y0091808D01*
Y0092141D01*
X0067642Y0092474D01*
X0068808Y0092141D02*
X0068309D01*
X0068142Y0091974D01*
Y0091641D01*
X0068309Y0091474D01*
X0068808D01*
X0069308D02*
X0069641D01*
X0069808Y0091641D01*
Y0091974D01*
X0069641Y0092141D01*
X0069308D01*
X0069142Y0091974D01*
Y0091641D01*
X0069308Y0091474D01*
X0070141Y0091141D02*
Y0092141D01*
X0070641D01*
X0070808Y0091974D01*
Y0091641D01*
X0070641Y0091474D01*
X0070141D01*
X0071141Y0091141D02*
Y0092141D01*
X0071641D01*
X0071807Y0091974D01*
Y0091641D01*
X0071641Y0091474D01*
X0071141D01*
X007264D02*
X0072307D01*
X0072141Y0091641D01*
Y0091974D01*
X0072307Y0092141D01*
X007264D01*
X0072807Y0091974D01*
Y0091808D01*
X0072141D01*
X007314Y0092141D02*
Y0091474D01*
Y0091808D01*
X0073307Y0091974D01*
X0073474Y0092141D01*
X007364D01*
X007414Y0091474D02*
X0074473Y0091808D01*
Y0092141D01*
X007414Y0092474D01*
X004315Y0087474D02*
Y0087641D01*
X0043317D01*
Y0087474D01*
X004315D01*
X004465Y0088307D02*
X0044483Y0088474D01*
X004415D01*
X0043983Y0088307D01*
Y0087641D01*
X004415Y0087474D01*
X0044483D01*
X004465Y0087641D01*
Y0087974D01*
X0044316D01*
X0044983Y0088474D02*
Y0087474D01*
X0045483D01*
X0045649Y0087641D01*
Y0087808D01*
X0045483Y0087974D01*
X0044983D01*
X0045483D01*
X0045649Y0088141D01*
Y0088307D01*
X0045483Y0088474D01*
X0044983D01*
X0045982D02*
Y0087474D01*
X0046649D01*
X0047982Y0087974D02*
X0048648D01*
X0049981Y0088474D02*
Y0087474D01*
X0050481D01*
X0050648Y0087641D01*
Y0087808D01*
X0050481Y0087974D01*
X0049981D01*
X0050481D01*
X0050648Y0088141D01*
Y0088307D01*
X0050481Y0088474D01*
X0049981D01*
X0051147Y0087474D02*
X0051481D01*
X0051647Y0087641D01*
Y0087974D01*
X0051481Y0088141D01*
X0051147D01*
X0050981Y0087974D01*
Y0087641D01*
X0051147Y0087474D01*
X0052147Y0088307D02*
Y0088141D01*
X005198D01*
X0052314D01*
X0052147D01*
Y0087641D01*
X0052314Y0087474D01*
X005298Y0088307D02*
Y0088141D01*
X0052814D01*
X0053147D01*
X005298D01*
Y0087641D01*
X0053147Y0087474D01*
X0053813D02*
X0054146D01*
X0054313Y0087641D01*
Y0087974D01*
X0054146Y0088141D01*
X0053813D01*
X0053647Y0087974D01*
Y0087641D01*
X0053813Y0087474D01*
X0054646D02*
Y0088141D01*
X0054813D01*
X005498Y0087974D01*
Y0087474D01*
Y0087974D01*
X0055146Y0088141D01*
X0055313Y0087974D01*
Y0087474D01*
X0056646Y0088474D02*
Y0087474D01*
X0057312D01*
X0057812Y0088141D02*
X0058145D01*
X0058312Y0087974D01*
Y0087474D01*
X0057812D01*
X0057645Y0087641D01*
X0057812Y0087808D01*
X0058312D01*
X0058645Y0088141D02*
Y0087641D01*
X0058812Y0087474D01*
X0059311D01*
Y0087308D01*
X0059145Y0087141D01*
X0058978D01*
X0059311Y0087474D02*
Y0088141D01*
X0060145Y0087474D02*
X0059811D01*
X0059645Y0087641D01*
Y0087974D01*
X0059811Y0088141D01*
X0060145D01*
X0060311Y0087974D01*
Y0087808D01*
X0059645D01*
X0060644Y0088141D02*
Y0087474D01*
Y0087808D01*
X0060811Y0087974D01*
X0060978Y0088141D01*
X0061144D01*
X0062977Y0087474D02*
X0062644Y0087808D01*
Y0088141D01*
X0062977Y0088474D01*
X0064143Y0088141D02*
X0063643D01*
X0063477Y0087974D01*
Y0087641D01*
X0063643Y0087474D01*
X0064143D01*
X0064643D02*
X0064976D01*
X0065143Y0087641D01*
Y0087974D01*
X0064976Y0088141D01*
X0064643D01*
X0064476Y0087974D01*
Y0087641D01*
X0064643Y0087474D01*
X0065476Y0087141D02*
Y0088141D01*
X0065976D01*
X0066143Y0087974D01*
Y0087641D01*
X0065976Y0087474D01*
X0065476D01*
X0066476Y0087141D02*
Y0088141D01*
X0066976D01*
X0067142Y0087974D01*
Y0087641D01*
X0066976Y0087474D01*
X0066476D01*
X0067975D02*
X0067642D01*
X0067475Y0087641D01*
Y0087974D01*
X0067642Y0088141D01*
X0067975D01*
X0068142Y0087974D01*
Y0087808D01*
X0067475D01*
X0068475Y0088141D02*
Y0087474D01*
Y0087808D01*
X0068642Y0087974D01*
X0068808Y0088141D01*
X0068975D01*
X0069475Y0087474D02*
X0069808Y0087808D01*
Y0088141D01*
X0069475Y0088474D01*
X004315Y0089474D02*
Y0089641D01*
X0043317D01*
Y0089474D01*
X004315D01*
X004465Y0090307D02*
X0044483Y0090474D01*
X004415D01*
X0043983Y0090307D01*
Y0089641D01*
X004415Y0089474D01*
X0044483D01*
X004465Y0089641D01*
Y0089974D01*
X0044316D01*
X0044983Y0089474D02*
Y0090141D01*
X0045483D01*
X0045649Y0089974D01*
Y0089474D01*
X0046982D02*
Y0089641D01*
X0047149D01*
Y0089474D01*
X0046982D01*
X0048482Y0090307D02*
X0048315Y0090474D01*
X0047982D01*
X0047815Y0090307D01*
Y0089641D01*
X0047982Y0089474D01*
X0048315D01*
X0048482Y0089641D01*
Y0089974D01*
X0048148D01*
X0048815Y0089474D02*
Y0090474D01*
X0049315D01*
X0049481Y0090307D01*
Y0089974D01*
X0049315Y0089808D01*
X0048815D01*
X0049815Y0089474D02*
Y0090141D01*
X0050314D01*
X0050481Y0089974D01*
Y0089474D01*
X0051814Y0089974D02*
X005248D01*
X0053813Y0090474D02*
X0054146D01*
X005398D01*
Y0089474D01*
X0053813D01*
X0054146D01*
X0054646D02*
Y0090141D01*
X0055146D01*
X0055313Y0089974D01*
Y0089474D01*
X0055646D02*
Y0090141D01*
X0056146D01*
X0056312Y0089974D01*
Y0089474D01*
X0057145D02*
X0056812D01*
X0056646Y0089641D01*
Y0089974D01*
X0056812Y0090141D01*
X0057145D01*
X0057312Y0089974D01*
Y0089808D01*
X0056646D01*
X0057645Y0090141D02*
Y0089474D01*
Y0089808D01*
X0057812Y0089974D01*
X0057979Y0090141D01*
X0058145D01*
X0059645Y0090474D02*
Y0089474D01*
X0060311D01*
X0060811Y0090141D02*
X0061144D01*
X0061311Y0089974D01*
Y0089474D01*
X0060811D01*
X0060644Y0089641D01*
X0060811Y0089808D01*
X0061311D01*
X0061644Y0090141D02*
Y0089641D01*
X0061811Y0089474D01*
X006231D01*
Y0089308D01*
X0062144Y0089141D01*
X0061977D01*
X006231Y0089474D02*
Y0090141D01*
X0063144Y0089474D02*
X006281D01*
X0062644Y0089641D01*
Y0089974D01*
X006281Y0090141D01*
X0063144D01*
X006331Y0089974D01*
Y0089808D01*
X0062644D01*
X0063643Y0090141D02*
Y0089474D01*
Y0089808D01*
X006381Y0089974D01*
X0063977Y0090141D01*
X0064143D01*
X0065976Y0089474D02*
X0065643Y0089808D01*
Y0090141D01*
X0065976Y0090474D01*
X0066476Y0089474D02*
Y0090141D01*
X0066976D01*
X0067142Y0089974D01*
Y0089474D01*
X0067642D02*
X0067975D01*
X0068142Y0089641D01*
Y0089974D01*
X0067975Y0090141D01*
X0067642D01*
X0067475Y0089974D01*
Y0089641D01*
X0067642Y0089474D01*
X0068475D02*
Y0089641D01*
X0068642D01*
Y0089474D01*
X0068475D01*
X0070308D02*
Y0090141D01*
X0070808D01*
X0070974Y0089974D01*
Y0089474D01*
X0071308D02*
X0071641Y0089808D01*
Y0090141D01*
X0071308Y0090474D01*
X0073474Y0089474D02*
X007314Y0089808D01*
Y0090141D01*
X0073474Y0090474D01*
X007464Y0090141D02*
X007414D01*
X0073973Y0089974D01*
Y0089641D01*
X007414Y0089474D01*
X007464D01*
X007514D02*
X0075473D01*
X007564Y0089641D01*
Y0089974D01*
X0075473Y0090141D01*
X007514D01*
X0074973Y0089974D01*
Y0089641D01*
X007514Y0089474D01*
X0075973Y0089141D02*
Y0090141D01*
X0076473D01*
X0076639Y0089974D01*
Y0089641D01*
X0076473Y0089474D01*
X0075973D01*
X0076972Y0089141D02*
Y0090141D01*
X0077472D01*
X0077639Y0089974D01*
Y0089641D01*
X0077472Y0089474D01*
X0076972D01*
X0078472D02*
X0078139D01*
X0077972Y0089641D01*
Y0089974D01*
X0078139Y0090141D01*
X0078472D01*
X0078639Y0089974D01*
Y0089808D01*
X0077972D01*
X0078972Y0090141D02*
Y0089474D01*
Y0089808D01*
X0079138Y0089974D01*
X0079305Y0090141D01*
X0079472D01*
X0079971Y0089474D02*
X0080305Y0089808D01*
Y0090141D01*
X0079971Y0090474D01*
D12*
X00433Y0046D02*
X00438D01*
X004355D01*
Y00445D01*
X00433D01*
X00438D01*
X004455D02*
Y00455D01*
X00448D01*
X0045049Y004525D01*
Y00445D01*
Y004525D01*
X0045299Y00455D01*
X0045549Y004525D01*
Y00445D01*
X0046049Y0044D02*
Y00455D01*
X0046799D01*
X0047049Y004525D01*
Y004475D01*
X0046799Y00445D01*
X0046049D01*
X0048298D02*
X0047799D01*
X0047549Y004475D01*
Y004525D01*
X0047799Y00455D01*
X0048298D01*
X0048548Y004525D01*
Y0045D01*
X0047549D01*
X0050048Y0046D02*
Y00445D01*
X0049298D01*
X0049048Y004475D01*
Y004525D01*
X0049298Y00455D01*
X0050048D01*
X0050798D02*
X0051297D01*
X0051547Y004525D01*
Y00445D01*
X0050798D01*
X0050548Y004475D01*
X0050798Y0045D01*
X0051547D01*
X0052047Y00445D02*
Y00455D01*
X0052797D01*
X0053047Y004525D01*
Y00445D01*
X0054546Y00455D02*
X0053797D01*
X0053547Y004525D01*
Y004475D01*
X0053797Y00445D01*
X0054546D01*
X0055796D02*
X0055296D01*
X0055046Y004475D01*
Y004525D01*
X0055296Y00455D01*
X0055796D01*
X0056046Y004525D01*
Y0045D01*
X0055046D01*
X0058045Y00445D02*
Y00455D01*
X0058295D01*
X0058545Y004525D01*
Y00445D01*
Y004525D01*
X0058795Y00455D01*
X0059045Y004525D01*
Y00445D01*
X0059795Y00455D02*
X0060294D01*
X0060544Y004525D01*
Y00445D01*
X0059795D01*
X0059545Y004475D01*
X0059795Y0045D01*
X0060544D01*
X0061294Y004575D02*
Y00455D01*
X0061044D01*
X0061544D01*
X0061294D01*
Y004475D01*
X0061544Y00445D01*
X0063294Y00455D02*
X0062544D01*
X0062294Y004525D01*
Y004475D01*
X0062544Y00445D01*
X0063294D01*
X0063793Y0046D02*
Y00445D01*
Y004525D01*
X0064043Y00455D01*
X0064543D01*
X0064793Y004525D01*
Y00445D01*
X0065293D02*
X0065793D01*
X0065543D01*
Y00455D01*
X0065293D01*
X0066542Y00445D02*
Y00455D01*
X0067292D01*
X0067542Y004525D01*
Y00445D01*
X0068542Y0044D02*
X0068792D01*
X0069042Y004425D01*
Y00455D01*
X0068292D01*
X0068042Y004525D01*
Y004475D01*
X0068292Y00445D01*
X0069042D01*
X00443Y0101557D02*
X004405Y0101807D01*
X004355D01*
X00433Y0101557D01*
Y0100558D01*
X004355Y0100308D01*
X004405D01*
X00443Y0100558D01*
Y0101057D01*
X00438D01*
X0045549Y0100308D02*
X0045049D01*
X00448Y0100558D01*
Y0101057D01*
X0045049Y0101307D01*
X0045549D01*
X0045799Y0101057D01*
Y0100808D01*
X00448D01*
X0046299Y0101307D02*
Y0100308D01*
Y0100808D01*
X0046549Y0101057D01*
X0046799Y0101307D01*
X0047049D01*
X0047799Y0101807D02*
Y0100308D01*
X0048548D01*
X0048798Y0100558D01*
Y0100808D01*
Y0101057D01*
X0048548Y0101307D01*
X0047799D01*
X0050048Y0100308D02*
X0049548D01*
X0049298Y0100558D01*
Y0101057D01*
X0049548Y0101307D01*
X0050048D01*
X0050298Y0101057D01*
Y0100808D01*
X0049298D01*
X0050798Y0101307D02*
Y0100308D01*
Y0100808D01*
X0051047Y0101057D01*
X0051297Y0101307D01*
X0051547D01*
X0054796Y0101807D02*
X0053797D01*
Y0101057D01*
X0054296D01*
X0053797D01*
Y0100308D01*
X0055296D02*
X0055796D01*
X0055546D01*
Y0101307D01*
X0055296D01*
X0056546Y0100308D02*
X0057046D01*
X0056796D01*
Y0101807D01*
X0056546D01*
X0058545Y0100308D02*
X0058045D01*
X0057795Y0100558D01*
Y0101057D01*
X0058045Y0101307D01*
X0058545D01*
X0058795Y0101057D01*
Y0100808D01*
X0057795D01*
X0059295Y0100308D02*
X0060045D01*
X0060294Y0100558D01*
X0060045Y0100808D01*
X0059545D01*
X0059295Y0101057D01*
X0059545Y0101307D01*
X0060294D01*
X0062294Y0101807D02*
Y0100308D01*
X0063044D01*
X0063294Y0100558D01*
Y0101557D01*
X0063044Y0101807D01*
X0062294D01*
X0064543Y0100308D02*
X0064043D01*
X0063793Y0100558D01*
Y0101057D01*
X0064043Y0101307D01*
X0064543D01*
X0064793Y0101057D01*
Y0100808D01*
X0063793D01*
X0065293Y0100308D02*
X0066043D01*
X0066293Y0100558D01*
X0066043Y0100808D01*
X0065543D01*
X0065293Y0101057D01*
X0065543Y0101307D01*
X0066293D01*
X0067792D02*
X0067042D01*
X0066792Y0101057D01*
Y0100558D01*
X0067042Y0100308D01*
X0067792D01*
X0068292Y0101307D02*
Y0100308D01*
Y0100808D01*
X0068542Y0101057D01*
X0068792Y0101307D01*
X0069042D01*
X0069791Y0100308D02*
X0070291D01*
X0070041D01*
Y0101307D01*
X0069791D01*
X0071041Y0099808D02*
Y0101307D01*
X0071791D01*
X0072041Y0101057D01*
Y0100558D01*
X0071791Y0100308D01*
X0071041D01*
X007279Y0101557D02*
Y0101307D01*
X0072541D01*
X007304D01*
X007279D01*
Y0100558D01*
X007304Y0100308D01*
X007379D02*
X007429D01*
X007404D01*
Y0101307D01*
X007379D01*
X007529Y0100308D02*
X0075789D01*
X0076039Y0100558D01*
Y0101057D01*
X0075789Y0101307D01*
X007529D01*
X007504Y0101057D01*
Y0100558D01*
X007529Y0100308D01*
X0076539D02*
Y0101307D01*
X0077289D01*
X0077539Y0101057D01*
Y0100308D01*
D37*
X-0004Y0021D02*
X-0003492Y0019476D01*
X-0004508D02*
X-0004Y0021D01*
X-0004508Y0001524D02*
X-0004Y0D01*
X-0003492Y0001524D01*
X-0004Y0015451D02*
Y0021D01*
Y0D02*
Y0004736D01*
X-0004254Y0021D02*
X0001746D01*
X-0004254Y0D02*
X0001746D01*
X0037476Y-0004008D02*
X0039Y-00035D01*
X0037476Y-0002992D02*
X0039Y-00035D01*
X0D02*
X0001524Y-0002992D01*
X0Y-00035D02*
X0001524Y-0004008D01*
X0024578Y-00035D02*
X0039D01*
X0D02*
X0013609D01*
X0039Y-0003754D02*
Y0001746D01*
X0Y-0003754D02*
Y0001746D01*
X0098366Y0145574D02*
Y014405D01*
X0099382D01*
X0100144Y0145066D02*
X0100651D01*
X0100905Y0144812D01*
Y014405D01*
X0100144D01*
X009989Y0144304D01*
X0100144Y0144558D01*
X0100905D01*
X0101413Y0145066D02*
Y0144304D01*
X0101667Y014405D01*
X0102429D01*
Y0143796D01*
X0102175Y0143542D01*
X0101921D01*
X0102429Y014405D02*
Y0145066D01*
X0103698Y014405D02*
X0103191D01*
X0102937Y0144304D01*
Y0144812D01*
X0103191Y0145066D01*
X0103698D01*
X0103952Y0144812D01*
Y0144558D01*
X0102937D01*
X010446Y0145066D02*
Y014405D01*
Y0144558D01*
X0104714Y0144812D01*
X0104968Y0145066D01*
X0105222D01*
X0099128Y0116618D02*
Y0118142D01*
X0098366Y011738D01*
X0099382D01*
X0098366Y0123984D02*
X009862Y0124238D01*
X0099128D01*
X0099382Y0123984D01*
Y012373D01*
X0099128Y0123476D01*
X0098874D01*
X0099128D01*
X0099382Y0123222D01*
Y0122968D01*
X0099128Y0122714D01*
X009862D01*
X0098366Y0122968D01*
X0099382Y012881D02*
X0098366D01*
X0099382Y0129826D01*
Y013008D01*
X0099128Y0130334D01*
X009862D01*
X0098366Y013008D01*
Y0134906D02*
X0098874D01*
X009862D01*
Y013643D01*
X0098366Y0136176D01*
X0108778Y014405D02*
Y0145574D01*
X0109794Y014405D01*
Y0145574D01*
X0110555Y0145066D02*
X0111063D01*
X0111317Y0144812D01*
Y014405D01*
X0110555D01*
X0110302Y0144304D01*
X0110555Y0144558D01*
X0111317D01*
X0111825Y014405D02*
Y0145066D01*
X0112079D01*
X0112333Y0144812D01*
Y014405D01*
Y0144812D01*
X0112587Y0145066D01*
X0112841Y0144812D01*
Y014405D01*
X011411D02*
X0113602D01*
X0113349Y0144304D01*
Y0144812D01*
X0113602Y0145066D01*
X011411D01*
X0114364Y0144812D01*
Y0144558D01*
X0113349D01*
X0108778Y0112046D02*
Y0110522D01*
X010954D01*
X0109794Y0110776D01*
Y011103D01*
X010954Y0111284D01*
X0108778D01*
X010954D01*
X0109794Y0111538D01*
Y0111792D01*
X010954Y0112046D01*
X0108778D01*
X0110555Y0110522D02*
X0111063D01*
X0111317Y0110776D01*
Y0111284D01*
X0111063Y0111538D01*
X0110555D01*
X0110302Y0111284D01*
Y0110776D01*
X0110555Y0110522D01*
X0112079Y0111792D02*
Y0111538D01*
X0111825D01*
X0112333D01*
X0112079D01*
Y0110776D01*
X0112333Y0110522D01*
X0113349Y0111792D02*
Y0111538D01*
X0113095D01*
X0113602D01*
X0113349D01*
Y0110776D01*
X0113602Y0110522D01*
X0114618D02*
X0115126D01*
X011538Y0110776D01*
Y0111284D01*
X0115126Y0111538D01*
X0114618D01*
X0114364Y0111284D01*
Y0110776D01*
X0114618Y0110522D01*
X0115888D02*
Y0111538D01*
X0116142D01*
X0116396Y0111284D01*
Y0110522D01*
Y0111284D01*
X0116649Y0111538D01*
X0116903Y0111284D01*
Y0110522D01*
X0119696Y0112046D02*
X0119189D01*
X0118935Y0111792D01*
Y0110776D01*
X0119189Y0110522D01*
X0119696D01*
X011995Y0110776D01*
Y0111792D01*
X0119696Y0112046D01*
X0120458Y0111538D02*
X0120966Y0110522D01*
X0121474Y0111538D01*
X0122743Y0110522D02*
X0122236D01*
X0121982Y0110776D01*
Y0111284D01*
X0122236Y0111538D01*
X0122743D01*
X0122997Y0111284D01*
Y011103D01*
X0121982D01*
X0123505Y0111538D02*
Y0110522D01*
Y011103D01*
X0123759Y0111284D01*
X0124013Y0111538D01*
X0124267D01*
X0125029Y0110522D02*
X0125537D01*
X0125283D01*
Y0112046D01*
X0125029D01*
X0126552Y0111538D02*
X012706D01*
X0127314Y0111284D01*
Y0110522D01*
X0126552D01*
X0126298Y0110776D01*
X0126552Y011103D01*
X0127314D01*
X0127822Y0111538D02*
Y0110776D01*
X0128076Y0110522D01*
X0128838D01*
Y0110268D01*
X0128584Y0110014D01*
X012833D01*
X0128838Y0110522D02*
Y0111538D01*
X0108778Y0115094D02*
Y011357D01*
X010954D01*
X0109794Y0113824D01*
Y0114078D01*
X010954Y0114332D01*
X0108778D01*
X010954D01*
X0109794Y0114586D01*
Y011484D01*
X010954Y0115094D01*
X0108778D01*
X0110555Y011357D02*
X0111063D01*
X0111317Y0113824D01*
Y0114332D01*
X0111063Y0114586D01*
X0110555D01*
X0110302Y0114332D01*
Y0113824D01*
X0110555Y011357D01*
X0112079Y011484D02*
Y0114586D01*
X0111825D01*
X0112333D01*
X0112079D01*
Y0113824D01*
X0112333Y011357D01*
X0113349Y011484D02*
Y0114586D01*
X0113095D01*
X0113602D01*
X0113349D01*
Y0113824D01*
X0113602Y011357D01*
X0114618D02*
X0115126D01*
X011538Y0113824D01*
Y0114332D01*
X0115126Y0114586D01*
X0114618D01*
X0114364Y0114332D01*
Y0113824D01*
X0114618Y011357D01*
X0115888D02*
Y0114586D01*
X0116142D01*
X0116396Y0114332D01*
Y011357D01*
Y0114332D01*
X0116649Y0114586D01*
X0116903Y0114332D01*
Y011357D01*
X011995Y011484D02*
X0119696Y0115094D01*
X0119189D01*
X0118935Y011484D01*
Y0114586D01*
X0119189Y0114332D01*
X0119696D01*
X011995Y0114078D01*
Y0113824D01*
X0119696Y011357D01*
X0119189D01*
X0118935Y0113824D01*
X0120712Y011357D02*
X012122D01*
X0121474Y0113824D01*
Y0114332D01*
X012122Y0114586D01*
X0120712D01*
X0120458Y0114332D01*
Y0113824D01*
X0120712Y011357D01*
X0121982D02*
X012249D01*
X0122236D01*
Y0115094D01*
X0121982D01*
X0124267D02*
Y011357D01*
X0123505D01*
X0123251Y0113824D01*
Y0114332D01*
X0123505Y0114586D01*
X0124267D01*
X0125537Y011357D02*
X0125029D01*
X0124775Y0113824D01*
Y0114332D01*
X0125029Y0114586D01*
X0125537D01*
X012579Y0114332D01*
Y0114078D01*
X0124775D01*
X0126298Y0114586D02*
Y011357D01*
Y0114078D01*
X0126552Y0114332D01*
X0126806Y0114586D01*
X012706D01*
X0108778Y0118142D02*
Y0116618D01*
X010954D01*
X0109794Y0116872D01*
Y0117126D01*
X010954Y011738D01*
X0108778D01*
X010954D01*
X0109794Y0117634D01*
Y0117888D01*
X010954Y0118142D01*
X0108778D01*
X0110555Y0116618D02*
X0111063D01*
X0111317Y0116872D01*
Y011738D01*
X0111063Y0117634D01*
X0110555D01*
X0110302Y011738D01*
Y0116872D01*
X0110555Y0116618D01*
X0112079Y0117888D02*
Y0117634D01*
X0111825D01*
X0112333D01*
X0112079D01*
Y0116872D01*
X0112333Y0116618D01*
X0113349Y0117888D02*
Y0117634D01*
X0113095D01*
X0113602D01*
X0113349D01*
Y0116872D01*
X0113602Y0116618D01*
X0114618D02*
X0115126D01*
X011538Y0116872D01*
Y011738D01*
X0115126Y0117634D01*
X0114618D01*
X0114364Y011738D01*
Y0116872D01*
X0114618Y0116618D01*
X0115888D02*
Y0117634D01*
X0116142D01*
X0116396Y011738D01*
Y0116618D01*
Y011738D01*
X0116649Y0117634D01*
X0116903Y011738D01*
Y0116618D01*
X011995Y0117888D02*
X0119696Y0118142D01*
X0119189D01*
X0118935Y0117888D01*
Y0116872D01*
X0119189Y0116618D01*
X0119696D01*
X011995Y0116872D01*
X0120712Y0116618D02*
X012122D01*
X0121474Y0116872D01*
Y011738D01*
X012122Y0117634D01*
X0120712D01*
X0120458Y011738D01*
Y0116872D01*
X0120712Y0116618D01*
X0121982Y011611D02*
Y0117634D01*
X0122743D01*
X0122997Y011738D01*
Y0116872D01*
X0122743Y0116618D01*
X0121982D01*
X0123505Y011611D02*
Y0117634D01*
X0124267D01*
X0124521Y011738D01*
Y0116872D01*
X0124267Y0116618D01*
X0123505D01*
X012579D02*
X0125283D01*
X0125029Y0116872D01*
Y011738D01*
X0125283Y0117634D01*
X012579D01*
X0126044Y011738D01*
Y0117126D01*
X0125029D01*
X0126552Y0117634D02*
Y0116618D01*
Y0117126D01*
X0126806Y011738D01*
X012706Y0117634D01*
X0127314D01*
X0108778Y012119D02*
Y0119666D01*
X010954D01*
X0109794Y011992D01*
Y0120936D01*
X010954Y012119D01*
X0108778D01*
X0110302Y0119666D02*
X0110809D01*
X0110555D01*
Y0120682D01*
X0110302D01*
X0112333Y0119666D02*
X0111825D01*
X0111571Y011992D01*
Y0120428D01*
X0111825Y0120682D01*
X0112333D01*
X0112587Y0120428D01*
Y0120174D01*
X0111571D01*
X0113095Y0119666D02*
X0113602D01*
X0113349D01*
Y012119D01*
X0113095D01*
X0115126Y0119666D02*
X0114618D01*
X0114364Y011992D01*
Y0120428D01*
X0114618Y0120682D01*
X0115126D01*
X011538Y0120428D01*
Y0120174D01*
X0114364D01*
X0116903Y0120682D02*
X0116142D01*
X0115888Y0120428D01*
Y011992D01*
X0116142Y0119666D01*
X0116903D01*
X0117665Y0120936D02*
Y0120682D01*
X0117411D01*
X0117919D01*
X0117665D01*
Y011992D01*
X0117919Y0119666D01*
X0118681Y0120682D02*
Y0119666D01*
Y0120174D01*
X0118935Y0120428D01*
X0119189Y0120682D01*
X0119443D01*
X0120204Y0119666D02*
X0120712D01*
X0120458D01*
Y0120682D01*
X0120204D01*
X012249D02*
X0121728D01*
X0121474Y0120428D01*
Y011992D01*
X0121728Y0119666D01*
X012249D01*
X0124521Y0120936D02*
X0124775Y012119D01*
X0125283D01*
X0125537Y0120936D01*
Y0120682D01*
X0125283Y0120428D01*
X0125029D01*
X0125283D01*
X0125537Y0120174D01*
Y011992D01*
X0125283Y0119666D01*
X0124775D01*
X0124521Y011992D01*
X0108778Y0123984D02*
X0109032Y0124238D01*
X010954D01*
X0109794Y0123984D01*
Y012373D01*
X010954Y0123476D01*
X0109286D01*
X010954D01*
X0109794Y0123222D01*
Y0122968D01*
X010954Y0122714D01*
X0109032D01*
X0108778Y0122968D01*
Y0127286D02*
Y0125762D01*
X010954D01*
X0109794Y0126016D01*
Y0127032D01*
X010954Y0127286D01*
X0108778D01*
X0110302Y0125762D02*
X0110809D01*
X0110555D01*
Y0126778D01*
X0110302D01*
X0112333Y0125762D02*
X0111825D01*
X0111571Y0126016D01*
Y0126524D01*
X0111825Y0126778D01*
X0112333D01*
X0112587Y0126524D01*
Y012627D01*
X0111571D01*
X0113095Y0125762D02*
X0113602D01*
X0113349D01*
Y0127286D01*
X0113095D01*
X0115126Y0125762D02*
X0114618D01*
X0114364Y0126016D01*
Y0126524D01*
X0114618Y0126778D01*
X0115126D01*
X011538Y0126524D01*
Y012627D01*
X0114364D01*
X0116903Y0126778D02*
X0116142D01*
X0115888Y0126524D01*
Y0126016D01*
X0116142Y0125762D01*
X0116903D01*
X0117665Y0127032D02*
Y0126778D01*
X0117411D01*
X0117919D01*
X0117665D01*
Y0126016D01*
X0117919Y0125762D01*
X0118681Y0126778D02*
Y0125762D01*
Y012627D01*
X0118935Y0126524D01*
X0119189Y0126778D01*
X0119443D01*
X0120204Y0125762D02*
X0120712D01*
X0120458D01*
Y0126778D01*
X0120204D01*
X012249D02*
X0121728D01*
X0121474Y0126524D01*
Y0126016D01*
X0121728Y0125762D01*
X012249D01*
X0125537D02*
X0124521D01*
X0125537Y0126778D01*
Y0127032D01*
X0125283Y0127286D01*
X0124775D01*
X0124521Y0127032D01*
X0109794Y012881D02*
X0108778D01*
X0109794Y0129826D01*
Y013008D01*
X010954Y0130334D01*
X0109032D01*
X0108778Y013008D01*
Y0133382D02*
Y0131858D01*
X010954D01*
X0109794Y0132112D01*
Y0133128D01*
X010954Y0133382D01*
X0108778D01*
X0110302Y0131858D02*
X0110809D01*
X0110555D01*
Y0132874D01*
X0110302D01*
X0112333Y0131858D02*
X0111825D01*
X0111571Y0132112D01*
Y013262D01*
X0111825Y0132874D01*
X0112333D01*
X0112587Y013262D01*
Y0132366D01*
X0111571D01*
X0113095Y0131858D02*
X0113602D01*
X0113349D01*
Y0133382D01*
X0113095D01*
X0115126Y0131858D02*
X0114618D01*
X0114364Y0132112D01*
Y013262D01*
X0114618Y0132874D01*
X0115126D01*
X011538Y013262D01*
Y0132366D01*
X0114364D01*
X0116903Y0132874D02*
X0116142D01*
X0115888Y013262D01*
Y0132112D01*
X0116142Y0131858D01*
X0116903D01*
X0117665Y0133128D02*
Y0132874D01*
X0117411D01*
X0117919D01*
X0117665D01*
Y0132112D01*
X0117919Y0131858D01*
X0118681Y0132874D02*
Y0131858D01*
Y0132366D01*
X0118935Y013262D01*
X0119189Y0132874D01*
X0119443D01*
X0120204Y0131858D02*
X0120712D01*
X0120458D01*
Y0132874D01*
X0120204D01*
X012249D02*
X0121728D01*
X0121474Y013262D01*
Y0132112D01*
X0121728Y0131858D01*
X012249D01*
X0124521D02*
X0125029D01*
X0124775D01*
Y0133382D01*
X0124521Y0133128D01*
X0108778Y013643D02*
X0109794D01*
X0109286D01*
Y0134906D01*
X0110555D02*
X0111063D01*
X0111317Y013516D01*
Y0135668D01*
X0111063Y0135922D01*
X0110555D01*
X0110302Y0135668D01*
Y013516D01*
X0110555Y0134906D01*
X0111825Y0134398D02*
Y0135922D01*
X0112587D01*
X0112841Y0135668D01*
Y013516D01*
X0112587Y0134906D01*
X0111825D01*
X0115888Y0136176D02*
X0115634Y013643D01*
X0115126D01*
X0114872Y0136176D01*
Y013516D01*
X0115126Y0134906D01*
X0115634D01*
X0115888Y013516D01*
X0116649Y0134906D02*
X0117157D01*
X0117411Y013516D01*
Y0135668D01*
X0117157Y0135922D01*
X0116649D01*
X0116396Y0135668D01*
Y013516D01*
X0116649Y0134906D01*
X0117919Y0134398D02*
Y0135922D01*
X0118681D01*
X0118935Y0135668D01*
Y013516D01*
X0118681Y0134906D01*
X0117919D01*
X0119443Y0134398D02*
Y0135922D01*
X0120204D01*
X0120458Y0135668D01*
Y013516D01*
X0120204Y0134906D01*
X0119443D01*
X0121728D02*
X012122D01*
X0120966Y013516D01*
Y0135668D01*
X012122Y0135922D01*
X0121728D01*
X0121982Y0135668D01*
Y0135414D01*
X0120966D01*
X012249Y0135922D02*
Y0134906D01*
Y0135414D01*
X0122743Y0135668D01*
X0122997Y0135922D01*
X0123251D01*
X0108778Y0139478D02*
X0109794D01*
X0109286D01*
Y0137954D01*
X0110555D02*
X0111063D01*
X0111317Y0138208D01*
Y0138716D01*
X0111063Y013897D01*
X0110555D01*
X0110302Y0138716D01*
Y0138208D01*
X0110555Y0137954D01*
X0111825Y0137446D02*
Y013897D01*
X0112587D01*
X0112841Y0138716D01*
Y0138208D01*
X0112587Y0137954D01*
X0111825D01*
X0115888Y0139224D02*
X0115634Y0139478D01*
X0115126D01*
X0114872Y0139224D01*
Y013897D01*
X0115126Y0138716D01*
X0115634D01*
X0115888Y0138462D01*
Y0138208D01*
X0115634Y0137954D01*
X0115126D01*
X0114872Y0138208D01*
X0116649Y0137954D02*
X0117157D01*
X0117411Y0138208D01*
Y0138716D01*
X0117157Y013897D01*
X0116649D01*
X0116396Y0138716D01*
Y0138208D01*
X0116649Y0137954D01*
X0117919D02*
X0118427D01*
X0118173D01*
Y0139478D01*
X0117919D01*
X0120204D02*
Y0137954D01*
X0119443D01*
X0119189Y0138208D01*
Y0138716D01*
X0119443Y013897D01*
X0120204D01*
X0121474Y0137954D02*
X0120966D01*
X0120712Y0138208D01*
Y0138716D01*
X0120966Y013897D01*
X0121474D01*
X0121728Y0138716D01*
Y0138462D01*
X0120712D01*
X0122236Y013897D02*
Y0137954D01*
Y0138462D01*
X012249Y0138716D01*
X0122743Y013897D01*
X0122997D01*
X0108778Y0142526D02*
X0109794D01*
X0109286D01*
Y0141002D01*
X0110555D02*
X0111063D01*
X0111317Y0141256D01*
Y0141764D01*
X0111063Y0142018D01*
X0110555D01*
X0110302Y0141764D01*
Y0141256D01*
X0110555Y0141002D01*
X0111825Y0140494D02*
Y0142018D01*
X0112587D01*
X0112841Y0141764D01*
Y0141256D01*
X0112587Y0141002D01*
X0111825D01*
X0115634Y0142526D02*
X0115126D01*
X0114872Y0142272D01*
Y0141256D01*
X0115126Y0141002D01*
X0115634D01*
X0115888Y0141256D01*
Y0142272D01*
X0115634Y0142526D01*
X0116396Y0142018D02*
X0116903Y0141002D01*
X0117411Y0142018D01*
X0118681Y0141002D02*
X0118173D01*
X0117919Y0141256D01*
Y0141764D01*
X0118173Y0142018D01*
X0118681D01*
X0118935Y0141764D01*
Y014151D01*
X0117919D01*
X0119443Y0142018D02*
Y0141002D01*
Y014151D01*
X0119696Y0141764D01*
X011995Y0142018D01*
X0120204D01*
X0120966Y0141002D02*
X0121474D01*
X012122D01*
Y0142526D01*
X0120966D01*
X012249Y0142018D02*
X0122997D01*
X0123251Y0141764D01*
Y0141002D01*
X012249D01*
X0122236Y0141256D01*
X012249Y014151D01*
X0123251D01*
X0123759Y0142018D02*
Y0141256D01*
X0124013Y0141002D01*
X0124775D01*
Y0140748D01*
X0124521Y0140494D01*
X0124267D01*
X0124775Y0141002D02*
Y0142018D01*
X0132394Y014405D02*
Y0145574D01*
X0132901Y0145066D01*
X0133409Y0145574D01*
Y014405D01*
X0134171Y0145066D02*
X0134679D01*
X0134933Y0144812D01*
Y014405D01*
X0134171D01*
X0133917Y0144304D01*
X0134171Y0144558D01*
X0134933D01*
X0135694Y014532D02*
Y0145066D01*
X0135441D01*
X0135948D01*
X0135694D01*
Y0144304D01*
X0135948Y014405D01*
X0137472D02*
X0136964D01*
X013671Y0144304D01*
Y0144812D01*
X0136964Y0145066D01*
X0137472D01*
X0137726Y0144812D01*
Y0144558D01*
X013671D01*
X0138234Y0145066D02*
Y014405D01*
Y0144558D01*
X0138488Y0144812D01*
X0138741Y0145066D01*
X0138995D01*
X0139757Y014405D02*
X0140265D01*
X0140011D01*
Y0145066D01*
X0139757D01*
X0141281D02*
X0141788D01*
X0142042Y0144812D01*
Y014405D01*
X0141281D01*
X0141027Y0144304D01*
X0141281Y0144558D01*
X0142042D01*
X014255Y014405D02*
X0143058D01*
X0142804D01*
Y0145574D01*
X014255D01*
X0133409Y011484D02*
X0133155Y0115094D01*
X0132647D01*
X0132394Y011484D01*
Y0114586D01*
X0132647Y0114332D01*
X0133155D01*
X0133409Y0114078D01*
Y0113824D01*
X0133155Y011357D01*
X0132647D01*
X0132394Y0113824D01*
X0134171Y011357D02*
X0134679D01*
X0134933Y0113824D01*
Y0114332D01*
X0134679Y0114586D01*
X0134171D01*
X0133917Y0114332D01*
Y0113824D01*
X0134171Y011357D01*
X0135441D02*
X0135948D01*
X0135694D01*
Y0115094D01*
X0135441D01*
X0137726D02*
Y011357D01*
X0136964D01*
X013671Y0113824D01*
Y0114332D01*
X0136964Y0114586D01*
X0137726D01*
X0138995Y011357D02*
X0138488D01*
X0138234Y0113824D01*
Y0114332D01*
X0138488Y0114586D01*
X0138995D01*
X0139249Y0114332D01*
Y0114078D01*
X0138234D01*
X0139757Y0114586D02*
Y011357D01*
Y0114078D01*
X0140011Y0114332D01*
X0140265Y0114586D01*
X0140519D01*
X0142804Y011357D02*
Y0115094D01*
X0143566D01*
X014382Y011484D01*
Y0114332D01*
X0143566Y0114078D01*
X0142804D01*
X0143312D02*
X014382Y011357D01*
X0145089D02*
X0144582D01*
X0144328Y0113824D01*
Y0114332D01*
X0144582Y0114586D01*
X0145089D01*
X0145343Y0114332D01*
Y0114078D01*
X0144328D01*
X0145851Y011357D02*
X0146613D01*
X0146867Y0113824D01*
X0146613Y0114078D01*
X0146105D01*
X0145851Y0114332D01*
X0146105Y0114586D01*
X0146867D01*
X0147375Y011357D02*
X0147883D01*
X0147629D01*
Y0114586D01*
X0147375D01*
X0148644Y011357D02*
X0149406D01*
X014966Y0113824D01*
X0149406Y0114078D01*
X0148898D01*
X0148644Y0114332D01*
X0148898Y0114586D01*
X014966D01*
X0150422Y011484D02*
Y0114586D01*
X0150168D01*
X0150676D01*
X0150422D01*
Y0113824D01*
X0150676Y011357D01*
X0133409Y012119D02*
X0132394D01*
Y0120428D01*
X0132901D01*
X0132394D01*
Y0119666D01*
X0133917D02*
Y012119D01*
X0134679D01*
X0134933Y0120936D01*
Y0120428D01*
X0134679Y0120174D01*
X0133917D01*
X0134425D02*
X0134933Y0119666D01*
X0135441Y0120428D02*
X0136456D01*
X0137726Y0119666D02*
Y012119D01*
X0136964Y0120428D01*
X013798D01*
X0133409Y0123984D02*
X0133155Y0124238D01*
X0132647D01*
X0132394Y0123984D01*
Y0122968D01*
X0132647Y0122714D01*
X0133155D01*
X0133409Y0122968D01*
X0134933Y0124238D02*
X0133917D01*
Y0123476D01*
X0134425D01*
X0133917D01*
Y0122714D01*
X0135441Y0123476D02*
X0136456D01*
X0136964Y0123984D02*
X0137218Y0124238D01*
X0137726D01*
X013798Y0123984D01*
Y0122968D01*
X0137726Y0122714D01*
X0137218D01*
X0136964Y0122968D01*
Y0123984D01*
X0138488D02*
X0138741Y0124238D01*
X0139249D01*
X0139503Y0123984D01*
Y0122968D01*
X0139249Y0122714D01*
X0138741D01*
X0138488Y0122968D01*
Y0123984D01*
X0140773Y0122714D02*
Y0124238D01*
X0140011Y0123476D01*
X0141027D01*
X0133409Y0127286D02*
X0132394D01*
Y0126524D01*
X0132901D01*
X0132394D01*
Y0125762D01*
X0133917D02*
Y0127286D01*
X0134679D01*
X0134933Y0127032D01*
Y0126524D01*
X0134679Y012627D01*
X0133917D01*
X0134425D02*
X0134933Y0125762D01*
X0135441Y0126524D02*
X0136456D01*
X0137726Y0125762D02*
Y0127286D01*
X0136964Y0126524D01*
X013798D01*
X0133409Y013008D02*
X0133155Y0130334D01*
X0132647D01*
X0132394Y013008D01*
Y0129064D01*
X0132647Y012881D01*
X0133155D01*
X0133409Y0129064D01*
X0134933Y0130334D02*
X0133917D01*
Y0129572D01*
X0134425D01*
X0133917D01*
Y012881D01*
X0135441Y0129572D02*
X0136456D01*
X0136964Y013008D02*
X0137218Y0130334D01*
X0137726D01*
X013798Y013008D01*
Y0129064D01*
X0137726Y012881D01*
X0137218D01*
X0136964Y0129064D01*
Y013008D01*
X0138488D02*
X0138741Y0130334D01*
X0139249D01*
X0139503Y013008D01*
Y0129064D01*
X0139249Y012881D01*
X0138741D01*
X0138488Y0129064D01*
Y013008D01*
X0140773Y012881D02*
Y0130334D01*
X0140011Y0129572D01*
X0141027D01*
X0133409Y0133382D02*
X0132394D01*
Y013262D01*
X0132901D01*
X0132394D01*
Y0131858D01*
X0133917D02*
Y0133382D01*
X0134679D01*
X0134933Y0133128D01*
Y013262D01*
X0134679Y0132366D01*
X0133917D01*
X0134425D02*
X0134933Y0131858D01*
X0135441Y013262D02*
X0136456D01*
X0137726Y0131858D02*
Y0133382D01*
X0136964Y013262D01*
X013798D01*
X0133409Y0139224D02*
X0133155Y0139478D01*
X0132647D01*
X0132394Y0139224D01*
Y013897D01*
X0132647Y0138716D01*
X0133155D01*
X0133409Y0138462D01*
Y0138208D01*
X0133155Y0137954D01*
X0132647D01*
X0132394Y0138208D01*
X0134171Y0137954D02*
X0134679D01*
X0134933Y0138208D01*
Y0138716D01*
X0134679Y013897D01*
X0134171D01*
X0133917Y0138716D01*
Y0138208D01*
X0134171Y0137954D01*
X0135441D02*
X0135948D01*
X0135694D01*
Y0139478D01*
X0135441D01*
X0137726D02*
Y0137954D01*
X0136964D01*
X013671Y0138208D01*
Y0138716D01*
X0136964Y013897D01*
X0137726D01*
X0138995Y0137954D02*
X0138488D01*
X0138234Y0138208D01*
Y0138716D01*
X0138488Y013897D01*
X0138995D01*
X0139249Y0138716D01*
Y0138462D01*
X0138234D01*
X0139757Y013897D02*
Y0137954D01*
Y0138462D01*
X0140011Y0138716D01*
X0140265Y013897D01*
X0140519D01*
X0142804Y0137954D02*
Y0139478D01*
X0143566D01*
X014382Y0139224D01*
Y0138716D01*
X0143566Y0138462D01*
X0142804D01*
X0143312D02*
X014382Y0137954D01*
X0145089D02*
X0144582D01*
X0144328Y0138208D01*
Y0138716D01*
X0144582Y013897D01*
X0145089D01*
X0145343Y0138716D01*
Y0138462D01*
X0144328D01*
X0145851Y0137954D02*
X0146613D01*
X0146867Y0138208D01*
X0146613Y0138462D01*
X0146105D01*
X0145851Y0138716D01*
X0146105Y013897D01*
X0146867D01*
X0147375Y0137954D02*
X0147883D01*
X0147629D01*
Y013897D01*
X0147375D01*
X0148644Y0137954D02*
X0149406D01*
X014966Y0138208D01*
X0149406Y0138462D01*
X0148898D01*
X0148644Y0138716D01*
X0148898Y013897D01*
X014966D01*
X0150422Y0139224D02*
Y013897D01*
X0150168D01*
X0150676D01*
X0150422D01*
Y0138208D01*
X0150676Y0137954D01*
X0154232Y0145574D02*
X0155247D01*
X0154739D01*
Y014405D01*
X0155755Y0145574D02*
Y014405D01*
Y0144812D01*
X0156009Y0145066D01*
X0156517D01*
X0156771Y0144812D01*
Y014405D01*
X0157279D02*
X0157786D01*
X0157533D01*
Y0145066D01*
X0157279D01*
X0159564D02*
X0158802D01*
X0158548Y0144812D01*
Y0144304D01*
X0158802Y014405D01*
X0159564D01*
X0160072D02*
Y0145574D01*
Y0144558D02*
X0160833Y0145066D01*
X0160072Y0144558D02*
X0160833Y014405D01*
X0161595D02*
Y0145066D01*
X0162357D01*
X0162611Y0144812D01*
Y014405D01*
X016388D02*
X0163373D01*
X0163119Y0144304D01*
Y0144812D01*
X0163373Y0145066D01*
X016388D01*
X0164134Y0144812D01*
Y0144558D01*
X0163119D01*
X0164642Y014405D02*
X0165404D01*
X0165658Y0144304D01*
X0165404Y0144558D01*
X0164896D01*
X0164642Y0144812D01*
X0164896Y0145066D01*
X0165658D01*
X0166166Y014405D02*
X0166927D01*
X0167181Y0144304D01*
X0166927Y0144558D01*
X016642D01*
X0166166Y0144812D01*
X016642Y0145066D01*
X0167181D01*
X0154232Y011484D02*
X0154486Y0115094D01*
X0154993D01*
X0155247Y011484D01*
Y0113824D01*
X0154993Y011357D01*
X0154486D01*
X0154232Y0113824D01*
Y011484D01*
X0156009Y0113316D02*
X0156263Y011357D01*
Y0113824D01*
X0156009D01*
Y011357D01*
X0156263D01*
X0156009Y0113316D01*
X0155755Y0113062D01*
X0157279Y011484D02*
X0157533Y0115094D01*
X015804D01*
X0158294Y011484D01*
Y0113824D01*
X015804Y011357D01*
X0157533D01*
X0157279Y0113824D01*
Y011484D01*
X0158802Y011357D02*
X015931D01*
X0159056D01*
Y0115094D01*
X0158802Y011484D01*
X0160072D02*
X0160326Y0115094D01*
X0160833D01*
X0161087Y011484D01*
Y0113824D01*
X0160833Y011357D01*
X0160326D01*
X0160072Y0113824D01*
Y011484D01*
X0161595Y011357D02*
Y0114586D01*
X0161849D01*
X0162103Y0114332D01*
Y011357D01*
Y0114332D01*
X0162357Y0114586D01*
X0162611Y0114332D01*
Y011357D01*
X0163119D02*
Y0114586D01*
X0163373D01*
X0163627Y0114332D01*
Y011357D01*
Y0114332D01*
X016388Y0114586D01*
X0164134Y0114332D01*
Y011357D01*
X0154232Y0117888D02*
X0154486Y0118142D01*
X0154993D01*
X0155247Y0117888D01*
Y0116872D01*
X0154993Y0116618D01*
X0154486D01*
X0154232Y0116872D01*
Y0117888D01*
X0156009Y0116364D02*
X0156263Y0116618D01*
Y0116872D01*
X0156009D01*
Y0116618D01*
X0156263D01*
X0156009Y0116364D01*
X0155755Y011611D01*
X0157279Y0117888D02*
X0157533Y0118142D01*
X015804D01*
X0158294Y0117888D01*
Y0116872D01*
X015804Y0116618D01*
X0157533D01*
X0157279Y0116872D01*
Y0117888D01*
X0158802D02*
X0159056Y0118142D01*
X0159564D01*
X0159818Y0117888D01*
Y0117634D01*
X0159564Y011738D01*
X015931D01*
X0159564D01*
X0159818Y0117126D01*
Y0116872D01*
X0159564Y0116618D01*
X0159056D01*
X0158802Y0116872D01*
X0161341Y0118142D02*
X0160833Y0117888D01*
X0160326Y011738D01*
Y0116872D01*
X016058Y0116618D01*
X0161087D01*
X0161341Y0116872D01*
Y0117126D01*
X0161087Y011738D01*
X0160326D01*
X0161849Y0116618D02*
Y0117634D01*
X0162103D01*
X0162357Y011738D01*
Y0116618D01*
Y011738D01*
X0162611Y0117634D01*
X0162865Y011738D01*
Y0116618D01*
X0163373D02*
Y0117634D01*
X0163627D01*
X016388Y011738D01*
Y0116618D01*
Y011738D01*
X0164134Y0117634D01*
X0164388Y011738D01*
Y0116618D01*
X0154232Y0120936D02*
X0154486Y012119D01*
X0154993D01*
X0155247Y0120936D01*
Y011992D01*
X0154993Y0119666D01*
X0154486D01*
X0154232Y011992D01*
Y0120936D01*
X0156009Y0119412D02*
X0156263Y0119666D01*
Y011992D01*
X0156009D01*
Y0119666D01*
X0156263D01*
X0156009Y0119412D01*
X0155755Y0119158D01*
X0157279Y0119666D02*
X0157786D01*
X0157533D01*
Y012119D01*
X0157279Y0120936D01*
X0159564Y0119666D02*
X0158548D01*
X0159564Y0120682D01*
Y0120936D01*
X015931Y012119D01*
X0158802D01*
X0158548Y0120936D01*
X0161087Y0119666D02*
X0160072D01*
X0161087Y0120682D01*
Y0120936D01*
X0160833Y012119D01*
X0160326D01*
X0160072Y0120936D01*
X0161595Y0119666D02*
Y0120682D01*
X0161849D01*
X0162103Y0120428D01*
Y0119666D01*
Y0120428D01*
X0162357Y0120682D01*
X0162611Y0120428D01*
Y0119666D01*
X0163119D02*
Y0120682D01*
X0163373D01*
X0163627Y0120428D01*
Y0119666D01*
Y0120428D01*
X016388Y0120682D01*
X0164134Y0120428D01*
Y0119666D01*
X0154232Y0123984D02*
X0154486Y0124238D01*
X0154993D01*
X0155247Y0123984D01*
Y0122968D01*
X0154993Y0122714D01*
X0154486D01*
X0154232Y0122968D01*
Y0123984D01*
X0156009Y012246D02*
X0156263Y0122714D01*
Y0122968D01*
X0156009D01*
Y0122714D01*
X0156263D01*
X0156009Y012246D01*
X0155755Y0122206D01*
X0157279Y0123984D02*
X0157533Y0124238D01*
X015804D01*
X0158294Y0123984D01*
Y0122968D01*
X015804Y0122714D01*
X0157533D01*
X0157279Y0122968D01*
Y0123984D01*
X0158802D02*
X0159056Y0124238D01*
X0159564D01*
X0159818Y0123984D01*
Y012373D01*
X0159564Y0123476D01*
X015931D01*
X0159564D01*
X0159818Y0123222D01*
Y0122968D01*
X0159564Y0122714D01*
X0159056D01*
X0158802Y0122968D01*
X0161341Y0124238D02*
X0160326D01*
Y0123476D01*
X0160833Y012373D01*
X0161087D01*
X0161341Y0123476D01*
Y0122968D01*
X0161087Y0122714D01*
X016058D01*
X0160326Y0122968D01*
X0161849Y0122714D02*
Y012373D01*
X0162103D01*
X0162357Y0123476D01*
Y0122714D01*
Y0123476D01*
X0162611Y012373D01*
X0162865Y0123476D01*
Y0122714D01*
X0163373D02*
Y012373D01*
X0163627D01*
X016388Y0123476D01*
Y0122714D01*
Y0123476D01*
X0164134Y012373D01*
X0164388Y0123476D01*
Y0122714D01*
X0154232Y0125762D02*
X0154739D01*
X0154486D01*
Y0127286D01*
X0154232Y0127032D01*
X0155755Y0125508D02*
X0156009Y0125762D01*
Y0126016D01*
X0155755D01*
Y0125762D01*
X0156009D01*
X0155755Y0125508D01*
X0155501Y0125254D01*
X0157025Y0125762D02*
X0157533D01*
X0157279D01*
Y0127286D01*
X0157025Y0127032D01*
X015931Y0127286D02*
X0158294D01*
Y0126524D01*
X0158802Y0126778D01*
X0159056D01*
X015931Y0126524D01*
Y0126016D01*
X0159056Y0125762D01*
X0158548D01*
X0158294Y0126016D01*
X0159818Y0127032D02*
X0160072Y0127286D01*
X016058D01*
X0160833Y0127032D01*
Y0126016D01*
X016058Y0125762D01*
X0160072D01*
X0159818Y0126016D01*
Y0127032D01*
X0161341Y0125762D02*
Y0126778D01*
X0161595D01*
X0161849Y0126524D01*
Y0125762D01*
Y0126524D01*
X0162103Y0126778D01*
X0162357Y0126524D01*
Y0125762D01*
X0162865D02*
Y0126778D01*
X0163119D01*
X0163373Y0126524D01*
Y0125762D01*
Y0126524D01*
X0163627Y0126778D01*
X016388Y0126524D01*
Y0125762D01*
X0154232Y013008D02*
X0154486Y0130334D01*
X0154993D01*
X0155247Y013008D01*
Y0129064D01*
X0154993Y012881D01*
X0154486D01*
X0154232Y0129064D01*
Y013008D01*
X0156009Y0128556D02*
X0156263Y012881D01*
Y0129064D01*
X0156009D01*
Y012881D01*
X0156263D01*
X0156009Y0128556D01*
X0155755Y0128302D01*
X0157279Y013008D02*
X0157533Y0130334D01*
X015804D01*
X0158294Y013008D01*
Y0129064D01*
X015804Y012881D01*
X0157533D01*
X0157279Y0129064D01*
Y013008D01*
X0158802D02*
X0159056Y0130334D01*
X0159564D01*
X0159818Y013008D01*
Y0129826D01*
X0159564Y0129572D01*
X015931D01*
X0159564D01*
X0159818Y0129318D01*
Y0129064D01*
X0159564Y012881D01*
X0159056D01*
X0158802Y0129064D01*
X0161341Y0130334D02*
X0160326D01*
Y0129572D01*
X0160833Y0129826D01*
X0161087D01*
X0161341Y0129572D01*
Y0129064D01*
X0161087Y012881D01*
X016058D01*
X0160326Y0129064D01*
X0161849Y012881D02*
Y0129826D01*
X0162103D01*
X0162357Y0129572D01*
Y012881D01*
Y0129572D01*
X0162611Y0129826D01*
X0162865Y0129572D01*
Y012881D01*
X0163373D02*
Y0129826D01*
X0163627D01*
X016388Y0129572D01*
Y012881D01*
Y0129572D01*
X0164134Y0129826D01*
X0164388Y0129572D01*
Y012881D01*
X0154232Y0133128D02*
X0154486Y0133382D01*
X0154993D01*
X0155247Y0133128D01*
Y0132112D01*
X0154993Y0131858D01*
X0154486D01*
X0154232Y0132112D01*
Y0133128D01*
X0156009Y0131604D02*
X0156263Y0131858D01*
Y0132112D01*
X0156009D01*
Y0131858D01*
X0156263D01*
X0156009Y0131604D01*
X0155755Y013135D01*
X0157279Y0131858D02*
X0157786D01*
X0157533D01*
Y0133382D01*
X0157279Y0133128D01*
X0159564Y0131858D02*
X0158548D01*
X0159564Y0132874D01*
Y0133128D01*
X015931Y0133382D01*
X0158802D01*
X0158548Y0133128D01*
X0161087Y0131858D02*
X0160072D01*
X0161087Y0132874D01*
Y0133128D01*
X0160833Y0133382D01*
X0160326D01*
X0160072Y0133128D01*
X0161595Y0131858D02*
Y0132874D01*
X0161849D01*
X0162103Y013262D01*
Y0131858D01*
Y013262D01*
X0162357Y0132874D01*
X0162611Y013262D01*
Y0131858D01*
X0163119D02*
Y0132874D01*
X0163373D01*
X0163627Y013262D01*
Y0131858D01*
Y013262D01*
X016388Y0132874D01*
X0164134Y013262D01*
Y0131858D01*
X0154232Y0136176D02*
X0154486Y013643D01*
X0154993D01*
X0155247Y0136176D01*
Y013516D01*
X0154993Y0134906D01*
X0154486D01*
X0154232Y013516D01*
Y0136176D01*
X0156009Y0134652D02*
X0156263Y0134906D01*
Y013516D01*
X0156009D01*
Y0134906D01*
X0156263D01*
X0156009Y0134652D01*
X0155755Y0134398D01*
X0157279Y0136176D02*
X0157533Y013643D01*
X015804D01*
X0158294Y0136176D01*
Y013516D01*
X015804Y0134906D01*
X0157533D01*
X0157279Y013516D01*
Y0136176D01*
X0158802D02*
X0159056Y013643D01*
X0159564D01*
X0159818Y0136176D01*
Y0135922D01*
X0159564Y0135668D01*
X015931D01*
X0159564D01*
X0159818Y0135414D01*
Y013516D01*
X0159564Y0134906D01*
X0159056D01*
X0158802Y013516D01*
X0161341Y013643D02*
X0160833Y0136176D01*
X0160326Y0135668D01*
Y013516D01*
X016058Y0134906D01*
X0161087D01*
X0161341Y013516D01*
Y0135414D01*
X0161087Y0135668D01*
X0160326D01*
X0161849Y0134906D02*
Y0135922D01*
X0162103D01*
X0162357Y0135668D01*
Y0134906D01*
Y0135668D01*
X0162611Y0135922D01*
X0162865Y0135668D01*
Y0134906D01*
X0163373D02*
Y0135922D01*
X0163627D01*
X016388Y0135668D01*
Y0134906D01*
Y0135668D01*
X0164134Y0135922D01*
X0164388Y0135668D01*
Y0134906D01*
X0154232Y0139224D02*
X0154486Y0139478D01*
X0154993D01*
X0155247Y0139224D01*
Y0138208D01*
X0154993Y0137954D01*
X0154486D01*
X0154232Y0138208D01*
Y0139224D01*
X0156009Y01377D02*
X0156263Y0137954D01*
Y0138208D01*
X0156009D01*
Y0137954D01*
X0156263D01*
X0156009Y01377D01*
X0155755Y0137446D01*
X0157279Y0139224D02*
X0157533Y0139478D01*
X015804D01*
X0158294Y0139224D01*
Y0138208D01*
X015804Y0137954D01*
X0157533D01*
X0157279Y0138208D01*
Y0139224D01*
X0158802Y0137954D02*
X015931D01*
X0159056D01*
Y0139478D01*
X0158802Y0139224D01*
X0160072D02*
X0160326Y0139478D01*
X0160833D01*
X0161087Y0139224D01*
Y0138208D01*
X0160833Y0137954D01*
X0160326D01*
X0160072Y0138208D01*
Y0139224D01*
X0161595Y0137954D02*
Y013897D01*
X0161849D01*
X0162103Y0138716D01*
Y0137954D01*
Y0138716D01*
X0162357Y013897D01*
X0162611Y0138716D01*
Y0137954D01*
X0163119D02*
Y013897D01*
X0163373D01*
X0163627Y0138716D01*
Y0137954D01*
Y0138716D01*
X016388Y013897D01*
X0164134Y0138716D01*
Y0137954D01*
X0171753Y014532D02*
X0171499Y0145574D01*
X0170991D01*
X0170737Y014532D01*
Y0144304D01*
X0170991Y014405D01*
X0171499D01*
X0171753Y0144304D01*
X0172515Y014405D02*
X0173023D01*
X0173277Y0144304D01*
Y0144812D01*
X0173023Y0145066D01*
X0172515D01*
X0172261Y0144812D01*
Y0144304D01*
X0172515Y014405D01*
X0173784D02*
Y0145066D01*
X0174546D01*
X01748Y0144812D01*
Y014405D01*
X0175308D02*
X017607D01*
X0176324Y0144304D01*
X017607Y0144558D01*
X0175562D01*
X0175308Y0144812D01*
X0175562Y0145066D01*
X0176324D01*
X0177085Y014532D02*
Y0145066D01*
X0176831D01*
X0177339D01*
X0177085D01*
Y0144304D01*
X0177339Y014405D01*
X0178355Y0145066D02*
X0178863D01*
X0179117Y0144812D01*
Y014405D01*
X0178355D01*
X0178101Y0144304D01*
X0178355Y0144558D01*
X0179117D01*
X0179625Y014405D02*
Y0145066D01*
X0180386D01*
X018064Y0144812D01*
Y014405D01*
X0181402Y014532D02*
Y0145066D01*
X0181148D01*
X0181656D01*
X0181402D01*
Y0144304D01*
X0181656Y014405D01*
X0170737Y011484D02*
X0170991Y0115094D01*
X0171499D01*
X0171753Y011484D01*
Y0114586D01*
X0171499Y0114332D01*
X0171245D01*
X0171499D01*
X0171753Y0114078D01*
Y0113824D01*
X0171499Y011357D01*
X0170991D01*
X0170737Y0113824D01*
X0172261Y011357D02*
Y0113824D01*
X0172515D01*
Y011357D01*
X0172261D01*
X0174546Y0115094D02*
X0173531D01*
Y0114332D01*
X0174038Y0114586D01*
X0174292D01*
X0174546Y0114332D01*
Y0113824D01*
X0174292Y011357D01*
X0173784D01*
X0173531Y0113824D01*
X0171499Y0119666D02*
Y012119D01*
X0170737Y0120428D01*
X0171753D01*
X0172261Y0119666D02*
Y011992D01*
X0172515D01*
Y0119666D01*
X0172261D01*
X0174546D02*
X0173531D01*
X0174546Y0120682D01*
Y0120936D01*
X0174292Y012119D01*
X0173784D01*
X0173531Y0120936D01*
X0171499Y0125762D02*
Y0127286D01*
X0170737Y0126524D01*
X0171753D01*
X0172261Y0125762D02*
Y0126016D01*
X0172515D01*
Y0125762D01*
X0172261D01*
X0174546D02*
X0173531D01*
X0174546Y0126778D01*
Y0127032D01*
X0174292Y0127286D01*
X0173784D01*
X0173531Y0127032D01*
X0171499Y0131858D02*
Y0133382D01*
X0170737Y013262D01*
X0171753D01*
X0172261Y0131858D02*
Y0132112D01*
X0172515D01*
Y0131858D01*
X0172261D01*
X0174546D02*
X0173531D01*
X0174546Y0132874D01*
Y0133128D01*
X0174292Y0133382D01*
X0173784D01*
X0173531Y0133128D01*
X0170737Y0139224D02*
X0170991Y0139478D01*
X0171499D01*
X0171753Y0139224D01*
Y013897D01*
X0171499Y0138716D01*
X0171245D01*
X0171499D01*
X0171753Y0138462D01*
Y0138208D01*
X0171499Y0137954D01*
X0170991D01*
X0170737Y0138208D01*
X0172261Y0137954D02*
Y0138208D01*
X0172515D01*
Y0137954D01*
X0172261D01*
X0174546Y0139478D02*
X0173531D01*
Y0138716D01*
X0174038Y013897D01*
X0174292D01*
X0174546Y0138716D01*
Y0138208D01*
X0174292Y0137954D01*
X0173784D01*
X0173531Y0138208D01*
D38*
X0096588Y0143288D02*
X0183434D01*
X0096588Y0146336D02*
X0183434D01*
X0096588Y010976D02*
Y0146336D01*
Y010976D02*
X0107D01*
X0096588Y0112808D02*
X0107D01*
X0096588Y0115856D02*
X0107D01*
X0096588Y0118904D02*
X0107D01*
X0096588Y0121952D02*
X0107D01*
X0096588Y0125D02*
X0107D01*
X0096588Y0128048D02*
X0107D01*
X0096588Y0131096D02*
X0107D01*
X0096588Y0134144D02*
X0107D01*
X0096588Y0137192D02*
X0107D01*
X0096588Y014024D02*
X0107D01*
Y010976D02*
Y0146336D01*
Y010976D02*
X0130616D01*
X0107Y0112808D02*
X0130616D01*
X0107Y0115856D02*
X0130616D01*
X0107Y0118904D02*
X0130616D01*
X0107Y0121952D02*
X0130616D01*
X0107Y0125D02*
X0130616D01*
X0107Y0128048D02*
X0130616D01*
X0107Y0131096D02*
X0130616D01*
X0107Y0134144D02*
X0130616D01*
X0107Y0137192D02*
X0130616D01*
X0107Y014024D02*
X0130616D01*
Y010976D02*
Y0146336D01*
Y010976D02*
X0152454D01*
X0130616Y0112808D02*
X0152454D01*
X0130616Y0115856D02*
X0152454D01*
X0130616Y0118904D02*
X0152454D01*
X0130616Y0121952D02*
X0152454D01*
X0130616Y0125D02*
X0152454D01*
X0130616Y0128048D02*
X0152454D01*
X0130616Y0131096D02*
X0152454D01*
X0130616Y0134144D02*
X0152454D01*
X0130616Y0137192D02*
X0152454D01*
X0130616Y014024D02*
X0152454D01*
Y010976D02*
Y0146336D01*
Y010976D02*
X0168959D01*
X0152454Y0112808D02*
X0168959D01*
X0152454Y0115856D02*
X0168959D01*
X0152454Y0118904D02*
X0168959D01*
X0152454Y0121952D02*
X0168959D01*
X0152454Y0125D02*
X0168959D01*
X0152454Y0128048D02*
X0168959D01*
X0152454Y0131096D02*
X0168959D01*
X0152454Y0134144D02*
X0168959D01*
X0152454Y0137192D02*
X0168959D01*
X0152454Y014024D02*
X0168959D01*
Y010976D02*
Y0146336D01*
Y010976D02*
X0183434D01*
X0168959Y0112808D02*
X0183434D01*
X0168959Y0115856D02*
X0183434D01*
X0168959Y0118904D02*
X0183434D01*
X0168959Y0121952D02*
X0183434D01*
X0168959Y0125D02*
X0183434D01*
X0168959Y0128048D02*
X0183434D01*
X0168959Y0131096D02*
X0183434D01*
X0168959Y0134144D02*
X0183434D01*
X0168959Y0137192D02*
X0183434D01*
X0168959Y014024D02*
X0183434D01*
Y010976D02*
Y0146336D01*
D39*
X004435Y0120557D02*
X004335D01*
Y0119808D01*
X004385D01*
X004335D01*
Y0119058D01*
X004485D02*
X0045349D01*
X0045099D01*
Y0120057D01*
X004485D01*
X0046099Y0119058D02*
Y0120057D01*
X0046849D01*
X0047099Y0119808D01*
Y0119058D01*
X0047599D02*
X0048098D01*
X0047849D01*
Y0120057D01*
X0047599D01*
X0048848Y0119058D02*
X0049598D01*
X0049848Y0119308D01*
X0049598Y0119558D01*
X0049098D01*
X0048848Y0119808D01*
X0049098Y0120057D01*
X0049848D01*
X0050348Y0120557D02*
Y0119058D01*
Y0119808D01*
X0050598Y0120057D01*
X0051097D01*
X0051347Y0119808D01*
Y0119058D01*
X004335Y0134557D02*
Y0133058D01*
X004435D01*
X0045099Y0134057D02*
X0045599D01*
X0045849Y0133808D01*
Y0133058D01*
X0045099D01*
X004485Y0133308D01*
X0045099Y0133558D01*
X0045849D01*
X0046349Y0133058D02*
Y0134057D01*
X0046599D01*
X0046849Y0133808D01*
Y0133058D01*
Y0133808D01*
X0047099Y0134057D01*
X0047349Y0133808D01*
Y0133058D01*
X0047849D02*
X0048348D01*
X0048098D01*
Y0134057D01*
X0047849D01*
X0049098Y0133058D02*
Y0134057D01*
X0049848D01*
X0050098Y0133808D01*
Y0133058D01*
X0050848Y0134057D02*
X0051347D01*
X0051597Y0133808D01*
Y0133058D01*
X0050848D01*
X0050598Y0133308D01*
X0050848Y0133558D01*
X0051597D01*
X0052347Y0134307D02*
Y0134057D01*
X0052097D01*
X0052597D01*
X0052347D01*
Y0133308D01*
X0052597Y0133058D01*
X0054097D02*
X0053597D01*
X0053347Y0133308D01*
Y0133808D01*
X0053597Y0134057D01*
X0054097D01*
X0054346Y0133808D01*
Y0133558D01*
X0053347D01*
D40*
X0044733Y0147474D02*
X00444Y0147807D01*
X0043733D01*
X00434Y0147474D01*
Y0147141D01*
X0043733Y0146808D01*
X00444D01*
X0044733Y0146474D01*
Y0146141D01*
X00444Y0145808D01*
X0043733D01*
X00434Y0146141D01*
X0045733Y0147141D02*
X0046399D01*
X0046732Y0146808D01*
Y0145808D01*
X0045733D01*
X0045399Y0146141D01*
X0045733Y0146474D01*
X0046732D01*
X0047399Y0147141D02*
Y0145808D01*
Y0146474D01*
X0047732Y0146808D01*
X0048065Y0147141D01*
X0048398D01*
X0049731D02*
X0050398D01*
X0050731Y0146808D01*
Y0145808D01*
X0049731D01*
X0049398Y0146141D01*
X0049731Y0146474D01*
X0050731D01*
X0051397Y0147807D02*
Y0145808D01*
Y0146474D01*
X005273Y0147807D01*
X0051731Y0146808D01*
X005273Y0145808D01*
X0053397D02*
X0054063D01*
X005373D01*
Y0147141D01*
X0053397D01*
X0055396Y0147474D02*
Y0147141D01*
X0055063D01*
X0055729D01*
X0055396D01*
Y0146141D01*
X0055729Y0145808D01*
X0060061Y0147474D02*
X0059728Y0147807D01*
X0059062D01*
X0058728Y0147474D01*
Y0146141D01*
X0059062Y0145808D01*
X0059728D01*
X0060061Y0146141D01*
X0061061Y0147141D02*
X0061727D01*
X0062061Y0146808D01*
Y0145808D01*
X0061061D01*
X0060728Y0146141D01*
X0061061Y0146474D01*
X0062061D01*
X0062727Y0145808D02*
Y0147141D01*
X006306D01*
X0063394Y0146808D01*
Y0145808D01*
Y0146808D01*
X0063727Y0147141D01*
X006406Y0146808D01*
Y0145808D01*
X0065726D02*
X006506D01*
X0064726Y0146141D01*
Y0146808D01*
X006506Y0147141D01*
X0065726D01*
X0066059Y0146808D01*
Y0146474D01*
X0064726D01*
X0066726Y0147141D02*
Y0145808D01*
Y0146474D01*
X0067059Y0146808D01*
X0067392Y0147141D01*
X0067725D01*
X0069058D02*
X0069725D01*
X0070058Y0146808D01*
Y0145808D01*
X0069058D01*
X0068725Y0146141D01*
X0069058Y0146474D01*
X0070058D01*
X0072724Y0147807D02*
Y0145808D01*
Y0146808D01*
X0074057D01*
Y0147807D01*
Y0145808D01*
X0074723Y0147141D02*
Y0146141D01*
X0075056Y0145808D01*
X0076056D01*
Y0147141D01*
X0076723Y0147807D02*
Y0145808D01*
X0077722D01*
X0078055Y0146141D01*
Y0146474D01*
Y0146808D01*
X0077722Y0147141D01*
X0076723D01*
X0044733Y0143474D02*
X00444Y0143807D01*
X0043733D01*
X00434Y0143474D01*
Y0143141D01*
X0043733Y0142808D01*
X00444D01*
X0044733Y0142474D01*
Y0142141D01*
X00444Y0141808D01*
X0043733D01*
X00434Y0142141D01*
X0045733Y0143141D02*
X0046399D01*
X0046732Y0142808D01*
Y0141808D01*
X0045733D01*
X0045399Y0142141D01*
X0045733Y0142474D01*
X0046732D01*
X0047399Y0143141D02*
Y0141808D01*
Y0142474D01*
X0047732Y0142808D01*
X0048065Y0143141D01*
X0048398D01*
X0049731D02*
X0050398D01*
X0050731Y0142808D01*
Y0141808D01*
X0049731D01*
X0049398Y0142141D01*
X0049731Y0142474D01*
X0050731D01*
X0051397Y0141808D02*
Y0143141D01*
X0052064Y0143807D01*
X005273Y0143141D01*
Y0141808D01*
Y0142808D01*
X0051397D01*
X0053397Y0143807D02*
X0054063D01*
X005373D01*
Y0141808D01*
X0053397D01*
X0054063D01*
X0057062Y0143807D02*
Y0141808D01*
X0058395D01*
X0059062Y0143807D02*
Y0141808D01*
X0060395D01*
X0062394Y0143474D02*
X0062061Y0143807D01*
X0061394D01*
X0061061Y0143474D01*
Y0142141D01*
X0061394Y0141808D01*
X0062061D01*
X0062394Y0142141D01*
D41*
X-0002832Y0006158D02*
Y0005142D01*
X-0003848Y0006158D01*
X-0004102D01*
X-0004355Y0005904D01*
Y0005396D01*
X-0004102Y0005142D01*
X-0002832Y0006666D02*
Y0007174D01*
Y000692D01*
X-0004355D01*
X-0004102Y0006666D01*
X-0002578Y0008189D02*
X-0002832Y0008443D01*
X-0003086D01*
Y0008189D01*
X-0002832D01*
Y0008443D01*
X-0002578Y0008189D01*
X-0002324Y0007935D01*
X-0004102Y0009459D02*
X-0004355Y0009713D01*
Y0010221D01*
X-0004102Y0010474D01*
X-0003086D01*
X-0002832Y0010221D01*
Y0009713D01*
X-0003086Y0009459D01*
X-0004102D01*
Y0010982D02*
X-0004355Y0011236D01*
Y0011744D01*
X-0004102Y0011998D01*
X-0003086D01*
X-0002832Y0011744D01*
Y0011236D01*
X-0003086Y0010982D01*
X-0004102D01*
X-0002832Y0012506D02*
X-0003848D01*
Y001276D01*
X-0003594Y0013014D01*
X-0002832D01*
X-0003594D01*
X-0003848Y0013268D01*
X-0003594Y0013521D01*
X-0002832D01*
Y0014029D02*
X-0003848D01*
Y0014283D01*
X-0003594Y0014537D01*
X-0002832D01*
X-0003594D01*
X-0003848Y0014791D01*
X-0003594Y0015045D01*
X-0002832D01*
X0014015Y-0003398D02*
X0014269Y-0003145D01*
X0014777D01*
X0015031Y-0003398D01*
Y-0003652D01*
X0014777Y-0003906D01*
X0014523D01*
X0014777D01*
X0015031Y-000416D01*
Y-0004414D01*
X0014777Y-0004668D01*
X0014269D01*
X0014015Y-0004414D01*
X0015539D02*
X0015793Y-0004668D01*
X0016301D01*
X0016554Y-0004414D01*
Y-0003398D01*
X0016301Y-0003145D01*
X0015793D01*
X0015539Y-0003398D01*
Y-0003652D01*
X0015793Y-0003906D01*
X0016554D01*
X0017316Y-0004922D02*
X001757Y-0004668D01*
Y-0004414D01*
X0017316D01*
Y-0004668D01*
X001757D01*
X0017316Y-0004922D01*
X0017062Y-0005176D01*
X0018586Y-0003398D02*
X001884Y-0003145D01*
X0019348D01*
X0019601Y-0003398D01*
Y-0004414D01*
X0019348Y-0004668D01*
X001884D01*
X0018586Y-0004414D01*
Y-0003398D01*
X0020109D02*
X0020363Y-0003145D01*
X0020871D01*
X0021125Y-0003398D01*
Y-0004414D01*
X0020871Y-0004668D01*
X0020363D01*
X0020109Y-0004414D01*
Y-0003398D01*
X0021633Y-0004668D02*
Y-0003652D01*
X0021887D01*
X0022141Y-0003906D01*
Y-0004668D01*
Y-0003906D01*
X0022395Y-0003652D01*
X0022648Y-0003906D01*
Y-0004668D01*
X0023156D02*
Y-0003652D01*
X002341D01*
X0023664Y-0003906D01*
Y-0004668D01*
Y-0003906D01*
X0023918Y-0003652D01*
X0024172Y-0003906D01*
Y-0004668D01*
M02*
