G04*
G04 #@! TF.GenerationSoftware,Altium Limited,Altium Designer,21.8.1 (53)*
G04*
G04 Layer_Physical_Order=3*
G04 Layer_Color=128*
%FSTAX43Y43*%
%MOMM*%
G71*
G04*
G04 #@! TF.SameCoordinates,77AD0121-2578-4578-B714-FB4ED1F38CAD*
G04*
G04*
G04 #@! TF.FilePolarity,Negative*
G04*
G01*
G75*
%ADD30C,0.500*%
%ADD35C,3.150*%
%ADD36C,0.750*%
G36*
X0016275Y0007118D02*
X0017025D01*
Y0006368D01*
X0016275D01*
Y0007118D01*
D02*
G37*
G36*
X0017375Y0007825D02*
X0018125D01*
Y0007075D01*
X0017375D01*
Y0007825D01*
D02*
G37*
G36*
X0018475Y0007118D02*
X0019225D01*
Y0006368D01*
X0018475D01*
Y0007118D01*
D02*
G37*
D30*
X0037Y0D02*
G03*
X0039Y0002I0J0002D01*
G01*
Y0019D02*
G03*
X0037Y0021I-0002J0D01*
G01*
X0002D02*
G03*
X0Y0019I0J-0002D01*
G01*
Y0002D02*
G03*
X0002Y0I0002J0D01*
G01*
X0037D01*
X0039Y0002D02*
Y0019D01*
X0002Y0021D02*
X0037D01*
X0Y0002D02*
Y0019D01*
D35*
X003625Y001825D02*
D03*
X000275D02*
D03*
D36*
X00145Y0015075D02*
D03*
X00135D02*
D03*
X002515Y0015275D02*
D03*
X00242D02*
D03*
X00215Y00015D02*
D03*
X0022025Y0002233D02*
D03*
X0020701Y0002289D02*
D03*
X00199Y0002453D02*
D03*
X003045Y00122D02*
D03*
X002945Y00122D02*
D03*
X003245Y00122D02*
D03*
X003145D02*
D03*
X0031Y00023D02*
D03*
X0030525Y0003825D02*
D03*
X00296Y00065D02*
D03*
Y00051D02*
D03*
X0026475Y001505D02*
D03*
X0018475Y0006743D02*
D03*
X0019225D02*
D03*
X0018118Y000745D02*
D03*
X0017368D02*
D03*
X0016275Y0006743D02*
D03*
X0017025D02*
D03*
M02*
