G04*
G04 #@! TF.GenerationSoftware,Altium Limited,Altium Designer,21.8.1 (53)*
G04*
G04 Layer_Color=65535*
%FSTAX43Y43*%
%MOMM*%
G71*
G04*
G04 #@! TF.SameCoordinates,77AD0121-2578-4578-B714-FB4ED1F38CAD*
G04*
G04*
G04 #@! TF.FilePolarity,Positive*
G04*
G01*
G75*
%ADD10C,0.200*%
%ADD11C,0.150*%
%ADD12C,0.300*%
%ADD13C,0.250*%
D10*
X00332Y0004725D02*
G03*
X00332Y0004725I-00001J0D01*
G01*
X0034495Y000591D02*
X0034815D01*
Y000694D01*
X0033785Y000694D02*
X0034815Y000694D01*
X0033785Y000662D02*
Y000694D01*
Y000662D02*
X0034495Y000591D01*
X00022Y0009667D02*
X0002533Y0009D01*
X0002866Y0009667D01*
X00032Y0009D02*
X0003533D01*
X0003366D01*
Y001D01*
X00032Y0009833D01*
X0004033Y0009D02*
Y0009167D01*
X0004199D01*
Y0009D01*
X0004033D01*
X0004866D02*
X0005199D01*
X0005032D01*
Y001D01*
X0004866Y0009833D01*
D11*
X00328Y0004925D02*
Y0005325D01*
Y0007625D02*
Y0007925D01*
X00331D01*
X00355D02*
X00358D01*
Y0007625D02*
Y0007925D01*
Y0004925D02*
Y0005225D01*
X00355Y0004925D02*
X00358D01*
X0005917Y001665D02*
X000565D01*
X0005783D01*
Y0015983D01*
X000565Y001585D01*
X0005517D01*
X0005384Y0015983D01*
X0006183Y0016517D02*
X0006317Y001665D01*
X0006583D01*
X0006716Y0016517D01*
Y0016383D01*
X0006583Y001625D01*
X000645D01*
X0006583D01*
X0006716Y0016117D01*
Y0015983D01*
X0006583Y001585D01*
X0006317D01*
X0006183Y0015983D01*
X003185Y0006517D02*
X003115D01*
Y0006867D01*
X0031267Y0006983D01*
X00315D01*
X0031617Y0006867D01*
Y0006517D01*
Y000675D02*
X003185Y0006983D01*
X003115Y0007683D02*
X0031267Y000745D01*
X00315Y0007217D01*
X0031733D01*
X003185Y0007333D01*
Y0007567D01*
X0031733Y0007683D01*
X0031617D01*
X00315Y0007567D01*
Y0007217D01*
X003085Y0006517D02*
X003015D01*
Y0006867D01*
X0030267Y0006983D01*
X00305D01*
X0030617Y0006867D01*
Y0006517D01*
Y000675D02*
X003085Y0006983D01*
X003015Y0007683D02*
Y0007217D01*
X00305D01*
X0030383Y000745D01*
Y0007567D01*
X00305Y0007683D01*
X0030733D01*
X003085Y0007567D01*
Y0007333D01*
X0030733Y0007217D01*
X0036233Y000805D02*
Y0007467D01*
X003635Y000735D01*
X0036583D01*
X00367Y0007467D01*
Y000805D01*
X0036933Y000735D02*
X0037167D01*
X003705D01*
Y000805D01*
X0036933Y0007933D01*
X0033383Y0009733D02*
X0033267Y000985D01*
X0033033D01*
X0032917Y0009733D01*
Y0009267D01*
X0033033Y000915D01*
X0033267D01*
X0033383Y0009267D01*
X0033617Y0009733D02*
X0033733Y000985D01*
X0033967D01*
X0034083Y0009733D01*
Y0009617D01*
X0033967Y00095D01*
X003385D01*
X0033967D01*
X0034083Y0009383D01*
Y0009267D01*
X0033967Y000915D01*
X0033733D01*
X0033617Y0009267D01*
X0033483Y0003333D02*
X0033367Y000345D01*
X0033133D01*
X0033017Y0003333D01*
Y0002867D01*
X0033133Y000275D01*
X0033367D01*
X0033483Y0002867D01*
X0034183Y000275D02*
X0033717D01*
X0034183Y0003217D01*
Y0003333D01*
X0034067Y000345D01*
X0033833D01*
X0033717Y0003333D01*
X00282Y0007233D02*
X0028083Y000735D01*
X002785D01*
X0027733Y0007233D01*
Y0006767D01*
X002785Y000665D01*
X0028083D01*
X00282Y0006767D01*
X0028433Y000665D02*
X0028667D01*
X002855D01*
Y000735D01*
X0028433Y0007233D01*
X002885Y0010217D02*
X002815D01*
Y0010567D01*
X0028267Y0010683D01*
X00285D01*
X0028617Y0010567D01*
Y0010217D01*
Y001045D02*
X002885Y0010683D01*
Y0011267D02*
X002815D01*
X00285Y0010917D01*
Y0011383D01*
X003385Y0010333D02*
X003315D01*
Y0010683D01*
X0033267Y00108D01*
X00335D01*
X0033617Y0010683D01*
Y0010333D01*
Y0010567D02*
X003385Y00108D01*
Y0011033D02*
Y0011267D01*
Y001115D01*
X003315D01*
X0033267Y0011033D01*
X002795Y0010217D02*
X002725D01*
Y0010567D01*
X0027367Y0010683D01*
X00276D01*
X0027717Y0010567D01*
Y0010217D01*
Y001045D02*
X002795Y0010683D01*
X0027367Y0010917D02*
X002725Y0011033D01*
Y0011267D01*
X0027367Y0011383D01*
X0027483D01*
X00276Y0011267D01*
Y001115D01*
Y0011267D01*
X0027717Y0011383D01*
X0027833D01*
X002795Y0011267D01*
Y0011033D01*
X0027833Y0010917D01*
X003475Y0010217D02*
X003405D01*
Y0010567D01*
X0034167Y0010683D01*
X00344D01*
X0034517Y0010567D01*
Y0010217D01*
Y001045D02*
X003475Y0010683D01*
Y0011383D02*
Y0010917D01*
X0034283Y0011383D01*
X0034167D01*
X003405Y0011267D01*
Y0011033D01*
X0034167Y0010917D01*
X00152Y000745D02*
X0014967D01*
X0015083D01*
Y0006867D01*
X0014967Y000675D01*
X001485D01*
X0014733Y0006867D01*
X0015433Y000675D02*
X0015667D01*
X001555D01*
Y000745D01*
X0015433Y0007333D01*
D12*
X00155Y00015D02*
Y00031D01*
X001475Y00006D02*
Y00061D01*
X002425Y00006D02*
Y00061D01*
X00155Y00031D02*
X00235D01*
X00155Y00015D02*
X00235D01*
Y00031D01*
D13*
X000325Y0012D02*
X0003Y001225D01*
X00025D01*
X000225Y0012D01*
Y001175D01*
X00025Y00115D01*
X0003D01*
X000325Y001125D01*
Y0011D01*
X0003Y001075D01*
X00025D01*
X000225Y0011D01*
X0003999Y001175D02*
X0004499D01*
X0004749Y00115D01*
Y001075D01*
X0003999D01*
X000375Y0011D01*
X0003999Y001125D01*
X0004749D01*
X0005249Y001175D02*
Y001075D01*
Y001125D01*
X0005499Y00115D01*
X0005749Y001175D01*
X0005999D01*
X0006998D02*
X0007498D01*
X0007748Y00115D01*
Y001075D01*
X0006998D01*
X0006749Y0011D01*
X0006998Y001125D01*
X0007748D01*
X0008248Y001225D02*
Y001075D01*
Y001125D01*
X0009248Y001225D01*
X0008498Y00115D01*
X0009248Y001075D01*
X0009748D02*
X0010247D01*
X0009997D01*
Y001175D01*
X0009748D01*
X0011247Y0012D02*
Y001175D01*
X0010997D01*
X0011497D01*
X0011247D01*
Y0011D01*
X0011497Y001075D01*
M02*
