M48
;Layer_Color=9474304
;FILE_FORMAT=4:3
METRIC
;TYPE=PLATED
T1F00S00C0.300
%
T01
X0001200Y0001200
X0001000Y0003000
Y0005000
Y0007000
Y0009000
Y0011000
Y0013000
X0010250Y0014000
X0012500Y0011975
X0016275Y0006743
X0017025
X0017368Y0007450
X0018118
X0018475Y0006743
X0019225
X0019500Y0005000
X0018275
X0017225
X0016175
X0015520
X0019900Y0002453
X0020035Y0000846
X0011000Y0001000
X0009000
X0007000
X0005000
X0003000
X0020701Y0002289
X0022025Y0002233
X0021500Y0001500
X0024000Y0001000
X0026000
X0028000
X0030000
X0032000
X0034000
X0036000
X0037800Y0001200
X0038000Y0003000
Y0005000
Y0007000
Y0009000
Y0011000
Y0013000
X0032450Y0012200
X0031450
X0030450
X0029450Y0012200
X0028750Y0014000
X0026500Y0011975
X0023500
X0023475Y0005000
X0027075Y0004200
X0029375
X0029600Y0005100
Y0006500
X0030525Y0003825
X0031000Y0002300
X0034725Y0004050
X0034375Y0006375
X0034675Y0008650
X0038000Y0015000
X0032000Y0020000
X0030000
X0028000
X0026000
X0024000
X0022000
X0021500Y0014950
X0024200Y0015275
X0025150
X0026475Y0015050
X0020500Y0014950
X0018525
X0017500
X0015500Y0015275
X0014500Y0015075
X0013500
X0014000Y0020000
X0016000
X0018000
X0020000
X0012000
X0010000
X0008000
X0006000
X0001000Y0015000
M30
