G04*
G04 #@! TF.GenerationSoftware,Altium Limited,Altium Designer,21.8.1 (53)*
G04*
G04 Layer_Color=8388736*
%FSTAX43Y43*%
%MOMM*%
G71*
G04*
G04 #@! TF.SameCoordinates,454ED16F-8ED5-4277-8FB5-D7BBC8B68C5D*
G04*
G04*
G04 #@! TF.FilePolarity,Positive*
G04*
G01*
G75*
%ADD10C,0.300*%
%ADD11C,0.150*%
%ADD12C,0.200*%
%ADD13C,0.160*%
%ADD23C,0.381*%
%ADD24C,0.025*%
%ADD25C,0.350*%
%ADD26C,0.400*%
%ADD27C,0.254*%
D10*
X0027225Y013395D02*
X0026975Y01342D01*
X0026475D01*
X0026225Y013395D01*
Y013295D01*
X0026475Y01327D01*
X0026975D01*
X0027225Y013295D01*
Y013345D01*
X0026725D01*
X0028474Y01327D02*
X0027974D01*
X0027725Y013295D01*
Y013345D01*
X0027974Y01337D01*
X0028474D01*
X0028724Y013345D01*
Y01332D01*
X0027725D01*
X0029224Y01337D02*
Y01327D01*
Y01332D01*
X0029474Y013345D01*
X0029724Y01337D01*
X0029974D01*
X0030724Y01342D02*
Y01327D01*
X0031473D01*
X0031723Y013295D01*
Y01332D01*
Y013345D01*
X0031473Y01337D01*
X0030724D01*
X0032973Y01327D02*
X0032473D01*
X0032223Y013295D01*
Y013345D01*
X0032473Y01337D01*
X0032973D01*
X0033223Y013345D01*
Y01332D01*
X0032223D01*
X0033723Y01337D02*
Y01327D01*
Y01332D01*
X0033972Y013345D01*
X0034222Y01337D01*
X0034472D01*
X0037721Y01342D02*
X0036722D01*
Y013345D01*
X0037221D01*
X0036722D01*
Y01327D01*
X0038221D02*
X0038721D01*
X0038471D01*
Y01337D01*
X0038221D01*
X0039471Y01327D02*
X0039971D01*
X0039721D01*
Y01342D01*
X0039471D01*
X004147Y01327D02*
X004097D01*
X004072Y013295D01*
Y013345D01*
X004097Y01337D01*
X004147D01*
X004172Y013345D01*
Y01332D01*
X004072D01*
X004222Y01327D02*
X004297D01*
X0043219Y013295D01*
X004297Y01332D01*
X004247D01*
X004222Y013345D01*
X004247Y01337D01*
X0043219D01*
X0045219Y01342D02*
Y01327D01*
X0045969D01*
X0046219Y013295D01*
Y013395D01*
X0045969Y01342D01*
X0045219D01*
X0047468Y01327D02*
X0046968D01*
X0046718Y013295D01*
Y013345D01*
X0046968Y01337D01*
X0047468D01*
X0047718Y013345D01*
Y01332D01*
X0046718D01*
X0048218Y01327D02*
X0048968D01*
X0049218Y013295D01*
X0048968Y01332D01*
X0048468D01*
X0048218Y013345D01*
X0048468Y01337D01*
X0049218D01*
X0050717D02*
X0049967D01*
X0049717Y013345D01*
Y013295D01*
X0049967Y01327D01*
X0050717D01*
X0051217Y01337D02*
Y01327D01*
Y01332D01*
X0051467Y013345D01*
X0051717Y01337D01*
X0051967D01*
X0052716Y01327D02*
X0053216D01*
X0052966D01*
Y01337D01*
X0052716D01*
X0053966Y01322D02*
Y01337D01*
X0054716D01*
X0054966Y013345D01*
Y013295D01*
X0054716Y01327D01*
X0053966D01*
X0055715Y013395D02*
Y01337D01*
X0055466D01*
X0055965D01*
X0055715D01*
Y013295D01*
X0055965Y01327D01*
X0056715D02*
X0057215D01*
X0056965D01*
Y01337D01*
X0056715D01*
X0058215Y01327D02*
X0058714D01*
X0058964Y013295D01*
Y013345D01*
X0058714Y01337D01*
X0058215D01*
X0057965Y013345D01*
Y013295D01*
X0058215Y01327D01*
X0059464D02*
Y01337D01*
X0060214D01*
X0060464Y013345D01*
Y01327D01*
D11*
X0Y0D02*
Y0005D01*
X00095Y0D02*
Y0005D01*
X0Y0D02*
X00095D01*
X0Y0005D02*
X00095D01*
X-0Y0165D02*
X00095D01*
X-0Y017D02*
X00095D01*
X-0Y0165D02*
Y017D01*
X00095Y0165D02*
Y017D01*
X0026075Y0087867D02*
Y0088033D01*
X0026242D01*
Y0087867D01*
X0026075D01*
X0027575Y00887D02*
X0027408Y0088866D01*
X0027075D01*
X0026908Y00887D01*
Y0088033D01*
X0027075Y0087867D01*
X0027408D01*
X0027575Y0088033D01*
Y0088367D01*
X0027241D01*
X0027908Y0087867D02*
Y0088866D01*
X0028241Y0088533D01*
X0028574Y0088866D01*
Y0087867D01*
X0028907D02*
X0029241D01*
X0029074D01*
Y0088866D01*
X0028907Y00887D01*
X0030407Y0088866D02*
X0030074Y00887D01*
X002974Y0088367D01*
Y0088033D01*
X0029907Y0087867D01*
X003024D01*
X0030407Y0088033D01*
Y00882D01*
X003024Y0088367D01*
X002974D01*
X003174D02*
X0032406D01*
X0033739Y0088866D02*
Y0087867D01*
X0034239D01*
X0034406Y0088033D01*
Y00882D01*
X0034239Y0088367D01*
X0033739D01*
X0034239D01*
X0034406Y0088533D01*
Y00887D01*
X0034239Y0088866D01*
X0033739D01*
X0034905Y0087867D02*
X0035239D01*
X0035405Y0088033D01*
Y0088367D01*
X0035239Y0088533D01*
X0034905D01*
X0034739Y0088367D01*
Y0088033D01*
X0034905Y0087867D01*
X0035905Y00887D02*
Y0088533D01*
X0035739D01*
X0036072D01*
X0035905D01*
Y0088033D01*
X0036072Y0087867D01*
X0036738Y00887D02*
Y0088533D01*
X0036572D01*
X0036905D01*
X0036738D01*
Y0088033D01*
X0036905Y0087867D01*
X0037571D02*
X0037905D01*
X0038071Y0088033D01*
Y0088367D01*
X0037905Y0088533D01*
X0037571D01*
X0037405Y0088367D01*
Y0088033D01*
X0037571Y0087867D01*
X0038404D02*
Y0088533D01*
X0038571D01*
X0038738Y0088367D01*
Y0087867D01*
Y0088367D01*
X0038904Y0088533D01*
X0039071Y0088367D01*
Y0087867D01*
X004107Y00887D02*
X0040904Y0088866D01*
X004057D01*
X0040404Y00887D01*
Y0088033D01*
X004057Y0087867D01*
X0040904D01*
X004107Y0088033D01*
X004157Y0087867D02*
X0041903D01*
X004207Y0088033D01*
Y0088367D01*
X0041903Y0088533D01*
X004157D01*
X0041403Y0088367D01*
Y0088033D01*
X004157Y0087867D01*
X0042403Y0088533D02*
Y0088033D01*
X004257Y0087867D01*
X004307D01*
Y0088533D01*
X0043403D02*
Y0087867D01*
Y00882D01*
X0043569Y0088367D01*
X0043736Y0088533D01*
X0043903D01*
X0044569Y00887D02*
Y0088533D01*
X0044402D01*
X0044736D01*
X0044569D01*
Y0088033D01*
X0044736Y0087867D01*
X0045235Y0088533D02*
Y0088033D01*
X0045402Y0087867D01*
X0045902D01*
Y00877D01*
X0045735Y0087534D01*
X0045569D01*
X0045902Y0087867D02*
Y0088533D01*
X0046402D02*
X0046735D01*
X0046902Y0088367D01*
Y0087867D01*
X0046402D01*
X0046235Y0088033D01*
X0046402Y00882D01*
X0046902D01*
X0047235Y0088533D02*
Y0087867D01*
Y00882D01*
X0047401Y0088367D01*
X0047568Y0088533D01*
X0047735D01*
X0048901Y0088866D02*
Y0087867D01*
X0048401D01*
X0048235Y0088033D01*
Y0088367D01*
X0048401Y0088533D01*
X0048901D01*
X0026075Y0089867D02*
Y0090033D01*
X0026242D01*
Y0089867D01*
X0026075D01*
X0027575Y00907D02*
X0027408Y0090866D01*
X0027075D01*
X0026908Y00907D01*
Y0090033D01*
X0027075Y0089867D01*
X0027408D01*
X0027575Y0090033D01*
Y0090367D01*
X0027241D01*
X0027908Y0089867D02*
Y0090866D01*
X0028241Y0090533D01*
X0028574Y0090866D01*
Y0089867D01*
X0028907D02*
X0029241D01*
X0029074D01*
Y0090866D01*
X0028907Y00907D01*
X0030407Y0090866D02*
X002974D01*
Y0090367D01*
X0030074Y0090533D01*
X003024D01*
X0030407Y0090367D01*
Y0090033D01*
X003024Y0089867D01*
X0029907D01*
X002974Y0090033D01*
X003174Y0090367D02*
X0032406D01*
X0033739Y0090866D02*
X0034406D01*
X0034072D01*
Y0089867D01*
X0034905D02*
X0035239D01*
X0035405Y0090033D01*
Y0090367D01*
X0035239Y0090533D01*
X0034905D01*
X0034739Y0090367D01*
Y0090033D01*
X0034905Y0089867D01*
X0035739Y0089534D02*
Y0090533D01*
X0036238D01*
X0036405Y0090367D01*
Y0090033D01*
X0036238Y0089867D01*
X0035739D01*
X0038404Y00907D02*
X0038238Y0090866D01*
X0037905D01*
X0037738Y00907D01*
Y0090033D01*
X0037905Y0089867D01*
X0038238D01*
X0038404Y0090033D01*
X0038904Y0089867D02*
X0039237D01*
X0039404Y0090033D01*
Y0090367D01*
X0039237Y0090533D01*
X0038904D01*
X0038738Y0090367D01*
Y0090033D01*
X0038904Y0089867D01*
X0039737Y0090533D02*
Y0090033D01*
X0039904Y0089867D01*
X0040404D01*
Y0090533D01*
X0040737D02*
Y0089867D01*
Y00902D01*
X0040904Y0090367D01*
X004107Y0090533D01*
X0041237D01*
X0041903Y00907D02*
Y0090533D01*
X0041737D01*
X004207D01*
X0041903D01*
Y0090033D01*
X004207Y0089867D01*
X004257Y0090533D02*
Y0090033D01*
X0042736Y0089867D01*
X0043236D01*
Y00897D01*
X004307Y0089534D01*
X0042903D01*
X0043236Y0089867D02*
Y0090533D01*
X0043736D02*
X0044069D01*
X0044236Y0090367D01*
Y0089867D01*
X0043736D01*
X0043569Y0090033D01*
X0043736Y00902D01*
X0044236D01*
X0044569Y0090533D02*
Y0089867D01*
Y00902D01*
X0044736Y0090367D01*
X0044902Y0090533D01*
X0045069D01*
X0046235Y0090866D02*
Y0089867D01*
X0045735D01*
X0045569Y0090033D01*
Y0090367D01*
X0045735Y0090533D01*
X0046235D01*
X0026075Y0094867D02*
Y0095033D01*
X0026242D01*
Y0094867D01*
X0026075D01*
X0027575Y00957D02*
X0027408Y0095866D01*
X0027075D01*
X0026908Y00957D01*
Y0095033D01*
X0027075Y0094867D01*
X0027408D01*
X0027575Y0095033D01*
Y0095367D01*
X0027241D01*
X0027908Y0094867D02*
Y0095866D01*
X0028241Y0095533D01*
X0028574Y0095866D01*
Y0094867D01*
X0028907D02*
X0029241D01*
X0029074D01*
Y0095866D01*
X0028907Y00957D01*
X002974Y0094867D02*
X0030074D01*
X0029907D01*
Y0095866D01*
X002974Y00957D01*
X0031573Y0095367D02*
X003224D01*
X0033573Y0095866D02*
X0034239D01*
X0033906D01*
Y0094867D01*
X0034739D02*
X0035072D01*
X0035239Y0095033D01*
Y0095367D01*
X0035072Y0095533D01*
X0034739D01*
X0034572Y0095367D01*
Y0095033D01*
X0034739Y0094867D01*
X0035572Y0094534D02*
Y0095533D01*
X0036072D01*
X0036238Y0095367D01*
Y0095033D01*
X0036072Y0094867D01*
X0035572D01*
X0037571D02*
Y0095533D01*
X0037905Y0095866D01*
X0038238Y0095533D01*
Y0094867D01*
Y0095367D01*
X0037571D01*
X0038571Y0094867D02*
X0039071D01*
X0039237Y0095033D01*
X0039071Y00952D01*
X0038738D01*
X0038571Y0095367D01*
X0038738Y0095533D01*
X0039237D01*
X0039571Y0094867D02*
X004007D01*
X0040237Y0095033D01*
X004007Y00952D01*
X0039737D01*
X0039571Y0095367D01*
X0039737Y0095533D01*
X0040237D01*
X004107Y0094867D02*
X0040737D01*
X004057Y0095033D01*
Y0095367D01*
X0040737Y0095533D01*
X004107D01*
X0041237Y0095367D01*
Y00952D01*
X004057D01*
X004157Y0094867D02*
Y0095533D01*
X0041737D01*
X0041903Y0095367D01*
Y0094867D01*
Y0095367D01*
X004207Y0095533D01*
X0042236Y0095367D01*
Y0094867D01*
X004257Y0095866D02*
Y0094867D01*
X004307D01*
X0043236Y0095033D01*
Y00952D01*
Y0095367D01*
X004307Y0095533D01*
X004257D01*
X0043569Y0094867D02*
X0043903D01*
X0043736D01*
Y0095866D01*
X0043569D01*
X0044402Y0095533D02*
Y0095033D01*
X0044569Y0094867D01*
X0045069D01*
Y00947D01*
X0044902Y0094534D01*
X0044736D01*
X0045069Y0094867D02*
Y0095533D01*
X0046402Y0095866D02*
X0046735D01*
X0046568D01*
Y0094867D01*
X0046402D01*
X0046735D01*
X0047235D02*
Y0095533D01*
X0047735D01*
X0047901Y0095367D01*
Y0094867D01*
X0048401D02*
Y00957D01*
Y0095367D01*
X0048235D01*
X0048568D01*
X0048401D01*
Y00957D01*
X0048568Y0095866D01*
X0049234Y0094867D02*
X0049567D01*
X0049734Y0095033D01*
Y0095367D01*
X0049567Y0095533D01*
X0049234D01*
X0049068Y0095367D01*
Y0095033D01*
X0049234Y0094867D01*
X0050067Y0095533D02*
Y0094867D01*
Y00952D01*
X0050234Y0095367D01*
X00504Y0095533D01*
X0050567D01*
X0051067Y0094867D02*
Y0095533D01*
X0051234D01*
X00514Y0095367D01*
Y0094867D01*
Y0095367D01*
X0051567Y0095533D01*
X0051733Y0095367D01*
Y0094867D01*
X0052233Y0095533D02*
X0052566D01*
X0052733Y0095367D01*
Y0094867D01*
X0052233D01*
X0052067Y0095033D01*
X0052233Y00952D01*
X0052733D01*
X0053233Y00957D02*
Y0095533D01*
X0053066D01*
X00534D01*
X0053233D01*
Y0095033D01*
X00534Y0094867D01*
X0053899D02*
X0054233D01*
X0054066D01*
Y0095533D01*
X0053899D01*
X0054899Y0094867D02*
X0055232D01*
X0055399Y0095033D01*
Y0095367D01*
X0055232Y0095533D01*
X0054899D01*
X0054732Y0095367D01*
Y0095033D01*
X0054899Y0094867D01*
X0055732D02*
Y0095533D01*
X0056232D01*
X0056399Y0095367D01*
Y0094867D01*
X0026075Y0092867D02*
Y0093033D01*
X0026242D01*
Y0092867D01*
X0026075D01*
X0027575Y00937D02*
X0027408Y0093866D01*
X0027075D01*
X0026908Y00937D01*
Y0093033D01*
X0027075Y0092867D01*
X0027408D01*
X0027575Y0093033D01*
Y0093367D01*
X0027241D01*
X0027908Y0092867D02*
Y0093866D01*
X0028241Y0093533D01*
X0028574Y0093866D01*
Y0092867D01*
X0028907D02*
X0029241D01*
X0029074D01*
Y0093866D01*
X0028907Y00937D01*
X0030407Y0092867D02*
X002974D01*
X0030407Y0093533D01*
Y00937D01*
X003024Y0093866D01*
X0029907D01*
X002974Y00937D01*
X003174Y0093367D02*
X0032406D01*
X0033739Y0093866D02*
Y0092867D01*
X0034239D01*
X0034406Y0093033D01*
Y00932D01*
X0034239Y0093367D01*
X0033739D01*
X0034239D01*
X0034406Y0093533D01*
Y00937D01*
X0034239Y0093866D01*
X0033739D01*
X0034905Y0092867D02*
X0035239D01*
X0035405Y0093033D01*
Y0093367D01*
X0035239Y0093533D01*
X0034905D01*
X0034739Y0093367D01*
Y0093033D01*
X0034905Y0092867D01*
X0035905Y00937D02*
Y0093533D01*
X0035739D01*
X0036072D01*
X0035905D01*
Y0093033D01*
X0036072Y0092867D01*
X0036738Y00937D02*
Y0093533D01*
X0036572D01*
X0036905D01*
X0036738D01*
Y0093033D01*
X0036905Y0092867D01*
X0037571D02*
X0037905D01*
X0038071Y0093033D01*
Y0093367D01*
X0037905Y0093533D01*
X0037571D01*
X0037405Y0093367D01*
Y0093033D01*
X0037571Y0092867D01*
X0038404D02*
Y0093533D01*
X0038571D01*
X0038738Y0093367D01*
Y0092867D01*
Y0093367D01*
X0038904Y0093533D01*
X0039071Y0093367D01*
Y0092867D01*
X0040404D02*
Y0093533D01*
X0040737Y0093866D01*
X004107Y0093533D01*
Y0092867D01*
Y0093367D01*
X0040404D01*
X0041403Y0092867D02*
X0041903D01*
X004207Y0093033D01*
X0041903Y00932D01*
X004157D01*
X0041403Y0093367D01*
X004157Y0093533D01*
X004207D01*
X0042403Y0092867D02*
X0042903D01*
X004307Y0093033D01*
X0042903Y00932D01*
X004257D01*
X0042403Y0093367D01*
X004257Y0093533D01*
X004307D01*
X0043903Y0092867D02*
X0043569D01*
X0043403Y0093033D01*
Y0093367D01*
X0043569Y0093533D01*
X0043903D01*
X0044069Y0093367D01*
Y00932D01*
X0043403D01*
X0044402Y0092867D02*
Y0093533D01*
X0044569D01*
X0044736Y0093367D01*
Y0092867D01*
Y0093367D01*
X0044902Y0093533D01*
X0045069Y0093367D01*
Y0092867D01*
X0045402Y0093866D02*
Y0092867D01*
X0045902D01*
X0046069Y0093033D01*
Y00932D01*
Y0093367D01*
X0045902Y0093533D01*
X0045402D01*
X0046402Y0092867D02*
X0046735D01*
X0046568D01*
Y0093866D01*
X0046402D01*
X0047235Y0093533D02*
Y0093033D01*
X0047401Y0092867D01*
X0047901D01*
Y00927D01*
X0047735Y0092534D01*
X0047568D01*
X0047901Y0092867D02*
Y0093533D01*
X0049234Y0093866D02*
X0049567D01*
X0049401D01*
Y0092867D01*
X0049234D01*
X0049567D01*
X0050067D02*
Y0093533D01*
X0050567D01*
X0050734Y0093367D01*
Y0092867D01*
X0051234D02*
Y00937D01*
Y0093367D01*
X0051067D01*
X00514D01*
X0051234D01*
Y00937D01*
X00514Y0093866D01*
X0052067Y0092867D02*
X00524D01*
X0052566Y0093033D01*
Y0093367D01*
X00524Y0093533D01*
X0052067D01*
X00519Y0093367D01*
Y0093033D01*
X0052067Y0092867D01*
X00529Y0093533D02*
Y0092867D01*
Y00932D01*
X0053066Y0093367D01*
X0053233Y0093533D01*
X00534D01*
X0053899Y0092867D02*
Y0093533D01*
X0054066D01*
X0054233Y0093367D01*
Y0092867D01*
Y0093367D01*
X0054399Y0093533D01*
X0054566Y0093367D01*
Y0092867D01*
X0055066Y0093533D02*
X0055399D01*
X0055565Y0093367D01*
Y0092867D01*
X0055066D01*
X0054899Y0093033D01*
X0055066Y00932D01*
X0055565D01*
X0056065Y00937D02*
Y0093533D01*
X0055899D01*
X0056232D01*
X0056065D01*
Y0093033D01*
X0056232Y0092867D01*
X0056732D02*
X0057065D01*
X0056898D01*
Y0093533D01*
X0056732D01*
X0057731Y0092867D02*
X0058065D01*
X0058231Y0093033D01*
Y0093367D01*
X0058065Y0093533D01*
X0057731D01*
X0057565Y0093367D01*
Y0093033D01*
X0057731Y0092867D01*
X0058565D02*
Y0093533D01*
X0059064D01*
X0059231Y0093367D01*
Y0092867D01*
X0026075Y01017D02*
Y0101867D01*
X0026242D01*
Y01017D01*
X0026075D01*
X0027575Y0102533D02*
X0027408Y01027D01*
X0027075D01*
X0026908Y0102533D01*
Y0101867D01*
X0027075Y01017D01*
X0027408D01*
X0027575Y0101867D01*
Y01022D01*
X0027241D01*
X0027908Y01017D02*
Y01027D01*
X0028241Y0102367D01*
X0028574Y01027D01*
Y01017D01*
X0029574D02*
X0028907D01*
X0029574Y0102367D01*
Y0102533D01*
X0029407Y01027D01*
X0029074D01*
X0028907Y0102533D01*
X0030907Y01022D02*
X0031573D01*
X0033573Y01027D02*
X0032906D01*
Y01022D01*
X0033239D01*
X0032906D01*
Y01017D01*
X0034072Y0102367D02*
X0034406D01*
X0034572Y01022D01*
Y01017D01*
X0034072D01*
X0033906Y0101867D01*
X0034072Y0102033D01*
X0034572D01*
X0034905Y01027D02*
Y01017D01*
X0035405D01*
X0035572Y0101867D01*
Y0102033D01*
Y01022D01*
X0035405Y0102367D01*
X0034905D01*
X0036905Y01017D02*
Y01027D01*
X0037571Y01017D01*
Y01027D01*
X0038071Y01017D02*
X0038404D01*
X0038571Y0101867D01*
Y01022D01*
X0038404Y0102367D01*
X0038071D01*
X0037905Y01022D01*
Y0101867D01*
X0038071Y01017D01*
X0039071Y0102533D02*
Y0102367D01*
X0038904D01*
X0039237D01*
X0039071D01*
Y0101867D01*
X0039237Y01017D01*
X0040237D02*
X0039904D01*
X0039737Y0101867D01*
Y01022D01*
X0039904Y0102367D01*
X0040237D01*
X0040404Y01022D01*
Y0102033D01*
X0039737D01*
X0040737Y01017D02*
X0041237D01*
X0041403Y0101867D01*
X0041237Y0102033D01*
X0040904D01*
X0040737Y01022D01*
X0040904Y0102367D01*
X0041403D01*
X0026075Y01097D02*
Y0109867D01*
X0026242D01*
Y01097D01*
X0026075D01*
X0027575Y0110533D02*
X0027408Y01107D01*
X0027075D01*
X0026908Y0110533D01*
Y0109867D01*
X0027075Y01097D01*
X0027408D01*
X0027575Y0109867D01*
Y01102D01*
X0027241D01*
X0027908Y01107D02*
Y01097D01*
X0028408D01*
X0028574Y0109867D01*
Y0110033D01*
X0028408Y01102D01*
X0027908D01*
X0028408D01*
X0028574Y0110367D01*
Y0110533D01*
X0028408Y01107D01*
X0027908D01*
X0029574Y0110533D02*
X0029407Y01107D01*
X0029074D01*
X0028907Y0110533D01*
Y0110367D01*
X0029074Y01102D01*
X0029407D01*
X0029574Y0110033D01*
Y0109867D01*
X0029407Y01097D01*
X0029074D01*
X0028907Y0109867D01*
X0030907Y01102D02*
X0031573D01*
X0032906Y01107D02*
Y01097D01*
X0033406D01*
X0033573Y0109867D01*
Y0110033D01*
X0033406Y01102D01*
X0032906D01*
X0033406D01*
X0033573Y0110367D01*
Y0110533D01*
X0033406Y01107D01*
X0032906D01*
X0034072Y01097D02*
X0034406D01*
X0034572Y0109867D01*
Y01102D01*
X0034406Y0110367D01*
X0034072D01*
X0033906Y01102D01*
Y0109867D01*
X0034072Y01097D01*
X0035072Y0110533D02*
Y0110367D01*
X0034905D01*
X0035239D01*
X0035072D01*
Y0109867D01*
X0035239Y01097D01*
X0035905Y0110533D02*
Y0110367D01*
X0035739D01*
X0036072D01*
X0035905D01*
Y0109867D01*
X0036072Y01097D01*
X0036738D02*
X0037071D01*
X0037238Y0109867D01*
Y01102D01*
X0037071Y0110367D01*
X0036738D01*
X0036572Y01102D01*
Y0109867D01*
X0036738Y01097D01*
X0037571D02*
Y0110367D01*
X0037738D01*
X0037905Y01102D01*
Y01097D01*
Y01102D01*
X0038071Y0110367D01*
X0038238Y01102D01*
Y01097D01*
X0040237Y0110533D02*
X004007Y01107D01*
X0039737D01*
X0039571Y0110533D01*
Y0110367D01*
X0039737Y01102D01*
X004007D01*
X0040237Y0110033D01*
Y0109867D01*
X004007Y01097D01*
X0039737D01*
X0039571Y0109867D01*
X0040737Y01097D02*
X004107D01*
X0041237Y0109867D01*
Y01102D01*
X004107Y0110367D01*
X0040737D01*
X004057Y01102D01*
Y0109867D01*
X0040737Y01097D01*
X004157D02*
X0041903D01*
X0041737D01*
Y01107D01*
X004157D01*
X004307D02*
Y01097D01*
X004257D01*
X0042403Y0109867D01*
Y01102D01*
X004257Y0110367D01*
X004307D01*
X0043903Y01097D02*
X0043569D01*
X0043403Y0109867D01*
Y01102D01*
X0043569Y0110367D01*
X0043903D01*
X0044069Y01102D01*
Y0110033D01*
X0043403D01*
X0044402Y0110367D02*
Y01097D01*
Y0110033D01*
X0044569Y01102D01*
X0044736Y0110367D01*
X0044902D01*
X0046402Y01097D02*
Y01107D01*
X0046735Y0110367D01*
X0047068Y01107D01*
Y01097D01*
X0047568Y0110367D02*
X0047901D01*
X0048068Y01102D01*
Y01097D01*
X0047568D01*
X0047401Y0109867D01*
X0047568Y0110033D01*
X0048068D01*
X0048401Y01097D02*
X0048901D01*
X0049068Y0109867D01*
X0048901Y0110033D01*
X0048568D01*
X0048401Y01102D01*
X0048568Y0110367D01*
X0049068D01*
X0049401Y01097D02*
Y01107D01*
Y0110033D02*
X0049901Y0110367D01*
X0049401Y0110033D02*
X0049901Y01097D01*
X0026075Y0111867D02*
Y0112033D01*
X0026242D01*
Y0111867D01*
X0026075D01*
X0027575Y01127D02*
X0027408Y0112866D01*
X0027075D01*
X0026908Y01127D01*
Y0112033D01*
X0027075Y0111867D01*
X0027408D01*
X0027575Y0112033D01*
Y0112367D01*
X0027241D01*
X0027908Y0112866D02*
X0028574D01*
X0028241D01*
Y0111867D01*
X0029574Y01127D02*
X0029407Y0112866D01*
X0029074D01*
X0028907Y01127D01*
Y0112533D01*
X0029074Y0112367D01*
X0029407D01*
X0029574Y01122D01*
Y0112033D01*
X0029407Y0111867D01*
X0029074D01*
X0028907Y0112033D01*
X0030907Y0112367D02*
X0031573D01*
X0032906Y0112866D02*
X0033573D01*
X0033239D01*
Y0111867D01*
X0034072D02*
X0034406D01*
X0034572Y0112033D01*
Y0112367D01*
X0034406Y0112533D01*
X0034072D01*
X0033906Y0112367D01*
Y0112033D01*
X0034072Y0111867D01*
X0034905Y0111534D02*
Y0112533D01*
X0035405D01*
X0035572Y0112367D01*
Y0112033D01*
X0035405Y0111867D01*
X0034905D01*
X0037571Y01127D02*
X0037405Y0112866D01*
X0037071D01*
X0036905Y01127D01*
Y0112533D01*
X0037071Y0112367D01*
X0037405D01*
X0037571Y01122D01*
Y0112033D01*
X0037405Y0111867D01*
X0037071D01*
X0036905Y0112033D01*
X0038071Y0111867D02*
X0038404D01*
X0038571Y0112033D01*
Y0112367D01*
X0038404Y0112533D01*
X0038071D01*
X0037905Y0112367D01*
Y0112033D01*
X0038071Y0111867D01*
X0038904D02*
X0039237D01*
X0039071D01*
Y0112866D01*
X0038904D01*
X0040404D02*
Y0111867D01*
X0039904D01*
X0039737Y0112033D01*
Y0112367D01*
X0039904Y0112533D01*
X0040404D01*
X0041237Y0111867D02*
X0040904D01*
X0040737Y0112033D01*
Y0112367D01*
X0040904Y0112533D01*
X0041237D01*
X0041403Y0112367D01*
Y01122D01*
X0040737D01*
X0041737Y0112533D02*
Y0111867D01*
Y01122D01*
X0041903Y0112367D01*
X004207Y0112533D01*
X0042236D01*
X0043736Y0111867D02*
Y0112866D01*
X0044069Y0112533D01*
X0044402Y0112866D01*
Y0111867D01*
X0044902Y0112533D02*
X0045235D01*
X0045402Y0112367D01*
Y0111867D01*
X0044902D01*
X0044736Y0112033D01*
X0044902Y01122D01*
X0045402D01*
X0045735Y0111867D02*
X0046235D01*
X0046402Y0112033D01*
X0046235Y01122D01*
X0045902D01*
X0045735Y0112367D01*
X0045902Y0112533D01*
X0046402D01*
X0046735Y0111867D02*
Y0112866D01*
Y01122D02*
X0047235Y0112533D01*
X0046735Y01122D02*
X0047235Y0111867D01*
X0026075Y0116867D02*
Y0117033D01*
X0026242D01*
Y0116867D01*
X0026075D01*
X0027575Y01177D02*
X0027408Y0117866D01*
X0027075D01*
X0026908Y01177D01*
Y0117033D01*
X0027075Y0116867D01*
X0027408D01*
X0027575Y0117033D01*
Y0117367D01*
X0027241D01*
X0027908Y0117866D02*
X0028574D01*
X0028241D01*
Y0116867D01*
X0029407Y0117866D02*
X0029074D01*
X0028907Y01177D01*
Y0117033D01*
X0029074Y0116867D01*
X0029407D01*
X0029574Y0117033D01*
Y01177D01*
X0029407Y0117866D01*
X0030907Y0117367D02*
X0031573D01*
X0032906Y0117866D02*
X0033573D01*
X0033239D01*
Y0116867D01*
X0034072D02*
X0034406D01*
X0034572Y0117033D01*
Y0117367D01*
X0034406Y0117533D01*
X0034072D01*
X0033906Y0117367D01*
Y0117033D01*
X0034072Y0116867D01*
X0034905Y0116534D02*
Y0117533D01*
X0035405D01*
X0035572Y0117367D01*
Y0117033D01*
X0035405Y0116867D01*
X0034905D01*
X0037405Y0117866D02*
X0037071D01*
X0036905Y01177D01*
Y0117033D01*
X0037071Y0116867D01*
X0037405D01*
X0037571Y0117033D01*
Y01177D01*
X0037405Y0117866D01*
X0037905Y0117533D02*
X0038238Y0116867D01*
X0038571Y0117533D01*
X0039404Y0116867D02*
X0039071D01*
X0038904Y0117033D01*
Y0117367D01*
X0039071Y0117533D01*
X0039404D01*
X0039571Y0117367D01*
Y01172D01*
X0038904D01*
X0039904Y0117533D02*
Y0116867D01*
Y01172D01*
X004007Y0117367D01*
X0040237Y0117533D01*
X0040404D01*
X0040904Y0116867D02*
X0041237D01*
X004107D01*
Y0117866D01*
X0040904D01*
X0041903Y0117533D02*
X0042236D01*
X0042403Y0117367D01*
Y0116867D01*
X0041903D01*
X0041737Y0117033D01*
X0041903Y01172D01*
X0042403D01*
X0042736Y0117533D02*
Y0117033D01*
X0042903Y0116867D01*
X0043403D01*
Y01167D01*
X0043236Y0116534D01*
X004307D01*
X0043403Y0116867D02*
Y0117533D01*
X0026075Y01047D02*
Y0104867D01*
X0026242D01*
Y01047D01*
X0026075D01*
X0027575Y0105533D02*
X0027408Y01057D01*
X0027075D01*
X0026908Y0105533D01*
Y0104867D01*
X0027075Y01047D01*
X0027408D01*
X0027575Y0104867D01*
Y01052D01*
X0027241D01*
X0027908Y01057D02*
Y01047D01*
X0028408D01*
X0028574Y0104867D01*
Y0105033D01*
X0028408Y01052D01*
X0027908D01*
X0028408D01*
X0028574Y0105367D01*
Y0105533D01*
X0028408Y01057D01*
X0027908D01*
X0028907Y01047D02*
Y01057D01*
X0029407D01*
X0029574Y0105533D01*
Y01052D01*
X0029407Y0105033D01*
X0028907D01*
X0030907Y01052D02*
X0031573D01*
X0032906Y01057D02*
Y01047D01*
X0033406D01*
X0033573Y0104867D01*
Y0105033D01*
X0033406Y01052D01*
X0032906D01*
X0033406D01*
X0033573Y0105367D01*
Y0105533D01*
X0033406Y01057D01*
X0032906D01*
X0034072Y01047D02*
X0034406D01*
X0034572Y0104867D01*
Y01052D01*
X0034406Y0105367D01*
X0034072D01*
X0033906Y01052D01*
Y0104867D01*
X0034072Y01047D01*
X0035072Y0105533D02*
Y0105367D01*
X0034905D01*
X0035239D01*
X0035072D01*
Y0104867D01*
X0035239Y01047D01*
X0035905Y0105533D02*
Y0105367D01*
X0035739D01*
X0036072D01*
X0035905D01*
Y0104867D01*
X0036072Y01047D01*
X0036738D02*
X0037071D01*
X0037238Y0104867D01*
Y01052D01*
X0037071Y0105367D01*
X0036738D01*
X0036572Y01052D01*
Y0104867D01*
X0036738Y01047D01*
X0037571D02*
Y0105367D01*
X0037738D01*
X0037905Y01052D01*
Y01047D01*
Y01052D01*
X0038071Y0105367D01*
X0038238Y01052D01*
Y01047D01*
X0039571D02*
Y01057D01*
X004007D01*
X0040237Y0105533D01*
Y01052D01*
X004007Y0105033D01*
X0039571D01*
X0040737Y0105367D02*
X004107D01*
X0041237Y01052D01*
Y01047D01*
X0040737D01*
X004057Y0104867D01*
X0040737Y0105033D01*
X0041237D01*
X004157Y01047D02*
X004207D01*
X0042236Y0104867D01*
X004207Y0105033D01*
X0041737D01*
X004157Y01052D01*
X0041737Y0105367D01*
X0042236D01*
X0042736Y0105533D02*
Y0105367D01*
X004257D01*
X0042903D01*
X0042736D01*
Y0104867D01*
X0042903Y01047D01*
X0043903D02*
X0043569D01*
X0043403Y0104867D01*
Y01052D01*
X0043569Y0105367D01*
X0043903D01*
X0044069Y01052D01*
Y0105033D01*
X0043403D01*
X0026075Y0106867D02*
Y0107033D01*
X0026242D01*
Y0106867D01*
X0026075D01*
X0027575Y01077D02*
X0027408Y0107866D01*
X0027075D01*
X0026908Y01077D01*
Y0107033D01*
X0027075Y0106867D01*
X0027408D01*
X0027575Y0107033D01*
Y0107367D01*
X0027241D01*
X0027908Y0107866D02*
X0028574D01*
X0028241D01*
Y0106867D01*
X0028907D02*
Y0107866D01*
X0029407D01*
X0029574Y01077D01*
Y0107367D01*
X0029407Y01072D01*
X0028907D01*
X0030907Y0107367D02*
X0031573D01*
X0032906Y0107866D02*
X0033573D01*
X0033239D01*
Y0106867D01*
X0034072D02*
X0034406D01*
X0034572Y0107033D01*
Y0107367D01*
X0034406Y0107533D01*
X0034072D01*
X0033906Y0107367D01*
Y0107033D01*
X0034072Y0106867D01*
X0034905Y0106534D02*
Y0107533D01*
X0035405D01*
X0035572Y0107367D01*
Y0107033D01*
X0035405Y0106867D01*
X0034905D01*
X0036905D02*
Y0107866D01*
X0037405D01*
X0037571Y01077D01*
Y0107367D01*
X0037405Y01072D01*
X0036905D01*
X0038071Y0107533D02*
X0038404D01*
X0038571Y0107367D01*
Y0106867D01*
X0038071D01*
X0037905Y0107033D01*
X0038071Y01072D01*
X0038571D01*
X0038904Y0106867D02*
X0039404D01*
X0039571Y0107033D01*
X0039404Y01072D01*
X0039071D01*
X0038904Y0107367D01*
X0039071Y0107533D01*
X0039571D01*
X004007Y01077D02*
Y0107533D01*
X0039904D01*
X0040237D01*
X004007D01*
Y0107033D01*
X0040237Y0106867D01*
X0041237D02*
X0040904D01*
X0040737Y0107033D01*
Y0107367D01*
X0040904Y0107533D01*
X0041237D01*
X0041403Y0107367D01*
Y01072D01*
X0040737D01*
X0026075Y00997D02*
Y0099867D01*
X0026242D01*
Y00997D01*
X0026075D01*
X0027575Y0100533D02*
X0027408Y01007D01*
X0027075D01*
X0026908Y0100533D01*
Y0099867D01*
X0027075Y00997D01*
X0027408D01*
X0027575Y0099867D01*
Y01002D01*
X0027241D01*
X0027908Y00997D02*
Y01007D01*
X0028241Y0100367D01*
X0028574Y01007D01*
Y00997D01*
X0028907Y0100533D02*
X0029074Y01007D01*
X0029407D01*
X0029574Y0100533D01*
Y0100367D01*
X0029407Y01002D01*
X0029241D01*
X0029407D01*
X0029574Y0100033D01*
Y0099867D01*
X0029407Y00997D01*
X0029074D01*
X0028907Y0099867D01*
X0030907Y01002D02*
X0031573D01*
X0032906Y01007D02*
Y00997D01*
X0033406D01*
X0033573Y0099867D01*
Y0100033D01*
X0033406Y01002D01*
X0032906D01*
X0033406D01*
X0033573Y0100367D01*
Y0100533D01*
X0033406Y01007D01*
X0032906D01*
X0034072Y00997D02*
X0034406D01*
X0034572Y0099867D01*
Y01002D01*
X0034406Y0100367D01*
X0034072D01*
X0033906Y01002D01*
Y0099867D01*
X0034072Y00997D01*
X0035072Y0100367D02*
X0035405D01*
X0035572Y01002D01*
Y00997D01*
X0035072D01*
X0034905Y0099867D01*
X0035072Y0100033D01*
X0035572D01*
X0035905Y0100367D02*
Y00997D01*
Y0100033D01*
X0036072Y01002D01*
X0036238Y0100367D01*
X0036405D01*
X0037571Y01007D02*
Y00997D01*
X0037071D01*
X0036905Y0099867D01*
Y01002D01*
X0037071Y0100367D01*
X0037571D01*
X0039071Y00997D02*
X0039404D01*
X0039571Y0099867D01*
Y01002D01*
X0039404Y0100367D01*
X0039071D01*
X0038904Y01002D01*
Y0099867D01*
X0039071Y00997D01*
X0039904Y0100367D02*
Y0099867D01*
X004007Y00997D01*
X004057D01*
Y0100367D01*
X004107Y0100533D02*
Y0100367D01*
X0040904D01*
X0041237D01*
X004107D01*
Y0099867D01*
X0041237Y00997D01*
X0041737D02*
X004207D01*
X0041903D01*
Y01007D01*
X0041737D01*
X004257Y00997D02*
X0042903D01*
X0042736D01*
Y0100367D01*
X004257D01*
X0043403Y00997D02*
Y0100367D01*
X0043903D01*
X0044069Y01002D01*
Y00997D01*
X0044902D02*
X0044569D01*
X0044402Y0099867D01*
Y01002D01*
X0044569Y0100367D01*
X0044902D01*
X0045069Y01002D01*
Y0100033D01*
X0044402D01*
X0026075Y0114867D02*
Y0115033D01*
X0026242D01*
Y0114867D01*
X0026075D01*
X0027575Y01157D02*
X0027408Y0115866D01*
X0027075D01*
X0026908Y01157D01*
Y0115033D01*
X0027075Y0114867D01*
X0027408D01*
X0027575Y0115033D01*
Y0115367D01*
X0027241D01*
X0027908Y0115866D02*
Y0114867D01*
X0028408D01*
X0028574Y0115033D01*
Y01152D01*
X0028408Y0115367D01*
X0027908D01*
X0028408D01*
X0028574Y0115533D01*
Y01157D01*
X0028408Y0115866D01*
X0027908D01*
X0029407D02*
X0029074D01*
X0028907Y01157D01*
Y0115033D01*
X0029074Y0114867D01*
X0029407D01*
X0029574Y0115033D01*
Y01157D01*
X0029407Y0115866D01*
X0030907Y0115367D02*
X0031573D01*
X0032906Y0115866D02*
Y0114867D01*
X0033406D01*
X0033573Y0115033D01*
Y01152D01*
X0033406Y0115367D01*
X0032906D01*
X0033406D01*
X0033573Y0115533D01*
Y01157D01*
X0033406Y0115866D01*
X0032906D01*
X0034072Y0114867D02*
X0034406D01*
X0034572Y0115033D01*
Y0115367D01*
X0034406Y0115533D01*
X0034072D01*
X0033906Y0115367D01*
Y0115033D01*
X0034072Y0114867D01*
X0035072Y01157D02*
Y0115533D01*
X0034905D01*
X0035239D01*
X0035072D01*
Y0115033D01*
X0035239Y0114867D01*
X0035905Y01157D02*
Y0115533D01*
X0035739D01*
X0036072D01*
X0035905D01*
Y0115033D01*
X0036072Y0114867D01*
X0036738D02*
X0037071D01*
X0037238Y0115033D01*
Y0115367D01*
X0037071Y0115533D01*
X0036738D01*
X0036572Y0115367D01*
Y0115033D01*
X0036738Y0114867D01*
X0037571D02*
Y0115533D01*
X0037738D01*
X0037905Y0115367D01*
Y0114867D01*
Y0115367D01*
X0038071Y0115533D01*
X0038238Y0115367D01*
Y0114867D01*
X004007Y0115866D02*
X0039737D01*
X0039571Y01157D01*
Y0115033D01*
X0039737Y0114867D01*
X004007D01*
X0040237Y0115033D01*
Y01157D01*
X004007Y0115866D01*
X004057Y0115533D02*
X0040904Y0114867D01*
X0041237Y0115533D01*
X004207Y0114867D02*
X0041737D01*
X004157Y0115033D01*
Y0115367D01*
X0041737Y0115533D01*
X004207D01*
X0042236Y0115367D01*
Y01152D01*
X004157D01*
X004257Y0115533D02*
Y0114867D01*
Y01152D01*
X0042736Y0115367D01*
X0042903Y0115533D01*
X004307D01*
X0043569Y0114867D02*
X0043903D01*
X0043736D01*
Y0115866D01*
X0043569D01*
X0044569Y0115533D02*
X0044902D01*
X0045069Y0115367D01*
Y0114867D01*
X0044569D01*
X0044402Y0115033D01*
X0044569Y01152D01*
X0045069D01*
X0045402Y0115533D02*
Y0115033D01*
X0045569Y0114867D01*
X0046069D01*
Y01147D01*
X0045902Y0114534D01*
X0045735D01*
X0046069Y0114867D02*
Y0115533D01*
X0026075Y0097867D02*
Y0098033D01*
X0026242D01*
Y0097867D01*
X0026075D01*
X0027575Y00987D02*
X0027408Y0098866D01*
X0027075D01*
X0026908Y00987D01*
Y0098033D01*
X0027075Y0097867D01*
X0027408D01*
X0027575Y0098033D01*
Y0098367D01*
X0027241D01*
X0027908Y0097867D02*
Y0098866D01*
X0028241Y0098533D01*
X0028574Y0098866D01*
Y0097867D01*
X0028907Y0098866D02*
X0029574D01*
Y00987D01*
X0028907Y0098033D01*
Y0097867D01*
X0030907Y0098367D02*
X0031573D01*
X0032906Y0098866D02*
X0033239D01*
X0033073D01*
Y0097867D01*
X0032906D01*
X0033239D01*
X0033739D02*
Y0098533D01*
X0034239D01*
X0034406Y0098367D01*
Y0097867D01*
X0034905Y00987D02*
Y0098533D01*
X0034739D01*
X0035072D01*
X0034905D01*
Y0098033D01*
X0035072Y0097867D01*
X0036072D02*
X0035739D01*
X0035572Y0098033D01*
Y0098367D01*
X0035739Y0098533D01*
X0036072D01*
X0036238Y0098367D01*
Y00982D01*
X0035572D01*
X0036572Y0098533D02*
Y0097867D01*
Y00982D01*
X0036738Y0098367D01*
X0036905Y0098533D01*
X0037071D01*
X0037571Y0097867D02*
Y0098533D01*
X0038071D01*
X0038238Y0098367D01*
Y0097867D01*
X0038738Y0098533D02*
X0039071D01*
X0039237Y0098367D01*
Y0097867D01*
X0038738D01*
X0038571Y0098033D01*
X0038738Y00982D01*
X0039237D01*
X0039571Y0097867D02*
X0039904D01*
X0039737D01*
Y0098866D01*
X0039571D01*
X0041403Y0097867D02*
Y0098866D01*
X0041737Y0098533D01*
X004207Y0098866D01*
Y0097867D01*
X0042403D02*
X0042736D01*
X004257D01*
Y0098533D01*
X0042403D01*
X0043236Y0097867D02*
X0043569D01*
X0043403D01*
Y0098866D01*
X0043236D01*
X0044069Y0097867D02*
X0044402D01*
X0044236D01*
Y0098866D01*
X0044069D01*
X0044902Y0097867D02*
X0045235D01*
X0045069D01*
Y0098533D01*
X0044902D01*
X0045735Y0097867D02*
Y0098533D01*
X0046235D01*
X0046402Y0098367D01*
Y0097867D01*
X0047068Y0097534D02*
X0047235D01*
X0047401Y00977D01*
Y0098533D01*
X0046902D01*
X0046735Y0098367D01*
Y0098033D01*
X0046902Y0097867D01*
X0047401D01*
X0049234Y0098866D02*
X0048901D01*
X0048734Y00987D01*
Y0098033D01*
X0048901Y0097867D01*
X0049234D01*
X0049401Y0098033D01*
Y00987D01*
X0049234Y0098866D01*
X0049734Y0098533D02*
Y0098033D01*
X0049901Y0097867D01*
X00504D01*
Y0098533D01*
X00509Y00987D02*
Y0098533D01*
X0050734D01*
X0051067D01*
X00509D01*
Y0098033D01*
X0051067Y0097867D01*
X0051567D02*
X00519D01*
X0051733D01*
Y0098866D01*
X0051567D01*
X00524Y0097867D02*
X0052733D01*
X0052566D01*
Y0098533D01*
X00524D01*
X0053233Y0097867D02*
Y0098533D01*
X0053733D01*
X0053899Y0098367D01*
Y0097867D01*
X0054732D02*
X0054399D01*
X0054233Y0098033D01*
Y0098367D01*
X0054399Y0098533D01*
X0054732D01*
X0054899Y0098367D01*
Y00982D01*
X0054233D01*
X0026075Y0123867D02*
Y0124033D01*
X0026242D01*
Y0123867D01*
X0026075D01*
X0027575Y01247D02*
X0027408Y0124866D01*
X0027075D01*
X0026908Y01247D01*
Y0124033D01*
X0027075Y0123867D01*
X0027408D01*
X0027575Y0124033D01*
Y0124367D01*
X0027241D01*
X0027908Y0124866D02*
X0028574D01*
X0028241D01*
Y0123867D01*
X0028907Y0124866D02*
Y0123867D01*
X0029574D01*
X0030907Y0124367D02*
X0031573D01*
X0032906Y0124866D02*
X0033573D01*
X0033239D01*
Y0123867D01*
X0034072D02*
X0034406D01*
X0034572Y0124033D01*
Y0124367D01*
X0034406Y0124533D01*
X0034072D01*
X0033906Y0124367D01*
Y0124033D01*
X0034072Y0123867D01*
X0034905Y0123534D02*
Y0124533D01*
X0035405D01*
X0035572Y0124367D01*
Y0124033D01*
X0035405Y0123867D01*
X0034905D01*
X0036905Y0124866D02*
Y0123867D01*
X0037571D01*
X0038071Y0124533D02*
X0038404D01*
X0038571Y0124367D01*
Y0123867D01*
X0038071D01*
X0037905Y0124033D01*
X0038071Y01242D01*
X0038571D01*
X0038904Y0124533D02*
Y0124033D01*
X0039071Y0123867D01*
X0039571D01*
Y01237D01*
X0039404Y0123534D01*
X0039237D01*
X0039571Y0123867D02*
Y0124533D01*
X0040404Y0123867D02*
X004007D01*
X0039904Y0124033D01*
Y0124367D01*
X004007Y0124533D01*
X0040404D01*
X004057Y0124367D01*
Y01242D01*
X0039904D01*
X0040904Y0124533D02*
Y0123867D01*
Y01242D01*
X004107Y0124367D01*
X0041237Y0124533D01*
X0041403D01*
X0043236Y0123867D02*
X0042903Y01242D01*
Y0124533D01*
X0043236Y0124866D01*
X0043736Y0123867D02*
Y0124533D01*
X0044236D01*
X0044402Y0124367D01*
Y0123867D01*
X0044902D02*
X0045235D01*
X0045402Y0124033D01*
Y0124367D01*
X0045235Y0124533D01*
X0044902D01*
X0044736Y0124367D01*
Y0124033D01*
X0044902Y0123867D01*
X0045735D02*
Y0124033D01*
X0045902D01*
Y0123867D01*
X0045735D01*
X0047568D02*
X0047901D01*
X0047735D01*
Y0124866D01*
X0047568Y01247D01*
X0048401Y0123867D02*
X0048734Y01242D01*
Y0124533D01*
X0048401Y0124866D01*
X0050567Y0123867D02*
X0050234Y01242D01*
Y0124533D01*
X0050567Y0124866D01*
X0051733Y0124533D02*
X0051234D01*
X0051067Y0124367D01*
Y0124033D01*
X0051234Y0123867D01*
X0051733D01*
X0052233D02*
X0052566D01*
X0052733Y0124033D01*
Y0124367D01*
X0052566Y0124533D01*
X0052233D01*
X0052067Y0124367D01*
Y0124033D01*
X0052233Y0123867D01*
X0053066Y0123534D02*
Y0124533D01*
X0053566D01*
X0053733Y0124367D01*
Y0124033D01*
X0053566Y0123867D01*
X0053066D01*
X0054066Y0123534D02*
Y0124533D01*
X0054566D01*
X0054732Y0124367D01*
Y0124033D01*
X0054566Y0123867D01*
X0054066D01*
X0055565D02*
X0055232D01*
X0055066Y0124033D01*
Y0124367D01*
X0055232Y0124533D01*
X0055565D01*
X0055732Y0124367D01*
Y01242D01*
X0055066D01*
X0056065Y0124533D02*
Y0123867D01*
Y01242D01*
X0056232Y0124367D01*
X0056399Y0124533D01*
X0056565D01*
X0057065Y0123867D02*
X0057398Y01242D01*
Y0124533D01*
X0057065Y0124866D01*
X0026075Y0119867D02*
Y0120033D01*
X0026242D01*
Y0119867D01*
X0026075D01*
X0027575Y01207D02*
X0027408Y0120866D01*
X0027075D01*
X0026908Y01207D01*
Y0120033D01*
X0027075Y0119867D01*
X0027408D01*
X0027575Y0120033D01*
Y0120367D01*
X0027241D01*
X0027908Y0120866D02*
Y0119867D01*
X0028408D01*
X0028574Y0120033D01*
Y01202D01*
X0028408Y0120367D01*
X0027908D01*
X0028408D01*
X0028574Y0120533D01*
Y01207D01*
X0028408Y0120866D01*
X0027908D01*
X0028907D02*
Y0119867D01*
X0029574D01*
X0030907Y0120367D02*
X0031573D01*
X0032906Y0120866D02*
Y0119867D01*
X0033406D01*
X0033573Y0120033D01*
Y01202D01*
X0033406Y0120367D01*
X0032906D01*
X0033406D01*
X0033573Y0120533D01*
Y01207D01*
X0033406Y0120866D01*
X0032906D01*
X0034072Y0119867D02*
X0034406D01*
X0034572Y0120033D01*
Y0120367D01*
X0034406Y0120533D01*
X0034072D01*
X0033906Y0120367D01*
Y0120033D01*
X0034072Y0119867D01*
X0035072Y01207D02*
Y0120533D01*
X0034905D01*
X0035239D01*
X0035072D01*
Y0120033D01*
X0035239Y0119867D01*
X0035905Y01207D02*
Y0120533D01*
X0035739D01*
X0036072D01*
X0035905D01*
Y0120033D01*
X0036072Y0119867D01*
X0036738D02*
X0037071D01*
X0037238Y0120033D01*
Y0120367D01*
X0037071Y0120533D01*
X0036738D01*
X0036572Y0120367D01*
Y0120033D01*
X0036738Y0119867D01*
X0037571D02*
Y0120533D01*
X0037738D01*
X0037905Y0120367D01*
Y0119867D01*
Y0120367D01*
X0038071Y0120533D01*
X0038238Y0120367D01*
Y0119867D01*
X0039571Y0120866D02*
Y0119867D01*
X0040237D01*
X0040737Y0120533D02*
X004107D01*
X0041237Y0120367D01*
Y0119867D01*
X0040737D01*
X004057Y0120033D01*
X0040737Y01202D01*
X0041237D01*
X004157Y0120533D02*
Y0120033D01*
X0041737Y0119867D01*
X0042236D01*
Y01197D01*
X004207Y0119534D01*
X0041903D01*
X0042236Y0119867D02*
Y0120533D01*
X004307Y0119867D02*
X0042736D01*
X004257Y0120033D01*
Y0120367D01*
X0042736Y0120533D01*
X004307D01*
X0043236Y0120367D01*
Y01202D01*
X004257D01*
X0043569Y0120533D02*
Y0119867D01*
Y01202D01*
X0043736Y0120367D01*
X0043903Y0120533D01*
X0044069D01*
X0045902Y0119867D02*
X0045569Y01202D01*
Y0120533D01*
X0045902Y0120866D01*
X0047068Y0120533D02*
X0046568D01*
X0046402Y0120367D01*
Y0120033D01*
X0046568Y0119867D01*
X0047068D01*
X0047568D02*
X0047901D01*
X0048068Y0120033D01*
Y0120367D01*
X0047901Y0120533D01*
X0047568D01*
X0047401Y0120367D01*
Y0120033D01*
X0047568Y0119867D01*
X0048401Y0119534D02*
Y0120533D01*
X0048901D01*
X0049068Y0120367D01*
Y0120033D01*
X0048901Y0119867D01*
X0048401D01*
X0049401Y0119534D02*
Y0120533D01*
X0049901D01*
X0050067Y0120367D01*
Y0120033D01*
X0049901Y0119867D01*
X0049401D01*
X00509D02*
X0050567D01*
X00504Y0120033D01*
Y0120367D01*
X0050567Y0120533D01*
X00509D01*
X0051067Y0120367D01*
Y01202D01*
X00504D01*
X00514Y0120533D02*
Y0119867D01*
Y01202D01*
X0051567Y0120367D01*
X0051733Y0120533D01*
X00519D01*
X00524Y0119867D02*
X0052733Y01202D01*
Y0120533D01*
X00524Y0120866D01*
X0026075Y0121867D02*
Y0122033D01*
X0026242D01*
Y0121867D01*
X0026075D01*
X0027575Y01227D02*
X0027408Y0122866D01*
X0027075D01*
X0026908Y01227D01*
Y0122033D01*
X0027075Y0121867D01*
X0027408D01*
X0027575Y0122033D01*
Y0122367D01*
X0027241D01*
X0027908Y0121867D02*
Y0122533D01*
X0028408D01*
X0028574Y0122367D01*
Y0121867D01*
X0030907Y0122367D02*
X0031573D01*
X0032906Y0122866D02*
X0033239D01*
X0033073D01*
Y0121867D01*
X0032906D01*
X0033239D01*
X0033739D02*
Y0122533D01*
X0034239D01*
X0034406Y0122367D01*
Y0121867D01*
X0034739D02*
Y0122533D01*
X0035239D01*
X0035405Y0122367D01*
Y0121867D01*
X0036238D02*
X0035905D01*
X0035739Y0122033D01*
Y0122367D01*
X0035905Y0122533D01*
X0036238D01*
X0036405Y0122367D01*
Y01222D01*
X0035739D01*
X0036738Y0122533D02*
Y0121867D01*
Y01222D01*
X0036905Y0122367D01*
X0037071Y0122533D01*
X0037238D01*
X0038738Y0122866D02*
Y0121867D01*
X0039404D01*
X0039904Y0122533D02*
X0040237D01*
X0040404Y0122367D01*
Y0121867D01*
X0039904D01*
X0039737Y0122033D01*
X0039904Y01222D01*
X0040404D01*
X0040737Y0122533D02*
Y0122033D01*
X0040904Y0121867D01*
X0041403D01*
Y01217D01*
X0041237Y0121534D01*
X004107D01*
X0041403Y0121867D02*
Y0122533D01*
X0042236Y0121867D02*
X0041903D01*
X0041737Y0122033D01*
Y0122367D01*
X0041903Y0122533D01*
X0042236D01*
X0042403Y0122367D01*
Y01222D01*
X0041737D01*
X0042736Y0122533D02*
Y0121867D01*
Y01222D01*
X0042903Y0122367D01*
X004307Y0122533D01*
X0043236D01*
X0045069Y0121867D02*
X0044736Y01222D01*
Y0122533D01*
X0045069Y0122866D01*
X0045569Y0121867D02*
Y0122533D01*
X0046069D01*
X0046235Y0122367D01*
Y0121867D01*
X0046735D02*
X0047068D01*
X0047235Y0122033D01*
Y0122367D01*
X0047068Y0122533D01*
X0046735D01*
X0046568Y0122367D01*
Y0122033D01*
X0046735Y0121867D01*
X0047568D02*
Y0122033D01*
X0047735D01*
Y0121867D01*
X0047568D01*
X0049401D02*
Y0122533D01*
X0049901D01*
X0050067Y0122367D01*
Y0121867D01*
X00504D02*
X0050734Y01222D01*
Y0122533D01*
X00504Y0122866D01*
X0052566Y0121867D02*
X0052233Y01222D01*
Y0122533D01*
X0052566Y0122866D01*
X0053733Y0122533D02*
X0053233D01*
X0053066Y0122367D01*
Y0122033D01*
X0053233Y0121867D01*
X0053733D01*
X0054233D02*
X0054566D01*
X0054732Y0122033D01*
Y0122367D01*
X0054566Y0122533D01*
X0054233D01*
X0054066Y0122367D01*
Y0122033D01*
X0054233Y0121867D01*
X0055066Y0121534D02*
Y0122533D01*
X0055565D01*
X0055732Y0122367D01*
Y0122033D01*
X0055565Y0121867D01*
X0055066D01*
X0056065Y0121534D02*
Y0122533D01*
X0056565D01*
X0056732Y0122367D01*
Y0122033D01*
X0056565Y0121867D01*
X0056065D01*
X0057565D02*
X0057232D01*
X0057065Y0122033D01*
Y0122367D01*
X0057232Y0122533D01*
X0057565D01*
X0057731Y0122367D01*
Y01222D01*
X0057065D01*
X0058065Y0122533D02*
Y0121867D01*
Y01222D01*
X0058231Y0122367D01*
X0058398Y0122533D01*
X0058565D01*
X0059064Y0121867D02*
X0059398Y01222D01*
Y0122533D01*
X0059064Y0122866D01*
D12*
X0026125Y0131713D02*
Y0130713D01*
X0026791D01*
X0027291Y0131379D02*
X0027625D01*
X0027791Y0131213D01*
Y0130713D01*
X0027291D01*
X0027125Y013088D01*
X0027291Y0131046D01*
X0027791D01*
X0028124Y0131379D02*
Y013088D01*
X0028291Y0130713D01*
X0028791D01*
Y0130546D01*
X0028624Y013038D01*
X0028458D01*
X0028791Y0130713D02*
Y0131379D01*
X0029624Y0130713D02*
X0029291D01*
X0029124Y013088D01*
Y0131213D01*
X0029291Y0131379D01*
X0029624D01*
X002979Y0131213D01*
Y0131046D01*
X0029124D01*
X0030124Y0131379D02*
Y0130713D01*
Y0131046D01*
X003029Y0131213D01*
X0030457Y0131379D01*
X0030624D01*
X0031123Y0130713D02*
X0031623D01*
X003179Y013088D01*
X0031623Y0131046D01*
X003129D01*
X0031123Y0131213D01*
X003129Y0131379D01*
X003179D01*
X0033123D02*
Y0130713D01*
Y0131046D01*
X0033289Y0131213D01*
X0033456Y0131379D01*
X0033623D01*
X0034622Y0130713D02*
X0034289D01*
X0034122Y013088D01*
Y0131213D01*
X0034289Y0131379D01*
X0034622D01*
X0034789Y0131213D01*
Y0131046D01*
X0034122D01*
X0035122Y0130713D02*
X0035455D01*
X0035289D01*
Y0131713D01*
X0035122D01*
X0036122Y0131379D02*
X0036455D01*
X0036622Y0131213D01*
Y0130713D01*
X0036122D01*
X0035955Y013088D01*
X0036122Y0131046D01*
X0036622D01*
X0037121Y0131546D02*
Y0131379D01*
X0036955D01*
X0037288D01*
X0037121D01*
Y013088D01*
X0037288Y0130713D01*
X0038288D02*
X0037955D01*
X0037788Y013088D01*
Y0131213D01*
X0037955Y0131379D01*
X0038288D01*
X0038454Y0131213D01*
Y0131046D01*
X0037788D01*
X0039454Y0131713D02*
Y0130713D01*
X0038954D01*
X0038788Y013088D01*
Y0131213D01*
X0038954Y0131379D01*
X0039454D01*
X0040954Y0131546D02*
Y0131379D01*
X0040787D01*
X004112D01*
X0040954D01*
Y013088D01*
X004112Y0130713D01*
X0041787D02*
X004212D01*
X0042286Y013088D01*
Y0131213D01*
X004212Y0131379D01*
X0041787D01*
X004162Y0131213D01*
Y013088D01*
X0041787Y0130713D01*
X0043786Y0131546D02*
Y0131379D01*
X0043619D01*
X0043953D01*
X0043786D01*
Y013088D01*
X0043953Y0130713D01*
X0044452Y0131713D02*
Y0130713D01*
Y0131213D01*
X0044619Y0131379D01*
X0044952D01*
X0045119Y0131213D01*
Y0130713D01*
X0045952D02*
X0045619D01*
X0045452Y013088D01*
Y0131213D01*
X0045619Y0131379D01*
X0045952D01*
X0046119Y0131213D01*
Y0131046D01*
X0045452D01*
X0047618Y0131379D02*
X0047951D01*
X0048118Y0131213D01*
Y0130713D01*
X0047618D01*
X0047451Y013088D01*
X0047618Y0131046D01*
X0048118D01*
X0048451Y0130713D02*
X0048951D01*
X0049118Y013088D01*
X0048951Y0131046D01*
X0048618D01*
X0048451Y0131213D01*
X0048618Y0131379D01*
X0049118D01*
X0049451Y0130713D02*
X0049951D01*
X0050117Y013088D01*
X0049951Y0131046D01*
X0049617D01*
X0049451Y0131213D01*
X0049617Y0131379D01*
X0050117D01*
X005095Y0130713D02*
X0050617D01*
X005045Y013088D01*
Y0131213D01*
X0050617Y0131379D01*
X005095D01*
X0051117Y0131213D01*
Y0131046D01*
X005045D01*
X005145Y0130713D02*
Y0131379D01*
X0051617D01*
X0051783Y0131213D01*
Y0130713D01*
Y0131213D01*
X005195Y0131379D01*
X0052117Y0131213D01*
Y0130713D01*
X005245Y0131713D02*
Y0130713D01*
X005295D01*
X0053116Y013088D01*
Y0131046D01*
Y0131213D01*
X005295Y0131379D01*
X005245D01*
X005345Y0130713D02*
X0053783D01*
X0053616D01*
Y0131713D01*
X005345D01*
X0054283Y0131379D02*
Y013088D01*
X0054449Y0130713D01*
X0054949D01*
Y0130546D01*
X0054782Y013038D01*
X0054616D01*
X0054949Y0130713D02*
Y0131379D01*
X0056449D02*
X0056782D01*
X0056948Y0131213D01*
Y0130713D01*
X0056449D01*
X0056282Y013088D01*
X0056449Y0131046D01*
X0056948D01*
X0057282Y0131379D02*
Y0130713D01*
Y0131046D01*
X0057448Y0131213D01*
X0057615Y0131379D01*
X0057781D01*
X0058781Y0130713D02*
X0058448D01*
X0058281Y013088D01*
Y0131213D01*
X0058448Y0131379D01*
X0058781D01*
X0058948Y0131213D01*
Y0131046D01*
X0058281D01*
X0060281Y0130713D02*
Y0131379D01*
X006078D01*
X0060947Y0131213D01*
Y0130713D01*
X0061447D02*
X006178D01*
X0061947Y013088D01*
Y0131213D01*
X006178Y0131379D01*
X0061447D01*
X006128Y0131213D01*
Y013088D01*
X0061447Y0130713D01*
X0062447Y0131546D02*
Y0131379D01*
X006228D01*
X0062613D01*
X0062447D01*
Y013088D01*
X0062613Y0130713D01*
X0064113D02*
X0064446D01*
X0064279D01*
Y0131379D01*
X0064113D01*
X0064946Y0130713D02*
Y0131379D01*
X0065446D01*
X0065612Y0131213D01*
Y0130713D01*
X0066612Y0131379D02*
X0066112D01*
X0065946Y0131213D01*
Y013088D01*
X0066112Y0130713D01*
X0066612D01*
X0066945D02*
X0067278D01*
X0067112D01*
Y0131713D01*
X0066945D01*
X0067778Y0131379D02*
Y013088D01*
X0067945Y0130713D01*
X0068445D01*
Y0131379D01*
X0069444Y0131713D02*
Y0130713D01*
X0068945D01*
X0068778Y013088D01*
Y0131213D01*
X0068945Y0131379D01*
X0069444D01*
X0070277Y0130713D02*
X0069944D01*
X0069778Y013088D01*
Y0131213D01*
X0069944Y0131379D01*
X0070277D01*
X0070444Y0131213D01*
Y0131046D01*
X0069778D01*
X0071444Y0131713D02*
Y0130713D01*
X0070944D01*
X0070777Y013088D01*
Y0131213D01*
X0070944Y0131379D01*
X0071444D01*
X0072777Y0131713D02*
Y0130713D01*
X0073276D01*
X0073443Y013088D01*
Y0131046D01*
Y0131213D01*
X0073276Y0131379D01*
X0072777D01*
X0073776D02*
Y013088D01*
X0073943Y0130713D01*
X0074443D01*
Y0130546D01*
X0074276Y013038D01*
X007411D01*
X0074443Y0130713D02*
Y0131379D01*
X0026791Y01297D02*
Y01287D01*
X0026292D01*
X0026125Y0128867D01*
Y01292D01*
X0026292Y0129367D01*
X0026791D01*
X0027625Y01287D02*
X0027291D01*
X0027125Y0128867D01*
Y01292D01*
X0027291Y0129367D01*
X0027625D01*
X0027791Y01292D01*
Y0129033D01*
X0027125D01*
X0028291Y01287D02*
Y0129533D01*
Y01292D01*
X0028124D01*
X0028458D01*
X0028291D01*
Y0129533D01*
X0028458Y01297D01*
X0029124Y0129367D02*
X0029457D01*
X0029624Y01292D01*
Y01287D01*
X0029124D01*
X0028957Y0128867D01*
X0029124Y0129033D01*
X0029624D01*
X0029957Y0129367D02*
Y0128867D01*
X0030124Y01287D01*
X0030624D01*
Y0129367D01*
X0030957Y01287D02*
X003129D01*
X0031123D01*
Y01297D01*
X0030957D01*
X0031956Y0129533D02*
Y0129367D01*
X003179D01*
X0032123D01*
X0031956D01*
Y0128867D01*
X0032123Y01287D01*
X0033623D02*
X0033956D01*
X0033789D01*
Y0129367D01*
X0033623D01*
X0034456Y01287D02*
Y0129367D01*
X0034955D01*
X0035122Y01292D01*
Y01287D01*
X0036622Y0129533D02*
Y0129367D01*
X0036455D01*
X0036788D01*
X0036622D01*
Y0128867D01*
X0036788Y01287D01*
X0037288Y01297D02*
Y01287D01*
Y01292D01*
X0037455Y0129367D01*
X0037788D01*
X0037955Y01292D01*
Y01287D01*
X0038788D02*
X0038454D01*
X0038288Y0128867D01*
Y01292D01*
X0038454Y0129367D01*
X0038788D01*
X0038954Y01292D01*
Y0129033D01*
X0038288D01*
X0040287Y0128367D02*
Y0129367D01*
X0040787D01*
X0040954Y01292D01*
Y0128867D01*
X0040787Y01287D01*
X0040287D01*
X0041453Y0129367D02*
X0041787D01*
X0041953Y01292D01*
Y01287D01*
X0041453D01*
X0041287Y0128867D01*
X0041453Y0129033D01*
X0041953D01*
X0042953Y0129367D02*
X0042453D01*
X0042286Y01292D01*
Y0128867D01*
X0042453Y01287D01*
X0042953D01*
X0043286D02*
Y01297D01*
Y0129033D02*
X0043786Y0129367D01*
X0043286Y0129033D02*
X0043786Y01287D01*
X0044452Y0129367D02*
X0044786D01*
X0044952Y01292D01*
Y01287D01*
X0044452D01*
X0044286Y0128867D01*
X0044452Y0129033D01*
X0044952D01*
X0045619Y0128367D02*
X0045785D01*
X0045952Y0128534D01*
Y0129367D01*
X0045452D01*
X0045285Y01292D01*
Y0128867D01*
X0045452Y01287D01*
X0045952D01*
X0046785D02*
X0046452D01*
X0046285Y0128867D01*
Y01292D01*
X0046452Y0129367D01*
X0046785D01*
X0046952Y01292D01*
Y0129033D01*
X0046285D01*
X0048618Y0128367D02*
X0048784D01*
X0048951Y0128534D01*
Y0129367D01*
X0048451D01*
X0048285Y01292D01*
Y0128867D01*
X0048451Y01287D01*
X0048951D01*
X0049784D02*
X0049451D01*
X0049284Y0128867D01*
Y01292D01*
X0049451Y0129367D01*
X0049784D01*
X0049951Y01292D01*
Y0129033D01*
X0049284D01*
X0050284Y01287D02*
Y0129367D01*
X0050784D01*
X005095Y01292D01*
Y01287D01*
X0051783D02*
X005145D01*
X0051284Y0128867D01*
Y01292D01*
X005145Y0129367D01*
X0051783D01*
X005195Y01292D01*
Y0129033D01*
X0051284D01*
X0052283Y0129367D02*
Y01287D01*
Y0129033D01*
X005245Y01292D01*
X0052616Y0129367D01*
X0052783D01*
X005345D02*
X0053783D01*
X0053949Y01292D01*
Y01287D01*
X005345D01*
X0053283Y0128867D01*
X005345Y0129033D01*
X0053949D01*
X0054449Y0129533D02*
Y0129367D01*
X0054283D01*
X0054616D01*
X0054449D01*
Y0128867D01*
X0054616Y01287D01*
X0055615D02*
X0055282D01*
X0055116Y0128867D01*
Y01292D01*
X0055282Y0129367D01*
X0055615D01*
X0055782Y01292D01*
Y0129033D01*
X0055116D01*
X0056782Y01297D02*
Y01287D01*
X0056282D01*
X0056115Y0128867D01*
Y01292D01*
X0056282Y0129367D01*
X0056782D01*
X0058281Y01287D02*
Y0129533D01*
Y01292D01*
X0058115D01*
X0058448D01*
X0058281D01*
Y0129533D01*
X0058448Y01297D01*
X0059114Y01287D02*
X0059448D01*
X0059614Y0128867D01*
Y01292D01*
X0059448Y0129367D01*
X0059114D01*
X0058948Y01292D01*
Y0128867D01*
X0059114Y01287D01*
X0059947Y0129367D02*
Y01287D01*
Y0129033D01*
X0060114Y01292D01*
X0060281Y0129367D01*
X0060447D01*
X0062113Y0129533D02*
Y0129367D01*
X0061947D01*
X006228D01*
X0062113D01*
Y0128867D01*
X006228Y01287D01*
X006278Y01297D02*
Y01287D01*
Y01292D01*
X0062946Y0129367D01*
X006328D01*
X0063446Y01292D01*
Y01287D01*
X0064279D02*
X0063946D01*
X006378Y0128867D01*
Y01292D01*
X0063946Y0129367D01*
X0064279D01*
X0064446Y01292D01*
Y0129033D01*
X006378D01*
X0065779Y01287D02*
X0066112D01*
X0065946D01*
Y01297D01*
X0065779D01*
X0066779Y0129367D02*
X0067112D01*
X0067278Y01292D01*
Y01287D01*
X0066779D01*
X0066612Y0128867D01*
X0066779Y0129033D01*
X0067278D01*
X0067612Y01287D02*
Y0129367D01*
X0067778D01*
X0067945Y01292D01*
Y01287D01*
Y01292D01*
X0068111Y0129367D01*
X0068278Y01292D01*
Y01287D01*
X0068611D02*
X0068945D01*
X0068778D01*
Y0129367D01*
X0068611D01*
X0069444Y01287D02*
Y0129367D01*
X0069944D01*
X0070111Y01292D01*
Y01287D01*
X0070611Y0129367D02*
X0070944D01*
X007111Y01292D01*
Y01287D01*
X0070611D01*
X0070444Y0128867D01*
X0070611Y0129033D01*
X007111D01*
X007161Y0129533D02*
Y0129367D01*
X0071444D01*
X0071777D01*
X007161D01*
Y0128867D01*
X0071777Y01287D01*
X0072777D02*
X0072443D01*
X0072277Y0128867D01*
Y01292D01*
X0072443Y0129367D01*
X0072777D01*
X0072943Y01292D01*
Y0129033D01*
X0072277D01*
X0026125Y0126687D02*
Y0127354D01*
X0026292D01*
X0026458Y0127187D01*
Y0126687D01*
Y0127187D01*
X0026625Y0127354D01*
X0026791Y0127187D01*
Y0126687D01*
X0027291Y0127354D02*
X0027625D01*
X0027791Y0127187D01*
Y0126687D01*
X0027291D01*
X0027125Y0126854D01*
X0027291Y0127021D01*
X0027791D01*
X0028124Y0126687D02*
Y0127354D01*
X0028624D01*
X0028791Y0127187D01*
Y0126687D01*
X0029124Y0127354D02*
Y0126854D01*
X0029291Y0126687D01*
X002979D01*
Y0127354D01*
X003029Y0126687D02*
Y012752D01*
Y0127187D01*
X0030124D01*
X0030457D01*
X003029D01*
Y012752D01*
X0030457Y0127687D01*
X0031123Y0127354D02*
X0031457D01*
X0031623Y0127187D01*
Y0126687D01*
X0031123D01*
X0030957Y0126854D01*
X0031123Y0127021D01*
X0031623D01*
X0032623Y0127354D02*
X0032123D01*
X0031956Y0127187D01*
Y0126854D01*
X0032123Y0126687D01*
X0032623D01*
X0033123Y012752D02*
Y0127354D01*
X0032956D01*
X0033289D01*
X0033123D01*
Y0126854D01*
X0033289Y0126687D01*
X0033789Y0127354D02*
Y0126854D01*
X0033956Y0126687D01*
X0034456D01*
Y0127354D01*
X0034789D02*
Y0126687D01*
Y0127021D01*
X0034955Y0127187D01*
X0035122Y0127354D01*
X0035289D01*
X0036288Y0126687D02*
X0035955D01*
X0035789Y0126854D01*
Y0127187D01*
X0035955Y0127354D01*
X0036288D01*
X0036455Y0127187D01*
Y0127021D01*
X0035789D01*
X0036788Y0127354D02*
Y0126687D01*
Y0127021D01*
X0036955Y0127187D01*
X0037121Y0127354D01*
X0037288D01*
X0037788Y0126687D02*
Y0126854D01*
X0037955D01*
Y0126687D01*
X0037788D01*
X00262Y0141679D02*
X0026866D01*
X0026533D01*
Y014068D01*
X00272Y0141679D02*
Y014068D01*
Y0141179D01*
X0027366Y0141346D01*
X00277D01*
X0027866Y0141179D01*
Y014068D01*
X0028699D02*
X0028366D01*
X0028199Y0140846D01*
Y0141179D01*
X0028366Y0141346D01*
X0028699D01*
X0028866Y0141179D01*
Y0141013D01*
X0028199D01*
X0030199Y014068D02*
X0030699D01*
X0030865Y0140846D01*
X0030699Y0141013D01*
X0030365D01*
X0030199Y0141179D01*
X0030365Y0141346D01*
X0030865D01*
X0031365Y014068D02*
X0031698D01*
X0031865Y0140846D01*
Y0141179D01*
X0031698Y0141346D01*
X0031365D01*
X0031198Y0141179D01*
Y0140846D01*
X0031365Y014068D01*
X0032198D02*
X0032531D01*
X0032365D01*
Y0141679D01*
X0032198D01*
X0033698D02*
Y014068D01*
X0033198D01*
X0033031Y0140846D01*
Y0141179D01*
X0033198Y0141346D01*
X0033698D01*
X0034531Y014068D02*
X0034197D01*
X0034031Y0140846D01*
Y0141179D01*
X0034197Y0141346D01*
X0034531D01*
X0034697Y0141179D01*
Y0141013D01*
X0034031D01*
X003503Y0141346D02*
Y014068D01*
Y0141013D01*
X0035197Y0141179D01*
X0035364Y0141346D01*
X003553D01*
X003703Y014068D02*
Y0141346D01*
X0037196D01*
X0037363Y0141179D01*
Y014068D01*
Y0141179D01*
X003753Y0141346D01*
X0037696Y0141179D01*
Y014068D01*
X0038196Y0141346D02*
X0038529D01*
X0038696Y0141179D01*
Y014068D01*
X0038196D01*
X003803Y0140846D01*
X0038196Y0141013D01*
X0038696D01*
X0039029Y014068D02*
X0039529D01*
X0039696Y0140846D01*
X0039529Y0141013D01*
X0039196D01*
X0039029Y0141179D01*
X0039196Y0141346D01*
X0039696D01*
X0040029Y014068D02*
Y0141679D01*
Y0141013D02*
X0040529Y0141346D01*
X0040029Y0141013D02*
X0040529Y014068D01*
X0042528D02*
X0042195D01*
X0042028Y0140846D01*
Y0141179D01*
X0042195Y0141346D01*
X0042528D01*
X0042695Y0141179D01*
Y0141013D01*
X0042028D01*
X0043028Y0141346D02*
X0043694Y014068D01*
X0043361Y0141013D01*
X0043694Y0141346D01*
X0043028Y014068D01*
X0044028Y0140346D02*
Y0141346D01*
X0044527D01*
X0044694Y0141179D01*
Y0140846D01*
X0044527Y014068D01*
X0044028D01*
X0045194Y0141346D02*
X0045527D01*
X0045694Y0141179D01*
Y014068D01*
X0045194D01*
X0045027Y0140846D01*
X0045194Y0141013D01*
X0045694D01*
X0046027Y014068D02*
Y0141346D01*
X0046527D01*
X0046693Y0141179D01*
Y014068D01*
X0047027D02*
X0047526D01*
X0047693Y0140846D01*
X0047526Y0141013D01*
X0047193D01*
X0047027Y0141179D01*
X0047193Y0141346D01*
X0047693D01*
X0048026Y014068D02*
X004836D01*
X0048193D01*
Y0141346D01*
X0048026D01*
X0049026Y014068D02*
X0049359D01*
X0049526Y0140846D01*
Y0141179D01*
X0049359Y0141346D01*
X0049026D01*
X0048859Y0141179D01*
Y0140846D01*
X0049026Y014068D01*
X0049859D02*
Y0141346D01*
X0050359D01*
X0050525Y0141179D01*
Y014068D01*
X0052358D02*
X0052025D01*
X0051858Y0140846D01*
Y0141179D01*
X0052025Y0141346D01*
X0052358D01*
X0052525Y0141179D01*
Y0141013D01*
X0051858D01*
X0053525Y0140346D02*
Y0141346D01*
X0053025D01*
X0052858Y0141179D01*
Y0140846D01*
X0053025Y014068D01*
X0053525D01*
X0053858Y0141346D02*
Y0140846D01*
X0054024Y014068D01*
X0054524D01*
Y0141346D01*
X0055024D02*
X0055357D01*
X0055524Y0141179D01*
Y014068D01*
X0055024D01*
X0054857Y0140846D01*
X0055024Y0141013D01*
X0055524D01*
X0055857Y014068D02*
X005619D01*
X0056024D01*
Y0141679D01*
X0055857D01*
X005669Y014068D02*
X005719D01*
X0057357Y0140846D01*
X005719Y0141013D01*
X0056857D01*
X005669Y0141179D01*
X0056857Y0141346D01*
X0057357D01*
X005869Y0141513D02*
X0058856Y0141679D01*
X0059189D01*
X0059356Y0141513D01*
Y0140846D01*
X0059189Y014068D01*
X0058856D01*
X005869Y0140846D01*
Y0141513D01*
X0059689Y014068D02*
Y0141346D01*
X0059856D01*
X0060022Y0141179D01*
Y014068D01*
Y0141179D01*
X0060189Y0141346D01*
X0060356Y0141179D01*
Y014068D01*
X0060689D02*
Y0141346D01*
X0060855D01*
X0061022Y0141179D01*
Y014068D01*
Y0141179D01*
X0061189Y0141346D01*
X0061355Y0141179D01*
Y014068D01*
X0061689D02*
Y0140846D01*
X0061855D01*
Y014068D01*
X0061689D01*
X0063521Y0141679D02*
X0064188D01*
X0063855D01*
Y014068D01*
X0064521Y0141679D02*
Y014068D01*
Y0141179D01*
X0064688Y0141346D01*
X0065021D01*
X0065187Y0141179D01*
Y014068D01*
X0066021D02*
X0065687D01*
X0065521Y0140846D01*
Y0141179D01*
X0065687Y0141346D01*
X0066021D01*
X0066187Y0141179D01*
Y0141013D01*
X0065521D01*
X00262Y0138667D02*
Y0139333D01*
X0026367D01*
X0026533Y0139167D01*
Y0138667D01*
Y0139167D01*
X00267Y0139333D01*
X0026866Y0139167D01*
Y0138667D01*
X0027366Y0139333D02*
X00277D01*
X0027866Y0139167D01*
Y0138667D01*
X0027366D01*
X00272Y0138833D01*
X0027366Y0139D01*
X0027866D01*
X0028199Y0138667D02*
Y0139333D01*
X0028699D01*
X0028866Y0139167D01*
Y0138667D01*
X0029199Y0139333D02*
Y0138833D01*
X0029366Y0138667D01*
X0029865D01*
Y0139333D01*
X0030365Y0138667D02*
Y01395D01*
Y0139167D01*
X0030199D01*
X0030532D01*
X0030365D01*
Y01395D01*
X0030532Y0139666D01*
X0031198Y0139333D02*
X0031532D01*
X0031698Y0139167D01*
Y0138667D01*
X0031198D01*
X0031032Y0138833D01*
X0031198Y0139D01*
X0031698D01*
X0032698Y0139333D02*
X0032198D01*
X0032031Y0139167D01*
Y0138833D01*
X0032198Y0138667D01*
X0032698D01*
X0033198Y01395D02*
Y0139333D01*
X0033031D01*
X0033364D01*
X0033198D01*
Y0138833D01*
X0033364Y0138667D01*
X0033864Y0139333D02*
Y0138833D01*
X0034031Y0138667D01*
X0034531D01*
Y0139333D01*
X0034864D02*
Y0138667D01*
Y0139D01*
X003503Y0139167D01*
X0035197Y0139333D01*
X0035364D01*
X0036363Y0138667D02*
X003603D01*
X0035864Y0138833D01*
Y0139167D01*
X003603Y0139333D01*
X0036363D01*
X003653Y0139167D01*
Y0139D01*
X0035864D01*
X0036863Y0139333D02*
Y0138667D01*
Y0139D01*
X003703Y0139167D01*
X0037196Y0139333D01*
X0037363D01*
X0038863Y0138667D02*
X0039196D01*
X0039029D01*
Y0139333D01*
X0038863D01*
X0039696Y0138667D02*
X0040195D01*
X0040362Y0138833D01*
X0040195Y0139D01*
X0039862D01*
X0039696Y0139167D01*
X0039862Y0139333D01*
X0040362D01*
X0041862D02*
X0042195D01*
X0042361Y0139167D01*
Y0138667D01*
X0041862D01*
X0041695Y0138833D01*
X0041862Y0139D01*
X0042361D01*
X0042695Y0138667D02*
X0043028D01*
X0042861D01*
Y0139666D01*
X0042695D01*
X0043528Y0138667D02*
X0043861D01*
X0043694D01*
Y0139666D01*
X0043528D01*
X0044527Y0138667D02*
X0044861D01*
X0045027Y0138833D01*
Y0139167D01*
X0044861Y0139333D01*
X0044527D01*
X0044361Y0139167D01*
Y0138833D01*
X0044527Y0138667D01*
X004536Y0139333D02*
Y0138833D01*
X0045527Y0138667D01*
X0045694Y0138833D01*
X004586Y0138667D01*
X0046027Y0138833D01*
Y0139333D01*
X004686Y0138667D02*
X0046527D01*
X004636Y0138833D01*
Y0139167D01*
X0046527Y0139333D01*
X004686D01*
X0047027Y0139167D01*
Y0139D01*
X004636D01*
X0048026Y0139666D02*
Y0138667D01*
X0047526D01*
X004736Y0138833D01*
Y0139167D01*
X0047526Y0139333D01*
X0048026D01*
X0049526Y01395D02*
Y0139333D01*
X0049359D01*
X0049692D01*
X0049526D01*
Y0138833D01*
X0049692Y0138667D01*
X0050359D02*
X0050692D01*
X0050859Y0138833D01*
Y0139167D01*
X0050692Y0139333D01*
X0050359D01*
X0050192Y0139167D01*
Y0138833D01*
X0050359Y0138667D01*
X0052192D02*
X0052525D01*
X0052358D01*
Y0139333D01*
X0052192D01*
X0053025Y0138667D02*
Y0139333D01*
X0053525D01*
X0053691Y0139167D01*
Y0138667D01*
X0054691Y0139333D02*
X0054191D01*
X0054024Y0139167D01*
Y0138833D01*
X0054191Y0138667D01*
X0054691D01*
X0055024Y0139333D02*
Y0138667D01*
Y0139D01*
X0055191Y0139167D01*
X0055357Y0139333D01*
X0055524D01*
X0056524Y0138667D02*
X005619D01*
X0056024Y0138833D01*
Y0139167D01*
X005619Y0139333D01*
X0056524D01*
X005669Y0139167D01*
Y0139D01*
X0056024D01*
X005719Y0139333D02*
X0057523D01*
X005769Y0139167D01*
Y0138667D01*
X005719D01*
X0057023Y0138833D01*
X005719Y0139D01*
X005769D01*
X0058023Y0138667D02*
X0058523D01*
X005869Y0138833D01*
X0058523Y0139D01*
X005819D01*
X0058023Y0139167D01*
X005819Y0139333D01*
X005869D01*
X0059523Y0138667D02*
X0059189D01*
X0059023Y0138833D01*
Y0139167D01*
X0059189Y0139333D01*
X0059523D01*
X0059689Y0139167D01*
Y0139D01*
X0059023D01*
X0061189Y01395D02*
Y0139333D01*
X0061022D01*
X0061355D01*
X0061189D01*
Y0138833D01*
X0061355Y0138667D01*
X0061855Y0139666D02*
Y0138667D01*
Y0139167D01*
X0062022Y0139333D01*
X0062355D01*
X0062522Y0139167D01*
Y0138667D01*
X0063355D02*
X0063021D01*
X0062855Y0138833D01*
Y0139167D01*
X0063021Y0139333D01*
X0063355D01*
X0063521Y0139167D01*
Y0139D01*
X0062855D01*
X0065021Y0138667D02*
X0065354D01*
X0065521Y0138833D01*
Y0139167D01*
X0065354Y0139333D01*
X0065021D01*
X0064854Y0139167D01*
Y0138833D01*
X0065021Y0138667D01*
X0065854Y0138334D02*
Y0139333D01*
X0066354D01*
X006652Y0139167D01*
Y0138833D01*
X0066354Y0138667D01*
X0065854D01*
X0067353D02*
X006702D01*
X0066854Y0138833D01*
Y0139167D01*
X006702Y0139333D01*
X0067353D01*
X006752Y0139167D01*
Y0139D01*
X0066854D01*
X0067853Y0138667D02*
Y0139333D01*
X0068353D01*
X006852Y0139167D01*
Y0138667D01*
X0068853D02*
X0069186D01*
X006902D01*
Y0139333D01*
X0068853D01*
X0069686Y0138667D02*
Y0139333D01*
X0070186D01*
X0070352Y0139167D01*
Y0138667D01*
X0071019Y0138334D02*
X0071186D01*
X0071352Y01385D01*
Y0139333D01*
X0070852D01*
X0070686Y0139167D01*
Y0138833D01*
X0070852Y0138667D01*
X0071352D01*
X0072685D02*
X0073018D01*
X0072852D01*
Y0139333D01*
X0072685D01*
X0073518Y0138667D02*
Y0139333D01*
X0074018D01*
X0074185Y0139167D01*
Y0138667D01*
X0026367Y013732D02*
X00267D01*
X0026866Y0137154D01*
Y0136654D01*
X0026367D01*
X00262Y0136821D01*
X0026367Y0136987D01*
X0026866D01*
X0027866Y013732D02*
X0027366D01*
X00272Y0137154D01*
Y0136821D01*
X0027366Y0136654D01*
X0027866D01*
X0028866Y013732D02*
X0028366D01*
X0028199Y0137154D01*
Y0136821D01*
X0028366Y0136654D01*
X0028866D01*
X0029366D02*
X0029699D01*
X0029865Y0136821D01*
Y0137154D01*
X0029699Y013732D01*
X0029366D01*
X0029199Y0137154D01*
Y0136821D01*
X0029366Y0136654D01*
X0030199Y013732D02*
Y0136654D01*
Y0136987D01*
X0030365Y0137154D01*
X0030532Y013732D01*
X0030699D01*
X0031865Y0137654D02*
Y0136654D01*
X0031365D01*
X0031198Y0136821D01*
Y0137154D01*
X0031365Y013732D01*
X0031865D01*
X0032365D02*
X0032698D01*
X0032865Y0137154D01*
Y0136654D01*
X0032365D01*
X0032198Y0136821D01*
X0032365Y0136987D01*
X0032865D01*
X0033198Y0136654D02*
Y013732D01*
X0033698D01*
X0033864Y0137154D01*
Y0136654D01*
X0034864Y013732D02*
X0034364D01*
X0034197Y0137154D01*
Y0136821D01*
X0034364Y0136654D01*
X0034864D01*
X0035697D02*
X0035364D01*
X0035197Y0136821D01*
Y0137154D01*
X0035364Y013732D01*
X0035697D01*
X0035864Y0137154D01*
Y0136987D01*
X0035197D01*
X0037196Y013732D02*
Y0136821D01*
X0037363Y0136654D01*
X003753Y0136821D01*
X0037696Y0136654D01*
X0037863Y0136821D01*
Y013732D01*
X0038196Y0136654D02*
X0038529D01*
X0038363D01*
Y013732D01*
X0038196D01*
X0039196Y0137487D02*
Y013732D01*
X0039029D01*
X0039362D01*
X0039196D01*
Y0136821D01*
X0039362Y0136654D01*
X0039862Y0137654D02*
Y0136654D01*
Y0137154D01*
X0040029Y013732D01*
X0040362D01*
X0040529Y0137154D01*
Y0136654D01*
X0041862Y0136321D02*
Y013732D01*
X0042361D01*
X0042528Y0137154D01*
Y0136821D01*
X0042361Y0136654D01*
X0041862D01*
X0042861Y013732D02*
Y0136654D01*
Y0136987D01*
X0043028Y0137154D01*
X0043195Y013732D01*
X0043361D01*
X0044028Y0136654D02*
X0044361D01*
X0044527Y0136821D01*
Y0137154D01*
X0044361Y013732D01*
X0044028D01*
X0043861Y0137154D01*
Y0136821D01*
X0044028Y0136654D01*
X0045527Y0137654D02*
Y0136654D01*
X0045027D01*
X0044861Y0136821D01*
Y0137154D01*
X0045027Y013732D01*
X0045527D01*
X004586D02*
Y0136821D01*
X0046027Y0136654D01*
X0046527D01*
Y013732D01*
X0047526D02*
X0047027D01*
X004686Y0137154D01*
Y0136821D01*
X0047027Y0136654D01*
X0047526D01*
X0048026Y0137487D02*
Y013732D01*
X004786D01*
X0048193D01*
X0048026D01*
Y0136821D01*
X0048193Y0136654D01*
X0048693D02*
X0049026D01*
X0048859D01*
Y013732D01*
X0048693D01*
X0049692Y0136654D02*
X0050026D01*
X0050192Y0136821D01*
Y0137154D01*
X0050026Y013732D01*
X0049692D01*
X0049526Y0137154D01*
Y0136821D01*
X0049692Y0136654D01*
X0050525D02*
Y013732D01*
X0051025D01*
X0051192Y0137154D01*
Y0136654D01*
X0052691Y0137487D02*
Y013732D01*
X0052525D01*
X0052858D01*
X0052691D01*
Y0136821D01*
X0052858Y0136654D01*
X0053525D02*
X0053858D01*
X0054024Y0136821D01*
Y0137154D01*
X0053858Y013732D01*
X0053525D01*
X0053358Y0137154D01*
Y0136821D01*
X0053525Y0136654D01*
X0054358D02*
X0054691D01*
X0054524D01*
Y0137654D01*
X0054358D01*
X005569Y0136654D02*
X0055357D01*
X0055191Y0136821D01*
Y0137154D01*
X0055357Y013732D01*
X005569D01*
X0055857Y0137154D01*
Y0136987D01*
X0055191D01*
X005619Y013732D02*
Y0136654D01*
Y0136987D01*
X0056357Y0137154D01*
X0056524Y013732D01*
X005669D01*
X0057357D02*
X005769D01*
X0057856Y0137154D01*
Y0136654D01*
X0057357D01*
X005719Y0136821D01*
X0057357Y0136987D01*
X0057856D01*
X005819Y0136654D02*
Y013732D01*
X005869D01*
X0058856Y0137154D01*
Y0136654D01*
X0059856Y013732D02*
X0059356D01*
X0059189Y0137154D01*
Y0136821D01*
X0059356Y0136654D01*
X0059856D01*
X0060689D02*
X0060356D01*
X0060189Y0136821D01*
Y0137154D01*
X0060356Y013732D01*
X0060689D01*
X0060855Y0137154D01*
Y0136987D01*
X0060189D01*
X0061189Y0136654D02*
X0061689D01*
X0061855Y0136821D01*
X0061689Y0136987D01*
X0061355D01*
X0061189Y0137154D01*
X0061355Y013732D01*
X0061855D01*
X0062188Y0136654D02*
Y0136821D01*
X0062355D01*
Y0136654D01*
X0062188D01*
X00262Y0155667D02*
Y0156666D01*
X00267D01*
X0026866Y01565D01*
Y0156167D01*
X00267Y0156D01*
X00262D01*
X0027366Y0155667D02*
X00277D01*
X0027866Y0155833D01*
Y0156167D01*
X00277Y0156333D01*
X0027366D01*
X00272Y0156167D01*
Y0155833D01*
X0027366Y0155667D01*
X0028199D02*
X0028533D01*
X0028366D01*
Y0156666D01*
X0028199D01*
X0029032Y0156333D02*
Y0155833D01*
X0029199Y0155667D01*
X0029699D01*
Y01555D01*
X0029532Y0155334D01*
X0029366D01*
X0029699Y0155667D02*
Y0156333D01*
X0030199D02*
X0030532D01*
X0030699Y0156167D01*
Y0155667D01*
X0030199D01*
X0030032Y0155833D01*
X0030199Y0156D01*
X0030699D01*
X0031032Y0155667D02*
Y0156333D01*
X0031198D01*
X0031365Y0156167D01*
Y0155667D01*
Y0156167D01*
X0031532Y0156333D01*
X0031698Y0156167D01*
Y0155667D01*
X0032031D02*
X0032365D01*
X0032198D01*
Y0156333D01*
X0032031D01*
X0033531Y0156666D02*
Y0155667D01*
X0033031D01*
X0032865Y0155833D01*
Y0156167D01*
X0033031Y0156333D01*
X0033531D01*
X0034364Y0155667D02*
X0034031D01*
X0033864Y0155833D01*
Y0156167D01*
X0034031Y0156333D01*
X0034364D01*
X0034531Y0156167D01*
Y0156D01*
X0033864D01*
X003653Y0156333D02*
X003603D01*
X0035864Y0156167D01*
Y0155833D01*
X003603Y0155667D01*
X003653D01*
X003703D02*
X0037363D01*
X003753Y0155833D01*
Y0156167D01*
X0037363Y0156333D01*
X003703D01*
X0036863Y0156167D01*
Y0155833D01*
X003703Y0155667D01*
X0037863D02*
Y0156333D01*
X003803D01*
X0038196Y0156167D01*
Y0155667D01*
Y0156167D01*
X0038363Y0156333D01*
X0038529Y0156167D01*
Y0155667D01*
X0038863Y0155334D02*
Y0156333D01*
X0039362D01*
X0039529Y0156167D01*
Y0155833D01*
X0039362Y0155667D01*
X0038863D01*
X0039862D02*
X0040195D01*
X0040029D01*
Y0156333D01*
X0039862D01*
X0040695Y0155667D02*
X0041029D01*
X0040862D01*
Y0156666D01*
X0040695D01*
X0041695Y0156333D02*
X0042028D01*
X0042195Y0156167D01*
Y0155667D01*
X0041695D01*
X0041528Y0155833D01*
X0041695Y0156D01*
X0042195D01*
X0042528Y0155667D02*
Y0156333D01*
X0043028D01*
X0043195Y0156167D01*
Y0155667D01*
X0043694Y01565D02*
Y0156333D01*
X0043528D01*
X0043861D01*
X0043694D01*
Y0155833D01*
X0043861Y0155667D01*
X004536Y0156333D02*
Y0155833D01*
X0045527Y0155667D01*
X0045694Y0155833D01*
X004586Y0155667D01*
X0046027Y0155833D01*
Y0156333D01*
X004636Y0155667D02*
X0046693D01*
X0046527D01*
Y0156333D01*
X004636D01*
X004736Y01565D02*
Y0156333D01*
X0047193D01*
X0047526D01*
X004736D01*
Y0155833D01*
X0047526Y0155667D01*
X0048026Y0156666D02*
Y0155667D01*
Y0156167D01*
X0048193Y0156333D01*
X0048526D01*
X0048693Y0156167D01*
Y0155667D01*
X0050026D02*
Y0156666D01*
X0050525D01*
X0050692Y01565D01*
Y0156167D01*
X0050525Y0156D01*
X0050026D01*
X0050359D02*
X0050692Y0155667D01*
X0051192D02*
X0051525D01*
X0051692Y0155833D01*
Y0156167D01*
X0051525Y0156333D01*
X0051192D01*
X0051025Y0156167D01*
Y0155833D01*
X0051192Y0155667D01*
X0052025Y0156666D02*
Y0155667D01*
Y0156167D01*
X0052691D01*
Y0156666D01*
Y0155667D01*
X0053025D02*
X0053525D01*
X0053691Y0155833D01*
X0053525Y0156D01*
X0053191D01*
X0053025Y0156167D01*
X0053191Y0156333D01*
X0053691D01*
X0055024D02*
Y0155667D01*
Y0156D01*
X0055191Y0156167D01*
X0055357Y0156333D01*
X0055524D01*
X0056524Y0155667D02*
X005619D01*
X0056024Y0155833D01*
Y0156167D01*
X005619Y0156333D01*
X0056524D01*
X005669Y0156167D01*
Y0156D01*
X0056024D01*
X005769Y0155334D02*
Y0156333D01*
X005719D01*
X0057023Y0156167D01*
Y0155833D01*
X005719Y0155667D01*
X005769D01*
X0058023Y0156333D02*
Y0155833D01*
X005819Y0155667D01*
X005869D01*
Y0156333D01*
X0059023Y0155667D02*
X0059356D01*
X0059189D01*
Y0156333D01*
X0059023D01*
X0059856D02*
Y0155667D01*
Y0156D01*
X0060022Y0156167D01*
X0060189Y0156333D01*
X0060356D01*
X0061355Y0155667D02*
X0061022D01*
X0060855Y0155833D01*
Y0156167D01*
X0061022Y0156333D01*
X0061355D01*
X0061522Y0156167D01*
Y0156D01*
X0060855D01*
X0061855Y0155667D02*
Y0156333D01*
X0062022D01*
X0062188Y0156167D01*
Y0155667D01*
Y0156167D01*
X0062355Y0156333D01*
X0062522Y0156167D01*
Y0155667D01*
X0063355D02*
X0063021D01*
X0062855Y0155833D01*
Y0156167D01*
X0063021Y0156333D01*
X0063355D01*
X0063521Y0156167D01*
Y0156D01*
X0062855D01*
X0063855Y0155667D02*
Y0156333D01*
X0064354D01*
X0064521Y0156167D01*
Y0155667D01*
X0065021Y01565D02*
Y0156333D01*
X0064854D01*
X0065187D01*
X0065021D01*
Y0155833D01*
X0065187Y0155667D01*
X0065687D02*
X0066187D01*
X0066354Y0155833D01*
X0066187Y0156D01*
X0065854D01*
X0065687Y0156167D01*
X0065854Y0156333D01*
X0066354D01*
X00372Y01485D02*
Y0148333D01*
X0037533Y0148D01*
X0037866Y0148333D01*
Y01485D01*
X0037533Y0148D02*
Y01475D01*
X00387D02*
X0038366D01*
X00382Y0147667D01*
Y0148D01*
X0038366Y0148167D01*
X00387D01*
X0038866Y0148D01*
Y0147833D01*
X00382D01*
X0039199Y01475D02*
X0039533D01*
X0039366D01*
Y01485D01*
X0039199D01*
X0040032Y01475D02*
X0040366D01*
X0040199D01*
Y01485D01*
X0040032D01*
X0041032Y01475D02*
X0041365D01*
X0041532Y0147667D01*
Y0148D01*
X0041365Y0148167D01*
X0041032D01*
X0040865Y0148D01*
Y0147667D01*
X0041032Y01475D01*
X0041865Y0148167D02*
Y0147667D01*
X0042032Y01475D01*
X0042198Y0147667D01*
X0042365Y01475D01*
X0042532Y0147667D01*
Y0148167D01*
X0026866Y01485D02*
X00267Y0148666D01*
X0026367D01*
X00262Y01485D01*
Y0147833D01*
X0026367Y0147667D01*
X00267D01*
X0026866Y0147833D01*
X0027366Y0147667D02*
X00277D01*
X0027866Y0147833D01*
Y0148167D01*
X00277Y0148333D01*
X0027366D01*
X00272Y0148167D01*
Y0147833D01*
X0027366Y0147667D01*
X0028199Y0148333D02*
X0028533Y0147667D01*
X0028866Y0148333D01*
X0029699Y0147667D02*
X0029366D01*
X0029199Y0147833D01*
Y0148167D01*
X0029366Y0148333D01*
X0029699D01*
X0029865Y0148167D01*
Y0148D01*
X0029199D01*
X0030199Y0148333D02*
Y0147667D01*
Y0148D01*
X0030365Y0148167D01*
X0030532Y0148333D01*
X0030699D01*
X0031198Y0147667D02*
X0031532D01*
X0031365D01*
Y0148666D01*
X0031198D01*
X0032198Y0148333D02*
X0032531D01*
X0032698Y0148167D01*
Y0147667D01*
X0032198D01*
X0032031Y0147833D01*
X0032198Y0148D01*
X0032698D01*
X0033031Y0148333D02*
Y0147833D01*
X0033198Y0147667D01*
X0033698D01*
Y01475D01*
X0033531Y0147334D01*
X0033364D01*
X0033698Y0147667D02*
Y0148333D01*
X0026125Y01647D02*
Y01637D01*
X0026625D01*
X0026791Y0163867D01*
Y0164533D01*
X0026625Y01647D01*
X0026125D01*
X0027291Y0164367D02*
X0027625D01*
X0027791Y01642D01*
Y01637D01*
X0027291D01*
X0027125Y0163867D01*
X0027291Y0164033D01*
X0027791D01*
X0028291Y0164533D02*
Y0164367D01*
X0028124D01*
X0028458D01*
X0028291D01*
Y0163867D01*
X0028458Y01637D01*
X0029457D02*
X0029124D01*
X0028957Y0163867D01*
Y01642D01*
X0029124Y0164367D01*
X0029457D01*
X0029624Y01642D01*
Y0164033D01*
X0028957D01*
X0029957Y0164367D02*
X0030124D01*
Y01642D01*
X0029957D01*
Y0164367D01*
Y0163867D02*
X0030124D01*
Y01637D01*
X0029957D01*
Y0163867D01*
X0037866Y0144333D02*
X00377Y01445D01*
X0037367D01*
X00372Y0144333D01*
Y0143667D01*
X0037367Y01435D01*
X00377D01*
X0037866Y0143667D01*
X00382Y01445D02*
Y01435D01*
Y0144D01*
X0038366Y0144167D01*
X00387D01*
X0038866Y0144D01*
Y01435D01*
X0039699D02*
X0039366D01*
X0039199Y0143667D01*
Y0144D01*
X0039366Y0144167D01*
X0039699D01*
X0039866Y0144D01*
Y0143833D01*
X0039199D01*
X0041199Y01435D02*
Y01445D01*
X0041865Y01435D01*
Y01445D01*
X0042198Y01435D02*
X0042532D01*
X0042365D01*
Y0144167D01*
X0042198D01*
X0043031Y01435D02*
X0043698Y0144167D01*
X0044031Y01435D02*
Y0144167D01*
X0044364Y01445D01*
X0044698Y0144167D01*
Y01435D01*
Y0144D01*
X0044031D01*
X0045031Y0144167D02*
Y0143667D01*
X0045197Y01435D01*
X0045697D01*
Y0144167D01*
X004703Y01435D02*
X004753D01*
X0047697Y0143667D01*
X004753Y0143833D01*
X0047197D01*
X004703Y0144D01*
X0047197Y0144167D01*
X0047697D01*
X004853Y01435D02*
X0048196D01*
X004803Y0143667D01*
Y0144D01*
X0048196Y0144167D01*
X004853D01*
X0048696Y0144D01*
Y0143833D01*
X004803D01*
X004903Y01435D02*
X0049363D01*
X0049196D01*
Y01445D01*
X004903D01*
X0050362Y01435D02*
X0050029D01*
X0049863Y0143667D01*
Y0144D01*
X0050029Y0144167D01*
X0050362D01*
X0050529Y0144D01*
Y0143833D01*
X0049863D01*
X0051529Y0144167D02*
X0051029D01*
X0050862Y0144D01*
Y0143667D01*
X0051029Y01435D01*
X0051529D01*
X0052029Y0144333D02*
Y0144167D01*
X0051862D01*
X0052195D01*
X0052029D01*
Y0143667D01*
X0052195Y01435D01*
X0052695D02*
X0053028D01*
X0052862D01*
Y0144167D01*
X0052695D01*
X0053528D02*
X0053861Y01435D01*
X0054195Y0144167D01*
X0055028Y01435D02*
X0054694D01*
X0054528Y0143667D01*
Y0144D01*
X0054694Y0144167D01*
X0055028D01*
X0055194Y0144D01*
Y0143833D01*
X0054528D01*
X005686Y01435D02*
X0056527Y0143833D01*
Y0144167D01*
X005686Y01445D01*
X0058027D02*
X005736D01*
Y01435D01*
X0058027D01*
X005736Y0144D02*
X0057693D01*
X005836Y01435D02*
Y01445D01*
X0059026Y01435D01*
Y01445D01*
X005936D02*
X0059693D01*
X0059526D01*
Y01435D01*
X005936D01*
X0059693D01*
X0060859Y0144333D02*
X0060692Y01445D01*
X0060359D01*
X0060193Y0144333D01*
Y0143667D01*
X0060359Y01435D01*
X0060692D01*
X0060859Y0143667D01*
Y0144D01*
X0060526D01*
X0061192Y01435D02*
X0061525Y0143833D01*
Y0144167D01*
X0061192Y01445D01*
X0034125Y0162367D02*
X0034458Y01617D01*
X0034791Y0162367D01*
X0035125Y01617D02*
X0035458D01*
X0035291D01*
Y01627D01*
X0035125Y0162533D01*
X0035958Y01617D02*
Y0161867D01*
X0036124D01*
Y01617D01*
X0035958D01*
X0036791Y0162533D02*
X0036957Y01627D01*
X0037291D01*
X0037457Y0162533D01*
Y0161867D01*
X0037291Y01617D01*
X0036957D01*
X0036791Y0161867D01*
Y0162533D01*
X0026866Y0144333D02*
X00267Y01445D01*
X0026367D01*
X00262Y0144333D01*
Y0143667D01*
X0026367Y01435D01*
X00267D01*
X0026866Y0143667D01*
X00272Y0144167D02*
Y0143667D01*
X0027366Y01435D01*
X0027866D01*
Y0144167D01*
X0029366Y01435D02*
Y0144333D01*
Y0144D01*
X0029199D01*
X0029532D01*
X0029366D01*
Y0144333D01*
X0029532Y01445D01*
X0030032Y01435D02*
X0030365D01*
X0030199D01*
Y0144167D01*
X0030032D01*
X0030865Y01435D02*
Y0144167D01*
X0031365D01*
X0031532Y0144D01*
Y01435D01*
X0031865D02*
X0032198D01*
X0032031D01*
Y0144167D01*
X0031865D01*
X0032698Y01435D02*
X0033198D01*
X0033364Y0143667D01*
X0033198Y0143833D01*
X0032865D01*
X0032698Y0144D01*
X0032865Y0144167D01*
X0033364D01*
X0033698Y01445D02*
Y01435D01*
Y0144D01*
X0033864Y0144167D01*
X0034197D01*
X0034364Y0144D01*
Y01435D01*
X0034697Y0144167D02*
X0034864D01*
Y0144D01*
X0034697D01*
Y0144167D01*
Y0143667D02*
X0034864D01*
Y01435D01*
X0034697D01*
Y0143667D01*
X0031125Y0164533D02*
X0031292Y01647D01*
X0031625D01*
X0031791Y0164533D01*
Y0163867D01*
X0031625Y01637D01*
X0031292D01*
X0031125Y0163867D01*
Y0164533D01*
X0032625Y01637D02*
Y01647D01*
X0032125Y01642D01*
X0032791D01*
X0033124Y01637D02*
Y0163867D01*
X0033291D01*
Y01637D01*
X0033124D01*
X0033957Y0164533D02*
X0034124Y01647D01*
X0034457D01*
X0034624Y0164533D01*
Y0163867D01*
X0034457Y01637D01*
X0034124D01*
X0033957Y0163867D01*
Y0164533D01*
X0034957Y01647D02*
X0035624D01*
Y0164533D01*
X0034957Y0163867D01*
Y01637D01*
X0035957D02*
Y0163867D01*
X0036123D01*
Y01637D01*
X0035957D01*
X0037456D02*
X003679D01*
X0037456Y0164367D01*
Y0164533D01*
X003729Y01647D01*
X0036956D01*
X003679Y0164533D01*
X003779D02*
X0037956Y01647D01*
X0038289D01*
X0038456Y0164533D01*
Y0163867D01*
X0038289Y01637D01*
X0037956D01*
X003779Y0163867D01*
Y0164533D01*
X0039456Y01637D02*
X0038789D01*
X0039456Y0164367D01*
Y0164533D01*
X0039289Y01647D01*
X0038956D01*
X0038789Y0164533D01*
X0039789D02*
X0039955Y01647D01*
X0040289D01*
X0040455Y0164533D01*
Y0164367D01*
X0040289Y01642D01*
X0040122D01*
X0040289D01*
X0040455Y0164033D01*
Y0163867D01*
X0040289Y01637D01*
X0039955D01*
X0039789Y0163867D01*
X0026125Y01627D02*
Y0162033D01*
X0026458Y01617D01*
X0026791Y0162033D01*
Y01627D01*
X0027625Y01617D02*
X0027291D01*
X0027125Y0161867D01*
Y01622D01*
X0027291Y0162367D01*
X0027625D01*
X0027791Y01622D01*
Y0162033D01*
X0027125D01*
X0028124Y0162367D02*
Y01617D01*
Y0162033D01*
X0028291Y01622D01*
X0028458Y0162367D01*
X0028624D01*
X0029124Y01617D02*
X0029624D01*
X002979Y0161867D01*
X0029624Y0162033D01*
X0029291D01*
X0029124Y01622D01*
X0029291Y0162367D01*
X002979D01*
X0030124Y01617D02*
X0030457D01*
X003029D01*
Y0162367D01*
X0030124D01*
X0031123Y01617D02*
X0031457D01*
X0031623Y0161867D01*
Y01622D01*
X0031457Y0162367D01*
X0031123D01*
X0030957Y01622D01*
Y0161867D01*
X0031123Y01617D01*
X0031956D02*
Y0162367D01*
X0032456D01*
X0032623Y01622D01*
Y01617D01*
X0032956Y0162367D02*
X0033123D01*
Y01622D01*
X0032956D01*
Y0162367D01*
Y0161867D02*
X0033123D01*
Y01617D01*
X0032956D01*
Y0161867D01*
X0026866Y0146333D02*
X00267Y01465D01*
X0026367D01*
X00262Y0146333D01*
Y0146167D01*
X0026367Y0146D01*
X00267D01*
X0026866Y0145833D01*
Y0145667D01*
X00267Y01455D01*
X0026367D01*
X00262Y0145667D01*
X00272Y01455D02*
X0027533D01*
X0027366D01*
Y0146167D01*
X00272D01*
X0028033Y01455D02*
X0028366D01*
X0028199D01*
Y01465D01*
X0028033D01*
X0028866Y01455D02*
Y01465D01*
Y0145833D02*
X0029366Y0146167D01*
X0028866Y0145833D02*
X0029366Y01455D01*
X0029865D02*
X0030365D01*
X0030532Y0145667D01*
X0030365Y0145833D01*
X0030032D01*
X0029865Y0146D01*
X0030032Y0146167D01*
X0030532D01*
X0031532D02*
X0031032D01*
X0030865Y0146D01*
Y0145667D01*
X0031032Y01455D01*
X0031532D01*
X0031865Y0146167D02*
Y01455D01*
Y0145833D01*
X0032031Y0146D01*
X0032198Y0146167D01*
X0032365D01*
X0033364Y01455D02*
X0033031D01*
X0032865Y0145667D01*
Y0146D01*
X0033031Y0146167D01*
X0033364D01*
X0033531Y0146D01*
Y0145833D01*
X0032865D01*
X0034364Y01455D02*
X0034031D01*
X0033864Y0145667D01*
Y0146D01*
X0034031Y0146167D01*
X0034364D01*
X0034531Y0146D01*
Y0145833D01*
X0033864D01*
X0034864Y01455D02*
Y0146167D01*
X0035364D01*
X003553Y0146D01*
Y01455D01*
X0035864Y0146167D02*
X003603D01*
Y0146D01*
X0035864D01*
Y0146167D01*
Y0145667D02*
X003603D01*
Y01455D01*
X0035864D01*
Y0145667D01*
X0037125Y01467D02*
Y01457D01*
X0037458Y0146033D01*
X0037791Y01457D01*
Y01467D01*
X0038125D02*
Y01457D01*
Y01462D01*
X0038791D01*
Y01467D01*
Y01457D01*
X0039124Y01467D02*
X0039458D01*
X0039291D01*
Y01457D01*
X0039124D01*
X0039458D01*
X0039957Y01467D02*
X0040624D01*
X0040291D01*
Y01457D01*
X0041624Y01467D02*
X0040957D01*
Y01457D01*
X0041624D01*
X0040957Y01462D02*
X004129D01*
D13*
X0010568Y0003572D02*
X0010035D01*
Y0003172D01*
X0010302D01*
X0010035D01*
Y0002772D01*
X0010835D02*
Y0003572D01*
X0011235D01*
X0011368Y0003438D01*
Y0003172D01*
X0011235Y0003039D01*
X0010835D01*
X0011101D02*
X0011368Y0002772D01*
X0012034D02*
Y0003572D01*
X0011634Y0003172D01*
X0012168D01*
X0013767Y0003438D02*
X0013634Y0003572D01*
X0013367D01*
X0013234Y0003438D01*
Y0003305D01*
X0013367Y0003172D01*
X0013634D01*
X0013767Y0003039D01*
Y0002905D01*
X0013634Y0002772D01*
X0013367D01*
X0013234Y0002905D01*
X0014034Y0003572D02*
X0014567D01*
X00143D01*
Y0002772D01*
X0014833Y0003572D02*
X00151D01*
X0014967D01*
Y0002772D01*
X0014833D01*
X00151D01*
X0016033Y0003572D02*
X00155D01*
Y0003172D01*
X0015766D01*
X00155D01*
Y0002772D01*
X0016833Y0003572D02*
X00163D01*
Y0003172D01*
X0016566D01*
X00163D01*
Y0002772D01*
X0017633Y0003572D02*
X0017099D01*
Y0002772D01*
X0017633D01*
X0017099Y0003172D02*
X0017366D01*
X0017899Y0002772D02*
Y0003572D01*
X0018432Y0002772D01*
Y0003572D01*
X0019232D02*
X0018699D01*
Y0002772D01*
X0019232D01*
X0018699Y0003172D02*
X0018965D01*
X0019499Y0002772D02*
Y0003572D01*
X0019898D01*
X0020032Y0003438D01*
Y0003172D01*
X0019898Y0003039D01*
X0019499D01*
X0019765D02*
X0020032Y0002772D01*
X0010035Y0002228D02*
X0010568D01*
X0010302D01*
Y0001428D01*
X0011235Y0002228D02*
X0010968D01*
X0010835Y0002095D01*
Y0001562D01*
X0010968Y0001428D01*
X0011235D01*
X0011368Y0001562D01*
Y0002095D01*
X0011235Y0002228D01*
X0011634Y0001428D02*
Y0002228D01*
X0012034D01*
X0012168Y0002095D01*
Y0001828D01*
X0012034Y0001695D01*
X0011634D01*
X0013767Y0002095D02*
X0013634Y0002228D01*
X0013367D01*
X0013234Y0002095D01*
Y0001961D01*
X0013367Y0001828D01*
X0013634D01*
X0013767Y0001695D01*
Y0001562D01*
X0013634Y0001428D01*
X0013367D01*
X0013234Y0001562D01*
X0014034Y0002228D02*
X00143D01*
X0014167D01*
Y0001428D01*
X0014034D01*
X00143D01*
X00147Y0002228D02*
Y0001428D01*
X00151D01*
X0015233Y0001562D01*
Y0002095D01*
X00151Y0002228D01*
X00147D01*
X0016033D02*
X00155D01*
Y0001428D01*
X0016033D01*
X00155Y0001828D02*
X0015766D01*
X0010568Y0168547D02*
X0010035D01*
Y0168147D01*
X0010302D01*
X0010035D01*
Y0167747D01*
X0010835D02*
Y0168547D01*
X0011235D01*
X0011368Y0168413D01*
Y0168147D01*
X0011235Y0168014D01*
X0010835D01*
X0011101D02*
X0011368Y0167747D01*
X0012034D02*
Y0168547D01*
X0011634Y0168147D01*
X0012168D01*
X0013767Y0168413D02*
X0013634Y0168547D01*
X0013367D01*
X0013234Y0168413D01*
Y016828D01*
X0013367Y0168147D01*
X0013634D01*
X0013767Y0168014D01*
Y016788D01*
X0013634Y0167747D01*
X0013367D01*
X0013234Y016788D01*
X0014034Y0168547D02*
X0014567D01*
X00143D01*
Y0167747D01*
X0014833Y0168547D02*
X00151D01*
X0014967D01*
Y0167747D01*
X0014833D01*
X00151D01*
X0016033Y0168547D02*
X00155D01*
Y0168147D01*
X0015766D01*
X00155D01*
Y0167747D01*
X0016833Y0168547D02*
X00163D01*
Y0168147D01*
X0016566D01*
X00163D01*
Y0167747D01*
X0017633Y0168547D02*
X0017099D01*
Y0167747D01*
X0017633D01*
X0017099Y0168147D02*
X0017366D01*
X0017899Y0167747D02*
Y0168547D01*
X0018432Y0167747D01*
Y0168547D01*
X0019232D02*
X0018699D01*
Y0167747D01*
X0019232D01*
X0018699Y0168147D02*
X0018965D01*
X0019499Y0167747D02*
Y0168547D01*
X0019898D01*
X0020032Y0168413D01*
Y0168147D01*
X0019898Y0168014D01*
X0019499D01*
X0019765D02*
X0020032Y0167747D01*
X0010035Y0167203D02*
Y0166403D01*
X0010435D01*
X0010568Y0166537D01*
Y016667D01*
X0010435Y0166803D01*
X0010035D01*
X0010435D01*
X0010568Y0166936D01*
Y016707D01*
X0010435Y0167203D01*
X0010035D01*
X0011235D02*
X0010968D01*
X0010835Y016707D01*
Y0166537D01*
X0010968Y0166403D01*
X0011235D01*
X0011368Y0166537D01*
Y016707D01*
X0011235Y0167203D01*
X0011634D02*
X0012168D01*
X0011901D01*
Y0166403D01*
X0012434Y0167203D02*
X0012967D01*
X0012701D01*
Y0166403D01*
X0013634Y0167203D02*
X0013367D01*
X0013234Y016707D01*
Y0166537D01*
X0013367Y0166403D01*
X0013634D01*
X0013767Y0166537D01*
Y016707D01*
X0013634Y0167203D01*
X0014034Y0166403D02*
Y0167203D01*
X00143Y0166936D01*
X0014567Y0167203D01*
Y0166403D01*
X0016166Y016707D02*
X0016033Y0167203D01*
X0015766D01*
X0015633Y016707D01*
Y0166936D01*
X0015766Y0166803D01*
X0016033D01*
X0016166Y016667D01*
Y0166537D01*
X0016033Y0166403D01*
X0015766D01*
X0015633Y0166537D01*
X0016433Y0167203D02*
X0016699D01*
X0016566D01*
Y0166403D01*
X0016433D01*
X0016699D01*
X0017099Y0167203D02*
Y0166403D01*
X0017499D01*
X0017633Y0166537D01*
Y016707D01*
X0017499Y0167203D01*
X0017099D01*
X0018432D02*
X0017899D01*
Y0166403D01*
X0018432D01*
X0017899Y0166803D02*
X0018166D01*
D23*
X0078476Y0166D02*
X0241248D01*
X0078476Y0169048D02*
X0241248D01*
X0078476Y0132472D02*
Y0169048D01*
Y0132472D02*
X0088888D01*
X0078476Y013552D02*
X0088888D01*
X0078476Y0138568D02*
X0088888D01*
X0078476Y0141616D02*
X0088888D01*
X0078476Y0144664D02*
X0088888D01*
X0078476Y0147712D02*
X0088888D01*
X0078476Y015076D02*
X0088888D01*
X0078476Y0153808D02*
X0088888D01*
X0078476Y0156856D02*
X0088888D01*
X0078476Y0159904D02*
X0088888D01*
X0078476Y0162952D02*
X0088888D01*
Y0132472D02*
Y0169048D01*
Y0132472D02*
X0115296D01*
X0088888Y013552D02*
X0115296D01*
X0088888Y0138568D02*
X0115296D01*
X0088888Y0141616D02*
X0115296D01*
X0088888Y0144664D02*
X0115296D01*
X0088888Y0147712D02*
X0115296D01*
X0088888Y015076D02*
X0115296D01*
X0088888Y0153808D02*
X0115296D01*
X0088888Y0156856D02*
X0115296D01*
X0088888Y0159904D02*
X0115296D01*
X0088888Y0162952D02*
X0115296D01*
Y0132472D02*
Y0169048D01*
Y0132472D02*
X0137134D01*
X0115296Y013552D02*
X0137134D01*
X0115296Y0138568D02*
X0137134D01*
X0115296Y0141616D02*
X0137134D01*
X0115296Y0144664D02*
X0137134D01*
X0115296Y0147712D02*
X0137134D01*
X0115296Y015076D02*
X0137134D01*
X0115296Y0153808D02*
X0137134D01*
X0115296Y0156856D02*
X0137134D01*
X0115296Y0159904D02*
X0137134D01*
X0115296Y0162952D02*
X0137134D01*
Y0132472D02*
Y0169048D01*
Y0132472D02*
X015364D01*
X0137134Y013552D02*
X015364D01*
X0137134Y0138568D02*
X015364D01*
X0137134Y0141616D02*
X015364D01*
X0137134Y0144664D02*
X015364D01*
X0137134Y0147712D02*
X015364D01*
X0137134Y015076D02*
X015364D01*
X0137134Y0153808D02*
X015364D01*
X0137134Y0156856D02*
X015364D01*
X0137134Y0159904D02*
X015364D01*
X0137134Y0162952D02*
X015364D01*
Y0132472D02*
Y0169048D01*
Y0132472D02*
X0168115D01*
X015364Y013552D02*
X0168115D01*
X015364Y0138568D02*
X0168115D01*
X015364Y0141616D02*
X0168115D01*
X015364Y0144664D02*
X0168115D01*
X015364Y0147712D02*
X0168115D01*
X015364Y015076D02*
X0168115D01*
X015364Y0153808D02*
X0168115D01*
X015364Y0156856D02*
X0168115D01*
X015364Y0159904D02*
X0168115D01*
X015364Y0162952D02*
X0168115D01*
Y0132472D02*
Y0169048D01*
Y0132472D02*
X018005D01*
X0168115Y013552D02*
X018005D01*
X0168115Y0138568D02*
X018005D01*
X0168115Y0141616D02*
X018005D01*
X0168115Y0144664D02*
X018005D01*
X0168115Y0147712D02*
X018005D01*
X0168115Y015076D02*
X018005D01*
X0168115Y0153808D02*
X018005D01*
X0168115Y0156856D02*
X018005D01*
X0168115Y0159904D02*
X018005D01*
X0168115Y0162952D02*
X018005D01*
Y0132472D02*
Y0169048D01*
Y0132472D02*
X0206459D01*
X018005Y013552D02*
X0206459D01*
X018005Y0138568D02*
X0206459D01*
X018005Y0141616D02*
X0206459D01*
X018005Y0144664D02*
X0206459D01*
X018005Y0147712D02*
X0206459D01*
X018005Y015076D02*
X0206459D01*
X018005Y0153808D02*
X0206459D01*
X018005Y0156856D02*
X0206459D01*
X018005Y0159904D02*
X0206459D01*
X018005Y0162952D02*
X0206459D01*
Y0132472D02*
Y0169048D01*
Y0132472D02*
X021941D01*
X0206459Y013552D02*
X021941D01*
X0206459Y0138568D02*
X021941D01*
X0206459Y0141616D02*
X021941D01*
X0206459Y0144664D02*
X021941D01*
X0206459Y0147712D02*
X021941D01*
X0206459Y015076D02*
X021941D01*
X0206459Y0153808D02*
X021941D01*
X0206459Y0156856D02*
X021941D01*
X0206459Y0159904D02*
X021941D01*
X0206459Y0162952D02*
X021941D01*
Y0132472D02*
Y0169048D01*
Y0132472D02*
X0241248D01*
X021941Y013552D02*
X0241248D01*
X021941Y0138568D02*
X0241248D01*
X021941Y0141616D02*
X0241248D01*
X021941Y0144664D02*
X0241248D01*
X021941Y0147712D02*
X0241248D01*
X021941Y015076D02*
X0241248D01*
X021941Y0153808D02*
X0241248D01*
X021941Y0156856D02*
X0241248D01*
X021941Y0159904D02*
X0241248D01*
X021941Y0162952D02*
X0241248D01*
Y0132472D02*
Y0169048D01*
X0094753Y-0159565D02*
Y-0150998D01*
X0078476Y-0159565D02*
X0094753Y-0159565D01*
X0078476Y-0159565D02*
Y-0150998D01*
X0094753D01*
X0094753Y0123143D02*
X0094753Y-0150998D01*
X0078476D02*
X0094753D01*
X0078476Y0123143D02*
X0078476Y-0150998D01*
X0078476Y0123143D02*
X0094753D01*
X0078476Y0123143D02*
Y013171D01*
X0094753D01*
Y0123143D02*
Y013171D01*
X0078476Y0123143D02*
X0094753D01*
D24*
X0204935Y0132472D02*
X0206459Y0133996D01*
X0203411Y0132472D02*
X0206459Y013552D01*
X0201887Y0132472D02*
X0204935Y013552D01*
X0200363Y0132472D02*
X0203411Y013552D01*
X0198839Y0132472D02*
X0201887Y013552D01*
X0197315Y0132472D02*
X0200363Y013552D01*
X0195791Y0132472D02*
X0198839Y013552D01*
X0194267Y0132472D02*
X0197315Y013552D01*
X0192743Y0132472D02*
X0195791Y013552D01*
X0191219Y0132472D02*
X0194267Y013552D01*
X0189695Y0132472D02*
X0192743Y013552D01*
X0188171Y0132472D02*
X0191219Y013552D01*
X0186647Y0132472D02*
X0189695Y013552D01*
X0185123Y0132472D02*
X0188171Y013552D01*
X0183599Y0132472D02*
X0186647Y013552D01*
X0182075Y0132472D02*
X0185123Y013552D01*
X0180551Y0132472D02*
X0183599Y013552D01*
X018005Y0133495D02*
X0182075Y013552D01*
X018005Y0135019D02*
X0180551Y013552D01*
X0204935D02*
X0206459Y0137044D01*
X0203411Y013552D02*
X0206459Y0138568D01*
X0201887Y013552D02*
X0204935Y0138568D01*
X0200363Y013552D02*
X0203411Y0138568D01*
X0198839Y013552D02*
X0201887Y0138568D01*
X0197315Y013552D02*
X0200363Y0138568D01*
X0195791Y013552D02*
X0198839Y0138568D01*
X0194267Y013552D02*
X0197315Y0138568D01*
X0192743Y013552D02*
X0195791Y0138568D01*
X0191219Y013552D02*
X0194267Y0138568D01*
X0189695Y013552D02*
X0192743Y0138568D01*
X0188171Y013552D02*
X0191219Y0138568D01*
X0186647Y013552D02*
X0189695Y0138568D01*
X0185123Y013552D02*
X0188171Y0138568D01*
X0183599Y013552D02*
X0186647Y0138568D01*
X0182075Y013552D02*
X0185123Y0138568D01*
X0180551Y013552D02*
X0183599Y0138568D01*
X018005Y0136543D02*
X0182075Y0138568D01*
X018005Y0138067D02*
X0180551Y0138568D01*
X0204935D02*
X0206459Y0140092D01*
X0203411Y0138568D02*
X0206459Y0141616D01*
X0201887Y0138568D02*
X0204935Y0141616D01*
X0200363Y0138568D02*
X0203411Y0141616D01*
X0198839Y0138568D02*
X0201887Y0141616D01*
X0197315Y0138568D02*
X0200363Y0141616D01*
X0195791Y0138568D02*
X0198839Y0141616D01*
X0194267Y0138568D02*
X0197315Y0141616D01*
X0192743Y0138568D02*
X0195791Y0141616D01*
X0191219Y0138568D02*
X0194267Y0141616D01*
X0189695Y0138568D02*
X0192743Y0141616D01*
X0188171Y0138568D02*
X0191219Y0141616D01*
X0186647Y0138568D02*
X0189695Y0141616D01*
X0185123Y0138568D02*
X0188171Y0141616D01*
X0183599Y0138568D02*
X0186647Y0141616D01*
X0182075Y0138568D02*
X0185123Y0141616D01*
X0180551Y0138568D02*
X0183599Y0141616D01*
X018005Y0139591D02*
X0182075Y0141616D01*
X018005Y0141115D02*
X0180551Y0141616D01*
X0204935D02*
X0206459Y014314D01*
X0203411Y0141616D02*
X0206459Y0144664D01*
X0201887Y0141616D02*
X0204935Y0144664D01*
X0200363Y0141616D02*
X0203411Y0144664D01*
X0198839Y0141616D02*
X0201887Y0144664D01*
X0197315Y0141616D02*
X0200363Y0144664D01*
X0195791Y0141616D02*
X0198839Y0144664D01*
X0194267Y0141616D02*
X0197315Y0144664D01*
X0192743Y0141616D02*
X0195791Y0144664D01*
X0191219Y0141616D02*
X0194267Y0144664D01*
X0189695Y0141616D02*
X0192743Y0144664D01*
X0188171Y0141616D02*
X0191219Y0144664D01*
X0186647Y0141616D02*
X0189695Y0144664D01*
X0185123Y0141616D02*
X0188171Y0144664D01*
X0183599Y0141616D02*
X0186647Y0144664D01*
X0182075Y0141616D02*
X0185123Y0144664D01*
X0180551Y0141616D02*
X0183599Y0144664D01*
X018005Y0142639D02*
X0182075Y0144664D01*
X018005Y0144163D02*
X0180551Y0144664D01*
X0204935D02*
X0206459Y0146188D01*
X0203411Y0144664D02*
X0206459Y0147712D01*
X0201887Y0144664D02*
X0204935Y0147712D01*
X0200363Y0144664D02*
X0203411Y0147712D01*
X0198839Y0144664D02*
X0201887Y0147712D01*
X0197315Y0144664D02*
X0200363Y0147712D01*
X0195791Y0144664D02*
X0198839Y0147712D01*
X0194267Y0144664D02*
X0197315Y0147712D01*
X0192743Y0144664D02*
X0195791Y0147712D01*
X0191219Y0144664D02*
X0194267Y0147712D01*
X0189695Y0144664D02*
X0192743Y0147712D01*
X0188171Y0144664D02*
X0191219Y0147712D01*
X0186647Y0144664D02*
X0189695Y0147712D01*
X0185123Y0144664D02*
X0188171Y0147712D01*
X0183599Y0144664D02*
X0186647Y0147712D01*
X0182075Y0144664D02*
X0185123Y0147712D01*
X0180551Y0144664D02*
X0183599Y0147712D01*
X018005Y0145687D02*
X0182075Y0147712D01*
X018005Y0147211D02*
X0180551Y0147712D01*
X0204935D02*
X0206459Y0149236D01*
X0203411Y0147712D02*
X0206459Y015076D01*
X0201887Y0147712D02*
X0204935Y015076D01*
X0200363Y0147712D02*
X0203411Y015076D01*
X0198839Y0147712D02*
X0201887Y015076D01*
X0197315Y0147712D02*
X0200363Y015076D01*
X0195791Y0147712D02*
X0198839Y015076D01*
X0194267Y0147712D02*
X0197315Y015076D01*
X0192743Y0147712D02*
X0195791Y015076D01*
X0191219Y0147712D02*
X0194267Y015076D01*
X0189695Y0147712D02*
X0192743Y015076D01*
X0188171Y0147712D02*
X0191219Y015076D01*
X0186647Y0147712D02*
X0189695Y015076D01*
X0185123Y0147712D02*
X0188171Y015076D01*
X0183599Y0147712D02*
X0186647Y015076D01*
X0182075Y0147712D02*
X0185123Y015076D01*
X0180551Y0147712D02*
X0183599Y015076D01*
X018005Y0148735D02*
X0182075Y015076D01*
X018005Y0150259D02*
X0180551Y015076D01*
X0204935D02*
X0206459Y0152284D01*
X0203411Y015076D02*
X0206459Y0153808D01*
X0201887Y015076D02*
X0204935Y0153808D01*
X0200363Y015076D02*
X0203411Y0153808D01*
X0198839Y015076D02*
X0201887Y0153808D01*
X0197315Y015076D02*
X0200363Y0153808D01*
X0195791Y015076D02*
X0198839Y0153808D01*
X0194267Y015076D02*
X0197315Y0153808D01*
X0192743Y015076D02*
X0195791Y0153808D01*
X0191219Y015076D02*
X0194267Y0153808D01*
X0189695Y015076D02*
X0192743Y0153808D01*
X0188171Y015076D02*
X0191219Y0153808D01*
X0186647Y015076D02*
X0189695Y0153808D01*
X0185123Y015076D02*
X0188171Y0153808D01*
X0183599Y015076D02*
X0186647Y0153808D01*
X0182075Y015076D02*
X0185123Y0153808D01*
X0180551Y015076D02*
X0183599Y0153808D01*
X018005Y0151783D02*
X0182075Y0153808D01*
X018005Y0153307D02*
X0180551Y0153808D01*
X0204935D02*
X0206459Y0155332D01*
X0203411Y0153808D02*
X0206459Y0156856D01*
X0201887Y0153808D02*
X0204935Y0156856D01*
X0200363Y0153808D02*
X0203411Y0156856D01*
X0198839Y0153808D02*
X0201887Y0156856D01*
X0197315Y0153808D02*
X0200363Y0156856D01*
X0195791Y0153808D02*
X0198839Y0156856D01*
X0194267Y0153808D02*
X0197315Y0156856D01*
X0192743Y0153808D02*
X0195791Y0156856D01*
X0191219Y0153808D02*
X0194267Y0156856D01*
X0189695Y0153808D02*
X0192743Y0156856D01*
X0188171Y0153808D02*
X0191219Y0156856D01*
X0186647Y0153808D02*
X0189695Y0156856D01*
X0185123Y0153808D02*
X0188171Y0156856D01*
X0183599Y0153808D02*
X0186647Y0156856D01*
X0182075Y0153808D02*
X0185123Y0156856D01*
X0180551Y0153808D02*
X0183599Y0156856D01*
X018005Y0154831D02*
X0182075Y0156856D01*
X018005Y0156355D02*
X0180551Y0156856D01*
X0204935D02*
X0206459Y015838D01*
X0203411Y0156856D02*
X0206459Y0159904D01*
X0201887Y0156856D02*
X0204935Y0159904D01*
X0200363Y0156856D02*
X0203411Y0159904D01*
X0198839Y0156856D02*
X0201887Y0159904D01*
X0197315Y0156856D02*
X0200363Y0159904D01*
X0195791Y0156856D02*
X0198839Y0159904D01*
X0194267Y0156856D02*
X0197315Y0159904D01*
X0192743Y0156856D02*
X0195791Y0159904D01*
X0191219Y0156856D02*
X0194267Y0159904D01*
X0189695Y0156856D02*
X0192743Y0159904D01*
X0188171Y0156856D02*
X0191219Y0159904D01*
X0186647Y0156856D02*
X0189695Y0159904D01*
X0185123Y0156856D02*
X0188171Y0159904D01*
X0183599Y0156856D02*
X0186647Y0159904D01*
X0182075Y0156856D02*
X0185123Y0159904D01*
X0180551Y0156856D02*
X0183599Y0159904D01*
X018005Y0157879D02*
X0182075Y0159904D01*
X018005Y0159403D02*
X0180551Y0159904D01*
X0204935D02*
X0206459Y0161428D01*
X0203411Y0159904D02*
X0206459Y0162952D01*
X0201887Y0159904D02*
X0204935Y0162952D01*
X0200363Y0159904D02*
X0203411Y0162952D01*
X0198839Y0159904D02*
X0201887Y0162952D01*
X0197315Y0159904D02*
X0200363Y0162952D01*
X0195791Y0159904D02*
X0198839Y0162952D01*
X0194267Y0159904D02*
X0197315Y0162952D01*
X0192743Y0159904D02*
X0195791Y0162952D01*
X0191219Y0159904D02*
X0194267Y0162952D01*
X0189695Y0159904D02*
X0192743Y0162952D01*
X0188171Y0159904D02*
X0191219Y0162952D01*
X0186647Y0159904D02*
X0189695Y0162952D01*
X0185123Y0159904D02*
X0188171Y0162952D01*
X0183599Y0159904D02*
X0186647Y0162952D01*
X0182075Y0159904D02*
X0185123Y0162952D01*
X0180551Y0159904D02*
X0183599Y0162952D01*
X018005Y0160927D02*
X0182075Y0162952D01*
X018005Y0162451D02*
X0180551Y0162952D01*
X0206459Y0137044D02*
X0207983Y013552D01*
X0206459Y0138568D02*
X0209507Y013552D01*
X0207983Y0138568D02*
X0211031Y013552D01*
X0209507Y0138568D02*
X0212555Y013552D01*
X0211031Y0138568D02*
X0214079Y013552D01*
X0212555Y0138568D02*
X0215603Y013552D01*
X0214079Y0138568D02*
X0217127Y013552D01*
X0215603Y0138568D02*
X0218651Y013552D01*
X0217127Y0138568D02*
X021941Y0136285D01*
X0218651Y0138568D02*
X021941Y0137809D01*
X0206459Y0140092D02*
X0207983Y0138568D01*
X0206459Y0141616D02*
X0209507Y0138568D01*
X0207983Y0141616D02*
X0211031Y0138568D01*
X0209507Y0141616D02*
X0212555Y0138568D01*
X0211031Y0141616D02*
X0214079Y0138568D01*
X0212555Y0141616D02*
X0215603Y0138568D01*
X0214079Y0141616D02*
X0217127Y0138568D01*
X0215603Y0141616D02*
X0218651Y0138568D01*
X0217127Y0141616D02*
X021941Y0139333D01*
X0218651Y0141616D02*
X021941Y0140857D01*
X0206459Y014314D02*
X0207983Y0141616D01*
X0206459Y0144664D02*
X0209507Y0141616D01*
X0207983Y0144664D02*
X0211031Y0141616D01*
X0209507Y0144664D02*
X0212555Y0141616D01*
X0211031Y0144664D02*
X0214079Y0141616D01*
X0212555Y0144664D02*
X0215603Y0141616D01*
X0214079Y0144664D02*
X0217127Y0141616D01*
X0215603Y0144664D02*
X0218651Y0141616D01*
X0217127Y0144664D02*
X021941Y0142381D01*
X0218651Y0144664D02*
X021941Y0143905D01*
X0206459Y0146188D02*
X0207983Y0144664D01*
X0206459Y0147712D02*
X0209507Y0144664D01*
X0207983Y0147712D02*
X0211031Y0144664D01*
X0209507Y0147712D02*
X0212555Y0144664D01*
X0211031Y0147712D02*
X0214079Y0144664D01*
X0212555Y0147712D02*
X0215603Y0144664D01*
X0214079Y0147712D02*
X0217127Y0144664D01*
X0215603Y0147712D02*
X0218651Y0144664D01*
X0217127Y0147712D02*
X021941Y0145429D01*
X0218651Y0147712D02*
X021941Y0146953D01*
X0206459Y0149236D02*
X0207983Y0147712D01*
X0206459Y015076D02*
X0209507Y0147712D01*
X0207983Y015076D02*
X0211031Y0147712D01*
X0209507Y015076D02*
X0212555Y0147712D01*
X0211031Y015076D02*
X0214079Y0147712D01*
X0212555Y015076D02*
X0215603Y0147712D01*
X0214079Y015076D02*
X0217127Y0147712D01*
X0215603Y015076D02*
X0218651Y0147712D01*
X0217127Y015076D02*
X021941Y0148477D01*
X0218651Y015076D02*
X021941Y0150001D01*
X0206459Y0152284D02*
X0207983Y015076D01*
X0206459Y0153808D02*
X0209507Y015076D01*
X0207983Y0153808D02*
X0211031Y015076D01*
X0209507Y0153808D02*
X0212555Y015076D01*
X0211031Y0153808D02*
X0214079Y015076D01*
X0212555Y0153808D02*
X0215603Y015076D01*
X0214079Y0153808D02*
X0217127Y015076D01*
X0215603Y0153808D02*
X0218651Y015076D01*
X0217127Y0153808D02*
X021941Y0151525D01*
X0218651Y0153808D02*
X021941Y0153049D01*
X0206459Y0155332D02*
X0207983Y0153808D01*
X0206459Y0156856D02*
X0209507Y0153808D01*
X0207983Y0156856D02*
X0211031Y0153808D01*
X0209507Y0156856D02*
X0212555Y0153808D01*
X0211031Y0156856D02*
X0214079Y0153808D01*
X0212555Y0156856D02*
X0215603Y0153808D01*
X0214079Y0156856D02*
X0217127Y0153808D01*
X0215603Y0156856D02*
X0218651Y0153808D01*
X0217127Y0156856D02*
X021941Y0154573D01*
X0218651Y0156856D02*
X021941Y0156097D01*
X0206459Y015838D02*
X0207983Y0156856D01*
X0206459Y0159904D02*
X0209507Y0156856D01*
X0207983Y0159904D02*
X0211031Y0156856D01*
X0209507Y0159904D02*
X0212555Y0156856D01*
X0211031Y0159904D02*
X0214079Y0156856D01*
X0212555Y0159904D02*
X0215603Y0156856D01*
X0214079Y0159904D02*
X0217127Y0156856D01*
X0215603Y0159904D02*
X0218651Y0156856D01*
X0217127Y0159904D02*
X021941Y0157621D01*
X0218651Y0159904D02*
X021941Y0159145D01*
X0206459Y0161428D02*
X0207983Y0159904D01*
X0206459Y0162952D02*
X0209507Y0159904D01*
X0207983Y0162952D02*
X0211031Y0159904D01*
X0209507Y0162952D02*
X0212555Y0159904D01*
X0211031Y0162952D02*
X0214079Y0159904D01*
X0212555Y0162952D02*
X0215603Y0159904D01*
X0214079Y0162952D02*
X0217127Y0159904D01*
X0215603Y0162952D02*
X0218651Y0159904D01*
X0217127Y0162952D02*
X021941Y0160669D01*
X0218651Y0162952D02*
X021941Y0162193D01*
Y0137044D02*
X0241248D01*
X021941Y0140092D02*
X0241248D01*
X021941Y014314D02*
X0241248D01*
X021941Y0146188D02*
X0241248D01*
X021941Y0149236D02*
X0241248D01*
X021941Y0152284D02*
X0241248D01*
X021941Y0155332D02*
X0241248D01*
X021941Y015838D02*
X0241248D01*
X021941Y0161428D02*
X0241248D01*
X021941Y0164476D02*
X0241248D01*
X0078476Y-0158055D02*
X0094753Y-0158027D01*
X0078476Y-0156531D02*
X0094753Y-0156503D01*
X0078476Y-0155007D02*
X0094753Y-0154979D01*
X0078476Y-0153483D02*
X0094753Y-0153455D01*
X0078476Y-0151959D02*
X0094753Y-0151931D01*
X0078476Y-0149474D02*
X0080014Y-0151012D01*
X0078476Y-014795D02*
X0081538Y-0151012D01*
X0078476Y-0146426D02*
X0083062Y-0151012D01*
X0078476Y-0144902D02*
X0084586Y-0151012D01*
X0078476Y-0143378D02*
X008611Y-0151012D01*
X0078476Y-0141854D02*
X0087634Y-0151012D01*
X0078476Y-014033D02*
X0089158Y-0151012D01*
X0078476Y-0138806D02*
X0090682Y-0151012D01*
X0078476Y-0137282D02*
X0092206Y-0151012D01*
X0078476Y-0135758D02*
X009373Y-0151012D01*
X0078476Y-0134234D02*
X0094753Y-0150511D01*
X0078476Y-013271D02*
X0094753Y-0148987D01*
X0078476Y-0131186D02*
X0094753Y-0147463D01*
X0078476Y-0129662D02*
X0094753Y-0145939D01*
X0078476Y-0128138D02*
X0094753Y-0144415D01*
X0078476Y-0126614D02*
X0094753Y-0142891D01*
X0078476Y-012509D02*
X0094753Y-0141367D01*
X0078476Y-0123566D02*
X0094753Y-0139843D01*
X0078476Y-0122042D02*
X0094753Y-0138319D01*
X0078476Y-0120518D02*
X0094753Y-0136795D01*
X0078476Y-0118994D02*
X0094753Y-0135271D01*
X0078476Y-011747D02*
X0094753Y-0133747D01*
X0078476Y-0115946D02*
X0094753Y-0132223D01*
X0078476Y-0114422D02*
X0094753Y-0130699D01*
X0078476Y-0112898D02*
X0094753Y-0129175D01*
X0078476Y-0111374D02*
X0094753Y-0127651D01*
X0078476Y-010985D02*
X0094753Y-0126127D01*
X0078476Y-0108326D02*
X0094753Y-0124603D01*
X0078476Y-0106802D02*
X0094753Y-0123079D01*
X0078476Y-0105278D02*
X0094753Y-0121555D01*
X0078476Y-0103754D02*
X0094753Y-0120031D01*
X0078476Y-010223D02*
X0094753Y-0118507D01*
X0078476Y-0100706D02*
X0094753Y-0116983D01*
X0078476Y-0099182D02*
X0094753Y-0115459D01*
X0078476Y-0097658D02*
X0094753Y-0113935D01*
X0078476Y-0096134D02*
X0094753Y-0112411D01*
X0078476Y-009461D02*
X0094753Y-0110887D01*
X0078476Y-0093086D02*
X0094753Y-0109363D01*
X0078476Y-0091562D02*
X0094753Y-0107839D01*
X0078476Y-0090038D02*
X0094753Y-0106315D01*
X0078476Y-0088514D02*
X0094753Y-0104791D01*
X0078476Y-008699D02*
X0094753Y-0103267D01*
X0078476Y-0085466D02*
X0094753Y-0101743D01*
X0078476Y-0083942D02*
X0094753Y-0100219D01*
X0078476Y-0082418D02*
X0094753Y-0098695D01*
X0078476Y-0080894D02*
X0094753Y-0097171D01*
X0078476Y-007937D02*
X0094753Y-0095647D01*
X0078476Y-0077846D02*
X0094753Y-0094123D01*
X0078476Y-0076322D02*
X0094753Y-0092599D01*
X0078476Y-0074798D02*
X0094753Y-0091075D01*
X0078476Y-0073274D02*
X0094753Y-0089551D01*
X0078476Y-007175D02*
X0094753Y-0088027D01*
X0078476Y-0070226D02*
X0094753Y-0086503D01*
X0078476Y-0068702D02*
X0094753Y-0084979D01*
X0078476Y-0067178D02*
X0094753Y-0083455D01*
X0078476Y-0065654D02*
X0094753Y-0081931D01*
X0078476Y-006413D02*
X0094753Y-0080407D01*
X0078476Y-0062606D02*
X0094753Y-0078883D01*
X0078476Y-0061082D02*
X0094753Y-0077359D01*
X0078476Y-0059558D02*
X0094753Y-0075835D01*
X0078476Y-0058034D02*
X0094753Y-0074311D01*
X0078476Y-005651D02*
X0094753Y-0072787D01*
X0078476Y-0054986D02*
X0094753Y-0071263D01*
X0078476Y-0053462D02*
X0094753Y-0069739D01*
X0078476Y-0051938D02*
X0094753Y-0068215D01*
X0078476Y-0050414D02*
X0094753Y-0066691D01*
X0078476Y-004889D02*
X0094753Y-0065167D01*
X0078476Y-0047366D02*
X0094753Y-0063643D01*
X0078476Y-0045842D02*
X0094753Y-0062119D01*
X0078476Y-0044318D02*
X0094753Y-0060595D01*
X0078476Y-0042794D02*
X0094753Y-0059071D01*
X0078476Y-004127D02*
X0094753Y-0057547D01*
X0078476Y-0039746D02*
X0094753Y-0056023D01*
X0078476Y-0038222D02*
X0094753Y-0054499D01*
X0078476Y-0036698D02*
X0094753Y-0052975D01*
X0078476Y-0035174D02*
X0094753Y-0051451D01*
X0078476Y-003365D02*
X0094753Y-0049927D01*
X0078476Y-0032126D02*
X0094753Y-0048403D01*
X0078476Y-0030602D02*
X0094753Y-0046879D01*
X0078476Y-0029078D02*
X0094753Y-0045355D01*
X0078476Y-0027554D02*
X0094753Y-0043831D01*
X0078476Y-002603D02*
X0094753Y-0042307D01*
X0078476Y-0024506D02*
X0094753Y-0040783D01*
X0078476Y-0022982D02*
X0094753Y-0039259D01*
X0078476Y-0021458D02*
X0094753Y-0037735D01*
X0078476Y-0019934D02*
X0094753Y-0036211D01*
X0078476Y-001841D02*
X0094753Y-0034687D01*
X0078476Y-0016886D02*
X0094753Y-0033163D01*
X0078476Y-0015362D02*
X0094753Y-0031639D01*
X0078476Y-0013838D02*
X0094753Y-0030115D01*
X0078476Y-0012314D02*
X0094753Y-0028591D01*
X0078476Y-001079D02*
X0094753Y-0027067D01*
X0078476Y-0009266D02*
X0094753Y-0025543D01*
X0078476Y-0007742D02*
X0094753Y-0024019D01*
X0078476Y-0006218D02*
X0094753Y-0022495D01*
X0078476Y-0004694D02*
X0094753Y-0020971D01*
X0078476Y-000317D02*
X0094753Y-0019447D01*
X0078476Y-0001646D02*
X0094753Y-0017923D01*
X0078476Y-0000122D02*
X0094753Y-0016399D01*
X0078476Y0001402D02*
X0094753Y-0014875D01*
X0078476Y0002926D02*
X0094753Y-0013351D01*
X0078476Y000445D02*
X0094753Y-0011827D01*
X0078476Y0005974D02*
X0094753Y-0010303D01*
X0078476Y0007498D02*
X0094753Y-0008779D01*
X0078476Y0009022D02*
X0094753Y-0007255D01*
X0078476Y0010546D02*
X0094753Y-0005731D01*
X0078476Y001207D02*
X0094753Y-0004207D01*
X0078476Y0013594D02*
X0094753Y-0002683D01*
X0078476Y0015118D02*
X0094753Y-0001159D01*
X0078476Y0016642D02*
X0094753Y0000365D01*
X0078476Y0018166D02*
X0094753Y0001889D01*
X0078476Y001969D02*
X0094753Y0003413D01*
X0078476Y0021214D02*
X0094753Y0004937D01*
X0078476Y0022738D02*
X0094753Y0006461D01*
X0078476Y0024262D02*
X0094753Y0007985D01*
X0078476Y0025786D02*
X0094753Y0009509D01*
X0078476Y002731D02*
X0094753Y0011033D01*
X0078476Y0028834D02*
X0094753Y0012557D01*
X0078476Y0030358D02*
X0094753Y0014081D01*
X0078476Y0031882D02*
X0094753Y0015605D01*
X0078476Y0033406D02*
X0094753Y0017129D01*
X0078476Y003493D02*
X0094753Y0018653D01*
X0078476Y0036454D02*
X0094753Y0020177D01*
X0078476Y0037978D02*
X0094753Y0021701D01*
X0078476Y0039502D02*
X0094753Y0023225D01*
X0078476Y0041026D02*
X0094753Y0024749D01*
X0078476Y004255D02*
X0094753Y0026273D01*
X0078476Y0044074D02*
X0094753Y0027797D01*
X0078476Y0045598D02*
X0094753Y0029321D01*
X0078476Y0047122D02*
X0094753Y0030845D01*
X0078476Y0048646D02*
X0094753Y0032369D01*
X0078476Y005017D02*
X0094753Y0033893D01*
X0078476Y0051694D02*
X0094753Y0035417D01*
X0078476Y0053218D02*
X0094753Y0036941D01*
X0078476Y0054742D02*
X0094753Y0038465D01*
X0078476Y0056266D02*
X0094753Y0039989D01*
X0078476Y005779D02*
X0094753Y0041513D01*
X0078476Y0059314D02*
X0094753Y0043037D01*
X0078476Y0060838D02*
X0094753Y0044561D01*
X0078476Y0062362D02*
X0094753Y0046085D01*
X0078476Y0063886D02*
X0094753Y0047609D01*
X0078476Y006541D02*
X0094753Y0049133D01*
X0078476Y0066934D02*
X0094753Y0050657D01*
X0078476Y0068458D02*
X0094753Y0052181D01*
X0078476Y0069982D02*
X0094753Y0053705D01*
X0078476Y0071506D02*
X0094753Y0055229D01*
X0078476Y007303D02*
X0094753Y0056753D01*
X0078476Y0074554D02*
X0094753Y0058277D01*
X0078476Y0076078D02*
X0094753Y0059801D01*
X0078476Y0077602D02*
X0094753Y0061325D01*
X0078476Y0079126D02*
X0094753Y0062849D01*
X0078476Y008065D02*
X0094753Y0064373D01*
X0078476Y0082174D02*
X0094753Y0065897D01*
X0078476Y0083698D02*
X0094753Y0067421D01*
X0078476Y0085222D02*
X0094753Y0068945D01*
X0078476Y0086746D02*
X0094753Y0070469D01*
X0078476Y008827D02*
X0094753Y0071993D01*
X0078476Y0089794D02*
X0094753Y0073517D01*
X0078476Y0091318D02*
X0094753Y0075041D01*
X0078476Y0092842D02*
X0094753Y0076565D01*
X0078476Y0094366D02*
X0094753Y0078089D01*
X0078476Y009589D02*
X0094753Y0079613D01*
X0078476Y0097414D02*
X0094753Y0081137D01*
X0078476Y0098938D02*
X0094753Y0082661D01*
X0078476Y0100462D02*
X0094753Y0084185D01*
X0078476Y0101986D02*
X0094753Y0085709D01*
X0078476Y010351D02*
X0094753Y0087233D01*
X0078476Y0105034D02*
X0094753Y0088757D01*
X0078476Y0106558D02*
X0094753Y0090281D01*
X0078476Y0108082D02*
X0094753Y0091805D01*
X0078476Y0109606D02*
X0094753Y0093329D01*
X0078476Y011113D02*
X0094753Y0094853D01*
X0078476Y0112654D02*
X0094753Y0096377D01*
X0078476Y0114178D02*
X0094753Y0097901D01*
X0078476Y0115702D02*
X0094753Y0099425D01*
X0078476Y0117226D02*
X0094753Y0100949D01*
X0078476Y011875D02*
X0094753Y0102473D01*
X0078476Y0120274D02*
X0094753Y0103997D01*
X0078476Y0121798D02*
X0094753Y0105521D01*
X0078641Y0123157D02*
X0094753Y0107045D01*
X0080165Y0123157D02*
X0094753Y0108569D01*
X0081689Y0123157D02*
X0094753Y0110093D01*
X0083213Y0123157D02*
X0094753Y0111617D01*
X0084737Y0123157D02*
X0094753Y0113141D01*
X0086261Y0123157D02*
X0094753Y0114665D01*
X0087785Y0123157D02*
X0094753Y0116189D01*
X0089309Y0123157D02*
X0094753Y0117713D01*
X0090833Y0123157D02*
X0094753Y0119237D01*
X0092357Y0123157D02*
X0094753Y0120761D01*
X0093881Y0123157D02*
X0094753Y0122285D01*
X0093215Y0123129D02*
X0094753Y0124667D01*
X0091691Y0123129D02*
X0094753Y0126191D01*
X0090167Y0123129D02*
X0094753Y0127715D01*
X0088643Y0123129D02*
X0094753Y0129239D01*
X0087119Y0123129D02*
X0094753Y0130763D01*
X0085595Y0123129D02*
X009419Y0131724D01*
X0084071Y0123129D02*
X0092666Y0131724D01*
X0082547Y0123129D02*
X0091142Y0131724D01*
X0081023Y0123129D02*
X0089618Y0131724D01*
X0079499Y0123129D02*
X0088094Y0131724D01*
X0078476Y012363D02*
X008657Y0131724D01*
X0078476Y0125154D02*
X0085046Y0131724D01*
X0078476Y0126678D02*
X0083522Y0131724D01*
X0078476Y0128202D02*
X0081998Y0131724D01*
X0078476Y0129726D02*
X0080474Y0131724D01*
X0078476Y013125D02*
X007895Y0131724D01*
D25*
X002735Y015175D02*
X002635D01*
Y0151D01*
X002685D01*
X002635D01*
Y015025D01*
X002785D02*
X0028349D01*
X0028099D01*
Y015125D01*
X002785D01*
X0029099Y015025D02*
Y015125D01*
X0029849D01*
X0030099Y0151D01*
Y015025D01*
X0030599D02*
X0031098D01*
X0030849D01*
Y015125D01*
X0030599D01*
X0031848Y015025D02*
X0032598D01*
X0032848Y01505D01*
X0032598Y015075D01*
X0032098D01*
X0031848Y0151D01*
X0032098Y015125D01*
X0032848D01*
X0033348Y015175D02*
Y015025D01*
Y0151D01*
X0033598Y015125D01*
X0034097D01*
X0034347Y0151D01*
Y015025D01*
X0026275Y015845D02*
Y015995D01*
X0026775Y015945D01*
X0027275Y015995D01*
Y015845D01*
X0028024Y015945D02*
X0028524D01*
X0028774Y01592D01*
Y015845D01*
X0028024D01*
X0027775Y01587D01*
X0028024Y015895D01*
X0028774D01*
X0029524Y01597D02*
Y015945D01*
X0029274D01*
X0029774D01*
X0029524D01*
Y01587D01*
X0029774Y015845D01*
X0031273D02*
X0030774D01*
X0030524Y01587D01*
Y01592D01*
X0030774Y015945D01*
X0031273D01*
X0031523Y01592D01*
Y015895D01*
X0030524D01*
X0032023Y015945D02*
Y015845D01*
Y015895D01*
X0032273Y01592D01*
X0032523Y015945D01*
X0032773D01*
X0033523Y015845D02*
X0034022D01*
X0033773D01*
Y015945D01*
X0033523D01*
X0035022D02*
X0035522D01*
X0035772Y01592D01*
Y015845D01*
X0035022D01*
X0034772Y01587D01*
X0035022Y015895D01*
X0035772D01*
X0036272Y015845D02*
X0036772D01*
X0036522D01*
Y015995D01*
X0036272D01*
D26*
X0027733Y0168666D02*
X00274Y0169D01*
X0026733D01*
X00264Y0168666D01*
Y0168333D01*
X0026733Y0168D01*
X00274D01*
X0027733Y0167667D01*
Y0167334D01*
X00274Y0167D01*
X0026733D01*
X00264Y0167334D01*
X0028733Y0168333D02*
X0029399D01*
X0029732Y0168D01*
Y0167D01*
X0028733D01*
X0028399Y0167334D01*
X0028733Y0167667D01*
X0029732D01*
X0030399Y0168333D02*
Y0167D01*
Y0167667D01*
X0030732Y0168D01*
X0031065Y0168333D01*
X0031398D01*
X0032731D02*
X0033398D01*
X0033731Y0168D01*
Y0167D01*
X0032731D01*
X0032398Y0167334D01*
X0032731Y0167667D01*
X0033731D01*
X0034397Y0167D02*
Y0168333D01*
X0035064Y0169D01*
X003573Y0168333D01*
Y0167D01*
Y0168D01*
X0034397D01*
X0036397Y0169D02*
X0037063D01*
X003673D01*
Y0167D01*
X0036397D01*
X0037063D01*
X0040062Y0169D02*
Y0167D01*
X0041395D01*
X0042062Y0169D02*
Y0167D01*
X0043395D01*
X0045394Y0168666D02*
X0045061Y0169D01*
X0044394D01*
X0044061Y0168666D01*
Y0167334D01*
X0044394Y0167D01*
X0045061D01*
X0045394Y0167334D01*
X0027733Y0172666D02*
X00274Y0173D01*
X0026733D01*
X00264Y0172666D01*
Y0172333D01*
X0026733Y0172D01*
X00274D01*
X0027733Y0171667D01*
Y0171334D01*
X00274Y0171D01*
X0026733D01*
X00264Y0171334D01*
X0028733Y0172333D02*
X0029399D01*
X0029732Y0172D01*
Y0171D01*
X0028733D01*
X0028399Y0171334D01*
X0028733Y0171667D01*
X0029732D01*
X0030399Y0172333D02*
Y0171D01*
Y0171667D01*
X0030732Y0172D01*
X0031065Y0172333D01*
X0031398D01*
X0032731D02*
X0033398D01*
X0033731Y0172D01*
Y0171D01*
X0032731D01*
X0032398Y0171334D01*
X0032731Y0171667D01*
X0033731D01*
X0034397Y0173D02*
Y0171D01*
Y0171667D01*
X003573Y0173D01*
X0034731Y0172D01*
X003573Y0171D01*
X0036397D02*
X0037063D01*
X003673D01*
Y0172333D01*
X0036397D01*
X0038396Y0172666D02*
Y0172333D01*
X0038063D01*
X0038729D01*
X0038396D01*
Y0171334D01*
X0038729Y0171D01*
X0043061Y0173D02*
X0041728D01*
Y0172D01*
X0042395D01*
X0041728D01*
Y0171D01*
X0043728D02*
X0044394D01*
X0044061D01*
Y0173D01*
X0043728D01*
X0046394Y0171D02*
X0045727D01*
X0045394Y0171334D01*
Y0172D01*
X0045727Y0172333D01*
X0046394D01*
X0046727Y0172D01*
Y0171667D01*
X0045394D01*
X0047393Y0172333D02*
X0048726Y0171D01*
X004806Y0171667D01*
X0048726Y0172333D01*
X0047393Y0171D01*
X0049393Y0173D02*
Y0171D01*
Y0172D01*
X0050725D01*
Y0173D01*
Y0171D01*
X0051392Y0172333D02*
Y0171334D01*
X0051725Y0171D01*
X0052725D01*
Y0172333D01*
X0053391Y0173D02*
Y0171D01*
X0054391D01*
X0054724Y0171334D01*
Y0171667D01*
Y0172D01*
X0054391Y0172333D01*
X0053391D01*
X0056724Y0172666D02*
X005639Y0173D01*
X0055724D01*
X0055391Y0172666D01*
Y0171334D01*
X0055724Y0171D01*
X005639D01*
X0056724Y0171334D01*
X0057723Y0171D02*
X005839D01*
X0058723Y0171334D01*
Y0172D01*
X005839Y0172333D01*
X0057723D01*
X005739Y0172D01*
Y0171334D01*
X0057723Y0171D01*
X0059389D02*
Y0172333D01*
X0060389D01*
X0060722Y0172D01*
Y0171D01*
X0061389D02*
Y0172333D01*
X0062388D01*
X0062722Y0172D01*
Y0171D01*
X0064388D02*
X0063721D01*
X0063388Y0171334D01*
Y0172D01*
X0063721Y0172333D01*
X0064388D01*
X0064721Y0172D01*
Y0171667D01*
X0063388D01*
X006672Y0172333D02*
X0065721D01*
X0065387Y0172D01*
Y0171334D01*
X0065721Y0171D01*
X006672D01*
X006772Y0172666D02*
Y0172333D01*
X0067387D01*
X0068053D01*
X006772D01*
Y0171334D01*
X0068053Y0171D01*
X0069386D02*
X0070053D01*
X0070386Y0171334D01*
Y0172D01*
X0070053Y0172333D01*
X0069386D01*
X0069053Y0172D01*
Y0171334D01*
X0069386Y0171D01*
X0071052Y0172333D02*
Y0171D01*
Y0171667D01*
X0071385Y0172D01*
X0071719Y0172333D01*
X0072052D01*
D27*
X0080254Y0168285D02*
Y0166762D01*
X008127D01*
X0082031Y0167778D02*
X0082539D01*
X0082793Y0167524D01*
Y0166762D01*
X0082031D01*
X0081778Y0167016D01*
X0082031Y016727D01*
X0082793D01*
X0083301Y0167778D02*
Y0167016D01*
X0083555Y0166762D01*
X0084317D01*
Y0166508D01*
X0084063Y0166254D01*
X0083809D01*
X0084317Y0166762D02*
Y0167778D01*
X0085586Y0166762D02*
X0085078D01*
X0084825Y0167016D01*
Y0167524D01*
X0085078Y0167778D01*
X0085586D01*
X008584Y0167524D01*
Y016727D01*
X0084825D01*
X0086348Y0167778D02*
Y0166762D01*
Y016727D01*
X0086602Y0167524D01*
X0086856Y0167778D01*
X008711D01*
X008127Y0142378D02*
X0080254D01*
X008127Y0143394D01*
Y0143647D01*
X0081016Y0143901D01*
X0080508D01*
X0080254Y0143647D01*
Y015457D02*
X0080762D01*
X0080508D01*
Y0156093D01*
X0080254Y0155839D01*
X0090666Y0166762D02*
Y0168285D01*
X0091681Y0166762D01*
Y0168285D01*
X0092443Y0167778D02*
X0092951D01*
X0093205Y0167524D01*
Y0166762D01*
X0092443D01*
X0092189Y0167016D01*
X0092443Y016727D01*
X0093205D01*
X0093713Y0166762D02*
Y0167778D01*
X0093967D01*
X0094221Y0167524D01*
Y0166762D01*
Y0167524D01*
X0094475Y0167778D01*
X0094728Y0167524D01*
Y0166762D01*
X0095998D02*
X009549D01*
X0095236Y0167016D01*
Y0167524D01*
X009549Y0167778D01*
X0095998D01*
X0096252Y0167524D01*
Y016727D01*
X0095236D01*
X0091681Y0134503D02*
X0091428Y0134757D01*
X009092D01*
X0090666Y0134503D01*
Y013425D01*
X009092Y0133996D01*
X0091428D01*
X0091681Y0133742D01*
Y0133488D01*
X0091428Y0133234D01*
X009092D01*
X0090666Y0133488D01*
X0092443Y0134503D02*
Y013425D01*
X0092189D01*
X0092697D01*
X0092443D01*
Y0133488D01*
X0092697Y0133234D01*
X0093459D02*
X0093967D01*
X0093713D01*
Y013425D01*
X0093459D01*
X0094982Y0133234D02*
Y0134503D01*
Y0133996D01*
X0094728D01*
X0095236D01*
X0094982D01*
Y0134503D01*
X0095236Y0134757D01*
X0096252Y0133234D02*
Y0134503D01*
Y0133996D01*
X0095998D01*
X0096506D01*
X0096252D01*
Y0134503D01*
X0096506Y0134757D01*
X0098029Y0133234D02*
X0097522D01*
X0097268Y0133488D01*
Y0133996D01*
X0097522Y013425D01*
X0098029D01*
X0098283Y0133996D01*
Y0133742D01*
X0097268D01*
X0098791Y0133234D02*
Y013425D01*
X0099553D01*
X0099807Y0133996D01*
Y0133234D01*
X0101076D02*
X0100569D01*
X0100315Y0133488D01*
Y0133996D01*
X0100569Y013425D01*
X0101076D01*
X010133Y0133996D01*
Y0133742D01*
X0100315D01*
X0101838Y013425D02*
Y0133234D01*
Y0133742D01*
X0102092Y0133996D01*
X0102346Y013425D01*
X01026D01*
X0104885Y0134757D02*
Y0133234D01*
X0105647D01*
X0105901Y0133488D01*
Y0133742D01*
X0105647Y0133996D01*
X0104885D01*
X0105647D01*
X0105901Y013425D01*
Y0134503D01*
X0105647Y0134757D01*
X0104885D01*
X010717D02*
X0106663D01*
X0106409Y0134503D01*
Y0133488D01*
X0106663Y0133234D01*
X010717D01*
X0107424Y0133488D01*
Y0134503D01*
X010717Y0134757D01*
X0107932D02*
X0108948D01*
X010844D01*
Y0133234D01*
X0109456Y0134757D02*
X0110471D01*
X0109964D01*
Y0133234D01*
X0111741Y0134757D02*
X0111233D01*
X0110979Y0134503D01*
Y0133488D01*
X0111233Y0133234D01*
X0111741D01*
X0111995Y0133488D01*
Y0134503D01*
X0111741Y0134757D01*
X0112503Y0133234D02*
Y0134757D01*
X0113011Y013425D01*
X0113518Y0134757D01*
Y0133234D01*
X0090666Y0137805D02*
Y0136282D01*
X0091428D01*
X0091681Y0136536D01*
Y013679D01*
X0091428Y0137044D01*
X0090666D01*
X0091428D01*
X0091681Y0137298D01*
Y0137551D01*
X0091428Y0137805D01*
X0090666D01*
X0092443Y0136282D02*
X0092951D01*
X0093205Y0136536D01*
Y0137044D01*
X0092951Y0137298D01*
X0092443D01*
X0092189Y0137044D01*
Y0136536D01*
X0092443Y0136282D01*
X0093967Y0137551D02*
Y0137298D01*
X0093713D01*
X0094221D01*
X0093967D01*
Y0136536D01*
X0094221Y0136282D01*
X0095236Y0137551D02*
Y0137298D01*
X0094982D01*
X009549D01*
X0095236D01*
Y0136536D01*
X009549Y0136282D01*
X0096506D02*
X0097014D01*
X0097268Y0136536D01*
Y0137044D01*
X0097014Y0137298D01*
X0096506D01*
X0096252Y0137044D01*
Y0136536D01*
X0096506Y0136282D01*
X0097775D02*
Y0137298D01*
X0098029D01*
X0098283Y0137044D01*
Y0136282D01*
Y0137044D01*
X0098537Y0137298D01*
X0098791Y0137044D01*
Y0136282D01*
X0101584Y0137805D02*
X0101076D01*
X0100823Y0137551D01*
Y0136536D01*
X0101076Y0136282D01*
X0101584D01*
X0101838Y0136536D01*
Y0137551D01*
X0101584Y0137805D01*
X0102346Y0137298D02*
X0102854Y0136282D01*
X0103362Y0137298D01*
X0104631Y0136282D02*
X0104123D01*
X010387Y0136536D01*
Y0137044D01*
X0104123Y0137298D01*
X0104631D01*
X0104885Y0137044D01*
Y013679D01*
X010387D01*
X0105393Y0137298D02*
Y0136282D01*
Y013679D01*
X0105647Y0137044D01*
X0105901Y0137298D01*
X0106155D01*
X0106917Y0136282D02*
X0107424D01*
X010717D01*
Y0137805D01*
X0106917D01*
X010844Y0137298D02*
X0108948D01*
X0109202Y0137044D01*
Y0136282D01*
X010844D01*
X0108186Y0136536D01*
X010844Y013679D01*
X0109202D01*
X010971Y0137298D02*
Y0136536D01*
X0109964Y0136282D01*
X0110725D01*
Y0136028D01*
X0110471Y0135774D01*
X0110217D01*
X0110725Y0136282D02*
Y0137298D01*
X0090666Y0140853D02*
Y013933D01*
X0091428D01*
X0091681Y0139584D01*
Y0139838D01*
X0091428Y0140092D01*
X0090666D01*
X0091428D01*
X0091681Y0140346D01*
Y0140599D01*
X0091428Y0140853D01*
X0090666D01*
X0092443Y013933D02*
X0092951D01*
X0093205Y0139584D01*
Y0140092D01*
X0092951Y0140346D01*
X0092443D01*
X0092189Y0140092D01*
Y0139584D01*
X0092443Y013933D01*
X0093967Y0140599D02*
Y0140346D01*
X0093713D01*
X0094221D01*
X0093967D01*
Y0139584D01*
X0094221Y013933D01*
X0095236Y0140599D02*
Y0140346D01*
X0094982D01*
X009549D01*
X0095236D01*
Y0139584D01*
X009549Y013933D01*
X0096506D02*
X0097014D01*
X0097268Y0139584D01*
Y0140092D01*
X0097014Y0140346D01*
X0096506D01*
X0096252Y0140092D01*
Y0139584D01*
X0096506Y013933D01*
X0097775D02*
Y0140346D01*
X0098029D01*
X0098283Y0140092D01*
Y013933D01*
Y0140092D01*
X0098537Y0140346D01*
X0098791Y0140092D01*
Y013933D01*
X0101838Y0140599D02*
X0101584Y0140853D01*
X0101076D01*
X0100823Y0140599D01*
Y0140346D01*
X0101076Y0140092D01*
X0101584D01*
X0101838Y0139838D01*
Y0139584D01*
X0101584Y013933D01*
X0101076D01*
X0100823Y0139584D01*
X01026Y013933D02*
X0103108D01*
X0103362Y0139584D01*
Y0140092D01*
X0103108Y0140346D01*
X01026D01*
X0102346Y0140092D01*
Y0139584D01*
X01026Y013933D01*
X010387D02*
X0104377D01*
X0104123D01*
Y0140853D01*
X010387D01*
X0106155D02*
Y013933D01*
X0105393D01*
X0105139Y0139584D01*
Y0140092D01*
X0105393Y0140346D01*
X0106155D01*
X0107424Y013933D02*
X0106917D01*
X0106663Y0139584D01*
Y0140092D01*
X0106917Y0140346D01*
X0107424D01*
X0107678Y0140092D01*
Y0139838D01*
X0106663D01*
X0108186Y0140346D02*
Y013933D01*
Y0139838D01*
X010844Y0140092D01*
X0108694Y0140346D01*
X0108948D01*
X0090666Y0143901D02*
Y0142378D01*
X0091428D01*
X0091681Y0142632D01*
Y0142886D01*
X0091428Y014314D01*
X0090666D01*
X0091428D01*
X0091681Y0143394D01*
Y0143647D01*
X0091428Y0143901D01*
X0090666D01*
X0092443Y0142378D02*
X0092951D01*
X0093205Y0142632D01*
Y014314D01*
X0092951Y0143394D01*
X0092443D01*
X0092189Y014314D01*
Y0142632D01*
X0092443Y0142378D01*
X0093967Y0143647D02*
Y0143394D01*
X0093713D01*
X0094221D01*
X0093967D01*
Y0142632D01*
X0094221Y0142378D01*
X0095236Y0143647D02*
Y0143394D01*
X0094982D01*
X009549D01*
X0095236D01*
Y0142632D01*
X009549Y0142378D01*
X0096506D02*
X0097014D01*
X0097268Y0142632D01*
Y014314D01*
X0097014Y0143394D01*
X0096506D01*
X0096252Y014314D01*
Y0142632D01*
X0096506Y0142378D01*
X0097775D02*
Y0143394D01*
X0098029D01*
X0098283Y014314D01*
Y0142378D01*
Y014314D01*
X0098537Y0143394D01*
X0098791Y014314D01*
Y0142378D01*
X0100823Y0143901D02*
Y0142378D01*
X0101838D01*
X01026Y0143394D02*
X0103108D01*
X0103362Y014314D01*
Y0142378D01*
X01026D01*
X0102346Y0142632D01*
X01026Y0142886D01*
X0103362D01*
X010387Y0143394D02*
Y0142632D01*
X0104123Y0142378D01*
X0104885D01*
Y0142124D01*
X0104631Y014187D01*
X0104377D01*
X0104885Y0142378D02*
Y0143394D01*
X0106155Y0142378D02*
X0105647D01*
X0105393Y0142632D01*
Y014314D01*
X0105647Y0143394D01*
X0106155D01*
X0106409Y014314D01*
Y0142886D01*
X0105393D01*
X0106917Y0143394D02*
Y0142378D01*
Y0142886D01*
X010717Y014314D01*
X0107424Y0143394D01*
X0107678D01*
X0090666Y0145426D02*
Y0146442D01*
X0091174Y0146949D01*
X0091681Y0146442D01*
Y0145426D01*
Y0146188D01*
X0090666D01*
X0093205Y0146949D02*
Y0145426D01*
X0092443D01*
X0092189Y014568D01*
Y0146188D01*
X0092443Y0146442D01*
X0093205D01*
X0093713Y0146949D02*
Y0145426D01*
Y0146188D01*
X0093967Y0146442D01*
X0094475D01*
X0094728Y0146188D01*
Y0145426D01*
X0095998D02*
X009549D01*
X0095236Y014568D01*
Y0146188D01*
X009549Y0146442D01*
X0095998D01*
X0096252Y0146188D01*
Y0145934D01*
X0095236D01*
X009676Y0145426D02*
X0097522D01*
X0097775Y014568D01*
X0097522Y0145934D01*
X0097014D01*
X009676Y0146188D01*
X0097014Y0146442D01*
X0097775D01*
X0098283Y0145426D02*
X0098791D01*
X0098537D01*
Y0146442D01*
X0098283D01*
X0099553D02*
X0100061Y0145426D01*
X0100569Y0146442D01*
X0101838Y0145426D02*
X010133D01*
X0101076Y014568D01*
Y0146188D01*
X010133Y0146442D01*
X0101838D01*
X0102092Y0146188D01*
Y0145934D01*
X0101076D01*
X0105139Y0145426D02*
X0104123D01*
X0105139Y0146442D01*
Y0146695D01*
X0104885Y0146949D01*
X0104377D01*
X0104123Y0146695D01*
X0090666Y0148474D02*
Y0149997D01*
X0091428D01*
X0091681Y0149743D01*
Y0149236D01*
X0091428Y0148982D01*
X0090666D01*
X0092189Y0149997D02*
X0092697D01*
X0092443D01*
Y0148474D01*
X0092189D01*
X0092697D01*
X0090666Y0151522D02*
Y0152538D01*
X0091174Y0153045D01*
X0091681Y0152538D01*
Y0151522D01*
Y0152284D01*
X0090666D01*
X0093205Y0153045D02*
Y0151522D01*
X0092443D01*
X0092189Y0151776D01*
Y0152284D01*
X0092443Y0152538D01*
X0093205D01*
X0093713Y0153045D02*
Y0151522D01*
Y0152284D01*
X0093967Y0152538D01*
X0094475D01*
X0094728Y0152284D01*
Y0151522D01*
X0095998D02*
X009549D01*
X0095236Y0151776D01*
Y0152284D01*
X009549Y0152538D01*
X0095998D01*
X0096252Y0152284D01*
Y015203D01*
X0095236D01*
X009676Y0151522D02*
X0097522D01*
X0097775Y0151776D01*
X0097522Y015203D01*
X0097014D01*
X009676Y0152284D01*
X0097014Y0152538D01*
X0097775D01*
X0098283Y0151522D02*
X0098791D01*
X0098537D01*
Y0152538D01*
X0098283D01*
X0099553D02*
X0100061Y0151522D01*
X0100569Y0152538D01*
X0101838Y0151522D02*
X010133D01*
X0101076Y0151776D01*
Y0152284D01*
X010133Y0152538D01*
X0101838D01*
X0102092Y0152284D01*
Y015203D01*
X0101076D01*
X0104123Y0151522D02*
X0104631D01*
X0104377D01*
Y0153045D01*
X0104123Y0152791D01*
X0090666Y0156093D02*
X0091681D01*
X0091174D01*
Y015457D01*
X0092443D02*
X0092951D01*
X0093205Y0154824D01*
Y0155332D01*
X0092951Y0155586D01*
X0092443D01*
X0092189Y0155332D01*
Y0154824D01*
X0092443Y015457D01*
X0093713Y0154062D02*
Y0155586D01*
X0094475D01*
X0094728Y0155332D01*
Y0154824D01*
X0094475Y015457D01*
X0093713D01*
X009676Y0156093D02*
Y015457D01*
X0097775D01*
X0098537Y0155586D02*
X0099045D01*
X0099299Y0155332D01*
Y015457D01*
X0098537D01*
X0098283Y0154824D01*
X0098537Y0155078D01*
X0099299D01*
X0099807Y0155586D02*
Y0154824D01*
X0100061Y015457D01*
X0100823D01*
Y0154316D01*
X0100569Y0154062D01*
X0100315D01*
X0100823Y015457D02*
Y0155586D01*
X0102092Y015457D02*
X0101584D01*
X010133Y0154824D01*
Y0155332D01*
X0101584Y0155586D01*
X0102092D01*
X0102346Y0155332D01*
Y0155078D01*
X010133D01*
X0102854Y0155586D02*
Y015457D01*
Y0155078D01*
X0103108Y0155332D01*
X0103362Y0155586D01*
X0103616D01*
X0090666Y0159141D02*
X0091681D01*
X0091174D01*
Y0157618D01*
X0092443D02*
X0092951D01*
X0093205Y0157872D01*
Y015838D01*
X0092951Y0158634D01*
X0092443D01*
X0092189Y015838D01*
Y0157872D01*
X0092443Y0157618D01*
X0093713Y015711D02*
Y0158634D01*
X0094475D01*
X0094728Y015838D01*
Y0157872D01*
X0094475Y0157618D01*
X0093713D01*
X0097775Y0158887D02*
X0097522Y0159141D01*
X0097014D01*
X009676Y0158887D01*
Y0158634D01*
X0097014Y015838D01*
X0097522D01*
X0097775Y0158126D01*
Y0157872D01*
X0097522Y0157618D01*
X0097014D01*
X009676Y0157872D01*
X0098537Y0157618D02*
X0099045D01*
X0099299Y0157872D01*
Y015838D01*
X0099045Y0158634D01*
X0098537D01*
X0098283Y015838D01*
Y0157872D01*
X0098537Y0157618D01*
X0099807D02*
X0100315D01*
X0100061D01*
Y0159141D01*
X0099807D01*
X0102092D02*
Y0157618D01*
X010133D01*
X0101076Y0157872D01*
Y015838D01*
X010133Y0158634D01*
X0102092D01*
X0103362Y0157618D02*
X0102854D01*
X01026Y0157872D01*
Y015838D01*
X0102854Y0158634D01*
X0103362D01*
X0103616Y015838D01*
Y0158126D01*
X01026D01*
X0104123Y0158634D02*
Y0157618D01*
Y0158126D01*
X0104377Y015838D01*
X0104631Y0158634D01*
X0104885D01*
X0090666Y0162189D02*
X0091681D01*
X0091174D01*
Y0160666D01*
X0092443D02*
X0092951D01*
X0093205Y016092D01*
Y0161428D01*
X0092951Y0161682D01*
X0092443D01*
X0092189Y0161428D01*
Y016092D01*
X0092443Y0160666D01*
X0093713Y0160158D02*
Y0161682D01*
X0094475D01*
X0094728Y0161428D01*
Y016092D01*
X0094475Y0160666D01*
X0093713D01*
X0097522Y0162189D02*
X0097014D01*
X009676Y0161935D01*
Y016092D01*
X0097014Y0160666D01*
X0097522D01*
X0097775Y016092D01*
Y0161935D01*
X0097522Y0162189D01*
X0098283Y0161682D02*
X0098791Y0160666D01*
X0099299Y0161682D01*
X0100569Y0160666D02*
X0100061D01*
X0099807Y016092D01*
Y0161428D01*
X0100061Y0161682D01*
X0100569D01*
X0100823Y0161428D01*
Y0161174D01*
X0099807D01*
X010133Y0161682D02*
Y0160666D01*
Y0161174D01*
X0101584Y0161428D01*
X0101838Y0161682D01*
X0102092D01*
X0102854Y0160666D02*
X0103362D01*
X0103108D01*
Y0162189D01*
X0102854D01*
X0104377Y0161682D02*
X0104885D01*
X0105139Y0161428D01*
Y0160666D01*
X0104377D01*
X0104123Y016092D01*
X0104377Y0161174D01*
X0105139D01*
X0105647Y0161682D02*
Y016092D01*
X0105901Y0160666D01*
X0106663D01*
Y0160412D01*
X0106409Y0160158D01*
X0106155D01*
X0106663Y0160666D02*
Y0161682D01*
X0091681Y0164983D02*
X0091428Y0165237D01*
X009092D01*
X0090666Y0164983D01*
Y016473D01*
X009092Y0164476D01*
X0091428D01*
X0091681Y0164222D01*
Y0163968D01*
X0091428Y0163714D01*
X009092D01*
X0090666Y0163968D01*
X0092443Y0164983D02*
Y016473D01*
X0092189D01*
X0092697D01*
X0092443D01*
Y0163968D01*
X0092697Y0163714D01*
X0093459D02*
X0093967D01*
X0093713D01*
Y016473D01*
X0093459D01*
X0094982Y0163714D02*
Y0164983D01*
Y0164476D01*
X0094728D01*
X0095236D01*
X0094982D01*
Y0164983D01*
X0095236Y0165237D01*
X0096252Y0163714D02*
Y0164983D01*
Y0164476D01*
X0095998D01*
X0096506D01*
X0096252D01*
Y0164983D01*
X0096506Y0165237D01*
X0098029Y0163714D02*
X0097522D01*
X0097268Y0163968D01*
Y0164476D01*
X0097522Y016473D01*
X0098029D01*
X0098283Y0164476D01*
Y0164222D01*
X0097268D01*
X0098791Y0163714D02*
Y016473D01*
X0099553D01*
X0099807Y0164476D01*
Y0163714D01*
X0101076D02*
X0100569D01*
X0100315Y0163968D01*
Y0164476D01*
X0100569Y016473D01*
X0101076D01*
X010133Y0164476D01*
Y0164222D01*
X0100315D01*
X0101838Y016473D02*
Y0163714D01*
Y0164222D01*
X0102092Y0164476D01*
X0102346Y016473D01*
X01026D01*
X0104885Y0165237D02*
X0105901D01*
X0105393D01*
Y0163714D01*
X010717Y0165237D02*
X0106663D01*
X0106409Y0164983D01*
Y0163968D01*
X0106663Y0163714D01*
X010717D01*
X0107424Y0163968D01*
Y0164983D01*
X010717Y0165237D01*
X0107932Y0163714D02*
Y0165237D01*
X0108694D01*
X0108948Y0164983D01*
Y0164476D01*
X0108694Y0164222D01*
X0107932D01*
X0117074Y0166762D02*
Y0168285D01*
X0117582Y0167778D01*
X011809Y0168285D01*
Y0166762D01*
X0118852Y0167778D02*
X011936D01*
X0119614Y0167524D01*
Y0166762D01*
X0118852D01*
X0118598Y0167016D01*
X0118852Y016727D01*
X0119614D01*
X0120375Y0168031D02*
Y0167778D01*
X0120121D01*
X0120629D01*
X0120375D01*
Y0167016D01*
X0120629Y0166762D01*
X0122153D02*
X0121645D01*
X0121391Y0167016D01*
Y0167524D01*
X0121645Y0167778D01*
X0122153D01*
X0122407Y0167524D01*
Y016727D01*
X0121391D01*
X0122914Y0167778D02*
Y0166762D01*
Y016727D01*
X0123168Y0167524D01*
X0123422Y0167778D01*
X0123676D01*
X0124438Y0166762D02*
X0124946D01*
X0124692D01*
Y0167778D01*
X0124438D01*
X0125962D02*
X0126469D01*
X0126723Y0167524D01*
Y0166762D01*
X0125962D01*
X0125708Y0167016D01*
X0125962Y016727D01*
X0126723D01*
X0127231Y0166762D02*
X0127739D01*
X0127485D01*
Y0168285D01*
X0127231D01*
X011809Y0134757D02*
X0117074D01*
Y0133996D01*
X0117582D01*
X0117074D01*
Y0133234D01*
X0118598D02*
Y0134757D01*
X011936D01*
X0119614Y0134503D01*
Y0133996D01*
X011936Y0133742D01*
X0118598D01*
X0119106D02*
X0119614Y0133234D01*
X0120883D02*
Y0134757D01*
X0120121Y0133996D01*
X0121137D01*
X011809Y0140599D02*
X0117836Y0140853D01*
X0117328D01*
X0117074Y0140599D01*
Y0140346D01*
X0117328Y0140092D01*
X0117836D01*
X011809Y0139838D01*
Y0139584D01*
X0117836Y013933D01*
X0117328D01*
X0117074Y0139584D01*
X0118852Y013933D02*
X011936D01*
X0119614Y0139584D01*
Y0140092D01*
X011936Y0140346D01*
X0118852D01*
X0118598Y0140092D01*
Y0139584D01*
X0118852Y013933D01*
X0120121D02*
X0120629D01*
X0120375D01*
Y0140853D01*
X0120121D01*
X0122407D02*
Y013933D01*
X0121645D01*
X0121391Y0139584D01*
Y0140092D01*
X0121645Y0140346D01*
X0122407D01*
X0123676Y013933D02*
X0123168D01*
X0122914Y0139584D01*
Y0140092D01*
X0123168Y0140346D01*
X0123676D01*
X012393Y0140092D01*
Y0139838D01*
X0122914D01*
X0124438Y0140346D02*
Y013933D01*
Y0139838D01*
X0124692Y0140092D01*
X0124946Y0140346D01*
X01252D01*
X0127485Y013933D02*
Y0140853D01*
X0128247D01*
X0128501Y0140599D01*
Y0140092D01*
X0128247Y0139838D01*
X0127485D01*
X0127993D02*
X0128501Y013933D01*
X012977D02*
X0129262D01*
X0129009Y0139584D01*
Y0140092D01*
X0129262Y0140346D01*
X012977D01*
X0130024Y0140092D01*
Y0139838D01*
X0129009D01*
X0130532Y013933D02*
X0131294D01*
X0131548Y0139584D01*
X0131294Y0139838D01*
X0130786D01*
X0130532Y0140092D01*
X0130786Y0140346D01*
X0131548D01*
X0132056Y013933D02*
X0132563D01*
X0132309D01*
Y0140346D01*
X0132056D01*
X0133325Y013933D02*
X0134087D01*
X0134341Y0139584D01*
X0134087Y0139838D01*
X0133579D01*
X0133325Y0140092D01*
X0133579Y0140346D01*
X0134341D01*
X0135103Y0140599D02*
Y0140346D01*
X0134849D01*
X0135356D01*
X0135103D01*
Y0139584D01*
X0135356Y013933D01*
X0117074Y0148474D02*
Y0149997D01*
X0117836D01*
X011809Y0149743D01*
Y0149236D01*
X0117836Y0148982D01*
X0117074D01*
X0118852Y0148474D02*
X011936D01*
X0119614Y0148728D01*
Y0149236D01*
X011936Y014949D01*
X0118852D01*
X0118598Y0149236D01*
Y0148728D01*
X0118852Y0148474D01*
X0120121D02*
X0120629D01*
X0120375D01*
Y0149997D01*
X0120121D01*
X0121391Y014949D02*
Y0148728D01*
X0121645Y0148474D01*
X0122407D01*
Y014822D01*
X0122153Y0147966D01*
X0121899D01*
X0122407Y0148474D02*
Y014949D01*
X0123168D02*
X0123676D01*
X012393Y0149236D01*
Y0148474D01*
X0123168D01*
X0122914Y0148728D01*
X0123168Y0148982D01*
X012393D01*
X0124438Y0148474D02*
Y014949D01*
X0124692D01*
X0124946Y0149236D01*
Y0148474D01*
Y0149236D01*
X01252Y014949D01*
X0125454Y0149236D01*
Y0148474D01*
X0125962D02*
X0126469D01*
X0126215D01*
Y014949D01*
X0125962D01*
X0128247Y0149997D02*
Y0148474D01*
X0127485D01*
X0127231Y0148728D01*
Y0149236D01*
X0127485Y014949D01*
X0128247D01*
X011809Y0158887D02*
X0117836Y0159141D01*
X0117328D01*
X0117074Y0158887D01*
Y0158634D01*
X0117328Y015838D01*
X0117836D01*
X011809Y0158126D01*
Y0157872D01*
X0117836Y0157618D01*
X0117328D01*
X0117074Y0157872D01*
X0118852Y0157618D02*
X011936D01*
X0119614Y0157872D01*
Y015838D01*
X011936Y0158634D01*
X0118852D01*
X0118598Y015838D01*
Y0157872D01*
X0118852Y0157618D01*
X0120121D02*
X0120629D01*
X0120375D01*
Y0159141D01*
X0120121D01*
X0122407D02*
Y0157618D01*
X0121645D01*
X0121391Y0157872D01*
Y015838D01*
X0121645Y0158634D01*
X0122407D01*
X0123676Y0157618D02*
X0123168D01*
X0122914Y0157872D01*
Y015838D01*
X0123168Y0158634D01*
X0123676D01*
X012393Y015838D01*
Y0158126D01*
X0122914D01*
X0124438Y0158634D02*
Y0157618D01*
Y0158126D01*
X0124692Y015838D01*
X0124946Y0158634D01*
X01252D01*
X0127485Y0157618D02*
Y0159141D01*
X0128247D01*
X0128501Y0158887D01*
Y015838D01*
X0128247Y0158126D01*
X0127485D01*
X0127993D02*
X0128501Y0157618D01*
X012977D02*
X0129262D01*
X0129009Y0157872D01*
Y015838D01*
X0129262Y0158634D01*
X012977D01*
X0130024Y015838D01*
Y0158126D01*
X0129009D01*
X0130532Y0157618D02*
X0131294D01*
X0131548Y0157872D01*
X0131294Y0158126D01*
X0130786D01*
X0130532Y015838D01*
X0130786Y0158634D01*
X0131548D01*
X0132056Y0157618D02*
X0132563D01*
X0132309D01*
Y0158634D01*
X0132056D01*
X0133325Y0157618D02*
X0134087D01*
X0134341Y0157872D01*
X0134087Y0158126D01*
X0133579D01*
X0133325Y015838D01*
X0133579Y0158634D01*
X0134341D01*
X0135103Y0158887D02*
Y0158634D01*
X0134849D01*
X0135356D01*
X0135103D01*
Y0157872D01*
X0135356Y0157618D01*
X011809Y0165237D02*
X0117074D01*
Y0164476D01*
X0117582D01*
X0117074D01*
Y0163714D01*
X0118598D02*
Y0165237D01*
X011936D01*
X0119614Y0164983D01*
Y0164476D01*
X011936Y0164222D01*
X0118598D01*
X0119106D02*
X0119614Y0163714D01*
X0120883D02*
Y0165237D01*
X0120121Y0164476D01*
X0121137D01*
X0138912Y0168285D02*
X0139928D01*
X013942D01*
Y0166762D01*
X0140436Y0168285D02*
Y0166762D01*
Y0167524D01*
X014069Y0167778D01*
X0141198D01*
X0141452Y0167524D01*
Y0166762D01*
X0141959D02*
X0142467D01*
X0142213D01*
Y0167778D01*
X0141959D01*
X0144245D02*
X0143483D01*
X0143229Y0167524D01*
Y0167016D01*
X0143483Y0166762D01*
X0144245D01*
X0144753D02*
Y0168285D01*
Y016727D02*
X0145514Y0167778D01*
X0144753Y016727D02*
X0145514Y0166762D01*
X0146276D02*
Y0167778D01*
X0147038D01*
X0147292Y0167524D01*
Y0166762D01*
X0148561D02*
X0148054D01*
X01478Y0167016D01*
Y0167524D01*
X0148054Y0167778D01*
X0148561D01*
X0148815Y0167524D01*
Y016727D01*
X01478D01*
X0149323Y0166762D02*
X0150085D01*
X0150339Y0167016D01*
X0150085Y016727D01*
X0149577D01*
X0149323Y0167524D01*
X0149577Y0167778D01*
X0150339D01*
X0150847Y0166762D02*
X0151608D01*
X0151862Y0167016D01*
X0151608Y016727D01*
X0151101D01*
X0150847Y0167524D01*
X0151101Y0167778D01*
X0151862D01*
X0138912Y0133234D02*
X013942D01*
X0139166D01*
Y0134757D01*
X0138912Y0134503D01*
X0140436Y013298D02*
X014069Y0133234D01*
Y0133488D01*
X0140436D01*
Y0133234D01*
X014069D01*
X0140436Y013298D01*
X0140182Y0132726D01*
X0141706Y0134503D02*
X0141959Y0134757D01*
X0142467D01*
X0142721Y0134503D01*
Y0133488D01*
X0142467Y0133234D01*
X0141959D01*
X0141706Y0133488D01*
Y0134503D01*
X0143229D02*
X0143483Y0134757D01*
X0143991D01*
X0144245Y0134503D01*
Y0133488D01*
X0143991Y0133234D01*
X0143483D01*
X0143229Y0133488D01*
Y0134503D01*
X0144753D02*
X0145007Y0134757D01*
X0145514D01*
X0145768Y0134503D01*
Y0133488D01*
X0145514Y0133234D01*
X0145007D01*
X0144753Y0133488D01*
Y0134503D01*
X0146276Y0133234D02*
Y013425D01*
X014653D01*
X0146784Y0133996D01*
Y0133234D01*
Y0133996D01*
X0147038Y013425D01*
X0147292Y0133996D01*
Y0133234D01*
X01478D02*
Y013425D01*
X0148054D01*
X0148307Y0133996D01*
Y0133234D01*
Y0133996D01*
X0148561Y013425D01*
X0148815Y0133996D01*
Y0133234D01*
X0138912Y0140599D02*
X0139166Y0140853D01*
X0139674D01*
X0139928Y0140599D01*
Y0139584D01*
X0139674Y013933D01*
X0139166D01*
X0138912Y0139584D01*
Y0140599D01*
X014069Y0139076D02*
X0140944Y013933D01*
Y0139584D01*
X014069D01*
Y013933D01*
X0140944D01*
X014069Y0139076D01*
X0140436Y0138822D01*
X0141959Y0140599D02*
X0142213Y0140853D01*
X0142721D01*
X0142975Y0140599D01*
Y0139584D01*
X0142721Y013933D01*
X0142213D01*
X0141959Y0139584D01*
Y0140599D01*
X0144499Y0140853D02*
X0143483D01*
Y0140092D01*
X0143991Y0140346D01*
X0144245D01*
X0144499Y0140092D01*
Y0139584D01*
X0144245Y013933D01*
X0143737D01*
X0143483Y0139584D01*
X0145007Y0140599D02*
X014526Y0140853D01*
X0145768D01*
X0146022Y0140599D01*
Y0139584D01*
X0145768Y013933D01*
X014526D01*
X0145007Y0139584D01*
Y0140599D01*
X014653Y013933D02*
Y0140346D01*
X0146784D01*
X0147038Y0140092D01*
Y013933D01*
Y0140092D01*
X0147292Y0140346D01*
X0147546Y0140092D01*
Y013933D01*
X0148054D02*
Y0140346D01*
X0148307D01*
X0148561Y0140092D01*
Y013933D01*
Y0140092D01*
X0148815Y0140346D01*
X0149069Y0140092D01*
Y013933D01*
X0138912Y0143647D02*
X0139166Y0143901D01*
X0139674D01*
X0139928Y0143647D01*
Y0142632D01*
X0139674Y0142378D01*
X0139166D01*
X0138912Y0142632D01*
Y0143647D01*
X014069Y0142124D02*
X0140944Y0142378D01*
Y0142632D01*
X014069D01*
Y0142378D01*
X0140944D01*
X014069Y0142124D01*
X0140436Y014187D01*
X0141959Y0143647D02*
X0142213Y0143901D01*
X0142721D01*
X0142975Y0143647D01*
Y0142632D01*
X0142721Y0142378D01*
X0142213D01*
X0141959Y0142632D01*
Y0143647D01*
X0143483Y0142378D02*
X0143991D01*
X0143737D01*
Y0143901D01*
X0143483Y0143647D01*
X0144753D02*
X0145007Y0143901D01*
X0145514D01*
X0145768Y0143647D01*
Y0143394D01*
X0145514Y014314D01*
X0145768Y0142886D01*
Y0142632D01*
X0145514Y0142378D01*
X0145007D01*
X0144753Y0142632D01*
Y0142886D01*
X0145007Y014314D01*
X0144753Y0143394D01*
Y0143647D01*
X0145007Y014314D02*
X0145514D01*
X0146276Y0142378D02*
Y0143394D01*
X014653D01*
X0146784Y014314D01*
Y0142378D01*
Y014314D01*
X0147038Y0143394D01*
X0147292Y014314D01*
Y0142378D01*
X01478D02*
Y0143394D01*
X0148054D01*
X0148307Y014314D01*
Y0142378D01*
Y014314D01*
X0148561Y0143394D01*
X0148815Y014314D01*
Y0142378D01*
X0138912Y0146695D02*
X0139166Y0146949D01*
X0139674D01*
X0139928Y0146695D01*
Y014568D01*
X0139674Y0145426D01*
X0139166D01*
X0138912Y014568D01*
Y0146695D01*
X014069Y0145172D02*
X0140944Y0145426D01*
Y014568D01*
X014069D01*
Y0145426D01*
X0140944D01*
X014069Y0145172D01*
X0140436Y0144918D01*
X0141959Y0146695D02*
X0142213Y0146949D01*
X0142721D01*
X0142975Y0146695D01*
Y014568D01*
X0142721Y0145426D01*
X0142213D01*
X0141959Y014568D01*
Y0146695D01*
X0144499Y0145426D02*
X0143483D01*
X0144499Y0146442D01*
Y0146695D01*
X0144245Y0146949D01*
X0143737D01*
X0143483Y0146695D01*
X0145007D02*
X014526Y0146949D01*
X0145768D01*
X0146022Y0146695D01*
Y014568D01*
X0145768Y0145426D01*
X014526D01*
X0145007Y014568D01*
Y0146695D01*
X014653Y0145426D02*
Y0146442D01*
X0146784D01*
X0147038Y0146188D01*
Y0145426D01*
Y0146188D01*
X0147292Y0146442D01*
X0147546Y0146188D01*
Y0145426D01*
X0148054D02*
Y0146442D01*
X0148307D01*
X0148561Y0146188D01*
Y0145426D01*
Y0146188D01*
X0148815Y0146442D01*
X0149069Y0146188D01*
Y0145426D01*
X0138912Y0149743D02*
X0139166Y0149997D01*
X0139674D01*
X0139928Y0149743D01*
Y0148728D01*
X0139674Y0148474D01*
X0139166D01*
X0138912Y0148728D01*
Y0149743D01*
X014069Y014822D02*
X0140944Y0148474D01*
Y0148728D01*
X014069D01*
Y0148474D01*
X0140944D01*
X014069Y014822D01*
X0140436Y0147966D01*
X0141959Y0149743D02*
X0142213Y0149997D01*
X0142721D01*
X0142975Y0149743D01*
Y0148728D01*
X0142721Y0148474D01*
X0142213D01*
X0141959Y0148728D01*
Y0149743D01*
X0144499Y0148474D02*
X0143483D01*
X0144499Y014949D01*
Y0149743D01*
X0144245Y0149997D01*
X0143737D01*
X0143483Y0149743D01*
X0146022Y0149997D02*
X0145007D01*
Y0149236D01*
X0145514Y014949D01*
X0145768D01*
X0146022Y0149236D01*
Y0148728D01*
X0145768Y0148474D01*
X014526D01*
X0145007Y0148728D01*
X014653Y0148474D02*
Y014949D01*
X0146784D01*
X0147038Y0149236D01*
Y0148474D01*
Y0149236D01*
X0147292Y014949D01*
X0147546Y0149236D01*
Y0148474D01*
X0148054D02*
Y014949D01*
X0148307D01*
X0148561Y0149236D01*
Y0148474D01*
Y0149236D01*
X0148815Y014949D01*
X0149069Y0149236D01*
Y0148474D01*
X0138912Y0152791D02*
X0139166Y0153045D01*
X0139674D01*
X0139928Y0152791D01*
Y0151776D01*
X0139674Y0151522D01*
X0139166D01*
X0138912Y0151776D01*
Y0152791D01*
X014069Y0151268D02*
X0140944Y0151522D01*
Y0151776D01*
X014069D01*
Y0151522D01*
X0140944D01*
X014069Y0151268D01*
X0140436Y0151014D01*
X0141959Y0152791D02*
X0142213Y0153045D01*
X0142721D01*
X0142975Y0152791D01*
Y0151776D01*
X0142721Y0151522D01*
X0142213D01*
X0141959Y0151776D01*
Y0152791D01*
X0144499Y0151522D02*
X0143483D01*
X0144499Y0152538D01*
Y0152791D01*
X0144245Y0153045D01*
X0143737D01*
X0143483Y0152791D01*
X0145007D02*
X014526Y0153045D01*
X0145768D01*
X0146022Y0152791D01*
Y0151776D01*
X0145768Y0151522D01*
X014526D01*
X0145007Y0151776D01*
Y0152791D01*
X014653Y0151522D02*
Y0152538D01*
X0146784D01*
X0147038Y0152284D01*
Y0151522D01*
Y0152284D01*
X0147292Y0152538D01*
X0147546Y0152284D01*
Y0151522D01*
X0148054D02*
Y0152538D01*
X0148307D01*
X0148561Y0152284D01*
Y0151522D01*
Y0152284D01*
X0148815Y0152538D01*
X0149069Y0152284D01*
Y0151522D01*
X0138912Y0155839D02*
X0139166Y0156093D01*
X0139674D01*
X0139928Y0155839D01*
Y0154824D01*
X0139674Y015457D01*
X0139166D01*
X0138912Y0154824D01*
Y0155839D01*
X014069Y0154316D02*
X0140944Y015457D01*
Y0154824D01*
X014069D01*
Y015457D01*
X0140944D01*
X014069Y0154316D01*
X0140436Y0154062D01*
X0141959Y0155839D02*
X0142213Y0156093D01*
X0142721D01*
X0142975Y0155839D01*
Y0154824D01*
X0142721Y015457D01*
X0142213D01*
X0141959Y0154824D01*
Y0155839D01*
X0143483Y015457D02*
X0143991D01*
X0143737D01*
Y0156093D01*
X0143483Y0155839D01*
X0144753D02*
X0145007Y0156093D01*
X0145514D01*
X0145768Y0155839D01*
Y0155586D01*
X0145514Y0155332D01*
X0145768Y0155078D01*
Y0154824D01*
X0145514Y015457D01*
X0145007D01*
X0144753Y0154824D01*
Y0155078D01*
X0145007Y0155332D01*
X0144753Y0155586D01*
Y0155839D01*
X0145007Y0155332D02*
X0145514D01*
X0146276Y015457D02*
Y0155586D01*
X014653D01*
X0146784Y0155332D01*
Y015457D01*
Y0155332D01*
X0147038Y0155586D01*
X0147292Y0155332D01*
Y015457D01*
X01478D02*
Y0155586D01*
X0148054D01*
X0148307Y0155332D01*
Y015457D01*
Y0155332D01*
X0148561Y0155586D01*
X0148815Y0155332D01*
Y015457D01*
X0138912Y0158887D02*
X0139166Y0159141D01*
X0139674D01*
X0139928Y0158887D01*
Y0157872D01*
X0139674Y0157618D01*
X0139166D01*
X0138912Y0157872D01*
Y0158887D01*
X014069Y0157364D02*
X0140944Y0157618D01*
Y0157872D01*
X014069D01*
Y0157618D01*
X0140944D01*
X014069Y0157364D01*
X0140436Y015711D01*
X0141959Y0158887D02*
X0142213Y0159141D01*
X0142721D01*
X0142975Y0158887D01*
Y0157872D01*
X0142721Y0157618D01*
X0142213D01*
X0141959Y0157872D01*
Y0158887D01*
X0144499Y0159141D02*
X0143483D01*
Y015838D01*
X0143991Y0158634D01*
X0144245D01*
X0144499Y015838D01*
Y0157872D01*
X0144245Y0157618D01*
X0143737D01*
X0143483Y0157872D01*
X0145007Y0158887D02*
X014526Y0159141D01*
X0145768D01*
X0146022Y0158887D01*
Y0157872D01*
X0145768Y0157618D01*
X014526D01*
X0145007Y0157872D01*
Y0158887D01*
X014653Y0157618D02*
Y0158634D01*
X0146784D01*
X0147038Y015838D01*
Y0157618D01*
Y015838D01*
X0147292Y0158634D01*
X0147546Y015838D01*
Y0157618D01*
X0148054D02*
Y0158634D01*
X0148307D01*
X0148561Y015838D01*
Y0157618D01*
Y015838D01*
X0148815Y0158634D01*
X0149069Y015838D01*
Y0157618D01*
X0138912Y0163714D02*
X013942D01*
X0139166D01*
Y0165237D01*
X0138912Y0164983D01*
X0140436Y016346D02*
X014069Y0163714D01*
Y0163968D01*
X0140436D01*
Y0163714D01*
X014069D01*
X0140436Y016346D01*
X0140182Y0163206D01*
X0141706Y0164983D02*
X0141959Y0165237D01*
X0142467D01*
X0142721Y0164983D01*
Y0163968D01*
X0142467Y0163714D01*
X0141959D01*
X0141706Y0163968D01*
Y0164983D01*
X0143229D02*
X0143483Y0165237D01*
X0143991D01*
X0144245Y0164983D01*
Y0163968D01*
X0143991Y0163714D01*
X0143483D01*
X0143229Y0163968D01*
Y0164983D01*
X0144753D02*
X0145007Y0165237D01*
X0145514D01*
X0145768Y0164983D01*
Y0163968D01*
X0145514Y0163714D01*
X0145007D01*
X0144753Y0163968D01*
Y0164983D01*
X0146276Y0163714D02*
Y016473D01*
X014653D01*
X0146784Y0164476D01*
Y0163714D01*
Y0164476D01*
X0147038Y016473D01*
X0147292Y0164476D01*
Y0163714D01*
X01478D02*
Y016473D01*
X0148054D01*
X0148307Y0164476D01*
Y0163714D01*
Y0164476D01*
X0148561Y016473D01*
X0148815Y0164476D01*
Y0163714D01*
X0156434Y0168031D02*
X015618Y0168285D01*
X0155672D01*
X0155418Y0168031D01*
Y0167016D01*
X0155672Y0166762D01*
X015618D01*
X0156434Y0167016D01*
X0157196Y0166762D02*
X0157704D01*
X0157957Y0167016D01*
Y0167524D01*
X0157704Y0167778D01*
X0157196D01*
X0156942Y0167524D01*
Y0167016D01*
X0157196Y0166762D01*
X0158465D02*
Y0167778D01*
X0159227D01*
X0159481Y0167524D01*
Y0166762D01*
X0159989D02*
X0160751D01*
X0161004Y0167016D01*
X0160751Y016727D01*
X0160243D01*
X0159989Y0167524D01*
X0160243Y0167778D01*
X0161004D01*
X0161766Y0168031D02*
Y0167778D01*
X0161512D01*
X016202D01*
X0161766D01*
Y0167016D01*
X016202Y0166762D01*
X0163036Y0167778D02*
X0163544D01*
X0163798Y0167524D01*
Y0166762D01*
X0163036D01*
X0162782Y0167016D01*
X0163036Y016727D01*
X0163798D01*
X0164305Y0166762D02*
Y0167778D01*
X0165067D01*
X0165321Y0167524D01*
Y0166762D01*
X0166083Y0168031D02*
Y0167778D01*
X0165829D01*
X0166337D01*
X0166083D01*
Y0167016D01*
X0166337Y0166762D01*
X015618Y0133234D02*
Y0134757D01*
X0155418Y0133996D01*
X0156434D01*
X0156942Y0133234D02*
Y0133488D01*
X0157196D01*
Y0133234D01*
X0156942D01*
X0158211Y0134503D02*
X0158465Y0134757D01*
X0158973D01*
X0159227Y0134503D01*
Y013425D01*
X0158973Y0133996D01*
X0158719D01*
X0158973D01*
X0159227Y0133742D01*
Y0133488D01*
X0158973Y0133234D01*
X0158465D01*
X0158211Y0133488D01*
X0155418Y0140599D02*
X0155672Y0140853D01*
X015618D01*
X0156434Y0140599D01*
Y0140346D01*
X015618Y0140092D01*
X0155926D01*
X015618D01*
X0156434Y0139838D01*
Y0139584D01*
X015618Y013933D01*
X0155672D01*
X0155418Y0139584D01*
X0156942Y013933D02*
Y0139584D01*
X0157196D01*
Y013933D01*
X0156942D01*
X0159227Y0140853D02*
X0158211D01*
Y0140092D01*
X0158719Y0140346D01*
X0158973D01*
X0159227Y0140092D01*
Y0139584D01*
X0158973Y013933D01*
X0158465D01*
X0158211Y0139584D01*
X0155418Y0146695D02*
X0155672Y0146949D01*
X015618D01*
X0156434Y0146695D01*
Y0146442D01*
X015618Y0146188D01*
X0155926D01*
X015618D01*
X0156434Y0145934D01*
Y014568D01*
X015618Y0145426D01*
X0155672D01*
X0155418Y014568D01*
X0156942Y0145426D02*
Y014568D01*
X0157196D01*
Y0145426D01*
X0156942D01*
X0158973D02*
Y0146949D01*
X0158211Y0146188D01*
X0159227D01*
X0155418Y0149743D02*
X0155672Y0149997D01*
X015618D01*
X0156434Y0149743D01*
Y014949D01*
X015618Y0149236D01*
X0155926D01*
X015618D01*
X0156434Y0148982D01*
Y0148728D01*
X015618Y0148474D01*
X0155672D01*
X0155418Y0148728D01*
X0156942Y0148474D02*
Y0148728D01*
X0157196D01*
Y0148474D01*
X0156942D01*
X0158973D02*
Y0149997D01*
X0158211Y0149236D01*
X0159227D01*
X0155418Y0152791D02*
X0155672Y0153045D01*
X015618D01*
X0156434Y0152791D01*
Y0152538D01*
X015618Y0152284D01*
X0155926D01*
X015618D01*
X0156434Y015203D01*
Y0151776D01*
X015618Y0151522D01*
X0155672D01*
X0155418Y0151776D01*
X0156942Y0151522D02*
Y0151776D01*
X0157196D01*
Y0151522D01*
X0156942D01*
X0158973D02*
Y0153045D01*
X0158211Y0152284D01*
X0159227D01*
X0155418Y0158887D02*
X0155672Y0159141D01*
X015618D01*
X0156434Y0158887D01*
Y0158634D01*
X015618Y015838D01*
X0155926D01*
X015618D01*
X0156434Y0158126D01*
Y0157872D01*
X015618Y0157618D01*
X0155672D01*
X0155418Y0157872D01*
X0156942Y0157618D02*
Y0157872D01*
X0157196D01*
Y0157618D01*
X0156942D01*
X0159227Y0159141D02*
X0158211D01*
Y015838D01*
X0158719Y0158634D01*
X0158973D01*
X0159227Y015838D01*
Y0157872D01*
X0158973Y0157618D01*
X0158465D01*
X0158211Y0157872D01*
X015618Y0163714D02*
Y0165237D01*
X0155418Y0164476D01*
X0156434D01*
X0156942Y0163714D02*
Y0163968D01*
X0157196D01*
Y0163714D01*
X0156942D01*
X0158211Y0164983D02*
X0158465Y0165237D01*
X0158973D01*
X0159227Y0164983D01*
Y016473D01*
X0158973Y0164476D01*
X0158719D01*
X0158973D01*
X0159227Y0164222D01*
Y0163968D01*
X0158973Y0163714D01*
X0158465D01*
X0158211Y0163968D01*
X0170908Y0168031D02*
X0170655Y0168285D01*
X0170147D01*
X0169893Y0168031D01*
Y0167016D01*
X0170147Y0166762D01*
X0170655D01*
X0170908Y0167016D01*
Y0167524D01*
X0170401D01*
X0172178Y0166762D02*
X017167D01*
X0171416Y0167016D01*
Y0167524D01*
X017167Y0167778D01*
X0172178D01*
X0172432Y0167524D01*
Y016727D01*
X0171416D01*
X017294Y0167778D02*
Y0166762D01*
Y016727D01*
X0173194Y0167524D01*
X0173448Y0167778D01*
X0173702D01*
X0174463Y0168285D02*
Y0166762D01*
X0175225D01*
X0175479Y0167016D01*
Y016727D01*
Y0167524D01*
X0175225Y0167778D01*
X0174463D01*
X0176749Y0166762D02*
X0176241D01*
X0175987Y0167016D01*
Y0167524D01*
X0176241Y0167778D01*
X0176749D01*
X0177002Y0167524D01*
Y016727D01*
X0175987D01*
X017751Y0167778D02*
Y0166762D01*
Y016727D01*
X0177764Y0167524D01*
X0178018Y0167778D01*
X0178272D01*
X0170908Y0137551D02*
X0170655Y0137805D01*
X0170147D01*
X0169893Y0137551D01*
Y0136536D01*
X0170147Y0136282D01*
X0170655D01*
X0170908Y0136536D01*
Y0137044D01*
X0170401D01*
X0171416Y0137805D02*
Y0136282D01*
X0172178D01*
X0172432Y0136536D01*
Y013679D01*
X0172178Y0137044D01*
X0171416D01*
X0172178D01*
X0172432Y0137298D01*
Y0137551D01*
X0172178Y0137805D01*
X0171416D01*
X0173702D02*
X0173194D01*
X017294Y0137551D01*
Y0136536D01*
X0173194Y0136282D01*
X0173702D01*
X0173955Y0136536D01*
Y0137551D01*
X0173702Y0137805D01*
X0170908Y0140599D02*
X0170655Y0140853D01*
X0170147D01*
X0169893Y0140599D01*
Y0139584D01*
X0170147Y013933D01*
X0170655D01*
X0170908Y0139584D01*
Y0140092D01*
X0170401D01*
X0171416Y0140853D02*
Y013933D01*
X0172178D01*
X0172432Y0139584D01*
Y0139838D01*
X0172178Y0140092D01*
X0171416D01*
X0172178D01*
X0172432Y0140346D01*
Y0140599D01*
X0172178Y0140853D01*
X0171416D01*
X0173955Y0140599D02*
X0173702Y0140853D01*
X0173194D01*
X017294Y0140599D01*
Y0140346D01*
X0173194Y0140092D01*
X0173702D01*
X0173955Y0139838D01*
Y0139584D01*
X0173702Y013933D01*
X0173194D01*
X017294Y0139584D01*
X0170908Y0143647D02*
X0170655Y0143901D01*
X0170147D01*
X0169893Y0143647D01*
Y0142632D01*
X0170147Y0142378D01*
X0170655D01*
X0170908Y0142632D01*
Y014314D01*
X0170401D01*
X0171416Y0143901D02*
Y0142378D01*
X0172178D01*
X0172432Y0142632D01*
Y0142886D01*
X0172178Y014314D01*
X0171416D01*
X0172178D01*
X0172432Y0143394D01*
Y0143647D01*
X0172178Y0143901D01*
X0171416D01*
X017294D02*
Y0142378D01*
X0173955D01*
X0170908Y0155839D02*
X0170655Y0156093D01*
X0170147D01*
X0169893Y0155839D01*
Y0154824D01*
X0170147Y015457D01*
X0170655D01*
X0170908Y0154824D01*
Y0155332D01*
X0170401D01*
X0171416Y0156093D02*
X0172432D01*
X0171924D01*
Y015457D01*
X017294Y0156093D02*
Y015457D01*
X0173955D01*
X0170908Y0158887D02*
X0170655Y0159141D01*
X0170147D01*
X0169893Y0158887D01*
Y0157872D01*
X0170147Y0157618D01*
X0170655D01*
X0170908Y0157872D01*
Y015838D01*
X0170401D01*
X0171416Y0159141D02*
X0172432D01*
X0171924D01*
Y0157618D01*
X0173955Y0158887D02*
X0173702Y0159141D01*
X0173194D01*
X017294Y0158887D01*
Y0158634D01*
X0173194Y015838D01*
X0173702D01*
X0173955Y0158126D01*
Y0157872D01*
X0173702Y0157618D01*
X0173194D01*
X017294Y0157872D01*
X0170908Y0161935D02*
X0170655Y0162189D01*
X0170147D01*
X0169893Y0161935D01*
Y016092D01*
X0170147Y0160666D01*
X0170655D01*
X0170908Y016092D01*
Y0161428D01*
X0170401D01*
X0171416Y0162189D02*
X0172432D01*
X0171924D01*
Y0160666D01*
X0173702Y0162189D02*
X0173194D01*
X017294Y0161935D01*
Y016092D01*
X0173194Y0160666D01*
X0173702D01*
X0173955Y016092D01*
Y0161935D01*
X0173702Y0162189D01*
X0182844Y0168031D02*
X018259Y0168285D01*
X0182082D01*
X0181828Y0168031D01*
Y0167778D01*
X0182082Y0167524D01*
X018259D01*
X0182844Y016727D01*
Y0167016D01*
X018259Y0166762D01*
X0182082D01*
X0181828Y0167016D01*
X0183605Y0168031D02*
Y0167778D01*
X0183352D01*
X0183859D01*
X0183605D01*
Y0167016D01*
X0183859Y0166762D01*
X0184621D02*
X0185129D01*
X0184875D01*
Y0167778D01*
X0184621D01*
X0186145Y0166762D02*
Y0168031D01*
Y0167524D01*
X0185891D01*
X0186399D01*
X0186145D01*
Y0168031D01*
X0186399Y0168285D01*
X0187414Y0166762D02*
Y0168031D01*
Y0167524D01*
X018716D01*
X0187668D01*
X0187414D01*
Y0168031D01*
X0187668Y0168285D01*
X0189192Y0166762D02*
X0188684D01*
X018843Y0167016D01*
Y0167524D01*
X0188684Y0167778D01*
X0189192D01*
X0189446Y0167524D01*
Y016727D01*
X018843D01*
X0189953Y0166762D02*
Y0167778D01*
X0190715D01*
X0190969Y0167524D01*
Y0166762D01*
X0192239D02*
X0191731D01*
X0191477Y0167016D01*
Y0167524D01*
X0191731Y0167778D01*
X0192239D01*
X0192493Y0167524D01*
Y016727D01*
X0191477D01*
X0193Y0167778D02*
Y0166762D01*
Y016727D01*
X0193254Y0167524D01*
X0193508Y0167778D01*
X0193762D01*
X0196047Y0168285D02*
Y0166762D01*
X0196809D01*
X0197063Y0167016D01*
Y016727D01*
X0196809Y0167524D01*
X0196047D01*
X0196809D01*
X0197063Y0167778D01*
Y0168031D01*
X0196809Y0168285D01*
X0196047D01*
X0198333D02*
X0197825D01*
X0197571Y0168031D01*
Y0167016D01*
X0197825Y0166762D01*
X0198333D01*
X0198587Y0167016D01*
Y0168031D01*
X0198333Y0168285D01*
X0199094D02*
X020011D01*
X0199602D01*
Y0166762D01*
X0200618Y0168285D02*
X0201634D01*
X0201126D01*
Y0166762D01*
X0202903Y0168285D02*
X0202395D01*
X0202141Y0168031D01*
Y0167016D01*
X0202395Y0166762D01*
X0202903D01*
X0203157Y0167016D01*
Y0168031D01*
X0202903Y0168285D01*
X0203665Y0166762D02*
Y0168285D01*
X0204173Y0167778D01*
X0204681Y0168285D01*
Y0166762D01*
X0209252Y0168285D02*
X0208237D01*
Y0167524D01*
X0208744D01*
X0208237D01*
Y0166762D01*
X020976D02*
X0210268D01*
X0210014D01*
Y0168285D01*
X020976D01*
X0211792Y0166762D02*
X0211284D01*
X021103Y0167016D01*
Y0167524D01*
X0211284Y0167778D01*
X0211792D01*
X0212045Y0167524D01*
Y016727D01*
X021103D01*
X0212553Y0167778D02*
X0213569Y0166762D01*
X0213061Y016727D01*
X0213569Y0167778D01*
X0212553Y0166762D01*
X0222203Y0168031D02*
X0221949Y0168285D01*
X0221442D01*
X0221188Y0168031D01*
Y0167778D01*
X0221442Y0167524D01*
X0221949D01*
X0222203Y016727D01*
Y0167016D01*
X0221949Y0166762D01*
X0221442D01*
X0221188Y0167016D01*
X0222965Y0168031D02*
Y0167778D01*
X0222711D01*
X0223219D01*
X0222965D01*
Y0167016D01*
X0223219Y0166762D01*
X0223981D02*
X0224489D01*
X0224235D01*
Y0167778D01*
X0223981D01*
X0225504Y0166762D02*
Y0168031D01*
Y0167524D01*
X022525D01*
X0225758D01*
X0225504D01*
Y0168031D01*
X0225758Y0168285D01*
X0226774Y0166762D02*
Y0168031D01*
Y0167524D01*
X022652D01*
X0227028D01*
X0226774D01*
Y0168031D01*
X0227028Y0168285D01*
X0228551Y0166762D02*
X0228043D01*
X0227789Y0167016D01*
Y0167524D01*
X0228043Y0167778D01*
X0228551D01*
X0228805Y0167524D01*
Y016727D01*
X0227789D01*
X0229313Y0166762D02*
Y0167778D01*
X0230075D01*
X0230329Y0167524D01*
Y0166762D01*
X0231598D02*
X023109D01*
X0230836Y0167016D01*
Y0167524D01*
X023109Y0167778D01*
X0231598D01*
X0231852Y0167524D01*
Y016727D01*
X0230836D01*
X023236Y0167778D02*
Y0166762D01*
Y016727D01*
X0232614Y0167524D01*
X0232868Y0167778D01*
X0233122D01*
X0235407Y0168285D02*
X0236423D01*
X0235915D01*
Y0166762D01*
X0237692Y0168285D02*
X0237184D01*
X0236931Y0168031D01*
Y0167016D01*
X0237184Y0166762D01*
X0237692D01*
X0237946Y0167016D01*
Y0168031D01*
X0237692Y0168285D01*
X0238454Y0166762D02*
Y0168285D01*
X0239216D01*
X023947Y0168031D01*
Y0167524D01*
X0239216Y016727D01*
X0238454D01*
M02*
