G04*
G04 #@! TF.GenerationSoftware,Altium Limited,Altium Designer,21.8.1 (53)*
G04*
G04 Layer_Color=2752767*
%FSTAX43Y43*%
%MOMM*%
G71*
G04*
G04 #@! TF.SameCoordinates,454ED16F-8ED5-4277-8FB5-D7BBC8B68C5D*
G04*
G04*
G04 #@! TF.FilePolarity,Positive*
G04*
G01*
G75*
%ADD23C,0.381*%
%ADD27C,0.254*%
%ADD29C,0.051*%
%ADD30C,0.406*%
D23*
X0100663Y0124873D02*
X0275926D01*
X0100663Y0121063D02*
X0275926D01*
X0100663Y0117253D02*
X0275926D01*
Y0128683D01*
X0100663D02*
X0275926D01*
X0100663Y0117253D02*
Y0128683D01*
X0258277Y0117253D02*
Y0128683D01*
X0239334Y0117253D02*
Y0128683D01*
X0224352Y0117253D02*
Y0128683D01*
X0186263Y0117253D02*
Y0128683D01*
X0167625Y0117253D02*
Y0128683D01*
X0154776Y0117253D02*
Y0128683D01*
X0128367Y0117253D02*
Y0128683D01*
X0114655Y0117253D02*
Y0128683D01*
D27*
X0102181Y0122206D02*
X0103875D01*
Y0123899D01*
X0102181D02*
X0103875D01*
X0102181Y0122206D02*
Y0123899D01*
X025942Y0123221D02*
X0259928Y0122206D01*
X0260436Y0123221D01*
X0260944Y0123475D02*
X0261198Y0123729D01*
X0261706D01*
X026196Y0123475D01*
Y0123221D01*
X0261706Y0122968D01*
X0261452D01*
X0261706D01*
X026196Y0122714D01*
Y012246D01*
X0261706Y0122206D01*
X0261198D01*
X0260944Y012246D01*
X0263483Y0123729D02*
X0262467D01*
Y0122968D01*
X0262975Y0123221D01*
X0263229D01*
X0263483Y0122968D01*
Y012246D01*
X0263229Y0122206D01*
X0262721D01*
X0262467Y012246D01*
X0263991Y0123729D02*
Y0122206D01*
Y0122968D01*
X0264245Y0123221D01*
X0264753D01*
X0265007Y0122968D01*
Y0122206D01*
X0265514D02*
X0266022D01*
X0265768D01*
Y0123729D01*
X0265514Y0123475D01*
X02678Y0123729D02*
X0266784D01*
Y0122968D01*
X0267292Y0123221D01*
X0267546D01*
X02678Y0122968D01*
Y012246D01*
X0267546Y0122206D01*
X0267038D01*
X0266784Y012246D01*
X0240477Y0122206D02*
Y0123729D01*
X0241239D01*
X0241493Y0123475D01*
Y0122968D01*
X0241239Y0122714D01*
X0240477D01*
X0240985D02*
X0241493Y0122206D01*
X0242255D02*
X0242762D01*
X0243016Y012246D01*
Y0122968D01*
X0242762Y0123221D01*
X0242255D01*
X0242001Y0122968D01*
Y012246D01*
X0242255Y0122206D01*
X0243524Y0123221D02*
Y012246D01*
X0243778Y0122206D01*
X024454D01*
Y0123221D01*
X0245048Y0122206D02*
Y0123221D01*
X0245809D01*
X0246063Y0122968D01*
Y0122206D01*
X0247587Y0123729D02*
Y0122206D01*
X0246825D01*
X0246571Y012246D01*
Y0122968D01*
X0246825Y0123221D01*
X0247587D01*
X0248856Y0122206D02*
X0248349D01*
X0248095Y012246D01*
Y0122968D01*
X0248349Y0123221D01*
X0248856D01*
X024911Y0122968D01*
Y0122714D01*
X0248095D01*
X0250634Y0123729D02*
Y0122206D01*
X0249872D01*
X0249618Y012246D01*
Y0122968D01*
X0249872Y0123221D01*
X0250634D01*
X0225495Y0123729D02*
Y0122714D01*
X0226003Y0122206D01*
X0226511Y0122714D01*
Y0123729D01*
X0227018Y0122206D02*
X0227526D01*
X0227272D01*
Y0123221D01*
X0227018D01*
X0228542D02*
X022905D01*
X0229304Y0122968D01*
Y0122206D01*
X0228542D01*
X0228288Y012246D01*
X0228542Y0122714D01*
X0229304D01*
X0187406Y0123729D02*
X0188422D01*
X0187914D01*
Y0122206D01*
X0189184D02*
X0189692D01*
X0189946Y012246D01*
Y0122968D01*
X0189692Y0123221D01*
X0189184D01*
X018893Y0122968D01*
Y012246D01*
X0189184Y0122206D01*
X0190453Y0121698D02*
Y0123221D01*
X0191215D01*
X0191469Y0122968D01*
Y012246D01*
X0191215Y0122206D01*
X0190453D01*
X01935Y0123729D02*
Y0122206D01*
X0194516D01*
X0195278Y0123221D02*
X0195786D01*
X019604Y0122968D01*
Y0122206D01*
X0195278D01*
X0195024Y012246D01*
X0195278Y0122714D01*
X019604D01*
X0196547Y0123221D02*
Y012246D01*
X0196801Y0122206D01*
X0197563D01*
Y0121952D01*
X0197309Y0121698D01*
X0197055D01*
X0197563Y0122206D02*
Y0123221D01*
X0198833Y0122206D02*
X0198325D01*
X0198071Y012246D01*
Y0122968D01*
X0198325Y0123221D01*
X0198833D01*
X0199087Y0122968D01*
Y0122714D01*
X0198071D01*
X0199594Y0123221D02*
Y0122206D01*
Y0122714D01*
X0199848Y0122968D01*
X0200102Y0123221D01*
X0200356D01*
X0202641Y0122968D02*
X0203657D01*
X0205688Y0123729D02*
Y0122206D01*
X020645D01*
X0206704Y012246D01*
Y0122714D01*
X020645Y0122968D01*
X0205688D01*
X020645D01*
X0206704Y0123221D01*
Y0123475D01*
X020645Y0123729D01*
X0205688D01*
X0207466Y0122206D02*
X0207974D01*
X0208228Y012246D01*
Y0122968D01*
X0207974Y0123221D01*
X0207466D01*
X0207212Y0122968D01*
Y012246D01*
X0207466Y0122206D01*
X0208989Y0123475D02*
Y0123221D01*
X0208736D01*
X0209243D01*
X0208989D01*
Y012246D01*
X0209243Y0122206D01*
X0210259Y0123475D02*
Y0123221D01*
X0210005D01*
X0210513D01*
X0210259D01*
Y012246D01*
X0210513Y0122206D01*
X0211529D02*
X0212036D01*
X021229Y012246D01*
Y0122968D01*
X0212036Y0123221D01*
X0211529D01*
X0211275Y0122968D01*
Y012246D01*
X0211529Y0122206D01*
X0212798D02*
Y0123221D01*
X0213052D01*
X0213306Y0122968D01*
Y0122206D01*
Y0122968D01*
X021356Y0123221D01*
X0213814Y0122968D01*
Y0122206D01*
X0215845Y0123729D02*
Y0122206D01*
X0216861D01*
X0217623Y0123221D02*
X021813D01*
X0218384Y0122968D01*
Y0122206D01*
X0217623D01*
X0217369Y012246D01*
X0217623Y0122714D01*
X0218384D01*
X0218892Y0123221D02*
Y012246D01*
X0219146Y0122206D01*
X0219908D01*
Y0121952D01*
X0219654Y0121698D01*
X02194D01*
X0219908Y0122206D02*
Y0123221D01*
X0221177Y0122206D02*
X022067D01*
X0220416Y012246D01*
Y0122968D01*
X022067Y0123221D01*
X0221177D01*
X0221431Y0122968D01*
Y0122714D01*
X0220416D01*
X0221939Y0123221D02*
Y0122206D01*
Y0122714D01*
X0222193Y0122968D01*
X0222447Y0123221D01*
X0222701D01*
X0168768Y0122206D02*
Y0123729D01*
X016953D01*
X0169783Y0123475D01*
Y0122968D01*
X016953Y0122714D01*
X0168768D01*
X0169276D02*
X0169783Y0122206D01*
X0170545D02*
X0171053D01*
X0171307Y012246D01*
Y0122968D01*
X0171053Y0123221D01*
X0170545D01*
X0170291Y0122968D01*
Y012246D01*
X0170545Y0122206D01*
X0171815Y0123221D02*
Y012246D01*
X0172069Y0122206D01*
X0172831D01*
Y0123221D01*
X0173338Y0122206D02*
Y0123221D01*
X01741D01*
X0174354Y0122968D01*
Y0122206D01*
X0175878Y0123729D02*
Y0122206D01*
X0175116D01*
X0174862Y012246D01*
Y0122968D01*
X0175116Y0123221D01*
X0175878D01*
X0155919Y0122206D02*
Y0123729D01*
X015668D01*
X0156934Y0123475D01*
Y0122968D01*
X015668Y0122714D01*
X0155919D01*
X0157442Y0123729D02*
X0158458D01*
X015795D01*
Y0122206D01*
X0158966Y0123729D02*
Y0122206D01*
Y0122968D01*
X0159981D01*
Y0123729D01*
Y0122206D01*
X012951Y0123475D02*
X0129764Y0123729D01*
X0130272D01*
X0130526Y0123475D01*
Y012246D01*
X0130272Y0122206D01*
X0129764D01*
X012951Y012246D01*
Y0123475D01*
X0131288Y0121952D02*
X0131542Y0122206D01*
Y012246D01*
X0131288D01*
Y0122206D01*
X0131542D01*
X0131288Y0121952D01*
X0131034Y0121698D01*
X0132557Y0122206D02*
X0133065D01*
X0132811D01*
Y0123729D01*
X0132557Y0123475D01*
X0134842Y0123729D02*
X0133827D01*
Y0122968D01*
X0134335Y0123221D01*
X0134589D01*
X0134842Y0122968D01*
Y012246D01*
X0134589Y0122206D01*
X0134081D01*
X0133827Y012246D01*
X013535Y0123475D02*
X0135604Y0123729D01*
X0136112D01*
X0136366Y0123475D01*
Y012246D01*
X0136112Y0122206D01*
X0135604D01*
X013535Y012246D01*
Y0123475D01*
X0136874Y0122206D02*
Y0123221D01*
X0137128D01*
X0137382Y0122968D01*
Y0122206D01*
Y0122968D01*
X0137636Y0123221D01*
X013789Y0122968D01*
Y0122206D01*
X0138397D02*
Y0123221D01*
X0138651D01*
X0138905Y0122968D01*
Y0122206D01*
Y0122968D01*
X0139159Y0123221D01*
X0139413Y0122968D01*
Y0122206D01*
X0141952D02*
X0141444Y0122714D01*
Y0123221D01*
X0141952Y0123729D01*
X014373D02*
X0142714D01*
Y0122968D01*
X0143222Y0123221D01*
X0143476D01*
X014373Y0122968D01*
Y012246D01*
X0143476Y0122206D01*
X0142968D01*
X0142714Y012246D01*
X0144491Y0121952D02*
X0144745Y0122206D01*
Y012246D01*
X0144491D01*
Y0122206D01*
X0144745D01*
X0144491Y0121952D01*
X0144237Y0121698D01*
X0145761Y012246D02*
X0146015Y0122206D01*
X0146523D01*
X0146777Y012246D01*
Y0123475D01*
X0146523Y0123729D01*
X0146015D01*
X0145761Y0123475D01*
Y0123221D01*
X0146015Y0122968D01*
X0146777D01*
X0147284Y0122206D02*
X0147792D01*
X0147538D01*
Y0123729D01*
X0147284Y0123475D01*
X0148554Y0122206D02*
Y0123221D01*
X0148808D01*
X0149062Y0122968D01*
Y0122206D01*
Y0122968D01*
X0149316Y0123221D01*
X014957Y0122968D01*
Y0122206D01*
X0150078D02*
X0150585D01*
X0150331D01*
Y0123221D01*
X0150078D01*
X0151347Y0122206D02*
X0151855D01*
X0151601D01*
Y0123729D01*
X0151347D01*
X0152617Y0122206D02*
X0153125Y0122714D01*
Y0123221D01*
X0152617Y0123729D01*
X0115798Y011865D02*
X0116052Y0118396D01*
X011656D01*
X0116813Y011865D01*
Y0119665D01*
X011656Y0119919D01*
X0116052D01*
X0115798Y0119665D01*
Y0119411D01*
X0116052Y0119158D01*
X0116813D01*
X0118337Y0119919D02*
X0117829Y0119665D01*
X0117321Y0119158D01*
Y011865D01*
X0117575Y0118396D01*
X0118083D01*
X0118337Y011865D01*
Y0118904D01*
X0118083Y0119158D01*
X0117321D01*
X0120368Y0119919D02*
X0121384D01*
X0120876D01*
Y0118396D01*
X0122146D02*
X0122654D01*
X0122907Y011865D01*
Y0119158D01*
X0122654Y0119411D01*
X0122146D01*
X0121892Y0119158D01*
Y011865D01*
X0122146Y0118396D01*
X0123669Y0119665D02*
Y0119411D01*
X0123415D01*
X0123923D01*
X0123669D01*
Y011865D01*
X0123923Y0118396D01*
X0124939Y0119411D02*
X0125447D01*
X0125701Y0119158D01*
Y0118396D01*
X0124939D01*
X0124685Y011865D01*
X0124939Y0118904D01*
X0125701D01*
X0126208Y0118396D02*
X0126716D01*
X0126462D01*
Y0119919D01*
X0126208D01*
X0115798Y012246D02*
X0116052Y0122206D01*
X011656D01*
X0116813Y012246D01*
Y0123475D01*
X011656Y0123729D01*
X0116052D01*
X0115798Y0123475D01*
Y0123221D01*
X0116052Y0122968D01*
X0116813D01*
X0118337Y0123729D02*
X0117829Y0123475D01*
X0117321Y0122968D01*
Y012246D01*
X0117575Y0122206D01*
X0118083D01*
X0118337Y012246D01*
Y0122714D01*
X0118083Y0122968D01*
X0117321D01*
D29*
X0004523Y0167246D02*
X0005031D01*
Y0167754D01*
X0004523D02*
X0005031D01*
X0004523Y0167246D02*
Y0167754D01*
X0004905Y0167246D02*
X0005413D01*
Y0167754D01*
X0004905D02*
X0005413D01*
X0004905Y0167246D02*
Y0167754D01*
X0005288Y0167246D02*
X0005796D01*
Y0167754D01*
X0005288D02*
X0005796D01*
X0005288Y0167246D02*
Y0167754D01*
X0008746Y0168458D02*
X0009254D01*
Y0168966D01*
X0008746D02*
X0009254D01*
X0008746Y0168458D02*
Y0168966D01*
X000567Y0167246D02*
X0006178D01*
Y0167754D01*
X000567D02*
X0006178D01*
X000567Y0167246D02*
Y0167754D01*
X0003896Y0168896D02*
X0004404D01*
Y0169404D01*
X0003896D02*
X0004404D01*
X0003896Y0168896D02*
Y0169404D01*
X0003346Y0168896D02*
X0003854D01*
Y0169404D01*
X0003346D02*
X0003854D01*
X0003346Y0168896D02*
Y0169404D01*
X0001871Y0167071D02*
X0002379D01*
Y0167579D01*
X0001871D02*
X0002379D01*
X0001871Y0167071D02*
Y0167579D01*
X0002496Y0168696D02*
X0003004D01*
Y0169204D01*
X0002496D02*
X0003004D01*
X0002496Y0168696D02*
Y0169204D01*
X0002296Y0169021D02*
X0002804D01*
Y0169529D01*
X0002296D02*
X0002804D01*
X0002296Y0169021D02*
Y0169529D01*
X0008746Y0167976D02*
X0009254D01*
Y0168484D01*
X0008746D02*
X0009254D01*
X0008746Y0167976D02*
Y0168484D01*
X0003121Y0167246D02*
X0003629D01*
Y0167754D01*
X0003121D02*
X0003629D01*
X0003121Y0167246D02*
Y0167754D01*
X0002496Y0167246D02*
X0003004D01*
Y0167754D01*
X0002496D02*
X0003004D01*
X0002496Y0167246D02*
Y0167754D01*
X0001346Y0167246D02*
X0001854D01*
Y0167754D01*
X0001346D02*
X0001854D01*
X0001346Y0167246D02*
Y0167754D01*
X0000921Y0167246D02*
X0001429D01*
Y0167754D01*
X0000921D02*
X0001429D01*
X0000921Y0167246D02*
Y0167754D01*
X0000721Y0166846D02*
X0001229D01*
Y0167354D01*
X0000721D02*
X0001229D01*
X0000721Y0166846D02*
Y0167354D01*
X0000719Y0167668D02*
X0001227D01*
Y0168176D01*
X0000719D02*
X0001227D01*
X0000719Y0167668D02*
Y0168176D01*
X0004141Y0167246D02*
X0004649D01*
Y0167754D01*
X0004141D02*
X0004649D01*
X0004141Y0167246D02*
Y0167754D01*
X0008746Y0169371D02*
X0009254D01*
Y0169879D01*
X0008746D02*
X0009254D01*
X0008746Y0169371D02*
Y0169879D01*
X0005476Y0169371D02*
X0005984D01*
Y0169879D01*
X0005476D02*
X0005984D01*
X0005476Y0169371D02*
Y0169879D01*
X0007556Y0169371D02*
X0008064D01*
Y0169879D01*
X0007556D02*
X0008064D01*
X0007556Y0169371D02*
Y0169879D01*
X0008746Y0168889D02*
X0009254D01*
Y0169397D01*
X0008746D02*
X0009254D01*
X0008746Y0168889D02*
Y0169397D01*
X0006516Y0169371D02*
X0007024D01*
Y0169879D01*
X0006516D02*
X0007024D01*
X0006516Y0169371D02*
Y0169879D01*
X0008076Y0169371D02*
X0008584D01*
Y0169879D01*
X0008076D02*
X0008584D01*
X0008076Y0169371D02*
Y0169879D01*
X0004436Y0169371D02*
X0004944D01*
Y0169879D01*
X0004436D02*
X0004944D01*
X0004436Y0169371D02*
Y0169879D01*
X0004956Y0169371D02*
X0005464D01*
Y0169879D01*
X0004956D02*
X0005464D01*
X0004956Y0169371D02*
Y0169879D01*
X0004436Y0168851D02*
X0004944D01*
Y0169359D01*
X0004436D02*
X0004944D01*
X0004436Y0168851D02*
Y0169359D01*
X0008076Y0168851D02*
X0008584D01*
Y0169359D01*
X0008076D02*
X0008584D01*
X0008076Y0168851D02*
Y0169359D01*
X0007036Y0169371D02*
X0007544D01*
Y0169879D01*
X0007036D02*
X0007544D01*
X0007036Y0169371D02*
Y0169879D01*
X0005996Y0169371D02*
X0006504D01*
Y0169879D01*
X0005996D02*
X0006504D01*
X0005996Y0169371D02*
Y0169879D01*
X000316Y0163849D02*
X0003668D01*
Y0164357D01*
X000316D02*
X0003668D01*
X000316Y0163849D02*
Y0164357D01*
Y0163499D02*
X0003668D01*
Y0164007D01*
X000316D02*
X0003668D01*
X000316Y0163499D02*
Y0164007D01*
Y0164199D02*
X0003668D01*
Y0164707D01*
X000316D02*
X0003668D01*
X000316Y0164199D02*
Y0164707D01*
X0003623Y0168648D02*
X0004131D01*
Y0169156D01*
X0003623D02*
X0004131D01*
X0003623Y0168648D02*
Y0169156D01*
X0006521Y0164546D02*
X0007029D01*
Y0165054D01*
X0006521D02*
X0007029D01*
X0006521Y0164546D02*
Y0165054D01*
X0004946Y0168846D02*
X0005454D01*
Y0169354D01*
X0004946D02*
X0005454D01*
X0004946Y0168846D02*
Y0169354D01*
X0005446Y0168846D02*
X0005954D01*
Y0169354D01*
X0005446D02*
X0005954D01*
X0005446Y0168846D02*
Y0169354D01*
X0007021Y0164546D02*
X0007529D01*
Y0165054D01*
X0007021D02*
X0007529D01*
X0007021Y0164546D02*
Y0165054D01*
X0005996Y0168846D02*
X0006504D01*
Y0169354D01*
X0005996D02*
X0006504D01*
X0005996Y0168846D02*
Y0169354D01*
X0007446Y0165321D02*
X0007954D01*
Y0165829D01*
X0007446D02*
X0007954D01*
X0007446Y0165321D02*
Y0165829D01*
X0006496Y0168846D02*
X0007004D01*
Y0169354D01*
X0006496D02*
X0007004D01*
X0006496Y0168846D02*
Y0169354D01*
X0007946Y0165321D02*
X0008454D01*
Y0165829D01*
X0007946D02*
X0008454D01*
X0007946Y0165321D02*
Y0165829D01*
X0007046Y0168846D02*
X0007554D01*
Y0169354D01*
X0007046D02*
X0007554D01*
X0007046Y0168846D02*
Y0169354D01*
X0008346Y0165696D02*
X0008854D01*
Y0166204D01*
X0008346D02*
X0008854D01*
X0008346Y0165696D02*
Y0166204D01*
X0007546Y0168846D02*
X0008054D01*
Y0169354D01*
X0007546D02*
X0008054D01*
X0007546Y0168846D02*
Y0169354D01*
X0008846Y0165696D02*
X0009354D01*
Y0166204D01*
X0008846D02*
X0009354D01*
X0008846Y0165696D02*
Y0166204D01*
X0005471Y0000646D02*
X0005979D01*
Y0001154D01*
X0005471D02*
X0005979D01*
X0005471Y0000646D02*
Y0001154D01*
X0008701Y0000646D02*
X0009209D01*
Y0001154D01*
X0008701D02*
X0009209D01*
X0008701Y0000646D02*
Y0001154D01*
X0004951Y0000646D02*
X0005459D01*
Y0001154D01*
X0004951D02*
X0005459D01*
X0004951Y0000646D02*
Y0001154D01*
X0003346Y0001096D02*
X0003854D01*
Y0001604D01*
X0003346D02*
X0003854D01*
X0003346Y0001096D02*
Y0001604D01*
X0003896Y0001096D02*
X0004404D01*
Y0001604D01*
X0003896D02*
X0004404D01*
X0003896Y0001096D02*
Y0001604D01*
X0000721Y0002346D02*
X0001229D01*
Y0002854D01*
X0000721D02*
X0001229D01*
X0000721Y0002346D02*
Y0002854D01*
X0001415Y000129D02*
X0001923D01*
Y0001798D01*
X0001415D02*
X0001923D01*
X0001415Y000129D02*
Y0001798D01*
X0000719Y0003168D02*
X0001227D01*
Y0003676D01*
X0000719D02*
X0001227D01*
X0000719Y0003168D02*
Y0003676D01*
X0000671Y0004246D02*
X0001179D01*
Y0004754D01*
X0000671D02*
X0001179D01*
X0000671Y0004246D02*
Y0004754D01*
X0004431Y0000646D02*
X0004939D01*
Y0001154D01*
X0004431D02*
X0004939D01*
X0004431Y0000646D02*
Y0001154D01*
X0008696Y0003811D02*
X0009204D01*
Y0004319D01*
X0008696D02*
X0009204D01*
X0008696Y0003811D02*
Y0004319D01*
X0008696Y0001143D02*
X0009204D01*
Y0001651D01*
X0008696D02*
X0009204D01*
X0008696Y0001143D02*
Y0001651D01*
X0008071Y0000646D02*
X0008579D01*
Y0001154D01*
X0008071D02*
X0008579D01*
X0008071Y0000646D02*
Y0001154D01*
X0001771Y0001296D02*
X0002279D01*
Y0001804D01*
X0001771D02*
X0002279D01*
X0001771Y0001296D02*
Y0001804D01*
X0001714Y000502D02*
X0002222D01*
Y0005528D01*
X0001714D02*
X0002222D01*
X0001714Y000502D02*
Y0005528D01*
X0003096Y0004596D02*
X0003604D01*
Y0005104D01*
X0003096D02*
X0003604D01*
X0003096Y0004596D02*
Y0005104D01*
X0005991Y0000646D02*
X0006499D01*
Y0001154D01*
X0005991D02*
X0006499D01*
X0005991Y0000646D02*
Y0001154D01*
X0007031Y0000646D02*
X0007539D01*
Y0001154D01*
X0007031D02*
X0007539D01*
X0007031Y0000646D02*
Y0001154D01*
X0006511Y0000646D02*
X0007019D01*
Y0001154D01*
X0006511D02*
X0007019D01*
X0006511Y0000646D02*
Y0001154D01*
X0007551Y0000646D02*
X0008059D01*
Y0001154D01*
X0007551D02*
X0008059D01*
X0007551Y0000646D02*
Y0001154D01*
X0006521Y0005596D02*
X0007029D01*
Y0006104D01*
X0006521D02*
X0007029D01*
X0006521Y0005596D02*
Y0006104D01*
X0004123Y0002747D02*
X0004631D01*
Y0003255D01*
X0004123D02*
X0004631D01*
X0004123Y0002747D02*
Y0003255D01*
X0004496Y0002746D02*
X0005004D01*
Y0003254D01*
X0004496D02*
X0005004D01*
X0004496Y0002746D02*
Y0003254D01*
X0007046Y0001196D02*
X0007554D01*
Y0001704D01*
X0007046D02*
X0007554D01*
X0007046Y0001196D02*
Y0001704D01*
X0008696Y0001686D02*
X0009204D01*
Y0002194D01*
X0008696D02*
X0009204D01*
X0008696Y0001686D02*
Y0002194D01*
Y0002228D02*
X0009204D01*
Y0002736D01*
X0008696D02*
X0009204D01*
X0008696Y0002228D02*
Y0002736D01*
X0008296Y0002771D02*
X0008804D01*
Y0003279D01*
X0008296D02*
X0008804D01*
X0008296Y0002771D02*
Y0003279D01*
X0008346Y0004921D02*
X0008854D01*
Y0005429D01*
X0008346D02*
X0008854D01*
X0008346Y0004921D02*
Y0005429D01*
X0007896Y0002771D02*
X0008404D01*
Y0003279D01*
X0007896D02*
X0008404D01*
X0007896Y0002771D02*
Y0003279D01*
X0008696Y0003291D02*
X0009204D01*
Y0003799D01*
X0008696D02*
X0009204D01*
X0008696Y0003291D02*
Y0003799D01*
X0008696Y0002771D02*
X0009204D01*
Y0003279D01*
X0008696D02*
X0009204D01*
X0008696Y0002771D02*
Y0003279D01*
X0008071Y0001166D02*
X0008579D01*
Y0001674D01*
X0008071D02*
X0008579D01*
X0008071Y0001166D02*
Y0001674D01*
X0004431Y0001166D02*
X0004939D01*
Y0001674D01*
X0004431D02*
X0004939D01*
X0004431Y0001166D02*
Y0001674D01*
X0007546Y0001196D02*
X0008054D01*
Y0001704D01*
X0007546D02*
X0008054D01*
X0007546Y0001196D02*
Y0001704D01*
X0002921Y0002921D02*
X0003429D01*
Y0003429D01*
X0002921D02*
X0003429D01*
X0002921Y0002921D02*
Y0003429D01*
X0002546Y0004821D02*
X0003054D01*
Y0005329D01*
X0002546D02*
X0003054D01*
X0002546Y0004821D02*
Y0005329D01*
X0002921Y0005846D02*
X0003429D01*
Y0006354D01*
X0002921D02*
X0003429D01*
X0002921Y0005846D02*
Y0006354D01*
X0002221Y0002921D02*
X0002729D01*
Y0003429D01*
X0002221D02*
X0002729D01*
X0002221Y0002921D02*
Y0003429D01*
X0005446Y0001196D02*
X0005954D01*
Y0001704D01*
X0005446D02*
X0005954D01*
X0005446Y0001196D02*
Y0001704D01*
X0007021Y0005596D02*
X0007529D01*
Y0006104D01*
X0007021D02*
X0007529D01*
X0007021Y0005596D02*
Y0006104D01*
X0005996Y0001196D02*
X0006504D01*
Y0001704D01*
X0005996D02*
X0006504D01*
X0005996Y0001196D02*
Y0001704D01*
X0003623Y0001344D02*
X0004131D01*
Y0001852D01*
X0003623D02*
X0004131D01*
X0003623Y0001344D02*
Y0001852D01*
X0006496Y0001196D02*
X0007004D01*
Y0001704D01*
X0006496D02*
X0007004D01*
X0006496Y0001196D02*
Y0001704D01*
X0004946Y0001196D02*
X0005454D01*
Y0001704D01*
X0004946D02*
X0005454D01*
X0004946Y0001196D02*
Y0001704D01*
X0007946Y0005246D02*
X0008454D01*
Y0005754D01*
X0007946D02*
X0008454D01*
X0007946Y0005246D02*
Y0005754D01*
X0007446Y0005246D02*
X0007954D01*
Y0005754D01*
X0007446D02*
X0007954D01*
X0007446Y0005246D02*
Y0005754D01*
X0000921Y0002746D02*
X0001429D01*
Y0003254D01*
X0000921D02*
X0001429D01*
X0000921Y0002746D02*
Y0003254D01*
X0001021Y0004621D02*
X0001529D01*
Y0005129D01*
X0001021D02*
X0001529D01*
X0001021Y0004621D02*
Y0005129D01*
X0001346Y0002746D02*
X0001854D01*
Y0003254D01*
X0001346D02*
X0001854D01*
X0001346Y0002746D02*
Y0003254D01*
X0008846Y0004921D02*
X0009354D01*
Y0005429D01*
X0008846D02*
X0009354D01*
X0008846Y0004921D02*
Y0005429D01*
D30*
X025942Y0127844D02*
X0260639D01*
X026003D01*
Y0126016D01*
X0262163D02*
X0261553D01*
X0261249Y0126321D01*
Y012693D01*
X0261553Y0127235D01*
X0262163D01*
X0262467Y012693D01*
Y0126625D01*
X0261249D01*
X0263077Y0126016D02*
Y0127235D01*
X0263382D01*
X0263686Y012693D01*
Y0126016D01*
Y012693D01*
X0263991Y0127235D01*
X0264296Y012693D01*
Y0126016D01*
X0264905Y0125406D02*
Y0127235D01*
X0265819D01*
X0266124Y012693D01*
Y0126321D01*
X0265819Y0126016D01*
X0264905D01*
X0266733D02*
X0267343D01*
X0267038D01*
Y0127844D01*
X0266733D01*
X0268561Y0127235D02*
X0269171D01*
X0269476Y012693D01*
Y0126016D01*
X0268561D01*
X0268257Y0126321D01*
X0268561Y0126625D01*
X0269476D01*
X027039Y0127539D02*
Y0127235D01*
X0270085D01*
X0270694D01*
X027039D01*
Y0126321D01*
X0270694Y0126016D01*
X0272523D02*
X0271913D01*
X0271608Y0126321D01*
Y012693D01*
X0271913Y0127235D01*
X0272523D01*
X0272827Y012693D01*
Y0126625D01*
X0271608D01*
X0240477Y0126016D02*
Y0127844D01*
X0241391D01*
X0241696Y0127539D01*
Y012693D01*
X0241391Y0126625D01*
X0240477D01*
X024261Y0127235D02*
X0243219D01*
X0243524Y012693D01*
Y0126016D01*
X024261D01*
X0242305Y0126321D01*
X024261Y0126625D01*
X0243524D01*
X0245352Y0127844D02*
Y0126016D01*
X0244438D01*
X0244134Y0126321D01*
Y012693D01*
X0244438Y0127235D01*
X0245352D01*
X0249009Y0127539D02*
X0248704Y0127844D01*
X0248095D01*
X024779Y0127539D01*
Y0127235D01*
X0248095Y012693D01*
X0248704D01*
X0249009Y0126625D01*
Y0126321D01*
X0248704Y0126016D01*
X0248095D01*
X024779Y0126321D01*
X0249618Y0127844D02*
Y0126016D01*
Y012693D01*
X0249923Y0127235D01*
X0250532D01*
X0250837Y012693D01*
Y0126016D01*
X0251751Y0127235D02*
X025236D01*
X0252665Y012693D01*
Y0126016D01*
X0251751D01*
X0251446Y0126321D01*
X0251751Y0126625D01*
X0252665D01*
X0253275Y0125406D02*
Y0127235D01*
X0254189D01*
X0254493Y012693D01*
Y0126321D01*
X0254189Y0126016D01*
X0253275D01*
X0256017D02*
X0255408D01*
X0255103Y0126321D01*
Y012693D01*
X0255408Y0127235D01*
X0256017D01*
X0256322Y012693D01*
Y0126625D01*
X0255103D01*
X0225495Y0127844D02*
Y0126625D01*
X0226104Y0126016D01*
X0226714Y0126625D01*
Y0127844D01*
X0227323Y0126016D02*
X0227933D01*
X0227628D01*
Y0127235D01*
X0227323D01*
X0229151D02*
X0229761D01*
X0230066Y012693D01*
Y0126016D01*
X0229151D01*
X0228847Y0126321D01*
X0229151Y0126625D01*
X0230066D01*
X0230675Y0126016D02*
X0231894Y0127235D01*
X0232503Y0126016D02*
Y0127844D01*
X0233417D01*
X0233722Y0127539D01*
Y012693D01*
X0233417Y0126625D01*
X0232503D01*
X0234636Y0127235D02*
X0235245D01*
X023555Y012693D01*
Y0126016D01*
X0234636D01*
X0234331Y0126321D01*
X0234636Y0126625D01*
X023555D01*
X0237378Y0127844D02*
Y0126016D01*
X0236464D01*
X023616Y0126321D01*
Y012693D01*
X0236464Y0127235D01*
X0237378D01*
X0187406Y0127844D02*
Y0126016D01*
X018832D01*
X0188625Y0126321D01*
Y0127539D01*
X018832Y0127844D01*
X0187406D01*
X0189235Y0127235D02*
Y0126016D01*
Y0126625D01*
X0189539Y012693D01*
X0189844Y0127235D01*
X0190149D01*
X0191063Y0126016D02*
X0191672D01*
X0191368D01*
Y0127235D01*
X0191063D01*
X0192586Y0126016D02*
X0193196D01*
X0192891D01*
Y0127844D01*
X0192586D01*
X019411Y0126016D02*
X0194719D01*
X0194415D01*
Y0127844D01*
X019411D01*
X0197462D02*
Y0126016D01*
X019868D01*
X0199594Y0127235D02*
X0200204D01*
X0200509Y012693D01*
Y0126016D01*
X0199594D01*
X019929Y0126321D01*
X0199594Y0126625D01*
X0200509D01*
X0201118Y0127235D02*
Y0126321D01*
X0201423Y0126016D01*
X0202337D01*
Y0125711D01*
X0202032Y0125406D01*
X0201727D01*
X0202337Y0126016D02*
Y0127235D01*
X020386Y0126016D02*
X0203251D01*
X0202946Y0126321D01*
Y012693D01*
X0203251Y0127235D01*
X020386D01*
X0204165Y012693D01*
Y0126625D01*
X0202946D01*
X0204774Y0127235D02*
Y0126016D01*
Y0126625D01*
X0205079Y012693D01*
X0205384Y0127235D01*
X0205688D01*
X0208431Y0126016D02*
Y0127844D01*
X0209345D01*
X020965Y0127539D01*
Y012693D01*
X0209345Y0126625D01*
X0208431D01*
X0210564Y0127235D02*
X0211173D01*
X0211478Y012693D01*
Y0126016D01*
X0210564D01*
X0210259Y0126321D01*
X0210564Y0126625D01*
X0211478D01*
X0212087Y0126016D02*
X0212697D01*
X0212392D01*
Y0127235D01*
X0212087D01*
X0213611D02*
Y0126016D01*
Y0126625D01*
X0213915Y012693D01*
X021422Y0127235D01*
X0214525D01*
X0168768Y0127844D02*
Y0126016D01*
Y012693D01*
X0169987D01*
Y0127844D01*
Y0126016D01*
X0170901D02*
X017151D01*
X0171815Y0126321D01*
Y012693D01*
X017151Y0127235D01*
X0170901D01*
X0170596Y012693D01*
Y0126321D01*
X0170901Y0126016D01*
X0172424D02*
X0173034D01*
X0172729D01*
Y0127844D01*
X0172424D01*
X0174862Y0126016D02*
X0174252D01*
X0173948Y0126321D01*
Y012693D01*
X0174252Y0127235D01*
X0174862D01*
X0175167Y012693D01*
Y0126625D01*
X0173948D01*
X0177604Y0127844D02*
X0178823D01*
X0178214D01*
Y0126016D01*
X0179432Y0127235D02*
Y0126321D01*
X0179737Y0126016D01*
X0180651D01*
Y0125711D01*
X0180346Y0125406D01*
X0180042D01*
X0180651Y0126016D02*
Y0127235D01*
X0181261Y0125406D02*
Y0127235D01*
X0182175D01*
X0182479Y012693D01*
Y0126321D01*
X0182175Y0126016D01*
X0181261D01*
X0184003D02*
X0183393D01*
X0183089Y0126321D01*
Y012693D01*
X0183393Y0127235D01*
X0184003D01*
X0184308Y012693D01*
Y0126625D01*
X0183089D01*
X0155919Y0126016D02*
Y0127844D01*
X0156833D01*
X0157137Y0127539D01*
Y012693D01*
X0156833Y0126625D01*
X0155919D01*
X0157747Y0126016D02*
X0158356D01*
X0158051D01*
Y0127844D01*
X0157747D01*
X0159575Y0127235D02*
X0160184D01*
X0160489Y012693D01*
Y0126016D01*
X0159575D01*
X015927Y0126321D01*
X0159575Y0126625D01*
X0160489D01*
X0161403Y0127539D02*
Y0127235D01*
X0161099D01*
X0161708D01*
X0161403D01*
Y0126321D01*
X0161708Y0126016D01*
X0163536D02*
X0162927D01*
X0162622Y0126321D01*
Y012693D01*
X0162927Y0127235D01*
X0163536D01*
X0163841Y012693D01*
Y0126625D01*
X0162622D01*
X0165669Y0127844D02*
Y0126016D01*
X0164755D01*
X016445Y0126321D01*
Y012693D01*
X0164755Y0127235D01*
X0165669D01*
X012951Y0127844D02*
Y0126016D01*
Y012693D01*
X0130729D01*
Y0127844D01*
Y0126016D01*
X0131643D02*
X0132253D01*
X0132557Y0126321D01*
Y012693D01*
X0132253Y0127235D01*
X0131643D01*
X0131338Y012693D01*
Y0126321D01*
X0131643Y0126016D01*
X0133167D02*
X0133776D01*
X0133471D01*
Y0127844D01*
X0133167D01*
X0135604Y0126016D02*
X0134995D01*
X013469Y0126321D01*
Y012693D01*
X0134995Y0127235D01*
X0135604D01*
X0135909Y012693D01*
Y0126625D01*
X013469D01*
X0139565Y0127539D02*
X0139261Y0127844D01*
X0138651D01*
X0138347Y0127539D01*
Y0127235D01*
X0138651Y012693D01*
X0139261D01*
X0139565Y0126625D01*
Y0126321D01*
X0139261Y0126016D01*
X0138651D01*
X0138347Y0126321D01*
X0140175Y0126016D02*
X0140784D01*
X0140479D01*
Y0127235D01*
X0140175D01*
X0141698D02*
X0142917D01*
X0141698Y0126016D01*
X0142917D01*
X0144441D02*
X0143831D01*
X0143526Y0126321D01*
Y012693D01*
X0143831Y0127235D01*
X0144441D01*
X0144745Y012693D01*
Y0126625D01*
X0143526D01*
X0117017Y0127539D02*
X0116712Y0127844D01*
X0116102D01*
X0115798Y0127539D01*
Y0126321D01*
X0116102Y0126016D01*
X0116712D01*
X0117017Y0126321D01*
X0117931Y0126016D02*
X011854D01*
X0118845Y0126321D01*
Y012693D01*
X011854Y0127235D01*
X0117931D01*
X0117626Y012693D01*
Y0126321D01*
X0117931Y0126016D01*
X0119454Y0127235D02*
Y0126321D01*
X0119759Y0126016D01*
X0120673D01*
Y0127235D01*
X0121282Y0126016D02*
Y0127235D01*
X0122196D01*
X0122501Y012693D01*
Y0126016D01*
X0123415Y0127539D02*
Y0127235D01*
X0123111D01*
X012372D01*
X0123415D01*
Y0126321D01*
X012372Y0126016D01*
X0104167Y0127539D02*
X0103863Y0127844D01*
X0103253D01*
X0102949Y0127539D01*
Y0127235D01*
X0103253Y012693D01*
X0103863D01*
X0104167Y0126625D01*
Y0126321D01*
X0103863Y0126016D01*
X0103253D01*
X0102949Y0126321D01*
X0104777Y0127235D02*
Y0126321D01*
X0105081Y0126016D01*
X0105996D01*
Y0125711D01*
X0105691Y0125406D01*
X0105386D01*
X0105996Y0126016D02*
Y0127235D01*
X0106605Y0126016D02*
Y0127235D01*
X010691D01*
X0107214Y012693D01*
Y0126016D01*
Y012693D01*
X0107519Y0127235D01*
X0107824Y012693D01*
Y0126016D01*
X0108433Y0127844D02*
Y0126016D01*
X0109347D01*
X0109652Y0126321D01*
Y0126625D01*
Y012693D01*
X0109347Y0127235D01*
X0108433D01*
X0110566Y0126016D02*
X0111175D01*
X011148Y0126321D01*
Y012693D01*
X0111175Y0127235D01*
X0110566D01*
X0110261Y012693D01*
Y0126321D01*
X0110566Y0126016D01*
X011209D02*
X0112699D01*
X0112394D01*
Y0127844D01*
X011209D01*
M02*
