G04*
G04 #@! TF.GenerationSoftware,Altium Limited,Altium Designer,21.8.1 (53)*
G04*
G04 Layer_Physical_Order=2*
G04 Layer_Color=14186556*
%FSTAX43Y43*%
%MOMM*%
G71*
G04*
G04 #@! TF.SameCoordinates,454ED16F-8ED5-4277-8FB5-D7BBC8B68C5D*
G04*
G04*
G04 #@! TF.FilePolarity,Positive*
G04*
G01*
G75*
%ADD10C,0.300*%
%ADD11C,0.150*%
%ADD13C,0.160*%
G04:AMPARAMS|DCode=16|XSize=0.18mm|YSize=0.485mm|CornerRadius=0.018mm|HoleSize=0mm|Usage=FLASHONLY|Rotation=0.000|XOffset=0mm|YOffset=0mm|HoleType=Round|Shape=RoundedRectangle|*
%AMROUNDEDRECTD16*
21,1,0.180,0.449,0,0,0.0*
21,1,0.144,0.485,0,0,0.0*
1,1,0.036,0.072,-0.225*
1,1,0.036,-0.072,-0.225*
1,1,0.036,-0.072,0.225*
1,1,0.036,0.072,0.225*
%
%ADD16ROUNDEDRECTD16*%
G04:AMPARAMS|DCode=17|XSize=0.28mm|YSize=0.485mm|CornerRadius=0.028mm|HoleSize=0mm|Usage=FLASHONLY|Rotation=0.000|XOffset=0mm|YOffset=0mm|HoleType=Round|Shape=RoundedRectangle|*
%AMROUNDEDRECTD17*
21,1,0.280,0.429,0,0,0.0*
21,1,0.224,0.485,0,0,0.0*
1,1,0.056,0.112,-0.215*
1,1,0.056,-0.112,-0.215*
1,1,0.056,-0.112,0.215*
1,1,0.056,0.112,0.215*
%
%ADD17ROUNDEDRECTD17*%
%ADD18C,0.250*%
%ADD19C,0.150*%
%ADD21C,0.180*%
%ADD22C,0.350*%
G36*
X0002915Y016945D02*
X0002915Y0168762D01*
X0002385D01*
X0002385Y016945D01*
X0002915Y016945D01*
D02*
G37*
G36*
X0004325Y0168725D02*
X0003425D01*
Y0169325D01*
X0004325D01*
Y0168725D01*
D02*
G37*
G36*
X0009296Y0167418D02*
X0009146Y0167388D01*
X000914Y0167404D01*
X0009034Y0167542D01*
X0009034Y0167542D01*
X0009034Y0167542D01*
X0008928Y0167647D01*
X0008073Y0168501D01*
X000798Y0168823D01*
X0007984Y0168824D01*
X0008075Y0168916D01*
X0008125Y0169035D01*
Y0169165D01*
X0008075Y0169284D01*
X0007984Y0169376D01*
X0007865Y0169425D01*
X0007735D01*
X0007616Y0169376D01*
X000755Y016931D01*
X0007484Y0169376D01*
X0007365Y0169425D01*
X0007235D01*
X0007116Y0169376D01*
X0007025Y0169285D01*
X0006934Y0169376D01*
X0006815Y0169425D01*
X0006685D01*
X0006566Y0169376D01*
X00065Y016931D01*
X0006434Y0169376D01*
X0006315Y0169425D01*
X0006185D01*
X0006066Y0169376D01*
X0005975Y0169285D01*
X0005884Y0169376D01*
X0005765Y0169425D01*
X0005635D01*
X0005516Y0169376D01*
X000545Y016931D01*
X0005384Y0169376D01*
X0005265Y0169425D01*
X0005135D01*
X0005016Y0169376D01*
X0004924Y0169284D01*
X0004875Y0169165D01*
Y0169035D01*
X0004924Y0168916D01*
X0004992Y0168848D01*
X000507Y0168733D01*
X000507Y0168733D01*
X0005137Y016857D01*
X0005242Y0168433D01*
X0005242Y0168433D01*
X0005242Y0168433D01*
X0005348Y0168328D01*
X0006642Y0167034D01*
X0006646Y0167026D01*
Y01664D01*
X0004206D01*
X0004183Y0166427D01*
X0004183Y0166427D01*
Y0168563D01*
X0004325D01*
X000444Y016861D01*
X0004487Y0168725D01*
Y0169325D01*
X000444Y016944D01*
X0004325Y0169487D01*
X0003425D01*
X000331Y016944D01*
X0003263Y0169325D01*
Y0168725D01*
X000331Y016861D01*
X0003425Y0168563D01*
X0003572D01*
Y0166554D01*
X0003417Y01664D01*
X000202D01*
X0001963Y0166539D01*
X0002287Y0166863D01*
X0002337Y0166937D01*
X0002354Y0167025D01*
Y0167095D01*
X0002401Y0167141D01*
X000245Y016726D01*
Y016739D01*
X0002401Y0167509D01*
X0002309Y0167601D01*
X000219Y016765D01*
X000206D01*
X0001941Y0167601D01*
X0001849Y0167509D01*
X00018Y016739D01*
Y016726D01*
X0001849Y0167141D01*
X0001883Y0167107D01*
X0001176Y01664D01*
X0000861D01*
X0000755Y0166506D01*
X0000755Y0168287D01*
X0001213Y0168745D01*
X000223D01*
X000227Y0168648D01*
X0002385Y01686D01*
X0002915D01*
X000303Y0168648D01*
X0003077Y0168762D01*
X0003077Y016945D01*
X000303Y0169565D01*
X0002915Y0169612D01*
X0002385Y0169612D01*
X000227Y0169565D01*
X0002223Y016945D01*
Y0169305D01*
X0001096D01*
X0000989Y0169284D01*
X0000898Y0169223D01*
X0000354Y0168679D01*
X0000204Y0168741D01*
Y0169796D01*
X0009296D01*
Y0167418D01*
D02*
G37*
G36*
X0006138Y00055D02*
X0006188Y0005359D01*
X0005416Y0004732D01*
X0005404Y0004717D01*
X0005355Y000468D01*
X000524Y000453D01*
X0005241Y000453D01*
X0005148Y0004375D01*
X0005142Y000436D01*
X0005112Y0004315D01*
X0005103Y0004267D01*
X0005082Y0004253D01*
X0005045Y0004198D01*
X0005032Y0004132D01*
Y0003683D01*
X0005017Y0003665D01*
X0005015D01*
X0005015Y0003315D01*
X0008325D01*
Y0003665D01*
X0007983D01*
X0007968Y0003683D01*
Y0003988D01*
X0007998Y0004133D01*
X0008001Y0004137D01*
Y0004137D01*
X0008004Y0004147D01*
X0008669Y0004441D01*
X0008685Y0004452D01*
X0008735Y0004473D01*
X0008821Y0004538D01*
X0008841Y000455D01*
X0009013Y00047D01*
X0009014Y00047D01*
X0009051Y0004724D01*
X0009064Y0004744D01*
X0009159Y0004773D01*
X0009296Y0004685D01*
Y0000204D01*
X0000204Y0000204D01*
Y0001337D01*
X0000354Y00014D01*
X0000876Y0000877D01*
X0000967Y0000816D01*
X0001075Y0000795D01*
X0002404D01*
X0002511Y0000816D01*
X0002602Y0000877D01*
X0002612Y0000888D01*
X0002915Y0000888D01*
X000303Y0000935D01*
X0003077Y000105D01*
X0003077Y0002162D01*
X0003227Y0002232D01*
X0003263Y0002202D01*
Y0001175D01*
X000331Y000106D01*
X0003425Y0001013D01*
X0004315Y0001013D01*
X000443Y000106D01*
X0004477Y0001175D01*
Y0002317D01*
X0004485Y0002328D01*
Y0002685D01*
X0001523D01*
Y0002185D01*
X0001523Y0002185D01*
X0001523Y0001835D01*
X0001485Y0001819D01*
X0001393Y0001728D01*
X0001344Y0001608D01*
Y0001479D01*
X0001307Y0001438D01*
X0001113Y0001433D01*
X0000755Y0001791D01*
Y00041D01*
X0001167D01*
X0001182Y0004042D01*
Y0003683D01*
X0001183Y0003675D01*
X0001175Y0003665D01*
X0001175D01*
Y0003315D01*
X00021D01*
X000215Y000324D01*
Y000311D01*
X0002199Y0002991D01*
X0002291Y0002899D01*
X000241Y000285D01*
X000254D01*
X0002659Y0002899D01*
X0002741Y0002981D01*
X0002825Y0002986D01*
X0002909Y0002981D01*
X0002991Y0002899D01*
X000311Y000285D01*
X000324D01*
X0003359Y0002899D01*
X0003451Y0002991D01*
X00035Y000311D01*
Y000324D01*
X000355Y0003315D01*
X0004485D01*
X0004485Y0003665D01*
X0004483D01*
X0004468Y0003683D01*
Y0004132D01*
X0004455Y0004198D01*
X0004419Y0004252D01*
X0004418Y0004262D01*
X0004408Y0004291D01*
X0004402Y0004321D01*
X0004302Y000456D01*
X0004294Y0004571D01*
X000429Y0004584D01*
X0003848Y0005371D01*
X0003924Y00055D01*
X0006138D01*
D02*
G37*
G36*
X0002215Y0001375D02*
X0001685Y0001375D01*
X0001685Y0002317D01*
X0002215D01*
X0002215Y0001375D01*
D02*
G37*
G36*
X0004315Y0001175D02*
X0003425Y0001175D01*
Y0002307D01*
X0003435Y0002317D01*
X0004315D01*
Y0001175D01*
D02*
G37*
G36*
X0002915Y000105D02*
X0002385Y000105D01*
X0002385Y0002317D01*
X0002915D01*
X0002915Y000105D01*
D02*
G37*
%LPC*%
G36*
X0008325Y0002685D02*
X0005015D01*
Y0002335D01*
X0005017D01*
X0005032Y0002317D01*
Y0001868D01*
X0005045Y0001802D01*
X0005016Y0001726D01*
X0004924Y0001634D01*
X0004875Y0001515D01*
Y0001385D01*
X0004924Y0001266D01*
X0005016Y0001174D01*
X0005135Y0001125D01*
X0005265D01*
X0005384Y0001174D01*
X000545Y000124D01*
X0005516Y0001174D01*
X0005635Y0001125D01*
X0005765D01*
X0005884Y0001174D01*
X0005975Y0001265D01*
X0006066Y0001174D01*
X0006185Y0001125D01*
X0006315D01*
X0006434Y0001174D01*
X00065Y000124D01*
X0006566Y0001174D01*
X0006685Y0001125D01*
X0006815D01*
X0006934Y0001174D01*
X0007025Y0001265D01*
X0007116Y0001174D01*
X0007235Y0001125D01*
X0007365D01*
X0007484Y0001174D01*
X000755Y000124D01*
X0007616Y0001174D01*
X0007735Y0001125D01*
X0007865D01*
X0007984Y0001174D01*
X0008076Y0001266D01*
X0008125Y0001385D01*
Y0001515D01*
X0008076Y0001634D01*
X0007984Y0001726D01*
X0007955Y0001802D01*
X0007968Y0001868D01*
Y0002317D01*
X0007983Y0002335D01*
X0008325D01*
Y0002685D01*
D02*
G37*
%LPD*%
D10*
X0003877Y0166427D02*
Y0168902D01*
X0003414Y0164103D02*
Y0164453D01*
Y0165964D02*
X0003877Y0166427D01*
X0003414Y0163753D02*
Y0164103D01*
Y0164453D02*
Y0165964D01*
D11*
X0007218Y0005746D02*
G03*
X000721Y000573I0000131J-0000072D01*
G01*
X0007175Y0167064D02*
G03*
X0007045Y016738I-000045J0D01*
G01*
X0006985Y0005324D02*
G03*
X0007118Y0005503I-0000284J0000349D01*
G01*
X000575Y0004321D02*
G03*
X0005667Y0004188I0000153J-0000189D01*
G01*
X0007725Y0002092D02*
G03*
X000771Y0002056I0000036J-0000036D01*
G01*
X00077Y0001691D02*
G03*
X0007762Y0001542I0000211J0D01*
G01*
X00077Y0001885D02*
G03*
X000771Y0001909I-0000024J0000024D01*
G01*
X0007445Y0004257D02*
G03*
X0007417Y0004188I0000208J-0000125D01*
G01*
X000635Y0001871D02*
G03*
X000634Y0001895I-0000034J0D01*
G01*
Y0002056D02*
G03*
X0006325Y0002092I-0000051J0D01*
G01*
X00063Y0001554D02*
G03*
X000635Y0001675I-0000121J0000121D01*
G01*
X0006288Y0001542D02*
G03*
X000625Y000145I0000093J-0000092D01*
G01*
X0009Y0167064D02*
G03*
X000887Y016738I-000045J0D01*
G01*
X0008863Y0004873D02*
G03*
X000892Y0004935I-0000263J0000302D01*
G01*
X0008576Y0004651D02*
G03*
X000869Y0004723I-0000182J0000412D01*
G01*
X0007912Y0004357D02*
G03*
X0007767Y0004188I0000091J-0000225D01*
G01*
X000529Y0002056D02*
G03*
X0005275Y0002092I-0000051J0D01*
G01*
X00053Y0001871D02*
G03*
X000529Y0001895I-0000034J0D01*
G01*
X000525Y0001554D02*
G03*
X00053Y0001675I-0000121J0000121D01*
G01*
X0005238Y0001542D02*
G03*
X00052Y000145I0000093J-0000092D01*
G01*
X0007643Y0005372D02*
G03*
X00077Y0005493I-0000093J0000118D01*
G01*
X000635Y0168757D02*
G03*
X0006475Y0168446I000045J0D01*
G01*
X0006616Y0004557D02*
G03*
X0006488Y0004412I0000337J-0000426D01*
G01*
X0006395Y0004257D02*
G03*
X0006366Y0004188I0000208J-0000125D01*
G01*
X0006675Y0002092D02*
G03*
X000666Y0002056I0000036J-0000036D01*
G01*
Y0001895D02*
G03*
X000665Y0001871I0000024J-0000024D01*
G01*
X000675Y000145D02*
G03*
X0006712Y0001542I-0000131J0D01*
G01*
X000665Y0001675D02*
G03*
X00067Y0001554I0000171J0D01*
G01*
X00081Y0167058D02*
G03*
X000797Y0167375I-000045J0D01*
G01*
X0007941Y0005181D02*
G03*
X000802Y000526I-0000241J0000319D01*
G01*
X000665Y0168757D02*
G03*
X0006694Y0168651I000015J0D01*
G01*
X0006807Y0004326D02*
G03*
X0006717Y0004188I0000146J-0000194D01*
G01*
X0006875Y0167064D02*
G03*
X0006831Y016717I-000015J0D01*
G01*
X0006796Y0005557D02*
G03*
X0006833Y0005745I-0000095J0000116D01*
G01*
X0005292Y0168793D02*
G03*
X0005406Y0168595I0000434J0000117D01*
G01*
X0005561Y0004553D02*
G03*
X0005438Y0004412I0000342J-0000421D01*
G01*
X0005344Y0004257D02*
G03*
X0005316Y0004188I0000209J-0000125D01*
G01*
X0005625Y0002092D02*
G03*
X000561Y0002056I0000036J-0000036D01*
G01*
Y0001895D02*
G03*
X00056Y0001871I0000024J-0000024D01*
G01*
X00057Y000145D02*
G03*
X0005662Y0001542I-0000131J0D01*
G01*
X00056Y0001675D02*
G03*
X000565Y0001554I0000171J0D01*
G01*
X000739Y0002056D02*
G03*
X0007375Y0002092I-0000051J0D01*
G01*
X000739Y0001909D02*
G03*
X00074Y0001885I0000034J0D01*
G01*
X0002825Y0004084D02*
G03*
X0002725Y0004325I-0000341J0D01*
G01*
X0007338Y0001542D02*
G03*
X00073Y000145I0000092J-0000092D01*
G01*
X0007338Y0001542D02*
G03*
X00074Y0001691I-0000149J0000149D01*
G01*
X00078Y000145D02*
G03*
X0007762Y0001542I-0000131J0D01*
G01*
X0007784Y0004629D02*
G03*
X0007538Y0004412I0000219J-0000497D01*
G01*
X0008455Y0004925D02*
G03*
X0008534Y0005007I-0000061J0000137D01*
G01*
X0001775Y0003908D02*
G03*
X0001444Y0004706I-0001129J0D01*
G01*
X0001947Y0004498D02*
G03*
X0001883Y0004622I-0001301J-000059D01*
G01*
D02*
G03*
X0001882Y0004625I-0001237J-0000715D01*
G01*
X0001382Y0004184D02*
G03*
X0001244Y0004351I-0000245J-0000062D01*
G01*
X0002084Y0004188D02*
G03*
X0002068Y0004234I-0000237J-0000056D01*
G01*
X0001968Y0005274D02*
G03*
X0002104Y0004946I0000465J0D01*
G01*
X0007175Y0164954D02*
Y0167064D01*
X0007218Y0005746D02*
X0007275Y000585D01*
X0007118Y0005503D02*
X000721Y000573D01*
X00056Y0168896D02*
X0007045Y016738D01*
X000575Y0004321D02*
X0006985Y0005324D01*
X000564Y0004075D02*
X0005667Y0004188D01*
X000771Y0001909D02*
Y0002056D01*
X00077Y0001885D02*
Y0001885D01*
Y0001691D02*
Y0001885D01*
X000739Y0004075D02*
X0007417Y0004188D01*
X000634Y0001895D02*
Y0002056D01*
X000635Y0001675D02*
Y0001871D01*
X0006288Y0001542D02*
X00063Y0001554D01*
X0006288Y0001542D02*
X0006288Y0001542D01*
X0009Y0166104D02*
Y0167064D01*
X000887Y016738D02*
X000887Y016738D01*
X000892Y0004935D02*
X00091Y0005175D01*
X0007869Y0168381D02*
X000887Y016738D01*
X000869Y0004723D02*
X0008863Y0004873D01*
X0007912Y0004357D02*
X0008576Y0004651D01*
X0007912Y0004357D02*
X0007912D01*
X000774Y0004075D02*
X0007767Y0004188D01*
X000529Y0001895D02*
Y0002056D01*
X00053Y0001675D02*
Y0001871D01*
X0005238Y0001542D02*
X000525Y0001554D01*
X0005238Y0001542D02*
X0005238Y0001542D01*
X00077Y00055D02*
X00077Y0005493D01*
X0006616Y0004557D02*
X0007643Y0005372D01*
X000635Y0168757D02*
Y0169021D01*
X0006475Y0168446D02*
X00078Y0167058D01*
X0006366Y0004188D02*
X0006366Y0004188D01*
X000634Y0004075D02*
X0006366Y0004188D01*
X000666Y0001895D02*
Y0002056D01*
X000665Y0001675D02*
Y0001871D01*
X0006712Y0001542D02*
X0006712Y0001542D01*
X00067Y0001554D02*
X0006712Y0001542D01*
X00081Y0165729D02*
Y0167058D01*
X000665Y0168757D02*
Y0168934D01*
X0007941Y0005181D02*
X0007941Y0005181D01*
X0006807Y0004326D02*
X0007941Y0005181D01*
X0006694Y0168651D02*
X000797Y0167375D01*
X000669Y0004075D02*
X0006717Y0004188D01*
X0006875Y0164954D02*
Y0167064D01*
X0005234Y0169007D02*
X0005292Y0168793D01*
X0005561Y0004553D02*
X0006796Y0005557D01*
X0005344Y0004257D02*
X0005438Y0004412D01*
X0005316Y0004188D02*
X0005316Y0004188D01*
X000529Y0004075D02*
X0005316Y0004188D01*
X000561Y0001895D02*
Y0002056D01*
X00056Y0001675D02*
Y0001871D01*
X0005662Y0001542D02*
X0005662Y0001542D01*
X000565Y0001554D02*
X0005662Y0001542D01*
X000739Y0001909D02*
Y0002056D01*
X00074Y0001885D02*
X00074D01*
X0002725Y0004325D02*
X0002725Y0004325D01*
X0002825Y0003908D02*
Y0004084D01*
X0002104Y0004946D02*
X0002725Y0004325D01*
X000802Y000526D02*
X00082Y00055D01*
X0005275Y0003908D02*
X000529Y0004075D01*
X0006325Y0003908D02*
X000634Y0004075D01*
X0005625Y0003908D02*
X000564Y0004075D01*
X000386D02*
X0003875Y0003908D01*
X0003516Y0004003D02*
X0003525Y0003908D01*
X000421Y0004075D02*
X0004225Y0003908D01*
X0003175Y0003175D02*
Y0003907D01*
X0002475Y0003175D02*
Y0003908D01*
X0003175D02*
X0003175Y0003907D01*
X0007375Y0003908D02*
X000739Y0004075D01*
X0006675Y0003908D02*
X000669Y0004075D01*
X000211D02*
X0002125Y0003908D01*
X0002475Y000315D02*
Y0003175D01*
X000141Y0004075D02*
X0001425Y0003908D01*
X0007725D02*
X000774Y0004075D01*
X00074Y0001691D02*
Y0001885D01*
X0007445Y0004257D02*
X0007538Y0004412D01*
X0006395Y0004257D02*
X0006488Y0004412D01*
X000409Y0004471D02*
X000419Y0004233D01*
X0003158Y0004454D02*
X0003348Y0004375D01*
X0008534Y0005007D02*
X00086Y0005175D01*
X000335Y000485D02*
X000379Y0004357D01*
X0007784Y0004629D02*
X0008455Y0004925D01*
X0003175Y00061D02*
X000409Y0004471D01*
X00028Y0005075D02*
X000295Y0004684D01*
X0006775Y000585D02*
X0006832Y0005745D01*
X000379Y0004357D02*
X000384Y0004233D01*
X0003348Y0004375D02*
X000349Y0004233D01*
X000419D02*
X000421Y0004075D01*
X000384Y0004233D02*
X000386Y0004075D01*
X000349Y0004233D02*
X0003516Y0004003D01*
X0003129Y000448D02*
X0003158Y0004454D01*
X0001275Y0004875D02*
X0001444Y0004706D01*
X000295Y0004684D02*
X0003129Y000448D01*
X0001382Y0004184D02*
X000141Y0004075D01*
X0002084Y0004188D02*
X000211Y0004075D01*
X0000875Y0006365D02*
X0001882Y0004625D01*
X0000925Y00045D02*
X0001244Y0004351D01*
X0001947Y0004498D02*
X0002068Y0004234D01*
X0000875Y0006365D02*
Y0008878D01*
X0000875Y0165775D02*
X0000875Y0008878D01*
X0002125Y0167025D02*
Y0167325D01*
X0000875Y0165775D02*
X0002125Y0167025D01*
X00091Y016595D02*
Y0166004D01*
X0009Y0166104D02*
X00091Y0166004D01*
X0007737Y0168962D02*
X00078Y01691D01*
X0007737Y0168838D02*
X0007869Y0168381D01*
X0007737Y0168838D02*
Y0168962D01*
X00087Y0166104D02*
Y0167064D01*
X00086Y0166004D02*
X00087Y0166104D01*
X00086Y016595D02*
Y0166004D01*
X00074Y0168934D02*
X0007437Y0168714D01*
X00074Y0168934D02*
Y0169021D01*
X0007437Y0168714D02*
X0007569Y0168257D01*
X00073Y01691D02*
X0007321D01*
X00074Y0169021D01*
X0007569Y0168257D02*
X00087Y0167064D01*
X00082Y0165575D02*
Y0165629D01*
X00081Y0165729D02*
X00082Y0165629D01*
X000665Y0168934D02*
X000675Y01691D01*
X00078Y0165729D02*
Y0167058D01*
X00077Y0165629D02*
X00078Y0165729D01*
X00077Y0165575D02*
Y0165629D01*
X0006271Y01691D02*
X000635Y0169021D01*
X000625Y01691D02*
X0006271D01*
X0007275Y01648D02*
Y0164854D01*
X0007175Y0164954D02*
X0007275Y0164854D01*
X0005679Y01691D02*
X00057D01*
X00056Y0169021D02*
X0005679Y01691D01*
X00056Y0168896D02*
Y0169021D01*
X0006775Y0164854D02*
X0006875Y0164954D01*
X0006775Y01648D02*
Y0164854D01*
X0005406Y0168595D02*
X0006831Y016717D01*
X00052Y01691D02*
X0005234Y0169007D01*
D13*
X0004146Y0166159D02*
G03*
X0004257Y0166427I-0000269J0000269D01*
G01*
X0004145Y0166158D02*
G03*
X0004257Y0166427I-0000268J0000269D01*
G01*
X0008604Y0165545D02*
G03*
X000885Y0165631I-0000004J0000405D01*
G01*
X000885D02*
G03*
X0009189Y0165555I000025J0000319D01*
G01*
X000243Y0167059D02*
G03*
X000253Y0167325I-0000305J0000266D01*
G01*
X0002341Y0166809D02*
G03*
X000243Y0167025I-0000216J0000216D01*
G01*
X0002341Y0166809D02*
G03*
X000243Y0167025I-0000216J0000216D01*
G01*
X000253Y0167325D02*
G03*
X0001781Y0167112I-0000405J0D01*
G01*
X0003145Y0166232D02*
G03*
X0003034Y0165964I0000269J-0000269D01*
G01*
X0003146Y0166233D02*
G03*
X0003034Y0165964I0000268J-0000269D01*
G01*
X000795Y0165256D02*
G03*
X0008604Y0165545I000025J0000319D01*
G01*
X000748Y0165235D02*
G03*
X000795Y0165256I000022J000034D01*
G01*
X000768Y01648D02*
G03*
X000748Y0165149I-0000405J0D01*
G01*
X000657Y0165149D02*
G03*
X0007025Y0164481I0000205J-0000349D01*
G01*
X0007025D02*
G03*
X000768Y01648I000025J0000319D01*
G01*
X0003794Y0164313D02*
G03*
X0003819Y0164453I-000038J000014D01*
G01*
D02*
G03*
X0003794Y0164593I-0000405J0D01*
G01*
X0003819Y0164103D02*
G03*
X0003794Y0164243I-0000405J0D01*
G01*
X0003819Y0163753D02*
G03*
X0003794Y0163893I-0000405J0D01*
G01*
Y0163963D02*
G03*
X0003819Y0164103I-000038J000014D01*
G01*
X0003034Y0164243D02*
G03*
X0003034Y0163963I000038J-000014D01*
G01*
Y0163893D02*
G03*
X0003819Y0163753I000038J-000014D01*
G01*
X0003034Y0164593D02*
G03*
X0003034Y0164313I000038J-000014D01*
G01*
X0009189Y000557D02*
G03*
X000885Y0005494I-0000089J-0000395D01*
G01*
X0007676Y0005904D02*
G03*
X0007025Y0006169I-0000401J-0000054D01*
G01*
X000795Y0005819D02*
G03*
X0007676Y0005904I-000025J-0000319D01*
G01*
X0007025Y0006169D02*
G03*
X0006424Y0005648I-000025J-0000319D01*
G01*
X0008597Y000558D02*
G03*
X000795Y0005819I-0000397J-000008D01*
G01*
X000885Y0005494D02*
G03*
X0008597Y000558I-000025J-0000319D01*
G01*
X0003571Y0006017D02*
G03*
X000358Y00061I-0000396J0000083D01*
G01*
D02*
G03*
X000304Y0005718I-0000405J0D01*
G01*
X0003302Y0005252D02*
G03*
X0003179Y0005217I0000048J-0000402D01*
G01*
X0009063Y0004643D02*
G03*
X0009164Y0004752I-0000463J0000532D01*
G01*
X0005368Y000479D02*
G03*
X0005176Y0004569I0000535J-0000658D01*
G01*
X00087Y0004372D02*
G03*
X000889Y0004493I-0000305J0000691D01*
G01*
X0003179Y0005217D02*
G03*
X0002395Y0005086I-0000379J-0000142D01*
G01*
X0002373Y0005274D02*
G03*
X0001689Y0005567I-0000405J0D01*
G01*
X0002348Y0005133D02*
G03*
X0002373Y0005274I-000038J0000141D01*
G01*
X0005083Y0004413D02*
G03*
X0005037Y0004316I000047J-0000281D01*
G01*
D02*
G03*
X0004955Y0004132I0000166J-0000184D01*
G01*
X0004545D02*
G03*
X000449Y0004288I-0000248J0D01*
G01*
X000358Y0003175D02*
G03*
X0003555Y0003315I-0000405J0D01*
G01*
X0002095D02*
G03*
X0002123Y0002975I000038J-000014D01*
G01*
X0003527D02*
G03*
X000358Y0003175I-0000352J00002D01*
G01*
X0000862Y00041D02*
G03*
X0000988Y00041I0000063J00004D01*
G01*
X0001105Y0003683D02*
G03*
X0001175Y000351I0000248J0D01*
G01*
X000118Y0053419D02*
X0009189Y0045411D01*
X000118Y004498D02*
X0009189Y0052988D01*
X000118Y0054019D02*
X0009189Y0046011D01*
X000118Y004438D02*
X0009189Y0052388D01*
X000118Y0052219D02*
X0009189Y0044211D01*
X000118Y0052819D02*
X0009189Y0044811D01*
X000118Y0055219D02*
X0009189Y0047211D01*
X000118Y004678D02*
X0009189Y0054788D01*
X000118Y004738D02*
X0009189Y0055388D01*
X000118Y004618D02*
X0009189Y0054188D01*
X000118Y004558D02*
X0009189Y0053588D01*
X000118Y0054619D02*
X0009189Y0046611D01*
X000118Y004198D02*
X0009189Y0049988D01*
X000118Y0049819D02*
X0009189Y0041811D01*
X000118Y0050419D02*
X0009189Y0042411D01*
X000118Y0049219D02*
X0009189Y0041211D01*
X000118Y004078D02*
X0009189Y0048788D01*
X000118Y004138D02*
X0009189Y0049388D01*
X000118Y0051619D02*
X0009189Y0043611D01*
X000118Y004318D02*
X0009189Y0051188D01*
X000118Y004378D02*
X0009189Y0051788D01*
X000118Y004258D02*
X0009189Y0050588D01*
X000118Y0051019D02*
X0009189Y0043011D01*
X000118Y005578D02*
X0009189Y0063788D01*
X000118Y005518D02*
X0009189Y0063188D01*
X000118Y0067819D02*
X0009189Y0059811D01*
X000118Y005458D02*
X0009189Y0062588D01*
X000118Y005398D02*
X0009189Y0061988D01*
X000118Y0061819D02*
X0009189Y0053811D01*
X000118Y0067179D02*
X0009189Y0075188D01*
X000118Y0075019D02*
X0009189Y006701D01*
X000118Y0075619D02*
X0009189Y006761D01*
X000118Y0074419D02*
X0009189Y006641D01*
X000118Y0065979D02*
X0009189Y0073988D01*
X000118Y0066579D02*
X0009189Y0074588D01*
X000118Y004978D02*
X0009189Y0057788D01*
X000118Y004918D02*
X0009189Y0057188D01*
X000118Y005038D02*
X0009189Y0058388D01*
X000118Y004798D02*
X0009189Y0055988D01*
X000118Y0055819D02*
X0009189Y0047811D01*
X000118Y004858D02*
X0009189Y0056588D01*
X000118Y005278D02*
X0009189Y0060788D01*
X000118Y005218D02*
X0009189Y0060188D01*
X000118Y005338D02*
X0009189Y0061388D01*
X000118Y005098D02*
X0009189Y0058988D01*
X000118Y005158D02*
X0009189Y0059588D01*
X000118Y0039619D02*
X0009189Y0031611D01*
X000118Y003118D02*
X0009189Y0039188D01*
X000118Y003178D02*
X0009189Y0039788D01*
X000118Y003058D02*
X0009189Y0038588D01*
X000118Y0038419D02*
X0009189Y0030411D01*
X000118Y0039019D02*
X0009189Y0031011D01*
X000118Y0041419D02*
X0009189Y0033411D01*
X000118Y003298D02*
X0009189Y0040988D01*
X000118Y003358D02*
X0009189Y0041588D01*
X000118Y003238D02*
X0009189Y0040388D01*
X000118Y0040219D02*
X0009189Y0032211D01*
X000118Y0040819D02*
X0009189Y0032811D01*
X000118Y002818D02*
X0009189Y0036188D01*
X000118Y0036019D02*
X0009189Y0028011D01*
X000118Y0036619D02*
X0009189Y0028611D01*
X000118Y0035419D02*
X0009189Y0027411D01*
X000118Y002698D02*
X0009189Y0034988D01*
X000118Y002758D02*
X0009189Y0035588D01*
X000118Y0037819D02*
X0009189Y0029811D01*
X000118Y002938D02*
X0009189Y0037388D01*
X000118Y002998D02*
X0009189Y0037988D01*
X000118Y002878D02*
X0009189Y0036788D01*
X000118Y0037219D02*
X0009189Y0029211D01*
X000118Y003838D02*
X0009189Y0046388D01*
X000118Y0046219D02*
X0009189Y0038211D01*
X000118Y0046819D02*
X0009189Y0038811D01*
X000118Y0045619D02*
X0009189Y0037611D01*
X000118Y003718D02*
X0009189Y0045188D01*
X000118Y003778D02*
X0009189Y0045788D01*
X000118Y004018D02*
X0009189Y0048188D01*
X000118Y0048019D02*
X0009189Y0040011D01*
X000118Y0048619D02*
X0009189Y0040611D01*
X000118Y0047419D02*
X0009189Y0039411D01*
X000118Y003898D02*
X0009189Y0046988D01*
X000118Y003958D02*
X0009189Y0047588D01*
X000118Y0043219D02*
X0009189Y0035211D01*
X000118Y003478D02*
X0009189Y0042788D01*
X000118Y003538D02*
X0009189Y0043388D01*
X000118Y003418D02*
X0009189Y0042188D01*
X000118Y0042019D02*
X0009189Y0034011D01*
X000118Y0042619D02*
X0009189Y0034611D01*
X000118Y003658D02*
X0009189Y0044588D01*
X000118Y0044419D02*
X0009189Y0036411D01*
X000118Y0045019D02*
X0009189Y0037011D01*
X000118Y0043819D02*
X0009189Y0035811D01*
X000118Y003598D02*
X0009189Y0043988D01*
X000475Y0167925D02*
X0005644D01*
X000475D02*
X0005644D01*
X0004257Y0166856D02*
X0005327Y0167925D01*
X0005644D02*
X000657Y0166999D01*
X0005473Y0167925D02*
X000657Y0166828D01*
X0004873Y0167925D02*
X000657Y0166228D01*
X0004257Y0167925D02*
X000475Y0167925D01*
X0004257Y0167925D02*
X000475Y0167925D01*
X0004257Y0166427D02*
Y0167925D01*
Y0167456D02*
X0004727Y0167925D01*
X0004257Y0166741D02*
X0009189Y0161809D01*
X0004189Y0166209D02*
X0009189Y0161209D01*
X0003807Y0164005D02*
X000657Y0166768D01*
X0003893Y0165905D02*
X0009189Y0160609D01*
X0004273Y0167925D02*
X000657Y0165628D01*
X0004257Y0167341D02*
X00065Y0165098D01*
X0003794Y0164592D02*
X0006385Y0167184D01*
X000657Y0165149D02*
Y0166999D01*
X0003794Y0164593D02*
Y0165806D01*
X0003073Y0167925D02*
X0003497Y0167501D01*
X0002494Y0167492D02*
X0002927Y0167925D01*
X0002473D02*
X0003497Y0166901D01*
Y0166585D02*
Y0167925D01*
X0002526Y0167272D02*
X0003355Y0166443D01*
X0002132Y016773D02*
X0002327Y0167925D01*
X0001873D02*
X0002072Y0167726D01*
X0001273Y0167925D02*
X0001742Y0167456D01*
X0003794Y0165792D02*
X0005785Y0167784D01*
X0003794Y0165192D02*
X0006085Y0167484D01*
X0003146Y0166233D02*
X0003497Y0166585D01*
X0003794Y0165806D02*
X0004145Y0166158D01*
X0002363Y0166835D02*
X0003071Y0166127D01*
X0002065Y0166533D02*
X0003034Y0165564D01*
X0001765Y0166233D02*
X0003034Y0164964D01*
Y0164593D02*
Y0165964D01*
X0001465Y0165933D02*
X0003015Y0164383D01*
X000905Y0165548D02*
X0009189Y0165409D01*
X0008575Y0165423D02*
X0009189Y0164809D01*
X0007674Y0164872D02*
X0008016Y0165214D01*
X0008227Y0165171D02*
X0009189Y0164209D01*
X000748Y0165149D02*
Y0165235D01*
X0007195Y0164403D02*
X0009189Y0162409D01*
X0003794Y0164804D02*
X0009189Y0159409D01*
X0003794Y0165404D02*
X0009189Y0160009D01*
X000381Y0164188D02*
X0009189Y0158809D01*
X0003791Y0163607D02*
X0009189Y0158209D01*
X0003449Y016335D02*
X0009189Y0157609D01*
X000762Y0165178D02*
X0009189Y0163609D01*
X0007616Y0164582D02*
X0009189Y0163009D01*
X000118Y0085179D02*
X0009189Y0093188D01*
X000118Y0084579D02*
X0009189Y0092588D01*
X000118Y0085779D02*
X0009189Y0093788D01*
X000118Y0081579D02*
X0009189Y0089588D01*
X000118Y0080979D02*
X0009189Y0088988D01*
X000118Y0083979D02*
X0009189Y0091988D01*
X000118Y0086379D02*
X0009189Y0094388D01*
X000118Y0086979D02*
X0009189Y0094988D01*
X000118Y0068979D02*
X0009189Y0076988D01*
X000118Y0076819D02*
X0009189Y006881D01*
X000118Y0069579D02*
X0009189Y0077588D01*
X000118Y0076219D02*
X0009189Y006821D01*
X000118Y0067779D02*
X0009189Y0075788D01*
X000118Y0068379D02*
X0009189Y0076388D01*
X000118Y0079779D02*
X0009189Y0087788D01*
X000118Y0079179D02*
X0009189Y0087188D01*
X000118Y0080379D02*
X0009189Y0088388D01*
X000118Y0077979D02*
X0009189Y0085988D01*
X000118Y0078579D02*
X0009189Y0086588D01*
X000118Y001678D02*
X0009189Y0024789D01*
X000118Y001618D02*
X0009189Y0024189D01*
X000118Y001738D02*
X0009189Y0025389D01*
X000118Y001558D02*
X0009189Y0023589D01*
X000118Y002342D02*
X0009189Y0015411D01*
X000118Y002402D02*
X0009189Y0016011D01*
X000118Y002338D02*
X0009189Y0031389D01*
X000118Y002278D02*
X0009189Y0030789D01*
X000118Y002398D02*
X0009189Y0031989D01*
X000118Y001858D02*
X0009189Y0026589D01*
X000118Y001798D02*
X0009189Y0025989D01*
X000118Y002218D02*
X0009189Y0030189D01*
X000118Y001318D02*
X0009189Y0021189D01*
X0009189Y0165555D02*
X0009189Y000557D01*
X000118Y002162D02*
X0009189Y0013611D01*
X000118Y001258D02*
X0009189Y0020589D01*
X000118Y002042D02*
X0009189Y0012411D01*
X000118Y002102D02*
X0009189Y0013011D01*
X000118Y002282D02*
X0009189Y0014811D01*
X000118Y001438D02*
X0009189Y0022389D01*
X000118Y001498D02*
X0009189Y0022989D01*
X000118Y001378D02*
X0009189Y0021789D01*
X000118Y002222D02*
X0009189Y0014211D01*
X000118Y002458D02*
X0009189Y0032589D01*
X000118Y0032419D02*
X0009189Y0024411D01*
X000118Y003302D02*
X0009189Y0025011D01*
X000118Y003122D02*
X0009189Y0023211D01*
X000118Y003062D02*
X0009189Y0022611D01*
X000118Y003182D02*
X0009189Y0023811D01*
X000118Y002638D02*
X0009189Y0034388D01*
X000118Y0034219D02*
X0009189Y0026211D01*
X000118Y0034819D02*
X0009189Y0026811D01*
X000118Y0033619D02*
X0009189Y0025611D01*
X000118Y002518D02*
X0009189Y0033188D01*
X000118Y002578D02*
X0009189Y0033789D01*
X000118Y002702D02*
X0009189Y0019011D01*
X000118Y002642D02*
X0009189Y0018411D01*
X000118Y002762D02*
X0009189Y0019611D01*
X000118Y002522D02*
X0009189Y0017211D01*
X000118Y002462D02*
X0009189Y0016611D01*
X000118Y002582D02*
X0009189Y0017811D01*
X000118Y002942D02*
X0009189Y0021411D01*
X000118Y002882D02*
X0009189Y0020811D01*
X000118Y003002D02*
X0009189Y0022011D01*
X000118Y001918D02*
X0009189Y0027189D01*
X000118Y002822D02*
X0009189Y0020211D01*
X0002067Y0005667D02*
X0009189Y0012789D01*
X0003804Y0005604D02*
X0009189Y0010989D01*
X0001571Y0005771D02*
X0009189Y0013389D01*
X0008594Y0005594D02*
X0009189Y0006189D01*
X0008294Y0005894D02*
X0009189Y0006789D01*
X0003588Y0005988D02*
X0009189Y0011589D01*
X0003588Y0005988D02*
X0009189Y0011589D01*
X0003421Y0006421D02*
X0009189Y0012189D01*
X0007426Y0006226D02*
X0009189Y0007989D01*
X0007705Y0005905D02*
X0009189Y0007389D01*
X0006848Y0006248D02*
X0009189Y0008589D01*
X0008372Y0004227D02*
X0009189Y0003411D01*
Y0002975D02*
Y000478D01*
X0008325Y0003525D02*
X0009189Y0004389D01*
X0008375Y0002975D02*
X0009189Y0003789D01*
X0008975Y0002975D02*
X0009189Y0003189D01*
X000475Y0002975D02*
X0009189D01*
X0004235Y0004835D02*
X0009189Y0009789D01*
X0004436Y0004436D02*
X0009189Y0009189D01*
X0004019Y000522D02*
X0009189Y0010389D01*
X0009111Y0004689D02*
X0009189Y0004611D01*
X0008784Y0004416D02*
X0009189Y0004011D01*
X000118Y001018D02*
X0009189Y0018189D01*
X000118Y001802D02*
X0009189Y0010011D01*
X000118Y001862D02*
X0009189Y0010611D01*
X000118Y001742D02*
X0009189Y0009411D01*
X000118Y000898D02*
X0009189Y0016989D01*
X000118Y000958D02*
X0009189Y0017589D01*
X000118Y001982D02*
X0009189Y0011811D01*
X000118Y001138D02*
X0009189Y0019389D01*
X000118Y001198D02*
X0009189Y0019989D01*
X000118Y001078D02*
X0009189Y0018789D01*
X000118Y001922D02*
X0009189Y0011211D01*
X000118Y000718D02*
X0009189Y0015189D01*
X000118Y000658D02*
X0009189Y0014589D01*
X000118Y001502D02*
X0009189Y0007011D01*
X0001351Y0006151D02*
X0009189Y0013989D01*
X000118Y001382D02*
X0009189Y0005811D01*
X000118Y001442D02*
X0009189Y0006411D01*
X000118Y000838D02*
X0009189Y0016389D01*
X000118Y001622D02*
X0009189Y0008211D01*
X000118Y001682D02*
X0009189Y0008811D01*
X000118Y000778D02*
X0009189Y0015789D01*
X000118Y001562D02*
X0009189Y0007611D01*
X0005484Y0004884D02*
X0006377Y0005777D01*
X000304Y0005718D02*
X0003302Y0005252D01*
X0003017Y0005417D02*
X000314Y000554D01*
X0003017Y0005417D02*
X000314Y000554D01*
X0005369Y0004791D02*
X0006424Y0005648D01*
X0008891Y0004493D02*
X0009062Y0004643D01*
X0004545Y0003945D02*
X0005188Y0004589D01*
X0003573Y0006026D02*
X0005122Y0004478D01*
X0004326Y0004674D02*
X0004955Y0004045D01*
X0003571Y0006017D02*
X0004356Y0004621D01*
X0005083Y0004414D02*
X0005176Y0004568D01*
X0004371Y0004589D02*
X0004471Y0004351D01*
X000118Y002098D02*
X0009189Y0028989D01*
X000118Y002038D02*
X0009189Y0028389D01*
X000118Y002158D02*
X0009189Y0029589D01*
X000118Y001202D02*
X0007028Y0006171D01*
X000118Y001262D02*
X0007968Y0005832D01*
X000118Y001978D02*
X0009189Y0027789D01*
X000118Y0006447D02*
Y0008878D01*
X000118Y001082D02*
X0006384Y0005615D01*
X000118Y001142D02*
X0006476Y0006123D01*
X000118Y000782D02*
X0002786Y0006214D01*
X000118Y000662D02*
X0002181Y0005619D01*
X000118Y000842D02*
X0003101Y0006498D01*
X000118Y001022D02*
X0006053Y0005347D01*
X000118Y000962D02*
X0005722Y0005078D01*
X000118Y001322D02*
X0008883Y0005517D01*
X000118Y000722D02*
X0002948Y0005452D01*
X000118Y000902D02*
X0005391Y0004809D01*
X0002363Y0005363D02*
X0002854Y0005854D01*
X000118Y0006447D02*
X0001689Y0005567D01*
X0002313Y0005487D02*
X0002478Y0005321D01*
X0008056Y0004088D02*
X00087Y0004372D01*
X0008045Y0003845D02*
X000847Y0004271D01*
X0007055Y0003683D02*
Y0004131D01*
X0008045Y0003683D02*
Y000404D01*
X0008325Y0003315D02*
Y0003665D01*
X0008044D02*
X0008325D01*
X0006995Y0003995D02*
X0007055Y0004055D01*
X0006005Y0003683D02*
Y0004132D01*
X0005945Y0003683D02*
Y000404D01*
X0006995Y0003805D02*
X0007055Y0003745D01*
X0006995Y0003683D02*
Y000404D01*
X0005085Y0003315D02*
X0005425Y0002975D01*
X0007175D02*
X0007515Y0003315D01*
X0008045Y0003955D02*
X0009025Y0002975D01*
X0006885Y0003315D02*
X0007225Y0002975D01*
X0007775D02*
X0008115Y0003315D01*
X0008085D02*
X0008425Y0002975D01*
X0007485Y0003315D02*
X0007825Y0002975D01*
X0005685Y0003315D02*
X0006025Y0002975D01*
X0005975D02*
X0006315Y0003315D01*
X0005375Y0002975D02*
X0005715Y0003315D01*
X0006575Y0002975D02*
X0006915Y0003315D01*
X0006285D02*
X0006625Y0002975D01*
X0004955Y0003683D02*
Y0004132D01*
X0004544Y0003665D02*
X0004956D01*
X0004865D02*
X0004955Y0003755D01*
X0003555Y0003315D02*
X0008325D01*
X0004545Y0003683D02*
Y0004132D01*
Y0003855D02*
X0004735Y0003665D01*
X0001485Y0003315D02*
X0001825Y0002975D01*
X0004175Y0002975D02*
X0004515Y0003315D01*
X0004485D02*
X0004825Y0002975D01*
X0003885Y0003315D02*
X0004225Y0002975D01*
X0003527Y0002975D02*
X000475Y0002975D01*
X0004775D02*
X0005115Y0003315D01*
X0003527Y0002975D02*
X000475Y0002975D01*
X0003575Y0002975D02*
X0003915Y0003315D01*
X0001775Y0002975D02*
X0002085Y0003285D01*
X0003558Y0003042D02*
X0003625Y0002975D01*
X000118Y0136818D02*
X0009189Y012881D01*
X000118Y0128379D02*
X0009189Y0136387D01*
X000118Y0128979D02*
X0009189Y0136987D01*
X000118Y0127779D02*
X0009189Y0135787D01*
X000118Y0135618D02*
X0009189Y012761D01*
X000118Y0136218D02*
X0009189Y012821D01*
X000118Y0138618D02*
X0009189Y013061D01*
X000118Y0130179D02*
X0009189Y0138187D01*
X000118Y0130779D02*
X0009189Y0138787D01*
X000118Y0129579D02*
X0009189Y0137587D01*
X000118Y0137418D02*
X0009189Y012941D01*
X000118Y0138018D02*
X0009189Y013001D01*
X000118Y0125379D02*
X0009189Y0133387D01*
X000118Y0133218D02*
X0009189Y012521D01*
X000118Y0133818D02*
X0009189Y012581D01*
X000118Y0132618D02*
X0009189Y012461D01*
X000118Y0124179D02*
X0009189Y0132187D01*
X000118Y0124779D02*
X0009189Y0132787D01*
X000118Y0135018D02*
X0009189Y012701D01*
X000118Y0126579D02*
X0009189Y0134587D01*
X000118Y0127179D02*
X0009189Y0135187D01*
X000118Y0125979D02*
X0009189Y0133987D01*
X000118Y0134418D02*
X0009189Y012641D01*
X000118Y0135579D02*
X0009189Y0143587D01*
X000118Y0143418D02*
X0009189Y013541D01*
X000118Y0144018D02*
X0009189Y013601D01*
X000118Y0142818D02*
X0009189Y013481D01*
X000118Y0134379D02*
X0009189Y0142387D01*
X000118Y0134979D02*
X0009189Y0142987D01*
X000118Y0137379D02*
X0009189Y0145387D01*
X000118Y0145218D02*
X0009189Y013721D01*
X000118Y0145818D02*
X0009189Y013781D01*
X000118Y0144618D02*
X0009189Y013661D01*
X000118Y0136179D02*
X0009189Y0144187D01*
X000118Y0136779D02*
X0009189Y0144787D01*
X000118Y0140418D02*
X0009189Y013241D01*
X000118Y0131979D02*
X0009189Y0139987D01*
X000118Y0132579D02*
X0009189Y0140587D01*
X000118Y0131379D02*
X0009189Y0139387D01*
X000118Y0139218D02*
X0009189Y013121D01*
X000118Y0139818D02*
X0009189Y013181D01*
X000118Y0133779D02*
X0009189Y0141787D01*
X000118Y0141618D02*
X0009189Y013361D01*
X000118Y0142218D02*
X0009189Y013421D01*
X000118Y0141018D02*
X0009189Y013301D01*
X000118Y0133179D02*
X0009189Y0141187D01*
X000118Y0124219D02*
X0009189Y011621D01*
X000118Y0123619D02*
X0009189Y011561D01*
X000118Y0124819D02*
X0009189Y011681D01*
X000118Y0114579D02*
X0009189Y0122588D01*
X000118Y0122419D02*
X0009189Y011441D01*
X000118Y0123019D02*
X0009189Y011501D01*
X000118Y0117579D02*
X0009189Y0125588D01*
X000118Y0116979D02*
X0009189Y0124988D01*
X000118Y0118179D02*
X0009189Y0126188D01*
X000118Y0115779D02*
X0009189Y0123788D01*
X000118Y0115179D02*
X0009189Y0123188D01*
X000118Y0116379D02*
X0009189Y0124388D01*
X000118Y0121219D02*
X0009189Y011321D01*
X000118Y0120619D02*
X0009189Y011261D01*
X000118Y0121819D02*
X0009189Y011381D01*
X000118Y0110979D02*
X0009189Y0118988D01*
X000118Y0110379D02*
X0009189Y0118388D01*
X000118Y0120019D02*
X0009189Y011201D01*
X000118Y0113379D02*
X0009189Y0121388D01*
X000118Y0112779D02*
X0009189Y0120788D01*
X000118Y0113979D02*
X0009189Y0121988D01*
X000118Y0111579D02*
X0009189Y0119588D01*
X000118Y0112179D02*
X0009189Y0120188D01*
X000118Y0121779D02*
X0009189Y0129787D01*
X000118Y0129618D02*
X0009189Y012161D01*
X000118Y0130218D02*
X0009189Y012221D01*
X000118Y0129018D02*
X0009189Y012101D01*
X000118Y0120579D02*
X0009189Y0128587D01*
X000118Y0121179D02*
X0009189Y0129187D01*
X000118Y0123579D02*
X0009189Y0131587D01*
X000118Y0131418D02*
X0009189Y012341D01*
X000118Y0132018D02*
X0009189Y012401D01*
X000118Y0130818D02*
X0009189Y012281D01*
X000118Y0122379D02*
X0009189Y0130387D01*
X000118Y0122979D02*
X0009189Y0130987D01*
X000118Y0126619D02*
X0009189Y011861D01*
X000118Y0126019D02*
X0009189Y011801D01*
X000118Y0118779D02*
X0009189Y0126788D01*
X000118Y0119419D02*
X0009189Y011141D01*
X000118Y0118819D02*
X0009189Y011081D01*
X000118Y0125419D02*
X0009189Y011741D01*
X000118Y0119979D02*
X0009189Y0127988D01*
X000118Y0127819D02*
X0009189Y011981D01*
X000118Y0128419D02*
X0009189Y012041D01*
X000118Y0127219D02*
X0009189Y011921D01*
X000118Y0119379D02*
X0009189Y0127388D01*
X000118Y0155978D02*
X0009189Y0163987D01*
X000118Y0163818D02*
X0009189Y0155809D01*
X000118Y0164418D02*
X0009189Y0156409D01*
X000118Y0163218D02*
X0009189Y015521D01*
X000118Y0154779D02*
X0009189Y0162787D01*
X000118Y0155378D02*
X0009189Y0163387D01*
X000118Y0162578D02*
X0003011Y016441D01*
X000118Y0158978D02*
X0006625Y0164424D01*
X000118Y0156578D02*
X0009189Y0164587D01*
X000118Y0161978D02*
X0003013Y0163811D01*
X000118Y0161378D02*
X0003207Y0163405D01*
X000118Y0158378D02*
X0007203Y0164401D01*
X000118Y0160818D02*
X0009189Y015281D01*
X000118Y0152379D02*
X0009189Y0160387D01*
X000118Y0152979D02*
X0009189Y0160987D01*
X000118Y0151779D02*
X0009189Y0159787D01*
X000118Y0159618D02*
X0009189Y015161D01*
X000118Y0160218D02*
X0009189Y015221D01*
X000118Y0154179D02*
X0009189Y0162187D01*
X000118Y0162018D02*
X0009189Y015401D01*
X000118Y0162618D02*
X0009189Y015461D01*
X000118Y0161418D02*
X0009189Y015341D01*
X000118Y0153579D02*
X0009189Y0161587D01*
X000083Y0167925D02*
X0003497D01*
X000118Y0165578D02*
X0003497Y0167896D01*
X000083Y0167028D02*
X0001727Y0167925D01*
X0001069Y01664D02*
X0001781Y0167112D01*
X000118Y0165649D02*
X0002341Y0166809D01*
X000083Y0166428D02*
X000172Y0167318D01*
X000083Y0167628D02*
X0001127Y0167925D01*
X000083Y0167768D02*
X0001633Y0166965D01*
X000083Y01664D02*
X000083Y0167925D01*
X000083Y0167168D02*
X0001333Y0166665D01*
X000083Y0166568D02*
X0000998Y01664D01*
X000083D02*
X0001069D01*
X000118Y0160178D02*
X000657Y0165568D01*
X000118Y0157778D02*
X0008968Y0165567D01*
X000118Y0160778D02*
X000657Y0166168D01*
X000118Y0159578D02*
X0006371Y016477D01*
X000118Y0165018D02*
X0009189Y0157009D01*
X000118Y0157178D02*
X0009189Y0165187D01*
X000118Y0164378D02*
X0003497Y0166696D01*
X000118Y0163778D02*
X0003034Y0165632D01*
X000118Y0164978D02*
X0003497Y0167296D01*
X000118Y0163178D02*
X0003034Y0165032D01*
X000118Y0165618D02*
X000301Y0163788D01*
X000118Y0143379D02*
X0009189Y0151387D01*
X000118Y0142779D02*
X0009189Y0150787D01*
X000118Y0143979D02*
X0009189Y0151987D01*
X000118Y0141579D02*
X0009189Y0149587D01*
X000118Y0149418D02*
X0009189Y014141D01*
X000118Y0142179D02*
X0009189Y0150187D01*
X000118Y0146979D02*
X0009189Y0154987D01*
X000118Y0146379D02*
X0009189Y0154387D01*
X000118Y0147579D02*
X0009189Y0155587D01*
X000118Y0145179D02*
X0009189Y0153187D01*
X000118Y0144579D02*
X0009189Y0152587D01*
X000118Y0145779D02*
X0009189Y0153787D01*
X000118Y0139179D02*
X0009189Y0147187D01*
X000118Y0147018D02*
X0009189Y013901D01*
X000118Y0147618D02*
X0009189Y013961D01*
X000118Y0146418D02*
X0009189Y013841D01*
X000118Y0137979D02*
X0009189Y0145987D01*
X000118Y0138579D02*
X0009189Y0146587D01*
X000118Y0148818D02*
X0009189Y014081D01*
X000118Y0140379D02*
X0009189Y0148387D01*
X000118Y0140979D02*
X0009189Y0148987D01*
X000118Y0139779D02*
X0009189Y0147787D01*
X000118Y0148218D02*
X0009189Y014021D01*
X000118Y0149379D02*
X0009189Y0157387D01*
X000118Y0157218D02*
X0009189Y014921D01*
X000118Y0157818D02*
X0009189Y014981D01*
X000118Y0148779D02*
X0009189Y0156787D01*
X000118Y0148179D02*
X0009189Y0156187D01*
X000118Y0156618D02*
X0009189Y014861D01*
X000118Y0159018D02*
X0009189Y015101D01*
X000118Y0150579D02*
X0009189Y0158587D01*
X000118Y0151179D02*
X0009189Y0159187D01*
X000118Y0149979D02*
X0009189Y0157987D01*
X000118Y0158418D02*
X0009189Y015041D01*
X000118Y0152418D02*
X0009189Y014441D01*
X000118Y0151818D02*
X0009189Y014381D01*
X000118Y0153018D02*
X0009189Y014501D01*
X000118Y0150618D02*
X0009189Y014261D01*
X000118Y0150018D02*
X0009189Y014201D01*
X000118Y0151218D02*
X0009189Y014321D01*
X000118Y0155418D02*
X0009189Y014741D01*
X000118Y0154818D02*
X0009189Y014681D01*
X000118Y0156018D02*
X0009189Y014801D01*
X000118Y0153618D02*
X0009189Y014561D01*
X000118Y0154218D02*
X0009189Y014621D01*
X000118Y0074379D02*
X0009189Y0082388D01*
X000118Y0082219D02*
X0009189Y007421D01*
X000118Y0082819D02*
X0009189Y007481D01*
X000118Y0081619D02*
X0009189Y007361D01*
X000118Y0073179D02*
X0009189Y0081188D01*
X000118Y0073779D02*
X0009189Y0081788D01*
X000118Y0076179D02*
X0009189Y0084188D01*
X000118Y0084019D02*
X0009189Y007601D01*
X000118Y0084619D02*
X0009189Y007661D01*
X000118Y0083419D02*
X0009189Y007541D01*
X000118Y0074979D02*
X0009189Y0082988D01*
X000118Y0075579D02*
X0009189Y0083588D01*
X000118Y0079219D02*
X0009189Y007121D01*
X000118Y0070779D02*
X0009189Y0078788D01*
X000118Y0071379D02*
X0009189Y0079388D01*
X000118Y0070179D02*
X0009189Y0078188D01*
X000118Y0078019D02*
X0009189Y007001D01*
X000118Y0078619D02*
X0009189Y007061D01*
X000118Y0072579D02*
X0009189Y0080588D01*
X000118Y0080419D02*
X0009189Y007241D01*
X000118Y0081019D02*
X0009189Y007301D01*
X000118Y0079819D02*
X0009189Y007181D01*
X000118Y0071979D02*
X0009189Y0079988D01*
X000118Y0093019D02*
X0009189Y008501D01*
X000118Y0092419D02*
X0009189Y008441D01*
X000118Y0088179D02*
X0009189Y0096188D01*
X000118Y0091219D02*
X0009189Y008321D01*
X000118Y0090619D02*
X0009189Y008261D01*
X000118Y0091819D02*
X0009189Y008381D01*
X000118Y0115219D02*
X0009189Y010721D01*
X000118Y0106779D02*
X0009189Y0114788D01*
X000118Y0107379D02*
X0009189Y0115388D01*
X000118Y0114019D02*
X0009189Y010601D01*
X000118Y0105579D02*
X0009189Y0113588D01*
X000118Y0106179D02*
X0009189Y0114188D01*
X000118Y0086419D02*
X0009189Y007841D01*
X000118Y0085819D02*
X0009189Y007781D01*
X000118Y0087019D02*
X0009189Y007901D01*
X000118Y0085219D02*
X0009189Y007721D01*
X000118Y0076779D02*
X0009189Y0084788D01*
X000118Y0077379D02*
X0009189Y0085388D01*
X000118Y0089419D02*
X0009189Y008141D01*
X000118Y0088819D02*
X0009189Y008081D01*
X000118Y0090019D02*
X0009189Y008201D01*
X000118Y0087619D02*
X0009189Y007961D01*
X000118Y0088219D02*
X0009189Y008021D01*
X000118Y005698D02*
X0009189Y0064988D01*
X000118Y0064819D02*
X0009189Y0056811D01*
X000118Y0065419D02*
X0009189Y0057411D01*
X000118Y0064219D02*
X0009189Y0056211D01*
X000118Y0063619D02*
X0009189Y0055611D01*
X000118Y005638D02*
X0009189Y0064388D01*
X000118Y005878D02*
X0009189Y0066788D01*
X000118Y0066619D02*
X0009189Y0058611D01*
X000118Y0067219D02*
X0009189Y005921D01*
X000118Y0066019D02*
X0009189Y0058011D01*
X000118Y005758D02*
X0009189Y0065588D01*
X000118Y005818D02*
X0009189Y0066188D01*
X000118Y0058819D02*
X0009189Y0050811D01*
X000118Y0058219D02*
X0009189Y0050211D01*
X000118Y0059419D02*
X0009189Y0051411D01*
X000118Y0057019D02*
X0009189Y0049011D01*
X000118Y0056419D02*
X0009189Y0048411D01*
X000118Y0057619D02*
X0009189Y0049611D01*
X000118Y0062419D02*
X0009189Y0054411D01*
X000118Y0061219D02*
X0009189Y0053211D01*
X000118Y0063019D02*
X0009189Y0055011D01*
X000118Y0060019D02*
X0009189Y0052011D01*
X000118Y0060619D02*
X0009189Y0052611D01*
X000118Y0064179D02*
X0009189Y0072188D01*
X000118Y0072019D02*
X0009189Y006401D01*
X000118Y0072619D02*
X0009189Y006461D01*
X000118Y0071419D02*
X0009189Y006341D01*
X000118Y0062979D02*
X0009189Y0070988D01*
X000118Y0063579D02*
X0009189Y0071588D01*
X000118Y0073819D02*
X0009189Y006581D01*
X000118Y0065379D02*
X0009189Y0073388D01*
X000118Y0077419D02*
X0009189Y006941D01*
X000118Y0064779D02*
X0009189Y0072788D01*
X000118Y0073219D02*
X0009189Y006521D01*
X000118Y0069019D02*
X0009189Y006101D01*
X000118Y0060579D02*
X0009189Y0068588D01*
X000118Y0061179D02*
X0009189Y0069188D01*
X000118Y0059979D02*
X0009189Y0067988D01*
X000118Y005938D02*
X0009189Y0067388D01*
X000118Y0068419D02*
X0009189Y006041D01*
X000118Y0062379D02*
X0009189Y0070388D01*
X000118Y0070219D02*
X0009189Y006221D01*
X000118Y0070819D02*
X0009189Y006281D01*
X000118Y0069619D02*
X0009189Y006161D01*
X000118Y0061779D02*
X0009189Y0069788D01*
X000118Y0099579D02*
X0009189Y0107588D01*
X000118Y0107419D02*
X0009189Y009941D01*
X000118Y0108019D02*
X0009189Y010001D01*
X000118Y0106819D02*
X0009189Y009881D01*
X000118Y0098379D02*
X0009189Y0106388D01*
X000118Y0098979D02*
X0009189Y0106988D01*
X000118Y0101379D02*
X0009189Y0109388D01*
X000118Y0109219D02*
X0009189Y010121D01*
X000118Y0109819D02*
X0009189Y010181D01*
X000118Y0108619D02*
X0009189Y010061D01*
X000118Y0100179D02*
X0009189Y0108188D01*
X000118Y0100779D02*
X0009189Y0108788D01*
X000118Y0104419D02*
X0009189Y009641D01*
X000118Y0095979D02*
X0009189Y0103988D01*
X000118Y0096579D02*
X0009189Y0104588D01*
X000118Y0095379D02*
X0009189Y0103388D01*
X000118Y0103219D02*
X0009189Y009521D01*
X000118Y0103819D02*
X0009189Y009581D01*
X000118Y0097779D02*
X0009189Y0105788D01*
X000118Y0105619D02*
X0009189Y009761D01*
X000118Y0106219D02*
X0009189Y009821D01*
X000118Y0105019D02*
X0009189Y009701D01*
X000118Y0097179D02*
X0009189Y0105188D01*
X000118Y0107979D02*
X0009189Y0115988D01*
X000118Y0115819D02*
X0009189Y010781D01*
X000118Y0116419D02*
X0009189Y010841D01*
X000118Y0113419D02*
X0009189Y010541D01*
X000118Y0104979D02*
X0009189Y0112988D01*
X000118Y0114619D02*
X0009189Y010661D01*
X000118Y0109779D02*
X0009189Y0117788D01*
X000118Y0117619D02*
X0009189Y010961D01*
X000118Y0118219D02*
X0009189Y011021D01*
X000118Y0117019D02*
X0009189Y010901D01*
X000118Y0108579D02*
X0009189Y0116588D01*
X000118Y0109179D02*
X0009189Y0117188D01*
X000118Y0103179D02*
X0009189Y0111188D01*
X000118Y0111019D02*
X0009189Y010301D01*
X000118Y0111619D02*
X0009189Y010361D01*
X000118Y0110419D02*
X0009189Y010241D01*
X000118Y0101979D02*
X0009189Y0109988D01*
X000118Y0102579D02*
X0009189Y0110588D01*
X000118Y0112819D02*
X0009189Y010481D01*
X000118Y0104379D02*
X0009189Y0112388D01*
X000118Y0165649D02*
X000118Y0008881D01*
X000118Y0103779D02*
X0009189Y0111788D01*
X000118Y0112219D02*
X0009189Y010421D01*
X000118Y0100819D02*
X0009189Y009281D01*
X000118Y0092379D02*
X0009189Y0100388D01*
X000118Y0092979D02*
X0009189Y0100988D01*
X000118Y0091779D02*
X0009189Y0099788D01*
X000118Y0099619D02*
X0009189Y009161D01*
X000118Y0100219D02*
X0009189Y009221D01*
X000118Y0102619D02*
X0009189Y009461D01*
X000118Y0094179D02*
X0009189Y0102188D01*
X000118Y0094779D02*
X0009189Y0102788D01*
X000118Y0093579D02*
X0009189Y0101588D01*
X000118Y0101419D02*
X0009189Y009341D01*
X000118Y0102019D02*
X0009189Y009401D01*
X000118Y0094219D02*
X0009189Y008621D01*
X000118Y0093619D02*
X0009189Y008561D01*
X000118Y0094819D02*
X0009189Y008681D01*
X000118Y0082779D02*
X0009189Y0090788D01*
X000118Y0082179D02*
X0009189Y0090188D01*
X000118Y0083379D02*
X0009189Y0091388D01*
X000118Y0099019D02*
X0009189Y009101D01*
X000118Y0096019D02*
X0009189Y008801D01*
X000118Y0091179D02*
X0009189Y0099188D01*
X000118Y0095419D02*
X0009189Y008741D01*
X000118Y0087579D02*
X0009189Y0095588D01*
X000118Y0097819D02*
X0009189Y008981D01*
X000118Y0089379D02*
X0009189Y0097388D01*
X000118Y0089979D02*
X0009189Y0097988D01*
X000118Y0088779D02*
X0009189Y0096788D01*
X000118Y0096619D02*
X0009189Y008861D01*
X000118Y0097219D02*
X0009189Y008921D01*
X000118Y0090579D02*
X0009189Y0098588D01*
X000118Y0098419D02*
X0009189Y009041D01*
X000083Y000397D02*
X0001105Y0003695D01*
X000083Y000383D02*
X0001088Y0004088D01*
X0001175Y0003315D02*
Y000351D01*
X0001175Y0002975D02*
X0001515Y0003315D01*
X000083Y000337D02*
X0001225Y0002975D01*
X0001175Y0003315D02*
X0002095D01*
X000083Y0002975D02*
X0002123D01*
X000083D02*
X0002123D01*
X0001105Y0003683D02*
Y0004037D01*
X000083Y0002975D02*
Y00041D01*
Y000323D02*
X0001146Y0003546D01*
X000083Y000323D02*
X0001146Y0003546D01*
D16*
X0001425Y0002092D02*
D03*
Y0003908D02*
D03*
X0001775D02*
D03*
X0002125D02*
D03*
X0002475D02*
D03*
X0002825D02*
D03*
X0003175D02*
D03*
X0003525D02*
D03*
X0003875D02*
D03*
X0004225D02*
D03*
X0004575D02*
D03*
X0004925D02*
D03*
X0005275D02*
D03*
X0005625D02*
D03*
X0005975D02*
D03*
X0006325D02*
D03*
X0006675D02*
D03*
X0007025D02*
D03*
X0007375D02*
D03*
X0007725D02*
D03*
X0008075D02*
D03*
X0001775Y0002092D02*
D03*
X0002125D02*
D03*
X0002475D02*
D03*
X0002825D02*
D03*
X0003175D02*
D03*
X0003525D02*
D03*
X0003875D02*
D03*
X0004225D02*
D03*
X0004575D02*
D03*
X0004925D02*
D03*
X0005275D02*
D03*
X0005625D02*
D03*
X0005975D02*
D03*
X0006325D02*
D03*
X0006675D02*
D03*
X0007025D02*
D03*
X0007375D02*
D03*
X0007725D02*
D03*
X0008075D02*
D03*
D17*
X0008475D02*
D03*
Y0003908D02*
D03*
X0001025Y0002092D02*
D03*
Y0003908D02*
D03*
D18*
X0001096Y0169025D02*
X0002675D01*
X0002404Y0001075D02*
X000255Y0001222D01*
Y00015D01*
X0001075Y0001075D02*
X0002404D01*
X0000475Y0001675D02*
X0001075Y0001075D01*
X0000475Y0001675D02*
Y0004883D01*
X0000475Y0004883D01*
Y0008878D01*
X0000475Y0166104D02*
X0000475Y0008878D01*
X0000475Y0168404D02*
X0001096Y0169025D01*
X0002675D02*
X000275Y016895D01*
X0000475Y0166104D02*
X0000475Y0168404D01*
D19*
X0006288Y0001542D02*
D03*
X0005238Y0001542D02*
D03*
X0006366Y0004188D02*
D03*
X0006712Y0001542D02*
D03*
X0005316Y0004188D02*
D03*
X0005662Y0001542D02*
D03*
X0002725Y0004325D02*
D03*
D21*
X0008075Y0002092D02*
Y0003908D01*
X0007025Y0002092D02*
Y0003908D01*
X0005975Y0002092D02*
Y0003908D01*
D22*
X00091Y0005175D02*
D03*
X00016Y0003D02*
D03*
X0001275Y0004875D02*
D03*
X0001175Y0003D02*
D03*
X00077Y00055D02*
D03*
X00082D02*
D03*
X00052Y000145D02*
D03*
X000675Y000145D02*
D03*
X0003877Y0001598D02*
D03*
X000625Y000145D02*
D03*
X0007275Y000585D02*
D03*
X00057Y000145D02*
D03*
X0002475Y0003175D02*
D03*
X0003175Y00061D02*
D03*
X00028Y0005075D02*
D03*
X0003175Y0003175D02*
D03*
X00078Y000145D02*
D03*
X0004685Y000142D02*
D03*
X0008325D02*
D03*
X000895Y0003025D02*
D03*
X000895Y0003545D02*
D03*
X000815Y0003025D02*
D03*
X00086Y0005175D02*
D03*
X000855Y0003025D02*
D03*
X000895Y0002482D02*
D03*
Y0001939D02*
D03*
X00073Y000145D02*
D03*
X000475Y0003D02*
D03*
X0004377Y0003001D02*
D03*
X0006775Y000585D02*
D03*
X0007805Y00009D02*
D03*
X0006765D02*
D03*
X0007285D02*
D03*
X0006245D02*
D03*
X000335Y000485D02*
D03*
X0001968Y0005274D02*
D03*
X0002025Y000155D02*
D03*
X0008325Y00009D02*
D03*
X000895Y0001397D02*
D03*
X000895Y0004065D02*
D03*
X0004685Y00009D02*
D03*
X0000925Y00045D02*
D03*
X0000973Y0003422D02*
D03*
X0001669Y0001544D02*
D03*
X0000975Y00026D02*
D03*
X000415Y000135D02*
D03*
X00036D02*
D03*
X0005205Y00009D02*
D03*
X0008955D02*
D03*
X0005725D02*
D03*
X00091Y016595D02*
D03*
X00078Y01691D02*
D03*
X00086Y016595D02*
D03*
X00073Y01691D02*
D03*
X00082Y0165575D02*
D03*
X000675Y01691D02*
D03*
X00077Y0165575D02*
D03*
X000625Y01691D02*
D03*
X0007275Y01648D02*
D03*
X00057Y01691D02*
D03*
X00052D02*
D03*
X0006775Y01648D02*
D03*
X0003877Y0168902D02*
D03*
X0003414Y0164453D02*
D03*
Y0163753D02*
D03*
Y0164103D02*
D03*
X000625Y0169625D02*
D03*
X000729D02*
D03*
X000833Y0169105D02*
D03*
X000469D02*
D03*
X000521Y0169625D02*
D03*
X000469D02*
D03*
X000833D02*
D03*
X000677D02*
D03*
X0009Y0169143D02*
D03*
X000781Y0169625D02*
D03*
X000573D02*
D03*
X0009Y0169625D02*
D03*
X0004395Y01675D02*
D03*
X0000973Y0167922D02*
D03*
X0000975Y01671D02*
D03*
X0001175Y01675D02*
D03*
X00016D02*
D03*
X000275D02*
D03*
X0003375D02*
D03*
X0009Y016823D02*
D03*
X000255Y0169275D02*
D03*
X000275Y016895D02*
D03*
X0002125Y0167325D02*
D03*
X00036Y016915D02*
D03*
X000415D02*
D03*
X0005924Y01675D02*
D03*
X0009Y0168712D02*
D03*
X0005542Y01675D02*
D03*
X0005159D02*
D03*
X0004777D02*
D03*
M02*
