G04*
G04 #@! TF.GenerationSoftware,Altium Limited,Altium Designer,21.8.1 (53)*
G04*
G04 Layer_Color=65535*
%FSTAX43Y43*%
%MOMM*%
G71*
G04*
G04 #@! TF.SameCoordinates,454ED16F-8ED5-4277-8FB5-D7BBC8B68C5D*
G04*
G04*
G04 #@! TF.FilePolarity,Positive*
G04*
G01*
G75*
%ADD10C,0.300*%
%ADD11C,0.150*%
%ADD12C,0.200*%
%ADD13C,0.160*%
D10*
X0008419Y0163D02*
X0009117Y0162302D01*
X0005591Y0163D02*
X0007191Y01614D01*
X0008419Y0163D02*
X0009117Y0162302D01*
X0004177Y0163D02*
X0005777Y01614D01*
X0003307D02*
X0004907Y0163D01*
X0004722Y01614D02*
X0006322Y0163D01*
X0009117Y01614D02*
Y0163D01*
X000755Y01614D02*
X0009117Y0162967D01*
X0008964Y01614D02*
X0009117Y0161553D01*
X0006136Y01614D02*
X0007736Y0163D01*
X0007005D02*
X0008605Y01614D01*
X0000383Y0163D02*
X0009117D01*
X0000383Y0162718D02*
X0000665Y0163D01*
X0000383Y0162551D02*
X0001534Y01614D01*
X0000383D02*
Y0163D01*
Y0162718D02*
X0000665Y0163D01*
X0002763D02*
X0004363Y01614D01*
X0001893D02*
X0003493Y0163D01*
X0000383Y01614D02*
X0009117D01*
X0000479D02*
X0002079Y0163D01*
X0001348D02*
X0002948Y01614D01*
X00004Y0008087D02*
X00091D01*
X00004Y0006487D02*
Y0008087D01*
Y0006487D02*
X00091D01*
Y0008087D01*
X0002566Y0095165D02*
X00029Y0095498D01*
Y0096165D01*
X0002566Y0096498D01*
X0002233D01*
X00019Y0096165D01*
Y0095498D01*
X0001567Y0095165D01*
X0001234D01*
X00009Y0095498D01*
Y0096165D01*
X0001234Y0096498D01*
X00009Y0094499D02*
X0002233D01*
X00029Y0093832D01*
X0002233Y0093166D01*
X00009D01*
X00019D01*
Y0094499D01*
X00009Y0092499D02*
X00029D01*
Y00915D01*
X0002566Y0091166D01*
X00019D01*
X0001567Y00915D01*
Y0092499D01*
Y0091833D02*
X00009Y0091166D01*
Y00905D02*
X0002233D01*
X00029Y0089833D01*
X0002233Y0089167D01*
X00009D01*
X00019D01*
Y00905D01*
X00029Y00885D02*
X00009D01*
X0001567D01*
X00029Y0087168D01*
X00019Y0088167D01*
X00009Y0087168D01*
X00029Y0086501D02*
Y0085835D01*
Y0086168D01*
X00009D01*
Y0086501D01*
Y0085835D01*
X00029Y0084835D02*
Y0083502D01*
Y0084169D01*
X00009D01*
D11*
X00086Y01687D02*
X000895D01*
X00086Y01663D02*
X000895D01*
Y01687D01*
X000055D02*
X00009D01*
X000055Y01663D02*
X00009D01*
X000055D02*
Y01687D01*
X00009Y016585D02*
X0000667D01*
X0000783D01*
Y0165267D01*
X0000667Y016515D01*
X000055D01*
X0000433Y0165267D01*
X0001133Y016515D02*
X0001367D01*
X000125D01*
Y016585D01*
X0001133Y0165733D01*
D12*
X0001267Y0077191D02*
X00006Y0076858D01*
X0001267Y0076525D01*
X00006Y0076191D02*
Y0075858D01*
Y0076025D01*
X00016D01*
X0001433Y0076191D01*
X00006Y0075358D02*
X0000767D01*
Y0075192D01*
X00006D01*
Y0075358D01*
X0001433Y0074525D02*
X00016Y0074359D01*
Y0074025D01*
X0001433Y0073859D01*
X0000767D01*
X00006Y0074025D01*
Y0074359D01*
X0000767Y0074525D01*
X0001433D01*
D13*
X0003684Y000605D02*
Y000525D01*
Y000565D01*
X0004217D01*
Y000605D01*
Y000525D01*
X0004483Y000605D02*
Y0005383D01*
X0004617Y000525D01*
X0004883D01*
X0005017Y0005383D01*
Y000605D01*
X0005283D02*
Y000525D01*
X0005683D01*
X0005816Y0005383D01*
Y0005517D01*
X0005683Y000565D01*
X0005283D01*
X0005683D01*
X0005816Y0005783D01*
Y0005917D01*
X0005683Y000605D01*
X0005283D01*
X000335Y01635D02*
Y01643D01*
X0003617Y0164033D01*
X0003884Y01643D01*
Y01635D01*
X000415D02*
Y0164033D01*
X0004417Y01643D01*
X0004683Y0164033D01*
Y01635D01*
Y01639D01*
X000415D01*
X000495Y01643D02*
X0005216D01*
X0005083D01*
Y01635D01*
X000495D01*
X0005216D01*
X0005616D02*
Y01643D01*
X000615Y01635D01*
Y01643D01*
M02*
